{
	"asset":{
		"generator":"Khronos glTF Blender I/O v4.2.57",
		"version":"2.0"
	},
	"scene":0,
	"scenes":[
		{
			"name":"Scene",
			"nodes":[
				3
			]
		}
	],
	"nodes":[
		{
			"name":"\u30dc\u30fc\u30f3",
			"translation":[
				0,
				-1.855973720550537,
				0
			]
		},
		{
			"name":"\u30dc\u30fc\u30f3.001",
			"translation":[
				0.0013933099107816815,
				1.2598860263824463,
				0.0018510303925722837
			]
		},
		{
			"mesh":0,
			"name":"\u5186\u67f1",
			"skin":0
		},
		{
			"children":[
				2,
				0,
				1
			],
			"name":"\u30a2\u30fc\u30de\u30c1\u30e5\u30a2.001"
		}
	],
	"animations":[
		{
			"channels":[
				{
					"sampler":0,
					"target":{
						"node":0,
						"path":"translation"
					}
				},
				{
					"sampler":1,
					"target":{
						"node":0,
						"path":"rotation"
					}
				},
				{
					"sampler":2,
					"target":{
						"node":0,
						"path":"scale"
					}
				},
				{
					"sampler":3,
					"target":{
						"node":1,
						"path":"translation"
					}
				},
				{
					"sampler":4,
					"target":{
						"node":1,
						"path":"rotation"
					}
				},
				{
					"sampler":5,
					"target":{
						"node":1,
						"path":"scale"
					}
				}
			],
			"name":"\u30a2\u30fc\u30de\u30c1\u30e5\u30a2.001\u30a2\u30af\u30b7\u30e7\u30f3",
			"samplers":[
				{
					"input":7,
					"interpolation":"LINEAR",
					"output":8
				},
				{
					"input":7,
					"interpolation":"LINEAR",
					"output":9
				},
				{
					"input":7,
					"interpolation":"LINEAR",
					"output":10
				},
				{
					"input":7,
					"interpolation":"LINEAR",
					"output":11
				},
				{
					"input":7,
					"interpolation":"LINEAR",
					"output":12
				},
				{
					"input":7,
					"interpolation":"LINEAR",
					"output":13
				}
			]
		},
		{
			"channels":[
				{
					"sampler":0,
					"target":{
						"node":0,
						"path":"translation"
					}
				},
				{
					"sampler":1,
					"target":{
						"node":0,
						"path":"rotation"
					}
				},
				{
					"sampler":2,
					"target":{
						"node":0,
						"path":"scale"
					}
				},
				{
					"sampler":3,
					"target":{
						"node":1,
						"path":"translation"
					}
				},
				{
					"sampler":4,
					"target":{
						"node":1,
						"path":"rotation"
					}
				},
				{
					"sampler":5,
					"target":{
						"node":1,
						"path":"scale"
					}
				}
			],
			"name":"\u30a2\u30fc\u30de\u30c1\u30e5\u30a2\u30a2\u30af\u30b7\u30e7\u30f3_\u30a2\u30fc\u30de\u30c1\u30e5\u30a2",
			"samplers":[
				{
					"input":14,
					"interpolation":"STEP",
					"output":15
				},
				{
					"input":14,
					"interpolation":"STEP",
					"output":16
				},
				{
					"input":14,
					"interpolation":"STEP",
					"output":17
				},
				{
					"input":14,
					"interpolation":"STEP",
					"output":18
				},
				{
					"input":14,
					"interpolation":"STEP",
					"output":19
				},
				{
					"input":14,
					"interpolation":"STEP",
					"output":20
				}
			]
		}
	],
	"materials":[
		{
			"alphaMode":"BLEND",
			"doubleSided":true,
			"name":"\u30de\u30c6\u30ea\u30a2\u30eb",
			"pbrMetallicRoughness":{
				"baseColorTexture":{
					"index":0
				},
				"metallicFactor":0,
				"roughnessFactor":0.5
			}
		}
	],
	"meshes":[
		{
			"name":"\u5186\u67f1",
			"primitives":[
				{
					"attributes":{
						"POSITION":0,
						"NORMAL":1,
						"TEXCOORD_0":2,
						"JOINTS_0":3,
						"WEIGHTS_0":4
					},
					"indices":5,
					"material":0
				}
			]
		}
	],
	"textures":[
		{
			"sampler":0,
			"source":0
		}
	],
	"images":[
		{
			"mimeType":"image/png",
			"name":"Effect11",
			"uri":"Effect11.png"
		}
	],
	"skins":[
		{
			"inverseBindMatrices":6,
			"joints":[
				0,
				1
			],
			"name":"\u30a2\u30fc\u30de\u30c1\u30e5\u30a2.001"
		}
	],
	"accessors":[
		{
			"bufferView":0,
			"componentType":5126,
			"count":64,
			"max":[
				1,
				1.6328696012496948,
				1
			],
			"min":[
				-1,
				-1.6328696012496948,
				-1
			],
			"type":"VEC3"
		},
		{
			"bufferView":1,
			"componentType":5126,
			"count":64,
			"type":"VEC3"
		},
		{
			"bufferView":2,
			"componentType":5126,
			"count":64,
			"type":"VEC2"
		},
		{
			"bufferView":3,
			"componentType":5121,
			"count":64,
			"type":"VEC4"
		},
		{
			"bufferView":4,
			"componentType":5126,
			"count":64,
			"type":"VEC4"
		},
		{
			"bufferView":5,
			"componentType":5123,
			"count":96,
			"type":"SCALAR"
		},
		{
			"bufferView":6,
			"componentType":5126,
			"count":2,
			"type":"MAT4"
		},
		{
			"bufferView":7,
			"componentType":5126,
			"count":27,
			"max":[
				0.225
			],
			"min":[
				0.008333333333333333
			],
			"type":"SCALAR"
		},
		{
			"bufferView":8,
			"componentType":5126,
			"count":27,
			"type":"VEC3"
		},
		{
			"bufferView":9,
			"componentType":5126,
			"count":27,
			"type":"VEC4"
		},
		{
			"bufferView":10,
			"componentType":5126,
			"count":27,
			"type":"VEC3"
		},
		{
			"bufferView":11,
			"componentType":5126,
			"count":27,
			"type":"VEC3"
		},
		{
			"bufferView":12,
			"componentType":5126,
			"count":27,
			"type":"VEC4"
		},
		{
			"bufferView":13,
			"componentType":5126,
			"count":27,
			"type":"VEC3"
		},
		{
			"bufferView":14,
			"componentType":5126,
			"count":2,
			"max":[
				1.125
			],
			"min":[
				0
			],
			"type":"SCALAR"
		},
		{
			"bufferView":15,
			"componentType":5126,
			"count":2,
			"type":"VEC3"
		},
		{
			"bufferView":16,
			"componentType":5126,
			"count":2,
			"type":"VEC4"
		},
		{
			"bufferView":17,
			"componentType":5126,
			"count":2,
			"type":"VEC3"
		},
		{
			"bufferView":18,
			"componentType":5126,
			"count":2,
			"type":"VEC3"
		},
		{
			"bufferView":19,
			"componentType":5126,
			"count":2,
			"type":"VEC4"
		},
		{
			"bufferView":20,
			"componentType":5126,
			"count":2,
			"type":"VEC3"
		}
	],
	"bufferViews":[
		{
			"buffer":0,
			"byteLength":768,
			"byteOffset":0,
			"target":34962
		},
		{
			"buffer":0,
			"byteLength":768,
			"byteOffset":768,
			"target":34962
		},
		{
			"buffer":0,
			"byteLength":512,
			"byteOffset":1536,
			"target":34962
		},
		{
			"buffer":0,
			"byteLength":256,
			"byteOffset":2048,
			"target":34962
		},
		{
			"buffer":0,
			"byteLength":1024,
			"byteOffset":2304,
			"target":34962
		},
		{
			"buffer":0,
			"byteLength":192,
			"byteOffset":3328,
			"target":34963
		},
		{
			"buffer":0,
			"byteLength":128,
			"byteOffset":3520
		},
		{
			"buffer":0,
			"byteLength":108,
			"byteOffset":3648
		},
		{
			"buffer":0,
			"byteLength":324,
			"byteOffset":3756
		},
		{
			"buffer":0,
			"byteLength":432,
			"byteOffset":4080
		},
		{
			"buffer":0,
			"byteLength":324,
			"byteOffset":4512
		},
		{
			"buffer":0,
			"byteLength":324,
			"byteOffset":4836
		},
		{
			"buffer":0,
			"byteLength":432,
			"byteOffset":5160
		},
		{
			"buffer":0,
			"byteLength":324,
			"byteOffset":5592
		},
		{
			"buffer":0,
			"byteLength":8,
			"byteOffset":5916
		},
		{
			"buffer":0,
			"byteLength":24,
			"byteOffset":5924
		},
		{
			"buffer":0,
			"byteLength":32,
			"byteOffset":5948
		},
		{
			"buffer":0,
			"byteLength":24,
			"byteOffset":5980
		},
		{
			"buffer":0,
			"byteLength":24,
			"byteOffset":6004
		},
		{
			"buffer":0,
			"byteLength":32,
			"byteOffset":6028
		},
		{
			"buffer":0,
			"byteLength":24,
			"byteOffset":6060
		}
	],
	"samplers":[
		{
			"magFilter":9729,
			"minFilter":9987
		}
	],
	"buffers":[
		{
			"byteLength":6084,
			"uri":"Effect11.bin"
		}
	]
}
