# Blender 4.1.1
# www.blender.org
mtllib tornade8.mtl
o 立方体.003
v 1.628760 4.605854 -1.801882
v 1.742347 4.802561 -1.917100
v 1.625506 4.997353 -1.801882
v 1.625506 4.997353 1.801882
v 1.742347 4.802561 1.917100
v 1.628760 4.605854 1.801882
v -1.978135 4.967392 1.801882
v -2.091721 4.770685 1.917100
v -1.974880 4.575893 1.801882
v -1.978135 4.967392 -1.801882
v -2.091721 4.770685 -1.917100
v -1.974879 4.575893 -1.801882
v 2.119653 4.597062 -0.994319
v 2.284091 4.807065 -1.047732
v 2.116184 5.014305 -0.994319
v 2.285919 4.587237 0.000000
v 2.465482 4.808573 -0.000000
v 2.282264 5.026894 -0.000000
v 2.119653 4.597062 0.994319
v 2.284091 4.807065 1.047732
v 2.116184 5.014305 0.994319
v 0.821332 4.586268 2.292684
v 0.873009 4.795333 2.458863
v 0.817863 5.003511 2.292685
v -0.172859 4.566794 2.458863
v -0.174687 4.786623 2.640260
v -0.176515 5.006451 2.458863
v -1.167237 4.569735 2.292685
v -1.222383 4.777913 2.458863
v -1.170706 4.986978 2.292684
v -2.465558 4.558941 0.994319
v -2.633466 4.766181 1.047732
v -2.469027 4.976184 0.994319
v -2.631638 4.546352 -0.000000
v -2.814856 4.764673 -0.000000
v -2.635293 4.986009 0.000000
v -2.465558 4.558941 -0.994319
v -2.633466 4.766181 -1.047732
v -2.469027 4.976184 -0.994319
v -1.167237 4.569735 -2.292685
v -1.222383 4.777913 -2.458863
v -1.170706 4.986978 -2.292685
v -0.172859 4.566794 -2.458863
v -0.174687 4.786623 -2.640260
v -0.176515 5.006451 -2.458863
v 0.821332 4.586268 -2.292685
v 0.873009 4.795333 -2.458863
v 0.817863 5.003511 -2.292684
v 1.740546 4.529954 -1.299120
v 1.463998 4.507617 -1.636309
v 1.920690 4.526516 -0.969376
v 1.751600 4.531034 -1.285640
v 1.624865 5.074423 -1.434557
v 1.459132 5.092837 -1.636309
v 1.747138 5.067698 -1.285640
v 1.916075 5.081533 -0.969376
v 1.960951 5.072476 -0.885564
v 2.092756 5.058543 -0.451457
v 2.137090 5.074433 -0.000000
v 2.137090 5.074433 0.000000
v 2.092756 5.058553 0.451457
v 1.960951 5.072481 0.885564
v 1.916075 5.081533 0.969376
v 1.747084 5.074205 1.285640
v 1.736014 5.075100 1.299119
v 1.459132 5.092836 1.636309
v 1.459132 5.092836 1.636309
v 1.629401 4.528784 1.434557
v 1.751546 4.537541 1.285640
v 1.920690 4.526515 0.969376
v 1.463998 4.507617 1.636309
v 2.141556 4.537290 0.000000
v 2.096964 4.552441 0.451457
v 1.965408 4.536318 0.885564
v 1.965408 4.536314 -0.885564
v 2.096964 4.552431 -0.451457
v 2.141556 4.537290 0.000000
v 1.126654 4.524850 1.913033
v 0.796963 4.517173 2.093142
v 1.113166 4.525726 1.924096
v 1.257552 5.071369 1.801882
v 1.108704 5.062389 1.924096
v 0.792348 5.072191 2.093142
v 0.708618 5.062064 2.137940
v 0.274650 5.043427 2.269625
v -0.176920 5.055195 2.314090
v -0.176920 5.055195 2.314090
v -0.628232 5.035931 2.269625
v -1.062449 5.047344 2.137940
v -1.146337 5.056073 2.093142
v -1.462540 5.047520 1.924096
v -1.476028 5.048396 1.913033
v -1.813372 5.065629 1.636309
v -1.813372 5.065629 1.636309
v -1.606926 4.501877 1.801882
v -1.458078 4.510857 1.924096
v -1.141722 4.501055 2.093142
v -1.808506 4.480410 1.636309
v -0.172454 4.518051 2.314090
v -0.624024 4.529819 2.269625
v -1.057992 4.511182 2.137940
v 0.713075 4.525902 2.137940
v 0.278858 4.537315 2.269625
v -0.172454 4.518051 2.314090
v -2.085388 4.498146 1.299119
v -2.096458 4.499041 1.285640
v -2.265450 4.491713 0.969376
v -1.978775 5.044462 1.434557
v -2.100920 5.035705 1.285640
v -2.270064 5.046731 0.969376
v -2.314782 5.036928 0.885564
v -2.490930 5.035956 0.000000
v -2.446338 5.020805 0.451457
v -2.490930 5.035956 0.000000
v -2.270064 5.046730 -0.969376
v -2.314782 5.036932 -0.885564
v -2.446338 5.020815 -0.451457
v -2.100974 5.042212 -1.285640
v -2.089920 5.043292 -1.299119
v -1.813372 5.065629 -1.636309
v -1.813372 5.065629 -1.636309
v -1.974239 4.498824 -1.434557
v -2.096512 4.505548 -1.285640
v -2.265450 4.491713 -0.969376
v -1.808506 4.480410 -1.636309
v -1.808506 4.480410 -1.636309
v -2.442130 4.514703 -0.451457
v -2.486465 4.498813 -0.000000
v -2.310325 4.500770 -0.885564
v -2.442130 4.514693 0.451457
v -2.310325 4.500765 0.885564
v -2.486465 4.498813 0.000000
v -1.471496 4.503250 -1.913033
v -1.458024 4.504349 -1.924096
v -1.141722 4.501055 -2.093142
v -1.611462 5.047516 -1.801882
v -1.462486 5.041013 -1.924096
v -1.146337 5.056073 -2.093142
v -1.062449 5.047339 -2.137940
v -0.176920 5.055195 -2.314090
v -0.628232 5.035921 -2.269625
v -0.176920 5.055195 -2.314090
v 0.792348 5.072191 -2.093142
v 0.708618 5.062069 -2.137940
v 0.274650 5.043437 -2.269625
v 1.108650 5.068897 -1.924096
v 1.122121 5.069996 -1.913033
v 1.459132 5.092837 -1.636309
v 1.262088 4.525730 -1.801882
v 1.113112 4.532233 -1.924096
v 0.796963 4.517173 -2.093142
v 0.278858 4.537325 -2.269625
v -0.172454 4.518051 -2.314090
v 0.713075 4.525907 -2.137940
v -0.624024 4.529809 -2.269625
v -1.057992 4.511177 -2.137940
v -0.172454 4.518051 -2.314090
vn 0.7695 -0.6243 -0.1348
vn 0.7534 0.6443 -0.1314
vn 0.7695 -0.6243 0.1348
vn 0.7534 0.6443 0.1314
vn 0.3521 -0.9108 -0.2158
vn 0.6643 -0.6246 -0.4106
vn 0.6540 0.6353 -0.4108
vn 0.2902 0.9367 -0.1960
vn 0.3106 0.9484 -0.0639
vn 0.3106 0.9484 0.0639
vn 0.3184 0.9238 0.2128
vn 0.6540 0.6353 0.4108
vn 0.6643 -0.6246 0.4106
vn 0.3058 -0.9317 0.1960
vn 0.3263 -0.9431 0.0639
vn 0.3264 -0.9431 -0.0639
vn 0.1401 -0.6295 0.7643
vn 0.1261 0.6391 0.7588
vn -0.1296 -0.6317 0.7643
vn -0.1367 0.6369 0.7588
vn 0.2234 -0.9118 0.3445
vn 0.4158 -0.6267 0.6591
vn 0.4056 0.6332 0.6592
vn 0.1882 0.9358 0.2980
vn 0.0560 0.9463 0.3184
vn -0.0717 0.9452 0.3184
vn -0.2205 0.9193 0.3260
vn -0.4160 0.6264 0.6592
vn -0.4054 -0.6335 0.6591
vn -0.1882 -0.9358 0.2980
vn -0.0560 -0.9463 0.3184
vn 0.0718 -0.9452 0.3185
vn -0.7590 -0.6370 0.1348
vn -0.7640 0.6317 0.1314
vn -0.7590 -0.6370 -0.1348
vn -0.7640 0.6317 -0.1314
vn -0.3369 -0.9165 0.2158
vn -0.6538 -0.6356 0.4106
vn -0.6644 0.6243 0.4108
vn -0.3058 0.9317 0.1960
vn -0.3264 0.9431 0.0639
vn -0.3263 0.9431 -0.0639
vn -0.3337 0.9183 -0.2128
vn -0.6644 0.6243 -0.4108
vn -0.6538 -0.6356 -0.4106
vn -0.3370 -0.9215 -0.1928
vn -0.3106 -0.9484 -0.0639
vn -0.3107 -0.9484 0.0639
vn -0.1296 -0.6317 -0.7643
vn -0.1367 0.6369 -0.7588
vn 0.1401 -0.6295 -0.7643
vn 0.1261 0.6391 -0.7588
vn -0.2082 -0.9154 -0.3445
vn -0.4054 -0.6335 -0.6591
vn -0.4160 0.6264 -0.6592
vn -0.2038 0.9326 -0.2980
vn -0.0717 0.9452 -0.3185
vn 0.0560 0.9463 -0.3184
vn 0.2052 0.9228 -0.3260
vn 0.4056 0.6332 -0.6592
vn 0.4158 -0.6267 -0.6591
vn 0.2038 -0.9326 -0.2980
vn 0.0717 -0.9452 -0.3185
vn -0.0560 -0.9463 -0.3185
vn 0.0980 0.0008 -0.9952
vn 0.2903 0.0024 -0.9569
vn 0.4714 0.0039 -0.8819
vn 0.6344 0.0053 -0.7730
vn 0.7730 0.0064 -0.6344
vn 0.8819 0.0073 -0.4714
vn 0.9569 0.0080 -0.2903
vn 0.9952 0.0083 -0.0980
vn 0.9952 0.0083 0.0980
vn 0.9569 0.0080 0.2903
vn 0.8819 0.0073 0.4714
vn 0.7730 0.0064 0.6344
vn 0.6344 0.0053 0.7730
vn 0.4714 0.0039 0.8819
vn 0.2903 0.0024 0.9569
vn 0.0980 0.0008 0.9952
vn -0.0980 -0.0008 0.9952
vn -0.2903 -0.0024 0.9569
vn -0.4714 -0.0039 0.8819
vn -0.6344 -0.0053 0.7730
vn -0.7730 -0.0064 0.6344
vn -0.8819 -0.0073 0.4714
vn -0.9569 -0.0080 0.2903
vn -0.9952 -0.0083 0.0980
vn -0.9952 -0.0083 -0.0980
vn -0.9569 -0.0080 -0.2903
vn -0.8819 -0.0073 -0.4714
vn -0.7730 -0.0064 -0.6344
vn -0.6344 -0.0053 -0.7730
vn -0.4714 -0.0039 -0.8819
vn -0.2903 -0.0024 -0.9569
vn -0.0980 -0.0008 -0.9952
vn 0.7640 -0.6317 -0.1314
vn 0.7590 0.6370 -0.1348
vn 0.7640 -0.6317 0.1314
vn 0.7590 0.6370 0.1348
vn 0.3337 -0.9183 -0.2128
vn 0.3329 -0.9187 -0.2124
vn 0.3089 -0.9342 -0.1785
vn 0.6644 -0.6243 -0.4108
vn 0.6538 0.6356 -0.4106
vn 0.3370 0.9215 -0.1928
vn 0.3107 0.9484 -0.0638
vn 0.3107 0.9484 0.0639
vn 1.0000 0.0083 -0.0000
vn 0.3176 0.9241 0.2124
vn 0.2933 0.9392 0.1785
vn 0.3369 0.9165 0.2158
vn 0.6538 0.6356 0.4106
vn 0.6644 -0.6243 0.4108
vn 0.3523 -0.9158 0.1928
vn 0.3264 -0.9431 0.0638
vn 0.3264 -0.9431 0.0639
vn 0.3270 -0.9450 -0.0000
vn 0.3263 -0.9431 -0.0639
vn 0.1367 -0.6369 0.7588
vn 0.1296 0.6317 0.7643
vn -0.1261 -0.6391 0.7588
vn -0.1401 0.6295 0.7643
vn 0.2205 -0.9193 0.3260
vn 0.2200 -0.9197 0.3253
vn 0.1863 -0.9352 0.3011
vn 0.4160 -0.6264 0.6592
vn 0.4053 0.6335 0.6591
vn 0.1851 0.9203 0.3447
vn 0.0560 0.9463 0.3185
vn -0.0718 0.9452 0.3185
vn 0.0083 -1.0000 -0.0000
vn -0.2200 0.9197 0.3253
vn -0.1863 0.9352 0.3011
vn -0.2234 0.9118 0.3445
vn -0.0083 1.0000 -0.0000
vn -0.4158 0.6267 0.6591
vn -0.4056 -0.6332 0.6592
vn -0.1851 -0.9203 0.3447
vn -0.0560 -0.9463 0.3185
vn 0.0717 -0.9452 0.3184
vn 0.0083 -0.9999 0.0098
vn -0.7534 -0.6443 0.1314
vn -0.7695 0.6243 0.1348
vn -0.7534 -0.6443 -0.1314
vn -0.7695 0.6243 -0.1348
vn -0.3184 -0.9238 0.2128
vn -0.3176 -0.9241 0.2124
vn -0.2933 -0.9392 0.1785
vn -0.6540 -0.6353 0.4108
vn -0.6643 0.6246 0.4106
vn -0.3523 0.9158 0.1928
vn -0.3263 0.9431 0.0639
vn -0.3264 0.9431 0.0638
vn -0.3264 0.9431 -0.0639
vn -0.3329 0.9187 -0.2124
vn -0.3089 0.9342 -0.1785
vn -0.3521 0.9108 -0.2158
vn -0.6643 0.6246 -0.4106
vn -0.6540 -0.6353 -0.4108
vn -0.2902 -0.9367 -0.1960
vn -0.3107 -0.9484 -0.0638
vn -0.3106 -0.9484 0.0639
vn -0.1261 -0.6391 -0.7588
vn -0.1401 0.6295 -0.7643
vn 0.1367 -0.6369 -0.7588
vn 0.1296 0.6317 -0.7643
vn -0.2052 -0.9228 -0.3260
vn -0.2047 -0.9232 -0.3253
vn -0.1707 -0.9382 -0.3011
vn -0.4056 -0.6332 -0.6592
vn -0.4158 0.6267 -0.6591
vn -0.2004 0.9171 -0.3447
vn -0.0717 0.9452 -0.3184
vn 0.0560 0.9463 -0.3185
vn 0.2047 0.9232 -0.3253
vn 0.1707 0.9382 -0.3011
vn 0.2082 0.9154 -0.3445
vn 0.4053 0.6335 -0.6591
vn 0.4160 -0.6264 -0.6592
vn 0.2004 -0.9171 -0.3447
vn 0.0717 -0.9452 -0.3184
vn -0.0560 -0.9463 -0.3184
vn -0.0083 1.0000 -0.0033
vn -0.0083 0.9999 -0.0098
vn 0.4714 0.0040 -0.8819
vn -0.0000 -0.0000 1.0000
vn -0.4714 -0.0040 0.8819
vn -1.0000 -0.0083 -0.0000
vn 0.9903 -0.1391 -0.0000
vn -0.0000 -0.0000 -1.0000
vt 0.195072 0.382048
vt 0.255145 0.376398
vt 0.227933 0.409260
vt 0.249494 0.316325
vt 0.222283 0.349187
vt 0.260795 0.436471
vt 0.315218 0.370747
vt 0.288006 0.403609
vt 0.168848 0.384821
vt 0.167909 0.384603
vt 0.162210 0.354837
vt 0.216632 0.289114
vt 0.189421 0.321976
vt 0.241536 0.281508
vt 0.246338 0.291021
vt 0.261778 0.307540
vt 0.273151 0.323849
vt 0.282356 0.343536
vt 0.289627 0.334754
vt 0.303415 0.348906
vt 0.348079 0.397958
vt 0.342380 0.368192
vt 0.367722 0.374237
vt 0.320868 0.430820
vt 0.293657 0.463682
vt 0.268752 0.471287
vt 0.263951 0.461775
vt 0.237138 0.428946
vt 0.206875 0.403890
vt 0.188731 0.395756
vt 0.326519 0.490893
vt 0.386592 0.485242
vt 0.359381 0.518104
vt 0.380941 0.425169
vt 0.353730 0.458031
vt 0.392243 0.545315
vt 0.446665 0.479591
vt 0.419454 0.512453
vt 0.300295 0.493666
vt 0.299357 0.493448
vt 0.372984 0.390352
vt 0.377785 0.399865
vt 0.404599 0.432694
vt 0.413803 0.452380
vt 0.421075 0.443599
vt 0.434862 0.457750
vt 0.479527 0.506802
vt 0.473827 0.477036
vt 0.499169 0.483081
vt 0.452316 0.539664
vt 0.425104 0.572526
vt 0.400200 0.580132
vt 0.395398 0.570619
vt 0.368585 0.537791
vt 0.338322 0.512734
vt 0.320178 0.504601
vt 0.457966 0.599737
vt 0.518039 0.594086
vt 0.490828 0.626948
vt 0.512388 0.534014
vt 0.485177 0.566875
vt 0.523690 0.654159
vt 0.578112 0.588436
vt 0.550901 0.621298
vt 0.431742 0.602510
vt 0.430804 0.602292
vt 0.504431 0.499197
vt 0.509233 0.508710
vt 0.524673 0.525229
vt 0.536046 0.541538
vt 0.545250 0.561225
vt 0.552522 0.552443
vt 0.566309 0.566595
vt 0.610974 0.615647
vt 0.605275 0.585881
vt 0.630616 0.591926
vt 0.583763 0.648509
vt 0.556552 0.681371
vt 0.536910 0.705092
vt 0.531647 0.688976
vt 0.511406 0.662944
vt 0.500032 0.646635
vt 0.469769 0.621578
vt 0.451626 0.613445
vt 0.589414 0.708582
vt 0.649487 0.702931
vt 0.622275 0.735793
vt 0.643836 0.642858
vt 0.616625 0.675720
vt 0.655137 0.763004
vt 0.709560 0.697280
vt 0.682348 0.730142
vt 0.563190 0.711354
vt 0.562251 0.711137
vt 0.635879 0.608041
vt 0.640680 0.617554
vt 0.656120 0.634073
vt 0.667494 0.650382
vt 0.676698 0.670069
vt 0.683969 0.661287
vt 0.697757 0.675439
vt 0.742421 0.724491
vt 0.736722 0.694725
vt 0.762064 0.700770
vt 0.715210 0.757353
vt 0.687999 0.790215
vt 0.663095 0.797821
vt 0.658293 0.788308
vt 0.642853 0.771789
vt 0.631480 0.755479
vt 0.601217 0.730423
vt 0.583073 0.722289
vt 0.028206 0.075927
vt 0.048286 0.002971
vt 0.002971 0.057696
vt 0.096097 0.042645
vt 0.050865 0.097270
vt 0.075045 0.116777
vt 0.120319 0.062100
vt 0.084552 0.125979
vt 0.146019 0.079770
vt 0.096648 0.139394
vt 0.158115 0.093185
vt 0.146570 0.176519
vt 0.191803 0.121894
vt 0.167623 0.102387
vt 0.214461 0.143237
vt 0.171764 0.194801
vt 0.194382 0.216193
vt 0.239697 0.161468
vt 0.219618 0.234424
vt 0.287509 0.201142
vt 0.242276 0.255767
vt 0.266456 0.275274
vt 0.311730 0.220597
vt 0.275963 0.284476
vt 0.337431 0.238267
vt 0.288059 0.297891
vt 0.349527 0.251682
vt 0.337981 0.335016
vt 0.383214 0.280391
vt 0.359034 0.260884
vt 0.405872 0.301734
vt 0.363175 0.353298
vt 0.431108 0.319965
vt 0.385793 0.374690
vt 0.411029 0.392921
vt 0.478920 0.359639
vt 0.433687 0.414264
vt 0.457867 0.433771
vt 0.503142 0.379094
vt 0.467375 0.442973
vt 0.528842 0.396764
vt 0.479471 0.456388
vt 0.540938 0.410179
vt 0.505171 0.474058
vt 0.523585 0.490323
vt 0.529392 0.493513
vt 0.597283 0.460231
vt 0.554586 0.511795
vt 0.577204 0.533188
vt 0.602440 0.551418
vt 0.622519 0.478462
vt 0.670331 0.518136
vt 0.625098 0.572762
vt 0.649278 0.592268
vt 0.694553 0.537591
vt 0.658786 0.601470
vt 0.696582 0.632555
vt 0.741857 0.577879
vt 0.732349 0.568676
vt 0.714996 0.648820
vt 0.720804 0.652011
vt 0.788695 0.618728
vt 0.745997 0.670292
vt 0.768615 0.691685
vt 0.142567 0.378559
vt 0.184008 0.395409
vt 0.260557 0.302964
vt 0.236274 0.265392
vt 0.321558 0.357039
vt 0.326281 0.357387
vt 0.341441 0.367974
vt 0.249732 0.449831
vt 0.274015 0.487403
vt 0.220662 0.418041
vt 0.248511 0.445255
vt 0.315456 0.504253
vt 0.392004 0.411809
vt 0.393225 0.416384
vt 0.453005 0.465884
vt 0.457728 0.466231
vt 0.472889 0.476819
vt 0.381180 0.558676
vt 0.405462 0.596247
vt 0.352109 0.526886
vt 0.379958 0.554100
vt 0.446903 0.613098
vt 0.523452 0.520653
vt 0.584453 0.574728
vt 0.589175 0.575075
vt 0.604336 0.585663
vt 0.512627 0.667520
vt 0.526846 0.679463
vt 0.483557 0.635730
vt 0.483557 0.635730
vt 0.578351 0.721942
vt 0.654899 0.629498
vt 0.715900 0.683572
vt 0.720623 0.683920
vt 0.735784 0.694507
vt 0.644074 0.776364
vt 0.668357 0.813936
vt 0.615004 0.744574
vt 0.615004 0.744574
vt 0.070904 0.024363
vt 0.055082 0.102381
vt 0.101905 0.045835
vt 0.121322 0.062761
vt 0.121345 0.156403
vt 0.122348 0.157064
vt 0.187586 0.116782
vt 0.140763 0.173329
vt 0.262315 0.182860
vt 0.246493 0.260878
vt 0.293316 0.204332
vt 0.312733 0.221258
vt 0.312756 0.314900
vt 0.313760 0.315561
vt 0.378997 0.275280
vt 0.332174 0.331826
vt 0.453726 0.341357
vt 0.437904 0.419376
vt 0.484727 0.362829
vt 0.504145 0.379755
vt 0.504168 0.473397
vt 0.550445 0.419382
vt 0.574625 0.438888
vt 0.570408 0.433777
vt 0.645137 0.499854
vt 0.629315 0.577873
vt 0.676138 0.521326
vt 0.670882 0.614885
vt 0.720253 0.555262
vt 0.695556 0.538252
vt 0.695579 0.631894
vt 0.766036 0.597385
vt 0.761819 0.592274
vt 0.813930 0.636959
s 0
usemtl マテリアル.003
f 13/1/1 17/2/1 16/3/1
f 15/4/2 17/2/2 14/5/2
f 17/2/3 19/6/3 16/3/3
f 17/2/4 21/7/4 20/8/4
f 52/9/5 49/10/5 1/11/5
f 1/11/6 14/5/6 13/1/6
f 3/12/7 14/5/7 2/13/7
f 53/14/8 55/15/8 3/12/8
f 15/4/9 57/16/9 58/17/9
f 18/18/10 59/19/10 61/20/10
f 4/21/11 65/22/11 67/23/11
f 20/8/12 4/21/12 5/24/12
f 20/8/13 6/25/13 19/6/13
f 6/25/14 68/26/14 69/27/14
f 73/28/15 16/3/15 19/6/15
f 13/1/16 76/29/16 75/30/16
f 22/31/17 26/32/17 25/33/17
f 24/34/18 26/32/18 23/35/18
f 26/32/19 28/36/19 25/33/19
f 26/32/20 30/37/20 29/38/20
f 80/39/21 78/40/21 6/25/21
f 6/25/22 23/35/22 22/31/22
f 4/21/23 23/35/23 5/24/23
f 81/41/24 82/42/24 4/21/24
f 85/43/25 27/44/25 24/34/25
f 27/44/26 86/45/26 88/46/26
f 7/47/27 92/48/27 94/49/27
f 29/38/28 7/47/28 8/50/28
f 29/38/29 9/51/29 28/36/29
f 9/51/30 95/52/30 96/53/30
f 100/54/31 25/33/31 28/36/31
f 22/31/32 103/55/32 102/56/32
f 31/57/33 35/58/33 34/59/33
f 33/60/34 35/58/34 32/61/34
f 35/58/35 37/62/35 34/59/35
f 35/58/36 39/63/36 38/64/36
f 106/65/37 105/66/37 9/51/37
f 9/51/38 32/61/38 31/57/38
f 7/47/39 32/61/39 8/50/39
f 108/67/40 109/68/40 7/47/40
f 33/60/41 111/69/41 113/70/41
f 36/71/42 112/72/42 117/73/42
f 10/74/43 119/75/43 121/76/43
f 38/64/44 10/74/44 11/77/44
f 38/64/45 12/78/45 37/62/45
f 12/78/46 125/79/46 122/80/46
f 37/62/47 129/81/47 127/82/47
f 130/83/48 131/84/48 31/57/48
f 40/85/49 44/86/49 43/87/49
f 42/88/50 44/86/50 41/89/50
f 44/86/51 46/90/51 43/87/51
f 44/86/52 48/91/52 47/92/52
f 134/93/53 133/94/53 12/78/53
f 12/78/54 41/89/54 40/85/54
f 10/74/55 41/89/55 11/77/55
f 136/95/56 137/96/56 10/74/56
f 42/88/57 139/97/57 141/98/57
f 45/99/58 140/100/58 145/101/58
f 3/102/59 147/103/59 148/104/59
f 47/92/60 3/102/60 2/105/60
f 47/92/61 1/106/61 46/90/61
f 1/106/62 149/107/62 150/108/62
f 46/90/63 154/109/63 152/110/63
f 155/111/64 156/112/64 40/85/64
f 100/113/65 87/114/65 104/115/65
f 89/116/66 100/113/66 101/117/66
f 89/116/67 101/117/67 96/118/67
f 91/119/68 96/118/68 95/120/68
f 94/121/69 98/122/69 108/123/69
f 131/124/70 111/125/70 109/126/70
f 113/127/71 131/124/71 130/128/71
f 113/127/72 132/129/72 114/130/72
f 127/131/73 114/130/73 132/129/73
f 116/132/74 127/131/74 129/133/74
f 116/132/75 129/133/75 123/134/75
f 118/135/76 123/134/76 122/136/76
f 120/137/77 126/138/77 136/139/77
f 156/140/78 139/141/78 137/142/78
f 141/143/79 156/140/79 155/144/79
f 142/145/80 141/143/80 157/146/80
f 152/147/81 142/145/81 157/146/81
f 144/148/82 152/147/82 154/149/82
f 144/148/83 154/149/83 150/150/83
f 146/151/84 150/150/84 149/152/84
f 148/153/85 50/154/85 53/155/85
f 52/156/86 51/157/86 75/158/86
f 58/159/87 75/158/87 76/160/87
f 58/159/88 76/160/88 77/161/88
f 73/162/89 60/163/89 77/161/89
f 62/164/90 73/162/90 74/165/90
f 62/164/91 74/165/91 69/166/91
f 64/167/92 69/166/92 68/168/92
f 80/169/93 82/170/93 81/171/93
f 80/169/94 79/172/94 102/173/94
f 85/174/95 102/173/95 103/175/95
f 85/174/96 103/175/96 104/176/96
f 13/1/97 14/5/97 17/2/97
f 15/4/98 18/18/98 17/2/98
f 17/2/99 20/8/99 19/6/99
f 17/2/100 18/18/100 21/7/100
f 50/177/101 1/11/101 49/10/101
f 1/11/102 13/1/102 52/9/102
f 13/1/103 51/178/103 52/9/103
f 1/11/104 2/13/104 14/5/104
f 3/12/105 15/4/105 14/5/105
f 55/15/8 56/179/8 15/4/8
f 15/4/8 3/12/8 55/15/8
f 3/12/106 54/180/106 53/14/106
f 59/19/9 18/18/9 58/17/9
f 18/18/9 15/4/9 58/17/9
f 15/4/107 56/179/107 57/16/107
f 62/181/108 63/182/108 21/7/108
f 61/20/108 62/181/108 21/7/108
f 61/20/108 21/7/108 18/18/108
f 59/19/109 60/19/109 61/20/109
f 4/21/110 21/7/110 64/183/110
f 21/7/111 63/182/111 64/183/111
f 4/21/112 64/183/112 65/22/112
f 67/23/109 66/23/109 4/21/109
f 20/8/113 21/7/113 4/21/113
f 20/8/114 5/24/114 6/25/114
f 70/184/14 19/6/14 69/27/14
f 19/6/14 6/25/14 69/27/14
f 6/25/115 71/185/115 68/26/115
f 73/28/15 72/186/15 16/3/15
f 19/6/116 70/184/116 74/187/116
f 74/187/117 73/28/117 19/6/117
f 13/1/16 16/3/16 76/29/16
f 16/3/118 72/186/118 77/186/118
f 16/3/119 77/186/119 76/29/119
f 75/30/16 51/178/16 13/1/16
f 22/31/120 23/35/120 26/32/120
f 24/34/121 27/44/121 26/32/121
f 26/32/122 29/38/122 28/36/122
f 26/32/123 27/44/123 30/37/123
f 71/185/124 6/25/124 78/40/124
f 6/25/125 22/31/125 80/39/125
f 22/31/126 79/188/126 80/39/126
f 6/25/127 5/24/127 23/35/127
f 4/21/128 24/34/128 23/35/128
f 82/42/24 83/189/24 24/34/24
f 24/34/24 4/21/24 82/42/24
f 4/21/129 66/23/129 81/41/129
f 85/43/25 86/45/25 27/44/25
f 24/34/130 83/189/130 84/190/130
f 84/190/130 85/43/130 24/34/130
f 89/191/131 90/192/131 30/37/131
f 88/46/131 89/191/131 30/37/131
f 88/46/131 30/37/131 27/44/131
f 86/45/132 87/45/132 88/46/132
f 7/47/133 30/37/133 91/193/133
f 30/37/134 90/192/134 91/193/134
f 7/47/135 91/193/135 92/48/135
f 94/49/136 93/49/136 7/47/136
f 29/38/137 30/37/137 7/47/137
f 29/38/138 8/50/138 9/51/138
f 97/194/30 28/36/30 96/53/30
f 28/36/30 9/51/30 96/53/30
f 9/51/139 98/195/139 95/52/139
f 100/54/31 99/196/31 25/33/31
f 28/36/140 97/194/140 101/197/140
f 101/197/140 100/54/140 28/36/140
f 22/31/32 25/33/32 103/55/32
f 25/33/141 99/196/141 103/55/141
f 99/196/142 104/196/142 103/55/142
f 102/56/32 79/188/32 22/31/32
f 31/57/143 32/61/143 35/58/143
f 33/60/144 36/71/144 35/58/144
f 35/58/145 38/64/145 37/62/145
f 35/58/146 36/71/146 39/63/146
f 105/66/147 98/195/147 9/51/147
f 9/51/148 31/57/148 106/65/148
f 31/57/149 107/198/149 106/65/149
f 9/51/150 8/50/150 32/61/150
f 7/47/151 33/60/151 32/61/151
f 109/68/40 110/199/40 33/60/40
f 33/60/40 7/47/40 109/68/40
f 7/47/152 93/49/152 108/67/152
f 112/72/153 36/71/153 113/70/153
f 36/71/153 33/60/153 113/70/153
f 33/60/154 110/199/154 111/69/154
f 116/200/155 115/201/155 39/63/155
f 117/73/155 116/200/155 39/63/155
f 117/73/155 39/63/155 36/71/155
f 112/72/136 114/72/136 117/73/136
f 10/74/156 39/63/156 118/202/156
f 39/63/157 115/201/157 118/202/157
f 10/74/158 118/202/158 119/75/158
f 121/76/136 120/76/136 10/74/136
f 38/64/159 39/63/159 10/74/159
f 38/64/160 11/77/160 12/78/160
f 124/203/161 37/62/161 123/204/161
f 37/62/161 12/78/161 123/204/161
f 122/80/161 123/204/161 12/78/161
f 125/79/136 126/79/136 122/80/136
f 128/205/47 34/59/47 127/82/47
f 34/59/47 37/62/47 127/82/47
f 37/62/162 124/203/162 129/81/162
f 131/84/48 107/198/48 31/57/48
f 31/57/48 34/59/48 130/83/48
f 34/59/163 128/205/163 130/83/163
f 128/205/136 132/206/136 130/83/136
f 40/85/164 41/89/164 44/86/164
f 42/88/165 45/99/165 44/86/165
f 44/86/166 47/92/166 46/90/166
f 44/86/167 45/99/167 48/91/167
f 133/94/168 125/79/168 12/78/168
f 12/78/169 40/85/169 134/93/169
f 40/85/170 135/207/170 134/93/170
f 12/78/171 11/77/171 41/89/171
f 10/74/172 42/88/172 41/89/172
f 137/96/56 138/208/56 42/88/56
f 42/88/56 10/74/56 137/96/56
f 10/74/173 120/76/173 136/95/173
f 140/100/174 45/99/174 141/98/174
f 45/99/174 42/88/174 141/98/174
f 42/88/57 138/208/57 139/97/57
f 144/209/175 143/210/175 48/91/175
f 145/101/175 144/209/175 48/91/175
f 145/101/175 48/91/175 45/99/175
f 140/100/136 142/100/136 145/101/136
f 3/102/176 48/91/176 146/211/176
f 48/91/177 143/210/177 146/211/177
f 3/102/178 146/211/178 147/103/178
f 148/104/136 54/104/136 3/102/136
f 47/92/179 48/91/179 3/102/179
f 47/92/180 2/105/180 1/106/180
f 151/212/62 46/90/62 150/108/62
f 46/90/62 1/106/62 150/108/62
f 1/106/181 50/213/181 149/107/181
f 153/214/182 43/87/182 152/110/182
f 43/87/182 46/90/182 152/110/182
f 46/90/63 151/212/63 154/109/63
f 156/112/64 135/207/64 40/85/64
f 40/85/64 43/87/64 155/111/64
f 43/87/183 153/214/183 155/111/183
f 153/214/184 157/215/184 155/111/184
f 104/115/185 99/115/185 100/113/185
f 100/113/65 88/216/65 87/114/65
f 89/116/66 88/216/66 100/113/66
f 101/117/67 97/217/67 96/118/67
f 96/118/67 91/119/67 89/116/67
f 91/119/186 90/218/186 89/116/186
f 95/120/68 98/122/68 94/121/68
f 94/121/68 92/219/68 95/120/68
f 92/219/68 91/119/68 95/120/68
f 98/122/69 105/220/69 108/123/69
f 105/220/69 106/221/69 108/123/69
f 106/221/69 109/126/69 108/123/69
f 108/123/136 93/121/136 94/121/136
f 110/222/70 109/126/70 111/125/70
f 109/126/70 106/221/70 131/124/70
f 106/221/70 107/223/70 131/124/70
f 113/127/71 111/125/71 131/124/71
f 113/127/72 130/128/72 132/129/72
f 114/130/136 112/130/136 113/127/136
f 132/129/132 128/129/132 127/131/132
f 127/131/73 117/224/73 114/130/73
f 116/132/74 117/224/74 127/131/74
f 129/133/75 124/225/75 123/134/75
f 123/134/75 118/135/75 116/132/75
f 118/135/75 115/226/75 116/132/75
f 126/138/76 121/137/76 122/136/76
f 121/137/76 119/227/76 122/136/76
f 119/227/76 118/135/76 122/136/76
f 133/228/77 134/229/77 136/139/77
f 134/229/77 137/142/77 136/139/77
f 126/138/136 125/138/136 133/228/136
f 126/138/77 133/228/77 136/139/77
f 120/137/136 121/137/136 126/138/136
f 138/230/78 137/142/78 139/141/78
f 137/142/78 134/229/78 156/140/78
f 134/229/78 135/231/78 156/140/78
f 141/143/79 139/141/79 156/140/79
f 140/145/136 141/143/136 142/145/136
f 141/143/80 155/144/80 157/146/80
f 157/146/187 153/146/187 152/147/187
f 152/147/81 145/232/81 142/145/81
f 144/148/82 145/232/82 152/147/82
f 154/149/188 151/233/188 150/150/188
f 150/150/83 146/151/83 144/148/83
f 146/151/83 143/234/83 144/148/83
f 50/154/84 148/153/84 149/152/84
f 148/153/84 147/235/84 149/152/84
f 147/235/84 146/151/84 149/152/84
f 50/154/85 49/236/85 53/155/85
f 49/236/85 52/156/85 53/155/85
f 52/156/85 55/237/85 53/155/85
f 53/155/136 54/153/136 148/153/136
f 75/158/86 57/238/86 55/237/86
f 57/238/86 56/239/86 55/237/86
f 55/237/86 52/156/86 75/158/86
f 58/159/87 57/238/87 75/158/87
f 77/161/189 60/163/189 59/163/189
f 59/163/88 58/159/88 77/161/88
f 77/161/190 72/161/190 73/162/190
f 73/162/89 61/240/89 60/163/89
f 62/164/90 61/240/90 73/162/90
f 74/165/91 70/241/91 69/166/91
f 69/166/91 64/167/91 62/164/91
f 64/167/91 63/242/91 62/164/91
f 68/168/92 71/243/92 67/244/92
f 67/244/92 65/245/92 68/168/92
f 65/245/92 64/167/92 68/168/92
f 81/171/191 66/244/191 67/244/191
f 67/244/93 71/243/93 81/171/93
f 71/243/93 78/246/93 81/171/93
f 78/246/93 80/169/93 81/171/93
f 102/173/94 84/247/94 82/170/94
f 84/247/94 83/248/94 82/170/94
f 82/170/94 80/169/94 102/173/94
f 85/174/95 84/247/95 102/173/95
f 104/176/191 87/249/191 86/249/191
f 86/249/96 85/174/96 104/176/96
