# Blender 4.1.1
# www.blender.org
mtllib torii.mtl
o Cube.002
v -2.560046 4.012400 1.000000
v 2.560046 4.012400 1.000000
v -2.560046 4.012400 -1.000000
v 2.560046 4.012400 -1.000000
v -2.560046 4.381631 1.000000
v 2.560046 4.381632 1.000000
v -2.560046 4.381631 -1.000000
v 2.560046 4.381632 -1.000000
v 1.366810 4.220442 1.000000
v 1.366810 -0.007096 1.000000
v 1.366810 4.220442 -1.000000
v 1.366810 -0.007096 -1.000000
v 1.736042 4.220442 1.000000
v 1.736042 -0.007096 1.000000
v 1.736042 4.220442 -1.000000
v 1.736042 -0.007096 -1.000000
v -1.736042 4.220442 1.000000
v -1.736042 -0.007096 1.000000
v -1.736042 4.220442 -1.000000
v -1.736042 -0.007096 -1.000000
v -1.366810 4.220442 1.000000
v -1.366810 -0.007096 1.000000
v -1.366810 4.220442 -1.000000
v -1.366810 -0.007096 -1.000000
v -2.560046 2.885575 1.000000
v 2.560046 2.885575 1.000000
v -2.560046 2.885575 -1.000000
v 2.560046 2.885575 -1.000000
v -2.560046 3.254807 1.000000
v 2.560046 3.254807 1.000000
v -2.560046 3.254807 -1.000000
v 2.560046 3.254807 -1.000000
v 2.560046 4.197016 -1.000000
vn -1.0000 -0.0000 -0.0000
vn -0.0000 -0.0000 -1.0000
vn -0.0000 1.0000 -0.0000
vn 1.0000 -0.0000 -0.0000
vn -0.0000 -1.0000 -0.0000
vn -0.0000 -0.0000 1.0000
vt 0.400236 0.269702
vt 0.269851 0.400087
vt 0.269851 0.269702
vt 0.139467 0.530471
vt 0.139467 0.465279
vt 0.139467 0.400087
vt 0.269851 0.008933
vt 0.139467 0.139318
vt 0.139467 0.008933
vt 0.139467 0.269702
vt 0.009082 0.400087
vt 0.009082 0.269702
vt 0.269851 0.139318
vt 0.247617 0.581073
vt 0.366809 0.700265
vt 0.247617 0.700265
vt 0.486000 0.819456
vt 0.366809 0.819456
vt 0.009234 0.700265
vt 0.128426 0.819456
vt 0.009234 0.819456
vt 0.247617 0.819456
vt 0.366809 0.938648
vt 0.247617 0.938648
vt 0.128426 0.700265
vt 0.937060 0.685970
vt 0.817868 0.805162
vt 0.817868 0.685970
vt 0.698676 0.924354
vt 0.698676 0.805162
vt 0.817868 0.447587
vt 0.698676 0.566779
vt 0.698676 0.447587
vt 0.698676 0.685970
vt 0.579485 0.805162
vt 0.579485 0.685970
vt 0.817868 0.566779
vt 0.681353 0.418996
vt 0.550969 0.549381
vt 0.550969 0.418996
vt 0.420585 0.679765
vt 0.420585 0.549381
vt 0.550969 0.158227
vt 0.420585 0.288612
vt 0.420585 0.158227
vt 0.420585 0.418996
vt 0.290200 0.549381
vt 0.290200 0.418996
vt 0.550969 0.288612
vt 0.400236 0.400087
vt 0.269851 0.530471
vt 0.074274 0.400087
vt 0.366809 0.581073
vt 0.486000 0.700265
vt 0.937060 0.805162
vt 0.817868 0.924354
vt 0.681353 0.549381
vt 0.550969 0.679765
s 0
usemtl マテリアル
f 5/1/1 3/2/1 1/3/1
f 3/2/2 8/4/2 33/5/2 4/6/2
f 7/7/3 6/8/3 8/9/3
f 2/10/4 8/11/4 6/12/4
f 1/3/5 4/6/5 2/10/5
f 5/13/6 2/10/6 6/8/6
f 13/14/3 11/15/3 9/16/3
f 11/15/2 16/17/2 12/18/2
f 15/19/4 14/20/4 16/21/4
f 10/22/5 16/23/5 14/24/5
f 9/16/1 12/18/1 10/22/1
f 13/25/6 10/22/6 14/20/6
f 21/26/3 19/27/3 17/28/3
f 19/27/2 24/29/2 20/30/2
f 23/31/4 22/32/4 24/33/4
f 18/34/5 24/35/5 22/36/5
f 17/28/1 20/30/1 18/34/1
f 21/37/6 18/34/6 22/32/6
f 29/38/1 27/39/1 25/40/1
f 27/39/2 32/41/2 28/42/2
f 31/43/3 30/44/3 32/45/3
f 26/46/4 32/47/4 30/48/4
f 25/40/5 28/42/5 26/46/5
f 29/49/6 26/46/6 30/44/6
f 5/1/1 7/50/1 3/2/1
f 3/2/2 7/51/2 8/4/2
f 7/7/3 5/13/3 6/8/3
f 2/10/4 4/6/4 33/52/4 8/11/4
f 1/3/5 3/2/5 4/6/5
f 5/13/6 1/3/6 2/10/6
f 13/14/3 15/53/3 11/15/3
f 11/15/2 15/54/2 16/17/2
f 15/19/4 13/25/4 14/20/4
f 10/22/5 12/18/5 16/23/5
f 9/16/1 11/15/1 12/18/1
f 13/25/6 9/16/6 10/22/6
f 21/26/3 23/55/3 19/27/3
f 19/27/2 23/56/2 24/29/2
f 23/31/4 21/37/4 22/32/4
f 18/34/5 20/30/5 24/35/5
f 17/28/1 19/27/1 20/30/1
f 21/37/6 17/28/6 18/34/6
f 29/38/1 31/57/1 27/39/1
f 27/39/2 31/58/2 32/41/2
f 31/43/3 29/49/3 30/44/3
f 26/46/4 28/42/4 32/47/4
f 25/40/5 27/39/5 28/42/5
f 29/49/6 25/40/6 26/46/6
