# Blender 4.2.3 LTS
# www.blender.org
mtllib Star.mtl
o 円
v 0.000000 0.747608 -0.147441
v -0.182089 0.250623 -0.147441
v -0.711018 0.231024 -0.147441
v -0.294625 -0.095730 -0.147441
v -0.439433 -0.604828 -0.147441
v 0.000000 -0.309788 -0.147441
v 0.439433 -0.604828 -0.147441
v 0.294625 -0.095730 -0.147441
v 0.711018 0.231024 -0.147441
v 0.182089 0.250623 -0.147441
v 0.000000 0.747608 0.153065
v -0.182089 0.250623 0.153065
v -0.711018 0.231024 0.153065
v -0.294625 -0.095730 0.153065
v -0.439433 -0.604828 0.153065
v 0.000000 -0.309788 0.153065
v 0.439433 -0.604828 0.153065
v 0.294625 -0.095730 0.153065
v 0.711018 0.231024 0.153065
v 0.182089 0.250623 0.153065
v -0.587785 -0.809017 0.002812
v 0.000000 -0.414371 0.002812
v -0.243561 0.335233 0.002812
v -0.951057 0.309017 0.002812
v 0.951057 0.309017 0.002812
v 0.243561 0.335233 0.002812
v 0.587785 -0.809017 0.002812
v -0.394091 -0.128048 0.002812
v 0.000000 1.000000 0.002812
v 0.394091 -0.128048 0.002812
vn 0.4826 -0.7188 0.5003
vn -0.0321 0.8652 0.5003
vn 0.0321 0.8652 0.5003
vn -0.4826 -0.7188 0.5003
vn -0.5345 -0.6811 0.5003
vn 0.8130 0.2979 0.5003
vn 0.8328 0.2369 0.5003
vn -0.8328 0.2369 0.5003
vn -0.8130 0.2979 0.5003
vn 0.5345 -0.6811 0.5003
vn -0.0000 -0.0000 1.0000
vn -0.0000 -0.0000 -1.0000
vn 0.5345 -0.6811 -0.5003
vn -0.8130 0.2979 -0.5003
vn -0.8328 0.2369 -0.5003
vn 0.8328 0.2369 -0.5003
vn 0.8130 0.2979 -0.5003
vn -0.5345 -0.6811 -0.5003
vn -0.4826 -0.7188 -0.5003
vn 0.0321 0.8652 -0.5003
vn -0.0321 0.8652 -0.5003
vn 0.4826 -0.7188 -0.5003
vt 0.109077 0.262866
vt 0.056436 0.384322
vt 0.000000 0.425325
vt 0.316263 0.330184
vt 0.287460 0.459386
vt 0.292877 0.313194
vt 0.316263 0.195547
vt 0.287460 0.066345
vt 0.309017 0.000000
vt 0.056436 0.141409
vt 0.137984 0.262866
vt 0.188215 0.371790
vt 0.309017 0.525731
vt 0.430241 0.262866
vt 0.292877 0.212538
vt 0.188215 0.153942
vt 0.000000 0.100406
vt 0.197148 0.344298
vt 0.500000 0.262866
vt 0.197148 0.181433
vt 0.792877 0.212538
vt 0.697148 0.344298
vt 0.697148 0.181433
vt 0.787460 0.459386
vt 0.688215 0.371790
vt 0.930241 0.262866
vt 0.816263 0.195547
vt 1.000000 0.262866
vt 0.556436 0.141409
vt 0.688215 0.153942
vt 0.556436 0.384322
vt 0.500000 0.425325
vt 0.816263 0.330184
vt 0.792877 0.313194
vt 0.787460 0.066345
vt 0.809017 0.000000
vt 0.609077 0.262866
vt 0.637984 0.262866
vt 0.809017 0.525731
vt 0.500000 0.100406
s 0
usemtl マテリアル
f 22/1/1 15/2/1 21/3/1
f 23/4/2 13/5/2 12/6/2
f 26/7/3 19/8/3 25/9/3
f 22/1/4 17/10/4 16/11/4
f 28/12/5 13/5/5 24/13/5
f 26/7/6 11/14/6 20/15/6
f 30/16/7 17/10/7 27/17/7
f 28/12/8 15/2/8 14/18/8
f 23/4/9 11/14/9 29/19/9
f 30/16/10 19/8/10 18/20/10
f 12/6/11 16/11/11 20/15/11
f 2/21/12 8/22/12 4/23/12
f 9/24/13 30/25/13 8/22/13
f 1/26/14 23/27/14 29/28/14
f 5/29/15 28/30/15 4/23/15
f 7/31/16 30/25/16 27/32/16
f 1/26/17 26/33/17 10/34/17
f 3/35/18 28/30/18 24/36/18
f 7/31/19 22/37/19 6/38/19
f 9/24/20 26/33/20 25/39/20
f 3/35/21 23/27/21 2/21/21
f 5/29/22 22/37/22 21/40/22
f 22/1/1 16/11/1 15/2/1
f 23/4/2 24/13/2 13/5/2
f 26/7/3 20/15/3 19/8/3
f 22/1/4 27/17/4 17/10/4
f 28/12/5 14/18/5 13/5/5
f 26/7/6 29/19/6 11/14/6
f 30/16/7 18/20/7 17/10/7
f 28/12/8 21/3/8 15/2/8
f 23/4/9 12/6/9 11/14/9
f 30/16/10 25/9/10 19/8/10
f 12/6/11 13/5/11 14/18/11
f 14/18/11 15/2/11 16/11/11
f 16/11/11 17/10/11 18/20/11
f 18/20/11 19/8/11 20/15/11
f 20/15/11 11/14/11 12/6/11
f 12/6/11 14/18/11 16/11/11
f 16/11/11 18/20/11 20/15/11
f 2/21/12 1/26/12 10/34/12
f 10/34/12 9/24/12 8/22/12
f 8/22/12 7/31/12 6/38/12
f 6/38/12 5/29/12 4/23/12
f 4/23/12 3/35/12 2/21/12
f 2/21/12 10/34/12 8/22/12
f 8/22/12 6/38/12 4/23/12
f 9/24/13 25/39/13 30/25/13
f 1/26/14 2/21/14 23/27/14
f 5/29/15 21/40/15 28/30/15
f 7/31/16 8/22/16 30/25/16
f 1/26/17 29/28/17 26/33/17
f 3/35/18 4/23/18 28/30/18
f 7/31/19 27/32/19 22/37/19
f 9/24/20 10/34/20 26/33/20
f 3/35/21 24/36/21 23/27/21
f 5/29/22 6/38/22 22/37/22
