# Blender 4.2.3 LTS
# www.blender.org
mtllib Rail.mtl
o 立方体
v -1.000000 -0.142219 1.000000
v -0.206106 0.142219 0.135218
v -1.000000 -0.142219 -1.000000
v -0.206106 0.142219 -0.318277
v 1.000000 -0.142219 1.000000
v 0.206106 0.142219 0.135218
v 1.000000 -0.142219 -1.000000
v 0.206106 0.142219 -0.318277
v 0.000000 -0.142219 -1.475994
v 0.000000 0.142219 -0.416382
v 0.000000 -0.142219 1.000000
v 0.000000 0.142219 0.135218
v -1.000000 -0.142219 -0.079332
v -0.206106 0.142219 -0.096127
v 1.000000 -0.142219 -0.079332
v 0.206106 0.142219 -0.096127
v 0.000000 -0.142219 -0.079332
v -1.000000 0.142219 -0.079332
v -1.000000 0.142219 -1.000000
v 0.000000 0.142219 -1.475994
v 1.000000 0.142219 -1.000000
v 1.000000 0.142219 -0.079332
v 1.000000 0.142219 1.000000
v 0.000000 0.142219 1.000000
v -1.000000 0.142219 1.000000
v 0.000000 0.833232 -0.096127
v 0.000000 0.617499 0.135218
v 0.000000 0.617499 -0.416382
v 0.206106 0.617499 -0.096127
v -0.206106 0.617499 -0.096127
v -0.206106 0.617499 -0.318277
v 0.206106 0.617499 -0.318277
v 0.206106 0.617499 0.135218
v -0.206106 0.617499 0.135218
vn -1.0000 -0.0000 -0.0000
vn 0.4298 -0.0000 -0.9029
vn 1.0000 -0.0000 -0.0000
vn -0.0000 -0.0000 1.0000
vn -0.0000 -1.0000 -0.0000
vn -0.4298 -0.0000 -0.9029
vn -0.0000 1.0000 -0.0000
vn -0.6079 0.5807 0.5415
vn 0.7231 0.6908 -0.0000
vn -0.2570 0.8015 -0.5399
vn 0.6079 0.5807 0.5415
vn 0.2570 0.8015 -0.5399
vn -0.7231 0.6908 -0.0000
vt 0.625000 0.125000
vt 0.375000 0.250000
vt 0.375000 0.125000
vt 0.625000 0.375000
vt 0.375000 0.500000
vt 0.375000 0.375000
vt 0.625000 0.625000
vt 0.375000 0.750000
vt 0.375000 0.625000
vt 0.625000 0.875000
vt 0.375000 1.000000
vt 0.375000 0.875000
vt 0.250000 0.750000
vt 0.250000 0.625000
vt 0.830980 0.543001
vt 0.830980 0.625000
vt 0.669020 0.709216
vt 0.669020 0.625000
vt 0.125000 0.750000
vt 0.125000 0.625000
vt 0.625000 0.750000
vt 0.625000 0.250000
vt 0.125000 0.500000
vt 0.750000 0.534906
vt 0.830980 0.709216
vt 0.250000 0.500000
vt 0.625000 0.500000
vt 0.625000 0.000000
vt 0.375000 0.000000
vt 0.875000 0.625000
vt 0.750000 0.500000
vt 0.750000 0.750000
vt 0.750000 0.709216
vt 0.875000 0.500000
vt 0.875000 0.750000
vt 0.669020 0.543001
vt 0.750000 0.625000
vt 0.625000 1.000000
s 0
f 18/1/1 3/2/1 13/3/1
f 20/4/2 7/5/2 9/6/2
f 22/7/3 5/8/3 15/9/3
f 24/10/4 1/11/4 11/12/4
f 15/9/5 11/13/5 17/14/5
f 4/15/1 30/16/1 31/15/1
f 6/17/3 29/18/3 33/17/3
f 17/14/5 1/19/5 13/20/5
f 23/21/4 11/12/4 5/8/4
f 19/22/6 9/6/6 3/2/6
f 3/23/5 17/14/5 13/20/5
f 4/15/6 28/24/6 10/24/6
f 2/25/1 30/16/1 14/16/1
f 7/5/5 17/14/5 9/26/5
f 21/27/3 15/9/3 7/5/3
f 25/28/1 13/3/1 1/29/1
f 4/15/7 18/30/7 14/16/7
f 10/24/7 21/27/7 20/31/7
f 6/17/7 22/7/7 16/18/7
f 2/25/7 24/32/7 12/33/7
f 10/24/7 19/34/7 4/15/7
f 6/17/7 24/32/7 23/21/7
f 2/25/7 18/30/7 25/35/7
f 8/36/7 22/7/7 21/27/7
f 30/16/8 27/33/8 26/37/8
f 29/18/7 27/33/7 33/17/7
f 32/36/9 26/37/9 29/18/9
f 31/15/10 26/37/10 28/24/10
f 8/36/3 29/18/3 16/18/3
f 6/17/4 27/33/4 12/33/4
f 12/33/4 34/25/4 2/25/4
f 10/24/2 32/36/2 8/36/2
f 18/1/1 19/22/1 3/2/1
f 20/4/2 21/27/2 7/5/2
f 22/7/3 23/21/3 5/8/3
f 24/10/4 25/38/4 1/11/4
f 15/9/5 5/8/5 11/13/5
f 4/15/1 14/16/1 30/16/1
f 6/17/3 16/18/3 29/18/3
f 17/14/5 11/13/5 1/19/5
f 23/21/4 24/10/4 11/12/4
f 19/22/6 20/4/6 9/6/6
f 3/23/5 9/26/5 17/14/5
f 4/15/6 31/15/6 28/24/6
f 2/25/1 34/25/1 30/16/1
f 7/5/5 15/9/5 17/14/5
f 21/27/3 22/7/3 15/9/3
f 25/28/1 18/1/1 13/3/1
f 4/15/7 19/34/7 18/30/7
f 10/24/7 8/36/7 21/27/7
f 6/17/7 23/21/7 22/7/7
f 2/25/7 25/35/7 24/32/7
f 10/24/7 20/31/7 19/34/7
f 6/17/7 12/33/7 24/32/7
f 2/25/7 14/16/7 18/30/7
f 8/36/7 16/18/7 22/7/7
f 30/16/7 34/25/7 27/33/7
f 29/18/11 26/37/11 27/33/11
f 32/36/12 28/24/12 26/37/12
f 31/15/13 30/16/13 26/37/13
f 8/36/3 32/36/3 29/18/3
f 6/17/4 33/17/4 27/33/4
f 12/33/4 27/33/4 34/25/4
f 10/24/2 28/24/2 32/36/2
