# Blender 4.2.3 LTS
# www.blender.org
mtllib Rail.mtl
o 平面
v -1.102417 -0.012837 0.859907
v 1.102417 -0.012837 0.859907
v -1.102417 -0.012837 0.912318
v 1.102417 -0.012837 0.912318
v -0.684144 0.000000 1.000000
v -1.000000 0.000000 1.000000
v -0.684144 0.000000 -1.000000
v -1.000000 0.000000 -1.000000
v 0.684144 0.000000 1.000000
v 1.000000 0.000000 1.000000
v 0.684144 0.000000 -1.000000
v 1.000000 0.000000 -1.000000
v -1.102417 -0.012837 0.549085
v 1.102417 -0.012837 0.549085
v -1.102417 -0.012837 0.601496
v 1.102417 -0.012837 0.601496
v -1.102417 -0.012837 0.251781
v 1.102417 -0.012837 0.251781
v -1.102417 -0.012837 0.304191
v 1.102417 -0.012837 0.304191
v -1.102417 -0.012837 -0.055143
v 1.102417 -0.012837 -0.055143
v -1.102417 -0.012837 -0.002732
v 1.102417 -0.012837 -0.002732
v -1.102417 -0.012837 -0.372139
v 1.102417 -0.012837 -0.372139
v -1.102417 -0.012837 -0.319728
v 1.102417 -0.012837 -0.319728
v -1.102417 -0.012837 -0.660422
v 1.102417 -0.012837 -0.660422
v -1.102417 -0.012837 -0.608011
v 1.102417 -0.012837 -0.608011
v -1.102417 -0.012837 -0.932086
v 1.102417 -0.012837 -0.932086
v -1.102417 -0.012837 -0.879675
v 1.102417 -0.012837 -0.879675
vn -0.0000 1.0000 -0.0000
vn -0.0000 -1.0000 -0.0000
vt 1.000000 0.000000
vt 0.000000 1.000000
vt 0.000000 0.000000
vt 1.000000 1.000000
s 0
f 2/1/1 1/3/1 3/2/1
f 6/1/1 5/3/1 7/2/1
f 10/1/2 9/3/2 11/2/2
f 14/1/1 13/3/1 15/2/1
f 18/1/1 17/3/1 19/2/1
f 22/1/1 21/3/1 23/2/1
f 26/1/1 25/3/1 27/2/1
f 30/1/1 29/3/1 31/2/1
f 34/1/1 33/3/1 35/2/1
f 2/1/1 3/2/1 4/4/1
f 6/1/1 7/2/1 8/4/1
f 10/1/2 11/2/2 12/4/2
f 14/1/1 15/2/1 16/4/1
f 18/1/1 19/2/1 20/4/1
f 22/1/1 23/2/1 24/4/1
f 26/1/1 27/2/1 28/4/1
f 30/1/1 31/2/1 32/4/1
f 34/1/1 35/2/1 36/4/1
