{
	"asset":{
		"generator":"Khronos glTF Blender I/O v4.2.57",
		"version":"2.0"
	},
	"scene":0,
	"scenes":[
		{
			"name":"Scene",
			"nodes":[
				10,
				11
			]
		}
	],
	"nodes":[
		{
			"name":"\u30dc\u30fc\u30f3.004.L",
			"rotation":[
				2.7755578924351364e-17,
				0,
				0,
				1
			],
			"scale":[
				1,
				0.9999998807907104,
				1
			],
			"translation":[
				0.2833320200443268,
				0.15040646493434906,
				0.9004194736480713
			]
		},
		{
			"name":"\u30dc\u30fc\u30f3.004.R",
			"rotation":[
				2.7755578924351364e-17,
				0,
				0,
				1
			],
			"scale":[
				1,
				0.9999998807907104,
				1
			],
			"translation":[
				-0.30601367354393005,
				0.15040646493434906,
				0.9004194736480713
			]
		},
		{
			"children":[
				0,
				1
			],
			"name":"\u30dc\u30fc\u30f3.001",
			"rotation":[
				0.7138913869857788,
				0,
				0,
				0.7002564668655396
			],
			"translation":[
				0.011340835131704807,
				-1.0080758333206177,
				1.0701779127120972
			]
		},
		{
			"name":"\u30dc\u30fc\u30f3.002.L",
			"rotation":[
				0.11093660444021225,
				0.7052191495895386,
				-0.6917497515678406,
				0.10881766676902771
			],
			"translation":[
				1.2029922008514404,
				-0.9189249873161316,
				-0.14188824594020844
			]
		},
		{
			"name":"\u30dc\u30fc\u30f3.003.L",
			"rotation":[
				0.987063467502594,
				0.1602046936750412,
				0.00027411189512349665,
				0.006331886164844036
			],
			"scale":[
				0.9999998211860657,
				0.9999998807907104,
				1.0000001192092896
			],
			"translation":[
				0.6100937724113464,
				-0.6025638580322266,
				-1.5569438934326172
			]
		},
		{
			"name":"\u30dc\u30fc\u30f3.002.R",
			"rotation":[
				0.11093660444021225,
				-0.7052191495895386,
				0.6917497515678406,
				0.10881766676902771
			],
			"translation":[
				-1.2029922008514404,
				-0.9189249873161316,
				-0.14188824594020844
			]
		},
		{
			"name":"\u30dc\u30fc\u30f3.003.R",
			"rotation":[
				0.987063467502594,
				-0.1602046936750412,
				-0.00027411189512349665,
				0.006331886164844036
			],
			"scale":[
				0.9999998211860657,
				0.9999998807907104,
				1.0000001192092896
			],
			"translation":[
				-0.6100937724113464,
				-0.6025638580322266,
				-1.5569438934326172
			]
		},
		{
			"name":"\u30dc\u30fc\u30f3.002",
			"rotation":[
				0.7479770183563232,
				7.912214528005279e-08,
				8.916580895856896e-08,
				0.6637246608734131
			],
			"scale":[
				1,
				0.9999999403953552,
				0.9999999403953552
			],
			"translation":[
				0.02859017811715603,
				-0.8546128869056702,
				-0.5551990866661072
			]
		},
		{
			"children":[
				2,
				3,
				4,
				5,
				6,
				7
			],
			"name":"\u30dc\u30fc\u30f3",
			"rotation":[
				-0.7138913869857788,
				0,
				0,
				0.7002564668655396
			],
			"translation":[
				0,
				1.6915791034698486,
				-0.9872535467147827
			]
		},
		{
			"mesh":0,
			"name":"\u7acb\u65b9\u4f53.003",
			"skin":0
		},
		{
			"children":[
				9,
				8
			],
			"name":"\u30a2\u30fc\u30de\u30c1\u30e5\u30a2"
		},
		{
			"mesh":1,
			"name":"\u5e73\u9762"
		}
	],
	"animations":[
		{
			"channels":[
				{
					"sampler":0,
					"target":{
						"node":8,
						"path":"translation"
					}
				},
				{
					"sampler":1,
					"target":{
						"node":8,
						"path":"rotation"
					}
				},
				{
					"sampler":2,
					"target":{
						"node":8,
						"path":"scale"
					}
				},
				{
					"sampler":3,
					"target":{
						"node":2,
						"path":"translation"
					}
				},
				{
					"sampler":4,
					"target":{
						"node":2,
						"path":"rotation"
					}
				},
				{
					"sampler":5,
					"target":{
						"node":2,
						"path":"scale"
					}
				},
				{
					"sampler":6,
					"target":{
						"node":0,
						"path":"translation"
					}
				},
				{
					"sampler":7,
					"target":{
						"node":0,
						"path":"rotation"
					}
				},
				{
					"sampler":8,
					"target":{
						"node":0,
						"path":"scale"
					}
				},
				{
					"sampler":9,
					"target":{
						"node":1,
						"path":"translation"
					}
				},
				{
					"sampler":10,
					"target":{
						"node":1,
						"path":"rotation"
					}
				},
				{
					"sampler":11,
					"target":{
						"node":1,
						"path":"scale"
					}
				},
				{
					"sampler":12,
					"target":{
						"node":3,
						"path":"translation"
					}
				},
				{
					"sampler":13,
					"target":{
						"node":3,
						"path":"rotation"
					}
				},
				{
					"sampler":14,
					"target":{
						"node":3,
						"path":"scale"
					}
				},
				{
					"sampler":15,
					"target":{
						"node":4,
						"path":"translation"
					}
				},
				{
					"sampler":16,
					"target":{
						"node":4,
						"path":"rotation"
					}
				},
				{
					"sampler":17,
					"target":{
						"node":4,
						"path":"scale"
					}
				},
				{
					"sampler":18,
					"target":{
						"node":5,
						"path":"translation"
					}
				},
				{
					"sampler":19,
					"target":{
						"node":5,
						"path":"rotation"
					}
				},
				{
					"sampler":20,
					"target":{
						"node":5,
						"path":"scale"
					}
				},
				{
					"sampler":21,
					"target":{
						"node":6,
						"path":"translation"
					}
				},
				{
					"sampler":22,
					"target":{
						"node":6,
						"path":"rotation"
					}
				},
				{
					"sampler":23,
					"target":{
						"node":6,
						"path":"scale"
					}
				},
				{
					"sampler":24,
					"target":{
						"node":7,
						"path":"translation"
					}
				},
				{
					"sampler":25,
					"target":{
						"node":7,
						"path":"rotation"
					}
				},
				{
					"sampler":26,
					"target":{
						"node":7,
						"path":"scale"
					}
				}
			],
			"name":"\u30a2\u30fc\u30de\u30c1\u30e5\u30a2\u30a2\u30af\u30b7\u30e7\u30f3",
			"samplers":[
				{
					"input":12,
					"interpolation":"STEP",
					"output":13
				},
				{
					"input":12,
					"interpolation":"STEP",
					"output":14
				},
				{
					"input":12,
					"interpolation":"STEP",
					"output":15
				},
				{
					"input":16,
					"interpolation":"LINEAR",
					"output":17
				},
				{
					"input":12,
					"interpolation":"STEP",
					"output":18
				},
				{
					"input":12,
					"interpolation":"STEP",
					"output":19
				},
				{
					"input":12,
					"interpolation":"STEP",
					"output":20
				},
				{
					"input":12,
					"interpolation":"STEP",
					"output":21
				},
				{
					"input":16,
					"interpolation":"LINEAR",
					"output":22
				},
				{
					"input":12,
					"interpolation":"STEP",
					"output":23
				},
				{
					"input":12,
					"interpolation":"STEP",
					"output":24
				},
				{
					"input":16,
					"interpolation":"LINEAR",
					"output":25
				},
				{
					"input":16,
					"interpolation":"LINEAR",
					"output":26
				},
				{
					"input":16,
					"interpolation":"LINEAR",
					"output":27
				},
				{
					"input":12,
					"interpolation":"STEP",
					"output":28
				},
				{
					"input":12,
					"interpolation":"STEP",
					"output":29
				},
				{
					"input":12,
					"interpolation":"STEP",
					"output":30
				},
				{
					"input":12,
					"interpolation":"STEP",
					"output":31
				},
				{
					"input":16,
					"interpolation":"LINEAR",
					"output":32
				},
				{
					"input":16,
					"interpolation":"LINEAR",
					"output":33
				},
				{
					"input":12,
					"interpolation":"STEP",
					"output":34
				},
				{
					"input":12,
					"interpolation":"STEP",
					"output":35
				},
				{
					"input":12,
					"interpolation":"STEP",
					"output":36
				},
				{
					"input":12,
					"interpolation":"STEP",
					"output":37
				},
				{
					"input":16,
					"interpolation":"LINEAR",
					"output":38
				},
				{
					"input":12,
					"interpolation":"STEP",
					"output":39
				},
				{
					"input":12,
					"interpolation":"STEP",
					"output":40
				}
			]
		}
	],
	"materials":[
		{
			"alphaMode":"BLEND",
			"doubleSided":true,
			"name":"Material",
			"pbrMetallicRoughness":{
				"baseColorTexture":{
					"index":0
				},
				"metallicFactor":0,
				"roughnessFactor":0.5
			}
		}
	],
	"meshes":[
		{
			"name":"\u7acb\u65b9\u4f53.005",
			"primitives":[
				{
					"attributes":{
						"POSITION":0,
						"NORMAL":1,
						"TEXCOORD_0":2,
						"TEXCOORD_1":3,
						"JOINTS_0":4,
						"WEIGHTS_0":5
					},
					"indices":6,
					"material":0
				}
			]
		},
		{
			"name":"\u5e73\u9762",
			"primitives":[
				{
					"attributes":{
						"POSITION":8,
						"NORMAL":9,
						"TEXCOORD_0":10
					},
					"indices":11
				}
			]
		}
	],
	"textures":[
		{
			"sampler":0,
			"source":0
		}
	],
	"images":[
		{
			"mimeType":"image/png",
			"name":"PlayerTex",
			"uri":"PlayerTex.png"
		}
	],
	"skins":[
		{
			"inverseBindMatrices":7,
			"joints":[
				8,
				2,
				0,
				1,
				3,
				4,
				5,
				6,
				7
			],
			"name":"\u30a2\u30fc\u30de\u30c1\u30e5\u30a2"
		}
	],
	"accessors":[
		{
			"bufferView":0,
			"componentType":5126,
			"count":527,
			"max":[
				1.4967182874679565,
				5.164496421813965,
				0.7976304292678833
			],
			"min":[
				-1.4967182874679565,
				-0.007432295475155115,
				-1.9916902780532837
			],
			"type":"VEC3"
		},
		{
			"bufferView":1,
			"componentType":5126,
			"count":527,
			"type":"VEC3"
		},
		{
			"bufferView":2,
			"componentType":5126,
			"count":527,
			"type":"VEC2"
		},
		{
			"bufferView":3,
			"componentType":5126,
			"count":527,
			"type":"VEC2"
		},
		{
			"bufferView":4,
			"componentType":5121,
			"count":527,
			"type":"VEC4"
		},
		{
			"bufferView":5,
			"componentType":5126,
			"count":527,
			"type":"VEC4"
		},
		{
			"bufferView":6,
			"componentType":5123,
			"count":624,
			"type":"SCALAR"
		},
		{
			"bufferView":7,
			"componentType":5126,
			"count":9,
			"type":"MAT4"
		},
		{
			"bufferView":8,
			"componentType":5126,
			"count":4,
			"max":[
				8.320733070373535,
				0,
				8.320733070373535
			],
			"min":[
				-8.320733070373535,
				0,
				-8.320733070373535
			],
			"type":"VEC3"
		},
		{
			"bufferView":9,
			"componentType":5126,
			"count":4,
			"type":"VEC3"
		},
		{
			"bufferView":10,
			"componentType":5126,
			"count":4,
			"type":"VEC2"
		},
		{
			"bufferView":11,
			"componentType":5123,
			"count":6,
			"type":"SCALAR"
		},
		{
			"bufferView":12,
			"componentType":5126,
			"count":2,
			"max":[
				4
			],
			"min":[
				0
			],
			"type":"SCALAR"
		},
		{
			"bufferView":13,
			"componentType":5126,
			"count":2,
			"type":"VEC3"
		},
		{
			"bufferView":14,
			"componentType":5126,
			"count":2,
			"type":"VEC4"
		},
		{
			"bufferView":15,
			"componentType":5126,
			"count":2,
			"type":"VEC3"
		},
		{
			"bufferView":16,
			"componentType":5126,
			"count":241,
			"max":[
				4
			],
			"min":[
				0
			],
			"type":"SCALAR"
		},
		{
			"bufferView":17,
			"componentType":5126,
			"count":241,
			"type":"VEC3"
		},
		{
			"bufferView":18,
			"componentType":5126,
			"count":2,
			"type":"VEC4"
		},
		{
			"bufferView":19,
			"componentType":5126,
			"count":2,
			"type":"VEC3"
		},
		{
			"bufferView":20,
			"componentType":5126,
			"count":2,
			"type":"VEC3"
		},
		{
			"bufferView":21,
			"componentType":5126,
			"count":2,
			"type":"VEC4"
		},
		{
			"bufferView":22,
			"componentType":5126,
			"count":241,
			"type":"VEC3"
		},
		{
			"bufferView":23,
			"componentType":5126,
			"count":2,
			"type":"VEC3"
		},
		{
			"bufferView":24,
			"componentType":5126,
			"count":2,
			"type":"VEC4"
		},
		{
			"bufferView":25,
			"componentType":5126,
			"count":241,
			"type":"VEC3"
		},
		{
			"bufferView":26,
			"componentType":5126,
			"count":241,
			"type":"VEC3"
		},
		{
			"bufferView":27,
			"componentType":5126,
			"count":241,
			"type":"VEC4"
		},
		{
			"bufferView":28,
			"componentType":5126,
			"count":2,
			"type":"VEC3"
		},
		{
			"bufferView":29,
			"componentType":5126,
			"count":2,
			"type":"VEC3"
		},
		{
			"bufferView":30,
			"componentType":5126,
			"count":2,
			"type":"VEC4"
		},
		{
			"bufferView":31,
			"componentType":5126,
			"count":2,
			"type":"VEC3"
		},
		{
			"bufferView":32,
			"componentType":5126,
			"count":241,
			"type":"VEC3"
		},
		{
			"bufferView":33,
			"componentType":5126,
			"count":241,
			"type":"VEC4"
		},
		{
			"bufferView":34,
			"componentType":5126,
			"count":2,
			"type":"VEC3"
		},
		{
			"bufferView":35,
			"componentType":5126,
			"count":2,
			"type":"VEC3"
		},
		{
			"bufferView":36,
			"componentType":5126,
			"count":2,
			"type":"VEC4"
		},
		{
			"bufferView":37,
			"componentType":5126,
			"count":2,
			"type":"VEC3"
		},
		{
			"bufferView":38,
			"componentType":5126,
			"count":241,
			"type":"VEC3"
		},
		{
			"bufferView":39,
			"componentType":5126,
			"count":2,
			"type":"VEC4"
		},
		{
			"bufferView":40,
			"componentType":5126,
			"count":2,
			"type":"VEC3"
		}
	],
	"bufferViews":[
		{
			"buffer":0,
			"byteLength":6324,
			"byteOffset":0,
			"target":34962
		},
		{
			"buffer":0,
			"byteLength":6324,
			"byteOffset":6324,
			"target":34962
		},
		{
			"buffer":0,
			"byteLength":4216,
			"byteOffset":12648,
			"target":34962
		},
		{
			"buffer":0,
			"byteLength":4216,
			"byteOffset":16864,
			"target":34962
		},
		{
			"buffer":0,
			"byteLength":2108,
			"byteOffset":21080,
			"target":34962
		},
		{
			"buffer":0,
			"byteLength":8432,
			"byteOffset":23188,
			"target":34962
		},
		{
			"buffer":0,
			"byteLength":1248,
			"byteOffset":31620,
			"target":34963
		},
		{
			"buffer":0,
			"byteLength":576,
			"byteOffset":32868
		},
		{
			"buffer":0,
			"byteLength":48,
			"byteOffset":33444,
			"target":34962
		},
		{
			"buffer":0,
			"byteLength":48,
			"byteOffset":33492,
			"target":34962
		},
		{
			"buffer":0,
			"byteLength":32,
			"byteOffset":33540,
			"target":34962
		},
		{
			"buffer":0,
			"byteLength":12,
			"byteOffset":33572,
			"target":34963
		},
		{
			"buffer":0,
			"byteLength":8,
			"byteOffset":33584
		},
		{
			"buffer":0,
			"byteLength":24,
			"byteOffset":33592
		},
		{
			"buffer":0,
			"byteLength":32,
			"byteOffset":33616
		},
		{
			"buffer":0,
			"byteLength":24,
			"byteOffset":33648
		},
		{
			"buffer":0,
			"byteLength":964,
			"byteOffset":33672
		},
		{
			"buffer":0,
			"byteLength":2892,
			"byteOffset":34636
		},
		{
			"buffer":0,
			"byteLength":32,
			"byteOffset":37528
		},
		{
			"buffer":0,
			"byteLength":24,
			"byteOffset":37560
		},
		{
			"buffer":0,
			"byteLength":24,
			"byteOffset":37584
		},
		{
			"buffer":0,
			"byteLength":32,
			"byteOffset":37608
		},
		{
			"buffer":0,
			"byteLength":2892,
			"byteOffset":37640
		},
		{
			"buffer":0,
			"byteLength":24,
			"byteOffset":40532
		},
		{
			"buffer":0,
			"byteLength":32,
			"byteOffset":40556
		},
		{
			"buffer":0,
			"byteLength":2892,
			"byteOffset":40588
		},
		{
			"buffer":0,
			"byteLength":2892,
			"byteOffset":43480
		},
		{
			"buffer":0,
			"byteLength":3856,
			"byteOffset":46372
		},
		{
			"buffer":0,
			"byteLength":24,
			"byteOffset":50228
		},
		{
			"buffer":0,
			"byteLength":24,
			"byteOffset":50252
		},
		{
			"buffer":0,
			"byteLength":32,
			"byteOffset":50276
		},
		{
			"buffer":0,
			"byteLength":24,
			"byteOffset":50308
		},
		{
			"buffer":0,
			"byteLength":2892,
			"byteOffset":50332
		},
		{
			"buffer":0,
			"byteLength":3856,
			"byteOffset":53224
		},
		{
			"buffer":0,
			"byteLength":24,
			"byteOffset":57080
		},
		{
			"buffer":0,
			"byteLength":24,
			"byteOffset":57104
		},
		{
			"buffer":0,
			"byteLength":32,
			"byteOffset":57128
		},
		{
			"buffer":0,
			"byteLength":24,
			"byteOffset":57160
		},
		{
			"buffer":0,
			"byteLength":2892,
			"byteOffset":57184
		},
		{
			"buffer":0,
			"byteLength":32,
			"byteOffset":60076
		},
		{
			"buffer":0,
			"byteLength":24,
			"byteOffset":60108
		}
	],
	"samplers":[
		{
			"magFilter":9729,
			"minFilter":9987
		}
	],
	"buffers":[
		{
			"byteLength":60132,
			"uri":"Player_Wait.bin"
		}
	]
}
