# Blender 4.1.1
# www.blender.org
mtllib tornadoAbove2.mtl
o 円.001
v -0.228631 0.000000 2.621399
v 0.250919 0.000000 2.574167
v 0.712039 0.000000 2.434288
v 1.137011 0.000000 2.207136
v 1.509501 0.000000 1.901441
v 1.815197 0.000000 1.528950
v 2.042348 0.000000 1.103979
v 2.182228 0.000000 0.642858
v 2.229460 0.000000 0.163308
v 2.182228 0.000000 -0.316242
v 2.042348 0.000000 -0.777363
v 1.815197 0.000000 -1.202334
v 1.509501 0.000000 -1.574825
v 1.137011 0.000000 -1.880520
v 0.712039 0.000000 -2.107672
v 0.250919 0.000000 -2.247551
v -0.228631 0.000000 -2.294783
v -0.708181 0.000000 -2.247551
v -1.169302 0.000000 -2.107672
v -1.594273 0.000000 -1.880520
v -1.966764 0.000000 -1.574825
v -2.272459 0.000000 -1.202334
v -2.499611 0.000000 -0.777363
v -2.639490 0.000000 -0.316242
v -2.686722 0.000000 0.163308
v -2.639490 0.000000 0.642858
v -2.499611 0.000000 1.103979
v -2.272459 0.000000 1.528950
v -1.966764 0.000000 1.901441
v -1.594273 0.000000 2.207136
v -1.169302 0.000000 2.434288
v -0.708181 0.000000 2.574167
v -0.228631 0.000000 2.219974
v 0.172604 0.000000 2.180456
v 0.558421 0.000000 2.063420
v 0.913991 0.000000 1.873363
v 1.225651 0.000000 1.617591
v 1.481424 0.000000 1.305931
v 1.671481 0.000000 0.950360
v 1.788517 0.000000 0.564544
v 1.828035 0.000000 0.163308
v 1.788517 0.000000 -0.237928
v 1.671481 0.000000 -0.623744
v 1.481424 0.000000 -0.979315
v 1.225651 0.000000 -1.290974
v 0.913991 0.000000 -1.546747
v 0.558421 0.000000 -1.736804
v 0.172604 0.000000 -1.853840
v -0.228631 0.000000 -1.893358
v -0.629867 0.000000 -1.853840
v -1.015683 0.000000 -1.736804
v -1.371254 0.000000 -1.546747
v -1.682914 0.000000 -1.290974
v -1.938687 0.000000 -0.979315
v -2.128743 0.000000 -0.623744
v -2.245779 0.000000 -0.237928
v -2.285297 0.000000 0.163308
v -2.245779 0.000000 0.564544
v -2.128743 0.000000 0.950360
v -1.938687 0.000000 1.305931
v -1.682914 0.000000 1.617591
v -1.371254 0.000000 1.873363
v -1.015683 0.000000 2.063420
v -0.629867 0.000000 2.180456
vn -0.0000 -1.0000 -0.0000
vt 0.000000 0.000000
s 0
f 16/1/1 49/1/1 17/1/1
f 3/1/1 36/1/1 4/1/1
f 31/1/1 62/1/1 63/1/1
f 18/1/1 49/1/1 50/1/1
f 5/1/1 36/1/1 37/1/1
f 32/1/1 63/1/1 64/1/1
f 18/1/1 51/1/1 19/1/1
f 5/1/1 38/1/1 6/1/1
f 32/1/1 33/1/1 1/1/1
f 19/1/1 52/1/1 20/1/1
f 7/1/1 38/1/1 39/1/1
f 21/1/1 52/1/1 53/1/1
f 8/1/1 39/1/1 40/1/1
f 21/1/1 54/1/1 22/1/1
f 8/1/1 41/1/1 9/1/1
f 23/1/1 54/1/1 55/1/1
f 10/1/1 41/1/1 42/1/1
f 24/1/1 55/1/1 56/1/1
f 10/1/1 43/1/1 11/1/1
f 24/1/1 57/1/1 25/1/1
f 11/1/1 44/1/1 12/1/1
f 26/1/1 57/1/1 58/1/1
f 13/1/1 44/1/1 45/1/1
f 26/1/1 59/1/1 27/1/1
f 13/1/1 46/1/1 14/1/1
f 27/1/1 60/1/1 28/1/1
f 15/1/1 46/1/1 47/1/1
f 2/1/1 33/1/1 34/1/1
f 29/1/1 60/1/1 61/1/1
f 16/1/1 47/1/1 48/1/1
f 2/1/1 35/1/1 3/1/1
f 29/1/1 62/1/1 30/1/1
f 16/1/1 48/1/1 49/1/1
f 3/1/1 35/1/1 36/1/1
f 31/1/1 30/1/1 62/1/1
f 18/1/1 17/1/1 49/1/1
f 5/1/1 4/1/1 36/1/1
f 32/1/1 31/1/1 63/1/1
f 18/1/1 50/1/1 51/1/1
f 5/1/1 37/1/1 38/1/1
f 32/1/1 64/1/1 33/1/1
f 19/1/1 51/1/1 52/1/1
f 7/1/1 6/1/1 38/1/1
f 21/1/1 20/1/1 52/1/1
f 8/1/1 7/1/1 39/1/1
f 21/1/1 53/1/1 54/1/1
f 8/1/1 40/1/1 41/1/1
f 23/1/1 22/1/1 54/1/1
f 10/1/1 9/1/1 41/1/1
f 24/1/1 23/1/1 55/1/1
f 10/1/1 42/1/1 43/1/1
f 24/1/1 56/1/1 57/1/1
f 11/1/1 43/1/1 44/1/1
f 26/1/1 25/1/1 57/1/1
f 13/1/1 12/1/1 44/1/1
f 26/1/1 58/1/1 59/1/1
f 13/1/1 45/1/1 46/1/1
f 27/1/1 59/1/1 60/1/1
f 15/1/1 14/1/1 46/1/1
f 2/1/1 1/1/1 33/1/1
f 29/1/1 28/1/1 60/1/1
f 16/1/1 15/1/1 47/1/1
f 2/1/1 34/1/1 35/1/1
f 29/1/1 61/1/1 62/1/1
