# Blender 4.1.1
# www.blender.org
mtllib tornadoAbove2.mtl
o 円.001
v -0.228631 0.000000 2.621399
v 0.250919 0.000000 2.574167
v 0.712039 0.000000 2.434288
v 1.137011 0.000000 2.207136
v 1.509501 0.000000 1.901441
v 1.815197 0.000000 1.528950
v 2.042348 0.000000 1.103979
v 2.182228 0.000000 0.642858
v 2.229460 0.000000 0.163308
v 2.182228 0.000000 -0.316242
v 2.042348 0.000000 -0.777363
v 1.815197 0.000000 -1.202334
v 1.509501 0.000000 -1.574825
v 1.137011 0.000000 -1.880520
v 0.712039 0.000000 -2.107672
v 0.250919 0.000000 -2.247551
v -0.228631 0.000000 -2.294783
v -0.708181 0.000000 -2.247551
v -1.169302 0.000000 -2.107672
v -1.594273 0.000000 -1.880520
v -1.966764 0.000000 -1.574825
v -2.272459 0.000000 -1.202334
v -2.499611 0.000000 -0.777363
v -2.639490 0.000000 -0.316242
v -2.686722 0.000000 0.163308
v -2.639490 0.000000 0.642858
v -2.499611 0.000000 1.103979
v -2.272459 0.000000 1.528950
v -1.966764 0.000000 1.901441
v -1.594273 0.000000 2.207136
v -1.169302 0.000000 2.434288
v -0.708181 0.000000 2.574167
v -0.228631 0.000000 2.219974
v 0.172604 0.000000 2.180456
v 0.558421 0.000000 2.063420
v 0.913991 0.000000 1.873363
v 1.225651 0.000000 1.617591
v 1.481424 0.000000 1.305931
v 1.671481 0.000000 0.950360
v 1.788517 0.000000 0.564544
v 1.828035 0.000000 0.163308
v 1.788517 0.000000 -0.237928
v 1.671481 0.000000 -0.623744
v 1.481424 0.000000 -0.979315
v 1.225651 0.000000 -1.290974
v 0.913991 0.000000 -1.546747
v 0.558421 0.000000 -1.736804
v 0.172604 0.000000 -1.853840
v -0.228631 0.000000 -1.893358
v -0.629867 0.000000 -1.853840
v -1.015683 0.000000 -1.736804
v -1.371254 0.000000 -1.546747
v -1.682914 0.000000 -1.290974
v -1.938687 0.000000 -0.979315
v -2.128743 0.000000 -0.623744
v -2.245779 0.000000 -0.237928
v -2.285297 0.000000 0.163308
v -2.245779 0.000000 0.564544
v -2.128743 0.000000 0.950360
v -1.938687 0.000000 1.305931
v -1.682914 0.000000 1.617591
v -1.371254 0.000000 1.873363
v -1.015683 0.000000 2.063420
v -0.629867 0.000000 2.180456
vn -0.0000 -1.0000 -0.0000
vt 0.004951 0.451242
vt 0.085796 0.540796
vt 0.004951 0.548758
vt 0.938707 0.265506
vt 0.821733 0.235960
vt 0.884530 0.184424
vt 0.976025 0.644400
vt 0.867063 0.696199
vt 0.898287 0.620819
vt 0.023975 0.644401
vt 0.101714 0.620819
vt 0.815576 0.115470
vt 0.764040 0.178266
vt 0.995050 0.548758
vt 0.914204 0.540795
vt 0.132937 0.696199
vt 0.061293 0.734494
vt 0.696199 0.132937
vt 0.734494 0.061293
vt 0.914204 0.459204
vt 0.995050 0.451242
vt 0.178267 0.764040
vt 0.115470 0.815576
vt 0.644401 0.023975
vt 0.620819 0.101713
vt 0.184425 0.884530
vt 0.235960 0.821734
vt 0.548758 0.004950
vt 0.540796 0.085796
vt 0.303801 0.867063
vt 0.265506 0.938707
vt 0.459204 0.085796
vt 0.451242 0.004950
vt 0.355600 0.976025
vt 0.379181 0.898287
vt 0.355599 0.023975
vt 0.379181 0.101713
vt 0.451242 0.995049
vt 0.459205 0.914204
vt 0.303801 0.132937
vt 0.265506 0.061293
vt 0.540796 0.914204
vt 0.548758 0.995049
vt 0.235960 0.178267
vt 0.184424 0.115470
vt 0.644401 0.976025
vt 0.620819 0.898286
vt 0.115470 0.184424
vt 0.178267 0.235960
vt 0.696199 0.867063
vt 0.734494 0.938707
vt 0.132937 0.303801
vt 0.061293 0.265506
vt 0.764040 0.821733
vt 0.815576 0.884530
vt 0.023975 0.355600
vt 0.101713 0.379181
vt 0.976025 0.355599
vt 0.898287 0.379181
vt 0.884530 0.815575
vt 0.821734 0.764040
vt 0.085796 0.459205
vt 0.867063 0.303800
vt 0.938707 0.734494
s 0
usemtl マテリアル.001
f 16/1/1 49/2/1 17/3/1
f 3/4/1 36/5/1 4/6/1
f 31/7/1 62/8/1 63/9/1
f 18/10/1 49/2/1 50/11/1
f 5/12/1 36/5/1 37/13/1
f 32/14/1 63/9/1 64/15/1
f 18/10/1 51/16/1 19/17/1
f 5/12/1 38/18/1 6/19/1
f 32/14/1 33/20/1 1/21/1
f 19/17/1 52/22/1 20/23/1
f 7/24/1 38/18/1 39/25/1
f 21/26/1 52/22/1 53/27/1
f 8/28/1 39/25/1 40/29/1
f 21/26/1 54/30/1 22/31/1
f 8/28/1 41/32/1 9/33/1
f 23/34/1 54/30/1 55/35/1
f 10/36/1 41/32/1 42/37/1
f 24/38/1 55/35/1 56/39/1
f 10/36/1 43/40/1 11/41/1
f 24/38/1 57/42/1 25/43/1
f 11/41/1 44/44/1 12/45/1
f 26/46/1 57/42/1 58/47/1
f 13/48/1 44/44/1 45/49/1
f 26/46/1 59/50/1 27/51/1
f 13/48/1 46/52/1 14/53/1
f 27/51/1 60/54/1 28/55/1
f 15/56/1 46/52/1 47/57/1
f 2/58/1 33/20/1 34/59/1
f 29/60/1 60/54/1 61/61/1
f 16/1/1 47/57/1 48/62/1
f 2/58/1 35/63/1 3/4/1
f 29/60/1 62/8/1 30/64/1
f 16/1/1 48/62/1 49/2/1
f 3/4/1 35/63/1 36/5/1
f 31/7/1 30/64/1 62/8/1
f 18/10/1 17/3/1 49/2/1
f 5/12/1 4/6/1 36/5/1
f 32/14/1 31/7/1 63/9/1
f 18/10/1 50/11/1 51/16/1
f 5/12/1 37/13/1 38/18/1
f 32/14/1 64/15/1 33/20/1
f 19/17/1 51/16/1 52/22/1
f 7/24/1 6/19/1 38/18/1
f 21/26/1 20/23/1 52/22/1
f 8/28/1 7/24/1 39/25/1
f 21/26/1 53/27/1 54/30/1
f 8/28/1 40/29/1 41/32/1
f 23/34/1 22/31/1 54/30/1
f 10/36/1 9/33/1 41/32/1
f 24/38/1 23/34/1 55/35/1
f 10/36/1 42/37/1 43/40/1
f 24/38/1 56/39/1 57/42/1
f 11/41/1 43/40/1 44/44/1
f 26/46/1 25/43/1 57/42/1
f 13/48/1 12/45/1 44/44/1
f 26/46/1 58/47/1 59/50/1
f 13/48/1 45/49/1 46/52/1
f 27/51/1 59/50/1 60/54/1
f 15/56/1 14/53/1 46/52/1
f 2/58/1 1/21/1 33/20/1
f 29/60/1 28/55/1 60/54/1
f 16/1/1 15/56/1 47/57/1
f 2/58/1 34/59/1 35/63/1
f 29/60/1 61/61/1 62/8/1
