# Blender 4.1.1
# www.blender.org
mtllib rubble.mtl
o Cube
v -0.399409 0.111558 0.394867
v -0.399409 -0.000369 0.394867
v -0.351644 0.055963 -0.351644
v -0.351644 -0.055963 -0.351644
v 0.351644 -0.018212 0.402108
v 0.351644 -0.130138 0.402108
v 0.351644 0.212738 -0.351644
v 0.351644 0.100812 -0.351644
v 0.000000 -0.055963 0.313575
v 0.000000 0.134351 -0.509421
v 0.000000 0.022424 -0.509421
v 0.000000 0.055963 0.313575
v 0.351644 0.022424 0.000000
v -0.351644 0.055963 0.000000
v 0.351644 0.134351 0.000000
v -0.351644 -0.055963 0.000000
v 0.000000 -0.136769 0.000000
v 0.000000 -0.024843 0.000000
vn -0.3275 0.9018 0.2818
vn 0.4094 -0.0000 -0.9124
vn 1.0000 -0.0000 -0.0000
vn 0.0787 -0.9515 -0.2973
vn -1.0000 -0.0000 -0.0000
vn 0.1994 -0.0000 0.9799
vn -0.2441 -0.0000 0.9697
vn 0.4042 -0.8928 -0.1990
vn -0.4094 -0.0000 -0.9124
vn 0.2240 0.9746 -0.0000
vn 0.1117 0.9858 -0.1253
vn -0.1073 -0.9296 -0.3527
vn -0.9928 -0.0000 -0.1201
vn -0.2172 -0.9452 0.2436
vn -0.4015 0.8869 -0.2285
vn -0.4042 0.8928 0.1990
vn -0.2240 -0.9746 -0.0000
vn 0.3275 -0.9018 -0.2818
vn -0.0787 0.9515 0.2973
vn 0.2172 0.9452 -0.2436
vn 0.4015 -0.8869 0.2285
vn -0.1117 -0.9858 0.1253
vn 0.1073 0.9296 0.3527
vt 0.750000 0.625000
vt 0.875000 0.750000
vt 0.750000 0.750000
vt 0.625000 0.875000
vt 0.375000 1.000000
vt 0.375000 0.875000
vt 0.375000 0.125000
vt 0.625000 0.250000
vt 0.375000 0.250000
vt 0.250000 0.625000
vt 0.375000 0.750000
vt 0.250000 0.750000
vt 0.625000 0.625000
vt 0.375000 0.625000
vt 0.625000 0.375000
vt 0.375000 0.500000
vt 0.375000 0.375000
vt 0.125000 0.750000
vt 0.125000 0.625000
vt 0.625000 0.750000
vt 0.750000 0.500000
vt 0.625000 0.500000
vt 0.250000 0.500000
vt 0.125000 0.500000
vt 0.375000 0.000000
vt 0.625000 0.125000
vt 0.875000 0.625000
vt 0.625000 1.000000
vt 0.625000 0.000000
vt 0.875000 0.500000
s 0
usemtl Material
f 18/1/1 7/2/1 10/3/1
f 10/4/2 8/5/2 11/6/2
f 13/7/3 5/8/3 6/9/3
f 17/10/4 4/11/4 11/12/4
f 14/13/5 4/11/5 16/14/5
f 12/15/6 2/16/6 9/17/6
f 5/8/7 9/17/7 6/9/7
f 17/10/8 8/18/8 13/19/8
f 3/20/9 11/6/9 4/11/9
f 18/1/10 3/20/10 14/13/10
f 12/21/11 14/13/11 1/22/11
f 9/23/12 13/19/12 6/24/12
f 2/16/13 14/13/13 16/14/13
f 9/23/14 16/14/14 17/10/14
f 8/25/3 15/26/3 13/7/3
f 12/21/15 15/27/15 18/1/15
f 18/1/16 15/27/16 7/2/16
f 10/4/2 7/28/2 8/5/2
f 13/7/3 15/26/3 5/8/3
f 17/10/17 16/14/17 4/11/17
f 14/13/5 3/20/5 4/11/5
f 12/15/6 1/22/6 2/16/6
f 5/8/7 12/15/7 9/17/7
f 17/10/18 11/12/18 8/18/18
f 3/20/9 10/4/9 11/6/9
f 18/1/19 10/3/19 3/20/19
f 12/21/20 18/1/20 14/13/20
f 9/23/21 17/10/21 13/19/21
f 2/16/13 1/22/13 14/13/13
f 9/23/22 2/16/22 16/14/22
f 8/25/3 7/29/3 15/26/3
f 12/21/23 5/30/23 15/27/23
