{
	"asset":{
		"generator":"Khronos glTF Blender I/O v4.2.57",
		"version":"2.0"
	},
	"scene":0,
	"scenes":[
		{
			"name":"Scene",
			"nodes":[
				5
			]
		}
	],
	"nodes":[
		{
			"name":"\u30dc\u30fc\u30f3"
		},
		{
			"name":"\u30dc\u30fc\u30f3.001",
			"translation":[
				0,
				2.4228415489196777,
				0
			]
		},
		{
			"name":"\u30dc\u30fc\u30f3.002",
			"translation":[
				0,
				5.349902153015137,
				0
			]
		},
		{
			"name":"\u30dc\u30fc\u30f3.003",
			"translation":[
				0,
				8.539497375488281,
				0
			]
		},
		{
			"mesh":0,
			"name":"\u5186\u67f1.002",
			"skin":0
		},
		{
			"children":[
				4,
				0,
				1,
				2,
				3
			],
			"name":"\u30a2\u30fc\u30de\u30c1\u30e5\u30a2.001"
		}
	],
	"animations":[
		{
			"channels":[
				{
					"sampler":0,
					"target":{
						"node":0,
						"path":"translation"
					}
				},
				{
					"sampler":1,
					"target":{
						"node":0,
						"path":"rotation"
					}
				},
				{
					"sampler":2,
					"target":{
						"node":0,
						"path":"scale"
					}
				},
				{
					"sampler":3,
					"target":{
						"node":1,
						"path":"translation"
					}
				},
				{
					"sampler":4,
					"target":{
						"node":1,
						"path":"rotation"
					}
				},
				{
					"sampler":5,
					"target":{
						"node":1,
						"path":"scale"
					}
				},
				{
					"sampler":6,
					"target":{
						"node":2,
						"path":"translation"
					}
				},
				{
					"sampler":7,
					"target":{
						"node":2,
						"path":"rotation"
					}
				},
				{
					"sampler":8,
					"target":{
						"node":2,
						"path":"scale"
					}
				},
				{
					"sampler":9,
					"target":{
						"node":3,
						"path":"translation"
					}
				},
				{
					"sampler":10,
					"target":{
						"node":3,
						"path":"rotation"
					}
				},
				{
					"sampler":11,
					"target":{
						"node":3,
						"path":"scale"
					}
				}
			],
			"name":"\u30a2\u30fc\u30de\u30c1\u30e5\u30a2.001\u30a2\u30af\u30b7\u30e7\u30f3",
			"samplers":[
				{
					"input":7,
					"interpolation":"LINEAR",
					"output":8
				},
				{
					"input":7,
					"interpolation":"LINEAR",
					"output":9
				},
				{
					"input":7,
					"interpolation":"LINEAR",
					"output":10
				},
				{
					"input":7,
					"interpolation":"LINEAR",
					"output":11
				},
				{
					"input":7,
					"interpolation":"LINEAR",
					"output":12
				},
				{
					"input":7,
					"interpolation":"LINEAR",
					"output":13
				},
				{
					"input":7,
					"interpolation":"LINEAR",
					"output":14
				},
				{
					"input":7,
					"interpolation":"LINEAR",
					"output":15
				},
				{
					"input":7,
					"interpolation":"LINEAR",
					"output":16
				},
				{
					"input":17,
					"interpolation":"STEP",
					"output":18
				},
				{
					"input":17,
					"interpolation":"STEP",
					"output":19
				},
				{
					"input":17,
					"interpolation":"STEP",
					"output":20
				}
			]
		},
		{
			"channels":[
				{
					"sampler":0,
					"target":{
						"node":0,
						"path":"translation"
					}
				},
				{
					"sampler":1,
					"target":{
						"node":0,
						"path":"rotation"
					}
				},
				{
					"sampler":2,
					"target":{
						"node":0,
						"path":"scale"
					}
				},
				{
					"sampler":3,
					"target":{
						"node":1,
						"path":"translation"
					}
				},
				{
					"sampler":4,
					"target":{
						"node":1,
						"path":"rotation"
					}
				},
				{
					"sampler":5,
					"target":{
						"node":1,
						"path":"scale"
					}
				},
				{
					"sampler":6,
					"target":{
						"node":2,
						"path":"translation"
					}
				},
				{
					"sampler":7,
					"target":{
						"node":2,
						"path":"rotation"
					}
				},
				{
					"sampler":8,
					"target":{
						"node":2,
						"path":"scale"
					}
				},
				{
					"sampler":9,
					"target":{
						"node":3,
						"path":"translation"
					}
				},
				{
					"sampler":10,
					"target":{
						"node":3,
						"path":"rotation"
					}
				},
				{
					"sampler":11,
					"target":{
						"node":3,
						"path":"scale"
					}
				}
			],
			"name":"\u30a2\u30fc\u30de\u30c1\u30e5\u30a2\u30a2\u30af\u30b7\u30e7\u30f3_\u30a2\u30fc\u30de\u30c1\u30e5\u30a2",
			"samplers":[
				{
					"input":17,
					"interpolation":"STEP",
					"output":21
				},
				{
					"input":17,
					"interpolation":"STEP",
					"output":22
				},
				{
					"input":17,
					"interpolation":"STEP",
					"output":23
				},
				{
					"input":17,
					"interpolation":"STEP",
					"output":24
				},
				{
					"input":17,
					"interpolation":"STEP",
					"output":25
				},
				{
					"input":17,
					"interpolation":"STEP",
					"output":26
				},
				{
					"input":17,
					"interpolation":"STEP",
					"output":27
				},
				{
					"input":17,
					"interpolation":"STEP",
					"output":28
				},
				{
					"input":17,
					"interpolation":"STEP",
					"output":29
				},
				{
					"input":17,
					"interpolation":"STEP",
					"output":30
				},
				{
					"input":17,
					"interpolation":"STEP",
					"output":31
				},
				{
					"input":17,
					"interpolation":"STEP",
					"output":32
				}
			]
		}
	],
	"materials":[
		{
			"alphaMode":"BLEND",
			"doubleSided":true,
			"name":"\u30de\u30c6\u30ea\u30a2\u30eb.004",
			"pbrMetallicRoughness":{
				"baseColorTexture":{
					"index":0
				},
				"metallicFactor":0,
				"roughnessFactor":0.5
			}
		}
	],
	"meshes":[
		{
			"name":"\u5186\u67f1.002",
			"primitives":[
				{
					"attributes":{
						"POSITION":0,
						"NORMAL":1,
						"TEXCOORD_0":2,
						"JOINTS_0":3,
						"WEIGHTS_0":4
					},
					"indices":5,
					"material":0
				}
			]
		}
	],
	"textures":[
		{
			"sampler":0,
			"source":0
		}
	],
	"images":[
		{
			"mimeType":"image/png",
			"name":"Effect12",
			"uri":"Effect12.png"
		}
	],
	"skins":[
		{
			"inverseBindMatrices":6,
			"joints":[
				0,
				1,
				2,
				3
			],
			"name":"\u30a2\u30fc\u30de\u30c1\u30e5\u30a2.001"
		}
	],
	"accessors":[
		{
			"bufferView":0,
			"componentType":5126,
			"count":384,
			"max":[
				10.43306827545166,
				5.92102575302124,
				10.43306827545166
			],
			"min":[
				-10.43306827545166,
				-1,
				-10.43306827545166
			],
			"type":"VEC3"
		},
		{
			"bufferView":1,
			"componentType":5126,
			"count":384,
			"type":"VEC3"
		},
		{
			"bufferView":2,
			"componentType":5126,
			"count":384,
			"type":"VEC2"
		},
		{
			"bufferView":3,
			"componentType":5121,
			"count":384,
			"type":"VEC4"
		},
		{
			"bufferView":4,
			"componentType":5126,
			"count":384,
			"type":"VEC4"
		},
		{
			"bufferView":5,
			"componentType":5123,
			"count":576,
			"type":"SCALAR"
		},
		{
			"bufferView":6,
			"componentType":5126,
			"count":4,
			"type":"MAT4"
		},
		{
			"bufferView":7,
			"componentType":5126,
			"count":65,
			"max":[
				2.6666666666666665
			],
			"min":[
				0
			],
			"type":"SCALAR"
		},
		{
			"bufferView":8,
			"componentType":5126,
			"count":65,
			"type":"VEC3"
		},
		{
			"bufferView":9,
			"componentType":5126,
			"count":65,
			"type":"VEC4"
		},
		{
			"bufferView":10,
			"componentType":5126,
			"count":65,
			"type":"VEC3"
		},
		{
			"bufferView":11,
			"componentType":5126,
			"count":65,
			"type":"VEC3"
		},
		{
			"bufferView":12,
			"componentType":5126,
			"count":65,
			"type":"VEC4"
		},
		{
			"bufferView":13,
			"componentType":5126,
			"count":65,
			"type":"VEC3"
		},
		{
			"bufferView":14,
			"componentType":5126,
			"count":65,
			"type":"VEC3"
		},
		{
			"bufferView":15,
			"componentType":5126,
			"count":65,
			"type":"VEC4"
		},
		{
			"bufferView":16,
			"componentType":5126,
			"count":65,
			"type":"VEC3"
		},
		{
			"bufferView":17,
			"componentType":5126,
			"count":2,
			"max":[
				2.6666666666666665
			],
			"min":[
				0
			],
			"type":"SCALAR"
		},
		{
			"bufferView":18,
			"componentType":5126,
			"count":2,
			"type":"VEC3"
		},
		{
			"bufferView":19,
			"componentType":5126,
			"count":2,
			"type":"VEC4"
		},
		{
			"bufferView":20,
			"componentType":5126,
			"count":2,
			"type":"VEC3"
		},
		{
			"bufferView":21,
			"componentType":5126,
			"count":2,
			"type":"VEC3"
		},
		{
			"bufferView":22,
			"componentType":5126,
			"count":2,
			"type":"VEC4"
		},
		{
			"bufferView":23,
			"componentType":5126,
			"count":2,
			"type":"VEC3"
		},
		{
			"bufferView":24,
			"componentType":5126,
			"count":2,
			"type":"VEC3"
		},
		{
			"bufferView":25,
			"componentType":5126,
			"count":2,
			"type":"VEC4"
		},
		{
			"bufferView":26,
			"componentType":5126,
			"count":2,
			"type":"VEC3"
		},
		{
			"bufferView":27,
			"componentType":5126,
			"count":2,
			"type":"VEC3"
		},
		{
			"bufferView":28,
			"componentType":5126,
			"count":2,
			"type":"VEC4"
		},
		{
			"bufferView":29,
			"componentType":5126,
			"count":2,
			"type":"VEC3"
		},
		{
			"bufferView":30,
			"componentType":5126,
			"count":2,
			"type":"VEC3"
		},
		{
			"bufferView":31,
			"componentType":5126,
			"count":2,
			"type":"VEC4"
		},
		{
			"bufferView":32,
			"componentType":5126,
			"count":2,
			"type":"VEC3"
		}
	],
	"bufferViews":[
		{
			"buffer":0,
			"byteLength":4608,
			"byteOffset":0,
			"target":34962
		},
		{
			"buffer":0,
			"byteLength":4608,
			"byteOffset":4608,
			"target":34962
		},
		{
			"buffer":0,
			"byteLength":3072,
			"byteOffset":9216,
			"target":34962
		},
		{
			"buffer":0,
			"byteLength":1536,
			"byteOffset":12288,
			"target":34962
		},
		{
			"buffer":0,
			"byteLength":6144,
			"byteOffset":13824,
			"target":34962
		},
		{
			"buffer":0,
			"byteLength":1152,
			"byteOffset":19968,
			"target":34963
		},
		{
			"buffer":0,
			"byteLength":256,
			"byteOffset":21120
		},
		{
			"buffer":0,
			"byteLength":260,
			"byteOffset":21376
		},
		{
			"buffer":0,
			"byteLength":780,
			"byteOffset":21636
		},
		{
			"buffer":0,
			"byteLength":1040,
			"byteOffset":22416
		},
		{
			"buffer":0,
			"byteLength":780,
			"byteOffset":23456
		},
		{
			"buffer":0,
			"byteLength":780,
			"byteOffset":24236
		},
		{
			"buffer":0,
			"byteLength":1040,
			"byteOffset":25016
		},
		{
			"buffer":0,
			"byteLength":780,
			"byteOffset":26056
		},
		{
			"buffer":0,
			"byteLength":780,
			"byteOffset":26836
		},
		{
			"buffer":0,
			"byteLength":1040,
			"byteOffset":27616
		},
		{
			"buffer":0,
			"byteLength":780,
			"byteOffset":28656
		},
		{
			"buffer":0,
			"byteLength":8,
			"byteOffset":29436
		},
		{
			"buffer":0,
			"byteLength":24,
			"byteOffset":29444
		},
		{
			"buffer":0,
			"byteLength":32,
			"byteOffset":29468
		},
		{
			"buffer":0,
			"byteLength":24,
			"byteOffset":29500
		},
		{
			"buffer":0,
			"byteLength":24,
			"byteOffset":29524
		},
		{
			"buffer":0,
			"byteLength":32,
			"byteOffset":29548
		},
		{
			"buffer":0,
			"byteLength":24,
			"byteOffset":29580
		},
		{
			"buffer":0,
			"byteLength":24,
			"byteOffset":29604
		},
		{
			"buffer":0,
			"byteLength":32,
			"byteOffset":29628
		},
		{
			"buffer":0,
			"byteLength":24,
			"byteOffset":29660
		},
		{
			"buffer":0,
			"byteLength":24,
			"byteOffset":29684
		},
		{
			"buffer":0,
			"byteLength":32,
			"byteOffset":29708
		},
		{
			"buffer":0,
			"byteLength":24,
			"byteOffset":29740
		},
		{
			"buffer":0,
			"byteLength":24,
			"byteOffset":29764
		},
		{
			"buffer":0,
			"byteLength":32,
			"byteOffset":29788
		},
		{
			"buffer":0,
			"byteLength":24,
			"byteOffset":29820
		}
	],
	"samplers":[
		{
			"magFilter":9729,
			"minFilter":9987
		}
	],
	"buffers":[
		{
			"byteLength":29844,
			"uri":"Effect12.bin"
		}
	]
}
