# Blender 4.2.2 LTS
# www.blender.org
mtllib TornadoRing1.mtl
o 円
v 1.022628 0.000000 0.045701
v 0.980334 0.000000 -0.145717
v 0.901509 0.000000 -0.325205
v 0.789182 0.000000 -0.485866
v 0.647670 0.000000 -0.621527
v 0.482411 0.000000 -0.726973
v 0.299756 0.000000 -0.798153
v 0.106724 0.000000 -0.832330
v -0.089267 0.000000 -0.828193
v -0.280684 0.000000 -0.785899
v -0.460173 0.000000 -0.707073
v -0.620834 0.000000 -0.594747
v -0.756494 0.000000 -0.453234
v -0.861941 0.000000 -0.287975
v -0.933120 0.000000 -0.105320
v -0.967298 0.000000 0.087712
v -0.963160 0.000000 0.283702
v -0.920866 0.000000 0.475120
v -0.842041 0.000000 0.654608
v -0.729714 0.000000 0.815269
v -0.588202 0.000000 0.950930
v -0.422943 0.000000 1.056376
v -0.240288 0.000000 1.127556
v -0.047256 0.000000 1.161733
v 0.148735 0.000000 1.157596
v 0.340152 0.000000 1.115302
v 0.519641 0.000000 1.036476
v 0.680302 0.000000 0.924150
v 0.815962 0.000000 0.782638
v 0.921409 0.000000 0.617378
v 0.992588 0.000000 0.434723
v 1.026766 0.000000 0.241691
v 1.301685 0.000000 0.012255
v 1.247504 0.000000 -0.232961
v 1.146524 0.000000 -0.462895
v 1.002628 0.000000 -0.668711
v 0.821343 0.000000 -0.842499
v 0.609637 0.000000 -0.977581
v 0.375646 0.000000 -1.068766
v 0.128362 0.000000 -1.112550
v -0.122712 0.000000 -1.107249
v -0.367928 0.000000 -1.053068
v -0.597862 0.000000 -0.952089
v -0.803678 0.000000 -0.808192
v -0.977467 0.000000 -0.626907
v -1.112549 0.000000 -0.415202
v -1.203734 0.000000 -0.181211
v -1.247517 0.000000 0.066073
v -1.242217 0.000000 0.317148
v -1.188035 0.000000 0.562364
v -1.087056 0.000000 0.792298
v -0.943160 0.000000 0.998114
v -0.761875 0.000000 1.171902
v -0.550169 0.000000 1.306984
v -0.316178 0.000000 1.398169
v -0.068894 0.000000 1.441953
v 0.182180 0.000000 1.436652
v 0.427396 0.000000 1.382471
v 0.657330 0.000000 1.281492
v 0.863146 0.000000 1.137595
v 1.036935 0.000000 0.956311
v 1.172017 0.000000 0.744605
v 1.263202 0.000000 0.510614
v 1.306985 0.000000 0.263330
vn -0.0000 1.0000 -0.0000
vt 0.000000 0.000000
s 0
f 14/1/1 45/1/1 46/1/1
f 28/1/1 59/1/1 60/1/1
f 14/1/1 47/1/1 15/1/1
f 1/1/1 34/1/1 2/1/1
f 28/1/1 61/1/1 29/1/1
f 16/1/1 47/1/1 48/1/1
f 2/1/1 35/1/1 3/1/1
f 30/1/1 61/1/1 62/1/1
f 17/1/1 48/1/1 49/1/1
f 4/1/1 35/1/1 36/1/1
f 30/1/1 63/1/1 31/1/1
f 17/1/1 50/1/1 18/1/1
f 4/1/1 37/1/1 5/1/1
f 32/1/1 63/1/1 64/1/1
f 18/1/1 51/1/1 19/1/1
f 6/1/1 37/1/1 38/1/1
f 1/1/1 64/1/1 33/1/1
f 20/1/1 51/1/1 52/1/1
f 6/1/1 39/1/1 7/1/1
f 20/1/1 53/1/1 21/1/1
f 8/1/1 39/1/1 40/1/1
f 22/1/1 53/1/1 54/1/1
f 9/1/1 40/1/1 41/1/1
f 22/1/1 55/1/1 23/1/1
f 9/1/1 42/1/1 10/1/1
f 24/1/1 55/1/1 56/1/1
f 10/1/1 43/1/1 11/1/1
f 25/1/1 56/1/1 57/1/1
f 12/1/1 43/1/1 44/1/1
f 25/1/1 58/1/1 26/1/1
f 12/1/1 45/1/1 13/1/1
f 26/1/1 59/1/1 27/1/1
f 14/1/1 13/1/1 45/1/1
f 28/1/1 27/1/1 59/1/1
f 14/1/1 46/1/1 47/1/1
f 1/1/1 33/1/1 34/1/1
f 28/1/1 60/1/1 61/1/1
f 16/1/1 15/1/1 47/1/1
f 2/1/1 34/1/1 35/1/1
f 30/1/1 29/1/1 61/1/1
f 17/1/1 16/1/1 48/1/1
f 4/1/1 3/1/1 35/1/1
f 30/1/1 62/1/1 63/1/1
f 17/1/1 49/1/1 50/1/1
f 4/1/1 36/1/1 37/1/1
f 32/1/1 31/1/1 63/1/1
f 18/1/1 50/1/1 51/1/1
f 6/1/1 5/1/1 37/1/1
f 1/1/1 32/1/1 64/1/1
f 20/1/1 19/1/1 51/1/1
f 6/1/1 38/1/1 39/1/1
f 20/1/1 52/1/1 53/1/1
f 8/1/1 7/1/1 39/1/1
f 22/1/1 21/1/1 53/1/1
f 9/1/1 8/1/1 40/1/1
f 22/1/1 54/1/1 55/1/1
f 9/1/1 41/1/1 42/1/1
f 24/1/1 23/1/1 55/1/1
f 10/1/1 42/1/1 43/1/1
f 25/1/1 24/1/1 56/1/1
f 12/1/1 11/1/1 43/1/1
f 25/1/1 57/1/1 58/1/1
f 12/1/1 44/1/1 45/1/1
f 26/1/1 58/1/1 59/1/1
