# Blender 4.1.1
# www.blender.org
mtllib bossMainBody.mtl
o Cube
v -0.837265 -3.925298 1.405870
v -0.837266 -3.925298 0.030438
v -0.837265 -2.250767 1.405870
v -0.837265 -2.250767 0.030438
v 0.837265 -3.925298 1.405870
v 0.837265 -3.925298 0.030438
v 0.837265 -2.250767 1.405870
v 0.837265 -2.250767 0.030438
v 1.020740 -3.088033 -0.120266
v -0.000000 -4.108773 -0.120266
v -1.020740 -4.108773 0.718154
v 1.020740 -2.067292 0.718154
v -1.020740 -2.067293 0.718154
v 1.020740 -4.108773 0.718154
v 0.000000 -2.067292 1.556574
v -1.020740 -3.088033 1.556574
v 0.000000 -2.067293 -0.120266
v 1.020740 -3.088033 1.556574
v -0.000000 -4.108773 1.556574
v -1.020740 -3.088033 -0.120266
v 0.000000 -3.088033 1.872838
v -0.000000 -1.682254 0.718154
v 1.405779 -3.088033 0.718154
v 0.000000 -3.088033 -0.260158
v -1.405779 -3.088033 0.718154
v -0.000000 -4.493812 0.718154
v -1.086970 -3.320189 -0.050274
v -1.086970 -3.320189 0.717000
v -1.086970 -4.087463 -0.050274
v -1.086970 -4.087463 0.717000
v -1.425708 -3.320189 -0.050274
v -1.425708 -3.320189 0.717000
v -1.425708 -4.087463 -0.050274
v -1.425708 -4.087463 0.717000
v -1.062265 -3.931438 -0.106234
v -1.049855 -3.703826 -0.134343
v -1.062265 -3.476214 -0.106234
v -1.062265 -3.264230 0.105751
v -1.049855 -3.236120 0.333363
v -1.062265 -3.264230 0.560975
v -1.062265 -3.476214 0.772959
v -1.049855 -3.703826 0.801069
v -1.062265 -3.931438 0.772959
v -1.062265 -4.143423 0.560975
v -1.049855 -4.171532 0.333363
v -1.062265 -4.143423 0.105751
v -1.356826 -4.143423 -0.106234
v -1.256339 -4.171532 -0.134343
v -1.155852 -4.143423 -0.106234
v -1.155852 -4.143423 0.772959
v -1.256339 -4.171532 0.801069
v -1.356826 -4.143423 0.772959
v -1.450413 -4.143423 0.560975
v -1.462823 -4.171532 0.333363
v -1.450413 -4.143423 0.105751
v -1.450413 -3.476214 -0.106234
v -1.462823 -3.703826 -0.134343
v -1.450413 -3.931438 -0.106234
v -1.450413 -3.931438 0.772959
v -1.462823 -3.703826 0.801069
v -1.450413 -3.476214 0.772959
v -1.450413 -3.264230 0.560975
v -1.462823 -3.236120 0.333363
v -1.450413 -3.264230 0.105751
v -1.155852 -3.264230 -0.106234
v -1.256339 -3.236120 -0.134343
v -1.356826 -3.264230 -0.106234
v -1.356826 -3.264230 0.772959
v -1.256339 -3.236120 0.801069
v -1.155852 -3.264230 0.772959
v -1.009403 -3.461247 0.090784
v -0.991504 -3.448216 0.333363
v -1.009403 -3.461247 0.575942
v -0.991504 -3.703826 0.077753
v -0.971967 -3.703826 0.333363
v -0.991504 -3.703826 0.588973
v -1.009403 -3.946405 0.090784
v -0.991504 -3.959436 0.333363
v -1.009403 -3.946405 0.575942
v -1.149245 -4.263161 0.090784
v -1.143492 -4.303703 0.333363
v -1.149245 -4.263161 0.575942
v -1.256339 -4.303703 0.077753
v -1.256339 -4.347958 0.333363
v -1.256339 -4.303703 0.588973
v -1.363433 -4.263161 0.090784
v -1.369186 -4.303703 0.333363
v -1.363433 -4.263161 0.575942
v -1.503276 -3.946405 0.090784
v -1.521174 -3.959436 0.333363
v -1.503276 -3.946405 0.575942
v -1.521174 -3.703826 0.077753
v -1.540712 -3.703826 0.333363
v -1.521174 -3.703826 0.588973
v -1.503276 -3.461247 0.090784
v -1.521174 -3.448216 0.333363
v -1.503276 -3.461247 0.575942
v -1.363433 -3.144491 0.090784
v -1.369186 -3.103949 0.333363
v -1.363433 -3.144491 0.575942
v -1.256339 -3.103949 0.077753
v -1.256339 -3.059695 0.333363
v -1.256339 -3.103949 0.588973
v -1.149245 -3.144491 0.090784
v -1.143492 -3.103949 0.333363
v -1.149245 -3.144491 0.575942
v -1.149245 -3.946405 -0.225972
v -1.256339 -3.959436 -0.266514
v -1.363433 -3.946405 -0.225972
v -1.143492 -3.703826 -0.266514
v -1.256339 -3.703826 -0.310769
v -1.369186 -3.703826 -0.266514
v -1.149245 -3.461247 -0.225972
v -1.256339 -3.448216 -0.266514
v -1.363433 -3.461247 -0.225972
v -1.363433 -3.946405 0.892698
v -1.256339 -3.959436 0.933240
v -1.149245 -3.946405 0.892698
v -1.369186 -3.703826 0.933240
v -1.256339 -3.703826 0.977494
v -1.143492 -3.703826 0.933240
v -1.363433 -3.461247 0.892698
v -1.256339 -3.448216 0.933240
v -1.149245 -3.461247 0.892698
v 1.408697 -3.320189 -0.050274
v 1.408697 -3.320189 0.717000
v 1.408697 -4.087463 -0.050274
v 1.408697 -4.087463 0.717000
v 1.069959 -3.320189 -0.050274
v 1.069959 -3.320189 0.717000
v 1.069959 -4.087463 -0.050274
v 1.069959 -4.087463 0.717000
v 1.433402 -3.931438 -0.106234
v 1.445812 -3.703826 -0.134343
v 1.433402 -3.476214 -0.106234
v 1.433402 -3.264230 0.105751
v 1.445812 -3.236120 0.333363
v 1.433402 -3.264230 0.560975
v 1.433402 -3.476214 0.772959
v 1.445812 -3.703826 0.801069
v 1.433402 -3.931438 0.772959
v 1.433402 -4.143423 0.560975
v 1.445812 -4.171532 0.333363
v 1.433402 -4.143423 0.105751
v 1.138842 -4.143423 -0.106234
v 1.239328 -4.171532 -0.134343
v 1.339815 -4.143423 -0.106234
v 1.339815 -4.143423 0.772959
v 1.239328 -4.171532 0.801069
v 1.138842 -4.143423 0.772959
v 1.045254 -4.143423 0.560975
v 1.032845 -4.171532 0.333363
v 1.045254 -4.143423 0.105751
v 1.045254 -3.476214 -0.106234
v 1.032845 -3.703826 -0.134343
v 1.045254 -3.931438 -0.106234
v 1.045254 -3.931438 0.772959
v 1.032845 -3.703826 0.801069
v 1.045254 -3.476214 0.772959
v 1.045254 -3.264230 0.560975
v 1.032845 -3.236120 0.333363
v 1.045254 -3.264230 0.105751
v 1.339815 -3.264230 -0.106234
v 1.239328 -3.236120 -0.134343
v 1.138842 -3.264230 -0.106234
v 1.138842 -3.264230 0.772959
v 1.239328 -3.236120 0.801069
v 1.339815 -3.264230 0.772959
v 1.486265 -3.461247 0.090784
v 1.504163 -3.448216 0.333363
v 1.486265 -3.461247 0.575942
v 1.504163 -3.703826 0.077753
v 1.523701 -3.703826 0.333363
v 1.504163 -3.703826 0.588973
v 1.486265 -3.946405 0.090784
v 1.504163 -3.959436 0.333363
v 1.486265 -3.946405 0.575942
v 1.346423 -4.263161 0.090784
v 1.352175 -4.303703 0.333363
v 1.346423 -4.263161 0.575942
v 1.239328 -4.303703 0.077753
v 1.239328 -4.347958 0.333363
v 1.239328 -4.303703 0.588973
v 1.132234 -4.263161 0.090784
v 1.126481 -4.303703 0.333363
v 1.132234 -4.263161 0.575942
v 0.992392 -3.946405 0.090784
v 0.974493 -3.959436 0.333363
v 0.992392 -3.946405 0.575942
v 0.974493 -3.703826 0.077753
v 0.954956 -3.703826 0.333363
v 0.974493 -3.703826 0.588973
v 0.992392 -3.461247 0.090784
v 0.974493 -3.448216 0.333363
v 0.992392 -3.461247 0.575942
v 1.132234 -3.144491 0.090784
v 1.126481 -3.103949 0.333363
v 1.132234 -3.144491 0.575942
v 1.239328 -3.103949 0.077753
v 1.239328 -3.059695 0.333363
v 1.239328 -3.103949 0.588973
v 1.346423 -3.144491 0.090784
v 1.352175 -3.103949 0.333363
v 1.346423 -3.144491 0.575942
v 1.346423 -3.946405 -0.225972
v 1.239328 -3.959436 -0.266514
v 1.132234 -3.946405 -0.225972
v 1.352175 -3.703826 -0.266514
v 1.239328 -3.703826 -0.310769
v 1.126481 -3.703826 -0.266514
v 1.346423 -3.461247 -0.225972
v 1.239328 -3.448216 -0.266514
v 1.132234 -3.461247 -0.225972
v 1.132234 -3.946405 0.892698
v 1.239328 -3.959436 0.933240
v 1.346423 -3.946405 0.892698
v 1.126481 -3.703826 0.933240
v 1.239328 -3.703826 0.977494
v 1.352175 -3.703826 0.933240
v 1.132234 -3.461247 0.892698
v 1.239328 -3.448216 0.933240
v 1.346423 -3.461247 0.892698
vn -0.2594 -0.2594 0.9303
vn 0.2594 -0.2594 0.9303
vn 0.2594 0.2594 0.9303
vn -0.2594 0.2594 0.9303
vn -0.2994 0.8818 -0.3645
vn -0.2994 0.8818 0.3645
vn 0.2994 0.8818 0.3645
vn 0.2994 0.8818 -0.3645
vn 0.8818 0.2994 -0.3645
vn 0.8818 0.2994 0.3645
vn 0.8818 -0.2994 0.3645
vn 0.8818 -0.2994 -0.3645
vn 0.1685 -0.1685 -0.9712
vn -0.1685 -0.1685 -0.9712
vn -0.1685 0.1685 -0.9712
vn 0.1685 0.1685 -0.9712
vn -0.8818 -0.2994 -0.3645
vn -0.8818 -0.2994 0.3645
vn -0.8818 0.2994 0.3645
vn -0.8818 0.2994 -0.3645
vn 0.2994 -0.8818 -0.3645
vn 0.2994 -0.8818 0.3645
vn -0.2994 -0.8818 0.3645
vn -0.2994 -0.8818 -0.3645
vn 0.9941 0.0767 -0.0767
vn 0.9941 0.0767 0.0767
vn 0.9941 -0.0767 -0.0767
vn 0.9941 -0.0767 0.0767
vn 0.9320 0.2563 -0.2563
vn 0.9607 0.2643 -0.0850
vn 0.9607 0.2643 0.0850
vn 0.9320 0.2563 0.2563
vn 0.9607 0.0850 0.2643
vn 0.9607 -0.0850 0.2643
vn 0.9320 -0.2563 0.2563
vn 0.9607 -0.2643 0.0850
vn 0.9607 -0.2643 -0.0850
vn 0.9320 -0.2563 -0.2563
vn 0.9607 -0.0850 -0.2643
vn 0.9607 0.0850 -0.2643
vn 0.3633 -0.9177 -0.1604
vn 0.3633 -0.9177 0.1604
vn -0.3633 -0.9177 -0.1604
vn -0.3633 -0.9177 0.1604
vn 0.7675 -0.5441 -0.3389
vn 0.8105 -0.5743 -0.1152
vn 0.8105 -0.5743 0.1152
vn 0.7675 -0.5441 0.3389
vn 0.3597 -0.7919 0.4934
vn -0.3597 -0.7919 0.4934
vn -0.7675 -0.5441 0.3389
vn -0.8105 -0.5743 0.1152
vn -0.8105 -0.5743 -0.1152
vn -0.7675 -0.5441 -0.3389
vn -0.3597 -0.7919 -0.4934
vn 0.3597 -0.7919 -0.4934
vn -0.9941 -0.0767 -0.0767
vn -0.9941 -0.0767 0.0767
vn -0.9941 0.0767 -0.0767
vn -0.9941 0.0767 0.0767
vn -0.9320 -0.2563 -0.2563
vn -0.9607 -0.2643 -0.0850
vn -0.9607 -0.2643 0.0850
vn -0.9320 -0.2563 0.2563
vn -0.9607 -0.0850 0.2643
vn -0.9607 0.0850 0.2643
vn -0.9320 0.2563 0.2563
vn -0.9607 0.2643 0.0850
vn -0.9607 0.2643 -0.0850
vn -0.9320 0.2563 -0.2563
vn -0.9607 0.0850 -0.2643
vn -0.9607 -0.0850 -0.2643
vn -0.3633 0.9177 -0.1604
vn -0.3633 0.9177 0.1604
vn 0.3633 0.9177 -0.1604
vn 0.3633 0.9177 0.1604
vn -0.7675 0.5441 -0.3389
vn -0.8105 0.5743 -0.1152
vn -0.8105 0.5743 0.1152
vn -0.7675 0.5441 0.3389
vn -0.3597 0.7919 0.4934
vn 0.3597 0.7919 0.4934
vn 0.7675 0.5441 0.3389
vn 0.8105 0.5743 0.1152
vn 0.8105 0.5743 -0.1152
vn 0.7675 0.5441 -0.3389
vn 0.3597 0.7919 -0.4934
vn -0.3597 0.7919 -0.4934
vn 0.3633 -0.1604 -0.9177
vn -0.3633 -0.1604 -0.9177
vn 0.3633 0.1604 -0.9177
vn -0.3633 0.1604 -0.9177
vn 0.7675 -0.3389 -0.5441
vn 0.3597 -0.4934 -0.7919
vn -0.3597 -0.4934 -0.7919
vn -0.7675 -0.3389 -0.5441
vn -0.8105 -0.1152 -0.5743
vn -0.8105 0.1152 -0.5743
vn -0.7675 0.3389 -0.5441
vn -0.3597 0.4934 -0.7919
vn 0.3597 0.4934 -0.7919
vn 0.7675 0.3389 -0.5441
vn 0.8105 0.1152 -0.5743
vn 0.8105 -0.1152 -0.5743
vn -0.3633 -0.1604 0.9177
vn 0.3633 -0.1604 0.9177
vn -0.3633 0.1604 0.9177
vn 0.3633 0.1604 0.9177
vn -0.7675 -0.3389 0.5441
vn -0.3597 -0.4934 0.7919
vn 0.3597 -0.4934 0.7919
vn 0.7675 -0.3389 0.5441
vn 0.8105 -0.1152 0.5743
vn 0.8105 0.1152 0.5743
vn 0.7675 0.3389 0.5441
vn 0.3597 0.4934 0.7919
vn -0.3597 0.4934 0.7919
vn -0.7675 0.3389 0.5441
vn -0.8105 0.1152 0.5743
vn -0.8105 -0.1152 0.5743
vt 0.625000 0.500000
vt 0.750000 0.500000
vt 0.750000 0.625000
vt 0.625000 0.625000
vt 0.875000 0.500000
vt 0.875000 0.625000
vt 0.875000 0.750000
vt 0.750000 0.750000
vt 0.625000 0.750000
vt 0.375000 0.750000
vt 0.500000 0.750000
vt 0.500000 0.875000
vt 0.375000 0.875000
vt 0.625000 0.875000
vt 0.625000 1.000000
vt 0.500000 1.000000
vt 0.375000 1.000000
vt 0.375000 0.000000
vt 0.500000 0.000000
vt 0.500000 0.125000
vt 0.375000 0.125000
vt 0.625000 0.000000
vt 0.625000 0.125000
vt 0.625000 0.250000
vt 0.500000 0.250000
vt 0.375000 0.250000
vt 0.125000 0.500000
vt 0.250000 0.500000
vt 0.250000 0.625000
vt 0.125000 0.625000
vt 0.375000 0.500000
vt 0.375000 0.625000
vt 0.250000 0.750000
vt 0.125000 0.750000
vt 0.500000 0.500000
vt 0.500000 0.625000
vt 0.500000 0.375000
vt 0.375000 0.375000
vt 0.625000 0.375000
vt 0.000000 0.000000
s 0
usemtl Material
f 1/1/1 19/2/1 21/3/1 16/4/1
f 19/2/2 5/5/2 18/6/2 21/3/2
f 21/3/3 18/6/3 7/7/3 15/8/3
f 16/4/4 21/3/4 15/8/4 3/9/4
f 4/10/5 13/11/5 22/12/5 17/13/5
f 13/11/6 3/9/6 15/14/6 22/12/6
f 22/12/7 15/14/7 7/15/7 12/16/7
f 17/13/8 22/12/8 12/16/8 8/17/8
f 8/18/9 12/19/9 23/20/9 9/21/9
f 12/19/10 7/22/10 18/23/10 23/20/10
f 23/20/11 18/23/11 5/24/11 14/25/11
f 9/21/12 23/20/12 14/25/12 6/26/12
f 6/27/13 10/28/13 24/29/13 9/30/13
f 10/28/14 2/31/14 20/32/14 24/29/14
f 24/29/15 20/32/15 4/10/15 17/33/15
f 9/30/16 24/29/16 17/33/16 8/34/16
f 2/31/17 11/35/17 25/36/17 20/32/17
f 11/35/18 1/1/18 16/4/18 25/36/18
f 25/36/19 16/4/19 3/9/19 13/11/19
f 20/32/20 25/36/20 13/11/20 4/10/20
f 6/26/21 14/25/21 26/37/21 10/38/21
f 14/25/22 5/24/22 19/39/22 26/37/22
f 26/37/23 19/39/23 1/1/23 11/35/23
f 10/38/24 26/37/24 11/35/24 2/31/24
f 71/40/25 72/40/25 75/40/25 74/40/25
f 72/40/26 73/40/26 76/40/26 75/40/26
f 74/40/27 75/40/27 78/40/27 77/40/27
f 75/40/28 76/40/28 79/40/28 78/40/28
f 27/40/29 38/40/29 71/40/29 37/40/29
f 38/40/30 39/40/30 72/40/30 71/40/30
f 39/40/31 40/40/31 73/40/31 72/40/31
f 40/40/32 28/40/32 41/40/32 73/40/32
f 73/40/33 41/40/33 42/40/33 76/40/33
f 76/40/34 42/40/34 43/40/34 79/40/34
f 79/40/35 43/40/35 30/40/35 44/40/35
f 78/40/36 79/40/36 44/40/36 45/40/36
f 77/40/37 78/40/37 45/40/37 46/40/37
f 35/40/38 77/40/38 46/40/38 29/40/38
f 36/40/39 74/40/39 77/40/39 35/40/39
f 37/40/40 71/40/40 74/40/40 36/40/40
f 80/40/41 81/40/41 84/40/41 83/40/41
f 81/40/42 82/40/42 85/40/42 84/40/42
f 83/40/43 84/40/43 87/40/43 86/40/43
f 84/40/44 85/40/44 88/40/44 87/40/44
f 29/40/45 46/40/45 80/40/45 49/40/45
f 46/40/46 45/40/46 81/40/46 80/40/46
f 45/40/47 44/40/47 82/40/47 81/40/47
f 44/40/48 30/40/48 50/40/48 82/40/48
f 82/40/49 50/40/49 51/40/49 85/40/49
f 85/40/50 51/40/50 52/40/50 88/40/50
f 88/40/51 52/40/51 34/40/51 53/40/51
f 87/40/52 88/40/52 53/40/52 54/40/52
f 86/40/53 87/40/53 54/40/53 55/40/53
f 47/40/54 86/40/54 55/40/54 33/40/54
f 48/40/55 83/40/55 86/40/55 47/40/55
f 49/40/56 80/40/56 83/40/56 48/40/56
f 89/40/57 90/40/57 93/40/57 92/40/57
f 90/40/58 91/40/58 94/40/58 93/40/58
f 92/40/59 93/40/59 96/40/59 95/40/59
f 93/40/60 94/40/60 97/40/60 96/40/60
f 33/40/61 55/40/61 89/40/61 58/40/61
f 55/40/62 54/40/62 90/40/62 89/40/62
f 54/40/63 53/40/63 91/40/63 90/40/63
f 53/40/64 34/40/64 59/40/64 91/40/64
f 91/40/65 59/40/65 60/40/65 94/40/65
f 94/40/66 60/40/66 61/40/66 97/40/66
f 97/40/67 61/40/67 32/40/67 62/40/67
f 96/40/68 97/40/68 62/40/68 63/40/68
f 95/40/69 96/40/69 63/40/69 64/40/69
f 56/40/70 95/40/70 64/40/70 31/40/70
f 57/40/71 92/40/71 95/40/71 56/40/71
f 58/40/72 89/40/72 92/40/72 57/40/72
f 98/40/73 99/40/73 102/40/73 101/40/73
f 99/40/74 100/40/74 103/40/74 102/40/74
f 101/40/75 102/40/75 105/40/75 104/40/75
f 102/40/76 103/40/76 106/40/76 105/40/76
f 31/40/77 64/40/77 98/40/77 67/40/77
f 64/40/78 63/40/78 99/40/78 98/40/78
f 63/40/79 62/40/79 100/40/79 99/40/79
f 62/40/80 32/40/80 68/40/80 100/40/80
f 100/40/81 68/40/81 69/40/81 103/40/81
f 103/40/82 69/40/82 70/40/82 106/40/82
f 106/40/83 70/40/83 28/40/83 40/40/83
f 105/40/84 106/40/84 40/40/84 39/40/84
f 104/40/85 105/40/85 39/40/85 38/40/85
f 65/40/86 104/40/86 38/40/86 27/40/86
f 66/40/87 101/40/87 104/40/87 65/40/87
f 67/40/88 98/40/88 101/40/88 66/40/88
f 107/40/89 108/40/89 111/40/89 110/40/89
f 108/40/90 109/40/90 112/40/90 111/40/90
f 110/40/91 111/40/91 114/40/91 113/40/91
f 111/40/92 112/40/92 115/40/92 114/40/92
f 29/40/93 49/40/93 107/40/93 35/40/93
f 49/40/94 48/40/94 108/40/94 107/40/94
f 48/40/95 47/40/95 109/40/95 108/40/95
f 47/40/96 33/40/96 58/40/96 109/40/96
f 109/40/97 58/40/97 57/40/97 112/40/97
f 112/40/98 57/40/98 56/40/98 115/40/98
f 115/40/99 56/40/99 31/40/99 67/40/99
f 114/40/100 115/40/100 67/40/100 66/40/100
f 113/40/101 114/40/101 66/40/101 65/40/101
f 37/40/102 113/40/102 65/40/102 27/40/102
f 36/40/103 110/40/103 113/40/103 37/40/103
f 35/40/104 107/40/104 110/40/104 36/40/104
f 116/40/105 117/40/105 120/40/105 119/40/105
f 117/40/106 118/40/106 121/40/106 120/40/106
f 119/40/107 120/40/107 123/40/107 122/40/107
f 120/40/108 121/40/108 124/40/108 123/40/108
f 34/40/109 52/40/109 116/40/109 59/40/109
f 52/40/110 51/40/110 117/40/110 116/40/110
f 51/40/111 50/40/111 118/40/111 117/40/111
f 50/40/112 30/40/112 43/40/112 118/40/112
f 118/40/113 43/40/113 42/40/113 121/40/113
f 121/40/114 42/40/114 41/40/114 124/40/114
f 124/40/115 41/40/115 28/40/115 70/40/115
f 123/40/116 124/40/116 70/40/116 69/40/116
f 122/40/117 123/40/117 69/40/117 68/40/117
f 61/40/118 122/40/118 68/40/118 32/40/118
f 60/40/119 119/40/119 122/40/119 61/40/119
f 59/40/120 116/40/120 119/40/120 60/40/120
f 169/40/25 170/40/25 173/40/25 172/40/25
f 170/40/26 171/40/26 174/40/26 173/40/26
f 172/40/27 173/40/27 176/40/27 175/40/27
f 173/40/28 174/40/28 177/40/28 176/40/28
f 125/40/29 136/40/29 169/40/29 135/40/29
f 136/40/30 137/40/30 170/40/30 169/40/30
f 137/40/31 138/40/31 171/40/31 170/40/31
f 138/40/32 126/40/32 139/40/32 171/40/32
f 171/40/33 139/40/33 140/40/33 174/40/33
f 174/40/34 140/40/34 141/40/34 177/40/34
f 177/40/35 141/40/35 128/40/35 142/40/35
f 176/40/36 177/40/36 142/40/36 143/40/36
f 175/40/37 176/40/37 143/40/37 144/40/37
f 133/40/38 175/40/38 144/40/38 127/40/38
f 134/40/39 172/40/39 175/40/39 133/40/39
f 135/40/40 169/40/40 172/40/40 134/40/40
f 178/40/41 179/40/41 182/40/41 181/40/41
f 179/40/42 180/40/42 183/40/42 182/40/42
f 181/40/43 182/40/43 185/40/43 184/40/43
f 182/40/44 183/40/44 186/40/44 185/40/44
f 127/40/45 144/40/45 178/40/45 147/40/45
f 144/40/46 143/40/46 179/40/46 178/40/46
f 143/40/47 142/40/47 180/40/47 179/40/47
f 142/40/48 128/40/48 148/40/48 180/40/48
f 180/40/49 148/40/49 149/40/49 183/40/49
f 183/40/50 149/40/50 150/40/50 186/40/50
f 186/40/51 150/40/51 132/40/51 151/40/51
f 185/40/52 186/40/52 151/40/52 152/40/52
f 184/40/53 185/40/53 152/40/53 153/40/53
f 145/40/54 184/40/54 153/40/54 131/40/54
f 146/40/55 181/40/55 184/40/55 145/40/55
f 147/40/56 178/40/56 181/40/56 146/40/56
f 187/40/57 188/40/57 191/40/57 190/40/57
f 188/40/58 189/40/58 192/40/58 191/40/58
f 190/40/59 191/40/59 194/40/59 193/40/59
f 191/40/60 192/40/60 195/40/60 194/40/60
f 131/40/61 153/40/61 187/40/61 156/40/61
f 153/40/62 152/40/62 188/40/62 187/40/62
f 152/40/63 151/40/63 189/40/63 188/40/63
f 151/40/64 132/40/64 157/40/64 189/40/64
f 189/40/65 157/40/65 158/40/65 192/40/65
f 192/40/66 158/40/66 159/40/66 195/40/66
f 195/40/67 159/40/67 130/40/67 160/40/67
f 194/40/68 195/40/68 160/40/68 161/40/68
f 193/40/69 194/40/69 161/40/69 162/40/69
f 154/40/70 193/40/70 162/40/70 129/40/70
f 155/40/71 190/40/71 193/40/71 154/40/71
f 156/40/72 187/40/72 190/40/72 155/40/72
f 196/40/73 197/40/73 200/40/73 199/40/73
f 197/40/74 198/40/74 201/40/74 200/40/74
f 199/40/75 200/40/75 203/40/75 202/40/75
f 200/40/76 201/40/76 204/40/76 203/40/76
f 129/40/77 162/40/77 196/40/77 165/40/77
f 162/40/78 161/40/78 197/40/78 196/40/78
f 161/40/79 160/40/79 198/40/79 197/40/79
f 160/40/80 130/40/80 166/40/80 198/40/80
f 198/40/81 166/40/81 167/40/81 201/40/81
f 201/40/82 167/40/82 168/40/82 204/40/82
f 204/40/83 168/40/83 126/40/83 138/40/83
f 203/40/84 204/40/84 138/40/84 137/40/84
f 202/40/85 203/40/85 137/40/85 136/40/85
f 163/40/86 202/40/86 136/40/86 125/40/86
f 164/40/87 199/40/87 202/40/87 163/40/87
f 165/40/88 196/40/88 199/40/88 164/40/88
f 205/40/89 206/40/89 209/40/89 208/40/89
f 206/40/90 207/40/90 210/40/90 209/40/90
f 208/40/91 209/40/91 212/40/91 211/40/91
f 209/40/92 210/40/92 213/40/92 212/40/92
f 127/40/93 147/40/93 205/40/93 133/40/93
f 147/40/94 146/40/94 206/40/94 205/40/94
f 146/40/95 145/40/95 207/40/95 206/40/95
f 145/40/96 131/40/96 156/40/96 207/40/96
f 207/40/97 156/40/97 155/40/97 210/40/97
f 210/40/98 155/40/98 154/40/98 213/40/98
f 213/40/99 154/40/99 129/40/99 165/40/99
f 212/40/100 213/40/100 165/40/100 164/40/100
f 211/40/101 212/40/101 164/40/101 163/40/101
f 135/40/102 211/40/102 163/40/102 125/40/102
f 134/40/103 208/40/103 211/40/103 135/40/103
f 133/40/104 205/40/104 208/40/104 134/40/104
f 214/40/105 215/40/105 218/40/105 217/40/105
f 215/40/106 216/40/106 219/40/106 218/40/106
f 217/40/107 218/40/107 221/40/107 220/40/107
f 218/40/108 219/40/108 222/40/108 221/40/108
f 132/40/109 150/40/109 214/40/109 157/40/109
f 150/40/110 149/40/110 215/40/110 214/40/110
f 149/40/111 148/40/111 216/40/111 215/40/111
f 148/40/112 128/40/112 141/40/112 216/40/112
f 216/40/113 141/40/113 140/40/113 219/40/113
f 219/40/114 140/40/114 139/40/114 222/40/114
f 222/40/115 139/40/115 126/40/115 168/40/115
f 221/40/116 222/40/116 168/40/116 167/40/116
f 220/40/117 221/40/117 167/40/117 166/40/117
f 159/40/118 220/40/118 166/40/118 130/40/118
f 158/40/119 217/40/119 220/40/119 159/40/119
f 157/40/120 214/40/120 217/40/120 158/40/120
