# Blender 4.5.4 LTS
# www.blender.org
mtllib Wolf.mtl
o Cube
v 0.388802 0.767021 -1.341600
v 0.388802 -0.556258 0.973224
v 0.388802 -0.547700 -1.341600
v -0.388802 0.767021 -1.341600
v 0.282045 -0.556258 -1.341600
v 0.388802 -0.556258 -0.973224
v -0.388802 -0.010584 0.484750
v 0.388802 0.767021 0.484750
v -0.388802 0.767021 0.484750
v 0.388802 -0.010584 0.484750
v -0.388802 0.767021 -0.442829
v 0.388802 -0.010584 -0.442829
v -0.388802 -0.010584 -0.442829
v 0.388802 0.767021 -0.442829
v 0.282045 -0.010584 -1.341600
v 0.388802 0.096173 -1.341600
v 0.388802 -0.010584 -0.973224
v 0.388802 0.096173 1.341600
v 0.282045 -0.010584 1.341600
v 0.388802 -0.010584 0.973224
v -0.388802 -0.010584 -0.973224
v -0.388802 0.096173 -1.341600
v -0.282045 -0.010584 -1.341600
v -0.282045 -0.010584 1.341600
v -0.388802 0.096173 1.341600
v -0.388802 -0.010584 0.973224
v 0.388802 -0.547700 1.341600
v 0.282045 -0.556258 1.341600
v -0.282045 -0.556258 -1.341600
v -0.388802 -0.556258 -0.973224
v -0.388802 -0.547700 -1.341600
v -0.388802 -0.556258 0.973224
v -0.282045 -0.556258 1.341600
v -0.388802 -0.547700 1.341600
v 0.150193 0.727401 1.159787
v 0.150193 0.599608 1.298573
v -0.150193 0.599608 1.298573
v -0.150193 0.727401 1.159787
v 0.388802 0.559988 1.341600
v 0.388802 0.767021 1.116759
v -0.388802 0.767021 1.116759
v -0.388802 0.559988 1.341600
v 0.462326 0.568698 1.437912
v 0.462326 1.146306 1.377712
v -0.462326 1.146306 1.377712
v -0.462326 0.568698 1.437912
v 0.462326 0.648512 2.203721
v 0.462326 1.226120 2.143521
v -0.462326 1.226120 2.143521
v -0.462326 0.648512 2.203721
v 0.271640 0.954443 2.407457
v 0.271640 1.129531 2.372086
v -0.271640 1.129531 2.372086
v -0.271640 0.954443 2.407457
vn -0.0000 -0.0000 -1.0000
vn -1.0000 -0.0000 -0.0000
vn 0.0799 -0.9965 -0.0232
vn -0.0799 -0.9965 -0.0232
vn 0.0799 -0.9965 0.0232
vn 1.0000 -0.0000 -0.0000
vn -0.0000 -1.0000 -0.0000
vn -0.0799 -0.9965 0.0232
vn -0.0000 1.0000 -0.0000
vn -0.0000 -0.0000 1.0000
vn -0.9605 -0.0000 0.2784
vn -0.9605 -0.0000 -0.2784
vn 0.9605 -0.0000 -0.2784
vn 0.9605 -0.0000 0.2784
vn -0.6403 -0.0796 -0.7640
vn -0.0000 0.7356 0.6774
vn -0.0000 0.9946 -0.1037
vn 0.2237 -0.7170 -0.6602
vn -0.0000 -0.9763 -0.2166
vn -0.0000 0.4615 -0.8871
vn -0.7321 0.1349 0.6677
vn -0.0000 -0.9946 0.1037
vn -0.0000 0.1980 0.9802
vn 0.7757 0.0654 0.6277
vn -0.0000 -0.5543 0.8323
vn -0.0000 0.9211 0.3893
vn -0.2237 -0.7170 -0.6602
vn 0.6403 -0.0796 -0.7640
vn -0.7757 0.0654 0.6277
vn 0.7321 0.1349 0.6677
vt 0.375000 0.284323
vt 0.409323 0.250000
vt 0.375000 0.034322
vt 0.409323 0.000000
vt 0.366314 0.474364
vt 0.409323 0.500000
vt 0.375000 0.534323
vt 0.125000 0.534323
vt 0.409323 0.250000
vt 0.169913 0.489410
vt 0.409322 0.750000
vt 0.367054 0.776377
vt 0.375000 0.715677
vt 0.625000 0.583741
vt 0.375000 0.670165
vt 0.375000 0.583741
vt 0.125000 0.670165
vt 0.125000 0.583741
vt 0.159322 0.750000
vt 0.409323 1.000000
vt 0.137881 0.680572
vt 0.875000 0.583741
vt 0.625000 0.670165
vt 0.875000 0.500000
vt 0.625000 0.500000
vt 0.625000 0.079835
vt 0.375000 0.166259
vt 0.375000 0.079835
vt 0.375000 0.215678
vt 0.375000 0.965677
vt 0.625000 0.166259
vt 0.620991 0.986021
vt 0.608060 0.986353
vt 0.604051 1.000000
vt 0.875000 0.670165
vt 0.625000 0.732810
vt 0.604051 0.750000
vt 0.625000 0.020949
vt 0.620991 0.750079
vt 0.625000 1.000000
vt 0.608060 0.760357
vt 0.625000 0.250000
vt 0.875000 0.729051
vt 0.604051 0.000000
s 0
usemtl Material
f 23/1/1 31/2/1 22/2/1
f 26/3/2 34/4/2 25/4/2
f 5/5/3 3/6/3 6/7/3
f 30/8/4 31/9/4 29/10/4
f 27/11/5 28/12/5 2/13/5
f 14/14/6 10/15/6 12/16/6
f 12/16/7 7/17/7 13/18/7
f 33/19/8 34/20/8 32/21/8
f 11/22/9 8/23/9 14/14/9
f 4/24/9 14/14/9 1/25/9
f 15/5/1 3/6/1 5/5/1
f 19/12/10 27/11/10 18/11/10
f 9/26/2 13/27/2 7/28/2
f 21/29/2 31/2/2 30/29/2
f 15/5/11 6/7/11 17/7/11
f 24/30/10 34/20/10 33/30/10
f 20/13/6 27/11/6 2/13/6
f 23/10/7 17/7/7 13/18/7
f 22/2/1 1/25/1 15/5/1
f 16/6/6 14/14/6 12/16/6
f 10/15/7 19/12/7 26/21/7
f 11/31/2 22/2/2 21/29/2
f 20/13/12 28/12/12 19/12/12
f 17/7/6 3/6/6 16/6/6
f 24/19/13 32/21/13 26/21/13
f 21/8/14 29/10/14 23/10/14
f 38/32/15 46/33/15 45/32/15
f 18/11/10 42/34/10 24/30/10
f 9/35/9 40/36/9 8/23/9
f 8/23/6 39/37/6 20/13/6
f 25/4/2 41/38/2 7/28/2
f 35/39/16 39/37/16 40/36/16
f 35/39/16 41/40/16 38/32/16
f 38/32/16 42/34/16 37/33/16
f 37/33/16 39/37/16 36/41/16
f 45/32/17 48/39/17 44/39/17
f 35/39/18 43/41/18 36/41/18
f 36/41/19 46/33/19 37/33/19
f 38/32/20 44/39/20 35/39/20
f 49/32/21 54/33/21 53/32/21
f 45/32/2 50/33/2 49/32/2
f 44/39/6 47/41/6 43/41/6
f 43/41/22 50/33/22 46/33/22
f 53/32/23 51/41/23 52/39/23
f 48/39/24 51/41/24 47/41/24
f 47/41/25 54/33/25 50/33/25
f 49/32/26 52/39/26 48/39/26
f 23/1/1 29/1/1 31/2/1
f 26/3/2 32/3/2 34/4/2
f 14/14/6 8/23/6 10/15/6
f 12/16/7 10/15/7 7/17/7
f 11/22/9 9/35/9 8/23/9
f 4/24/9 11/22/9 14/14/9
f 15/5/1 16/6/1 3/6/1
f 19/12/10 28/12/10 27/11/10
f 9/26/2 11/31/2 13/27/2
f 21/29/2 22/2/2 31/2/2
f 15/5/11 5/5/11 6/7/11
f 24/30/10 25/20/10 34/20/10
f 20/13/6 18/11/6 27/11/6
f 13/18/7 21/8/7 23/10/7
f 23/10/7 15/5/7 17/7/7
f 17/7/7 12/16/7 13/18/7
f 15/5/1 23/1/1 22/2/1
f 22/2/1 4/42/1 1/25/1
f 1/25/1 16/6/1 15/5/1
f 12/16/6 17/7/6 16/6/6
f 16/6/6 1/25/6 14/14/6
f 26/21/7 7/17/7 10/15/7
f 10/15/7 20/13/7 19/12/7
f 19/12/7 24/19/7 26/21/7
f 21/29/2 13/27/2 11/31/2
f 11/31/2 4/42/2 22/2/2
f 20/13/12 2/13/12 28/12/12
f 17/7/6 6/7/6 3/6/6
f 24/19/13 33/19/13 32/21/13
f 21/8/14 30/8/14 29/10/14
f 38/32/27 37/33/27 46/33/27
f 24/30/10 19/12/10 18/11/10
f 18/11/10 39/37/10 42/34/10
f 42/34/10 25/20/10 24/30/10
f 9/35/9 41/43/9 40/36/9
f 20/13/6 10/15/6 8/23/6
f 8/23/6 40/36/6 39/37/6
f 39/37/6 18/11/6 20/13/6
f 7/28/2 26/3/2 25/4/2
f 25/4/2 42/44/2 41/38/2
f 41/38/2 9/26/2 7/28/2
f 35/39/16 36/41/16 39/37/16
f 35/39/16 40/36/16 41/40/16
f 38/32/16 41/40/16 42/34/16
f 37/33/16 42/34/16 39/37/16
f 45/32/17 49/32/17 48/39/17
f 35/39/28 44/39/28 43/41/28
f 36/41/19 43/41/19 46/33/19
f 38/32/20 45/32/20 44/39/20
f 49/32/29 50/33/29 54/33/29
f 45/32/2 46/33/2 50/33/2
f 44/39/6 48/39/6 47/41/6
f 43/41/22 47/41/22 50/33/22
f 53/32/23 54/33/23 51/41/23
f 48/39/30 52/39/30 51/41/30
f 47/41/25 51/41/25 54/33/25
f 49/32/26 53/32/26 52/39/26
o 立方体
v 0.185230 0.948592 -1.580682
v 0.185230 0.569708 -1.580682
v 0.185230 0.948592 -1.201798
v 0.185230 0.569708 -1.201798
v -0.193654 0.948592 -1.580682
v -0.193654 0.569708 -1.580682
v -0.193654 0.948592 -1.201798
v -0.193654 0.569708 -1.201798
vn 1.0000 -0.0000 -0.0000
vn -0.0000 -0.0000 1.0000
vn -1.0000 -0.0000 -0.0000
vn -0.0000 -0.0000 -1.0000
vn -0.0000 1.0000 -0.0000
vn -0.0000 -1.0000 -0.0000
vt 0.625000 0.000000
vt 0.375000 0.250000
vt 0.375000 0.000000
vt 0.625000 0.250000
vt 0.375000 0.500000
vt 0.625000 0.500000
vt 0.375000 0.750000
vt 0.625000 0.750000
vt 0.375000 1.000000
vt 0.125000 0.750000
vt 0.125000 0.500000
vt 0.875000 0.500000
vt 0.625000 1.000000
vt 0.875000 0.750000
s 0
f 56/45/31 55/47/31 57/46/31
f 58/48/32 57/46/32 61/49/32
f 62/50/33 61/49/33 59/51/33
f 60/52/34 59/51/34 55/53/34
f 61/49/35 57/55/35 55/54/35
f 58/56/36 62/50/36 60/52/36
f 56/45/31 57/46/31 58/48/31
f 58/48/32 61/49/32 62/50/32
f 62/50/33 59/51/33 60/52/33
f 60/52/34 55/53/34 56/57/34
f 61/49/35 55/54/35 59/51/35
f 58/56/36 60/52/36 56/58/36
o ICO球
v -0.187181 1.035923 2.201238
v -0.055172 1.136768 2.297147
v -0.237603 1.136768 2.356423
v -0.350353 1.136769 2.201238
v -0.237603 1.136768 2.046052
v -0.055172 1.136768 2.105329
v -0.136759 1.299942 2.356423
v -0.319190 1.299942 2.297147
v -0.319190 1.299942 2.105329
v -0.136759 1.299942 2.046052
v -0.024009 1.299942 2.201238
v -0.187181 1.400787 2.201238
v -0.216818 1.063169 2.292453
v -0.109589 1.063169 2.257611
v -0.139225 1.122444 2.348827
v -0.031996 1.122444 2.201238
v -0.109589 1.063169 2.144864
v -0.283091 1.063169 2.201238
v -0.312729 1.122444 2.292453
v -0.216818 1.063169 2.110023
v -0.312729 1.122444 2.110022
v -0.139225 1.122444 2.053648
v -0.013678 1.218355 2.257612
v -0.013678 1.218355 2.144864
v -0.187181 1.218355 2.383670
v -0.079950 1.218355 2.348828
v -0.360684 1.218355 2.257612
v -0.294412 1.218355 2.348828
v -0.294412 1.218355 2.053647
v -0.360684 1.218355 2.144864
v -0.079950 1.218355 2.053647
v -0.187181 1.218355 2.018806
v -0.061633 1.314266 2.292453
v -0.235137 1.314266 2.348827
v -0.342366 1.314266 2.201238
v -0.235137 1.314266 2.053648
v -0.061633 1.314266 2.110022
v -0.157544 1.373542 2.292453
v -0.091271 1.373541 2.201238
v -0.264773 1.373542 2.257611
v -0.264773 1.373542 2.144864
v -0.157544 1.373542 2.110023
vn -0.0000 -1.0000 -0.0000
vn 0.7236 -0.4472 0.5257
vn -0.2764 -0.4472 0.8506
vn -0.8944 -0.4472 -0.0000
vn -0.2764 -0.4472 -0.8506
vn 0.7236 -0.4472 -0.5257
vn 0.2764 0.4472 0.8506
vn -0.7236 0.4472 0.5257
vn -0.7236 0.4472 -0.5257
vn 0.2764 0.4472 -0.8506
vn 0.8944 0.4472 -0.0000
vn -0.0000 1.0000 -0.0000
vn -0.1625 -0.8507 0.5000
vn 0.4253 -0.8507 0.3090
vn 0.2629 -0.5257 0.8090
vn 0.8506 -0.5257 -0.0000
vn 0.4253 -0.8507 -0.3090
vn -0.5257 -0.8507 -0.0000
vn -0.6882 -0.5257 0.5000
vn -0.1625 -0.8507 -0.5000
vn -0.6882 -0.5257 -0.5000
vn 0.2629 -0.5257 -0.8090
vn 0.9511 -0.0000 0.3090
vn 0.9511 -0.0000 -0.3090
vn -0.0000 -0.0000 1.0000
vn 0.5878 -0.0000 0.8090
vn -0.9511 -0.0000 0.3090
vn -0.5878 -0.0000 0.8090
vn -0.5878 -0.0000 -0.8090
vn -0.9511 -0.0000 -0.3090
vn 0.5878 -0.0000 -0.8090
vn -0.0000 -0.0000 -1.0000
vn 0.6882 0.5257 0.5000
vn -0.2629 0.5257 0.8090
vn -0.8506 0.5257 -0.0000
vn -0.2629 0.5257 -0.8090
vn 0.6882 0.5257 -0.5000
vn 0.1625 0.8507 0.5000
vn 0.5257 0.8507 -0.0000
vn -0.4253 0.8507 0.3090
vn -0.4253 0.8507 -0.3090
vn 0.1625 0.8507 -0.5000
vt 0.181819 0.000000
vt 0.227273 0.078731
vt 0.136365 0.078731
vt 0.272728 0.157461
vt 0.318182 0.078731
vt 0.363637 0.157461
vt 0.909091 0.000000
vt 0.954545 0.078731
vt 0.863636 0.078731
vt 0.727273 0.000000
vt 0.772727 0.078731
vt 0.681818 0.078731
vt 0.545455 0.000000
vt 0.590909 0.078731
vt 0.500000 0.078731
vt 0.318182 0.236191
vt 0.090910 0.157461
vt 0.181819 0.157461
vt 0.136365 0.236191
vt 0.818182 0.157461
vt 0.909091 0.157461
vt 0.863636 0.236191
vt 0.636364 0.157461
vt 0.727273 0.157461
vt 0.681818 0.236191
vt 0.454546 0.157461
vt 0.545455 0.157461
vt 0.500000 0.236191
vt 0.227273 0.236191
vt 0.045455 0.236191
vt 0.772727 0.236191
vt 0.590909 0.236191
vt 0.409092 0.236191
vt 0.181819 0.314921
vt 0.272728 0.314921
vt 0.227273 0.393651
vt 0.000000 0.314921
vt 0.090910 0.314921
vt 0.045455 0.393651
vt 0.727273 0.314921
vt 0.818182 0.314921
vt 0.772727 0.393651
vt 0.545455 0.314921
vt 0.636364 0.314921
vt 0.590909 0.393651
vt 0.363637 0.314921
vt 0.454546 0.314921
vt 0.409092 0.393651
vt 0.500000 0.393651
vt 0.454546 0.472382
vt 0.681818 0.393651
vt 0.636364 0.472382
vt 0.863636 0.393651
vt 0.818182 0.472382
vt 0.909091 0.314921
vt 0.136365 0.393651
vt 0.090910 0.472382
vt 0.318182 0.393651
vt 0.272728 0.472382
vt 0.954545 0.236191
vt 1.000000 0.157461
vt 0.409092 0.078731
vt 0.363637 0.000000
s 1
f 63/59/37 76/60/50 75/61/49
f 64/62/38 76/63/50 78/64/52
f 63/65/37 75/66/49 80/67/54
f 63/68/37 80/69/54 82/70/56
f 63/71/37 82/72/56 79/73/53
f 64/62/38 78/64/52 85/74/59
f 65/75/39 77/76/51 87/77/61
f 66/78/40 81/79/55 89/80/63
f 67/81/41 83/82/57 91/83/65
f 68/84/42 84/85/58 93/86/67
f 64/62/38 85/74/59 88/87/62
f 65/75/39 87/77/61 90/88/64
f 66/78/40 89/80/63 92/89/66
f 67/81/41 91/83/65 94/90/68
f 68/84/42 93/86/67 86/91/60
f 69/92/43 95/93/69 100/94/74
f 70/95/44 96/96/70 102/97/76
f 71/98/45 97/99/71 103/100/77
f 72/101/46 98/102/72 104/103/78
f 73/104/47 99/105/73 101/106/75
f 101/106/75 104/107/78 74/108/48
f 101/106/75 99/105/73 104/107/78
f 99/105/73 72/101/46 104/107/78
f 104/103/78 103/109/77 74/110/48
f 104/103/78 98/102/72 103/109/77
f 98/102/72 71/98/45 103/109/77
f 103/100/77 102/111/76 74/112/48
f 103/100/77 97/99/71 102/111/76
f 97/99/71 70/113/44 102/111/76
f 102/97/76 100/114/74 74/115/48
f 102/97/76 96/96/70 100/114/74
f 96/96/70 69/92/43 100/114/74
f 100/94/74 101/116/75 74/117/48
f 100/94/74 95/93/69 101/116/75
f 95/93/69 73/104/47 101/116/75
f 86/91/60 99/105/73 73/104/47
f 86/91/60 93/86/67 99/105/73
f 93/86/67 72/101/46 99/105/73
f 94/90/68 98/102/72 72/101/46
f 94/90/68 91/83/65 98/102/72
f 91/83/65 71/98/45 98/102/72
f 92/89/66 97/99/71 71/98/45
f 92/89/66 89/80/63 97/99/71
f 89/80/63 70/113/44 97/99/71
f 90/88/64 96/96/70 70/95/44
f 90/88/64 87/77/61 96/96/70
f 87/77/61 69/92/43 96/96/70
f 88/87/62 95/93/69 69/92/43
f 88/87/62 85/74/59 95/93/69
f 85/74/59 73/104/47 95/93/69
f 93/86/67 94/90/68 72/101/46
f 93/86/67 84/85/58 94/90/68
f 84/85/58 67/81/41 94/90/68
f 91/83/65 92/89/66 71/98/45
f 91/83/65 83/82/57 92/89/66
f 83/82/57 66/78/40 92/89/66
f 89/80/63 90/118/64 70/113/44
f 89/80/63 81/79/55 90/118/64
f 81/79/55 65/119/39 90/118/64
f 87/77/61 88/87/62 69/92/43
f 87/77/61 77/76/51 88/87/62
f 77/76/51 64/62/38 88/87/62
f 85/74/59 86/91/60 73/104/47
f 85/74/59 78/64/52 86/91/60
f 78/64/52 68/84/42 86/91/60
f 79/73/53 84/85/58 68/84/42
f 79/73/53 82/72/56 84/85/58
f 82/72/56 67/81/41 84/85/58
f 82/70/56 83/82/57 67/81/41
f 82/70/56 80/69/54 83/82/57
f 80/69/54 66/78/40 83/82/57
f 80/67/54 81/79/55 66/78/40
f 80/67/54 75/66/49 81/79/55
f 75/66/49 65/119/39 81/79/55
f 78/64/52 79/120/53 68/84/42
f 78/64/52 76/63/50 79/120/53
f 76/63/50 63/121/37 79/120/53
f 75/61/49 77/76/51 65/75/39
f 75/61/49 76/60/50 77/76/51
f 76/60/50 64/62/38 77/76/51
o ICO球.001
v 0.151117 1.103396 2.201238
v 0.234302 1.166943 2.261675
v 0.119343 1.166943 2.299027
v 0.048294 1.166944 2.201238
v 0.119343 1.166943 2.103448
v 0.234302 1.166943 2.140801
v 0.182890 1.269767 2.299027
v 0.067931 1.269767 2.261675
v 0.067931 1.269767 2.140801
v 0.182890 1.269767 2.103448
v 0.253939 1.269767 2.201238
v 0.151117 1.333314 2.201238
v 0.132441 1.120565 2.258717
v 0.200011 1.120565 2.236761
v 0.181336 1.157917 2.294241
v 0.248906 1.157917 2.201238
v 0.200011 1.120565 2.165714
v 0.090679 1.120565 2.201238
v 0.072003 1.157917 2.258717
v 0.132441 1.120565 2.143759
v 0.072003 1.157917 2.143759
v 0.181336 1.157917 2.108234
v 0.260449 1.218355 2.236762
v 0.260449 1.218355 2.165714
v 0.151117 1.218355 2.316197
v 0.218688 1.218355 2.294241
v 0.041784 1.218355 2.236762
v 0.083545 1.218355 2.294241
v 0.083545 1.218355 2.108234
v 0.041784 1.218355 2.165714
v 0.218688 1.218355 2.108234
v 0.151117 1.218355 2.086279
v 0.230230 1.278793 2.258717
v 0.120897 1.278793 2.294241
v 0.053327 1.278793 2.201238
v 0.120897 1.278793 2.108234
v 0.230230 1.278793 2.143759
v 0.169792 1.316146 2.258717
v 0.211554 1.316145 2.201238
v 0.102222 1.316146 2.236761
v 0.102222 1.316146 2.165714
v 0.169792 1.316146 2.143759
vn -0.0000 -1.0000 -0.0000
vn 0.7236 -0.4472 0.5257
vn -0.2764 -0.4472 0.8506
vn -0.8944 -0.4472 -0.0000
vn -0.2764 -0.4472 -0.8506
vn 0.7236 -0.4472 -0.5257
vn 0.2764 0.4472 0.8506
vn -0.7236 0.4472 0.5257
vn -0.7236 0.4472 -0.5257
vn 0.2764 0.4472 -0.8506
vn 0.8944 0.4472 -0.0000
vn -0.0000 1.0000 -0.0000
vn -0.1625 -0.8507 0.5000
vn 0.4253 -0.8507 0.3090
vn 0.2629 -0.5257 0.8090
vn 0.8506 -0.5257 -0.0000
vn 0.4253 -0.8507 -0.3090
vn -0.5257 -0.8507 -0.0000
vn -0.6882 -0.5257 0.5000
vn -0.1625 -0.8507 -0.5000
vn -0.6882 -0.5257 -0.5000
vn 0.2629 -0.5257 -0.8090
vn 0.9511 -0.0000 0.3090
vn 0.9511 -0.0000 -0.3090
vn -0.0000 -0.0000 1.0000
vn 0.5878 -0.0000 0.8090
vn -0.9511 -0.0000 0.3090
vn -0.5878 -0.0000 0.8090
vn -0.5878 -0.0000 -0.8090
vn -0.9511 -0.0000 -0.3090
vn 0.5878 -0.0000 -0.8090
vn -0.0000 -0.0000 -1.0000
vn 0.6882 0.5257 0.5000
vn -0.2629 0.5257 0.8090
vn -0.8506 0.5257 -0.0000
vn -0.2629 0.5257 -0.8090
vn 0.6882 0.5257 -0.5000
vn 0.1625 0.8507 0.5000
vn 0.5257 0.8507 -0.0000
vn -0.4253 0.8507 0.3090
vn -0.4253 0.8507 -0.3090
vn 0.1625 0.8507 -0.5000
vt 0.181819 0.000000
vt 0.227273 0.078731
vt 0.136365 0.078731
vt 0.272728 0.157461
vt 0.318182 0.078731
vt 0.363637 0.157461
vt 0.909091 0.000000
vt 0.954545 0.078731
vt 0.863636 0.078731
vt 0.727273 0.000000
vt 0.772727 0.078731
vt 0.681818 0.078731
vt 0.545455 0.000000
vt 0.590909 0.078731
vt 0.500000 0.078731
vt 0.318182 0.236191
vt 0.090910 0.157461
vt 0.181819 0.157461
vt 0.136365 0.236191
vt 0.818182 0.157461
vt 0.909091 0.157461
vt 0.863636 0.236191
vt 0.636364 0.157461
vt 0.727273 0.157461
vt 0.681818 0.236191
vt 0.454546 0.157461
vt 0.545455 0.157461
vt 0.500000 0.236191
vt 0.227273 0.236191
vt 0.045455 0.236191
vt 0.772727 0.236191
vt 0.590909 0.236191
vt 0.409092 0.236191
vt 0.181819 0.314921
vt 0.272728 0.314921
vt 0.227273 0.393651
vt 0.000000 0.314921
vt 0.090910 0.314921
vt 0.045455 0.393651
vt 0.727273 0.314921
vt 0.818182 0.314921
vt 0.772727 0.393651
vt 0.545455 0.314921
vt 0.636364 0.314921
vt 0.590909 0.393651
vt 0.363637 0.314921
vt 0.454546 0.314921
vt 0.409092 0.393651
vt 0.500000 0.393651
vt 0.454546 0.472382
vt 0.681818 0.393651
vt 0.636364 0.472382
vt 0.863636 0.393651
vt 0.818182 0.472382
vt 0.909091 0.314921
vt 0.136365 0.393651
vt 0.090910 0.472382
vt 0.318182 0.393651
vt 0.272728 0.472382
vt 0.954545 0.236191
vt 1.000000 0.157461
vt 0.409092 0.078731
vt 0.363637 0.000000
s 1
f 105/122/79 118/123/92 117/124/91
f 106/125/80 118/126/92 120/127/94
f 105/128/79 117/129/91 122/130/96
f 105/131/79 122/132/96 124/133/98
f 105/134/79 124/135/98 121/136/95
f 106/125/80 120/127/94 127/137/101
f 107/138/81 119/139/93 129/140/103
f 108/141/82 123/142/97 131/143/105
f 109/144/83 125/145/99 133/146/107
f 110/147/84 126/148/100 135/149/109
f 106/125/80 127/137/101 130/150/104
f 107/138/81 129/140/103 132/151/106
f 108/141/82 131/143/105 134/152/108
f 109/144/83 133/146/107 136/153/110
f 110/147/84 135/149/109 128/154/102
f 111/155/85 137/156/111 142/157/116
f 112/158/86 138/159/112 144/160/118
f 113/161/87 139/162/113 145/163/119
f 114/164/88 140/165/114 146/166/120
f 115/167/89 141/168/115 143/169/117
f 143/169/117 146/170/120 116/171/90
f 143/169/117 141/168/115 146/170/120
f 141/168/115 114/164/88 146/170/120
f 146/166/120 145/172/119 116/173/90
f 146/166/120 140/165/114 145/172/119
f 140/165/114 113/161/87 145/172/119
f 145/163/119 144/174/118 116/175/90
f 145/163/119 139/162/113 144/174/118
f 139/162/113 112/176/86 144/174/118
f 144/160/118 142/177/116 116/178/90
f 144/160/118 138/159/112 142/177/116
f 138/159/112 111/155/85 142/177/116
f 142/157/116 143/179/117 116/180/90
f 142/157/116 137/156/111 143/179/117
f 137/156/111 115/167/89 143/179/117
f 128/154/102 141/168/115 115/167/89
f 128/154/102 135/149/109 141/168/115
f 135/149/109 114/164/88 141/168/115
f 136/153/110 140/165/114 114/164/88
f 136/153/110 133/146/107 140/165/114
f 133/146/107 113/161/87 140/165/114
f 134/152/108 139/162/113 113/161/87
f 134/152/108 131/143/105 139/162/113
f 131/143/105 112/176/86 139/162/113
f 132/151/106 138/159/112 112/158/86
f 132/151/106 129/140/103 138/159/112
f 129/140/103 111/155/85 138/159/112
f 130/150/104 137/156/111 111/155/85
f 130/150/104 127/137/101 137/156/111
f 127/137/101 115/167/89 137/156/111
f 135/149/109 136/153/110 114/164/88
f 135/149/109 126/148/100 136/153/110
f 126/148/100 109/144/83 136/153/110
f 133/146/107 134/152/108 113/161/87
f 133/146/107 125/145/99 134/152/108
f 125/145/99 108/141/82 134/152/108
f 131/143/105 132/181/106 112/176/86
f 131/143/105 123/142/97 132/181/106
f 123/142/97 107/182/81 132/181/106
f 129/140/103 130/150/104 111/155/85
f 129/140/103 119/139/93 130/150/104
f 119/139/93 106/125/80 130/150/104
f 127/137/101 128/154/102 115/167/89
f 127/137/101 120/127/94 128/154/102
f 120/127/94 110/147/84 128/154/102
f 121/136/95 126/148/100 110/147/84
f 121/136/95 124/135/98 126/148/100
f 124/135/98 109/144/83 126/148/100
f 124/133/98 125/145/99 109/144/83
f 124/133/98 122/132/96 125/145/99
f 122/132/96 108/141/82 125/145/99
f 122/130/96 123/142/97 108/141/82
f 122/130/96 117/129/91 123/142/97
f 117/129/91 107/182/81 123/142/97
f 120/127/94 121/183/95 110/147/84
f 120/127/94 118/126/92 121/183/95
f 118/126/92 105/184/79 121/183/95
f 117/124/91 119/139/93 107/138/81
f 117/124/91 118/123/92 119/139/93
f 118/123/92 106/125/80 119/139/93
o 円柱
v 0.241557 0.781101 2.339114
v -0.253886 0.781101 2.339114
v 0.241557 0.814397 2.325322
v -0.253886 0.814397 2.325322
v 0.241557 0.828189 2.292025
v -0.253886 0.828189 2.292025
v 0.241557 0.814397 2.258729
v -0.253886 0.814397 2.258729
v 0.241557 0.781101 2.244937
v -0.253886 0.781101 2.244937
v 0.241557 0.747804 2.258729
v -0.253886 0.747804 2.258729
v 0.241557 0.734012 2.292025
v -0.253886 0.734012 2.292025
v 0.241557 0.747804 2.325322
v -0.253886 0.747804 2.325322
vn -0.0000 0.3827 0.9239
vn -0.0000 0.9239 0.3827
vn -0.0000 0.9239 -0.3827
vn -0.0000 0.3827 -0.9239
vn -0.0000 -0.3827 -0.9239
vn -0.0000 -0.9239 -0.3827
vn -1.0000 -0.0000 -0.0000
vn -0.0000 -0.9239 0.3827
vn -0.0000 -0.3827 0.9239
vn 1.0000 -0.0000 -0.0000
vt 1.000000 1.000000
vt 0.875000 0.500000
vt 1.000000 0.500000
vt 0.875000 1.000000
vt 0.750000 0.500000
vt 0.750000 1.000000
vt 0.625000 0.500000
vt 0.625000 1.000000
vt 0.500000 0.500000
vt 0.500000 1.000000
vt 0.375000 0.500000
vt 0.375000 1.000000
vt 0.250000 0.500000
vt 0.010000 0.250000
vt 0.250000 0.010000
vt 0.490000 0.250000
vt 0.250000 1.000000
vt 0.125000 0.500000
vt 0.125000 1.000000
vt 0.000000 0.500000
vt 0.919706 0.080294
vt 0.580294 0.080294
vt 0.580294 0.419706
vt 0.419706 0.419706
vt 0.250000 0.490000
vt 0.080294 0.419706
vt 0.080294 0.080294
vt 0.419706 0.080294
vt 0.000000 1.000000
vt 0.750000 0.490000
vt 0.919706 0.419706
vt 0.990000 0.250000
vt 0.750000 0.010000
vt 0.510000 0.250000
s 0
f 148/185/121 147/187/121 149/186/121
f 150/188/122 149/186/122 151/189/122
f 152/190/123 151/189/123 153/191/123
f 154/192/124 153/191/124 155/193/124
f 156/194/125 155/193/125 157/195/125
f 158/196/126 157/195/126 159/197/126
f 160/198/127 152/200/127 156/199/127
f 160/201/128 159/197/128 161/202/128
f 162/203/129 161/202/129 147/204/129
f 153/205/130 161/207/130 157/206/130
f 148/185/121 149/186/121 150/188/121
f 150/188/122 151/189/122 152/190/122
f 152/190/123 153/191/123 154/192/123
f 154/192/124 155/193/124 156/194/124
f 156/194/125 157/195/125 158/196/125
f 158/196/126 159/197/126 160/201/126
f 152/200/127 148/209/127 150/208/127
f 148/209/127 160/198/127 162/210/127
f 160/198/127 156/199/127 158/211/127
f 156/199/127 152/200/127 154/212/127
f 152/200/127 160/198/127 148/209/127
f 160/201/128 161/202/128 162/203/128
f 162/203/129 147/204/129 148/213/129
f 161/207/130 149/215/130 147/214/130
f 149/215/130 153/205/130 151/216/130
f 153/205/130 157/206/130 155/217/130
f 157/206/130 161/207/130 159/218/130
f 161/207/130 153/205/130 149/215/130
