# Blender 4.1.1
# www.blender.org
mtllib tornadoAbove4.mtl
o 円.003
v -0.195970 0.000000 1.007685
v -0.028054 0.000000 0.991147
v 0.133409 0.000000 0.942167
v 0.282214 0.000000 0.862630
v 0.412643 0.000000 0.755589
v 0.519683 0.000000 0.625161
v 0.599221 0.000000 0.476356
v 0.648200 0.000000 0.314893
v 0.664738 0.000000 0.146977
v 0.648200 0.000000 -0.020939
v 0.599221 0.000000 -0.182401
v 0.519683 0.000000 -0.331206
v 0.412643 0.000000 -0.461635
v 0.282214 0.000000 -0.568675
v 0.133409 0.000000 -0.648213
v -0.028054 0.000000 -0.697192
v -0.195970 0.000000 -0.713730
v -0.363885 0.000000 -0.697192
v -0.525348 0.000000 -0.648213
v -0.674153 0.000000 -0.568675
v -0.804582 0.000000 -0.461635
v -0.911622 0.000000 -0.331206
v -0.991160 0.000000 -0.182401
v -1.040139 0.000000 -0.020939
v -1.056677 0.000000 0.146977
v -1.040139 0.000000 0.314893
v -0.991160 0.000000 0.476356
v -0.911622 0.000000 0.625161
v -0.804582 0.000000 0.755589
v -0.674153 0.000000 0.862630
v -0.525348 0.000000 0.942167
v -0.363885 0.000000 0.991147
v -0.195970 0.000000 0.867125
v -0.055476 0.000000 0.853287
v 0.079619 0.000000 0.812307
v 0.204123 0.000000 0.745758
v 0.313252 0.000000 0.656199
v 0.402811 0.000000 0.547070
v 0.469360 0.000000 0.422566
v 0.510341 0.000000 0.287471
v 0.524178 0.000000 0.146977
v 0.510341 0.000000 0.006483
v 0.469360 0.000000 -0.128611
v 0.402811 0.000000 -0.253115
v 0.313252 0.000000 -0.362244
v 0.204123 0.000000 -0.451804
v 0.079619 0.000000 -0.518353
v -0.055476 0.000000 -0.559333
v -0.195970 0.000000 -0.573170
v -0.336463 0.000000 -0.559333
v -0.471558 0.000000 -0.518353
v -0.596062 0.000000 -0.451804
v -0.705191 0.000000 -0.362244
v -0.794751 0.000000 -0.253115
v -0.861299 0.000000 -0.128611
v -0.902280 0.000000 0.006483
v -0.916117 0.000000 0.146977
v -0.902280 0.000000 0.287471
v -0.861299 0.000000 0.422566
v -0.794751 0.000000 0.547070
v -0.705191 0.000000 0.656199
v -0.596062 0.000000 0.745758
v -0.471558 0.000000 0.812307
v -0.336463 0.000000 0.853287
vn -0.0000 -1.0000 -0.0000
vt 0.000000 0.000000
s 0
f 16/1/1 49/1/1 17/1/1
f 3/1/1 36/1/1 4/1/1
f 31/1/1 62/1/1 63/1/1
f 18/1/1 49/1/1 50/1/1
f 5/1/1 36/1/1 37/1/1
f 32/1/1 63/1/1 64/1/1
f 18/1/1 51/1/1 19/1/1
f 5/1/1 38/1/1 6/1/1
f 32/1/1 33/1/1 1/1/1
f 19/1/1 52/1/1 20/1/1
f 7/1/1 38/1/1 39/1/1
f 21/1/1 52/1/1 53/1/1
f 8/1/1 39/1/1 40/1/1
f 21/1/1 54/1/1 22/1/1
f 8/1/1 41/1/1 9/1/1
f 23/1/1 54/1/1 55/1/1
f 10/1/1 41/1/1 42/1/1
f 24/1/1 55/1/1 56/1/1
f 10/1/1 43/1/1 11/1/1
f 24/1/1 57/1/1 25/1/1
f 11/1/1 44/1/1 12/1/1
f 26/1/1 57/1/1 58/1/1
f 13/1/1 44/1/1 45/1/1
f 26/1/1 59/1/1 27/1/1
f 13/1/1 46/1/1 14/1/1
f 27/1/1 60/1/1 28/1/1
f 15/1/1 46/1/1 47/1/1
f 2/1/1 33/1/1 34/1/1
f 29/1/1 60/1/1 61/1/1
f 16/1/1 47/1/1 48/1/1
f 2/1/1 35/1/1 3/1/1
f 29/1/1 62/1/1 30/1/1
f 16/1/1 48/1/1 49/1/1
f 3/1/1 35/1/1 36/1/1
f 31/1/1 30/1/1 62/1/1
f 18/1/1 17/1/1 49/1/1
f 5/1/1 4/1/1 36/1/1
f 32/1/1 31/1/1 63/1/1
f 18/1/1 50/1/1 51/1/1
f 5/1/1 37/1/1 38/1/1
f 32/1/1 64/1/1 33/1/1
f 19/1/1 51/1/1 52/1/1
f 7/1/1 6/1/1 38/1/1
f 21/1/1 20/1/1 52/1/1
f 8/1/1 7/1/1 39/1/1
f 21/1/1 53/1/1 54/1/1
f 8/1/1 40/1/1 41/1/1
f 23/1/1 22/1/1 54/1/1
f 10/1/1 9/1/1 41/1/1
f 24/1/1 23/1/1 55/1/1
f 10/1/1 42/1/1 43/1/1
f 24/1/1 56/1/1 57/1/1
f 11/1/1 43/1/1 44/1/1
f 26/1/1 25/1/1 57/1/1
f 13/1/1 12/1/1 44/1/1
f 26/1/1 58/1/1 59/1/1
f 13/1/1 45/1/1 46/1/1
f 27/1/1 59/1/1 60/1/1
f 15/1/1 14/1/1 46/1/1
f 2/1/1 1/1/1 33/1/1
f 29/1/1 28/1/1 60/1/1
f 16/1/1 15/1/1 47/1/1
f 2/1/1 34/1/1 35/1/1
f 29/1/1 61/1/1 62/1/1
