# Blender 4.1.1
# www.blender.org
mtllib bossTubeGame.mtl
o tube
v -0.079690 -1.059596 -0.405957
v -0.070829 -0.959779 -0.185897
v 0.187833 -1.057669 -0.418408
v 0.196694 -0.957852 -0.198347
v -0.046640 0.783617 0.244320
v -0.091955 -1.066646 -0.413113
v -0.097338 -1.040569 -0.359318
v -0.104456 -1.012007 -0.292733
v -0.092080 -0.981349 -0.228757
v -0.082298 -0.957874 -0.173306
v -0.037569 0.701455 0.414838
v -0.015721 -0.953238 -0.171396
v 0.064018 -0.949987 -0.166179
v 0.143002 -0.952095 -0.178783
v 0.209229 -0.955774 -0.186873
v 0.173545 0.702976 0.405013
v 0.214465 -0.979141 -0.243022
v 0.221690 -1.009657 -0.307910
v 0.209208 -1.038361 -0.373583
v 0.199573 -1.064547 -0.426679
v 0.164473 0.785137 0.234495
v 0.132848 -1.066472 -0.430943
v 0.053216 -1.071678 -0.434463
v -0.025874 -1.067615 -0.423556
v -0.074414 0.764772 0.284370
v -0.129612 -1.040392 -0.359408
v -0.081922 0.742248 0.331431
v -0.140476 -1.008922 -0.293968
v -0.069456 0.719869 0.377562
v -0.124284 -0.980368 -0.227078
v 0.011580 0.690191 0.436703
v -0.015773 -0.940423 -0.145568
v 0.069699 0.686719 0.442086
v 0.065024 -0.933274 -0.139602
v 0.126958 0.691022 0.431334
v 0.145099 -0.939265 -0.153054
v 0.201318 0.721819 0.364962
v 0.246652 -0.977697 -0.244340
v 0.208827 0.744342 0.317902
v 0.257346 -1.006057 -0.312481
v 0.196360 0.766722 0.271769
v 0.241324 -1.037720 -0.376671
v 0.115324 0.796401 0.212629
v 0.132813 -1.077666 -0.458180
v 0.057206 0.799872 0.207245
v 0.051847 -1.081706 -0.466845
v -0.000054 0.795570 0.217998
v -0.028060 -1.078825 -0.450694
v 0.123775 -0.497665 -0.569321
v 0.039207 -0.494019 -0.563871
v -0.045383 -0.498883 -0.561449
v 0.125378 -0.526630 -0.641329
v 0.036750 -0.536386 -0.629267
v -0.052868 -0.527914 -0.633035
v 0.118172 -0.560781 -0.708469
v 0.033303 -0.560524 -0.710494
v -0.050986 -0.561999 -0.700596
v -0.121746 -0.319340 -0.873901
v -0.109817 -0.270314 -0.602998
v 0.177754 -0.268243 -0.616380
v 0.165825 -0.317269 -0.887284
v -0.158983 -0.307337 -0.811412
v -0.169163 -0.293081 -0.736705
v -0.152431 -0.280411 -0.662631
v -0.043381 -0.261807 -0.568866
v 0.036117 -0.258058 -0.560197
v 0.114554 -0.260669 -0.576216
v 0.214917 -0.277766 -0.679725
v 0.225045 -0.290241 -0.755050
v 0.208366 -0.304691 -0.828508
v 0.099315 -0.323295 -0.922272
v 0.019764 -0.325264 -0.931558
v -0.058620 -0.324433 -0.914922
v -0.106353 0.289920 -0.383461
v 0.179238 0.291977 -0.396751
v 0.167496 0.331749 -0.637257
v -0.118095 0.329692 -0.623967
v -0.155440 0.320974 -0.567970
v -0.165661 0.310487 -0.501598
v -0.149007 0.299303 -0.436166
v -0.040166 0.285322 -0.353048
v 0.038606 0.284434 -0.345545
v 0.116301 0.286449 -0.360329
v 0.216546 0.301936 -0.453176
v 0.226740 0.313314 -0.519858
v 0.210112 0.323607 -0.584981
v 0.101271 0.337588 -0.668100
v 0.022473 0.339366 -0.675910
v -0.055195 0.336461 -0.660818
vn -0.9271 -0.0366 -0.3729
vn -0.7655 -0.5692 0.3001
vn -0.9999 -0.0104 -0.0069
vn -0.9347 0.0157 0.3552
vn -0.6947 -0.0762 -0.7153
vn -0.6884 -0.7225 0.0641
vn -0.4563 -0.8817 -0.1200
vn 0.5674 -0.6211 0.5407
vn 0.6031 -0.7398 0.2981
vn -0.6906 -0.4574 0.5602
vn 0.4748 -0.8754 0.0905
vn -0.4515 -0.3822 0.8063
vn -0.6953 0.0518 0.7168
vn -0.3104 0.0742 0.9477
vn 0.0474 -0.1800 0.9825
vn 0.0457 0.0833 0.9955
vn 0.3957 0.0835 0.9146
vn -0.1945 -0.2384 0.9515
vn 0.2084 -0.9743 -0.0855
vn 0.0016 -0.9933 -0.1157
vn 0.2861 -0.2335 0.9293
vn -0.2013 -0.9774 -0.0651
vn 0.5307 -0.3721 0.7615
vn 0.7576 0.0717 0.6488
vn 0.9629 0.0421 0.2667
vn 0.8018 -0.5519 0.2290
vn 0.9949 0.0171 -0.0997
vn 0.8892 -0.0126 -0.4574
vn 0.7481 -0.4417 0.4953
vn -0.4482 -0.8838 0.1346
vn -0.5573 -0.7525 0.3508
vn 0.7066 -0.7076 -0.0005
vn -0.5029 -0.6339 0.5876
vn 0.4600 -0.8725 -0.1646
vn 0.6267 -0.0597 -0.7770
vn 0.2829 -0.0853 -0.9554
vn -0.0114 -0.9185 -0.3953
vn -0.0456 -0.0929 -0.9946
vn -0.3689 -0.0932 -0.9248
vn 0.2205 -0.9131 -0.3429
vn -0.2263 -0.4626 0.8572
vn 0.0450 -0.4097 0.9111
vn -0.2365 -0.9174 -0.3202
vn 0.3105 -0.4559 0.8341
vn -0.5359 -0.8341 -0.1309
vn 0.0260 -0.9090 0.4160
vn -0.5964 -0.7195 0.3557
vn 0.5390 -0.8227 -0.1809
vn 0.0006 -0.9897 -0.1431
vn -0.4870 -0.2976 0.8211
vn 0.5672 -0.2876 0.7717
vn 0.0460 -0.3725 0.9269
vn -0.0412 -0.9362 0.3490
vn 0.6420 -0.7058 0.2995
vn -0.0382 -0.8709 0.4900
vn -0.3093 0.6303 -0.7120
vn -0.6109 0.5490 -0.5704
vn 0.2317 0.6363 -0.7359
vn 0.5448 0.5622 -0.6222
vn -0.0401 0.6538 -0.7556
vn 0.8299 0.4059 -0.3828
vn 0.9355 -0.2304 0.2679
vn 0.6461 -0.5312 0.5480
vn 0.9888 0.1319 -0.0697
vn 0.3021 -0.6595 0.6883
vn -0.5823 -0.5458 0.6025
vn -0.2271 -0.6652 0.7113
vn 0.0386 -0.6855 0.7271
vn -0.9005 -0.2552 0.3522
vn -0.8710 0.3851 -0.3050
vn -0.9942 0.1053 0.0222
vn -0.9193 0.3790 -0.1060
vn -0.9919 -0.0426 0.1197
vn -0.8321 -0.4587 0.3119
vn -0.6428 0.7017 -0.3073
vn -0.5181 -0.7441 0.4217
vn -0.2188 -0.8634 0.4547
vn 0.0274 -0.8907 0.4538
vn 0.2728 -0.8591 0.4331
vn 0.5680 -0.7334 0.3734
vn 0.9995 -0.0154 0.0273
vn 0.8678 -0.4381 0.2345
vn 0.8955 0.4026 -0.1899
vn 0.5970 0.7153 -0.3633
vn -0.0281 0.8878 -0.4593
vn 0.2517 0.8584 -0.4469
vn -0.3061 0.8532 -0.4222
vn 0.0962 -0.8698 0.4839
vn 0.0872 -0.9352 0.3432
vt 0.012374 0.658719
vt 0.016186 0.955763
vt 0.013301 0.655286
vt 0.013631 0.652118
vt 0.010654 0.661489
vt 0.016578 0.964103
vt 0.015114 0.974482
vt 0.013475 0.965406
vt 0.013486 0.957116
vt 0.014852 0.949830
vt 0.013094 0.950739
vt 0.014021 0.945462
vt 0.013896 0.649358
vt 0.012840 0.646697
vt 0.010860 0.939775
vt 0.009733 0.645575
vt 0.006635 0.646720
vt 0.013304 0.941395
vt 0.012427 0.943371
vt 0.010869 0.942068
vt 0.008429 0.941414
vt 0.009321 0.943383
vt 0.007744 0.945486
vt 0.005599 0.649390
vt 0.005885 0.652148
vt 0.005658 0.955803
vt 0.006239 0.655313
vt 0.007193 0.658739
vt 0.006946 0.949861
vt 0.008710 0.950756
vt 0.008368 0.957135
vt 0.005330 0.964146
vt 0.008442 0.965425
vt 0.006872 0.974514
vt 0.008934 0.661496
vt 0.010016 0.662486
vt 0.011086 0.998763
vt 0.009798 0.662653
vt 0.009579 0.662487
vt 0.007905 0.985046
vt 0.009803 0.982488
vt 0.011050 0.989206
vt 0.014163 0.985022
vt 0.012245 0.982478
vt 0.010492 0.957867
vt 0.010932 0.958379
vt 0.010409 0.958331
vt 0.011367 0.957864
vt 0.010930 0.957840
vt 0.010348 0.958899
vt 0.011520 0.958895
vt 0.010934 0.959010
vt 0.008724 0.946452
vt 0.011454 0.958327
vt 0.008734 0.974133
vt 0.007106 0.463036
vt 0.007415 0.459567
vt 0.010960 0.463021
vt 0.010625 0.459554
vt 0.009037 0.464059
vt 0.007777 0.453204
vt 0.002071 0.437099
vt 0.001237 0.430228
vt 0.004494 0.445208
vt 0.003582 0.425597
vt 0.016578 0.430170
vt 0.014198 0.425556
vt 0.008884 0.423995
vt 0.015796 0.437046
vt 0.010214 0.453195
vt 0.013436 0.445174
vt 0.005024 0.049080
vt 0.006310 0.055361
vt 0.007531 0.058443
vt 0.003727 0.038470
vt 0.008751 0.059605
vt 0.008833 0.060006
vt 0.007488 0.059955
vt 0.006144 0.060016
vt 0.006224 0.059614
vt 0.008632 0.055352
vt 0.007434 0.058443
vt 0.009870 0.049062
vt 0.011086 0.038442
vt 0.007263 0.001237
vt 0.010651 0.022571
vt 0.004040 0.022597
vt 0.013250 0.974116
vt 0.013048 0.946435
s 1
usemtl マテリアル.002
f 62/1/1 28/2/2 63/3/3
f 28/2/2 64/4/4 63/3/3
f 58/5/5 26/6/6 62/1/1
f 6/7/7 7/8/8 26/6/6
f 26/6/6 8/9/9 28/2/2
f 8/9/9 30/10/10 28/2/2
f 9/11/11 10/12/12 30/10/10
f 30/10/10 59/13/13 64/4/4
f 65/14/14 34/15/15 66/16/16
f 34/15/15 67/17/17 66/16/16
f 59/13/13 32/18/18 65/14/14
f 10/12/12 12/19/19 32/18/18
f 32/18/18 13/20/20 34/15/15
f 13/20/20 36/21/21 34/15/15
f 14/22/22 15/23/23 36/21/21
f 36/21/21 60/24/24 67/17/17
f 68/25/25 40/26/26 69/27/27
f 40/26/26 70/28/28 69/27/27
f 60/24/24 38/29/29 68/25/25
f 15/23/23 17/30/30 38/29/29
f 38/29/29 18/31/31 40/26/26
f 18/31/31 42/32/32 40/26/26
f 19/33/33 20/34/34 42/32/32
f 42/32/32 61/35/35 70/28/28
f 71/36/36 46/37/37 72/38/38
f 46/37/37 73/39/39 72/38/38
f 61/35/35 44/40/40 71/36/36
f 20/34/34 22/41/41 44/40/40
f 44/40/40 23/42/42 46/37/37
f 23/42/42 48/43/43 46/37/37
f 24/44/44 6/7/7 48/43/43
f 48/43/43 58/5/5 73/39/39
f 49/45/45 53/46/46 52/47/47
f 51/48/48 53/46/46 50/49/49
f 53/46/46 55/50/50 52/47/47
f 53/46/46 57/51/51 56/52/52
f 14/22/22 17/30/30 4/53/53
f 13/20/20 49/45/45 14/22/22
f 13/20/20 51/48/48 50/49/49
f 12/19/19 9/11/11 51/48/48
f 9/11/11 54/54/54 51/48/48
f 8/9/9 57/51/51 54/54/54
f 7/8/8 24/44/44 57/51/51
f 56/52/52 24/44/44 23/42/42
f 56/52/52 22/41/41 55/50/50
f 19/33/33 22/41/41 3/55/55
f 18/31/31 55/50/50 19/33/33
f 17/30/30 52/47/47 18/31/31
f 89/56/56 58/5/5 77/57/57
f 61/35/35 87/58/58 76/59/59
f 88/60/60 73/39/39 89/56/56
f 71/36/36 88/60/60 87/58/58
f 70/28/28 76/59/59 86/61/61
f 60/24/24 84/62/62 75/63/63
f 69/27/27 86/61/61 85/64/64
f 68/25/25 85/64/64 84/62/62
f 67/17/17 75/63/63 83/65/65
f 74/66/66 65/14/14 81/67/67
f 66/16/16 83/65/65 82/68/68
f 81/67/67 66/16/16 82/68/68
f 80/69/69 59/13/13 74/66/66
f 77/57/57 62/1/1 78/70/70
f 79/71/71 64/4/4 80/69/69
f 78/70/70 63/3/3 79/71/71
f 25/72/72 79/71/71 27/73/73
f 27/73/73 80/69/69 29/74/74
f 5/75/75 78/70/70 25/72/72
f 29/74/74 74/66/66 11/76/76
f 31/77/77 82/68/68 33/78/78
f 82/68/68 35/79/79 33/78/78
f 11/76/76 81/67/67 31/77/77
f 83/65/65 16/80/80 35/79/79
f 84/62/62 39/81/81 37/82/82
f 85/64/64 41/83/83 39/81/81
f 75/63/63 37/82/82 16/80/80
f 86/61/61 21/84/84 41/83/83
f 87/58/58 45/85/85 43/86/86
f 45/85/85 89/56/56 47/87/87
f 76/59/59 43/86/86 21/84/84
f 47/87/87 77/57/57 5/75/75
f 62/1/1 26/6/6 28/2/2
f 28/2/2 30/10/10 64/4/4
f 58/5/5 6/7/7 26/6/6
f 6/7/7 1/88/88 7/8/8
f 26/6/6 7/8/8 8/9/9
f 8/9/9 9/11/11 30/10/10
f 9/11/11 2/89/89 10/12/12
f 30/10/10 10/12/12 59/13/13
f 65/14/14 32/18/18 34/15/15
f 34/15/15 36/21/21 67/17/17
f 59/13/13 10/12/12 32/18/18
f 10/12/12 2/89/89 12/19/19
f 32/18/18 12/19/19 13/20/20
f 13/20/20 14/22/22 36/21/21
f 14/22/22 4/53/53 15/23/23
f 36/21/21 15/23/23 60/24/24
f 68/25/25 38/29/29 40/26/26
f 40/26/26 42/32/32 70/28/28
f 60/24/24 15/23/23 38/29/29
f 15/23/23 4/53/53 17/30/30
f 38/29/29 17/30/30 18/31/31
f 18/31/31 19/33/33 42/32/32
f 19/33/33 3/55/55 20/34/34
f 42/32/32 20/34/34 61/35/35
f 71/36/36 44/40/40 46/37/37
f 46/37/37 48/43/43 73/39/39
f 61/35/35 20/34/34 44/40/40
f 20/34/34 3/55/55 22/41/41
f 44/40/40 22/41/41 23/42/42
f 23/42/42 24/44/44 48/43/43
f 24/44/44 1/88/88 6/7/7
f 48/43/43 6/7/7 58/5/5
f 49/45/45 50/49/49 53/46/46
f 51/48/48 54/54/54 53/46/46
f 53/46/46 56/52/52 55/50/50
f 53/46/46 54/54/54 57/51/51
f 14/22/22 49/45/45 17/30/30
f 13/20/20 50/49/49 49/45/45
f 13/20/20 12/19/19 51/48/48
f 12/19/19 2/89/89 9/11/11
f 9/11/11 8/9/9 54/54/54
f 8/9/9 7/8/8 57/51/51
f 7/8/8 1/88/88 24/44/44
f 56/52/52 57/51/51 24/44/44
f 56/52/52 23/42/42 22/41/41
f 19/33/33 55/50/50 22/41/41
f 18/31/31 52/47/47 55/50/50
f 17/30/30 49/45/45 52/47/47
f 89/56/56 73/39/39 58/5/5
f 61/35/35 71/36/36 87/58/58
f 88/60/60 72/38/38 73/39/39
f 71/36/36 72/38/38 88/60/60
f 70/28/28 61/35/35 76/59/59
f 60/24/24 68/25/25 84/62/62
f 69/27/27 70/28/28 86/61/61
f 68/25/25 69/27/27 85/64/64
f 67/17/17 60/24/24 75/63/63
f 74/66/66 59/13/13 65/14/14
f 66/16/16 67/17/17 83/65/65
f 81/67/67 65/14/14 66/16/16
f 80/69/69 64/4/4 59/13/13
f 77/57/57 58/5/5 62/1/1
f 79/71/71 63/3/3 64/4/4
f 78/70/70 62/1/1 63/3/3
f 25/72/72 78/70/70 79/71/71
f 27/73/73 79/71/71 80/69/69
f 5/75/75 77/57/57 78/70/70
f 29/74/74 80/69/69 74/66/66
f 31/77/77 81/67/67 82/68/68
f 82/68/68 83/65/65 35/79/79
f 11/76/76 74/66/66 81/67/67
f 83/65/65 75/63/63 16/80/80
f 84/62/62 85/64/64 39/81/81
f 85/64/64 86/61/61 41/83/83
f 75/63/63 84/62/62 37/82/82
f 86/61/61 76/59/59 21/84/84
f 87/58/58 88/60/60 45/85/85
f 45/85/85 88/60/60 89/56/56
f 76/59/59 87/58/58 43/86/86
f 47/87/87 89/56/56 77/57/57
