# Blender 4.1.1
# www.blender.org
mtllib HeartBreak.mtl
o 立方体
v -0.500000 0.500000 0.401626
v -0.500000 0.500000 -0.397954
v -0.609568 -0.000000 0.511194
v -0.572933 0.296650 0.474559
v -0.572933 0.572933 0.198276
v -0.609568 0.609568 0.000000
v -0.572933 0.572933 -0.194604
v -0.572933 0.296650 -0.470887
v -0.609568 -0.000000 -0.507522
v -0.296650 0.572933 -0.470887
v -0.000000 0.609568 -0.507522
v -0.000000 0.609568 0.511194
v -0.296650 0.572933 0.474559
v -0.781829 -0.000000 0.234767
v -0.728990 0.316157 0.217783
v -0.839506 0.000000 0.000000
v -0.781829 0.333140 0.000000
v -0.781829 0.000000 -0.231095
v -0.728990 0.316157 -0.214112
v -0.333140 -0.000000 -0.625486
v -0.316157 0.316157 -0.572647
v -0.000000 0.333140 -0.625486
v 0.000000 0.333140 0.623630
v -0.333140 0.000000 0.623630
v -0.316157 0.316157 0.570792
v 0.000000 0.781829 -0.231095
v -0.316157 0.728990 -0.214111
v -0.000000 0.839506 0.000000
v -0.333140 0.781829 -0.000000
v -0.000000 0.781829 0.234767
v -0.316157 0.728990 0.217783
v -0.000000 0.226110 -0.644016
v -0.226110 -0.000000 -0.644016
v -0.066226 0.066226 -0.660231
v -0.226110 0.000000 0.642161
v 0.000000 0.226110 0.642161
v -0.066226 0.066226 0.658376
vn -0.9566 0.1725 0.2350
vn -0.9557 0.1725 -0.2385
vn -0.8367 0.1677 0.5214
vn -0.7501 0.4446 0.4896
vn -0.8215 0.5175 0.2397
vn -0.8205 0.5172 -0.2435
vn -0.7501 0.4446 -0.4896
vn -0.8367 0.1677 -0.5214
vn 1.0000 -0.0000 -0.0000
vn -0.3874 0.1600 -0.9079
vn -0.3610 0.4269 -0.8291
vn -0.1724 0.3742 -0.9112
vn -0.1726 0.3571 0.9180
vn -0.3459 0.4242 0.8369
vn -0.3720 0.1589 0.9145
vn -0.1725 0.9557 -0.2385
vn -0.1725 0.9566 0.2350
vn -0.1677 0.8367 -0.5214
vn -0.4446 0.7501 -0.4896
vn -0.5172 0.8205 -0.2435
vn -0.5175 0.8215 0.2397
vn -0.4446 0.7501 0.4896
vn -0.1677 0.8367 0.5214
vn -0.1705 0.1705 -0.9705
vn -0.1682 0.1682 0.9713
vn 0.9239 -0.3827 -0.0000
vn 0.3827 -0.9239 -0.0000
vn -0.0000 -1.0000 -0.0000
vn -0.9554 0.1654 0.2447
vn -0.9544 0.1652 -0.2486
vn -0.8367 0.1678 0.5213
vn -0.7501 0.4896 0.4446
vn -0.8225 0.5125 0.2467
vn -0.8215 0.5119 -0.2510
vn -0.7501 0.4896 -0.4446
vn -0.8367 0.1678 -0.5213
vn -0.3742 0.1724 -0.9112
vn -0.4269 0.3610 -0.8291
vn -0.1600 0.3874 -0.9079
vn -0.1589 0.3720 0.9145
vn -0.4242 0.3459 0.8369
vn -0.3571 0.1726 0.9180
vn -0.1652 0.9544 -0.2486
vn -0.1654 0.9554 0.2447
vn -0.1678 0.8367 -0.5213
vn -0.4896 0.7501 -0.4446
vn -0.5119 0.8215 -0.2510
vn -0.5125 0.8225 0.2467
vn -0.4896 0.7501 0.4446
vn -0.1678 0.8367 0.5213
vn -0.1681 0.1713 -0.9708
vn -0.1713 0.1681 -0.9708
vn -0.1682 0.1682 -0.9713
vn -0.1714 0.1714 0.9702
vt 0.562500 0.062500
vt 0.500000 0.125000
vt 0.500000 0.062500
vt 0.562500 0.187500
vt 0.500000 0.187500
vt 0.562500 0.000000
vt 0.500000 0.000000
vt 0.625000 0.000000
vt 0.625000 0.062500
vt 0.562500 0.125000
vt 0.625000 0.187500
vt 0.625000 0.250000
vt 0.562500 0.250000
vt 0.500000 0.250000
vt 0.562500 0.375000
vt 0.750000 0.687500
vt 0.562500 0.875000
vt 0.500000 0.312500
vt 0.562500 0.312500
vt 0.625000 0.312500
vt 0.625000 0.937500
vt 0.562500 0.937500
vt 0.625000 1.000000
vt 0.562500 1.000000
vt 0.500000 0.937500
vt 0.500000 1.000000
vt 0.812500 0.562500
vt 0.750000 0.625000
vt 0.750000 0.562500
vt 0.812500 0.687500
vt 0.812500 0.500000
vt 0.750000 0.500000
vt 0.875000 0.500000
vt 0.875000 0.562500
vt 0.812500 0.625000
vt 0.875000 0.687500
vt 0.875000 0.750000
vt 0.812500 0.750000
vt 0.750000 0.750000
vt 0.542420 0.375000
vt 0.500000 0.332580
vt 0.504198 0.874645
vt 0.542420 0.875000
vt 0.504198 0.375355
vt 0.625000 0.125000
vt 0.625000 0.875000
vt 0.625000 0.375000
vt 0.875000 0.625000
vt 0.500000 0.917420
vt 0.542420 0.875000
vt 0.500000 0.917420
s 0
usemtl マテリアル
f 15/1/1 16/2/1 14/3/1
f 16/2/2 19/4/2 18/5/2
f 4/6/3 14/3/3 3/7/3
f 1/8/4 15/1/4 4/6/4
f 5/9/5 17/10/5 15/1/5
f 17/10/6 7/11/6 19/4/6
f 19/4/7 2/12/7 8/13/7
f 18/5/8 8/13/8 9/14/8
f 22/15/9 30/16/9 23/17/9
f 8/13/10 20/18/10 9/14/10
f 2/12/11 21/19/11 8/13/11
f 10/20/12 22/15/12 21/19/12
f 23/17/13 13/21/13 25/22/13
f 25/22/14 1/23/14 4/24/14
f 24/25/15 4/24/15 3/26/15
f 27/27/16 28/28/16 26/29/16
f 28/28/17 31/30/17 30/16/17
f 10/31/18 26/29/18 11/32/18
f 2/33/19 27/27/19 10/31/19
f 7/34/20 29/35/20 27/27/20
f 29/35/21 5/36/21 31/30/21
f 31/30/22 1/37/22 13/38/22
f 30/16/23 13/38/23 12/39/23
f 21/19/24 32/40/24 33/41/24
f 37/42/25 23/17/25 24/25/25
f 36/43/26 34/44/26 32/40/26
f 37/42/27 33/41/27 34/44/27
f 16/2/28 33/41/28 24/25/28
f 15/1/29 17/10/29 16/2/29
f 16/2/30 17/10/30 19/4/30
f 4/6/31 15/1/31 14/3/31
f 1/8/32 5/9/32 15/1/32
f 5/9/33 6/45/33 17/10/33
f 17/10/34 6/45/34 7/11/34
f 19/4/35 7/11/35 2/12/35
f 18/5/36 19/4/36 8/13/36
f 36/43/9 32/40/9 22/15/9
f 22/15/9 11/32/9 26/29/9
f 26/29/9 28/28/9 30/16/9
f 30/16/9 12/46/9 23/17/9
f 23/17/9 36/43/9 22/15/9
f 22/15/9 26/29/9 30/16/9
f 8/13/37 21/19/37 20/18/37
f 2/12/38 10/20/38 21/19/38
f 10/20/39 11/47/39 22/15/39
f 23/17/40 12/46/40 13/21/40
f 25/22/41 13/21/41 1/23/41
f 24/25/42 25/22/42 4/24/42
f 27/27/43 29/35/43 28/28/43
f 28/28/44 29/35/44 31/30/44
f 10/31/45 27/27/45 26/29/45
f 2/33/46 7/34/46 27/27/46
f 7/34/47 6/48/47 29/35/47
f 29/35/48 6/48/48 5/36/48
f 31/30/49 5/36/49 1/37/49
f 30/16/50 31/30/50 13/38/50
f 33/41/51 20/18/51 21/19/51
f 21/19/52 22/15/52 32/40/52
f 32/40/53 34/44/53 33/41/53
f 24/25/25 35/49/25 37/42/25
f 37/42/25 36/50/25 23/17/25
f 23/17/54 25/22/54 24/25/54
f 36/43/26 37/42/26 34/44/26
f 37/42/27 35/51/27 33/41/27
f 3/7/28 14/3/28 16/2/28
f 16/2/28 18/5/28 9/14/28
f 9/14/28 20/18/28 33/41/28
f 33/41/28 35/51/28 24/25/28
f 24/25/28 3/7/28 16/2/28
f 16/2/28 9/14/28 33/41/28
