# Blender 4.1.1
# www.blender.org
mtllib tornade1.mtl
o 立方体.009
v 0.512699 0.469146 -0.492456
v 0.541490 0.541945 -0.523946
v 0.507347 0.612393 -0.492456
v 0.507347 0.612393 0.492456
v 0.541490 0.541945 0.523945
v 0.512699 0.469146 0.492456
v -0.476879 0.575624 0.492456
v -0.505670 0.502825 0.523946
v -0.471527 0.432378 0.492456
v -0.476879 0.575624 -0.492456
v -0.505670 0.502825 -0.523946
v -0.471527 0.432378 -0.492456
v 0.646918 0.469444 -0.271748
v 0.689451 0.547472 -0.286346
v 0.641215 0.622110 -0.271748
v 0.692456 0.467039 0.000000
v 0.738993 0.549323 -0.000000
v 0.686447 0.627906 -0.000000
v 0.646918 0.469444 0.271748
v 0.689451 0.547472 0.286346
v 0.641214 0.622110 0.271748
v 0.292320 0.456197 0.626593
v 0.304056 0.533075 0.672010
v 0.286617 0.608863 0.626593
v 0.020915 0.441952 0.672010
v 0.017910 0.522385 0.721586
v 0.014905 0.602819 0.672010
v -0.250797 0.435907 0.626593
v -0.268237 0.511695 0.672010
v -0.256501 0.588573 0.626593
v -0.605395 0.422660 0.271748
v -0.653632 0.497298 0.286346
v -0.611098 0.575326 0.271748
v -0.650627 0.416864 -0.000000
v -0.703173 0.495447 -0.000000
v -0.656636 0.577731 0.000000
v -0.605395 0.422660 -0.271748
v -0.653632 0.497298 -0.286346
v -0.611098 0.575326 -0.271748
v -0.250797 0.435907 -0.626593
v -0.268237 0.511695 -0.672010
v -0.256501 0.588573 -0.626593
v 0.020915 0.441952 -0.672010
v 0.017910 0.522385 -0.721586
v 0.014905 0.602819 -0.672010
v 0.292320 0.456197 -0.626593
v 0.304056 0.533075 -0.672010
v 0.286617 0.608863 -0.626593
v 0.544105 0.442171 -0.355051
v 0.468803 0.432016 -0.447205
v 0.593362 0.442203 -0.264931
v 0.547113 0.442645 -0.351367
v 0.506294 0.640592 -0.392066
v 0.460803 0.646144 -0.447205
v 0.539777 0.639006 -0.351367
v 0.585776 0.645279 -0.264931
v 0.598140 0.642286 -0.242026
v 0.634310 0.638131 -0.123384
v 0.646241 0.644264 -0.000000
v 0.646241 0.644264 0.000000
v 0.634309 0.638135 0.123384
v 0.598139 0.642288 0.242026
v 0.585776 0.645279 0.264931
v 0.539688 0.641387 0.351367
v 0.536654 0.641636 0.355051
v 0.460803 0.646144 0.447205
v 0.460803 0.646144 0.447205
v 0.513752 0.440947 0.392066
v 0.547024 0.445026 0.351367
v 0.593362 0.442203 0.264931
v 0.468803 0.432016 0.447205
v 0.653583 0.447727 0.000000
v 0.641227 0.452952 0.123384
v 0.605468 0.446110 0.242026
v 0.605468 0.446108 -0.242026
v 0.641228 0.452948 -0.123384
v 0.653583 0.447727 0.000000
v 0.376439 0.435907 0.522834
v 0.286450 0.430737 0.572058
v 0.372744 0.436131 0.525857
v 0.405973 0.636844 0.492456
v 0.365408 0.632492 0.525857
v 0.278863 0.633814 0.572058
v 0.256102 0.629508 0.584301
v 0.137748 0.619581 0.620291
v 0.014239 0.620654 0.632443
v 0.014239 0.620654 0.632443
v -0.108847 0.610372 0.620291
v -0.227611 0.611440 0.584301
v -0.250630 0.614033 0.572058
v -0.336924 0.608639 0.525857
v -0.340619 0.608863 0.522834
v -0.432983 0.612754 0.447205
v -0.432983 0.612754 0.447205
v -0.370154 0.407926 0.492456
v -0.329588 0.412278 0.525857
v -0.243044 0.410956 0.572058
v -0.424984 0.398626 0.447205
v 0.021581 0.424117 0.632443
v -0.101929 0.425190 0.620291
v -0.220283 0.415262 0.584301
v 0.263431 0.433331 0.584301
v 0.144666 0.434398 0.620291
v 0.021581 0.424117 0.632443
v -0.500834 0.403134 0.355051
v -0.503869 0.403383 0.351367
v -0.549956 0.399491 0.264931
v -0.477932 0.603823 0.392066
v -0.511204 0.599744 0.351367
v -0.557542 0.602568 0.264931
v -0.569649 0.598660 0.242026
v -0.617764 0.597043 0.000000
v -0.605408 0.591818 0.123384
v -0.617764 0.597043 0.000000
v -0.557542 0.602568 -0.264931
v -0.569649 0.598662 -0.242026
v -0.605408 0.591822 -0.123384
v -0.511293 0.602125 -0.351367
v -0.508285 0.602599 -0.355051
v -0.432983 0.612754 -0.447205
v -0.432983 0.612754 -0.447205
v -0.470474 0.404178 -0.392066
v -0.503958 0.405764 -0.351367
v -0.549956 0.399491 -0.264931
v -0.424984 0.398626 -0.447205
v -0.424984 0.398626 -0.447205
v -0.598490 0.406639 -0.123384
v -0.610421 0.400506 -0.000000
v -0.562320 0.402484 -0.242026
v -0.598490 0.406635 0.123384
v -0.562320 0.402482 0.242026
v -0.610421 0.400506 0.000000
v -0.333168 0.409398 -0.522834
v -0.329500 0.409897 -0.525857
v -0.243044 0.410956 -0.572058
v -0.377612 0.607571 -0.492456
v -0.336835 0.606258 -0.525857
v -0.250630 0.614033 -0.572058
v -0.227611 0.611438 -0.584301
v 0.014239 0.620654 -0.632443
v -0.108847 0.610368 -0.620291
v 0.014239 0.620654 -0.632443
v 0.278863 0.633814 -0.572058
v 0.256102 0.629510 -0.584301
v 0.137748 0.619585 -0.620291
v 0.365319 0.634873 -0.525857
v 0.368987 0.635372 -0.522834
v 0.460803 0.646144 -0.447205
v 0.413432 0.437199 -0.492456
v 0.372655 0.438512 -0.525857
v 0.286450 0.430737 -0.572058
v 0.144666 0.434402 -0.620291
v 0.021581 0.424117 -0.632443
v 0.263431 0.433332 -0.584301
v -0.101929 0.425186 -0.620291
v -0.220283 0.415260 -0.584301
v 0.021581 0.424117 -0.632443
vn 0.8608 -0.4868 -0.1486
vn 0.8178 0.5569 -0.1451
vn 0.8608 -0.4868 0.1486
vn 0.8178 0.5569 0.1451
vn 0.4656 -0.8422 -0.2718
vn 0.7448 -0.4906 -0.4523
vn 0.7062 0.5445 -0.4525
vn 0.3470 0.9039 -0.2503
vn 0.3757 0.9231 -0.0822
vn 0.3756 0.9231 0.0822
vn 0.3799 0.8850 0.2694
vn 0.7062 0.5445 0.4525
vn 0.7448 -0.4906 0.4523
vn 0.4135 -0.8755 0.2503
vn 0.4434 -0.8925 0.0822
vn 0.4435 -0.8925 -0.0822
vn 0.1678 -0.5127 0.8420
vn 0.1254 0.5310 0.8380
vn -0.1291 -0.5238 0.8420
vn -0.1646 0.5202 0.8380
vn 0.3036 -0.8483 0.4339
vn 0.4713 -0.5008 0.7260
vn 0.4328 0.5343 0.7261
vn 0.2168 0.8990 0.3805
vn 0.0482 0.9109 0.4098
vn -0.1160 0.9048 0.4098
vn -0.3017 0.8595 0.4126
vn -0.4715 0.5005 0.7261
vn -0.4326 -0.5346 0.7260
vn -0.2168 -0.8990 0.3805
vn -0.0482 -0.9109 0.4098
vn 0.1161 -0.9047 0.4099
vn -0.8221 -0.5497 0.1486
vn -0.8571 0.4943 0.1451
vn -0.8221 -0.5497 -0.1486
vn -0.8571 0.4943 -0.1451
vn -0.4015 -0.8746 0.2718
vn -0.7061 -0.5448 0.4523
vn -0.7449 0.4903 0.4525
vn -0.4135 0.8755 0.2503
vn -0.4435 0.8925 0.0822
vn -0.4434 0.8925 -0.0822
vn -0.4448 0.8542 -0.2694
vn -0.7449 0.4903 -0.4525
vn -0.7061 -0.5448 -0.4523
vn -0.4029 -0.8822 -0.2436
vn -0.3757 -0.9231 -0.0822
vn -0.3757 -0.9231 0.0822
vn -0.1291 -0.5238 -0.8420
vn -0.1646 0.5202 -0.8380
vn 0.1678 -0.5127 -0.8420
vn 0.1254 0.5310 -0.8380
vn -0.2395 -0.8686 -0.4339
vn -0.4326 -0.5346 -0.7260
vn -0.4715 0.5005 -0.7261
vn -0.2833 0.8803 -0.3805
vn -0.1161 0.9047 -0.4099
vn 0.0482 0.9109 -0.4098
vn 0.2367 0.8796 -0.4126
vn 0.4328 0.5343 -0.7261
vn 0.4713 -0.5008 -0.7260
vn 0.2833 -0.8803 -0.3805
vn 0.1161 -0.9047 -0.4099
vn -0.0482 -0.9109 -0.4099
vn 0.0979 0.0037 -0.9952
vn 0.2901 0.0108 -0.9569
vn 0.4711 0.0176 -0.8819
vn 0.6340 0.0237 -0.7730
vn 0.7725 0.0289 -0.6344
vn 0.8813 0.0329 -0.4714
vn 0.9563 0.0357 -0.2903
vn 0.9945 0.0372 -0.0980
vn 0.9945 0.0372 0.0980
vn 0.9563 0.0357 0.2903
vn 0.8813 0.0329 0.4714
vn 0.7725 0.0289 0.6344
vn 0.6340 0.0237 0.7730
vn 0.4711 0.0176 0.8819
vn 0.2901 0.0108 0.9569
vn 0.0979 0.0037 0.9952
vn -0.0979 -0.0037 0.9952
vn -0.2901 -0.0108 0.9569
vn -0.4711 -0.0176 0.8819
vn -0.6340 -0.0237 0.7730
vn -0.7725 -0.0289 0.6344
vn -0.8813 -0.0329 0.4714
vn -0.9563 -0.0357 0.2903
vn -0.9945 -0.0372 0.0980
vn -0.9945 -0.0372 -0.0980
vn -0.9563 -0.0357 -0.2903
vn -0.8813 -0.0329 -0.4714
vn -0.7725 -0.0289 -0.6344
vn -0.6340 -0.0237 -0.7730
vn -0.4711 -0.0176 -0.8819
vn -0.2901 -0.0108 -0.9569
vn -0.0979 -0.0037 -0.9952
vn 0.8571 -0.4943 -0.1451
vn 0.8221 0.5497 -0.1486
vn 0.8571 -0.4943 0.1451
vn 0.8221 0.5497 0.1486
vn 0.4448 -0.8542 -0.2694
vn 0.4440 -0.8548 -0.2688
vn 0.4182 -0.8792 -0.2283
vn 0.7449 -0.4903 -0.4525
vn 0.7061 0.5448 -0.4523
vn 0.4029 0.8822 -0.2436
vn 0.3756 0.9231 -0.0822
vn 0.3757 0.9231 0.0822
vn 0.9993 0.0373 -0.0000
vn 0.3790 0.8855 0.2688
vn 0.3514 0.9080 0.2283
vn 0.4015 0.8746 0.2718
vn 0.7061 0.5448 0.4523
vn 0.7449 -0.4903 0.4525
vn 0.4676 -0.8497 0.2436
vn 0.4435 -0.8925 0.0822
vn 0.4449 -0.8956 -0.0000
vn 0.4434 -0.8925 -0.0822
vn 0.1646 -0.5202 0.8380
vn 0.1291 0.5238 0.8420
vn -0.1254 -0.5310 0.8380
vn -0.1678 0.5127 0.8420
vn 0.3017 -0.8595 0.4126
vn 0.3012 -0.8601 0.4118
vn 0.2615 -0.8851 0.3851
vn 0.4715 -0.5005 0.7261
vn 0.4326 0.5346 0.7260
vn 0.2111 0.8751 0.4356
vn 0.0482 0.9109 0.4099
vn -0.1161 0.9047 0.4099
vn 0.0373 -0.9993 -0.0000
vn -0.3012 0.8601 0.4118
vn -0.2615 0.8851 0.3851
vn -0.3036 0.8483 0.4339
vn -0.0373 0.9993 -0.0000
vn -0.4713 0.5008 0.7260
vn -0.4328 -0.5343 0.7261
vn -0.2111 -0.8751 0.4356
vn -0.0482 -0.9109 0.4099
vn 0.1160 -0.9048 0.4098
vn 0.0373 -0.9992 0.0132
vn -0.8178 -0.5569 0.1451
vn -0.8608 0.4868 0.1486
vn -0.8178 -0.5569 -0.1451
vn -0.8608 0.4868 -0.1486
vn -0.3799 -0.8850 0.2694
vn -0.3790 -0.8855 0.2688
vn -0.3514 -0.9080 0.2283
vn -0.7062 -0.5445 0.4525
vn -0.7448 0.4906 0.4523
vn -0.4676 0.8497 0.2436
vn -0.4434 0.8925 0.0822
vn -0.4435 0.8925 -0.0822
vn -0.4440 0.8548 -0.2688
vn -0.4182 0.8792 -0.2283
vn -0.4656 0.8422 -0.2718
vn -0.7448 0.4906 -0.4523
vn -0.7062 -0.5445 -0.4525
vn -0.3470 -0.9039 -0.2503
vn -0.3756 -0.9231 -0.0822
vn -0.3756 -0.9231 0.0822
vn -0.1254 -0.5310 -0.8380
vn -0.1678 0.5127 -0.8420
vn 0.1646 -0.5202 -0.8380
vn 0.1291 0.5238 -0.8420
vn -0.2367 -0.8796 -0.4126
vn -0.2361 -0.8802 -0.4118
vn -0.1947 -0.9021 -0.3851
vn -0.4328 -0.5343 -0.7261
vn -0.4713 0.5008 -0.7260
vn -0.2758 0.8569 -0.4356
vn -0.1161 0.9048 -0.4098
vn -0.1160 0.9047 -0.4099
vn 0.0482 0.9109 -0.4099
vn 0.2361 0.8802 -0.4118
vn 0.1947 0.9021 -0.3851
vn 0.2395 0.8686 -0.4339
vn 0.4326 0.5346 -0.7260
vn 0.4715 -0.5005 -0.7261
vn 0.2758 -0.8569 -0.4356
vn 0.1161 -0.9048 -0.4098
vn 0.1160 -0.9047 -0.4099
vn -0.0482 -0.9109 -0.4098
vn -0.0373 0.9993 -0.0044
vn -0.0373 0.9992 -0.0132
vn 0.6339 0.0237 -0.7730
vn -0.0000 -0.0000 1.0000
vn -0.9993 -0.0373 -0.0000
vn 0.9973 -0.0733 -0.0000
vn -0.0000 -0.0000 -1.0000
vt 0.437500 0.062500
vt 0.500000 0.125000
vt 0.437500 0.125000
vt 0.562500 0.062500
vt 0.500000 0.062500
vt 0.437500 0.187500
vt 0.562500 0.187500
vt 0.500000 0.187500
vt 0.409871 0.035502
vt 0.409240 0.034240
vt 0.437500 0.000000
vt 0.562500 0.000000
vt 0.500000 0.000000
vt 0.594349 0.020994
vt 0.588102 0.035299
vt 0.583889 0.068153
vt 0.576113 0.096222
vt 0.562500 0.125000
vt 0.579202 0.125000
vt 0.576116 0.153777
vt 0.562500 0.250000
vt 0.590760 0.215760
vt 0.607615 0.250000
vt 0.500000 0.250000
vt 0.437500 0.250000
vt 0.405651 0.229006
vt 0.411898 0.214701
vt 0.423887 0.153778
vt 0.423884 0.096223
vt 0.416110 0.068153
vt 0.437500 0.312500
vt 0.500000 0.375000
vt 0.437500 0.375000
vt 0.562500 0.312500
vt 0.500000 0.312500
vt 0.437500 0.437500
vt 0.562500 0.437500
vt 0.500000 0.437500
vt 0.409871 0.285502
vt 0.409240 0.284240
vt 0.594349 0.270994
vt 0.588102 0.285299
vt 0.576113 0.346222
vt 0.562500 0.375000
vt 0.579202 0.375000
vt 0.576116 0.403777
vt 0.562500 0.500000
vt 0.590760 0.465760
vt 0.607615 0.500000
vt 0.500000 0.500000
vt 0.437500 0.500000
vt 0.405651 0.479006
vt 0.411898 0.464701
vt 0.423887 0.403778
vt 0.423884 0.346223
vt 0.416110 0.318153
vt 0.437500 0.562500
vt 0.500000 0.625000
vt 0.437500 0.625000
vt 0.562500 0.562500
vt 0.500000 0.562500
vt 0.437500 0.687500
vt 0.562500 0.687500
vt 0.500000 0.687500
vt 0.409871 0.535502
vt 0.409240 0.534240
vt 0.594349 0.520994
vt 0.588102 0.535299
vt 0.583889 0.568153
vt 0.576113 0.596222
vt 0.562500 0.625000
vt 0.579202 0.625000
vt 0.576116 0.653777
vt 0.562500 0.750000
vt 0.590760 0.715760
vt 0.607615 0.750000
vt 0.500000 0.750000
vt 0.437500 0.750000
vt 0.392384 0.750000
vt 0.405651 0.729006
vt 0.416111 0.681847
vt 0.423887 0.653778
vt 0.423884 0.596223
vt 0.416110 0.568153
vt 0.437500 0.812500
vt 0.500000 0.875000
vt 0.437500 0.875000
vt 0.562500 0.812500
vt 0.500000 0.812500
vt 0.437500 0.937500
vt 0.562500 0.937500
vt 0.500000 0.937500
vt 0.409871 0.785502
vt 0.409240 0.784240
vt 0.594349 0.770994
vt 0.588102 0.785299
vt 0.583889 0.818153
vt 0.576113 0.846223
vt 0.562500 0.875000
vt 0.579202 0.875000
vt 0.576116 0.903777
vt 0.562500 1.000000
vt 0.590760 0.965760
vt 0.607616 1.000000
vt 0.500000 1.000000
vt 0.437500 1.000000
vt 0.405651 0.979006
vt 0.411898 0.964701
vt 0.416111 0.931847
vt 0.423887 0.903778
vt 0.423884 0.846223
vt 0.416110 0.818153
vt 0.968750 0.716327
vt 1.000000 0.785738
vt 1.000000 0.714262
vt 0.937500 0.785673
vt 0.937500 0.714327
vt 0.906250 0.714727
vt 0.906250 0.786139
vt 0.892979 0.713697
vt 0.875000 0.788937
vt 0.875000 0.711063
vt 0.857021 0.786303
vt 0.812500 0.714327
vt 0.812500 0.785673
vt 0.843750 0.785273
vt 0.781250 0.783673
vt 0.781250 0.716326
vt 0.750000 0.714262
vt 0.750000 0.785738
vt 0.718750 0.716327
vt 0.687500 0.785673
vt 0.687500 0.714327
vt 0.656250 0.714727
vt 0.656250 0.786139
vt 0.642979 0.713697
vt 0.625000 0.788937
vt 0.625000 0.711063
vt 0.607021 0.786303
vt 0.562500 0.714327
vt 0.562500 0.785673
vt 0.593750 0.785273
vt 0.531250 0.783673
vt 0.531250 0.716326
vt 0.500000 0.785738
vt 0.500000 0.714262
vt 0.468750 0.716327
vt 0.437500 0.785673
vt 0.437500 0.714327
vt 0.406250 0.714727
vt 0.406250 0.786139
vt 0.392979 0.713697
vt 0.375000 0.788937
vt 0.375000 0.711063
vt 0.357021 0.786303
vt 0.343750 0.713861
vt 0.319047 0.713073
vt 0.312500 0.714327
vt 0.281250 0.783673
vt 0.281250 0.716326
vt 0.250000 0.714262
vt 0.218750 0.716327
vt 0.250000 0.785738
vt 0.187500 0.785673
vt 0.187500 0.714327
vt 0.156250 0.714727
vt 0.156250 0.786139
vt 0.142979 0.713697
vt 0.093750 0.713861
vt 0.093750 0.785273
vt 0.107021 0.786303
vt 0.069047 0.713073
vt 0.062500 0.714327
vt 0.031250 0.783673
vt 0.031250 0.716326
vt 0.000000 0.714262
vt 0.392385 0.000000
vt 0.412090 0.062500
vt 0.587910 0.062500
vt 0.607616 0.000000
vt 0.583890 0.181847
vt 0.587910 0.187500
vt 0.579202 0.125000
vt 0.590129 0.214498
vt 0.412090 0.187500
vt 0.392384 0.250000
vt 0.420798 0.125000
vt 0.416111 0.181847
vt 0.420798 0.125000
vt 0.412090 0.312500
vt 0.587910 0.312500
vt 0.583889 0.318153
vt 0.583890 0.431847
vt 0.587910 0.437500
vt 0.590129 0.464498
vt 0.412090 0.437500
vt 0.392384 0.500000
vt 0.420798 0.375000
vt 0.416111 0.431847
vt 0.420798 0.375000
vt 0.412090 0.562500
vt 0.587910 0.562500
vt 0.583890 0.681847
vt 0.587910 0.687500
vt 0.590129 0.714498
vt 0.412090 0.687500
vt 0.411898 0.714701
vt 0.420798 0.625000
vt 0.420798 0.625000
vt 0.412090 0.812500
vt 0.587910 0.812500
vt 0.583890 0.931847
vt 0.587910 0.937500
vt 0.590129 0.964498
vt 0.412090 0.937500
vt 0.392385 1.000000
vt 0.420798 0.875000
vt 0.420798 0.875000
vt 0.968750 0.783674
vt 0.930954 0.713073
vt 0.930954 0.786927
vt 0.905049 0.786271
vt 0.844951 0.713729
vt 0.843750 0.713861
vt 0.819047 0.786927
vt 0.819047 0.713073
vt 0.718750 0.783674
vt 0.680953 0.713073
vt 0.680953 0.786927
vt 0.655049 0.786271
vt 0.594951 0.713729
vt 0.593750 0.713861
vt 0.569047 0.786927
vt 0.569047 0.713073
vt 0.468750 0.783674
vt 0.430953 0.713073
vt 0.430953 0.786927
vt 0.405049 0.786271
vt 0.344951 0.713729
vt 0.343750 0.785273
vt 0.312500 0.785673
vt 0.319047 0.786927
vt 0.218750 0.783674
vt 0.180953 0.713073
vt 0.180953 0.786927
vt 0.125000 0.711063
vt 0.125000 0.788937
vt 0.155049 0.786271
vt 0.094951 0.713729
vt 0.062500 0.785673
vt 0.069047 0.786927
vt 0.000000 0.785738
s 0
f 13/1/1 17/2/1 16/3/1
f 15/4/2 17/2/2 14/5/2
f 17/2/3 19/6/3 16/3/3
f 17/2/4 21/7/4 20/8/4
f 52/9/5 49/10/5 1/11/5
f 1/11/6 14/5/6 13/1/6
f 3/12/7 14/5/7 2/13/7
f 53/14/8 55/15/8 3/12/8
f 15/4/9 57/16/9 58/17/9
f 18/18/10 59/19/10 61/20/10
f 4/21/11 65/22/11 67/23/11
f 20/8/12 4/21/12 5/24/12
f 20/8/13 6/25/13 19/6/13
f 6/25/14 68/26/14 69/27/14
f 73/28/15 16/3/15 19/6/15
f 13/1/16 76/29/16 75/30/16
f 22/31/17 26/32/17 25/33/17
f 24/34/18 26/32/18 23/35/18
f 26/32/19 28/36/19 25/33/19
f 26/32/20 30/37/20 29/38/20
f 80/39/21 78/40/21 6/25/21
f 6/25/22 23/35/22 22/31/22
f 4/21/23 23/35/23 5/24/23
f 81/41/24 82/42/24 4/21/24
f 85/43/25 27/44/25 24/34/25
f 27/44/26 86/45/26 88/46/26
f 7/47/27 92/48/27 94/49/27
f 29/38/28 7/47/28 8/50/28
f 29/38/29 9/51/29 28/36/29
f 9/51/30 95/52/30 96/53/30
f 100/54/31 25/33/31 28/36/31
f 22/31/32 103/55/32 102/56/32
f 31/57/33 35/58/33 34/59/33
f 33/60/34 35/58/34 32/61/34
f 35/58/35 37/62/35 34/59/35
f 35/58/36 39/63/36 38/64/36
f 106/65/37 105/66/37 9/51/37
f 9/51/38 32/61/38 31/57/38
f 7/47/39 32/61/39 8/50/39
f 108/67/40 109/68/40 7/47/40
f 33/60/41 111/69/41 113/70/41
f 36/71/42 112/72/42 117/73/42
f 10/74/43 119/75/43 121/76/43
f 38/64/44 10/74/44 11/77/44
f 38/64/45 12/78/45 37/62/45
f 12/78/46 125/79/46 122/80/46
f 37/62/47 129/81/47 127/82/47
f 130/83/48 131/84/48 31/57/48
f 40/85/49 44/86/49 43/87/49
f 42/88/50 44/86/50 41/89/50
f 44/86/51 46/90/51 43/87/51
f 44/86/52 48/91/52 47/92/52
f 134/93/53 133/94/53 12/78/53
f 12/78/54 41/89/54 40/85/54
f 10/74/55 41/89/55 11/77/55
f 136/95/56 137/96/56 10/74/56
f 42/88/57 139/97/57 141/98/57
f 45/99/58 140/100/58 145/101/58
f 3/102/59 147/103/59 148/104/59
f 47/92/60 3/102/60 2/105/60
f 47/92/61 1/106/61 46/90/61
f 1/106/62 149/107/62 150/108/62
f 46/90/63 154/109/63 152/110/63
f 155/111/64 156/112/64 40/85/64
f 100/113/65 87/114/65 104/115/65
f 89/116/66 100/113/66 101/117/66
f 89/116/67 101/117/67 96/118/67
f 91/119/68 96/118/68 95/120/68
f 94/121/69 98/122/69 108/123/69
f 131/124/70 111/125/70 109/126/70
f 113/127/71 131/124/71 130/128/71
f 113/127/72 132/129/72 114/130/72
f 127/131/73 114/130/73 132/129/73
f 116/132/74 127/131/74 129/133/74
f 116/132/75 129/133/75 123/134/75
f 118/135/76 123/134/76 122/136/76
f 120/137/77 126/138/77 136/139/77
f 156/140/78 139/141/78 137/142/78
f 141/143/79 156/140/79 155/144/79
f 142/145/80 141/143/80 157/146/80
f 152/147/81 142/145/81 157/146/81
f 144/148/82 152/147/82 154/149/82
f 144/148/83 154/149/83 150/150/83
f 146/151/84 150/150/84 149/152/84
f 148/153/85 50/154/85 53/155/85
f 52/156/86 51/157/86 75/158/86
f 58/159/87 75/158/87 76/160/87
f 58/159/88 76/160/88 77/161/88
f 73/162/89 60/163/89 77/161/89
f 62/164/90 73/162/90 74/165/90
f 62/164/91 74/165/91 69/166/91
f 64/167/92 69/166/92 68/168/92
f 80/169/93 82/170/93 81/171/93
f 80/169/94 79/172/94 102/173/94
f 85/174/95 102/173/95 103/175/95
f 85/174/96 103/175/96 104/176/96
f 13/1/97 14/5/97 17/2/97
f 15/4/98 18/18/98 17/2/98
f 17/2/99 20/8/99 19/6/99
f 17/2/100 18/18/100 21/7/100
f 50/177/101 1/11/101 49/10/101
f 1/11/102 13/1/102 52/9/102
f 13/1/103 51/178/103 52/9/103
f 1/11/104 2/13/104 14/5/104
f 3/12/105 15/4/105 14/5/105
f 55/15/8 56/179/8 15/4/8
f 15/4/8 3/12/8 55/15/8
f 3/12/106 54/180/106 53/14/106
f 59/19/107 18/18/107 58/17/107
f 18/18/107 15/4/107 58/17/107
f 15/4/9 56/179/9 57/16/9
f 62/181/108 63/182/108 21/7/108
f 61/20/108 62/181/108 21/7/108
f 61/20/108 21/7/108 18/18/108
f 59/19/109 60/183/109 61/20/109
f 4/21/110 21/7/110 64/184/110
f 21/7/111 63/182/111 64/184/111
f 4/21/112 64/184/112 65/22/112
f 67/23/109 66/23/109 4/21/109
f 20/8/113 21/7/113 4/21/113
f 20/8/114 5/24/114 6/25/114
f 70/185/14 19/6/14 69/27/14
f 19/6/14 6/25/14 69/27/14
f 6/25/115 71/186/115 68/26/115
f 73/28/15 72/187/15 16/3/15
f 19/6/116 70/185/116 74/188/116
f 74/188/116 73/28/116 19/6/116
f 13/1/16 16/3/16 76/29/16
f 16/3/117 72/187/117 77/189/117
f 16/3/118 77/189/118 76/29/118
f 75/30/16 51/178/16 13/1/16
f 22/31/119 23/35/119 26/32/119
f 24/34/120 27/44/120 26/32/120
f 26/32/121 29/38/121 28/36/121
f 26/32/122 27/44/122 30/37/122
f 71/186/123 6/25/123 78/40/123
f 6/25/124 22/31/124 80/39/124
f 22/31/125 79/190/125 80/39/125
f 6/25/126 5/24/126 23/35/126
f 4/21/127 24/34/127 23/35/127
f 82/42/24 83/191/24 24/34/24
f 24/34/24 4/21/24 82/42/24
f 4/21/128 66/23/128 81/41/128
f 85/43/25 86/45/25 27/44/25
f 24/34/129 83/191/129 84/192/129
f 84/192/129 85/43/129 24/34/129
f 89/193/130 90/194/130 30/37/130
f 88/46/130 89/193/130 30/37/130
f 88/46/130 30/37/130 27/44/130
f 86/45/131 87/45/131 88/46/131
f 7/47/132 30/37/132 91/195/132
f 30/37/133 90/194/133 91/195/133
f 7/47/134 91/195/134 92/48/134
f 94/49/135 93/49/135 7/47/135
f 29/38/136 30/37/136 7/47/136
f 29/38/137 8/50/137 9/51/137
f 97/196/30 28/36/30 96/53/30
f 28/36/30 9/51/30 96/53/30
f 9/51/138 98/197/138 95/52/138
f 100/54/31 99/198/31 25/33/31
f 28/36/139 97/196/139 101/199/139
f 101/199/139 100/54/139 28/36/139
f 22/31/32 25/33/32 103/55/32
f 25/33/140 99/198/140 103/55/140
f 99/198/141 104/200/141 103/55/141
f 102/56/32 79/190/32 22/31/32
f 31/57/142 32/61/142 35/58/142
f 33/60/143 36/71/143 35/58/143
f 35/58/144 38/64/144 37/62/144
f 35/58/145 36/71/145 39/63/145
f 105/66/146 98/197/146 9/51/146
f 9/51/147 31/57/147 106/65/147
f 31/57/148 107/201/148 106/65/148
f 9/51/149 8/50/149 32/61/149
f 7/47/150 33/60/150 32/61/150
f 109/68/40 110/202/40 33/60/40
f 33/60/40 7/47/40 109/68/40
f 7/47/151 93/49/151 108/67/151
f 112/72/152 36/71/152 113/70/152
f 36/71/152 33/60/152 113/70/152
f 33/60/41 110/202/41 111/69/41
f 116/203/153 115/204/153 39/63/153
f 117/73/153 116/203/153 39/63/153
f 117/73/153 39/63/153 36/71/153
f 112/72/135 114/72/135 117/73/135
f 10/74/154 39/63/154 118/205/154
f 39/63/155 115/204/155 118/205/155
f 10/74/156 118/205/156 119/75/156
f 121/76/135 120/76/135 10/74/135
f 38/64/157 39/63/157 10/74/157
f 38/64/158 11/77/158 12/78/158
f 124/206/159 37/62/159 123/207/159
f 37/62/159 12/78/159 123/207/159
f 122/80/159 123/207/159 12/78/159
f 125/79/135 126/79/135 122/80/135
f 128/208/160 34/59/160 127/82/160
f 34/59/160 37/62/160 127/82/160
f 37/62/47 124/206/47 129/81/47
f 131/84/48 107/201/48 31/57/48
f 31/57/48 34/59/48 130/83/48
f 34/59/161 128/208/161 130/83/161
f 128/208/135 132/209/135 130/83/135
f 40/85/162 41/89/162 44/86/162
f 42/88/163 45/99/163 44/86/163
f 44/86/164 47/92/164 46/90/164
f 44/86/165 45/99/165 48/91/165
f 133/94/166 125/79/166 12/78/166
f 12/78/167 40/85/167 134/93/167
f 40/85/168 135/210/168 134/93/168
f 12/78/169 11/77/169 41/89/169
f 10/74/170 42/88/170 41/89/170
f 137/96/56 138/211/56 42/88/56
f 42/88/56 10/74/56 137/96/56
f 10/74/171 120/76/171 136/95/171
f 140/100/172 45/99/172 141/98/172
f 45/99/172 42/88/172 141/98/172
f 42/88/173 138/211/173 139/97/173
f 144/212/174 143/213/174 48/91/174
f 145/101/174 144/212/174 48/91/174
f 145/101/174 48/91/174 45/99/174
f 140/100/135 142/100/135 145/101/135
f 3/102/175 48/91/175 146/214/175
f 48/91/176 143/213/176 146/214/176
f 3/102/177 146/214/177 147/103/177
f 148/104/135 54/104/135 3/102/135
f 47/92/178 48/91/178 3/102/178
f 47/92/179 2/105/179 1/106/179
f 151/215/62 46/90/62 150/108/62
f 46/90/62 1/106/62 150/108/62
f 1/106/180 50/216/180 149/107/180
f 153/217/181 43/87/181 152/110/181
f 43/87/181 46/90/181 152/110/181
f 46/90/182 151/215/182 154/109/182
f 156/112/64 135/210/64 40/85/64
f 40/85/64 43/87/64 155/111/64
f 43/87/183 153/217/183 155/111/183
f 153/217/184 157/218/184 155/111/184
f 104/115/185 99/115/185 100/113/185
f 100/113/65 88/219/65 87/114/65
f 89/116/66 88/219/66 100/113/66
f 101/117/67 97/220/67 96/118/67
f 96/118/67 91/119/67 89/116/67
f 91/119/67 90/221/67 89/116/67
f 95/120/68 98/122/68 94/121/68
f 94/121/68 92/222/68 95/120/68
f 92/222/186 91/119/186 95/120/186
f 98/122/69 105/223/69 108/123/69
f 105/223/69 106/224/69 108/123/69
f 106/224/69 109/126/69 108/123/69
f 108/123/135 93/121/135 94/121/135
f 110/225/70 109/126/70 111/125/70
f 109/126/70 106/224/70 131/124/70
f 106/224/70 107/226/70 131/124/70
f 113/127/71 111/125/71 131/124/71
f 113/127/72 130/128/72 132/129/72
f 114/130/135 112/130/135 113/127/135
f 132/129/131 128/129/131 127/131/131
f 127/131/73 117/227/73 114/130/73
f 116/132/74 117/227/74 127/131/74
f 129/133/75 124/228/75 123/134/75
f 123/134/75 118/135/75 116/132/75
f 118/135/75 115/229/75 116/132/75
f 126/138/76 121/137/76 122/136/76
f 121/137/76 119/230/76 122/136/76
f 119/230/76 118/135/76 122/136/76
f 133/231/77 134/232/77 136/139/77
f 134/232/77 137/142/77 136/139/77
f 126/138/135 125/138/135 133/231/135
f 126/138/77 133/231/77 136/139/77
f 120/137/135 121/137/135 126/138/135
f 138/233/78 137/142/78 139/141/78
f 137/142/78 134/232/78 156/140/78
f 134/232/78 135/234/78 156/140/78
f 141/143/79 139/141/79 156/140/79
f 140/145/135 141/143/135 142/145/135
f 141/143/80 155/144/80 157/146/80
f 157/146/187 153/146/187 152/147/187
f 152/147/81 145/235/81 142/145/81
f 144/148/82 145/235/82 152/147/82
f 154/149/83 151/236/83 150/150/83
f 150/150/83 146/151/83 144/148/83
f 146/151/83 143/237/83 144/148/83
f 50/154/84 148/153/84 149/152/84
f 148/153/84 147/238/84 149/152/84
f 147/238/84 146/151/84 149/152/84
f 50/154/85 49/239/85 53/155/85
f 49/239/85 52/156/85 53/155/85
f 52/156/85 55/240/85 53/155/85
f 53/155/135 54/153/135 148/153/135
f 75/158/86 57/241/86 55/240/86
f 57/241/86 56/242/86 55/240/86
f 55/240/86 52/156/86 75/158/86
f 58/159/87 57/241/87 75/158/87
f 77/161/188 60/163/188 59/163/188
f 59/163/88 58/159/88 77/161/88
f 77/161/189 72/161/189 73/162/189
f 73/162/89 61/243/89 60/163/89
f 62/164/90 61/243/90 73/162/90
f 74/165/91 70/244/91 69/166/91
f 69/166/91 64/167/91 62/164/91
f 64/167/91 63/245/91 62/164/91
f 68/168/92 71/246/92 67/247/92
f 67/247/92 65/248/92 68/168/92
f 65/248/92 64/167/92 68/168/92
f 81/171/190 66/247/190 67/247/190
f 67/247/93 71/246/93 81/171/93
f 71/246/93 78/249/93 81/171/93
f 78/249/93 80/169/93 81/171/93
f 102/173/94 84/250/94 82/170/94
f 84/250/94 83/251/94 82/170/94
f 82/170/94 80/169/94 102/173/94
f 85/174/95 84/250/95 102/173/95
f 104/176/190 87/252/190 86/252/190
f 86/252/96 85/174/96 104/176/96
