{
	"asset":{
		"generator":"Khronos glTF Blender I/O v4.2.70",
		"version":"2.0"
	},
	"scene":0,
	"scenes":[
		{
			"name":"Scene",
			"nodes":[
				2
			]
		}
	],
	"nodes":[
		{
			"name":"\u30dc\u30fc\u30f3"
		},
		{
			"name":"Cube",
			"skin":0
		},
		{
			"children":[
				1,
				0
			],
			"name":"\u30a2\u30fc\u30de\u30c1\u30e5\u30a2"
		}
	],
	"animations":[
		{
			"channels":[
				{
					"sampler":0,
					"target":{
						"node":0,
						"path":"translation"
					}
				},
				{
					"sampler":1,
					"target":{
						"node":0,
						"path":"rotation"
					}
				},
				{
					"sampler":2,
					"target":{
						"node":0,
						"path":"scale"
					}
				}
			],
			"name":"\u30a2\u30fc\u30de\u30c1\u30e5\u30a2\u30a2\u30af\u30b7\u30e7\u30f3",
			"samplers":[
				{
					"input":1,
					"interpolation":"LINEAR",
					"output":2
				},
				{
					"input":3,
					"interpolation":"STEP",
					"output":4
				},
				{
					"input":3,
					"interpolation":"STEP",
					"output":5
				}
			]
		}
	],
	"skins":[
		{
			"inverseBindMatrices":0,
			"joints":[
				0
			],
			"name":"\u30a2\u30fc\u30de\u30c1\u30e5\u30a2"
		}
	],
	"accessors":[
		{
			"bufferView":0,
			"componentType":5126,
			"count":1,
			"type":"MAT4"
		},
		{
			"bufferView":1,
			"componentType":5126,
			"count":70,
			"max":[
				2.9166666666666665
			],
			"min":[
				0.041666666666666664
			],
			"type":"SCALAR"
		},
		{
			"bufferView":2,
			"componentType":5126,
			"count":70,
			"type":"VEC3"
		},
		{
			"bufferView":3,
			"componentType":5126,
			"count":2,
			"max":[
				2.9166666666666665
			],
			"min":[
				0.041666666666666664
			],
			"type":"SCALAR"
		},
		{
			"bufferView":4,
			"componentType":5126,
			"count":2,
			"type":"VEC4"
		},
		{
			"bufferView":5,
			"componentType":5126,
			"count":2,
			"type":"VEC3"
		}
	],
	"bufferViews":[
		{
			"buffer":0,
			"byteLength":64,
			"byteOffset":0
		},
		{
			"buffer":0,
			"byteLength":280,
			"byteOffset":64
		},
		{
			"buffer":0,
			"byteLength":840,
			"byteOffset":344
		},
		{
			"buffer":0,
			"byteLength":8,
			"byteOffset":1184
		},
		{
			"buffer":0,
			"byteLength":32,
			"byteOffset":1192
		},
		{
			"buffer":0,
			"byteLength":24,
			"byteOffset":1224
		}
	],
	"buffers":[
		{
			"byteLength":1248,
			"uri":"CameraTest.bin"
		}
	]
}
