# Blender 4.1.1
# www.blender.org
mtllib tornade6.mtl
o 立方体.005
v 1.516354 3.271593 -1.508227
v 1.620037 3.443850 -1.604668
v 1.531005 3.624116 -1.508227
v 1.531005 3.624116 1.508227
v 1.620037 3.443850 1.604668
v 1.516354 3.271593 1.508227
v -1.482849 3.749371 1.508227
v -1.586532 3.577114 1.604668
v -1.497499 3.396848 1.508227
v -1.482849 3.749371 -1.508227
v -1.586532 3.577114 -1.604668
v -1.497499 3.396848 -1.508227
v 1.926333 3.242944 -0.832274
v 2.073117 3.425020 -0.876982
v 1.941948 3.618648 -0.832274
v 2.064891 3.227077 0.000000
v 2.224820 3.418715 -0.000000
v 2.081344 3.622963 -0.000000
v 1.926334 3.242944 0.832274
v 2.073117 3.425020 0.876982
v 1.941947 3.618648 0.832274
v 0.840501 3.288071 1.919043
v 0.892978 3.474066 2.058140
v 0.856116 3.663775 1.919043
v 0.008526 3.312539 2.058140
v 0.016753 3.510482 2.209974
v 0.024979 3.708425 2.058140
v -0.822610 3.357189 1.919043
v -0.859473 3.546897 2.058140
v -0.806996 3.732893 1.919043
v -1.908442 3.402316 0.832274
v -2.039612 3.595943 0.876982
v -1.892828 3.778020 0.832274
v -2.047838 3.398000 -0.000000
v -2.191315 3.602248 -0.000000
v -2.031385 3.793887 0.000000
v -1.908442 3.402316 -0.832274
v -2.039612 3.595943 -0.876982
v -1.892828 3.778020 -0.832274
v -0.822610 3.357189 -1.919043
v -0.859473 3.546897 -2.058140
v -0.806996 3.732893 -1.919043
v 0.008526 3.312539 -2.058140
v 0.016753 3.510482 -2.209974
v 0.024979 3.708425 -2.058140
v 0.840502 3.288071 -1.919043
v 0.892978 3.474066 -2.058140
v 0.856116 3.663775 -1.919043
v 1.606435 3.198555 -1.087401
v 1.374259 3.190131 -1.369638
v 1.756877 3.187850 -0.811396
v 1.615724 3.199059 -1.076117
v 1.533889 3.693513 -1.200765
v 1.396159 3.717088 -1.369638
v 1.635807 3.682295 -1.076117
v 1.777647 3.687613 -0.811396
v 1.814759 3.677564 -0.741243
v 1.924326 3.659455 -0.377882
v 1.962093 3.671886 -0.000000
v 1.962093 3.671886 0.000000
v 1.924326 3.659465 0.377882
v 1.814759 3.677568 0.741243
v 1.777647 3.687613 0.811396
v 1.636050 3.688154 1.076117
v 1.626836 3.689428 1.087400
v 1.396159 3.717088 1.369638
v 1.396159 3.717088 1.369638
v 1.513470 3.202196 1.200765
v 1.615967 3.204919 1.076117
v 1.756877 3.187850 0.811396
v 1.374259 3.190131 1.369638
v 1.941992 3.188218 0.000000
v 1.905386 3.203739 0.377882
v 1.794695 3.194784 0.741243
v 1.794695 3.194780 -0.741243
v 1.905386 3.203730 -0.377882
v 1.941992 3.188218 0.000000
v 1.093015 3.219893 1.601264
v 0.817064 3.226908 1.752020
v 1.081779 3.221250 1.610524
v 1.226692 3.706280 1.508227
v 1.101862 3.704485 1.610524
v 0.837834 3.726671 1.752020
v 0.767388 3.721093 1.789518
v 0.403779 3.722649 1.899742
v 0.026803 3.752316 1.936960
v 0.026803 3.752316 1.936960
v -0.351333 3.754040 1.899742
v -0.713818 3.782655 1.789518
v -0.783558 3.794055 1.752020
v -1.048273 3.799714 1.610524
v -1.059510 3.801071 1.601264
v -1.340754 3.830833 1.369638
v -1.340754 3.830833 1.369638
v -1.193187 3.314684 1.508227
v -1.068356 3.316478 1.610524
v -0.804328 3.294293 1.752020
v -1.362654 3.303876 1.369638
v 0.006702 3.268648 1.936960
v -0.370273 3.298315 1.899742
v -0.733883 3.299871 1.789518
v 0.747324 3.238308 1.789518
v 0.384839 3.266923 1.899742
v 0.006702 3.268648 1.936960
v -1.593330 3.331536 1.087400
v -1.602545 3.332809 1.076117
v -1.744141 3.333351 0.811396
v -1.479964 3.818768 1.200765
v -1.582462 3.816045 1.076117
v -1.723372 3.833113 0.811396
v -1.761190 3.826179 0.741243
v -1.908486 3.832746 0.000000
v -1.871881 3.817224 0.377882
v -1.908486 3.832746 0.000000
v -1.723372 3.833113 -0.811396
v -1.761189 3.826184 -0.741243
v -1.871881 3.817234 -0.377882
v -1.582218 3.821904 -1.076117
v -1.572930 3.822409 -1.087400
v -1.340754 3.830833 -1.369638
v -1.340754 3.830833 -1.369638
v -1.500383 3.327451 -1.200766
v -1.602301 3.338669 -1.076117
v -1.744141 3.333351 -0.811396
v -1.362654 3.303876 -1.369638
v -1.362654 3.303876 -1.369638
v -1.890820 3.361508 -0.377882
v -1.928587 3.349078 -0.000000
v -1.781254 3.343400 -0.741243
v -1.890821 3.361499 0.377882
v -1.781254 3.343395 0.741243
v -1.928587 3.349078 0.000000
v -1.079910 3.310198 -1.601264
v -1.068600 3.310619 -1.610524
v -0.804328 3.294293 -1.752020
v -1.172768 3.806000 -1.508227
v -1.048517 3.793854 -1.610524
v -0.783558 3.794055 -1.752020
v -0.713819 3.782651 -1.789518
v 0.026803 3.752316 -1.936960
v -0.351334 3.754031 -1.899742
v 0.026803 3.752316 -1.936960
v 0.837834 3.726671 -1.752020
v 0.767388 3.721097 -1.789518
v 0.403779 3.722658 -1.899742
v 1.102105 3.710345 -1.610524
v 1.113416 3.710765 -1.601264
v 1.396159 3.717088 -1.369638
v 1.206273 3.214963 -1.508227
v 1.082022 3.227109 -1.610524
v 0.817064 3.226908 -1.752020
v 0.384839 3.266933 -1.899742
v 0.006702 3.268648 -1.936960
v 0.747324 3.238313 -1.789518
v -0.370274 3.298306 -1.899742
v -0.733883 3.299867 -1.789518
v 0.006702 3.268648 -1.936960
vn 0.7603 -0.6345 -0.1387
vn 0.8055 0.5769 -0.1352
vn 0.7603 -0.6345 0.1387
vn 0.8055 0.5769 0.1352
vn 0.3283 -0.9163 -0.2293
vn 0.6522 -0.6295 -0.4223
vn 0.7023 0.5729 -0.4225
vn 0.3558 0.9109 -0.2089
vn 0.3787 0.9230 -0.0682
vn 0.3787 0.9230 0.0682
vn 0.3844 0.8950 0.2264
vn 0.7023 0.5729 0.4225
vn 0.6522 -0.6295 0.4223
vn 0.2790 -0.9373 0.2089
vn 0.3008 -0.9513 0.0682
vn 0.3009 -0.9512 -0.0682
vn 0.1135 -0.6077 0.7860
vn 0.1604 0.6037 0.7809
vn -0.1636 -0.5961 0.7860
vn -0.1098 0.6150 0.7809
vn 0.1917 -0.9106 0.3661
vn 0.3969 -0.6189 0.6778
vn 0.4471 0.5835 0.6780
vn 0.2472 0.9154 0.3177
vn 0.1071 0.9343 0.3400
vn -0.0292 0.9400 0.3400
vn -0.1884 0.9188 0.3469
vn -0.3971 0.6186 0.6780
vn -0.4469 -0.5838 0.6778
vn -0.2472 -0.9154 0.3177
vn -0.1071 -0.9343 0.3400
vn 0.0292 -0.9399 0.3401
vn -0.8104 -0.5693 0.1387
vn -0.7549 0.6418 0.1352
vn -0.8104 -0.5693 -0.1387
vn -0.7549 0.6418 -0.1352
vn -0.4032 -0.8859 0.2293
vn -0.7022 -0.5732 0.4223
vn -0.6524 0.6292 0.4225
vn -0.2790 0.9373 0.2089
vn -0.3008 0.9512 0.0682
vn -0.3008 0.9513 -0.0682
vn -0.3088 0.9238 -0.2264
vn -0.6524 0.6292 -0.4225
vn -0.7022 -0.5732 -0.4223
vn -0.4040 -0.8915 -0.2050
vn -0.3787 -0.9230 -0.0682
vn -0.3787 -0.9230 0.0682
vn -0.1636 -0.5961 -0.7860
vn -0.1098 0.6150 -0.7809
vn 0.1135 -0.6077 -0.7860
vn 0.1604 0.6037 -0.7809
vn -0.2666 -0.8916 -0.3661
vn -0.4469 -0.5838 -0.6778
vn -0.3971 0.6186 -0.6780
vn -0.1704 0.9328 -0.3177
vn -0.0292 0.9399 -0.3401
vn 0.1071 0.9343 -0.3400
vn 0.2640 0.9000 -0.3469
vn 0.4471 0.5835 -0.6780
vn 0.3969 -0.6189 -0.6778
vn 0.1704 -0.9328 -0.3177
vn 0.0292 -0.9399 -0.3401
vn -0.1071 -0.9343 -0.3401
vn 0.0979 -0.0041 -0.9952
vn 0.2900 -0.0121 -0.9569
vn 0.4710 -0.0196 -0.8819
vn 0.6338 -0.0263 -0.7730
vn 0.7723 -0.0321 -0.6344
vn 0.8812 -0.0366 -0.4714
vn 0.9561 -0.0397 -0.2903
vn 0.9943 -0.0413 -0.0980
vn 0.9943 -0.0413 0.0980
vn 0.9561 -0.0397 0.2903
vn 0.8812 -0.0366 0.4714
vn 0.7723 -0.0321 0.6344
vn 0.6338 -0.0263 0.7730
vn 0.4710 -0.0196 0.8819
vn 0.2900 -0.0121 0.9569
vn 0.0979 -0.0041 0.9952
vn -0.0979 0.0041 0.9952
vn -0.2900 0.0121 0.9569
vn -0.4710 0.0196 0.8819
vn -0.6338 0.0263 0.7730
vn -0.7723 0.0321 0.6344
vn -0.8812 0.0366 0.4714
vn -0.9561 0.0397 0.2903
vn -0.9943 0.0413 0.0980
vn -0.9943 0.0413 -0.0980
vn -0.9561 0.0397 -0.2903
vn -0.8812 0.0366 -0.4714
vn -0.7723 0.0321 -0.6344
vn -0.6338 0.0263 -0.7730
vn -0.4710 0.0196 -0.8819
vn -0.2900 0.0121 -0.9569
vn -0.0979 0.0041 -0.9952
vn 0.7549 -0.6418 -0.1352
vn 0.8104 0.5693 -0.1387
vn 0.7549 -0.6418 0.1352
vn 0.8104 0.5693 0.1387
vn 0.3088 -0.9238 -0.2264
vn 0.3080 -0.9242 -0.2260
vn 0.2823 -0.9403 -0.1903
vn 0.6524 -0.6292 -0.4225
vn 0.7022 0.5732 -0.4223
vn 0.4040 0.8915 -0.2050
vn 0.3788 0.9230 -0.0682
vn 0.9991 -0.0415 -0.0000
vn 0.3836 0.8954 0.2260
vn 0.3593 0.9136 0.1903
vn 0.4032 0.8859 0.2293
vn 0.7022 0.5732 0.4223
vn 0.6524 -0.6292 0.4225
vn 0.3286 -0.9220 0.2050
vn 0.3009 -0.9512 0.0682
vn 0.3008 -0.9512 0.0682
vn 0.3015 -0.9535 -0.0000
vn 0.3008 -0.9513 -0.0682
vn 0.1098 -0.6150 0.7809
vn 0.1636 0.5961 0.7860
vn -0.1604 -0.6037 0.7809
vn -0.1135 0.6077 0.7860
vn 0.1884 -0.9188 0.3469
vn 0.1879 -0.9192 0.3461
vn 0.1516 -0.9348 0.3211
vn 0.3971 -0.6186 0.6780
vn 0.4469 0.5838 0.6778
vn 0.2425 0.8982 0.3666
vn 0.1071 0.9343 0.3401
vn -0.0292 0.9399 0.3401
vn -0.0415 -0.9991 -0.0000
vn -0.1879 0.9192 0.3461
vn -0.1516 0.9348 0.3211
vn -0.1917 0.9106 0.3661
vn 0.0415 0.9991 -0.0000
vn -0.3969 0.6189 0.6778
vn -0.4471 -0.5835 0.6780
vn -0.2425 -0.8982 0.3666
vn -0.1071 -0.9343 0.3401
vn 0.0292 -0.9400 0.3400
vn -0.0415 -0.9991 0.0106
vn -0.8055 -0.5769 0.1352
vn -0.7603 0.6345 0.1387
vn -0.8055 -0.5769 -0.1352
vn -0.7603 0.6345 -0.1387
vn -0.3844 -0.8950 0.2264
vn -0.3836 -0.8954 0.2260
vn -0.3593 -0.9136 0.1903
vn -0.7023 -0.5729 0.4225
vn -0.6522 0.6295 0.4223
vn -0.3286 0.9220 0.2050
vn -0.3008 0.9513 0.0682
vn -0.3009 0.9512 0.0682
vn -0.3009 0.9512 -0.0682
vn -0.3080 0.9242 -0.2260
vn -0.2823 0.9403 -0.1903
vn -0.3283 0.9163 -0.2293
vn -0.6522 0.6295 -0.4223
vn -0.7023 -0.5729 -0.4225
vn -0.3558 -0.9109 -0.2089
vn -0.3788 -0.9230 -0.0682
vn -0.1604 -0.6037 -0.7809
vn -0.1135 0.6077 -0.7860
vn 0.1098 -0.6150 -0.7809
vn 0.1636 0.5961 -0.7860
vn -0.2640 -0.9000 -0.3469
vn -0.2636 -0.9004 -0.3461
vn -0.2287 -0.9190 -0.3211
vn -0.4471 -0.5835 -0.6780
vn -0.3969 0.6189 -0.6778
vn -0.1672 0.9152 -0.3666
vn -0.0292 0.9400 -0.3400
vn 0.1071 0.9343 -0.3401
vn 0.2636 0.9004 -0.3461
vn 0.2287 0.9190 -0.3211
vn 0.2666 0.8916 -0.3661
vn 0.4469 0.5838 -0.6778
vn 0.3971 -0.6186 -0.6780
vn 0.1672 -0.9152 -0.3666
vn 0.0292 -0.9400 -0.3400
vn -0.1071 -0.9343 -0.3400
vn 0.0415 0.9991 -0.0035
vn 0.0415 0.9991 -0.0106
vn 0.4710 -0.0195 -0.8819
vn 0.7724 -0.0321 0.6344
vn -0.0000 -0.0000 1.0000
vn -0.4710 0.0195 0.8819
vn -0.9991 0.0415 -0.0000
vn 0.9840 -0.1780 -0.0000
vn -0.0000 -0.0000 -1.0000
vt 0.195072 0.382048
vt 0.255145 0.376398
vt 0.227933 0.409260
vt 0.249494 0.316325
vt 0.222283 0.349187
vt 0.260795 0.436471
vt 0.315218 0.370747
vt 0.288006 0.403609
vt 0.168848 0.384821
vt 0.167909 0.384603
vt 0.162210 0.354837
vt 0.216632 0.289114
vt 0.189421 0.321976
vt 0.241537 0.281508
vt 0.246338 0.291021
vt 0.261778 0.307540
vt 0.273152 0.323849
vt 0.282356 0.343536
vt 0.289627 0.334754
vt 0.303415 0.348906
vt 0.348079 0.397958
vt 0.342380 0.368192
vt 0.367722 0.374237
vt 0.320868 0.430820
vt 0.293657 0.463682
vt 0.268753 0.471287
vt 0.263951 0.461775
vt 0.237138 0.428946
vt 0.206875 0.403890
vt 0.188731 0.395756
vt 0.326519 0.490893
vt 0.386592 0.485242
vt 0.359381 0.518104
vt 0.380941 0.425169
vt 0.353730 0.458031
vt 0.392243 0.545315
vt 0.446665 0.479591
vt 0.419454 0.512453
vt 0.300295 0.493666
vt 0.299357 0.493448
vt 0.372984 0.390352
vt 0.377785 0.399865
vt 0.404599 0.432694
vt 0.413803 0.452380
vt 0.421075 0.443599
vt 0.434862 0.457750
vt 0.479527 0.506802
vt 0.473827 0.477036
vt 0.499169 0.483081
vt 0.452316 0.539664
vt 0.425105 0.572526
vt 0.400200 0.580132
vt 0.395399 0.570619
vt 0.368585 0.537791
vt 0.338322 0.512734
vt 0.320179 0.504601
vt 0.457966 0.599737
vt 0.518039 0.594087
vt 0.490828 0.626948
vt 0.512389 0.534014
vt 0.485177 0.566875
vt 0.523690 0.654160
vt 0.578112 0.588436
vt 0.550901 0.621298
vt 0.431742 0.602510
vt 0.430804 0.602292
vt 0.504431 0.499197
vt 0.509233 0.508710
vt 0.524673 0.525229
vt 0.536046 0.541538
vt 0.545250 0.561225
vt 0.552522 0.552443
vt 0.566309 0.566595
vt 0.610974 0.615647
vt 0.605275 0.585881
vt 0.630616 0.591926
vt 0.583763 0.648509
vt 0.556552 0.681371
vt 0.536910 0.705092
vt 0.531647 0.688976
vt 0.511406 0.662944
vt 0.500032 0.646635
vt 0.469769 0.621578
vt 0.451626 0.613445
vt 0.589414 0.708582
vt 0.649487 0.702931
vt 0.622276 0.735793
vt 0.643836 0.642858
vt 0.616625 0.675720
vt 0.655137 0.763004
vt 0.709560 0.697280
vt 0.682349 0.730142
vt 0.563190 0.711354
vt 0.562251 0.711137
vt 0.635879 0.608041
vt 0.640680 0.617554
vt 0.656120 0.634073
vt 0.667494 0.650382
vt 0.676698 0.670069
vt 0.683969 0.661288
vt 0.697757 0.675439
vt 0.742422 0.724491
vt 0.736722 0.694725
vt 0.762064 0.700770
vt 0.715210 0.757353
vt 0.687999 0.790215
vt 0.663095 0.797821
vt 0.658293 0.788308
vt 0.642853 0.771789
vt 0.631480 0.755480
vt 0.601217 0.730423
vt 0.583073 0.722290
vt 0.028206 0.075927
vt 0.048286 0.002970
vt 0.002971 0.057696
vt 0.096097 0.042644
vt 0.050865 0.097270
vt 0.075045 0.116777
vt 0.120319 0.062100
vt 0.084552 0.125979
vt 0.146019 0.079770
vt 0.096648 0.139394
vt 0.158115 0.093185
vt 0.146570 0.176519
vt 0.191803 0.121894
vt 0.167623 0.102387
vt 0.214461 0.143237
vt 0.171764 0.194801
vt 0.194382 0.216193
vt 0.239697 0.161468
vt 0.219618 0.234424
vt 0.287509 0.201142
vt 0.242276 0.255767
vt 0.266456 0.275274
vt 0.311730 0.220597
vt 0.275963 0.284476
vt 0.337431 0.238267
vt 0.288059 0.297891
vt 0.349527 0.251682
vt 0.337981 0.335016
vt 0.383214 0.280391
vt 0.359034 0.260884
vt 0.405872 0.301734
vt 0.363175 0.353298
vt 0.431108 0.319965
vt 0.385793 0.374690
vt 0.411029 0.392921
vt 0.478920 0.359639
vt 0.433687 0.414264
vt 0.457867 0.433771
vt 0.503142 0.379094
vt 0.467375 0.442973
vt 0.528842 0.396764
vt 0.479471 0.456388
vt 0.540938 0.410179
vt 0.505171 0.474058
vt 0.523585 0.490323
vt 0.529392 0.493513
vt 0.597283 0.460231
vt 0.554586 0.511795
vt 0.577204 0.533188
vt 0.602440 0.551418
vt 0.622519 0.478462
vt 0.670331 0.518136
vt 0.625098 0.572762
vt 0.649278 0.592268
vt 0.694553 0.537591
vt 0.658786 0.601470
vt 0.696582 0.632555
vt 0.741857 0.577879
vt 0.732349 0.568676
vt 0.714996 0.648820
vt 0.720804 0.652011
vt 0.788695 0.618728
vt 0.745997 0.670292
vt 0.768615 0.691685
vt 0.142567 0.378559
vt 0.184009 0.395409
vt 0.260557 0.302964
vt 0.236274 0.265392
vt 0.321558 0.357039
vt 0.326281 0.357387
vt 0.341442 0.367974
vt 0.249732 0.449831
vt 0.274015 0.487403
vt 0.220662 0.418041
vt 0.248511 0.445255
vt 0.315456 0.504253
vt 0.392004 0.411809
vt 0.393226 0.416384
vt 0.453005 0.465884
vt 0.457728 0.466231
vt 0.472889 0.476819
vt 0.381180 0.558676
vt 0.405462 0.596247
vt 0.352109 0.526886
vt 0.379958 0.554100
vt 0.446903 0.613098
vt 0.523452 0.520653
vt 0.584453 0.574728
vt 0.589175 0.575075
vt 0.604336 0.585663
vt 0.512627 0.667520
vt 0.526846 0.679463
vt 0.483557 0.635730
vt 0.578351 0.721942
vt 0.654899 0.629498
vt 0.715900 0.683572
vt 0.720623 0.683920
vt 0.735784 0.694507
vt 0.644074 0.776364
vt 0.668357 0.813936
vt 0.615004 0.744574
vt 0.615004 0.744574
vt 0.070904 0.024363
vt 0.055082 0.102381
vt 0.101905 0.045835
vt 0.121322 0.062761
vt 0.121345 0.156403
vt 0.122348 0.157064
vt 0.187586 0.116782
vt 0.140763 0.173329
vt 0.262315 0.182860
vt 0.246493 0.260878
vt 0.293316 0.204332
vt 0.312733 0.221258
vt 0.312756 0.314900
vt 0.313760 0.315561
vt 0.378997 0.275280
vt 0.332174 0.331826
vt 0.453726 0.341357
vt 0.437904 0.419376
vt 0.484727 0.362829
vt 0.504145 0.379755
vt 0.504168 0.473397
vt 0.550445 0.419382
vt 0.574625 0.438888
vt 0.570408 0.433777
vt 0.622519 0.478462
vt 0.645137 0.499854
vt 0.629315 0.577873
vt 0.676138 0.521326
vt 0.670882 0.614885
vt 0.720253 0.555262
vt 0.695556 0.538252
vt 0.695579 0.631894
vt 0.766036 0.597385
vt 0.761819 0.592274
vt 0.813930 0.636959
s 0
usemtl マテリアル.005
f 13/1/1 17/2/1 16/3/1
f 15/4/2 17/2/2 14/5/2
f 17/2/3 19/6/3 16/3/3
f 17/2/4 21/7/4 20/8/4
f 52/9/5 49/10/5 1/11/5
f 1/11/6 14/5/6 13/1/6
f 3/12/7 14/5/7 2/13/7
f 53/14/8 55/15/8 3/12/8
f 15/4/9 57/16/9 58/17/9
f 18/18/10 59/19/10 61/20/10
f 4/21/11 65/22/11 67/23/11
f 20/8/12 4/21/12 5/24/12
f 20/8/13 6/25/13 19/6/13
f 6/25/14 68/26/14 69/27/14
f 73/28/15 16/3/15 19/6/15
f 13/1/16 76/29/16 75/30/16
f 22/31/17 26/32/17 25/33/17
f 24/34/18 26/32/18 23/35/18
f 26/32/19 28/36/19 25/33/19
f 26/32/20 30/37/20 29/38/20
f 80/39/21 78/40/21 6/25/21
f 6/25/22 23/35/22 22/31/22
f 4/21/23 23/35/23 5/24/23
f 81/41/24 82/42/24 4/21/24
f 85/43/25 27/44/25 24/34/25
f 27/44/26 86/45/26 88/46/26
f 7/47/27 92/48/27 94/49/27
f 29/38/28 7/47/28 8/50/28
f 29/38/29 9/51/29 28/36/29
f 9/51/30 95/52/30 96/53/30
f 100/54/31 25/33/31 28/36/31
f 22/31/32 103/55/32 102/56/32
f 31/57/33 35/58/33 34/59/33
f 33/60/34 35/58/34 32/61/34
f 35/58/35 37/62/35 34/59/35
f 35/58/36 39/63/36 38/64/36
f 106/65/37 105/66/37 9/51/37
f 9/51/38 32/61/38 31/57/38
f 7/47/39 32/61/39 8/50/39
f 108/67/40 109/68/40 7/47/40
f 33/60/41 111/69/41 113/70/41
f 36/71/42 112/72/42 117/73/42
f 10/74/43 119/75/43 121/76/43
f 38/64/44 10/74/44 11/77/44
f 38/64/45 12/78/45 37/62/45
f 12/78/46 125/79/46 122/80/46
f 37/62/47 129/81/47 127/82/47
f 130/83/48 131/84/48 31/57/48
f 40/85/49 44/86/49 43/87/49
f 42/88/50 44/86/50 41/89/50
f 44/86/51 46/90/51 43/87/51
f 44/86/52 48/91/52 47/92/52
f 134/93/53 133/94/53 12/78/53
f 12/78/54 41/89/54 40/85/54
f 10/74/55 41/89/55 11/77/55
f 136/95/56 137/96/56 10/74/56
f 42/88/57 139/97/57 141/98/57
f 45/99/58 140/100/58 145/101/58
f 3/102/59 147/103/59 148/104/59
f 47/92/60 3/102/60 2/105/60
f 47/92/61 1/106/61 46/90/61
f 1/106/62 149/107/62 150/108/62
f 46/90/63 154/109/63 152/110/63
f 155/111/64 156/112/64 40/85/64
f 100/113/65 87/114/65 104/115/65
f 89/116/66 100/113/66 101/117/66
f 89/116/67 101/117/67 96/118/67
f 91/119/68 96/118/68 95/120/68
f 94/121/69 98/122/69 108/123/69
f 131/124/70 111/125/70 109/126/70
f 113/127/71 131/124/71 130/128/71
f 113/127/72 132/129/72 114/130/72
f 127/131/73 114/130/73 132/129/73
f 116/132/74 127/131/74 129/133/74
f 116/132/75 129/133/75 123/134/75
f 118/135/76 123/134/76 122/136/76
f 120/137/77 126/138/77 136/139/77
f 156/140/78 139/141/78 137/142/78
f 141/143/79 156/140/79 155/144/79
f 142/145/80 141/143/80 157/146/80
f 152/147/81 142/145/81 157/146/81
f 144/148/82 152/147/82 154/149/82
f 144/148/83 154/149/83 150/150/83
f 146/151/84 150/150/84 149/152/84
f 148/153/85 50/154/85 53/155/85
f 52/156/86 51/157/86 75/158/86
f 58/159/87 75/158/87 76/160/87
f 58/159/88 76/160/88 77/161/88
f 73/162/89 60/163/89 77/161/89
f 62/164/90 73/162/90 74/165/90
f 62/164/91 74/165/91 69/166/91
f 64/167/92 69/166/92 68/168/92
f 80/169/93 82/170/93 81/171/93
f 80/169/94 79/172/94 102/173/94
f 85/174/95 102/173/95 103/175/95
f 85/174/96 103/175/96 104/176/96
f 13/1/97 14/5/97 17/2/97
f 15/4/98 18/18/98 17/2/98
f 17/2/99 20/8/99 19/6/99
f 17/2/100 18/18/100 21/7/100
f 50/177/101 1/11/101 49/10/101
f 1/11/102 13/1/102 52/9/102
f 13/1/103 51/178/103 52/9/103
f 1/11/104 2/13/104 14/5/104
f 3/12/105 15/4/105 14/5/105
f 55/15/8 56/179/8 15/4/8
f 15/4/8 3/12/8 55/15/8
f 3/12/106 54/180/106 53/14/106
f 59/19/9 18/18/9 58/17/9
f 18/18/9 15/4/9 58/17/9
f 15/4/107 56/179/107 57/16/107
f 62/181/10 63/182/10 21/7/10
f 61/20/10 62/181/10 21/7/10
f 61/20/10 21/7/10 18/18/10
f 59/19/108 60/19/108 61/20/108
f 4/21/109 21/7/109 64/183/109
f 21/7/110 63/182/110 64/183/110
f 4/21/111 64/183/111 65/22/111
f 67/23/108 66/23/108 4/21/108
f 20/8/112 21/7/112 4/21/112
f 20/8/113 5/24/113 6/25/113
f 70/184/14 19/6/14 69/27/14
f 19/6/14 6/25/14 69/27/14
f 6/25/114 71/185/114 68/26/114
f 73/28/15 72/186/15 16/3/15
f 19/6/115 70/184/115 74/187/115
f 74/187/116 73/28/116 19/6/116
f 13/1/16 16/3/16 76/29/16
f 16/3/117 72/186/117 77/186/117
f 16/3/118 77/186/118 76/29/118
f 75/30/16 51/178/16 13/1/16
f 22/31/119 23/35/119 26/32/119
f 24/34/120 27/44/120 26/32/120
f 26/32/121 29/38/121 28/36/121
f 26/32/122 27/44/122 30/37/122
f 71/185/123 6/25/123 78/40/123
f 6/25/124 22/31/124 80/39/124
f 22/31/125 79/188/125 80/39/125
f 6/25/126 5/24/126 23/35/126
f 4/21/127 24/34/127 23/35/127
f 82/42/24 83/189/24 24/34/24
f 24/34/24 4/21/24 82/42/24
f 4/21/128 66/23/128 81/41/128
f 85/43/25 86/45/25 27/44/25
f 24/34/129 83/189/129 84/190/129
f 84/190/129 85/43/129 24/34/129
f 89/191/130 90/192/130 30/37/130
f 88/46/130 89/191/130 30/37/130
f 88/46/130 30/37/130 27/44/130
f 86/45/131 87/45/131 88/46/131
f 7/47/132 30/37/132 91/193/132
f 30/37/133 90/192/133 91/193/133
f 7/47/134 91/193/134 92/48/134
f 94/49/135 93/49/135 7/47/135
f 29/38/136 30/37/136 7/47/136
f 29/38/137 8/50/137 9/51/137
f 97/194/30 28/36/30 96/53/30
f 28/36/30 9/51/30 96/53/30
f 9/51/138 98/195/138 95/52/138
f 100/54/31 99/196/31 25/33/31
f 28/36/139 97/194/139 101/197/139
f 101/197/139 100/54/139 28/36/139
f 22/31/32 25/33/32 103/55/32
f 25/33/140 99/196/140 103/55/140
f 99/196/141 104/196/141 103/55/141
f 102/56/32 79/188/32 22/31/32
f 31/57/142 32/61/142 35/58/142
f 33/60/143 36/71/143 35/58/143
f 35/58/144 38/64/144 37/62/144
f 35/58/145 36/71/145 39/63/145
f 105/66/146 98/195/146 9/51/146
f 9/51/147 31/57/147 106/65/147
f 31/57/148 107/198/148 106/65/148
f 9/51/149 8/50/149 32/61/149
f 7/47/150 33/60/150 32/61/150
f 109/68/40 110/199/40 33/60/40
f 33/60/40 7/47/40 109/68/40
f 7/47/151 93/49/151 108/67/151
f 112/72/152 36/71/152 113/70/152
f 36/71/152 33/60/152 113/70/152
f 33/60/153 110/199/153 111/69/153
f 116/200/154 115/201/154 39/63/154
f 117/73/154 116/200/154 39/63/154
f 117/73/154 39/63/154 36/71/154
f 112/72/135 114/72/135 117/73/135
f 10/74/155 39/63/155 118/202/155
f 39/63/156 115/201/156 118/202/156
f 10/74/157 118/202/157 119/75/157
f 121/76/135 120/76/135 10/74/135
f 38/64/158 39/63/158 10/74/158
f 38/64/159 11/77/159 12/78/159
f 124/203/160 37/62/160 123/204/160
f 37/62/160 12/78/160 123/204/160
f 122/80/160 123/204/160 12/78/160
f 125/79/135 126/79/135 122/80/135
f 128/205/47 34/59/47 127/82/47
f 34/59/47 37/62/47 127/82/47
f 37/62/161 124/203/161 129/81/161
f 131/84/48 107/198/48 31/57/48
f 31/57/48 34/59/48 130/83/48
f 34/59/48 128/205/48 130/83/48
f 128/205/135 132/205/135 130/83/135
f 40/85/162 41/89/162 44/86/162
f 42/88/163 45/99/163 44/86/163
f 44/86/164 47/92/164 46/90/164
f 44/86/165 45/99/165 48/91/165
f 133/94/166 125/79/166 12/78/166
f 12/78/167 40/85/167 134/93/167
f 40/85/168 135/206/168 134/93/168
f 12/78/169 11/77/169 41/89/169
f 10/74/170 42/88/170 41/89/170
f 137/96/56 138/207/56 42/88/56
f 42/88/56 10/74/56 137/96/56
f 10/74/171 120/76/171 136/95/171
f 140/100/172 45/99/172 141/98/172
f 45/99/172 42/88/172 141/98/172
f 42/88/57 138/207/57 139/97/57
f 144/208/173 143/209/173 48/91/173
f 145/101/173 144/208/173 48/91/173
f 145/101/173 48/91/173 45/99/173
f 140/100/135 142/100/135 145/101/135
f 3/102/174 48/91/174 146/210/174
f 48/91/175 143/209/175 146/210/175
f 3/102/176 146/210/176 147/103/176
f 148/104/135 54/104/135 3/102/135
f 47/92/177 48/91/177 3/102/177
f 47/92/178 2/105/178 1/106/178
f 151/211/62 46/90/62 150/108/62
f 46/90/62 1/106/62 150/108/62
f 1/106/179 50/212/179 149/107/179
f 153/213/180 43/87/180 152/110/180
f 43/87/180 46/90/180 152/110/180
f 46/90/63 151/211/63 154/109/63
f 156/112/64 135/206/64 40/85/64
f 40/85/64 43/87/64 155/111/64
f 43/87/181 153/213/181 155/111/181
f 153/213/182 157/214/182 155/111/182
f 104/115/183 99/115/183 100/113/183
f 100/113/65 88/215/65 87/114/65
f 89/116/66 88/215/66 100/113/66
f 101/117/67 97/216/67 96/118/67
f 96/118/67 91/119/67 89/116/67
f 91/119/184 90/217/184 89/116/184
f 95/120/68 98/122/68 94/121/68
f 94/121/68 92/218/68 95/120/68
f 92/218/68 91/119/68 95/120/68
f 98/122/69 105/219/69 108/123/69
f 105/219/69 106/220/69 108/123/69
f 106/220/69 109/126/69 108/123/69
f 108/123/135 93/121/135 94/121/135
f 110/221/70 109/126/70 111/125/70
f 109/126/70 106/220/70 131/124/70
f 106/220/70 107/222/70 131/124/70
f 113/127/71 111/125/71 131/124/71
f 113/127/72 130/128/72 132/129/72
f 114/130/135 112/130/135 113/127/135
f 132/129/131 128/129/131 127/131/131
f 127/131/73 117/223/73 114/130/73
f 116/132/74 117/223/74 127/131/74
f 129/133/75 124/224/75 123/134/75
f 123/134/75 118/135/75 116/132/75
f 118/135/75 115/225/75 116/132/75
f 126/138/76 121/137/76 122/136/76
f 121/137/76 119/226/76 122/136/76
f 119/226/185 118/135/185 122/136/185
f 133/227/77 134/228/77 136/139/77
f 134/228/77 137/142/77 136/139/77
f 126/138/135 125/138/135 133/227/135
f 126/138/77 133/227/77 136/139/77
f 120/137/135 121/137/135 126/138/135
f 138/229/78 137/142/78 139/141/78
f 137/142/78 134/228/78 156/140/78
f 134/228/78 135/230/78 156/140/78
f 141/143/79 139/141/79 156/140/79
f 140/145/135 141/143/135 142/145/135
f 141/143/80 155/144/80 157/146/80
f 157/146/186 153/146/186 152/147/186
f 152/147/81 145/231/81 142/145/81
f 144/148/82 145/231/82 152/147/82
f 154/149/187 151/232/187 150/150/187
f 150/150/83 146/151/83 144/148/83
f 146/151/83 143/233/83 144/148/83
f 50/154/84 148/153/84 149/152/84
f 148/153/84 147/234/84 149/152/84
f 147/234/84 146/151/84 149/152/84
f 50/154/85 49/235/85 53/155/85
f 49/235/85 52/156/85 53/155/85
f 52/156/85 55/236/85 53/155/85
f 53/155/135 54/153/135 148/153/135
f 75/158/86 57/237/86 55/236/86
f 57/237/86 56/238/86 55/236/86
f 55/236/86 52/156/86 75/158/86
f 58/159/87 57/237/87 75/158/87
f 77/161/188 60/163/188 59/239/188
f 59/239/88 58/159/88 77/161/88
f 77/161/189 72/161/189 73/162/189
f 73/162/89 61/240/89 60/163/89
f 62/164/90 61/240/90 73/162/90
f 74/165/91 70/241/91 69/166/91
f 69/166/91 64/167/91 62/164/91
f 64/167/91 63/242/91 62/164/91
f 68/168/92 71/243/92 67/244/92
f 67/244/92 65/245/92 68/168/92
f 65/245/92 64/167/92 68/168/92
f 81/171/190 66/244/190 67/244/190
f 67/244/93 71/243/93 81/171/93
f 71/243/93 78/246/93 81/171/93
f 78/246/93 80/169/93 81/171/93
f 102/173/94 84/247/94 82/170/94
f 84/247/94 83/248/94 82/170/94
f 82/170/94 80/169/94 102/173/94
f 85/174/95 84/247/95 102/173/95
f 104/176/190 87/249/190 86/249/190
f 86/249/96 85/174/96 104/176/96
