# Blender 4.1.1
# www.blender.org
mtllib bossTubu.mtl
o tube
v 0.133913 0.965878 1.298142
v 0.133913 0.754421 1.146767
v -0.133913 0.965879 1.298142
v -0.133913 0.754421 1.146767
v 0.105676 0.470558 -1.290066
v 0.145929 0.972998 1.308241
v 0.153446 0.921802 1.268864
v 0.163258 0.858142 1.225259
v 0.153446 0.796344 1.179054
v 0.145929 0.742566 1.143283
v 0.105676 0.293224 -1.186779
v 0.079451 0.737921 1.137231
v 0.000000 0.729244 1.132986
v -0.079451 0.737922 1.137231
v -0.145929 0.742566 1.143283
v -0.105676 0.293224 -1.186779
v -0.153446 0.796344 1.179054
v -0.163258 0.858142 1.225259
v -0.153446 0.921802 1.268864
v -0.145929 0.972998 1.308241
v -0.105676 0.470558 -1.290066
v -0.079451 0.980224 1.310687
v 0.000000 0.987040 1.317533
v 0.079451 0.980224 1.310687
v 0.135540 0.430350 -1.266646
v 0.185678 0.923424 1.268394
v 0.145539 0.381891 -1.238422
v 0.199136 0.861325 1.220813
v 0.135540 0.333433 -1.210198
v 0.185678 0.796266 1.177367
v 0.057754 0.268168 -1.172185
v 0.080527 0.713246 1.117936
v -0.000000 0.259778 -1.167298
v 0.000000 0.704100 1.108261
v -0.057754 0.268168 -1.172185
v -0.080527 0.713246 1.117936
v -0.135540 0.333433 -1.210198
v -0.185678 0.796266 1.177367
v -0.145539 0.381891 -1.238422
v -0.199136 0.861325 1.220813
v -0.135540 0.430350 -1.266646
v -0.185678 0.923424 1.268394
v -0.057754 0.495615 -1.304660
v -0.080527 1.006444 1.327826
v 0.000000 0.504005 -1.309546
v -0.000000 1.018550 1.333364
v 0.057754 0.495615 -1.304660
v 0.080527 1.006444 1.327826
v -0.084675 1.166329 0.532503
v -0.000000 1.165176 0.526526
v 0.084675 1.166329 0.532503
v -0.089224 1.235621 0.576955
v 0.000000 1.226942 0.589080
v 0.089224 1.235622 0.576955
v -0.084675 1.300037 0.628220
v 0.000000 1.306067 0.627384
v 0.084675 1.300037 0.628219
v 0.143948 1.496510 0.302725
v 0.143948 1.229955 0.218507
v -0.143948 1.229955 0.218507
v -0.143948 1.496510 0.302725
v 0.183882 1.436963 0.282053
v 0.197327 1.364149 0.257714
v 0.183882 1.290569 0.235800
v 0.079057 1.193515 0.205136
v -0.000000 1.181449 0.199990
v -0.079057 1.193515 0.205136
v -0.183882 1.290569 0.235800
v -0.197327 1.364149 0.257714
v -0.183882 1.436963 0.282053
v -0.079057 1.534017 0.312717
v -0.000000 1.546849 0.315438
v 0.079057 1.534017 0.312717
v 0.142957 1.057890 -0.569546
v -0.142957 1.057890 -0.569546
v -0.142957 1.301576 -0.609970
v 0.142957 1.301576 -0.609970
v 0.182983 1.246769 -0.601593
v 0.196423 1.180192 -0.591209
v 0.182983 1.113232 -0.579613
v 0.078322 1.024070 -0.564569
v -0.000000 1.012813 -0.563238
v -0.078322 1.024070 -0.564569
v -0.182983 1.113231 -0.579613
v -0.196423 1.180192 -0.591209
v -0.182983 1.246769 -0.601593
v -0.078322 1.335931 -0.616636
v 0.000000 1.347570 -0.619180
v 0.078322 1.335931 -0.616636
vn -0.0856 -0.6504 0.7547
vn -0.0856 -0.5048 0.8590
vn 0.0856 -0.6504 0.7547
vn 0.0856 -0.5048 0.8590
vn 0.6903 0.4351 -0.5781
vn 0.5016 0.0367 0.8643
vn -0.4955 -0.6934 0.5232
vn -0.5826 -0.4759 0.6589
vn -0.5316 -0.2650 0.8045
vn 0.4701 -0.8161 0.3362
vn 0.6456 -0.4941 0.5824
vn -0.2696 -0.0135 0.9629
vn -0.0000 0.0502 0.9987
vn 0.2696 -0.0135 0.9629
vn -0.4701 -0.8161 0.3362
vn -0.6456 -0.4941 0.5824
vn 0.5316 -0.2650 0.8045
vn 0.5826 -0.4759 0.6589
vn 0.4955 -0.6934 0.5232
vn -0.5016 0.0367 0.8643
vn -0.6903 0.4351 -0.5781
vn 0.2302 -0.8893 0.3952
vn -0.0000 -0.9315 0.3637
vn -0.2302 -0.8893 0.3952
vn 0.9309 0.1941 -0.3093
vn 0.7285 -0.1347 0.6717
vn 0.9985 -0.0537 -0.0100
vn 0.7929 -0.3458 0.5017
vn 0.9074 -0.2926 0.3016
vn 0.7073 -0.5858 0.3958
vn 0.3120 -0.5986 0.7378
vn 0.2365 -0.9568 0.1690
vn -0.0000 -0.6257 0.7800
vn -0.0000 -0.9944 0.1059
vn -0.3120 -0.5986 0.7378
vn -0.2365 -0.9568 0.1690
vn -0.9074 -0.2926 0.3016
vn -0.7073 -0.5858 0.3958
vn -0.9985 -0.0537 -0.0100
vn -0.7929 -0.3458 0.5017
vn -0.9309 0.1941 -0.3093
vn -0.7285 -0.1347 0.6717
vn -0.3364 0.5884 -0.7352
vn -0.2627 0.2712 0.9260
vn -0.0000 0.6313 -0.7755
vn -0.0000 0.3553 0.9348
vn 0.3364 0.5884 -0.7352
vn 0.2627 0.2712 0.9260
vn 0.5391 0.1109 0.8349
vn -0.0000 0.0815 0.9967
vn -0.5391 0.1109 0.8349
vn 0.6137 -0.4563 0.6443
vn -0.0000 -0.5821 0.8131
vn -0.6137 -0.4563 0.6443
vn 0.5442 -0.8039 0.2399
vn -0.0000 -0.9445 0.3285
vn -0.5442 -0.8039 0.2399
vn 0.6700 0.7359 0.0975
vn 0.7191 -0.6890 -0.0906
vn -0.7191 -0.6890 -0.0906
vn -0.6700 0.7359 0.0975
vn 0.9143 0.4032 0.0390
vn 0.9991 0.0417 -0.0040
vn 0.9457 -0.3221 -0.0442
vn 0.3493 -0.9298 -0.1164
vn -0.0000 -0.9924 -0.1233
vn -0.3493 -0.9298 -0.1164
vn -0.9457 -0.3221 -0.0442
vn -0.9991 0.0417 -0.0040
vn -0.9143 0.4032 0.0390
vn -0.3308 0.9348 0.1297
vn -0.0000 0.9907 0.1364
vn 0.3308 0.9348 0.1297
vn 0.6588 -0.6405 0.3946
vn -0.6588 -0.6405 0.3946
vn -0.6149 0.6663 -0.4218
vn 0.6149 0.6663 -0.4218
vn 0.8805 0.3790 -0.2846
vn 0.9967 0.0295 -0.0757
vn 0.9296 -0.3271 0.1699
vn 0.2960 -0.8060 0.5126
vn -0.0000 -0.8431 0.5378
vn -0.2960 -0.8060 0.5126
vn -0.9296 -0.3271 0.1699
vn -0.9967 0.0295 -0.0757
vn -0.8805 0.3790 -0.2846
vn -0.2945 0.8189 -0.4926
vn -0.0000 0.8589 -0.5121
vn 0.2945 0.8189 -0.4926
vt 0.012374 0.658719
vt 0.016186 0.955763
vt 0.013301 0.655286
vt 0.013631 0.652118
vt 0.010654 0.661489
vt 0.016578 0.964103
vt 0.015114 0.974482
vt 0.013475 0.965406
vt 0.013486 0.957116
vt 0.014852 0.949830
vt 0.013094 0.950739
vt 0.014021 0.945462
vt 0.013896 0.649358
vt 0.012840 0.646697
vt 0.010860 0.939775
vt 0.009733 0.645575
vt 0.006635 0.646720
vt 0.013304 0.941395
vt 0.012427 0.943371
vt 0.010869 0.942068
vt 0.008429 0.941414
vt 0.009321 0.943383
vt 0.007744 0.945486
vt 0.005599 0.649390
vt 0.005885 0.652148
vt 0.005658 0.955803
vt 0.006239 0.655313
vt 0.007193 0.658739
vt 0.006946 0.949861
vt 0.008710 0.950756
vt 0.008368 0.957135
vt 0.005330 0.964146
vt 0.008442 0.965425
vt 0.006872 0.974514
vt 0.008934 0.661496
vt 0.010016 0.662486
vt 0.011086 0.998763
vt 0.009798 0.662653
vt 0.009579 0.662487
vt 0.007905 0.985046
vt 0.009803 0.982488
vt 0.011050 0.989206
vt 0.014163 0.985022
vt 0.012245 0.982478
vt 0.010492 0.957867
vt 0.010932 0.958379
vt 0.010409 0.958331
vt 0.011367 0.957864
vt 0.010930 0.957840
vt 0.010348 0.958899
vt 0.011520 0.958895
vt 0.010934 0.959010
vt 0.008724 0.946452
vt 0.011454 0.958327
vt 0.008734 0.974133
vt 0.007106 0.463036
vt 0.007415 0.459567
vt 0.010960 0.463021
vt 0.010625 0.459554
vt 0.009037 0.464059
vt 0.007777 0.453204
vt 0.002071 0.437099
vt 0.001237 0.430228
vt 0.004494 0.445208
vt 0.003582 0.425597
vt 0.016578 0.430170
vt 0.014198 0.425556
vt 0.008884 0.423995
vt 0.015796 0.437046
vt 0.010214 0.453195
vt 0.013436 0.445174
vt 0.005024 0.049080
vt 0.006310 0.055361
vt 0.007531 0.058443
vt 0.003727 0.038470
vt 0.008751 0.059605
vt 0.008833 0.060006
vt 0.007488 0.059955
vt 0.006144 0.060016
vt 0.006224 0.059614
vt 0.008632 0.055352
vt 0.007434 0.058443
vt 0.009870 0.049062
vt 0.011086 0.038442
vt 0.007263 0.001237
vt 0.010651 0.022571
vt 0.004040 0.022597
vt 0.013250 0.974116
vt 0.013048 0.946435
s 1
usemtl マテリアル.001
f 62/1/62 28/2/28 63/3/63
f 28/2/28 64/4/64 63/3/63
f 58/5/58 26/6/26 62/1/62
f 6/7/6 7/8/7 26/6/26
f 26/6/26 8/9/8 28/2/28
f 8/9/8 30/10/30 28/2/28
f 9/11/9 10/12/10 30/10/30
f 30/10/30 59/13/59 64/4/64
f 65/14/65 34/15/34 66/16/66
f 34/15/34 67/17/67 66/16/66
f 59/13/59 32/18/32 65/14/65
f 10/12/10 12/19/12 32/18/32
f 32/18/32 13/20/13 34/15/34
f 13/20/13 36/21/36 34/15/34
f 14/22/14 15/23/15 36/21/36
f 36/21/36 60/24/60 67/17/67
f 68/25/68 40/26/40 69/27/69
f 40/26/40 70/28/70 69/27/69
f 60/24/60 38/29/38 68/25/68
f 15/23/15 17/30/17 38/29/38
f 38/29/38 18/31/18 40/26/40
f 18/31/18 42/32/42 40/26/40
f 19/33/19 20/34/20 42/32/42
f 42/32/42 61/35/61 70/28/70
f 71/36/71 46/37/46 72/38/72
f 46/37/46 73/39/73 72/38/72
f 61/35/61 44/40/44 71/36/71
f 20/34/20 22/41/22 44/40/44
f 44/40/44 23/42/23 46/37/46
f 23/42/23 48/43/48 46/37/46
f 24/44/24 6/7/6 48/43/48
f 48/43/48 58/5/58 73/39/73
f 49/45/49 53/46/53 52/47/52
f 51/48/51 53/46/53 50/49/50
f 53/46/53 55/50/55 52/47/52
f 53/46/53 57/51/57 56/52/56
f 14/22/14 17/30/17 4/53/4
f 13/20/13 49/45/49 14/22/14
f 13/20/13 51/48/51 50/49/50
f 12/19/12 9/11/9 51/48/51
f 9/11/9 54/54/54 51/48/51
f 8/9/8 57/51/57 54/54/54
f 7/8/7 24/44/24 57/51/57
f 56/52/56 24/44/24 23/42/23
f 56/52/56 22/41/22 55/50/55
f 19/33/19 22/41/22 3/55/3
f 18/31/18 55/50/55 19/33/19
f 17/30/17 52/47/52 18/31/18
f 89/56/89 58/5/58 77/57/77
f 61/35/61 87/58/87 76/59/76
f 88/60/88 73/39/73 89/56/89
f 71/36/71 88/60/88 87/58/87
f 70/28/70 76/59/76 86/61/86
f 60/24/60 84/62/84 75/63/75
f 69/27/69 86/61/86 85/64/85
f 68/25/68 85/64/85 84/62/84
f 67/17/67 75/63/75 83/65/83
f 74/66/74 65/14/65 81/67/81
f 66/16/66 83/65/83 82/68/82
f 81/67/81 66/16/66 82/68/82
f 80/69/80 59/13/59 74/66/74
f 77/57/77 62/1/62 78/70/78
f 79/71/79 64/4/64 80/69/80
f 78/70/78 63/3/63 79/71/79
f 25/72/25 79/71/79 27/73/27
f 27/73/27 80/69/80 29/74/29
f 5/75/5 78/70/78 25/72/25
f 29/74/29 74/66/74 11/76/11
f 31/77/31 82/68/82 33/78/33
f 82/68/82 35/79/35 33/78/33
f 11/76/11 81/67/81 31/77/31
f 83/65/83 16/80/16 35/79/35
f 84/62/84 39/81/39 37/82/37
f 85/64/85 41/83/41 39/81/39
f 75/63/75 37/82/37 16/80/16
f 86/61/86 21/84/21 41/83/41
f 87/58/87 45/85/45 43/86/43
f 45/85/45 89/56/89 47/87/47
f 76/59/76 43/86/43 21/84/21
f 47/87/47 77/57/77 5/75/5
f 62/1/62 26/6/26 28/2/28
f 28/2/28 30/10/30 64/4/64
f 58/5/58 6/7/6 26/6/26
f 6/7/6 1/88/1 7/8/7
f 26/6/26 7/8/7 8/9/8
f 8/9/8 9/11/9 30/10/30
f 9/11/9 2/89/2 10/12/10
f 30/10/30 10/12/10 59/13/59
f 65/14/65 32/18/32 34/15/34
f 34/15/34 36/21/36 67/17/67
f 59/13/59 10/12/10 32/18/32
f 10/12/10 2/89/2 12/19/12
f 32/18/32 12/19/12 13/20/13
f 13/20/13 14/22/14 36/21/36
f 14/22/14 4/53/4 15/23/15
f 36/21/36 15/23/15 60/24/60
f 68/25/68 38/29/38 40/26/40
f 40/26/40 42/32/42 70/28/70
f 60/24/60 15/23/15 38/29/38
f 15/23/15 4/53/4 17/30/17
f 38/29/38 17/30/17 18/31/18
f 18/31/18 19/33/19 42/32/42
f 19/33/19 3/55/3 20/34/20
f 42/32/42 20/34/20 61/35/61
f 71/36/71 44/40/44 46/37/46
f 46/37/46 48/43/48 73/39/73
f 61/35/61 20/34/20 44/40/44
f 20/34/20 3/55/3 22/41/22
f 44/40/44 22/41/22 23/42/23
f 23/42/23 24/44/24 48/43/48
f 24/44/24 1/88/1 6/7/6
f 48/43/48 6/7/6 58/5/58
f 49/45/49 50/49/50 53/46/53
f 51/48/51 54/54/54 53/46/53
f 53/46/53 56/52/56 55/50/55
f 53/46/53 54/54/54 57/51/57
f 14/22/14 49/45/49 17/30/17
f 13/20/13 50/49/50 49/45/49
f 13/20/13 12/19/12 51/48/51
f 12/19/12 2/89/2 9/11/9
f 9/11/9 8/9/8 54/54/54
f 8/9/8 7/8/7 57/51/57
f 7/8/7 1/88/1 24/44/24
f 56/52/56 57/51/57 24/44/24
f 56/52/56 23/42/23 22/41/22
f 19/33/19 55/50/55 22/41/22
f 18/31/18 52/47/52 55/50/55
f 17/30/17 49/45/49 52/47/52
f 89/56/89 73/39/73 58/5/58
f 61/35/61 71/36/71 87/58/87
f 88/60/88 72/38/72 73/39/73
f 71/36/71 72/38/72 88/60/88
f 70/28/70 61/35/61 76/59/76
f 60/24/60 68/25/68 84/62/84
f 69/27/69 70/28/70 86/61/86
f 68/25/68 69/27/69 85/64/85
f 67/17/67 60/24/60 75/63/75
f 74/66/74 59/13/59 65/14/65
f 66/16/66 67/17/67 83/65/83
f 81/67/81 65/14/65 66/16/66
f 80/69/80 64/4/64 59/13/59
f 77/57/77 58/5/58 62/1/62
f 79/71/79 63/3/63 64/4/64
f 78/70/78 62/1/62 63/3/63
f 25/72/25 78/70/78 79/71/79
f 27/73/27 79/71/79 80/69/80
f 5/75/5 77/57/77 78/70/78
f 29/74/29 80/69/80 74/66/74
f 31/77/31 81/67/81 82/68/82
f 82/68/82 83/65/83 35/79/35
f 11/76/11 74/66/74 81/67/81
f 83/65/83 75/63/75 16/80/16
f 84/62/84 85/64/85 39/81/39
f 85/64/85 86/61/86 41/83/41
f 75/63/75 84/62/84 37/82/37
f 86/61/86 76/59/76 21/84/21
f 87/58/87 88/60/88 45/85/45
f 45/85/45 88/60/88 89/56/89
f 76/59/76 87/58/87 43/86/43
f 47/87/47 89/56/89 77/57/77
