{
	"asset":{
		"generator":"Khronos glTF Blender I/O v4.2.57",
		"version":"2.0"
	},
	"scene":0,
	"scenes":[
		{
			"name":"Scene",
			"nodes":[
				2
			]
		}
	],
	"nodes":[
		{
			"name":"\u30dc\u30fc\u30f3"
		},
		{
			"mesh":0,
			"name":"\u5e73\u9762",
			"skin":0
		},
		{
			"children":[
				1,
				0
			],
			"name":"\u30a2\u30fc\u30de\u30c1\u30e5\u30a2.001"
		}
	],
	"animations":[
		{
			"channels":[
				{
					"sampler":0,
					"target":{
						"node":0,
						"path":"translation"
					}
				},
				{
					"sampler":1,
					"target":{
						"node":0,
						"path":"rotation"
					}
				},
				{
					"sampler":2,
					"target":{
						"node":0,
						"path":"scale"
					}
				}
			],
			"name":"\u30a2\u30fc\u30de\u30c1\u30e5\u30a2.001\u30a2\u30af\u30b7\u30e7\u30f3",
			"samplers":[
				{
					"input":7,
					"interpolation":"STEP",
					"output":8
				},
				{
					"input":9,
					"interpolation":"LINEAR",
					"output":10
				},
				{
					"input":9,
					"interpolation":"LINEAR",
					"output":11
				}
			]
		},
		{
			"channels":[
				{
					"sampler":0,
					"target":{
						"node":0,
						"path":"translation"
					}
				},
				{
					"sampler":1,
					"target":{
						"node":0,
						"path":"rotation"
					}
				},
				{
					"sampler":2,
					"target":{
						"node":0,
						"path":"scale"
					}
				}
			],
			"name":"\u30a2\u30fc\u30de\u30c1\u30e5\u30a2\u30a2\u30af\u30b7\u30e7\u30f3_\u30a2\u30fc\u30de\u30c1\u30e5\u30a2",
			"samplers":[
				{
					"input":12,
					"interpolation":"STEP",
					"output":13
				},
				{
					"input":12,
					"interpolation":"STEP",
					"output":14
				},
				{
					"input":12,
					"interpolation":"STEP",
					"output":15
				}
			]
		},
		{
			"channels":[
				{
					"sampler":0,
					"target":{
						"node":0,
						"path":"translation"
					}
				},
				{
					"sampler":1,
					"target":{
						"node":0,
						"path":"rotation"
					}
				},
				{
					"sampler":2,
					"target":{
						"node":0,
						"path":"scale"
					}
				}
			],
			"name":"\u30a2\u30fc\u30de\u30c1\u30e5\u30a2\u30a2\u30af\u30b7\u30e7\u30f3_\u30a2\u30fc\u30de\u30c1\u30e5\u30a2.001",
			"samplers":[
				{
					"input":16,
					"interpolation":"STEP",
					"output":17
				},
				{
					"input":16,
					"interpolation":"STEP",
					"output":18
				},
				{
					"input":16,
					"interpolation":"STEP",
					"output":19
				}
			]
		}
	],
	"materials":[
		{
			"alphaMode":"BLEND",
			"doubleSided":true,
			"name":"\u30de\u30c6\u30ea\u30a2\u30eb",
			"pbrMetallicRoughness":{
				"baseColorTexture":{
					"index":0
				},
				"metallicFactor":0,
				"roughnessFactor":0.5
			}
		}
	],
	"meshes":[
		{
			"name":"\u5e73\u9762",
			"primitives":[
				{
					"attributes":{
						"POSITION":0,
						"NORMAL":1,
						"TEXCOORD_0":2,
						"JOINTS_0":3,
						"WEIGHTS_0":4
					},
					"indices":5,
					"material":0
				}
			]
		}
	],
	"textures":[
		{
			"sampler":0,
			"source":0
		}
	],
	"images":[
		{
			"mimeType":"image/png",
			"name":"Effect1_tex",
			"uri":"Effect1_tex.png"
		}
	],
	"skins":[
		{
			"inverseBindMatrices":6,
			"joints":[
				0
			],
			"name":"\u30a2\u30fc\u30de\u30c1\u30e5\u30a2.001"
		}
	],
	"accessors":[
		{
			"bufferView":0,
			"componentType":5126,
			"count":120,
			"max":[
				1,
				0,
				1
			],
			"min":[
				-1,
				-0.21943700313568115,
				-1.0201959609985352
			],
			"type":"VEC3"
		},
		{
			"bufferView":1,
			"componentType":5126,
			"count":120,
			"type":"VEC3"
		},
		{
			"bufferView":2,
			"componentType":5126,
			"count":120,
			"type":"VEC2"
		},
		{
			"bufferView":3,
			"componentType":5121,
			"count":120,
			"type":"VEC4"
		},
		{
			"bufferView":4,
			"componentType":5126,
			"count":120,
			"type":"VEC4"
		},
		{
			"bufferView":5,
			"componentType":5123,
			"count":144,
			"type":"SCALAR"
		},
		{
			"bufferView":6,
			"componentType":5126,
			"count":1,
			"type":"MAT4"
		},
		{
			"bufferView":7,
			"componentType":5126,
			"count":2,
			"max":[
				2.65
			],
			"min":[
				0.9666666666666667
			],
			"type":"SCALAR"
		},
		{
			"bufferView":8,
			"componentType":5126,
			"count":2,
			"type":"VEC3"
		},
		{
			"bufferView":9,
			"componentType":5126,
			"count":102,
			"max":[
				2.65
			],
			"min":[
				0.9666666666666667
			],
			"type":"SCALAR"
		},
		{
			"bufferView":10,
			"componentType":5126,
			"count":102,
			"type":"VEC4"
		},
		{
			"bufferView":11,
			"componentType":5126,
			"count":102,
			"type":"VEC3"
		},
		{
			"bufferView":12,
			"componentType":5126,
			"count":2,
			"max":[
				1.1333333333333333
			],
			"min":[
				0
			],
			"type":"SCALAR"
		},
		{
			"bufferView":13,
			"componentType":5126,
			"count":2,
			"type":"VEC3"
		},
		{
			"bufferView":14,
			"componentType":5126,
			"count":2,
			"type":"VEC4"
		},
		{
			"bufferView":15,
			"componentType":5126,
			"count":2,
			"type":"VEC3"
		},
		{
			"bufferView":16,
			"componentType":5126,
			"count":2,
			"max":[
				2.8333333333333335
			],
			"min":[
				0
			],
			"type":"SCALAR"
		},
		{
			"bufferView":17,
			"componentType":5126,
			"count":2,
			"type":"VEC3"
		},
		{
			"bufferView":18,
			"componentType":5126,
			"count":2,
			"type":"VEC4"
		},
		{
			"bufferView":19,
			"componentType":5126,
			"count":2,
			"type":"VEC3"
		}
	],
	"bufferViews":[
		{
			"buffer":0,
			"byteLength":1440,
			"byteOffset":0,
			"target":34962
		},
		{
			"buffer":0,
			"byteLength":1440,
			"byteOffset":1440,
			"target":34962
		},
		{
			"buffer":0,
			"byteLength":960,
			"byteOffset":2880,
			"target":34962
		},
		{
			"buffer":0,
			"byteLength":480,
			"byteOffset":3840,
			"target":34962
		},
		{
			"buffer":0,
			"byteLength":1920,
			"byteOffset":4320,
			"target":34962
		},
		{
			"buffer":0,
			"byteLength":288,
			"byteOffset":6240,
			"target":34963
		},
		{
			"buffer":0,
			"byteLength":64,
			"byteOffset":6528
		},
		{
			"buffer":0,
			"byteLength":8,
			"byteOffset":6592
		},
		{
			"buffer":0,
			"byteLength":24,
			"byteOffset":6600
		},
		{
			"buffer":0,
			"byteLength":408,
			"byteOffset":6624
		},
		{
			"buffer":0,
			"byteLength":1632,
			"byteOffset":7032
		},
		{
			"buffer":0,
			"byteLength":1224,
			"byteOffset":8664
		},
		{
			"buffer":0,
			"byteLength":8,
			"byteOffset":9888
		},
		{
			"buffer":0,
			"byteLength":24,
			"byteOffset":9896
		},
		{
			"buffer":0,
			"byteLength":32,
			"byteOffset":9920
		},
		{
			"buffer":0,
			"byteLength":24,
			"byteOffset":9952
		},
		{
			"buffer":0,
			"byteLength":8,
			"byteOffset":9976
		},
		{
			"buffer":0,
			"byteLength":24,
			"byteOffset":9984
		},
		{
			"buffer":0,
			"byteLength":32,
			"byteOffset":10008
		},
		{
			"buffer":0,
			"byteLength":24,
			"byteOffset":10040
		}
	],
	"samplers":[
		{
			"magFilter":9729,
			"minFilter":9987
		}
	],
	"buffers":[
		{
			"byteLength":10064,
			"uri":"Effect1.bin"
		}
	]
}
