{
	"asset":{
		"generator":"Khronos glTF Blender I/O v4.2.57",
		"version":"2.0"
	},
	"scene":0,
	"scenes":[
		{
			"name":"Scene",
			"nodes":[
				15
			]
		}
	],
	"nodes":[
		{
			"name":"\u30dc\u30fc\u30f3.003.L",
			"rotation":[
				0.6866772174835205,
				0.11237983405590057,
				-0.1141766831278801,
				0.7090901136398315
			],
			"scale":[
				0.9999986886978149,
				0.9999998211860657,
				1
			],
			"translation":[
				0.6100937724113464,
				0.14654302597045898,
				-0.35478079319000244
			]
		},
		{
			"name":"\u30dc\u30fc\u30f3.003.R",
			"rotation":[
				0.6866772174835205,
				-0.11237983405590057,
				0.1141766831278801,
				0.7090901136398315
			],
			"scale":[
				0.9999986886978149,
				0.9999998211860657,
				1
			],
			"translation":[
				-0.6100937724113464,
				0.14654302597045898,
				-0.35478079319000244
			]
		},
		{
			"name":"\u30dc\u30fc\u30f3.004.L",
			"rotation":[
				-7.150302394620667e-08,
				0,
				0,
				1
			],
			"translation":[
				0.2833320200443268,
				0.15040668845176697,
				0.9004195928573608
			]
		},
		{
			"name":"\u30dc\u30fc\u30f3.004.R",
			"rotation":[
				-7.150302394620667e-08,
				0,
				0,
				1
			],
			"translation":[
				-0.30601367354393005,
				0.15040668845176697,
				0.9004195928573608
			]
		},
		{
			"name":"\u30dc\u30fc\u30f3.006",
			"rotation":[
				-0.3834739029407501,
				-1.346378097308613e-14,
				-9.14273243779462e-08,
				0.9235517382621765
			],
			"translation":[
				-6.256293261230894e-10,
				0.634498119354248,
				-7.180194216971358e-08
			]
		},
		{
			"children":[
				4
			],
			"name":"\u30dc\u30fc\u30f3.005",
			"rotation":[
				-0.4977412521839142,
				2.048085220637667e-15,
				-1.1867076210592131e-07,
				0.8673256039619446
			],
			"scale":[
				1,
				0.9999999403953552,
				1
			],
			"translation":[
				-9.171685633191373e-10,
				1.4167735576629639,
				-3.549239977473917e-07
			]
		},
		{
			"children":[
				5
			],
			"name":"\u30dc\u30fc\u30f3.004",
			"rotation":[
				-0.7471504807472229,
				4.7550176551216725e-15,
				-1.7813458441651164e-07,
				0.6646549701690674
			],
			"scale":[
				1,
				0.9999999403953552,
				0.9999998807907104
			],
			"translation":[
				9.588916327629704e-10,
				1.199543833732605,
				9.211083096261063e-08
			]
		},
		{
			"children":[
				6
			],
			"name":"\u30dc\u30fc\u30f3.003",
			"rotation":[
				-0.1779395043849945,
				1.1730686821920244e-07,
				-2.121204190075332e-08,
				0.9840414524078369
			],
			"scale":[
				1,
				0.9999999403953552,
				1
			],
			"translation":[
				9.313225746154785e-10,
				1,
				-1.4210854715202004e-14
			]
		},
		{
			"children":[
				2,
				3,
				7
			],
			"name":"\u30dc\u30fc\u30f3.001",
			"rotation":[
				0.7138913869857788,
				0,
				0,
				0.7002564668655396
			],
			"translation":[
				0.011340835131704807,
				-1.0080757141113281,
				1.0701788663864136
			]
		},
		{
			"name":"\u30dc\u30fc\u30f3.002.L",
			"rotation":[
				-0.007761611137539148,
				-0.0493415892124176,
				-0.9866191148757935,
				0.15520304441452026
			],
			"scale":[
				0.9999996423721313,
				0.9999999403953552,
				0.9999999403953552
			],
			"translation":[
				1.1744019985198975,
				0.4180261194705963,
				0.014697078615427017
			]
		},
		{
			"name":"\u30dc\u30fc\u30f3.002.R",
			"rotation":[
				-0.007761773187667131,
				0.04934154450893402,
				0.9866191148757935,
				0.15520307421684265
			],
			"scale":[
				0.9999991655349731,
				0.9999999403953552,
				0.9999999403953552
			],
			"translation":[
				-1.2315824031829834,
				0.4180261194705963,
				0.014696497470140457
			]
		},
		{
			"children":[
				9,
				10
			],
			"name":"\u30dc\u30fc\u30f3.002",
			"rotation":[
				0.7479768991470337,
				7.912218080718958e-08,
				8.916580895856896e-08,
				0.6637248396873474
			],
			"scale":[
				1,
				1,
				1.0000001192092896
			],
			"translation":[
				0.02859017811715603,
				-0.8546131253242493,
				-0.5551983118057251
			]
		},
		{
			"children":[
				8,
				11
			],
			"name":"\u30dc\u30fc\u30f3",
			"rotation":[
				-0.7138912081718445,
				0,
				0,
				0.7002566456794739
			],
			"translation":[
				0,
				-4.246603965759277,
				-0.9872535467147827
			]
		},
		{
			"children":[
				12
			],
			"name":"\u30dc\u30fc\u30f3.007",
			"translation":[
				0,
				5.938182830810547,
				0
			]
		},
		{
			"mesh":0,
			"name":"player",
			"skin":0
		},
		{
			"children":[
				14,
				0,
				1,
				13
			],
			"name":"\u30a2\u30fc\u30de\u30c1\u30e5\u30a2"
		}
	],
	"animations":[
		{
			"channels":[
				{
					"sampler":0,
					"target":{
						"node":0,
						"path":"translation"
					}
				},
				{
					"sampler":1,
					"target":{
						"node":0,
						"path":"rotation"
					}
				},
				{
					"sampler":2,
					"target":{
						"node":0,
						"path":"scale"
					}
				},
				{
					"sampler":3,
					"target":{
						"node":1,
						"path":"translation"
					}
				},
				{
					"sampler":4,
					"target":{
						"node":1,
						"path":"rotation"
					}
				},
				{
					"sampler":5,
					"target":{
						"node":1,
						"path":"scale"
					}
				},
				{
					"sampler":6,
					"target":{
						"node":13,
						"path":"translation"
					}
				},
				{
					"sampler":7,
					"target":{
						"node":13,
						"path":"rotation"
					}
				},
				{
					"sampler":8,
					"target":{
						"node":13,
						"path":"scale"
					}
				},
				{
					"sampler":9,
					"target":{
						"node":12,
						"path":"translation"
					}
				},
				{
					"sampler":10,
					"target":{
						"node":12,
						"path":"rotation"
					}
				},
				{
					"sampler":11,
					"target":{
						"node":12,
						"path":"scale"
					}
				},
				{
					"sampler":12,
					"target":{
						"node":8,
						"path":"translation"
					}
				},
				{
					"sampler":13,
					"target":{
						"node":8,
						"path":"rotation"
					}
				},
				{
					"sampler":14,
					"target":{
						"node":8,
						"path":"scale"
					}
				},
				{
					"sampler":15,
					"target":{
						"node":2,
						"path":"translation"
					}
				},
				{
					"sampler":16,
					"target":{
						"node":2,
						"path":"rotation"
					}
				},
				{
					"sampler":17,
					"target":{
						"node":2,
						"path":"scale"
					}
				},
				{
					"sampler":18,
					"target":{
						"node":3,
						"path":"translation"
					}
				},
				{
					"sampler":19,
					"target":{
						"node":3,
						"path":"rotation"
					}
				},
				{
					"sampler":20,
					"target":{
						"node":3,
						"path":"scale"
					}
				},
				{
					"sampler":21,
					"target":{
						"node":7,
						"path":"translation"
					}
				},
				{
					"sampler":22,
					"target":{
						"node":7,
						"path":"rotation"
					}
				},
				{
					"sampler":23,
					"target":{
						"node":7,
						"path":"scale"
					}
				},
				{
					"sampler":24,
					"target":{
						"node":6,
						"path":"translation"
					}
				},
				{
					"sampler":25,
					"target":{
						"node":6,
						"path":"rotation"
					}
				},
				{
					"sampler":26,
					"target":{
						"node":6,
						"path":"scale"
					}
				},
				{
					"sampler":27,
					"target":{
						"node":5,
						"path":"translation"
					}
				},
				{
					"sampler":28,
					"target":{
						"node":5,
						"path":"rotation"
					}
				},
				{
					"sampler":29,
					"target":{
						"node":5,
						"path":"scale"
					}
				},
				{
					"sampler":30,
					"target":{
						"node":4,
						"path":"translation"
					}
				},
				{
					"sampler":31,
					"target":{
						"node":4,
						"path":"rotation"
					}
				},
				{
					"sampler":32,
					"target":{
						"node":4,
						"path":"scale"
					}
				},
				{
					"sampler":33,
					"target":{
						"node":11,
						"path":"translation"
					}
				},
				{
					"sampler":34,
					"target":{
						"node":11,
						"path":"rotation"
					}
				},
				{
					"sampler":35,
					"target":{
						"node":11,
						"path":"scale"
					}
				},
				{
					"sampler":36,
					"target":{
						"node":9,
						"path":"translation"
					}
				},
				{
					"sampler":37,
					"target":{
						"node":9,
						"path":"rotation"
					}
				},
				{
					"sampler":38,
					"target":{
						"node":9,
						"path":"scale"
					}
				},
				{
					"sampler":39,
					"target":{
						"node":10,
						"path":"translation"
					}
				},
				{
					"sampler":40,
					"target":{
						"node":10,
						"path":"rotation"
					}
				},
				{
					"sampler":41,
					"target":{
						"node":10,
						"path":"scale"
					}
				}
			],
			"name":"\u30a2\u30fc\u30de\u30c1\u30e5\u30a2\u30a2\u30af\u30b7\u30e7\u30f3",
			"samplers":[
				{
					"input":8,
					"interpolation":"STEP",
					"output":9
				},
				{
					"input":8,
					"interpolation":"STEP",
					"output":10
				},
				{
					"input":8,
					"interpolation":"STEP",
					"output":11
				},
				{
					"input":8,
					"interpolation":"STEP",
					"output":12
				},
				{
					"input":8,
					"interpolation":"STEP",
					"output":13
				},
				{
					"input":8,
					"interpolation":"STEP",
					"output":14
				},
				{
					"input":8,
					"interpolation":"STEP",
					"output":15
				},
				{
					"input":16,
					"interpolation":"LINEAR",
					"output":17
				},
				{
					"input":8,
					"interpolation":"STEP",
					"output":18
				},
				{
					"input":8,
					"interpolation":"LINEAR",
					"output":19
				},
				{
					"input":8,
					"interpolation":"LINEAR",
					"output":20
				},
				{
					"input":8,
					"interpolation":"STEP",
					"output":21
				},
				{
					"input":16,
					"interpolation":"LINEAR",
					"output":22
				},
				{
					"input":16,
					"interpolation":"LINEAR",
					"output":23
				},
				{
					"input":8,
					"interpolation":"STEP",
					"output":24
				},
				{
					"input":8,
					"interpolation":"LINEAR",
					"output":25
				},
				{
					"input":8,
					"interpolation":"LINEAR",
					"output":26
				},
				{
					"input":8,
					"interpolation":"STEP",
					"output":27
				},
				{
					"input":8,
					"interpolation":"LINEAR",
					"output":28
				},
				{
					"input":8,
					"interpolation":"LINEAR",
					"output":29
				},
				{
					"input":8,
					"interpolation":"STEP",
					"output":30
				},
				{
					"input":8,
					"interpolation":"LINEAR",
					"output":31
				},
				{
					"input":16,
					"interpolation":"LINEAR",
					"output":32
				},
				{
					"input":8,
					"interpolation":"STEP",
					"output":33
				},
				{
					"input":8,
					"interpolation":"LINEAR",
					"output":34
				},
				{
					"input":16,
					"interpolation":"LINEAR",
					"output":35
				},
				{
					"input":8,
					"interpolation":"LINEAR",
					"output":36
				},
				{
					"input":8,
					"interpolation":"LINEAR",
					"output":37
				},
				{
					"input":16,
					"interpolation":"LINEAR",
					"output":38
				},
				{
					"input":8,
					"interpolation":"STEP",
					"output":39
				},
				{
					"input":8,
					"interpolation":"LINEAR",
					"output":40
				},
				{
					"input":16,
					"interpolation":"LINEAR",
					"output":41
				},
				{
					"input":8,
					"interpolation":"STEP",
					"output":42
				},
				{
					"input":16,
					"interpolation":"LINEAR",
					"output":43
				},
				{
					"input":16,
					"interpolation":"LINEAR",
					"output":44
				},
				{
					"input":8,
					"interpolation":"STEP",
					"output":45
				},
				{
					"input":16,
					"interpolation":"LINEAR",
					"output":46
				},
				{
					"input":16,
					"interpolation":"LINEAR",
					"output":47
				},
				{
					"input":16,
					"interpolation":"LINEAR",
					"output":48
				},
				{
					"input":16,
					"interpolation":"LINEAR",
					"output":49
				},
				{
					"input":16,
					"interpolation":"LINEAR",
					"output":50
				},
				{
					"input":16,
					"interpolation":"LINEAR",
					"output":51
				}
			]
		}
	],
	"materials":[
		{
			"alphaMode":"BLEND",
			"doubleSided":true,
			"name":"Material",
			"pbrMetallicRoughness":{
				"baseColorTexture":{
					"index":0
				},
				"metallicFactor":0,
				"roughnessFactor":0.5
			}
		}
	],
	"meshes":[
		{
			"name":"\u7acb\u65b9\u4f53.005",
			"primitives":[
				{
					"attributes":{
						"POSITION":0,
						"NORMAL":1,
						"TEXCOORD_0":2,
						"TEXCOORD_1":3,
						"JOINTS_0":4,
						"WEIGHTS_0":5
					},
					"indices":6,
					"material":0
				}
			]
		}
	],
	"textures":[
		{
			"sampler":0,
			"source":0
		}
	],
	"images":[
		{
			"mimeType":"image/png",
			"name":"PlayerTex",
			"uri":"PlayerTex.png"
		}
	],
	"skins":[
		{
			"inverseBindMatrices":7,
			"joints":[
				0,
				1,
				13,
				12,
				8,
				2,
				3,
				7,
				6,
				5,
				4,
				11,
				9,
				10
			],
			"name":"\u30a2\u30fc\u30de\u30c1\u30e5\u30a2"
		}
	],
	"accessors":[
		{
			"bufferView":0,
			"componentType":5126,
			"count":527,
			"max":[
				1.4967182874679565,
				5.164496421813965,
				0.7976304292678833
			],
			"min":[
				-1.4967182874679565,
				-0.007432295475155115,
				-1.9916902780532837
			],
			"type":"VEC3"
		},
		{
			"bufferView":1,
			"componentType":5126,
			"count":527,
			"type":"VEC3"
		},
		{
			"bufferView":2,
			"componentType":5126,
			"count":527,
			"type":"VEC2"
		},
		{
			"bufferView":3,
			"componentType":5126,
			"count":527,
			"type":"VEC2"
		},
		{
			"bufferView":4,
			"componentType":5121,
			"count":527,
			"type":"VEC4"
		},
		{
			"bufferView":5,
			"componentType":5126,
			"count":527,
			"type":"VEC4"
		},
		{
			"bufferView":6,
			"componentType":5123,
			"count":624,
			"type":"SCALAR"
		},
		{
			"bufferView":7,
			"componentType":5126,
			"count":14,
			"type":"MAT4"
		},
		{
			"bufferView":8,
			"componentType":5126,
			"count":2,
			"max":[
				10.666666666666666
			],
			"min":[
				0
			],
			"type":"SCALAR"
		},
		{
			"bufferView":9,
			"componentType":5126,
			"count":2,
			"type":"VEC3"
		},
		{
			"bufferView":10,
			"componentType":5126,
			"count":2,
			"type":"VEC4"
		},
		{
			"bufferView":11,
			"componentType":5126,
			"count":2,
			"type":"VEC3"
		},
		{
			"bufferView":12,
			"componentType":5126,
			"count":2,
			"type":"VEC3"
		},
		{
			"bufferView":13,
			"componentType":5126,
			"count":2,
			"type":"VEC4"
		},
		{
			"bufferView":14,
			"componentType":5126,
			"count":2,
			"type":"VEC3"
		},
		{
			"bufferView":15,
			"componentType":5126,
			"count":2,
			"type":"VEC3"
		},
		{
			"bufferView":16,
			"componentType":5126,
			"count":641,
			"max":[
				10.666666666666666
			],
			"min":[
				0
			],
			"type":"SCALAR"
		},
		{
			"bufferView":17,
			"componentType":5126,
			"count":641,
			"type":"VEC4"
		},
		{
			"bufferView":18,
			"componentType":5126,
			"count":2,
			"type":"VEC3"
		},
		{
			"bufferView":19,
			"componentType":5126,
			"count":2,
			"type":"VEC3"
		},
		{
			"bufferView":20,
			"componentType":5126,
			"count":2,
			"type":"VEC4"
		},
		{
			"bufferView":21,
			"componentType":5126,
			"count":2,
			"type":"VEC3"
		},
		{
			"bufferView":22,
			"componentType":5126,
			"count":641,
			"type":"VEC3"
		},
		{
			"bufferView":23,
			"componentType":5126,
			"count":641,
			"type":"VEC4"
		},
		{
			"bufferView":24,
			"componentType":5126,
			"count":2,
			"type":"VEC3"
		},
		{
			"bufferView":25,
			"componentType":5126,
			"count":2,
			"type":"VEC3"
		},
		{
			"bufferView":26,
			"componentType":5126,
			"count":2,
			"type":"VEC4"
		},
		{
			"bufferView":27,
			"componentType":5126,
			"count":2,
			"type":"VEC3"
		},
		{
			"bufferView":28,
			"componentType":5126,
			"count":2,
			"type":"VEC3"
		},
		{
			"bufferView":29,
			"componentType":5126,
			"count":2,
			"type":"VEC4"
		},
		{
			"bufferView":30,
			"componentType":5126,
			"count":2,
			"type":"VEC3"
		},
		{
			"bufferView":31,
			"componentType":5126,
			"count":2,
			"type":"VEC3"
		},
		{
			"bufferView":32,
			"componentType":5126,
			"count":641,
			"type":"VEC4"
		},
		{
			"bufferView":33,
			"componentType":5126,
			"count":2,
			"type":"VEC3"
		},
		{
			"bufferView":34,
			"componentType":5126,
			"count":2,
			"type":"VEC3"
		},
		{
			"bufferView":35,
			"componentType":5126,
			"count":641,
			"type":"VEC4"
		},
		{
			"bufferView":36,
			"componentType":5126,
			"count":2,
			"type":"VEC3"
		},
		{
			"bufferView":37,
			"componentType":5126,
			"count":2,
			"type":"VEC3"
		},
		{
			"bufferView":38,
			"componentType":5126,
			"count":641,
			"type":"VEC4"
		},
		{
			"bufferView":39,
			"componentType":5126,
			"count":2,
			"type":"VEC3"
		},
		{
			"bufferView":40,
			"componentType":5126,
			"count":2,
			"type":"VEC3"
		},
		{
			"bufferView":41,
			"componentType":5126,
			"count":641,
			"type":"VEC4"
		},
		{
			"bufferView":42,
			"componentType":5126,
			"count":2,
			"type":"VEC3"
		},
		{
			"bufferView":43,
			"componentType":5126,
			"count":641,
			"type":"VEC3"
		},
		{
			"bufferView":44,
			"componentType":5126,
			"count":641,
			"type":"VEC4"
		},
		{
			"bufferView":45,
			"componentType":5126,
			"count":2,
			"type":"VEC3"
		},
		{
			"bufferView":46,
			"componentType":5126,
			"count":641,
			"type":"VEC3"
		},
		{
			"bufferView":47,
			"componentType":5126,
			"count":641,
			"type":"VEC4"
		},
		{
			"bufferView":48,
			"componentType":5126,
			"count":641,
			"type":"VEC3"
		},
		{
			"bufferView":49,
			"componentType":5126,
			"count":641,
			"type":"VEC3"
		},
		{
			"bufferView":50,
			"componentType":5126,
			"count":641,
			"type":"VEC4"
		},
		{
			"bufferView":51,
			"componentType":5126,
			"count":641,
			"type":"VEC3"
		}
	],
	"bufferViews":[
		{
			"buffer":0,
			"byteLength":6324,
			"byteOffset":0,
			"target":34962
		},
		{
			"buffer":0,
			"byteLength":6324,
			"byteOffset":6324,
			"target":34962
		},
		{
			"buffer":0,
			"byteLength":4216,
			"byteOffset":12648,
			"target":34962
		},
		{
			"buffer":0,
			"byteLength":4216,
			"byteOffset":16864,
			"target":34962
		},
		{
			"buffer":0,
			"byteLength":2108,
			"byteOffset":21080,
			"target":34962
		},
		{
			"buffer":0,
			"byteLength":8432,
			"byteOffset":23188,
			"target":34962
		},
		{
			"buffer":0,
			"byteLength":1248,
			"byteOffset":31620,
			"target":34963
		},
		{
			"buffer":0,
			"byteLength":896,
			"byteOffset":32868
		},
		{
			"buffer":0,
			"byteLength":8,
			"byteOffset":33764
		},
		{
			"buffer":0,
			"byteLength":24,
			"byteOffset":33772
		},
		{
			"buffer":0,
			"byteLength":32,
			"byteOffset":33796
		},
		{
			"buffer":0,
			"byteLength":24,
			"byteOffset":33828
		},
		{
			"buffer":0,
			"byteLength":24,
			"byteOffset":33852
		},
		{
			"buffer":0,
			"byteLength":32,
			"byteOffset":33876
		},
		{
			"buffer":0,
			"byteLength":24,
			"byteOffset":33908
		},
		{
			"buffer":0,
			"byteLength":24,
			"byteOffset":33932
		},
		{
			"buffer":0,
			"byteLength":2564,
			"byteOffset":33956
		},
		{
			"buffer":0,
			"byteLength":10256,
			"byteOffset":36520
		},
		{
			"buffer":0,
			"byteLength":24,
			"byteOffset":46776
		},
		{
			"buffer":0,
			"byteLength":24,
			"byteOffset":46800
		},
		{
			"buffer":0,
			"byteLength":32,
			"byteOffset":46824
		},
		{
			"buffer":0,
			"byteLength":24,
			"byteOffset":46856
		},
		{
			"buffer":0,
			"byteLength":7692,
			"byteOffset":46880
		},
		{
			"buffer":0,
			"byteLength":10256,
			"byteOffset":54572
		},
		{
			"buffer":0,
			"byteLength":24,
			"byteOffset":64828
		},
		{
			"buffer":0,
			"byteLength":24,
			"byteOffset":64852
		},
		{
			"buffer":0,
			"byteLength":32,
			"byteOffset":64876
		},
		{
			"buffer":0,
			"byteLength":24,
			"byteOffset":64908
		},
		{
			"buffer":0,
			"byteLength":24,
			"byteOffset":64932
		},
		{
			"buffer":0,
			"byteLength":32,
			"byteOffset":64956
		},
		{
			"buffer":0,
			"byteLength":24,
			"byteOffset":64988
		},
		{
			"buffer":0,
			"byteLength":24,
			"byteOffset":65012
		},
		{
			"buffer":0,
			"byteLength":10256,
			"byteOffset":65036
		},
		{
			"buffer":0,
			"byteLength":24,
			"byteOffset":75292
		},
		{
			"buffer":0,
			"byteLength":24,
			"byteOffset":75316
		},
		{
			"buffer":0,
			"byteLength":10256,
			"byteOffset":75340
		},
		{
			"buffer":0,
			"byteLength":24,
			"byteOffset":85596
		},
		{
			"buffer":0,
			"byteLength":24,
			"byteOffset":85620
		},
		{
			"buffer":0,
			"byteLength":10256,
			"byteOffset":85644
		},
		{
			"buffer":0,
			"byteLength":24,
			"byteOffset":95900
		},
		{
			"buffer":0,
			"byteLength":24,
			"byteOffset":95924
		},
		{
			"buffer":0,
			"byteLength":10256,
			"byteOffset":95948
		},
		{
			"buffer":0,
			"byteLength":24,
			"byteOffset":106204
		},
		{
			"buffer":0,
			"byteLength":7692,
			"byteOffset":106228
		},
		{
			"buffer":0,
			"byteLength":10256,
			"byteOffset":113920
		},
		{
			"buffer":0,
			"byteLength":24,
			"byteOffset":124176
		},
		{
			"buffer":0,
			"byteLength":7692,
			"byteOffset":124200
		},
		{
			"buffer":0,
			"byteLength":10256,
			"byteOffset":131892
		},
		{
			"buffer":0,
			"byteLength":7692,
			"byteOffset":142148
		},
		{
			"buffer":0,
			"byteLength":7692,
			"byteOffset":149840
		},
		{
			"buffer":0,
			"byteLength":10256,
			"byteOffset":157532
		},
		{
			"buffer":0,
			"byteLength":7692,
			"byteOffset":167788
		}
	],
	"samplers":[
		{
			"magFilter":9729,
			"minFilter":9987
		}
	],
	"buffers":[
		{
			"byteLength":175480,
			"uri":"Player_StrongAttack_4_P.bin"
		}
	]
}
