# Blender 4.1.1
# www.blender.org
mtllib bossHpGage.mtl
o 立方体.001
v 0.185821 -0.956816 -0.050553
v 0.185821 0.956816 -0.050553
v 0.244154 -0.866766 -0.050553
v 0.244154 0.866766 -0.050553
v 0.034313 -0.779247 -0.050553
v -0.084059 -0.579048 -0.050553
v -0.180857 -0.332043 -0.050553
v -0.215890 0.000000 -0.050553
v -0.180857 0.332043 -0.050553
v -0.084059 0.579048 -0.050553
v 0.034313 0.779247 -0.050553
v 0.107943 0.701207 -0.050553
v -0.003295 0.508416 -0.050553
v -0.089086 0.276457 -0.050553
v -0.108598 0.000000 -0.050553
v -0.089086 -0.276457 -0.050553
v -0.003295 -0.508416 -0.050553
v 0.107943 -0.701207 -0.050553
vn -0.0000 -0.0000 1.0000
vt 0.996277 0.995057
vt 0.005631 0.873441
vt 0.996004 0.871261
vt 0.994096 0.004684
vt 0.003996 0.130661
vt 0.003723 0.006865
vt 0.994369 0.128481
vt 0.004268 0.254458
vt 0.994642 0.252277
vt 0.004541 0.378255
vt 0.994914 0.376074
vt 0.004813 0.502051
vt 0.995459 0.623667
vt 0.995187 0.499871
vt 0.995732 0.747464
vt 0.005086 0.625848
vt 0.005358 0.749645
vt 0.005904 0.997238
s 0
usemtl マテリアル.002
f 4/1/1 11/2/1 12/3/1
f 3/4/1 5/5/1 1/6/1
f 18/7/1 6/8/1 5/5/1
f 17/9/1 7/10/1 6/8/1
f 16/11/1 8/12/1 7/10/1
f 14/13/1 8/12/1 15/14/1
f 13/15/1 9/16/1 14/13/1
f 12/3/1 10/17/1 13/15/1
f 4/1/1 2/18/1 11/2/1
f 3/4/1 18/7/1 5/5/1
f 18/7/1 17/9/1 6/8/1
f 17/9/1 16/11/1 7/10/1
f 16/11/1 15/14/1 8/12/1
f 14/13/1 9/16/1 8/12/1
f 13/15/1 10/17/1 9/16/1
f 12/3/1 11/2/1 10/17/1
