# Blender 4.2.3 LTS
# www.blender.org
mtllib playerInGame.mtl
o 立方体
v -0.121208 1.063059 1.122213
v -0.121208 1.063059 0.879797
v -0.121208 0.820643 1.122213
v -0.121208 0.820643 0.879797
v 0.121208 1.063059 1.122213
v 0.121208 1.063059 0.879797
v 0.121208 0.820643 1.122213
v 0.121208 0.820643 0.879797
v 0.541923 -0.497844 1.688976
v 0.541923 -0.497844 3.240792
v 0.541923 0.497844 1.688976
v 0.541923 0.497844 3.240792
v -0.541923 -0.497844 1.688976
v -0.541923 -0.497844 3.240792
v -0.541923 0.497844 1.688976
v -0.541923 0.497844 3.240792
v -0.660678 0.000000 3.410821
v -0.000000 -0.606940 3.410821
v 0.660678 -0.606940 2.464884
v -0.660678 0.606940 2.464884
v 0.660678 0.606940 2.464884
v -0.660678 -0.606940 2.464884
v 0.000000 0.606940 1.518947
v 0.660678 0.000000 1.518947
v 0.000000 0.606940 3.673991
v -0.660678 0.000000 1.518947
v -0.000000 -0.606940 1.518947
v 0.660678 -0.000000 3.410821
v 0.000000 0.000000 1.162125
v 0.000000 0.835887 2.464884
v -0.909896 0.000000 2.464884
v -0.000000 -0.795177 4.221519
v 0.909896 0.000000 2.464884
v -0.000000 -0.712740 2.464884
v 0.562232 -0.562232 0.438582
v 0.562232 -0.562232 1.563047
v 0.562232 0.562232 0.438582
v 0.562232 0.562232 1.563047
v -0.562232 -0.562232 0.438582
v -0.562232 -0.562232 1.563047
v -0.562232 0.562232 0.438582
v -0.562232 0.562232 1.563047
v -0.685437 0.000000 1.686252
v -0.000000 -0.685437 1.686252
v 0.685437 -0.685438 1.000815
v -0.685437 0.685438 1.000815
v 0.685437 0.685438 1.000815
v -0.685437 -0.685437 1.000815
v 0.000000 0.685438 0.315377
v 0.685437 0.000000 0.315377
v 0.000000 0.685438 1.686252
v -0.685437 0.000000 0.315377
v -0.000000 -0.685437 0.315377
v 0.685437 0.000000 1.686252
v 0.000000 0.000000 0.056820
v 0.000000 0.943995 1.000815
v -0.943995 0.000000 1.000815
v 0.000000 0.000000 1.944810
v 0.943995 0.000000 1.000815
v -0.000000 -0.943995 1.000815
vn -1.0000 -0.0000 -0.0000
vn -0.0000 -1.0000 -0.0000
vn 1.0000 -0.0000 -0.0000
vn -0.0000 1.0000 -0.0000
vn -0.0000 -0.0000 1.0000
vn -0.0000 -0.0000 -1.0000
vn 0.3455 -0.3761 -0.8598
vn -0.4221 -0.4595 -0.7815
vn -0.4221 0.4595 -0.7815
vn 0.3455 0.3761 -0.8598
vn 0.3274 0.9284 0.1758
vn 0.3221 0.9294 -0.1800
vn -0.3221 0.9294 -0.1800
vn -0.3274 0.9284 0.1758
vn -0.9216 0.3028 0.2428
vn -0.9080 0.3728 -0.1914
vn -0.9080 -0.3728 -0.1914
vn -0.9216 -0.3028 0.2428
vn -0.3455 -0.3761 0.8598
vn 0.6668 -0.7259 -0.1685
vn 0.5763 0.2973 0.7612
vn -0.6228 0.3818 0.6829
vn 0.9216 -0.3028 0.2428
vn 0.9080 -0.3728 -0.1914
vn 0.9080 0.3728 -0.1914
vn 0.9216 0.3028 0.2428
vn -0.2287 -0.9675 0.1082
vn -0.1561 -0.9746 -0.1609
vn 0.1561 -0.9746 -0.1609
vn 0.2287 -0.9675 0.1082
vn 0.4221 -0.4595 -0.7815
vn 0.4221 0.4595 -0.7815
vn 0.3221 0.9294 0.1800
vn -0.2602 0.9385 -0.2271
vn -0.3221 0.9294 0.1800
vn -0.9080 0.3728 0.1914
vn -0.9216 0.3028 -0.2428
vn -0.9080 -0.3728 0.1914
vn -0.6668 -0.7259 -0.1685
vn -0.5763 0.2973 0.7612
vn 0.2287 -0.9675 -0.1082
vn 0.1561 -0.9746 0.1609
vn 0.3397 -0.2717 -0.9004
vn -0.2717 -0.3397 -0.9004
vn -0.2717 0.3397 -0.9004
vn 0.3397 0.2717 -0.9004
vn 0.3397 0.9004 -0.2717
vn -0.3397 0.9004 -0.2717
vn -0.2718 0.9004 0.3397
vn -0.9004 0.2717 0.3397
vn -0.9004 0.3397 -0.2717
vn -0.9004 -0.2717 0.3397
vn -0.3397 -0.2717 0.9004
vn 0.2717 -0.3397 0.9004
vn 0.2717 0.3397 0.9004
vn 0.9004 -0.2717 0.3397
vn 0.9004 -0.3397 -0.2717
vn 0.9004 0.3397 -0.2717
vn 0.9004 0.2717 0.3397
vn 0.2717 -0.9004 0.3397
vn -0.9004 -0.3397 -0.2717
vn 0.2717 0.3398 0.9004
vn 0.2718 0.3397 0.9004
vn -0.2717 -0.9005 0.3396
vn -0.2717 -0.9005 0.3397
vn -0.3397 -0.9004 -0.2717
vn -0.3396 -0.9005 -0.2717
vn -0.9216 -0.3028 -0.2428
vn -0.1561 -0.9745 0.1609
vn -0.2287 -0.9675 -0.1082
vn 0.2717 -0.3397 -0.9004
vn -0.3397 -0.2717 -0.9004
vn -0.3397 0.2717 -0.9004
vn 0.2717 0.3397 -0.9004
vn 0.3397 0.9004 0.2717
vn 0.2718 0.9004 -0.3397
vn -0.2717 0.9004 -0.3397
vn -0.3397 0.9004 0.2717
vn -0.9004 0.3397 0.2717
vn -0.9004 0.2717 -0.3397
vn -0.9004 -0.2717 -0.3397
vn -0.9004 -0.3397 0.2717
vn -0.2717 -0.3397 0.9004
vn 0.3397 -0.2717 0.9004
vn 0.3397 0.2717 0.9004
vn -0.2717 0.3397 0.9004
vn 0.9004 -0.3397 0.2717
vn 0.9004 -0.2717 -0.3397
vn 0.9004 0.2717 -0.3397
vn 0.9004 0.3397 0.2717
vn -0.3397 -0.9004 0.2717
vn -0.2717 -0.9004 -0.3397
vn 0.2717 -0.9004 -0.3397
vn 0.3397 -0.9004 0.2717
vt 0.625000 0.000000
vt 0.375000 0.250000
vt 0.375000 0.000000
vt 0.625000 0.250000
vt 0.375000 0.500000
vt 0.625000 0.500000
vt 0.375000 0.750000
vt 0.625000 0.750000
vt 0.375000 1.000000
vt 0.125000 0.750000
vt 0.125000 0.500000
vt 0.875000 0.500000
vt 0.000000 0.000000
vt 0.625000 1.000000
vt 0.875000 0.750000
s 0
usemtl Material.001
f 2/1/1 3/2/1 1/3/1
f 4/4/2 7/5/2 3/2/2
f 8/6/3 5/7/3 7/5/3
f 6/8/4 1/9/4 5/7/4
f 7/5/5 1/10/5 3/11/5
f 4/12/6 6/8/6 8/6/6
f 27/13/7 24/13/7 9/13/7
f 27/13/8 26/13/8 29/13/8
f 26/13/9 23/13/9 29/13/9
f 24/13/10 23/13/10 11/13/10
f 12/13/11 30/13/11 25/13/11
f 11/13/12 30/13/12 21/13/12
f 30/13/13 15/13/13 20/13/13
f 30/13/14 16/13/14 25/13/14
f 16/13/15 31/13/15 17/13/15
f 15/13/16 31/13/16 20/13/16
f 31/13/17 13/13/17 22/13/17
f 31/13/18 14/13/18 17/13/18
f 18/13/19 17/13/19 14/13/19
f 18/13/20 28/13/20 32/13/20
f 28/13/21 25/13/21 32/13/21
f 17/13/22 25/13/22 16/13/22
f 10/13/23 33/13/23 28/13/23
f 9/13/24 33/13/24 19/13/24
f 33/13/25 11/13/25 21/13/25
f 33/13/26 12/13/26 28/13/26
f 14/13/27 34/13/27 18/13/27
f 13/13/28 34/13/28 22/13/28
f 34/13/29 9/13/29 19/13/29
f 34/13/30 10/13/30 18/13/30
f 2/1/1 4/4/1 3/2/1
f 4/4/2 8/6/2 7/5/2
f 8/6/3 6/8/3 5/7/3
f 6/8/4 2/14/4 1/9/4
f 7/5/5 5/7/5 1/10/5
f 4/12/6 2/15/6 6/8/6
f 27/13/31 29/13/31 24/13/31
f 24/13/32 29/13/32 23/13/32
f 12/13/33 21/13/33 30/13/33
f 30/13/34 23/13/34 15/13/34
f 30/13/35 20/13/35 16/13/35
f 16/13/36 20/13/36 31/13/36
f 15/13/37 26/13/37 31/13/37
f 31/13/38 22/13/38 14/13/38
f 18/13/39 32/13/39 17/13/39
f 17/13/40 32/13/40 25/13/40
f 34/13/41 27/13/41 9/13/41
f 34/13/42 19/13/42 10/13/42
usemtl Material.002
f 35/13/43 55/13/43 50/13/43
f 39/13/44 55/13/44 53/13/44
f 55/13/45 41/13/45 49/13/45
f 55/13/46 37/13/46 50/13/46
f 37/13/47 56/13/47 47/13/47
f 56/13/48 41/13/48 46/13/48
f 56/13/49 42/13/49 51/13/49
f 42/13/50 57/13/50 43/13/50
f 41/13/51 57/13/51 46/13/51
f 57/13/52 40/13/52 43/13/52
f 40/13/53 58/13/53 43/13/53
f 36/13/54 58/13/54 44/13/54
f 58/13/55 38/13/55 51/13/55
f 36/13/56 59/13/56 54/13/56
f 35/13/57 59/13/57 45/13/57
f 59/13/58 37/13/58 47/13/58
f 59/13/59 38/13/59 54/13/59
f 60/13/60 36/13/60 44/13/60
f 27/13/44 13/13/44 26/13/44
f 26/13/45 15/13/45 23/13/45
f 11/13/47 23/13/47 30/13/47
f 31/13/61 26/13/61 13/13/61
f 18/13/54 10/13/54 28/13/54
f 28/13/62 12/13/55 25/13/63
f 10/13/56 19/13/56 33/13/56
f 9/13/57 24/13/57 33/13/57
f 33/13/58 24/13/58 11/13/58
f 33/13/59 21/13/59 12/13/59
f 14/13/64 22/13/65 34/13/65
f 13/13/66 27/13/66 34/13/67
usemtl Material.003
f 38/13/33 56/13/33 51/13/33
f 57/13/68 39/13/68 48/13/68
f 58/13/40 42/13/40 43/13/40
f 40/13/69 60/13/69 44/13/69
f 39/13/70 60/13/70 48/13/70
f 60/13/41 35/13/41 45/13/41
f 35/13/71 53/13/71 55/13/71
f 39/13/72 52/13/72 55/13/72
f 55/13/73 52/13/73 41/13/73
f 55/13/74 49/13/74 37/13/74
f 38/13/75 47/13/75 56/13/75
f 37/13/76 49/13/76 56/13/76
f 56/13/77 49/13/77 41/13/77
f 56/13/78 46/13/78 42/13/78
f 42/13/79 46/13/79 57/13/79
f 41/13/80 52/13/80 57/13/80
f 57/13/81 52/13/81 39/13/81
f 57/13/82 48/13/82 40/13/82
f 40/13/83 44/13/83 58/13/83
f 36/13/84 54/13/84 58/13/84
f 58/13/85 54/13/85 38/13/85
f 58/13/86 51/13/86 42/13/86
f 36/13/87 45/13/87 59/13/87
f 35/13/88 50/13/88 59/13/88
f 59/13/89 50/13/89 37/13/89
f 59/13/90 47/13/90 38/13/90
f 40/13/91 48/13/91 60/13/91
f 39/13/92 53/13/92 60/13/92
f 60/13/93 53/13/93 35/13/93
f 60/13/94 45/13/94 36/13/94
