# Blender 4.3.0
# www.blender.org
mtllib EntityShadow.mtl
o 円
v 0.000000 0.067524 -1.000000
v -0.195090 0.067524 -0.980785
v -0.382683 0.067524 -0.923880
v -0.555570 0.067524 -0.831470
v -0.707107 0.067524 -0.707107
v -0.831470 0.067524 -0.555570
v -0.923880 0.067524 -0.382683
v -0.980785 0.067524 -0.195090
v -1.000000 0.067524 0.000000
v -0.980785 0.067524 0.195090
v -0.923880 0.067524 0.382683
v -0.831470 0.067524 0.555570
v -0.707107 0.067524 0.707107
v -0.555570 0.067524 0.831470
v -0.382683 0.067524 0.923880
v -0.195090 0.067524 0.980785
v 0.000000 0.067524 1.000000
v 0.195090 0.067524 0.980785
v 0.382683 0.067524 0.923880
v 0.555570 0.067524 0.831470
v 0.707107 0.067524 0.707107
v 0.831470 0.067524 0.555570
v 0.923880 0.067524 0.382683
v 0.980785 0.067524 0.195090
v 1.000000 0.067524 0.000000
v 0.980785 0.067524 -0.195090
v 0.923880 0.067524 -0.382683
v 0.831470 0.067524 -0.555570
v 0.707107 0.067524 -0.707107
v 0.555570 0.067524 -0.831470
v 0.382683 0.067524 -0.923880
v 0.195090 0.067524 -0.980785
v 0.000000 -0.261149 -1.399411
v -0.273012 -0.261149 -1.372522
v -0.535532 -0.261149 -1.292887
v -0.777471 -0.261149 -1.163568
v -0.989533 -0.261149 -0.989533
v -1.163568 -0.261149 -0.777471
v -1.292887 -0.261149 -0.535532
v -1.372522 -0.261149 -0.273012
v -1.399411 -0.261149 0.000000
v -1.372522 -0.261149 0.273012
v -1.292887 -0.261149 0.535532
v -1.163568 -0.261149 0.777471
v -0.989533 -0.261149 0.989533
v -0.777471 -0.261149 1.163568
v -0.535532 -0.261149 1.292887
v -0.273012 -0.261149 1.372522
v 0.000000 -0.261149 1.399411
v 0.273012 -0.261149 1.372522
v 0.535532 -0.261149 1.292887
v 0.777471 -0.261149 1.163568
v 0.989533 -0.261149 0.989533
v 1.163568 -0.261149 0.777471
v 1.292887 -0.261149 0.535532
v 1.372522 -0.261149 0.273012
v 1.399411 -0.261149 0.000000
v 1.372522 -0.261149 -0.273012
v 1.292887 -0.261149 -0.535532
v 1.163568 -0.261149 -0.777471
v 0.989533 -0.261149 -0.989533
v 0.777471 -0.261149 -1.163568
v 0.535532 -0.261149 -1.292887
v 0.273012 -0.261149 -1.372522
vn -0.0000 0.9345 -0.3559
vn -0.0694 0.9345 -0.3491
vn -0.1362 0.9345 -0.3288
vn -0.1977 0.9345 -0.2959
vn -0.2517 0.9345 -0.2517
vn -0.2959 0.9345 -0.1977
vn -0.3288 0.9345 -0.1362
vn -0.3491 0.9345 -0.0694
vn -0.3559 0.9345 -0.0000
vn -0.3491 0.9345 0.0694
vn -0.3288 0.9345 0.1362
vn -0.2959 0.9345 0.1977
vn -0.2517 0.9345 0.2517
vn -0.1977 0.9345 0.2959
vn -0.1362 0.9345 0.3288
vn -0.0694 0.9345 0.3491
vn -0.0000 0.9345 0.3559
vn 0.0694 0.9345 0.3491
vn 0.1362 0.9345 0.3288
vn 0.1977 0.9345 0.2959
vn 0.2517 0.9345 0.2517
vn 0.2959 0.9345 0.1977
vn 0.3288 0.9345 0.1362
vn 0.3491 0.9345 0.0694
vn 0.3559 0.9345 -0.0000
vn 0.3491 0.9345 -0.0694
vn 0.3288 0.9345 -0.1362
vn 0.2959 0.9345 -0.1977
vn 0.2517 0.9345 -0.2517
vn 0.1977 0.9345 -0.2959
vn 0.1362 0.9345 -0.3288
vn 0.0694 0.9345 -0.3491
vn -0.0000 -0.3202 -0.9474
vn -0.1848 -0.3202 -0.9292
vn -0.3625 -0.3202 -0.8752
vn -0.5263 -0.3202 -0.7877
vn -0.6699 -0.3202 -0.6699
vn -0.7877 -0.3202 -0.5263
vn -0.8752 -0.3202 -0.3625
vn -0.9292 -0.3202 -0.1848
vn -0.9474 -0.3202 -0.0000
vn -0.9292 -0.3202 0.1848
vn -0.8752 -0.3202 0.3625
vn -0.7877 -0.3202 0.5263
vn -0.6699 -0.3202 0.6699
vn -0.5263 -0.3202 0.7877
vn -0.3625 -0.3202 0.8752
vn -0.1848 -0.3202 0.9292
vn -0.0000 -0.3202 0.9474
vn 0.1848 -0.3202 0.9292
vn 0.3625 -0.3202 0.8752
vn 0.5263 -0.3202 0.7877
vn 0.6699 -0.3202 0.6699
vn 0.7877 -0.3202 0.5263
vn 0.8752 -0.3202 0.3625
vn 0.9292 -0.3202 0.1848
vn 0.9474 -0.3202 -0.0000
vn 0.9292 -0.3202 -0.1848
vn 0.8752 -0.3202 -0.3625
vn 0.7877 -0.3202 -0.5263
vn 0.6699 -0.3202 -0.6699
vn 0.5263 -0.3202 -0.7877
vn 0.3625 -0.3202 -0.8752
vn 0.1848 -0.3202 -0.9292
vt 0.111236 0.136119
vt 0.136119 0.111236
vt 0.165379 0.091685
vt 0.197891 0.078219
vt 0.232405 0.071353
vt 0.267595 0.071353
vt 0.302109 0.078219
vt 0.334621 0.091685
vt 0.363880 0.111236
vt 0.388764 0.136119
vt 0.408314 0.165379
vt 0.421781 0.197891
vt 0.428647 0.232405
vt 0.428647 0.267595
vt 0.421781 0.302109
vt 0.408315 0.334621
vt 0.388764 0.363880
vt 0.363881 0.388764
vt 0.334621 0.408314
vt 0.302109 0.421781
vt 0.267595 0.428647
vt 0.232405 0.428647
vt 0.197891 0.421781
vt 0.165379 0.408315
vt 0.136119 0.388764
vt 0.111236 0.363881
vt 0.091686 0.334621
vt 0.078219 0.302109
vt 0.071353 0.267595
vt 0.071353 0.232405
vt 0.078219 0.197891
vt 0.091685 0.165379
vt 0.055812 0.590634
vt 0.090634 0.555812
vt 0.131581 0.528453
vt 0.177078 0.509607
vt 0.225377 0.500000
vt 0.274623 0.500000
vt 0.322922 0.509607
vt 0.368419 0.528453
vt 0.409366 0.555812
vt 0.444188 0.590634
vt 0.471547 0.631581
vt 0.490393 0.677078
vt 0.500000 0.725377
vt 0.500000 0.774623
vt 0.490393 0.822922
vt 0.471547 0.868419
vt 0.444188 0.909366
vt 0.409366 0.944188
vt 0.368419 0.971547
vt 0.322922 0.990393
vt 0.274623 1.000000
vt 0.225377 1.000000
vt 0.177078 0.990393
vt 0.131581 0.971547
vt 0.090634 0.944188
vt 0.055812 0.909366
vt 0.028453 0.868419
vt 0.009607 0.822922
vt -0.000000 0.774623
vt -0.000000 0.725377
vt 0.009607 0.677078
vt 0.028453 0.631581
vt 0.368419 0.028453
vt 0.409366 0.055812
vt 0.225377 0.500000
vt 0.177078 0.490393
vt 0.444188 0.090634
vt 0.131581 0.471547
vt 0.471547 0.131581
vt 0.090634 0.444188
vt 0.490393 0.177078
vt 0.055812 0.409366
vt 0.500000 0.225377
vt 0.028453 0.368419
vt 0.500000 0.274623
vt 0.028453 0.131581
vt 0.055812 0.090634
vt 0.009607 0.322922
vt 0.490393 0.322922
vt 0.090634 0.055812
vt -0.000000 0.274623
vt 0.471547 0.368419
vt 0.131581 0.028453
vt -0.000000 0.225377
vt 0.444188 0.409366
vt 0.177078 0.009607
vt 0.009607 0.177078
vt 0.409366 0.444188
vt 0.225377 0.000000
vt 0.368419 0.471547
vt 0.274623 -0.000000
vt 0.322922 0.490393
vt 0.322922 0.009607
vt 0.274623 0.500000
s 1
usemtl マテリアル
f 2/1/2 3/2/3 4/3/4 5/4/5 6/5/6 7/6/7 8/7/8 9/8/9 10/9/10 11/10/11 12/11/12 13/12/13 14/13/14 15/14/15 16/15/16 17/16/17 18/17/18 19/18/19 20/19/20 21/20/21 22/21/22 23/22/23 24/23/24 25/24/25 26/25/26 27/26/27 28/27/28 29/28/29 30/29/30 31/30/31 32/31/32 1/32/1
f 34/33/34 33/34/33 64/35/64 63/36/63 62/37/62 61/38/61 60/39/60 59/40/59 58/41/58 57/42/57 56/43/56 55/44/55 54/45/54 53/46/53 52/47/52 51/48/51 50/49/50 49/50/49 48/51/48 47/52/47 46/53/46 45/54/45 44/55/44 43/56/43 42/57/42 41/58/41 40/59/40 39/60/39 38/61/38 37/62/37 36/63/36 35/64/35
f 9/8/9 41/65/41 42/66/42 10/9/10
f 23/22/23 55/67/55 56/68/56 24/23/24
f 10/9/10 42/66/42 43/69/43 11/10/11
f 24/23/24 56/68/56 57/70/57 25/24/25
f 11/10/11 43/69/43 44/71/44 12/11/12
f 25/24/25 57/70/57 58/72/58 26/25/26
f 12/11/12 44/71/44 45/73/45 13/12/13
f 26/25/26 58/72/58 59/74/59 27/26/27
f 13/12/13 45/73/45 46/75/46 14/13/14
f 27/26/27 59/74/59 60/76/60 28/27/28
f 14/13/14 46/75/46 47/77/47 15/14/15
f 1/32/1 33/78/33 34/79/34 2/1/2
f 28/27/28 60/76/60 61/80/61 29/28/29
f 15/14/15 47/77/47 48/81/48 16/15/16
f 2/1/2 34/79/34 35/82/35 3/2/3
f 29/28/29 61/80/61 62/83/62 30/29/30
f 16/15/16 48/81/48 49/84/49 17/16/17
f 3/2/3 35/82/35 36/85/36 4/3/4
f 30/29/30 62/83/62 63/86/63 31/30/31
f 17/16/17 49/84/49 50/87/50 18/17/18
f 4/3/4 36/85/36 37/88/37 5/4/5
f 31/30/31 63/86/63 64/89/64 32/31/32
f 18/17/18 50/87/50 51/90/51 19/18/19
f 5/4/5 37/88/37 38/91/38 6/5/6
f 32/31/32 64/89/64 33/78/33 1/32/1
f 19/18/19 51/90/51 52/92/52 20/19/20
f 6/5/6 38/91/38 39/93/39 7/6/7
f 20/19/20 52/92/52 53/94/53 21/20/21
f 7/6/7 39/93/39 40/95/40 8/7/8
f 21/20/21 53/94/53 54/96/54 22/21/22
f 8/7/8 40/95/40 41/65/41 9/8/9
f 22/21/22 54/96/54 55/67/55 23/22/23
