# Blender 4.4.3
# www.blender.org
mtllib enemy_main.mtl
o 球
v 0.343997 1.629928 -1.089751
v 0.343997 1.561886 -1.103285
v 0.343997 1.493844 -1.089751
v 0.343997 1.397618 -0.993525
v 0.370035 1.726153 -0.988346
v 0.392109 1.687610 -1.041638
v 0.406859 1.629928 -1.077247
v 0.412038 1.561886 -1.089751
v 0.406859 1.493844 -1.077247
v 0.392109 1.436161 -1.041638
v 0.370035 1.397618 -0.988346
v 0.392109 1.726153 -0.973596
v 0.432897 1.687610 -1.014385
v 0.460151 1.629928 -1.041638
v 0.469721 1.561886 -1.051208
v 0.460151 1.493844 -1.041638
v 0.432897 1.436161 -1.014385
v 0.392109 1.397618 -0.973596
v 0.406859 1.726153 -0.951522
v 0.460151 1.687610 -0.973596
v 0.495760 1.629928 -0.988346
v 0.508264 1.561886 -0.993525
v 0.495760 1.493844 -0.988346
v 0.460151 1.436161 -0.973596
v 0.406859 1.397618 -0.951522
v 0.412038 1.726153 -0.925484
v 0.469721 1.687610 -0.925484
v 0.508264 1.629928 -0.925484
v 0.521798 1.561886 -0.925484
v 0.508264 1.493844 -0.925484
v 0.469721 1.436161 -0.925484
v 0.412038 1.397618 -0.925484
v 0.406859 1.726153 -0.899445
v 0.460151 1.687610 -0.877371
v 0.495760 1.629928 -0.862621
v 0.508264 1.561886 -0.857442
v 0.495760 1.493844 -0.862621
v 0.460151 1.436161 -0.877371
v 0.406859 1.397618 -0.899445
v 0.392109 1.726153 -0.877371
v 0.432897 1.687610 -0.836583
v 0.460151 1.629928 -0.809329
v 0.469721 1.561886 -0.799759
v 0.460151 1.493844 -0.809329
v 0.432897 1.436161 -0.836583
v 0.392109 1.397618 -0.877371
v 0.370035 1.726153 -0.862621
v 0.392109 1.687610 -0.809329
v 0.406859 1.629928 -0.773721
v 0.412038 1.561886 -0.761216
v 0.406859 1.493844 -0.773721
v 0.392109 1.436161 -0.809329
v 0.370035 1.397618 -0.862621
v 0.343997 1.726153 -0.857442
v 0.343997 1.687610 -0.799759
v 0.343997 1.629928 -0.761216
v 0.343996 1.561886 -0.747682
v 0.343997 1.493844 -0.761216
v 0.343997 1.436161 -0.799759
v 0.343997 1.397618 -0.857442
v 0.343997 1.384084 -0.925484
v 0.343997 1.739687 -0.925484
v 0.317958 1.726153 -0.862621
v 0.295884 1.687610 -0.809329
v 0.281134 1.629928 -0.773721
v 0.275955 1.561886 -0.761216
v 0.281134 1.493844 -0.773721
v 0.295884 1.436161 -0.809329
v 0.317958 1.397618 -0.862621
v 0.295884 1.726153 -0.877371
v 0.255096 1.687610 -0.836583
v 0.227842 1.629928 -0.809329
v 0.218272 1.561886 -0.799759
v 0.227842 1.493844 -0.809329
v 0.255096 1.436161 -0.836583
v 0.295884 1.397618 -0.877371
v 0.281134 1.726153 -0.899445
v 0.227842 1.687610 -0.877371
v 0.192233 1.629928 -0.862621
v 0.179729 1.561886 -0.857442
v 0.192233 1.493844 -0.862621
v 0.227842 1.436161 -0.877371
v 0.281134 1.397618 -0.899445
v 0.275955 1.726153 -0.925484
v 0.218272 1.687610 -0.925484
v 0.179729 1.629928 -0.925484
v 0.166195 1.561886 -0.925484
v 0.179729 1.493844 -0.925484
v 0.218272 1.436161 -0.925484
v 0.275955 1.397618 -0.925484
v 0.281134 1.726153 -0.951522
v 0.227842 1.687610 -0.973597
v 0.192233 1.629928 -0.988346
v 0.179729 1.561886 -0.993526
v 0.192233 1.493844 -0.988346
v 0.227842 1.436161 -0.973597
v 0.281134 1.397618 -0.951522
v 0.295884 1.726153 -0.973597
v 0.255096 1.687610 -1.014385
v 0.227842 1.629928 -1.041638
v 0.218272 1.561886 -1.051208
v 0.227842 1.493844 -1.041638
v 0.255096 1.436161 -1.014385
v 0.295884 1.397618 -0.973597
v 0.317958 1.726153 -0.988346
v 0.295884 1.687610 -1.041638
v 0.281134 1.629928 -1.077247
v 0.275955 1.561886 -1.089751
v 0.281134 1.493844 -1.077247
v 0.295884 1.436161 -1.041638
v 0.317958 1.397618 -0.988346
v 0.343997 1.726153 -0.993525
v 0.343997 1.687610 -1.051208
v 0.343997 1.436161 -1.051208
v -0.343997 1.629928 -1.089751
v -0.343997 1.561886 -1.103285
v -0.343997 1.493844 -1.089751
v -0.343997 1.397618 -0.993526
v -0.370035 1.726153 -0.988346
v -0.392109 1.687610 -1.041638
v -0.406859 1.629928 -1.077247
v -0.412038 1.561886 -1.089751
v -0.406859 1.493844 -1.077247
v -0.392109 1.436161 -1.041638
v -0.370035 1.397618 -0.988346
v -0.392109 1.726153 -0.973597
v -0.432897 1.687610 -1.014385
v -0.460151 1.629928 -1.041638
v -0.469721 1.561886 -1.051208
v -0.460151 1.493844 -1.041638
v -0.432897 1.436161 -1.014385
v -0.392109 1.397618 -0.973597
v -0.406859 1.726153 -0.951522
v -0.460151 1.687610 -0.973597
v -0.495760 1.629928 -0.988346
v -0.508264 1.561886 -0.993526
v -0.495760 1.493844 -0.988346
v -0.460151 1.436161 -0.973597
v -0.406859 1.397618 -0.951522
v -0.412038 1.726153 -0.925484
v -0.469721 1.687610 -0.925484
v -0.508264 1.629928 -0.925484
v -0.521798 1.561886 -0.925484
v -0.508264 1.493844 -0.925484
v -0.469721 1.436161 -0.925484
v -0.412038 1.397618 -0.925484
v -0.406859 1.726153 -0.899445
v -0.460151 1.687610 -0.877371
v -0.495760 1.629928 -0.862621
v -0.508264 1.561886 -0.857442
v -0.495760 1.493844 -0.862621
v -0.460151 1.436161 -0.877371
v -0.406859 1.397618 -0.899445
v -0.392109 1.726153 -0.877371
v -0.432897 1.687610 -0.836583
v -0.460151 1.629928 -0.809329
v -0.469721 1.561886 -0.799759
v -0.460151 1.493844 -0.809329
v -0.432897 1.436161 -0.836583
v -0.392109 1.397618 -0.877371
v -0.370035 1.726153 -0.862621
v -0.392109 1.687610 -0.809329
v -0.406859 1.629928 -0.773721
v -0.412038 1.561886 -0.761217
v -0.406859 1.493844 -0.773721
v -0.392109 1.436161 -0.809329
v -0.370035 1.397618 -0.862621
v -0.343997 1.726153 -0.857442
v -0.343996 1.687610 -0.799759
v -0.343996 1.629928 -0.761217
v -0.343996 1.561886 -0.747682
v -0.343996 1.493844 -0.761217
v -0.343996 1.436161 -0.799759
v -0.343997 1.397618 -0.857442
v -0.343997 1.384084 -0.925484
v -0.343997 1.739687 -0.925484
v -0.317958 1.726153 -0.862621
v -0.295884 1.687610 -0.809329
v -0.281134 1.629928 -0.773721
v -0.275955 1.561886 -0.761217
v -0.281134 1.493844 -0.773721
v -0.295884 1.436161 -0.809329
v -0.317958 1.397618 -0.862621
v -0.295884 1.726153 -0.877371
v -0.255096 1.687610 -0.836583
v -0.227842 1.629928 -0.809329
v -0.218272 1.561886 -0.799759
v -0.227842 1.493844 -0.809329
v -0.255096 1.436161 -0.836583
v -0.295884 1.397618 -0.877371
v -0.281134 1.726153 -0.899445
v -0.227842 1.687610 -0.877371
v -0.192233 1.629928 -0.862621
v -0.179729 1.561886 -0.857442
v -0.192233 1.493844 -0.862621
v -0.227842 1.436161 -0.877371
v -0.281134 1.397618 -0.899445
v -0.275955 1.726153 -0.925484
v -0.218272 1.687610 -0.925484
v -0.179729 1.629928 -0.925484
v -0.166195 1.561886 -0.925484
v -0.179729 1.493844 -0.925484
v -0.218272 1.436161 -0.925484
v -0.275955 1.397618 -0.925484
v -0.281134 1.726153 -0.951522
v -0.227842 1.687610 -0.973597
v -0.192233 1.629928 -0.988346
v -0.179729 1.561886 -0.993526
v -0.192233 1.493844 -0.988346
v -0.227842 1.436161 -0.973597
v -0.281134 1.397618 -0.951522
v -0.295884 1.726153 -0.973597
v -0.255096 1.687610 -1.014385
v -0.227842 1.629928 -1.041638
v -0.218272 1.561886 -1.051208
v -0.227842 1.493844 -1.041638
v -0.255096 1.436161 -1.014385
v -0.295884 1.397618 -0.973597
v -0.317958 1.726153 -0.988346
v -0.295884 1.687610 -1.041638
v -0.281134 1.629928 -1.077247
v -0.275955 1.561886 -1.089751
v -0.281134 1.493844 -1.077247
v -0.295884 1.436161 -1.041638
v -0.317958 1.397618 -0.988346
v -0.343997 1.726153 -0.993526
v -0.343997 1.687610 -1.051208
v -0.343997 1.436161 -1.051208
v 0.500000 0.983643 -0.500000
v 0.500000 -0.016358 -0.500000
v 0.500000 0.983643 0.500000
v 0.500000 -0.016357 0.500000
v -0.500000 0.983643 -0.500000
v -0.500000 -0.016358 -0.500000
v -0.500000 0.983643 0.500000
v -0.500000 -0.016358 0.500000
v -0.572933 -0.022543 -0.296650
v -0.609568 -0.059178 -0.000000
v -0.572933 -0.022543 0.296650
v 0.296650 -0.022543 -0.572933
v 0.000000 -0.059178 -0.609568
v -0.296650 -0.022543 -0.572933
v 0.572933 0.780293 -0.572933
v 0.609568 0.483643 -0.609568
v 0.572933 0.186993 -0.572933
v -0.572933 0.186993 0.572933
v -0.609568 0.483643 0.609568
v -0.572933 0.780293 0.572933
v 0.572933 0.780293 0.572933
v 0.609568 0.483643 0.609568
v 0.572933 0.186993 0.572933
v -0.572933 0.780293 -0.572933
v -0.609568 0.483643 -0.609568
v -0.572933 0.186993 -0.572933
v 0.296650 1.056575 0.572933
v 0.000000 1.093211 0.609568
v -0.296650 1.056575 0.572933
v 0.572933 1.056575 -0.296650
v 0.609568 1.093210 -0.000000
v 0.572933 1.056575 0.296650
v -0.296650 -0.022543 0.572933
v 0.000000 -0.059178 0.609568
v 0.296650 -0.022543 0.572933
v -0.572933 1.056575 0.296650
v -0.609568 1.093210 -0.000000
v -0.572933 1.056575 -0.296650
v -0.296650 1.056575 -0.572933
v 0.000000 1.093210 -0.609568
v 0.296650 1.056575 -0.572933
v 0.572933 -0.022543 0.296650
v 0.609568 -0.059178 -0.000000
v 0.572933 -0.022543 -0.296650
v 0.316157 1.212632 -0.316157
v 0.000000 1.265471 -0.333141
v -0.316157 1.212633 -0.316157
v 0.333141 1.265471 -0.000000
v 0.000000 1.323149 -0.000000
v -0.333140 1.265471 -0.000000
v 0.316157 1.212633 0.316157
v 0.000000 1.265471 0.333140
v -0.316157 1.212632 0.316157
v 0.316157 0.167485 0.728990
v 0.333141 0.483643 0.781829
v 0.316157 0.799800 0.728990
v 0.000000 0.150502 0.781829
v 0.000000 0.483643 0.839506
v 0.000000 0.816783 0.781829
v -0.316157 0.167485 0.728990
v -0.333140 0.483643 0.781829
v -0.316157 0.799800 0.728990
v -0.728990 0.167485 0.316157
v -0.781829 0.483643 0.333140
v -0.728990 0.799800 0.316157
v -0.781829 0.150502 -0.000000
v -0.839506 0.483643 -0.000000
v -0.781829 0.816783 -0.000000
v -0.728990 0.167485 -0.316157
v -0.781829 0.483643 -0.333141
v -0.728990 0.799800 -0.316157
v -0.316157 -0.073157 -0.316157
v 0.000000 -0.083050 -0.333141
v 0.316157 -0.073157 -0.316157
v -0.333140 -0.083050 -0.000000
v 0.000000 -0.119908 -0.000000
v 0.333141 -0.083050 -0.000000
v -0.316157 -0.073157 0.316157
v 0.000000 -0.083050 0.333140
v 0.316157 -0.073157 0.316157
v 0.728990 0.167485 -0.316157
v 0.781829 0.483643 -0.333141
v 0.728990 0.799800 -0.316157
v 0.781829 0.150502 -0.000000
v 0.839506 0.483643 -0.000000
v 0.781829 0.816783 -0.000000
v 0.728990 0.167485 0.316157
v 0.781829 0.483643 0.333140
v 0.728990 0.799800 0.316157
v -0.316157 0.167485 -0.728990
v -0.333140 0.483643 -0.781829
v -0.316157 0.799800 -0.728990
v 0.000000 0.150502 -0.781829
v 0.000000 0.483643 -0.839506
v 0.000000 0.816783 -0.781829
v 0.316157 0.167485 -0.728990
v 0.333141 0.483643 -0.781829
v 0.316157 0.799800 -0.728990
v 0.347041 0.849148 -0.137106
v 0.347041 1.603701 -1.023191
v 0.323845 0.849148 -0.146714
v 0.323845 1.594269 -1.021357
v 0.314237 0.849148 -0.169910
v 0.314237 1.571500 -1.016927
v 0.323845 0.849148 -0.193106
v 0.323845 1.548731 -1.012497
v 0.347041 0.849148 -0.202715
v 0.347041 1.539299 -1.010662
v 0.370237 0.849148 -0.193106
v 0.370237 1.548731 -1.012497
v 0.379845 0.849148 -0.169910
v 0.379845 1.571500 -1.016927
v 0.370237 0.849148 -0.146714
v 0.370237 1.594269 -1.021357
v 0.347041 1.521417 -0.338669
v 0.323845 1.514291 -0.345114
v 0.314237 1.497086 -0.360673
v 0.323845 1.479882 -0.376232
v 0.347041 1.472756 -0.382677
v 0.370237 1.479882 -0.376232
v 0.379845 1.497086 -0.360673
v 0.370237 1.514291 -0.345114
v 0.323845 1.199107 -0.152795
v 0.314237 1.189996 -0.174127
v 0.323845 1.180884 -0.195459
v 0.347041 1.177110 -0.204295
v 0.370237 1.180884 -0.195459
v 0.379845 1.189996 -0.174127
v 0.370237 1.199107 -0.152795
v 0.347041 1.202882 -0.143960
v 0.347041 1.671359 -0.675429
v 0.323845 1.661928 -0.673594
v 0.314237 1.639159 -0.669165
v 0.323845 1.616390 -0.664735
v 0.347041 1.606958 -0.662900
v 0.370237 1.616390 -0.664735
v 0.379845 1.639159 -0.669165
v 0.370237 1.661928 -0.673594
v 0.347041 1.371565 -0.216011
v 0.323845 1.367791 -0.224847
v 0.314237 1.358680 -0.246178
v 0.323845 1.349568 -0.267510
v 0.347041 1.345794 -0.276346
v 0.370237 1.349568 -0.267510
v 0.379845 1.358680 -0.246178
v 0.370237 1.367791 -0.224847
v 0.323845 1.020003 -0.146714
v 0.314237 1.020003 -0.169910
v 0.323845 1.020003 -0.193106
v 0.347041 1.020003 -0.202715
v 0.370237 1.020003 -0.193106
v 0.379845 1.020003 -0.169910
v 0.370237 1.020003 -0.146714
v 0.347041 1.020003 -0.137106
v 0.323845 1.620296 -0.493910
v 0.314237 1.598892 -0.502851
v 0.323845 1.577489 -0.511793
v 0.347041 1.568623 -0.515497
v 0.370237 1.577489 -0.511793
v 0.379845 1.598892 -0.502851
v 0.370237 1.620296 -0.493910
v 0.347041 1.629161 -0.490206
v 0.347041 1.637530 -0.849311
v 0.323845 1.628099 -0.847476
v 0.314237 1.605329 -0.843046
v 0.323845 1.582560 -0.838616
v 0.347041 1.573129 -0.836781
v 0.370237 1.582560 -0.838616
v 0.379845 1.605329 -0.843046
v 0.370237 1.628099 -0.847476
v -0.347041 0.849148 -0.137106
v -0.347041 1.603701 -1.023191
v -0.323845 0.849148 -0.146714
v -0.323845 1.594269 -1.021357
v -0.314237 0.849148 -0.169910
v -0.314237 1.571500 -1.016927
v -0.323845 0.849148 -0.193106
v -0.323845 1.548731 -1.012497
v -0.347041 0.849148 -0.202715
v -0.347041 1.539299 -1.010662
v -0.370237 0.849148 -0.193106
v -0.370237 1.548731 -1.012497
v -0.379845 0.849148 -0.169910
v -0.379845 1.571500 -1.016927
v -0.370237 0.849148 -0.146714
v -0.370237 1.594269 -1.021357
v -0.347041 1.521417 -0.338669
v -0.323845 1.514291 -0.345114
v -0.314237 1.497086 -0.360673
v -0.323845 1.479882 -0.376232
v -0.347041 1.472756 -0.382677
v -0.370237 1.479882 -0.376232
v -0.379845 1.497086 -0.360673
v -0.370237 1.514291 -0.345114
v -0.323845 1.199107 -0.152795
v -0.314237 1.189996 -0.174127
v -0.323845 1.180884 -0.195459
v -0.347041 1.177110 -0.204295
v -0.370237 1.180884 -0.195459
v -0.379845 1.189996 -0.174127
v -0.370237 1.199107 -0.152795
v -0.347041 1.202882 -0.143960
v -0.347041 1.671359 -0.675429
v -0.323845 1.661928 -0.673594
v -0.314237 1.639159 -0.669165
v -0.323845 1.616390 -0.664735
v -0.347041 1.606958 -0.662900
v -0.370237 1.616390 -0.664735
v -0.379845 1.639159 -0.669165
v -0.370237 1.661928 -0.673594
v -0.347041 1.371565 -0.216011
v -0.323845 1.367791 -0.224847
v -0.314237 1.358680 -0.246178
v -0.323845 1.349568 -0.267510
v -0.347041 1.345794 -0.276346
v -0.370237 1.349568 -0.267510
v -0.379845 1.358680 -0.246178
v -0.370237 1.367791 -0.224847
v -0.323845 1.020003 -0.146714
v -0.314237 1.020003 -0.169910
v -0.323845 1.020003 -0.193106
v -0.347041 1.020003 -0.202715
v -0.370237 1.020003 -0.193106
v -0.379845 1.020003 -0.169910
v -0.370237 1.020003 -0.146714
v -0.347041 1.020003 -0.137106
v -0.323845 1.620296 -0.493910
v -0.314237 1.598892 -0.502851
v -0.323845 1.577489 -0.511793
v -0.347041 1.568623 -0.515497
v -0.370237 1.577489 -0.511793
v -0.379845 1.598892 -0.502851
v -0.370237 1.620296 -0.493910
v -0.347041 1.629161 -0.490206
v -0.347041 1.637530 -0.849311
v -0.323845 1.628099 -0.847476
v -0.314237 1.605329 -0.843046
v -0.323845 1.582560 -0.838616
v -0.347041 1.573129 -0.836781
v -0.370237 1.582560 -0.838616
v -0.379845 1.605329 -0.843046
v -0.370237 1.628099 -0.847476
vn -0.0000 0.3744 -0.9273
vn -0.0000 -0.0000 -1.0000
vn -0.0000 -0.3744 -0.9273
vn -0.0000 -0.9152 -0.4031
vn 0.1543 0.9152 -0.3724
vn 0.2751 0.6952 -0.6641
vn 0.3549 0.3744 -0.8567
vn 0.3827 -0.0000 -0.9239
vn 0.3549 -0.3744 -0.8567
vn 0.2751 -0.6952 -0.6641
vn 0.1543 -0.9152 -0.3724
vn 0.2850 0.9152 -0.2850
vn 0.5083 0.6952 -0.5083
vn 0.6557 0.3744 -0.6557
vn 0.7071 -0.0000 -0.7071
vn 0.6557 -0.3744 -0.6557
vn 0.5083 -0.6952 -0.5083
vn 0.2850 -0.9152 -0.2850
vn 0.3724 0.9152 -0.1543
vn 0.6641 0.6952 -0.2751
vn 0.8567 0.3744 -0.3549
vn 0.9239 -0.0000 -0.3827
vn 0.8567 -0.3744 -0.3549
vn 0.6641 -0.6952 -0.2751
vn 0.3724 -0.9152 -0.1543
vn 0.4031 0.9152 -0.0000
vn 0.7189 0.6952 -0.0000
vn 0.9273 0.3744 -0.0000
vn 1.0000 -0.0000 -0.0000
vn 0.9273 -0.3744 -0.0000
vn 0.7189 -0.6952 -0.0000
vn 0.4031 -0.9152 -0.0000
vn 0.3724 0.9152 0.1543
vn 0.6641 0.6952 0.2751
vn 0.8567 0.3744 0.3549
vn 0.9239 -0.0000 0.3827
vn 0.8567 -0.3744 0.3549
vn 0.6641 -0.6952 0.2751
vn 0.3724 -0.9152 0.1543
vn 0.2850 0.9152 0.2850
vn 0.5083 0.6952 0.5083
vn 0.6557 0.3744 0.6557
vn 0.7071 -0.0000 0.7071
vn 0.6557 -0.3744 0.6557
vn 0.5083 -0.6952 0.5083
vn 0.2850 -0.9152 0.2850
vn 0.1543 0.9152 0.3724
vn 0.2751 0.6952 0.6641
vn 0.3549 0.3744 0.8567
vn 0.3827 -0.0000 0.9239
vn 0.3549 -0.3744 0.8567
vn 0.2751 -0.6952 0.6641
vn 0.1543 -0.9152 0.3724
vn -0.0000 0.9152 0.4031
vn -0.0000 0.6952 0.7189
vn -0.0000 0.3744 0.9273
vn -0.0000 -0.0000 1.0000
vn -0.0000 -0.3744 0.9273
vn -0.0000 -0.6952 0.7189
vn -0.0000 -0.9152 0.4031
vn -0.0000 -1.0000 -0.0000
vn -0.0000 1.0000 -0.0000
vn -0.1543 0.9152 0.3724
vn -0.2751 0.6952 0.6641
vn -0.3549 0.3744 0.8567
vn -0.3827 -0.0000 0.9239
vn -0.3549 -0.3744 0.8567
vn -0.2751 -0.6952 0.6641
vn -0.1543 -0.9152 0.3724
vn -0.2850 0.9152 0.2850
vn -0.5083 0.6952 0.5083
vn -0.6557 0.3744 0.6557
vn -0.7071 -0.0000 0.7071
vn -0.6557 -0.3744 0.6557
vn -0.5083 -0.6952 0.5083
vn -0.2850 -0.9152 0.2850
vn -0.3724 0.9152 0.1543
vn -0.6641 0.6952 0.2751
vn -0.8567 0.3744 0.3549
vn -0.9239 -0.0000 0.3827
vn -0.8567 -0.3744 0.3549
vn -0.6641 -0.6952 0.2751
vn -0.3724 -0.9152 0.1543
vn -0.4031 0.9152 -0.0000
vn -0.7189 0.6952 -0.0000
vn -0.9273 0.3744 -0.0000
vn -1.0000 -0.0000 -0.0000
vn -0.9273 -0.3744 -0.0000
vn -0.7189 -0.6952 -0.0000
vn -0.4031 -0.9152 -0.0000
vn -0.3724 0.9152 -0.1543
vn -0.6641 0.6952 -0.2751
vn -0.8567 0.3744 -0.3549
vn -0.9239 -0.0000 -0.3827
vn -0.8567 -0.3744 -0.3549
vn -0.6641 -0.6952 -0.2751
vn -0.3724 -0.9152 -0.1543
vn -0.2850 0.9152 -0.2850
vn -0.5083 0.6952 -0.5083
vn -0.6557 0.3744 -0.6557
vn -0.7071 -0.0000 -0.7071
vn -0.6557 -0.3744 -0.6557
vn -0.5083 -0.6952 -0.5083
vn -0.2850 -0.9152 -0.2850
vn -0.1543 0.9152 -0.3724
vn -0.2751 0.6952 -0.6641
vn -0.3549 0.3744 -0.8567
vn -0.3827 -0.0000 -0.9239
vn -0.3549 -0.3744 -0.8567
vn -0.2751 -0.6952 -0.6641
vn -0.1543 -0.9152 -0.3724
vn -0.0000 0.9152 -0.4031
vn -0.0000 0.6952 -0.7189
vn -0.0000 -0.6952 -0.7189
vn 0.5774 0.5774 -0.5774
vn 0.4513 -0.7698 -0.4513
vn 0.5774 0.5774 0.5774
vn 0.4513 -0.7698 0.4513
vn -0.5774 0.5774 -0.5774
vn -0.4513 -0.7698 -0.4513
vn -0.5774 0.5774 0.5774
vn -0.4513 -0.7698 0.4513
vn -0.5069 -0.8447 -0.1720
vn -0.4763 -0.8793 -0.0000
vn -0.5069 -0.8447 0.1720
vn 0.1720 -0.8447 -0.5069
vn -0.0000 -0.8793 -0.4763
vn -0.1720 -0.8447 -0.5069
vn 0.6737 0.3038 -0.6737
vn 0.6737 -0.3038 -0.6737
vn -0.6737 -0.3038 0.6737
vn -0.6737 0.3038 0.6737
vn 0.6737 0.3038 0.6737
vn 0.6737 -0.3038 0.6737
vn -0.6737 0.3038 -0.6737
vn -0.6737 -0.3038 -0.6737
vn 0.3038 0.6737 0.6737
vn -0.0000 0.7071 0.7071
vn -0.3038 0.6737 0.6737
vn 0.6737 0.6737 -0.3038
vn 0.7071 0.7071 -0.0000
vn 0.6737 0.6737 0.3038
vn -0.1720 -0.8447 0.5069
vn -0.0000 -0.8793 0.4763
vn 0.1720 -0.8447 0.5069
vn -0.6737 0.6737 0.3038
vn -0.7071 0.7071 -0.0000
vn -0.6737 0.6737 -0.3038
vn -0.3038 0.6737 -0.6737
vn -0.0000 0.7071 -0.7071
vn 0.3038 0.6737 -0.6737
vn 0.5069 -0.8447 0.1720
vn 0.4763 -0.8793 -0.0000
vn 0.5069 -0.8447 -0.1720
vn 0.3362 0.8797 -0.3362
vn -0.0000 0.9348 -0.3553
vn -0.3362 0.8797 -0.3362
vn 0.3553 0.9348 -0.0000
vn -0.3553 0.9348 -0.0000
vn 0.3362 0.8797 0.3362
vn -0.0000 0.9348 0.3553
vn -0.3362 0.8797 0.3362
vn 0.3183 -0.3853 0.8662
vn 0.3553 -0.0000 0.9348
vn 0.3362 0.3362 0.8797
vn -0.0000 -0.4160 0.9094
vn -0.0000 0.3553 0.9348
vn -0.3183 -0.3853 0.8662
vn -0.3553 -0.0000 0.9348
vn -0.3362 0.3362 0.8797
vn -0.8662 -0.3853 0.3183
vn -0.9348 -0.0000 0.3553
vn -0.8797 0.3362 0.3362
vn -0.9094 -0.4160 -0.0000
vn -0.9348 0.3553 -0.0000
vn -0.8662 -0.3853 -0.3183
vn -0.9348 -0.0000 -0.3553
vn -0.8797 0.3362 -0.3362
vn -0.1157 -0.9865 -0.1157
vn -0.0000 -0.9923 -0.1238
vn 0.1157 -0.9865 -0.1157
vn -0.1238 -0.9923 -0.0000
vn 0.1238 -0.9923 -0.0000
vn -0.1157 -0.9865 0.1157
vn -0.0000 -0.9923 0.1238
vn 0.1157 -0.9865 0.1157
vn 0.8662 -0.3853 -0.3183
vn 0.9348 -0.0000 -0.3553
vn 0.8797 0.3362 -0.3362
vn 0.9094 -0.4160 -0.0000
vn 0.9348 0.3553 -0.0000
vn 0.8662 -0.3853 0.3183
vn 0.9348 -0.0000 0.3553
vn 0.8797 0.3362 0.3362
vn -0.3183 -0.3853 -0.8662
vn -0.3553 -0.0000 -0.9348
vn -0.3362 0.3362 -0.8797
vn -0.0000 -0.4160 -0.9094
vn -0.0000 0.3553 -0.9348
vn 0.3183 -0.3853 -0.8662
vn 0.3553 -0.0000 -0.9348
vn 0.3362 0.3362 -0.8797
vn -0.0000 -0.6303 0.7764
vn -0.0000 0.6417 -0.7669
vn -0.5490 -0.6303 0.5490
vn -0.5490 0.4185 -0.7235
vn -0.7764 -0.6303 -0.0000
vn -0.7764 -0.1204 -0.6187
vn -0.5490 -0.6303 -0.5490
vn -0.5490 -0.6592 -0.5138
vn -0.0000 -0.6303 -0.7764
vn -0.0000 -0.8825 -0.4704
vn 0.5490 -0.6303 -0.5490
vn 0.5490 -0.6593 -0.5138
vn 0.7764 -0.6303 -0.0000
vn 0.7764 -0.1204 -0.6187
vn 0.5490 -0.6303 0.5490
vn 0.5490 0.4185 -0.7235
vn -0.0000 0.7312 0.6822
vn -0.6911 0.5283 0.4933
vn -0.9995 0.0223 0.0216
vn -0.7224 -0.5061 -0.4712
vn -0.0000 -0.7318 -0.6815
vn 0.7224 -0.5061 -0.4712
vn 0.9995 0.0223 0.0216
vn 0.6911 0.5283 0.4933
vn -0.6816 0.1584 0.7144
vn -0.9988 0.0023 0.0481
vn -0.7268 -0.1419 -0.6720
vn -0.0000 -0.1978 -0.9802
vn 0.7268 -0.1419 -0.6720
vn 0.9988 0.0023 0.0481
vn 0.6816 0.1584 0.7144
vn -0.0000 0.2262 0.9741
vn -0.0000 1.0000 0.0062
vn -0.6776 0.7353 0.0140
vn -0.9985 0.0543 0.0118
vn -0.7286 -0.6846 -0.0210
vn -0.0000 -0.9991 -0.0414
vn 0.7286 -0.6846 -0.0210
vn 0.9985 0.0543 0.0118
vn 0.6776 0.7353 0.0140
vn -0.0000 0.5143 0.8576
vn -0.6880 0.3768 0.6202
vn -0.9994 0.0226 0.0280
vn -0.7226 -0.3613 -0.5893
vn -0.0000 -0.5269 -0.8499
vn 0.7226 -0.3613 -0.5893
vn 0.9994 0.0226 0.0280
vn 0.6880 0.3768 0.6202
vn -0.7046 0.0112 0.7095
vn -1.0000 0.0010 0.0024
vn -0.7075 -0.0041 -0.7067
vn -0.0000 -0.0050 -1.0000
vn 0.7075 -0.0041 -0.7067
vn 1.0000 0.0010 0.0024
vn 0.7046 0.0112 0.7095
vn -0.0000 0.0171 0.9999
vn -0.6837 0.6650 0.3005
vn -0.9989 0.0415 0.0195
vn -0.7299 -0.6190 -0.2901
vn -0.0000 -0.9042 -0.4272
vn 0.7299 -0.6190 -0.2901
vn 0.9989 0.0415 0.0195
vn 0.6837 0.6650 0.3005
vn -0.0000 0.9125 0.4091
vn -0.0000 0.9816 -0.1910
vn -0.7071 0.6941 -0.1350
vn -0.7071 -0.6941 0.1350
vn -0.0000 -0.9816 0.1910
vn 0.7071 -0.6941 0.1350
vn 0.7071 0.6941 -0.1350
vn 0.5490 -0.6592 -0.5138
vt 0.750000 0.875000
vt 0.687500 0.750000
vt 0.750000 0.750000
vt 0.750000 0.250000
vt 0.687500 0.125000
vt 0.750000 0.125000
vt 0.750000 0.375000
vt 0.687500 0.500000
vt 0.687500 0.375000
vt 0.687500 0.625000
vt 0.750000 0.625000
vt 0.718750 1.000000
vt 0.687500 0.875000
vt 0.718750 0.000000
vt 0.687500 0.250000
vt 0.750000 0.500000
vt 0.625000 0.500000
vt 0.625000 0.375000
vt 0.625000 0.750000
vt 0.625000 0.625000
vt 0.656250 1.000000
vt 0.625000 0.875000
vt 0.656250 0.000000
vt 0.625000 0.125000
vt 0.625000 0.250000
vt 0.593750 0.000000
vt 0.562500 0.125000
vt 0.562500 0.250000
vt 0.562500 0.625000
vt 0.562500 0.500000
vt 0.562500 0.875000
vt 0.562500 0.750000
vt 0.562500 0.375000
vt 0.593750 1.000000
vt 0.500000 0.625000
vt 0.500000 0.500000
vt 0.500000 0.750000
vt 0.500000 0.125000
vt 0.500000 0.375000
vt 0.531250 1.000000
vt 0.500000 0.875000
vt 0.531250 0.000000
vt 0.500000 0.250000
vt 0.437500 0.250000
vt 0.437500 0.125000
vt 0.437500 0.375000
vt 0.437500 0.625000
vt 0.468750 1.000000
vt 0.437500 0.875000
vt 0.468750 0.000000
vt 0.437500 0.500000
vt 0.437500 0.750000
vt 0.375000 0.750000
vt 0.375000 0.625000
vt 0.406250 1.000000
vt 0.375000 0.875000
vt 0.406250 0.000000
vt 0.375000 0.125000
vt 0.375000 0.250000
vt 0.375000 0.500000
vt 0.375000 0.375000
vt 0.343750 0.000000
vt 0.312500 0.125000
vt 0.312500 0.375000
vt 0.312500 0.250000
vt 0.312500 0.500000
vt 0.312500 0.875000
vt 0.312500 0.750000
vt 0.312500 0.625000
vt 0.343750 1.000000
vt 0.250000 0.875000
vt 0.250000 0.750000
vt 0.250000 0.125000
vt 0.250000 0.375000
vt 0.250000 0.625000
vt 0.281250 1.000000
vt 0.281250 0.000000
vt 0.250000 0.250000
vt 0.250000 0.500000
vt 0.187500 0.125000
vt 0.187500 0.375000
vt 0.187500 0.625000
vt 0.218750 1.000000
vt 0.187500 0.875000
vt 0.218750 0.000000
vt 0.187500 0.250000
vt 0.187500 0.500000
vt 0.187500 0.750000
vt 0.156250 1.000000
vt 0.125000 0.875000
vt 0.156250 0.000000
vt 0.125000 0.125000
vt 0.125000 0.375000
vt 0.125000 0.250000
vt 0.125000 0.500000
vt 0.125000 0.750000
vt 0.125000 0.625000
vt 0.062500 0.375000
vt 0.062500 0.250000
vt 0.062500 0.500000
vt 0.062500 0.750000
vt 0.062500 0.125000
vt 0.062500 0.625000
vt 0.093750 1.000000
vt 0.062500 0.875000
vt 0.093750 0.000000
vt 0.000000 0.125000
vt 0.000000 0.500000
vt 0.000000 0.375000
vt 0.000000 0.625000
vt 0.031250 1.000000
vt 0.000000 0.875000
vt 0.031250 0.000000
vt 0.000000 0.250000
vt 0.000000 0.750000
vt 1.000000 0.500000
vt 0.937500 0.375000
vt 1.000000 0.375000
vt 1.000000 0.750000
vt 0.937500 0.625000
vt 1.000000 0.625000
vt 1.000000 0.875000
vt 0.968750 1.000000
vt 0.937500 0.875000
vt 0.968750 0.000000
vt 1.000000 0.125000
vt 0.937500 0.125000
vt 0.937500 0.250000
vt 1.000000 0.250000
vt 0.937500 0.500000
vt 0.937500 0.750000
vt 0.906250 0.000000
vt 0.875000 0.125000
vt 0.875000 0.375000
vt 0.875000 0.250000
vt 0.875000 0.500000
vt 0.875000 0.750000
vt 0.875000 0.625000
vt 0.906250 1.000000
vt 0.875000 0.875000
vt 0.812500 0.625000
vt 0.812500 0.500000
vt 0.812500 0.750000
vt 0.812500 0.250000
vt 0.812500 0.125000
vt 0.812500 0.375000
vt 0.843750 1.000000
vt 0.812500 0.875000
vt 0.843750 0.000000
vt 0.781250 1.000000
vt 0.781250 0.000000
vt 0.000000 0.000000
vt 1.000000 1.000000
vt 0.875000 0.937500
vt 1.000000 0.937500
vt 0.750000 1.000000
vt 0.750000 0.937500
vt 0.625000 1.000000
vt 0.625000 0.937500
vt 0.500000 0.937500
vt 0.500000 1.000000
vt 0.375000 0.937500
vt 0.375000 1.000000
vt 0.250000 0.937500
vt 0.010000 0.250000
vt 0.250000 0.010000
vt 0.490000 0.250000
vt 0.250000 1.000000
vt 0.125000 0.937500
vt 0.000000 1.000000
vt 0.000000 0.937500
vt 0.919706 0.080294
vt 0.580294 0.080294
vt 0.580294 0.419706
vt 0.125000 0.685282
vt 0.000000 0.750000
vt 0.000000 0.685282
vt 0.250000 0.685282
vt 0.125000 0.750000
vt 0.375000 0.685282
vt 0.250000 0.750000
vt 0.500000 0.685282
vt 0.375000 0.750000
vt 0.625000 0.750000
vt 0.625000 0.685282
vt 0.750000 0.750000
vt 0.750000 0.685282
vt 0.875000 0.750000
vt 0.875000 0.685282
vt 1.000000 0.750000
vt 1.000000 0.685282
vt 1.000000 0.560282
vt 0.875000 0.620564
vt 0.875000 0.560282
vt 0.750000 0.620564
vt 0.750000 0.560282
vt 0.625000 0.620564
vt 0.625000 0.560282
vt 0.500000 0.620564
vt 0.500000 0.560282
vt 0.375000 0.560282
vt 0.375000 0.620564
vt 0.250000 0.560282
vt 0.250000 0.620564
vt 0.125000 0.560282
vt 0.125000 0.620564
vt 0.000000 0.560282
vt 0.125000 0.875000
vt 0.000000 0.812500
vt 0.125000 0.812500
vt 0.250000 0.875000
vt 0.250000 0.812500
vt 0.375000 0.875000
vt 0.375000 0.812500
vt 0.500000 0.875000
vt 0.500000 0.812500
vt 0.625000 0.812500
vt 0.750000 0.812500
vt 0.875000 0.812500
vt 0.750000 0.875000
vt 1.000000 0.812500
vt 0.875000 0.875000
vt 1.000000 0.620564
vt 0.000000 0.620564
vt 0.125000 0.500000
vt 0.250000 0.500000
vt 0.375000 0.500000
vt 0.500000 0.500000
vt 0.875000 0.500000
vt 0.500000 0.750000
vt 0.875000 1.000000
vt 0.250000 0.490000
vt 0.125000 1.000000
vt 0.919706 0.419706
vt 0.419706 0.419706
vt 0.080294 0.419706
vt 0.080294 0.080294
vt 0.419706 0.080294
vt 0.750000 0.490000
vt 0.990000 0.250000
vt 0.750000 0.010000
vt 0.510000 0.250000
s 1
usemtl 
f 112/1/112 6/2/6 113/3/113
f 114/4/114 11/5/11 4/6/4
f 3/7/3 8/8/8 9/9/9
f 113/3/113 7/10/7 1/11/1
f 112/1/112 62/12/62 5/13/5
f 61/14/61 4/6/4 11/5/11
f 114/4/114 9/9/9 10/15/10
f 2/16/2 7/10/7 8/8/8
f 9/9/9 15/17/15 16/18/16
f 7/10/7 13/19/13 14/20/14
f 5/13/5 62/21/62 12/22/12
f 61/23/61 11/5/11 18/24/18
f 10/15/10 16/18/16 17/25/17
f 7/10/7 15/17/15 8/8/8
f 5/13/5 13/19/13 6/2/6
f 10/15/10 18/24/18 11/5/11
f 61/26/61 18/24/18 25/27/25
f 16/18/16 24/28/24 17/25/17
f 15/17/15 21/29/21 22/30/22
f 13/19/13 19/31/19 20/32/20
f 17/25/17 25/27/25 18/24/18
f 15/17/15 23/33/23 16/18/16
f 13/19/13 21/29/21 14/20/14
f 12/22/12 62/34/62 19/31/19
f 22/30/22 28/35/28 29/36/29
f 19/31/19 27/37/27 20/32/20
f 24/28/24 32/38/32 25/27/25
f 23/33/23 29/36/29 30/39/30
f 21/29/21 27/37/27 28/35/28
f 19/31/19 62/40/62 26/41/26
f 61/42/61 25/27/25 32/38/32
f 23/33/23 31/43/31 24/28/24
f 32/38/32 38/44/38 39/45/39
f 29/36/29 37/46/37 30/39/30
f 27/37/27 35/47/35 28/35/28
f 26/41/26 62/48/62 33/49/33
f 61/50/61 32/38/32 39/45/39
f 30/39/30 38/44/38 31/43/31
f 29/36/29 35/47/35 36/51/36
f 26/41/26 34/52/34 27/37/27
f 35/47/35 41/53/41 42/54/42
f 33/49/33 62/55/62 40/56/40
f 61/57/61 39/45/39 46/58/46
f 37/46/37 45/59/45 38/44/38
f 35/47/35 43/60/43 36/51/36
f 34/52/34 40/56/40 41/53/41
f 39/45/39 45/59/45 46/58/46
f 36/51/36 44/61/44 37/46/37
f 61/62/61 46/58/46 53/63/53
f 45/59/45 51/64/51 52/65/52
f 42/54/42 50/66/50 43/60/43
f 41/53/41 47/67/47 48/68/48
f 45/59/45 53/63/53 46/58/46
f 44/61/44 50/66/50 51/64/51
f 41/53/41 49/69/49 42/54/42
f 40/56/40 62/70/62 47/67/47
f 48/68/48 54/71/54 55/72/55
f 52/65/52 60/73/60 53/63/53
f 50/66/50 58/74/58 51/64/51
f 49/69/49 55/72/55 56/75/56
f 47/67/47 62/76/62 54/71/54
f 61/77/61 53/63/53 60/73/60
f 51/64/51 59/78/59 52/65/52
f 49/69/49 57/79/57 50/66/50
f 59/78/59 69/80/69 60/73/60
f 57/79/57 67/81/67 58/74/58
f 55/72/55 65/82/65 56/75/56
f 54/71/54 62/83/62 63/84/63
f 61/85/61 60/73/60 69/80/69
f 58/74/58 68/86/68 59/78/59
f 57/79/57 65/82/65 66/87/66
f 55/72/55 63/84/63 64/88/64
f 63/84/63 62/89/62 70/90/70
f 61/91/61 69/80/69 76/92/76
f 68/86/68 74/93/74 75/94/75
f 65/82/65 73/95/73 66/87/66
f 63/84/63 71/96/71 64/88/64
f 68/86/68 76/92/76 69/80/69
f 66/87/66 74/93/74 67/81/67
f 64/88/64 72/97/72 65/82/65
f 75/94/75 81/98/81 82/99/82
f 72/97/72 80/100/80 73/95/73
f 70/90/70 78/101/78 71/96/71
f 75/94/75 83/102/83 76/92/76
f 73/95/73 81/98/81 74/93/74
f 71/96/71 79/103/79 72/97/72
f 70/90/70 62/104/62 77/105/77
f 61/106/61 76/92/76 83/102/83
f 82/99/82 90/107/90 83/102/83
f 81/98/81 87/108/87 88/109/88
f 78/101/78 86/110/86 79/103/79
f 77/105/77 62/111/62 84/112/84
f 61/113/61 83/102/83 90/107/90
f 82/99/82 88/109/88 89/114/89
f 79/103/79 87/108/87 80/100/80
f 78/101/78 84/112/84 85/115/85
f 87/116/87 95/117/95 88/118/88
f 85/119/85 93/120/93 86/121/86
f 84/122/84 62/123/62 91/124/91
f 61/125/61 90/126/90 97/127/97
f 88/118/88 96/128/96 89/129/89
f 86/121/86 94/130/94 87/116/87
f 85/119/85 91/124/91 92/131/92
f 89/129/89 97/127/97 90/126/90
f 61/132/61 97/127/97 104/133/104
f 96/128/96 102/134/102 103/135/103
f 93/120/93 101/136/101 94/130/94
f 91/124/91 99/137/99 92/131/92
f 96/128/96 104/133/104 97/127/97
f 95/117/95 101/136/101 102/134/102
f 92/131/92 100/138/100 93/120/93
f 91/124/91 62/139/62 98/140/98
f 101/136/101 107/141/107 108/142/108
f 98/140/98 106/143/106 99/137/99
f 104/133/104 110/144/110 111/145/111
f 101/136/101 109/146/109 102/134/102
f 99/137/99 107/141/107 100/138/100
f 98/140/98 62/147/62 105/148/105
f 61/149/61 104/133/104 111/145/111
f 103/135/103 109/146/109 110/144/110
f 110/144/110 4/6/4 111/145/111
f 108/142/108 3/7/3 109/146/109
f 107/141/107 113/3/113 1/11/1
f 105/148/105 62/150/62 112/1/112
f 61/151/61 111/145/111 4/6/4
f 110/144/110 3/7/3 114/4/114
f 108/142/108 1/11/1 2/16/2
f 106/143/106 112/1/112 113/3/113
f 227/3/113 119/13/105 226/1/112
f 125/5/111 228/4/114 118/6/4
f 117/7/3 122/8/108 116/16/2
f 121/10/107 227/3/113 115/11/1
f 226/1/112 119/13/105 176/12/62
f 175/14/61 125/5/111 118/6/4
f 228/4/114 123/9/109 117/7/3
f 122/8/108 115/11/1 116/16/2
f 130/18/102 122/8/108 123/9/109
f 121/10/107 127/19/99 120/2/106
f 119/13/105 126/22/98 176/21/62
f 175/23/61 132/24/104 125/5/111
f 131/25/103 123/9/109 124/15/110
f 122/8/108 128/20/100 121/10/107
f 127/19/99 119/13/105 120/2/106
f 125/5/111 131/25/103 124/15/110
f 175/26/61 139/27/97 132/24/104
f 138/28/96 130/18/102 131/25/103
f 129/17/101 135/29/93 128/20/100
f 127/19/99 133/31/91 126/22/98
f 139/27/97 131/25/103 132/24/104
f 137/33/95 129/17/101 130/18/102
f 128/20/100 134/32/92 127/19/99
f 126/22/98 133/31/91 176/34/62
f 143/36/87 135/29/93 136/30/94
f 141/37/85 133/31/91 134/32/92
f 139/27/97 145/43/89 138/28/96
f 144/39/88 136/30/94 137/33/95
f 142/35/86 134/32/92 135/29/93
f 133/31/91 140/41/84 176/40/62
f 175/42/61 146/38/90 139/27/97
f 138/28/96 144/39/88 137/33/95
f 153/45/83 145/43/89 146/38/90
f 151/46/81 143/36/87 144/39/88
f 142/35/86 148/52/78 141/37/85
f 140/41/84 147/49/77 176/48/62
f 175/50/61 153/45/83 146/38/90
f 152/44/82 144/39/88 145/43/89
f 143/36/87 149/47/79 142/35/86
f 141/37/85 147/49/77 140/41/84
f 149/47/79 155/53/71 148/52/78
f 147/49/77 154/56/70 176/55/62
f 175/57/61 160/58/76 153/45/83
f 159/59/75 151/46/81 152/44/82
f 150/51/80 156/54/72 149/47/79
f 148/52/78 154/56/70 147/49/77
f 160/58/76 152/44/82 153/45/83
f 158/61/74 150/51/80 151/46/81
f 175/62/61 167/63/69 160/58/76
f 166/65/68 158/61/74 159/59/75
f 164/66/66 156/54/72 157/60/73
f 162/68/64 154/56/70 155/53/71
f 167/63/69 159/59/75 160/58/76
f 165/64/67 157/60/73 158/61/74
f 156/54/72 162/68/64 155/53/71
f 154/56/70 161/67/63 176/70/62
f 162/68/64 168/71/54 161/67/63
f 174/73/60 166/65/68 167/63/69
f 172/74/58 164/66/66 165/64/67
f 170/75/56 162/68/64 163/69/65
f 161/67/63 168/71/54 176/76/62
f 175/77/61 174/73/60 167/63/69
f 166/65/68 172/74/58 165/64/67
f 164/66/66 170/75/56 163/69/65
f 183/80/53 173/78/59 174/73/60
f 181/81/51 171/79/57 172/74/58
f 179/82/49 169/72/55 170/75/56
f 168/71/54 177/84/47 176/83/62
f 175/85/61 183/80/53 174/73/60
f 182/86/52 172/74/58 173/78/59
f 171/79/57 179/82/49 170/75/56
f 178/88/48 168/71/54 169/72/55
f 177/84/47 184/90/40 176/89/62
f 175/91/61 190/92/46 183/80/53
f 189/94/45 181/81/51 182/86/52
f 180/87/50 186/97/42 179/82/49
f 185/96/41 177/84/47 178/88/48
f 183/80/53 189/94/45 182/86/52
f 188/93/44 180/87/50 181/81/51
f 186/97/42 178/88/48 179/82/49
f 196/99/38 188/93/44 189/94/45
f 194/100/36 186/97/42 187/95/43
f 185/96/41 191/105/33 184/90/40
f 197/102/39 189/94/45 190/92/46
f 195/98/37 187/95/43 188/93/44
f 186/97/42 192/101/34 185/96/41
f 184/90/40 191/105/33 176/104/62
f 175/106/61 197/102/39 190/92/46
f 197/102/39 203/114/31 196/99/38
f 195/98/37 201/108/29 194/100/36
f 200/110/28 192/101/34 193/103/35
f 191/105/33 198/112/26 176/111/62
f 175/113/61 204/107/32 197/102/39
f 203/114/31 195/98/37 196/99/38
f 194/100/36 200/110/28 193/103/35
f 199/115/27 191/105/33 192/101/34
f 202/118/30 208/130/22 201/116/29
f 207/120/21 199/119/27 200/121/28
f 198/122/26 205/124/19 176/123/62
f 175/125/61 211/127/25 204/126/32
f 203/129/31 209/117/23 202/118/30
f 208/130/22 200/121/28 201/116/29
f 206/131/20 198/122/26 199/119/27
f 211/127/25 203/129/31 204/126/32
f 175/132/61 218/133/18 211/127/25
f 210/128/24 216/134/16 209/117/23
f 215/136/15 207/120/21 208/130/22
f 213/137/13 205/124/19 206/131/20
f 211/127/25 217/135/17 210/128/24
f 209/117/23 215/136/15 208/130/22
f 214/138/14 206/131/20 207/120/21
f 205/124/19 212/140/12 176/139/62
f 215/136/15 221/141/7 214/138/14
f 220/143/6 212/140/12 213/137/13
f 225/145/11 217/135/17 218/133/18
f 223/146/9 215/136/15 216/134/16
f 221/141/7 213/137/13 214/138/14
f 212/140/12 219/148/5 176/147/62
f 175/149/61 225/145/11 218/133/18
f 224/144/10 216/134/16 217/135/17
f 118/6/4 224/144/10 225/145/11
f 223/146/9 116/16/2 222/142/8
f 115/11/1 220/143/6 221/141/7
f 219/148/5 226/1/112 176/150/62
f 175/151/61 118/6/4 225/145/11
f 224/144/10 117/7/3 223/146/9
f 222/142/8 115/11/1 221/141/7
f 220/143/6 226/1/112 219/148/5
f 328/153/204 392/154/268 391/155/267
f 392/154/268 332/156/208 393/157/87
f 393/157/87 334/158/210 394/159/269
f 334/158/210 395/160/270 394/159/269
f 336/161/212 396/162/271 395/160/270
f 338/163/214 397/164/29 396/162/271
f 340/165/216 336/166/212 332/167/208
f 340/168/216 398/169/272 397/164/29
f 398/169/272 328/170/204 391/171/267
f 333/172/209 337/173/213 341/174/217
f 374/175/250 343/176/219 367/177/243
f 373/178/249 350/179/226 374/175/250
f 372/180/248 349/181/225 373/178/249
f 371/182/247 348/183/224 372/180/248
f 346/184/222 371/182/247 370/185/246
f 345/186/221 370/185/246 369/187/245
f 344/188/220 369/187/245 368/189/244
f 343/190/219 368/189/244 367/191/243
f 382/192/258 351/193/227 375/194/251
f 375/194/251 352/195/228 376/196/252
f 376/196/252 353/197/229 377/198/253
f 377/198/253 354/199/230 378/200/254
f 354/199/230 379/201/255 378/200/254
f 355/202/231 380/203/256 379/201/255
f 356/204/232 381/205/257 380/203/256
f 357/206/233 382/207/258 381/205/257
f 366/208/242 390/209/266 389/210/265
f 365/211/241 389/210/265 388/212/264
f 364/213/240 388/212/264 387/214/263
f 363/215/239 387/214/263 386/216/262
f 385/217/261 363/215/239 386/216/262
f 384/218/260 362/22/238 385/217/261
f 383/219/259 361/220/237 384/218/260
f 390/221/266 360/222/236 383/219/259
f 358/223/234 368/189/244 351/193/227
f 368/189/244 352/195/228 351/193/227
f 352/195/228 370/185/246 353/197/229
f 370/185/246 354/199/230 353/197/229
f 354/199/230 372/180/248 355/202/231
f 372/180/248 356/204/232 355/202/231
f 356/204/232 374/175/250 357/206/233
f 374/175/250 358/224/234 357/206/233
f 381/205/257 327/108/203 341/225/217
f 380/203/256 341/225/217 339/226/215
f 379/201/255 339/226/215 337/227/213
f 378/200/254 337/227/213 335/228/211
f 377/198/253 335/228/211 333/17/209
f 376/196/252 333/17/209 331/16/207
f 375/194/251 331/16/207 329/229/205
f 382/192/258 329/229/205 327/116/203
f 343/190/219 383/219/259 344/188/220
f 344/188/220 384/218/260 345/186/221
f 345/186/221 385/217/261 346/184/222
f 346/184/222 386/216/262 347/230/223
f 386/216/262 348/183/224 347/230/223
f 387/214/263 349/181/225 348/183/224
f 388/212/264 350/179/226 349/181/225
f 389/210/265 343/176/219 350/179/226
f 398/169/272 359/112/235 366/208/242
f 397/164/29 366/208/242 365/211/241
f 396/162/271 365/211/241 364/213/240
f 395/160/270 364/213/240 363/215/239
f 362/22/238 395/160/270 363/215/239
f 393/157/87 362/22/238 361/220/237
f 392/154/268 361/220/237 360/222/236
f 391/155/267 360/222/236 359/122/235
f 464/154/272 400/153/204 463/155/267
f 464/154/272 404/156/216 402/231/218
f 466/159/271 404/156/216 465/157/29
f 467/160/270 406/158/273 466/159/271
f 467/160/270 410/163/210 408/161/212
f 469/164/87 410/163/210 468/162/269
f 408/166/212 412/165/208 400/232/204
f 470/169/268 412/168/208 469/164/87
f 463/171/267 414/233/206 470/169/268
f 409/173/209 405/172/213 401/234/217
f 446/175/244 415/176/219 422/179/220
f 445/178/245 422/179/220 421/181/221
f 444/180/246 421/181/221 420/183/222
f 443/182/247 420/183/222 419/230/223
f 443/182/247 418/184/224 442/185/248
f 442/185/248 417/186/225 441/187/249
f 441/187/249 416/188/226 440/189/250
f 440/189/250 415/190/219 439/191/243
f 454/192/258 423/193/233 430/223/234
f 447/194/257 424/195/232 423/193/233
f 448/196/256 425/197/231 424/195/232
f 449/198/255 426/199/230 425/197/231
f 451/201/253 426/199/230 450/200/254
f 452/203/252 427/202/229 451/201/253
f 453/205/251 428/204/228 452/203/252
f 454/207/258 429/206/227 453/205/251
f 462/209/266 438/208/236 461/210/259
f 461/210/259 437/211/237 460/212/260
f 460/212/260 436/213/238 459/214/261
f 459/214/261 435/215/239 458/216/262
f 457/217/263 435/215/239 434/22/240
f 456/218/264 434/22/240 433/220/241
f 455/219/265 433/220/241 432/222/242
f 462/221/266 432/222/242 431/122/235
f 430/223/234 440/189/250 439/191/243
f 424/195/232 440/189/250 423/193/233
f 424/195/232 442/185/248 441/187/249
f 426/199/230 442/185/248 425/197/231
f 427/202/229 443/182/247 426/199/230
f 427/202/229 445/178/245 444/180/246
f 428/204/228 446/175/244 445/178/245
f 430/224/234 446/175/244 429/206/227
f 399/108/203 453/205/251 413/225/205
f 413/225/205 452/203/252 411/226/207
f 411/226/207 451/201/253 409/227/209
f 409/227/209 450/200/254 407/228/211
f 407/228/211 449/198/255 405/17/213
f 405/17/213 448/196/256 403/16/215
f 403/16/215 447/194/257 401/229/217
f 401/229/217 454/192/258 399/116/203
f 415/190/219 455/219/265 462/221/266
f 416/188/226 456/218/264 455/219/265
f 417/186/225 457/217/263 456/218/264
f 418/184/224 458/216/262 457/217/263
f 420/183/222 458/216/262 419/230/223
f 421/181/221 459/214/261 420/183/222
f 422/179/220 460/212/260 421/181/221
f 415/176/219 461/210/259 422/179/220
f 431/112/235 470/169/268 438/208/236
f 438/208/236 469/164/87 437/211/237
f 436/213/238 469/164/87 468/162/269
f 435/215/239 468/162/269 467/160/270
f 434/22/240 467/160/270 466/159/271
f 434/22/240 465/157/29 433/220/241
f 433/220/241 464/154/272 432/222/242
f 432/222/242 463/155/267 431/122/235
f 112/1/112 5/13/5 6/2/6
f 114/4/114 10/15/10 11/5/11
f 3/7/3 2/16/2 8/8/8
f 113/3/113 6/2/6 7/10/7
f 114/4/114 3/7/3 9/9/9
f 2/16/2 1/11/1 7/10/7
f 9/9/9 8/8/8 15/17/15
f 7/10/7 6/2/6 13/19/13
f 10/15/10 9/9/9 16/18/16
f 7/10/7 14/20/14 15/17/15
f 5/13/5 12/22/12 13/19/13
f 10/15/10 17/25/17 18/24/18
f 16/18/16 23/33/23 24/28/24
f 15/17/15 14/20/14 21/29/21
f 13/19/13 12/22/12 19/31/19
f 17/25/17 24/28/24 25/27/25
f 15/17/15 22/30/22 23/33/23
f 13/19/13 20/32/20 21/29/21
f 22/30/22 21/29/21 28/35/28
f 19/31/19 26/41/26 27/37/27
f 24/28/24 31/43/31 32/38/32
f 23/33/23 22/30/22 29/36/29
f 21/29/21 20/32/20 27/37/27
f 23/33/23 30/39/30 31/43/31
f 32/38/32 31/43/31 38/44/38
f 29/36/29 36/51/36 37/46/37
f 27/37/27 34/52/34 35/47/35
f 30/39/30 37/46/37 38/44/38
f 29/36/29 28/35/28 35/47/35
f 26/41/26 33/49/33 34/52/34
f 35/47/35 34/52/34 41/53/41
f 37/46/37 44/61/44 45/59/45
f 35/47/35 42/54/42 43/60/43
f 34/52/34 33/49/33 40/56/40
f 39/45/39 38/44/38 45/59/45
f 36/51/36 43/60/43 44/61/44
f 45/59/45 44/61/44 51/64/51
f 42/54/42 49/69/49 50/66/50
f 41/53/41 40/56/40 47/67/47
f 45/59/45 52/65/52 53/63/53
f 44/61/44 43/60/43 50/66/50
f 41/53/41 48/68/48 49/69/49
f 48/68/48 47/67/47 54/71/54
f 52/65/52 59/78/59 60/73/60
f 50/66/50 57/79/57 58/74/58
f 49/69/49 48/68/48 55/72/55
f 51/64/51 58/74/58 59/78/59
f 49/69/49 56/75/56 57/79/57
f 59/78/59 68/86/68 69/80/69
f 57/79/57 66/87/66 67/81/67
f 55/72/55 64/88/64 65/82/65
f 58/74/58 67/81/67 68/86/68
f 57/79/57 56/75/56 65/82/65
f 55/72/55 54/71/54 63/84/63
f 68/86/68 67/81/67 74/93/74
f 65/82/65 72/97/72 73/95/73
f 63/84/63 70/90/70 71/96/71
f 68/86/68 75/94/75 76/92/76
f 66/87/66 73/95/73 74/93/74
f 64/88/64 71/96/71 72/97/72
f 75/94/75 74/93/74 81/98/81
f 72/97/72 79/103/79 80/100/80
f 70/90/70 77/105/77 78/101/78
f 75/94/75 82/99/82 83/102/83
f 73/95/73 80/100/80 81/98/81
f 71/96/71 78/101/78 79/103/79
f 82/99/82 89/114/89 90/107/90
f 81/98/81 80/100/80 87/108/87
f 78/101/78 85/115/85 86/110/86
f 82/99/82 81/98/81 88/109/88
f 79/103/79 86/110/86 87/108/87
f 78/101/78 77/105/77 84/112/84
f 87/116/87 94/130/94 95/117/95
f 85/119/85 92/131/92 93/120/93
f 88/118/88 95/117/95 96/128/96
f 86/121/86 93/120/93 94/130/94
f 85/119/85 84/122/84 91/124/91
f 89/129/89 96/128/96 97/127/97
f 96/128/96 95/117/95 102/134/102
f 93/120/93 100/138/100 101/136/101
f 91/124/91 98/140/98 99/137/99
f 96/128/96 103/135/103 104/133/104
f 95/117/95 94/130/94 101/136/101
f 92/131/92 99/137/99 100/138/100
f 101/136/101 100/138/100 107/141/107
f 98/140/98 105/148/105 106/143/106
f 104/133/104 103/135/103 110/144/110
f 101/136/101 108/142/108 109/146/109
f 99/137/99 106/143/106 107/141/107
f 103/135/103 102/134/102 109/146/109
f 110/144/110 114/4/114 4/6/4
f 108/142/108 2/16/2 3/7/3
f 107/141/107 106/143/106 113/3/113
f 110/144/110 109/146/109 3/7/3
f 108/142/108 107/141/107 1/11/1
f 106/143/106 105/148/105 112/1/112
f 227/3/113 120/2/106 119/13/105
f 125/5/111 124/15/110 228/4/114
f 117/7/3 123/9/109 122/8/108
f 121/10/107 120/2/106 227/3/113
f 228/4/114 124/15/110 123/9/109
f 122/8/108 121/10/107 115/11/1
f 130/18/102 129/17/101 122/8/108
f 121/10/107 128/20/100 127/19/99
f 131/25/103 130/18/102 123/9/109
f 122/8/108 129/17/101 128/20/100
f 127/19/99 126/22/98 119/13/105
f 125/5/111 132/24/104 131/25/103
f 138/28/96 137/33/95 130/18/102
f 129/17/101 136/30/94 135/29/93
f 127/19/99 134/32/92 133/31/91
f 139/27/97 138/28/96 131/25/103
f 137/33/95 136/30/94 129/17/101
f 128/20/100 135/29/93 134/32/92
f 143/36/87 142/35/86 135/29/93
f 141/37/85 140/41/84 133/31/91
f 139/27/97 146/38/90 145/43/89
f 144/39/88 143/36/87 136/30/94
f 142/35/86 141/37/85 134/32/92
f 138/28/96 145/43/89 144/39/88
f 153/45/83 152/44/82 145/43/89
f 151/46/81 150/51/80 143/36/87
f 142/35/86 149/47/79 148/52/78
f 152/44/82 151/46/81 144/39/88
f 143/36/87 150/51/80 149/47/79
f 141/37/85 148/52/78 147/49/77
f 149/47/79 156/54/72 155/53/71
f 159/59/75 158/61/74 151/46/81
f 150/51/80 157/60/73 156/54/72
f 148/52/78 155/53/71 154/56/70
f 160/58/76 159/59/75 152/44/82
f 158/61/74 157/60/73 150/51/80
f 166/65/68 165/64/67 158/61/74
f 164/66/66 163/69/65 156/54/72
f 162/68/64 161/67/63 154/56/70
f 167/63/69 166/65/68 159/59/75
f 165/64/67 164/66/66 157/60/73
f 156/54/72 163/69/65 162/68/64
f 162/68/64 169/72/55 168/71/54
f 174/73/60 173/78/59 166/65/68
f 172/74/58 171/79/57 164/66/66
f 170/75/56 169/72/55 162/68/64
f 166/65/68 173/78/59 172/74/58
f 164/66/66 171/79/57 170/75/56
f 183/80/53 182/86/52 173/78/59
f 181/81/51 180/87/50 171/79/57
f 179/82/49 178/88/48 169/72/55
f 182/86/52 181/81/51 172/74/58
f 171/79/57 180/87/50 179/82/49
f 178/88/48 177/84/47 168/71/54
f 189/94/45 188/93/44 181/81/51
f 180/87/50 187/95/43 186/97/42
f 185/96/41 184/90/40 177/84/47
f 183/80/53 190/92/46 189/94/45
f 188/93/44 187/95/43 180/87/50
f 186/97/42 185/96/41 178/88/48
f 196/99/38 195/98/37 188/93/44
f 194/100/36 193/103/35 186/97/42
f 185/96/41 192/101/34 191/105/33
f 197/102/39 196/99/38 189/94/45
f 195/98/37 194/100/36 187/95/43
f 186/97/42 193/103/35 192/101/34
f 197/102/39 204/107/32 203/114/31
f 195/98/37 202/109/30 201/108/29
f 200/110/28 199/115/27 192/101/34
f 203/114/31 202/109/30 195/98/37
f 194/100/36 201/108/29 200/110/28
f 199/115/27 198/112/26 191/105/33
f 202/118/30 209/117/23 208/130/22
f 207/120/21 206/131/20 199/119/27
f 203/129/31 210/128/24 209/117/23
f 208/130/22 207/120/21 200/121/28
f 206/131/20 205/124/19 198/122/26
f 211/127/25 210/128/24 203/129/31
f 210/128/24 217/135/17 216/134/16
f 215/136/15 214/138/14 207/120/21
f 213/137/13 212/140/12 205/124/19
f 211/127/25 218/133/18 217/135/17
f 209/117/23 216/134/16 215/136/15
f 214/138/14 213/137/13 206/131/20
f 215/136/15 222/142/8 221/141/7
f 220/143/6 219/148/5 212/140/12
f 225/145/11 224/144/10 217/135/17
f 223/146/9 222/142/8 215/136/15
f 221/141/7 220/143/6 213/137/13
f 224/144/10 223/146/9 216/134/16
f 118/6/4 228/4/114 224/144/10
f 223/146/9 117/7/3 116/16/2
f 115/11/1 227/3/113 220/143/6
f 224/144/10 228/4/114 117/7/3
f 222/142/8 116/16/2 115/11/1
f 220/143/6 227/3/113 226/1/112
f 328/153/204 330/231/206 392/154/268
f 392/154/268 330/231/206 332/156/208
f 393/157/87 332/156/208 334/158/210
f 334/158/210 336/161/212 395/160/270
f 336/161/212 338/163/214 396/162/271
f 338/163/214 340/168/216 397/164/29
f 332/167/208 330/235/206 328/232/204
f 328/232/204 342/236/218 340/165/216
f 340/165/216 338/237/214 336/166/212
f 336/166/212 334/238/210 332/167/208
f 332/167/208 328/232/204 340/165/216
f 340/168/216 342/233/218 398/169/272
f 398/169/272 342/233/218 328/170/204
f 341/174/217 327/239/203 329/234/205
f 329/234/205 331/240/207 333/172/209
f 333/172/209 335/241/211 337/173/213
f 337/173/213 339/242/215 341/174/217
f 341/174/217 329/234/205 333/172/209
f 374/175/250 350/179/226 343/176/219
f 373/178/249 349/181/225 350/179/226
f 372/180/248 348/183/224 349/181/225
f 371/182/247 347/230/223 348/183/224
f 346/184/222 347/230/223 371/182/247
f 345/186/221 346/184/222 370/185/246
f 344/188/220 345/186/221 369/187/245
f 343/190/219 344/188/220 368/189/244
f 382/192/258 358/223/234 351/193/227
f 375/194/251 351/193/227 352/195/228
f 376/196/252 352/195/228 353/197/229
f 377/198/253 353/197/229 354/199/230
f 354/199/230 355/202/231 379/201/255
f 355/202/231 356/204/232 380/203/256
f 356/204/232 357/206/233 381/205/257
f 357/206/233 358/224/234 382/207/258
f 366/208/242 359/112/235 390/209/266
f 365/211/241 366/208/242 389/210/265
f 364/213/240 365/211/241 388/212/264
f 363/215/239 364/213/240 387/214/263
f 385/217/261 362/22/238 363/215/239
f 384/218/260 361/220/237 362/22/238
f 383/219/259 360/222/236 361/220/237
f 390/221/266 359/122/235 360/222/236
f 358/223/234 367/191/243 368/189/244
f 368/189/244 369/187/245 352/195/228
f 352/195/228 369/187/245 370/185/246
f 370/185/246 371/182/247 354/199/230
f 354/199/230 371/182/247 372/180/248
f 372/180/248 373/178/249 356/204/232
f 356/204/232 373/178/249 374/175/250
f 374/175/250 367/177/243 358/224/234
f 381/205/257 382/207/258 327/108/203
f 380/203/256 381/205/257 341/225/217
f 379/201/255 380/203/256 339/226/215
f 378/200/254 379/201/255 337/227/213
f 377/198/253 378/200/254 335/228/211
f 376/196/252 377/198/253 333/17/209
f 375/194/251 376/196/252 331/16/207
f 382/192/258 375/194/251 329/229/205
f 343/190/219 390/221/266 383/219/259
f 344/188/220 383/219/259 384/218/260
f 345/186/221 384/218/260 385/217/261
f 346/184/222 385/217/261 386/216/262
f 386/216/262 387/214/263 348/183/224
f 387/214/263 388/212/264 349/181/225
f 388/212/264 389/210/265 350/179/226
f 389/210/265 390/209/266 343/176/219
f 398/169/272 391/171/267 359/112/235
f 397/164/29 398/169/272 366/208/242
f 396/162/271 397/164/29 365/211/241
f 395/160/270 396/162/271 364/213/240
f 362/22/238 394/159/269 395/160/270
f 393/157/87 394/159/269 362/22/238
f 392/154/268 393/157/87 361/220/237
f 391/155/267 392/154/268 360/222/236
f 464/154/272 402/231/218 400/153/204
f 464/154/272 465/157/29 404/156/216
f 466/159/271 406/158/273 404/156/216
f 467/160/270 408/161/212 406/158/273
f 467/160/270 468/162/269 410/163/210
f 469/164/87 412/168/208 410/163/210
f 400/232/204 402/235/218 404/167/216
f 404/167/216 406/238/273 408/166/212
f 408/166/212 410/237/210 412/165/208
f 412/165/208 414/236/206 400/232/204
f 400/232/204 404/167/216 408/166/212
f 470/169/268 414/233/206 412/168/208
f 463/171/267 400/170/204 414/233/206
f 401/234/217 399/239/203 413/174/205
f 413/174/205 411/242/207 409/173/209
f 409/173/209 407/241/211 405/172/213
f 405/172/213 403/240/215 401/234/217
f 401/234/217 413/174/205 409/173/209
f 446/175/244 439/177/243 415/176/219
f 445/178/245 446/175/244 422/179/220
f 444/180/246 445/178/245 421/181/221
f 443/182/247 444/180/246 420/183/222
f 443/182/247 419/230/223 418/184/224
f 442/185/248 418/184/224 417/186/225
f 441/187/249 417/186/225 416/188/226
f 440/189/250 416/188/226 415/190/219
f 454/192/258 447/194/257 423/193/233
f 447/194/257 448/196/256 424/195/232
f 448/196/256 449/198/255 425/197/231
f 449/198/255 450/200/254 426/199/230
f 451/201/253 427/202/229 426/199/230
f 452/203/252 428/204/228 427/202/229
f 453/205/251 429/206/227 428/204/228
f 454/207/258 430/224/234 429/206/227
f 462/209/266 431/112/235 438/208/236
f 461/210/259 438/208/236 437/211/237
f 460/212/260 437/211/237 436/213/238
f 459/214/261 436/213/238 435/215/239
f 457/217/263 458/216/262 435/215/239
f 456/218/264 457/217/263 434/22/240
f 455/219/265 456/218/264 433/220/241
f 462/221/266 455/219/265 432/222/242
f 430/223/234 423/193/233 440/189/250
f 424/195/232 441/187/249 440/189/250
f 424/195/232 425/197/231 442/185/248
f 426/199/230 443/182/247 442/185/248
f 427/202/229 444/180/246 443/182/247
f 427/202/229 428/204/228 445/178/245
f 428/204/228 429/206/227 446/175/244
f 430/224/234 439/177/243 446/175/244
f 399/108/203 454/207/258 453/205/251
f 413/225/205 453/205/251 452/203/252
f 411/226/207 452/203/252 451/201/253
f 409/227/209 451/201/253 450/200/254
f 407/228/211 450/200/254 449/198/255
f 405/17/213 449/198/255 448/196/256
f 403/16/215 448/196/256 447/194/257
f 401/229/217 447/194/257 454/192/258
f 415/190/219 416/188/226 455/219/265
f 416/188/226 417/186/225 456/218/264
f 417/186/225 418/184/224 457/217/263
f 418/184/224 419/230/223 458/216/262
f 420/183/222 459/214/261 458/216/262
f 421/181/221 460/212/260 459/214/261
f 422/179/220 461/210/259 460/212/260
f 415/176/219 462/209/266 461/210/259
f 431/112/235 463/171/267 470/169/268
f 438/208/236 470/169/268 469/164/87
f 436/213/238 437/211/237 469/164/87
f 435/215/239 436/213/238 468/162/269
f 434/22/240 435/215/239 467/160/270
f 434/22/240 466/159/271 465/157/29
f 433/220/241 465/157/29 464/154/272
f 432/222/242 464/154/272 463/155/267
usemtl Material
f 273/152/155 277/152/62 276/152/158
f 275/152/157 277/152/62 274/152/156
f 277/152/62 279/152/160 276/152/158
f 277/152/62 281/152/162 280/152/161
f 229/152/115 273/152/155 258/152/140
f 269/152/151 274/152/156 273/152/155
f 267/152/149 274/152/156 268/152/150
f 233/152/119 275/152/157 267/152/149
f 266/152/148 278/152/159 275/152/157
f 278/152/159 264/152/146 281/152/162
f 281/152/162 235/152/121 257/152/139
f 280/152/161 257/152/139 256/152/138
f 280/152/161 255/152/137 279/152/160
f 279/152/160 231/152/117 260/152/142
f 276/152/158 260/152/142 259/152/141
f 258/152/140 276/152/158 259/152/141
f 282/152/163 286/152/57 285/152/166
f 284/152/165 286/152/57 283/152/164
f 286/152/57 288/152/168 285/152/166
f 286/152/57 290/152/170 289/152/169
f 232/152/118 282/152/163 263/152/145
f 251/152/134 283/152/164 282/152/163
f 249/152/133 283/152/164 250/152/43
f 231/152/117 284/152/165 249/152/133
f 255/152/137 287/152/167 284/152/165
f 287/152/167 257/152/139 290/152/170
f 290/152/170 235/152/121 248/152/132
f 289/152/169 248/152/132 247/152/73
f 289/152/169 246/152/131 288/152/168
f 288/152/168 236/152/122 261/152/143
f 285/152/166 261/152/143 262/152/144
f 263/152/145 285/152/166 262/152/144
f 291/152/171 295/152/87 294/152/174
f 293/152/173 295/152/87 292/152/172
f 295/152/87 297/152/176 294/152/174
f 295/152/87 299/152/178 298/152/177
f 236/152/122 291/152/171 239/152/125
f 246/152/131 292/152/172 291/152/171
f 248/152/132 292/152/172 247/152/73
f 235/152/121 293/152/173 248/152/132
f 264/152/146 296/152/175 293/152/173
f 296/152/175 266/152/148 299/152/178
f 299/152/178 233/152/119 252/152/135
f 298/152/177 252/152/135 253/152/101
f 298/152/177 254/152/136 297/152/176
f 297/152/176 234/152/120 237/152/123
f 294/152/174 237/152/123 238/152/124
f 239/152/125 294/152/174 238/152/124
f 300/152/179 304/152/61 303/152/182
f 302/152/181 304/152/61 301/152/180
f 304/152/61 306/152/184 303/152/182
f 304/152/61 308/152/186 307/152/185
f 234/152/120 300/152/179 237/152/123
f 242/152/128 301/152/180 300/152/179
f 240/152/126 301/152/180 241/152/127
f 230/152/116 302/152/181 240/152/126
f 272/152/154 305/152/183 302/152/181
f 305/152/183 270/152/152 308/152/186
f 308/152/186 232/152/118 263/152/145
f 307/152/185 263/152/145 262/152/144
f 307/152/185 261/152/143 306/152/184
f 306/152/184 236/152/122 239/152/125
f 303/152/182 239/152/125 238/152/124
f 237/152/123 303/152/182 238/152/124
f 309/152/187 313/152/29 312/152/190
f 311/152/189 313/152/29 310/152/188
f 313/152/29 315/152/192 312/152/190
f 313/152/29 317/152/194 316/152/193
f 230/152/116 309/152/187 272/152/154
f 245/152/130 310/152/188 309/152/187
f 243/152/129 310/152/188 244/152/15
f 229/152/115 311/152/189 243/152/129
f 258/152/140 314/152/191 311/152/189
f 314/152/191 260/152/142 317/152/194
f 317/152/194 231/152/117 249/152/133
f 316/152/193 249/152/133 250/152/43
f 316/152/193 251/152/134 315/152/192
f 315/152/192 232/152/118 270/152/152
f 312/152/190 270/152/152 271/152/153
f 272/152/154 312/152/190 271/152/153
f 318/152/195 322/152/2 321/152/198
f 320/152/197 322/152/2 319/152/196
f 322/152/2 324/152/200 321/152/198
f 322/152/2 326/152/202 325/152/201
f 234/152/120 318/152/195 242/152/128
f 254/152/136 319/152/196 318/152/195
f 252/152/135 319/152/196 253/152/101
f 233/152/119 320/152/197 252/152/135
f 267/152/149 323/152/199 320/152/197
f 323/152/199 269/152/151 326/152/202
f 326/152/202 229/152/115 243/152/129
f 325/152/201 243/152/129 244/152/15
f 325/152/201 245/152/130 324/152/200
f 324/152/200 230/152/116 240/152/126
f 321/152/198 240/152/126 241/152/127
f 242/152/128 321/152/198 241/152/127
f 273/152/155 274/152/156 277/152/62
f 275/152/157 278/152/159 277/152/62
f 277/152/62 280/152/161 279/152/160
f 277/152/62 278/152/159 281/152/162
f 229/152/115 269/152/151 273/152/155
f 269/152/151 268/152/150 274/152/156
f 267/152/149 275/152/157 274/152/156
f 233/152/119 266/152/148 275/152/157
f 266/152/148 265/152/147 278/152/159
f 278/152/159 265/152/147 264/152/146
f 281/152/162 264/152/146 235/152/121
f 280/152/161 281/152/162 257/152/139
f 280/152/161 256/152/138 255/152/137
f 279/152/160 255/152/137 231/152/117
f 276/152/158 279/152/160 260/152/142
f 258/152/140 273/152/155 276/152/158
f 282/152/163 283/152/164 286/152/57
f 284/152/165 287/152/167 286/152/57
f 286/152/57 289/152/169 288/152/168
f 286/152/57 287/152/167 290/152/170
f 232/152/118 251/152/134 282/152/163
f 251/152/134 250/152/43 283/152/164
f 249/152/133 284/152/165 283/152/164
f 231/152/117 255/152/137 284/152/165
f 255/152/137 256/152/138 287/152/167
f 287/152/167 256/152/138 257/152/139
f 290/152/170 257/152/139 235/152/121
f 289/152/169 290/152/170 248/152/132
f 289/152/169 247/152/73 246/152/131
f 288/152/168 246/152/131 236/152/122
f 285/152/166 288/152/168 261/152/143
f 263/152/145 282/152/163 285/152/166
f 291/152/171 292/152/172 295/152/87
f 293/152/173 296/152/175 295/152/87
f 295/152/87 298/152/177 297/152/176
f 295/152/87 296/152/175 299/152/178
f 236/152/122 246/152/131 291/152/171
f 246/152/131 247/152/73 292/152/172
f 248/152/132 293/152/173 292/152/172
f 235/152/121 264/152/146 293/152/173
f 264/152/146 265/152/147 296/152/175
f 296/152/175 265/152/147 266/152/148
f 299/152/178 266/152/148 233/152/119
f 298/152/177 299/152/178 252/152/135
f 298/152/177 253/152/101 254/152/136
f 297/152/176 254/152/136 234/152/120
f 294/152/174 297/152/176 237/152/123
f 239/152/125 291/152/171 294/152/174
f 300/152/179 301/152/180 304/152/61
f 302/152/181 305/152/183 304/152/61
f 304/152/61 307/152/185 306/152/184
f 304/152/61 305/152/183 308/152/186
f 234/152/120 242/152/128 300/152/179
f 242/152/128 241/152/127 301/152/180
f 240/152/126 302/152/181 301/152/180
f 230/152/116 272/152/154 302/152/181
f 272/152/154 271/152/153 305/152/183
f 305/152/183 271/152/153 270/152/152
f 308/152/186 270/152/152 232/152/118
f 307/152/185 308/152/186 263/152/145
f 307/152/185 262/152/144 261/152/143
f 306/152/184 261/152/143 236/152/122
f 303/152/182 306/152/184 239/152/125
f 237/152/123 300/152/179 303/152/182
f 309/152/187 310/152/188 313/152/29
f 311/152/189 314/152/191 313/152/29
f 313/152/29 316/152/193 315/152/192
f 313/152/29 314/152/191 317/152/194
f 230/152/116 245/152/130 309/152/187
f 245/152/130 244/152/15 310/152/188
f 243/152/129 311/152/189 310/152/188
f 229/152/115 258/152/140 311/152/189
f 258/152/140 259/152/141 314/152/191
f 314/152/191 259/152/141 260/152/142
f 317/152/194 260/152/142 231/152/117
f 316/152/193 317/152/194 249/152/133
f 316/152/193 250/152/43 251/152/134
f 315/152/192 251/152/134 232/152/118
f 312/152/190 315/152/192 270/152/152
f 272/152/154 309/152/187 312/152/190
f 318/152/195 319/152/196 322/152/2
f 320/152/197 323/152/199 322/152/2
f 322/152/2 325/152/201 324/152/200
f 322/152/2 323/152/199 326/152/202
f 234/152/120 254/152/136 318/152/195
f 254/152/136 253/152/101 319/152/196
f 252/152/135 320/152/197 319/152/196
f 233/152/119 267/152/149 320/152/197
f 267/152/149 268/152/150 323/152/199
f 323/152/199 268/152/150 269/152/151
f 326/152/202 269/152/151 229/152/115
f 325/152/201 326/152/202 243/152/129
f 325/152/201 244/152/15 245/152/130
f 324/152/200 245/152/130 230/152/116
f 321/152/198 324/152/200 240/152/126
f 242/152/128 318/152/195 321/152/198
