# Blender 4.4.3
# www.blender.org
mtllib player_bullet.mtl
o 円柱.002
v -0.469327 0.000000 -0.122373
v 0.471438 -0.000000 -0.011941
v -0.469327 -0.086531 -0.086531
v 0.471438 -0.008444 -0.008444
v -0.469327 -0.122373 0.000000
v 0.471438 -0.011941 0.000000
v -0.469327 -0.086531 0.086531
v 0.471438 -0.008444 0.008444
v -0.469327 0.000000 0.122373
v 0.471438 -0.000000 0.011941
v -0.469327 0.086531 0.086531
v 0.471438 0.008443 0.008444
v -0.469327 0.122374 0.000000
v 0.471438 0.011941 0.000000
v -0.469327 0.086531 -0.086531
v 0.471438 0.008443 -0.008444
v 0.000000 0.000000 -0.183492
v -0.000000 -0.129749 -0.129749
v -0.000000 -0.183492 0.000000
v -0.000000 -0.129749 0.129749
v 0.000000 0.000000 0.183492
v 0.000000 0.129749 0.129749
v 0.000000 0.183492 0.000000
v 0.000000 0.129749 -0.129749
v -0.340068 -0.058834 -0.058835
v -0.340068 -0.083205 0.000000
v -0.340068 -0.058834 0.058835
v -0.340068 0.000000 0.083205
v -0.340068 0.058835 0.058835
v -0.340068 0.083205 0.000000
v -0.340068 0.058835 -0.058835
v -0.340068 0.000000 -0.083205
vn 0.3187 -0.3627 -0.8757
vn 0.3187 -0.8757 -0.3627
vn 0.3187 -0.8757 0.3627
vn 0.3187 -0.3627 0.8757
vn 0.3187 0.3627 0.8757
vn 0.3187 0.8757 0.3627
vn 1.0000 -0.0000 -0.0000
vn 0.3187 0.8757 -0.3627
vn 0.3187 0.3627 -0.8757
vn -1.0000 -0.0000 -0.0000
vn -0.2629 0.3692 -0.8914
vn -0.2629 0.8914 -0.3692
vn -0.2629 0.8914 0.3692
vn -0.2629 0.3692 0.8914
vn -0.2629 -0.3692 0.8914
vn -0.2629 -0.8914 0.3692
vn -0.2629 -0.8914 -0.3692
vn -0.2629 -0.3692 -0.8914
vn 0.2696 -0.3685 -0.8897
vn 0.2696 -0.8897 -0.3685
vn 0.2696 -0.8897 0.3685
vn 0.2696 -0.3685 0.8897
vn 0.2696 0.3685 0.8897
vn 0.2696 0.8897 0.3685
vn 0.2696 0.8897 -0.3685
vn 0.2696 0.3685 -0.8897
vt 1.000000 1.000000
vt 0.875000 0.750000
vt 1.000000 0.750000
vt 0.750000 1.000000
vt 0.750000 0.750000
vt 0.625000 1.000000
vt 0.625000 0.750000
vt 0.500000 1.000000
vt 0.500000 0.750000
vt 0.375000 1.000000
vt 0.375000 0.750000
vt 0.250000 1.000000
vt 0.250000 0.750000
vt 0.010000 0.250000
vt 0.250000 0.010000
vt 0.490000 0.250000
vt 0.125000 0.750000
vt 0.125000 1.000000
vt 0.000000 0.750000
vt 0.919706 0.080294
vt 0.580294 0.080294
vt 0.580294 0.419706
vt 0.000000 0.625000
vt 0.125000 0.625000
vt 0.250000 0.625000
vt 0.375000 0.625000
vt 0.500000 0.625000
vt 0.625000 0.625000
vt 0.750000 0.625000
vt 0.875000 0.625000
vt 1.000000 0.625000
vt 1.000000 0.500000
vt 0.875000 0.500000
vt 0.750000 0.500000
vt 0.625000 0.500000
vt 0.500000 0.500000
vt 0.375000 0.500000
vt 0.250000 0.500000
vt 0.125000 0.500000
vt 0.000000 0.500000
vt 0.875000 1.000000
vt 0.419706 0.419706
vt 0.250000 0.490000
vt 0.080294 0.419706
vt 0.080294 0.080294
vt 0.419706 0.080294
vt 0.000000 1.000000
vt 0.750000 0.490000
vt 0.919706 0.419706
vt 0.990000 0.250000
vt 0.750000 0.010000
vt 0.510000 0.250000
s 0
f 2/1/1 18/2/1 17/3/1
f 18/2/2 6/4/2 19/5/2
f 19/5/3 8/6/3 20/7/3
f 20/7/4 10/8/4 21/9/4
f 21/9/5 12/10/5 22/11/5
f 22/11/6 14/12/6 23/13/6
f 14/14/7 10/15/7 6/16/7
f 14/12/8 24/17/8 23/13/8
f 16/18/9 17/19/9 24/17/9
f 7/20/10 11/21/10 15/22/10
f 24/17/11 32/23/11 31/24/11
f 23/13/12 31/24/12 30/25/12
f 29/26/13 23/13/13 30/25/13
f 28/27/14 22/11/14 29/26/14
f 20/7/15 28/27/15 27/28/15
f 19/5/16 27/28/16 26/29/16
f 18/2/17 26/29/17 25/30/17
f 17/3/18 25/30/18 32/31/18
f 1/32/19 25/30/19 3/33/19
f 25/30/20 5/34/20 3/33/20
f 26/29/21 7/35/21 5/34/21
f 27/28/22 9/36/22 7/35/22
f 28/27/23 11/37/23 9/36/23
f 29/26/24 13/38/24 11/37/24
f 30/25/25 15/39/25 13/38/25
f 15/39/26 32/23/26 1/40/26
f 2/1/1 4/41/1 18/2/1
f 18/2/2 4/41/2 6/4/2
f 19/5/3 6/4/3 8/6/3
f 20/7/4 8/6/4 10/8/4
f 21/9/5 10/8/5 12/10/5
f 22/11/6 12/10/6 14/12/6
f 6/16/7 4/42/7 2/43/7
f 2/43/7 16/44/7 14/14/7
f 14/14/7 12/45/7 10/15/7
f 10/15/7 8/46/7 6/16/7
f 6/16/7 2/43/7 14/14/7
f 14/12/8 16/18/8 24/17/8
f 16/18/9 2/47/9 17/19/9
f 15/22/10 1/48/10 3/49/10
f 3/49/10 5/50/10 7/20/10
f 7/20/10 9/51/10 11/21/10
f 11/21/10 13/52/10 15/22/10
f 15/22/10 3/49/10 7/20/10
f 24/17/11 17/19/11 32/23/11
f 23/13/12 24/17/12 31/24/12
f 29/26/13 22/11/13 23/13/13
f 28/27/14 21/9/14 22/11/14
f 20/7/15 21/9/15 28/27/15
f 19/5/16 20/7/16 27/28/16
f 18/2/17 19/5/17 26/29/17
f 17/3/18 18/2/18 25/30/18
f 1/32/19 32/31/19 25/30/19
f 25/30/20 26/29/20 5/34/20
f 26/29/21 27/28/21 7/35/21
f 27/28/22 28/27/22 9/36/22
f 28/27/23 29/26/23 11/37/23
f 29/26/24 30/25/24 13/38/24
f 30/25/25 31/24/25 15/39/25
f 15/39/26 31/24/26 32/23/26
