# Blender 4.4.3
# www.blender.org
mtllib player_main.mtl
o 円錐
v 0.235924 2.868896 -0.140079
v 0.219195 2.721618 -0.099051
v 0.212266 2.660614 0.000000
v 0.219195 2.721618 0.099051
v 0.235924 2.868896 0.140079
v 0.252653 3.016175 0.099051
v 0.259582 3.077179 0.000000
v 0.252653 3.016175 -0.099051
v 0.652489 2.821580 0.000000
v 0.500000 2.283727 -0.500000
v 0.500000 0.569381 -0.500000
v 0.500000 2.283727 0.500000
v 0.500000 0.569381 0.500000
v -0.500000 2.283726 -0.500000
v -0.500000 0.569381 -0.500000
v -0.500000 2.283726 0.500000
v -0.500000 0.569381 0.500000
v -0.572933 0.444349 -0.296650
v -0.609568 0.381544 -0.000000
v -0.572933 0.444349 0.296650
v 0.296650 0.444349 -0.572933
v 0.000000 0.381544 -0.609568
v -0.296650 0.444349 -0.572933
v 0.572933 1.935114 -0.572933
v 0.609568 1.426554 -0.609568
v 0.572933 0.917993 -0.572933
v -0.572933 0.917993 0.572933
v -0.609568 1.426554 0.609568
v -0.572933 1.935114 0.572933
v 0.572933 1.935114 0.572933
v 0.609568 1.426554 0.609568
v 0.572933 0.917993 0.572933
v -0.572933 1.935114 -0.572933
v -0.609568 1.426554 -0.609568
v -0.572933 0.917993 -0.572933
v 0.296650 2.408758 0.572933
v 0.000000 2.471564 0.609568
v -0.296650 2.408758 0.572933
v 0.572933 2.408759 -0.296650
v 0.609568 2.471564 0.000000
v 0.572933 2.408759 0.296650
v -0.296650 0.444349 0.572933
v 0.000000 0.381544 0.609568
v 0.296650 0.444349 0.572933
v -0.572933 2.408759 0.296650
v -0.609568 2.471563 -0.000000
v -0.572933 2.408759 -0.296650
v -0.296650 2.408759 -0.572933
v 0.000000 2.471564 -0.609568
v 0.296650 2.408759 -0.572933
v 0.572933 0.444349 0.296650
v 0.609568 0.381544 0.000000
v 0.572933 0.444349 -0.296650
v 0.316157 2.676294 -0.316157
v 0.000000 2.766878 -0.333140
v -0.316157 2.676294 -0.316157
v 0.333140 2.766878 0.000000
v 0.000000 2.865757 -0.000000
v -0.333140 2.766878 -0.000000
v 0.316157 2.676294 0.316157
v 0.000000 2.766878 0.333140
v -0.316157 2.676294 0.316157
v 0.316157 0.884551 0.728990
v 0.333140 1.426554 0.781829
v 0.316157 1.968556 0.728990
v 0.000000 0.855436 0.781829
v 0.000000 1.426554 0.839506
v 0.000000 1.997672 0.781829
v -0.316157 0.884551 0.728990
v -0.333140 1.426554 0.781829
v -0.316157 1.968556 0.728990
v -0.728990 0.884551 0.316157
v -0.781829 1.426554 0.333140
v -0.728990 1.968556 0.316157
v -0.781829 0.855436 -0.000000
v -0.839506 1.426554 -0.000000
v -0.781829 1.997672 0.000000
v -0.728990 0.884551 -0.316157
v -0.781829 1.426554 -0.333140
v -0.728990 1.968556 -0.316157
v -0.316157 0.176813 -0.316157
v 0.000000 0.086229 -0.333140
v 0.316157 0.176813 -0.316157
v -0.333140 0.086230 0.000000
v 0.000000 -0.012650 0.000000
v 0.333140 0.086229 -0.000000
v -0.316157 0.176813 0.316157
v 0.000000 0.086229 0.333140
v 0.316157 0.176814 0.316157
v 0.728990 0.884552 -0.316157
v 0.781829 1.426554 -0.333140
v 0.728990 1.968556 -0.316157
v 0.781829 0.855436 0.000000
v 0.839506 1.426554 -0.000000
v 0.781829 1.997672 -0.000000
v 0.728990 0.884552 0.316157
v 0.781829 1.426554 0.333140
v 0.728990 1.968556 0.316157
v -0.316157 0.884551 -0.728990
v -0.333140 1.426554 -0.781829
v -0.316157 1.968556 -0.728990
v 0.000000 0.855436 -0.781829
v 0.000000 1.426554 -0.839506
v 0.000000 1.997672 -0.781829
v 0.316157 0.884552 -0.728990
v 0.333141 1.426554 -0.781829
v 0.316157 1.968556 -0.728990
v 0.238308 3.181150 -0.208363
v 0.238308 2.777512 -0.208363
v 0.238308 3.181150 0.208363
v 0.238308 2.777512 0.208363
v -0.238308 3.181150 -0.208363
v -0.238308 2.777511 -0.208363
v -0.238308 3.181150 0.208363
v -0.238308 2.777511 0.208363
v -0.273069 2.748073 -0.123622
v -0.290530 2.733286 -0.000000
v -0.273069 2.748073 0.123622
v 0.141388 2.748073 -0.238756
v 0.000000 2.733285 -0.254023
v -0.141388 2.748073 -0.238756
v 0.273069 3.099070 -0.238756
v 0.290530 2.979331 -0.254023
v 0.273069 2.859591 -0.238756
v -0.273069 2.859591 0.238756
v -0.290530 2.979331 0.254023
v -0.273069 3.099070 0.238756
v 0.273069 3.099070 0.238756
v 0.290530 2.979331 0.254023
v 0.273069 2.859591 0.238756
v -0.273069 3.099070 -0.238756
v -0.290530 2.979331 -0.254023
v -0.273069 2.859591 -0.238756
v 0.141388 3.210588 0.238756
v 0.000000 3.225376 0.254023
v -0.141388 3.210588 0.238756
v 0.273069 3.210588 -0.123622
v 0.290530 3.225376 0.000000
v 0.273069 3.210588 0.123622
v -0.141388 2.748073 0.238756
v 0.000000 2.733285 0.254023
v 0.141388 2.748073 0.238756
v -0.273069 3.210588 0.123622
v -0.290530 3.225376 -0.000000
v -0.273069 3.210588 -0.123622
v -0.141388 3.210588 -0.238756
v 0.000000 3.225376 -0.254023
v 0.141388 3.210588 -0.238756
v 0.273069 2.748073 0.123622
v 0.290530 2.733286 0.000000
v 0.273069 2.748073 -0.123622
v 0.150686 3.273579 -0.131751
v 0.000000 3.294907 -0.138828
v -0.150685 3.273579 -0.131751
v 0.158780 3.294907 0.000000
v 0.000000 3.318187 -0.000000
v -0.158780 3.294907 -0.000000
v 0.150686 3.273579 0.131751
v 0.000000 3.294907 0.138828
v -0.150685 3.273579 0.131751
v 0.150686 2.851717 0.303789
v 0.158780 2.979331 0.325808
v 0.150686 3.106944 0.303789
v 0.000000 2.844862 0.325808
v 0.000000 2.979331 0.349844
v 0.000000 3.113799 0.325808
v -0.150685 2.851717 0.303789
v -0.158780 2.979331 0.325808
v -0.150685 3.106944 0.303789
v -0.347448 2.851718 0.131751
v -0.372632 2.979331 0.138828
v -0.347448 3.106944 0.131751
v -0.372632 2.844862 -0.000000
v -0.400122 2.979331 -0.000000
v -0.372632 3.113799 0.000000
v -0.347448 2.851718 -0.131751
v -0.372632 2.979331 -0.138828
v -0.347448 3.106944 -0.131751
v -0.150685 2.685082 -0.131751
v 0.000000 2.663754 -0.138828
v 0.150686 2.685082 -0.131751
v -0.158780 2.663755 0.000000
v 0.000000 2.640474 0.000000
v 0.158780 2.663754 -0.000000
v -0.150685 2.685082 0.131751
v 0.000000 2.663754 0.138828
v 0.150686 2.685082 0.131751
v 0.347448 2.851717 -0.131751
v 0.372632 2.979331 -0.138828
v 0.347448 3.106944 -0.131751
v 0.372632 2.844862 0.000000
v 0.400122 2.979331 -0.000000
v 0.372632 3.113799 -0.000000
v 0.347448 2.851717 0.131751
v 0.372632 2.979331 0.138828
v 0.347448 3.106944 0.131751
v -0.150685 2.851717 -0.303789
v -0.158780 2.979331 -0.325808
v -0.150685 3.106944 -0.303789
v 0.000000 2.844862 -0.325808
v 0.000000 2.979331 -0.349844
v 0.000000 3.113799 -0.325808
v 0.150686 2.851718 -0.303789
v 0.158780 2.979331 -0.325808
v 0.150686 3.106944 -0.303789
vn -0.5235 0.0595 -0.8499
vn -0.5428 -0.4849 -0.6857
vn -0.5278 -0.8494 -0.0000
vn -0.5428 -0.4849 0.6857
vn -0.5235 0.0595 0.8499
vn -0.4202 0.5943 0.6857
vn -0.3239 0.9461 -0.0000
vn -0.4202 0.5943 -0.6857
vn 0.9936 -0.1129 -0.0000
vn 0.6492 0.3964 -0.6492
vn 0.6492 -0.3964 -0.6492
vn 0.6492 0.3964 0.6492
vn 0.6492 -0.3964 0.6492
vn -0.6492 0.3964 -0.6492
vn -0.6492 -0.3964 -0.6492
vn -0.6492 0.3964 0.6492
vn -0.6492 -0.3964 0.6492
vn -0.7854 -0.4921 -0.3754
vn -0.8449 -0.5349 -0.0000
vn -0.7854 -0.4921 0.3754
vn 0.3754 -0.4921 -0.7854
vn -0.0000 -0.5349 -0.8449
vn -0.3754 -0.4921 -0.7854
vn 0.6950 0.1846 -0.6950
vn 0.7071 -0.0000 -0.7071
vn 0.6950 -0.1846 -0.6950
vn -0.6950 -0.1846 0.6950
vn -0.7071 -0.0000 0.7071
vn -0.6950 0.1846 0.6950
vn 0.6950 0.1846 0.6950
vn 0.7071 -0.0000 0.7071
vn 0.6950 -0.1846 0.6950
vn -0.6950 0.1846 -0.6950
vn -0.7071 -0.0000 -0.7071
vn -0.6950 -0.1846 -0.6950
vn 0.3754 0.4921 0.7854
vn -0.0000 0.5349 0.8449
vn -0.3754 0.4921 0.7854
vn 0.7854 0.4921 -0.3754
vn 0.8449 0.5349 -0.0000
vn 0.7854 0.4921 0.3754
vn -0.3754 -0.4921 0.7854
vn -0.0000 -0.5349 0.8449
vn 0.3754 -0.4921 0.7854
vn -0.7854 0.4921 0.3754
vn -0.8449 0.5349 -0.0000
vn -0.7854 0.4921 -0.3754
vn -0.3754 0.4921 -0.7854
vn -0.0000 0.5349 -0.8449
vn 0.3754 0.4921 -0.7854
vn 0.7854 -0.4921 0.3754
vn 0.8449 -0.5349 -0.0000
vn 0.7854 -0.4921 -0.3754
vn 0.4688 0.7487 -0.4688
vn -0.0000 0.8582 -0.5133
vn -0.4688 0.7487 -0.4688
vn 0.5133 0.8582 -0.0000
vn -0.0000 1.0000 -0.0000
vn -0.5133 0.8582 -0.0000
vn 0.4688 0.7487 0.4688
vn -0.0000 0.8582 0.5133
vn -0.4688 0.7487 0.4688
vn 0.3521 -0.2086 0.9124
vn 0.3557 -0.0000 0.9346
vn 0.3521 0.2086 0.9124
vn -0.0000 -0.2266 0.9740
vn -0.0000 -0.0000 1.0000
vn -0.0000 0.2266 0.9740
vn -0.3521 -0.2086 0.9124
vn -0.3557 -0.0000 0.9346
vn -0.3521 0.2086 0.9124
vn -0.9124 -0.2086 0.3521
vn -0.9346 -0.0000 0.3557
vn -0.9124 0.2086 0.3521
vn -0.9740 -0.2266 -0.0000
vn -1.0000 -0.0000 -0.0000
vn -0.9740 0.2266 -0.0000
vn -0.9124 -0.2086 -0.3521
vn -0.9346 -0.0000 -0.3557
vn -0.9124 0.2086 -0.3521
vn -0.4688 -0.7487 -0.4688
vn -0.0000 -0.8582 -0.5133
vn 0.4688 -0.7487 -0.4688
vn -0.5133 -0.8582 -0.0000
vn -0.0000 -1.0000 -0.0000
vn 0.5133 -0.8582 -0.0000
vn -0.4688 -0.7487 0.4688
vn -0.0000 -0.8582 0.5133
vn 0.4688 -0.7487 0.4688
vn 0.9124 -0.2086 -0.3521
vn 0.9346 -0.0000 -0.3557
vn 0.9124 0.2086 -0.3521
vn 0.9740 -0.2266 -0.0000
vn 1.0000 -0.0000 -0.0000
vn 0.9740 0.2266 -0.0000
vn 0.9124 -0.2086 0.3521
vn 0.9346 -0.0000 0.3557
vn 0.9124 0.2086 0.3521
vn -0.3521 -0.2086 -0.9124
vn -0.3557 -0.0000 -0.9346
vn -0.3521 0.2086 -0.9124
vn -0.0000 -0.2266 -0.9740
vn -0.0000 -0.0000 -1.0000
vn -0.0000 0.2266 -0.9740
vn 0.3521 -0.2086 -0.9124
vn 0.3557 -0.0000 -0.9346
vn 0.3521 0.2086 -0.9124
vn 0.5215 0.6124 -0.5941
vn 0.5215 -0.6124 -0.5941
vn 0.5215 0.6124 0.5941
vn 0.5215 -0.6124 0.5941
vn -0.5215 0.6124 -0.5941
vn -0.5215 -0.6124 -0.5941
vn -0.5215 0.6124 0.5941
vn -0.5215 -0.6124 0.5941
vn -0.6199 -0.7181 -0.3163
vn -0.6556 -0.7551 -0.0000
vn -0.6199 -0.7181 0.3163
vn 0.2659 -0.6912 -0.6720
vn -0.0000 -0.7167 -0.6974
vn -0.2659 -0.6912 -0.6720
vn 0.6268 0.3299 -0.7059
vn 0.6658 -0.0000 -0.7461
vn 0.6268 -0.3299 -0.7059
vn -0.6268 -0.3299 0.7059
vn -0.6658 -0.0000 0.7461
vn -0.6268 0.3299 0.7059
vn 0.6268 0.3299 0.7059
vn 0.6658 -0.0000 0.7461
vn 0.6268 -0.3299 0.7059
vn -0.6268 0.3299 -0.7059
vn -0.6658 -0.0000 -0.7461
vn -0.6268 -0.3299 -0.7059
vn 0.2659 0.6912 0.6720
vn -0.0000 0.7167 0.6974
vn -0.2659 0.6912 0.6720
vn 0.6199 0.7181 -0.3163
vn 0.6556 0.7551 -0.0000
vn 0.6199 0.7181 0.3163
vn -0.2659 -0.6912 0.6720
vn -0.0000 -0.7167 0.6974
vn 0.2659 -0.6912 0.6720
vn -0.6199 0.7181 0.3163
vn -0.6556 0.7551 -0.0000
vn -0.6199 0.7181 -0.3163
vn -0.2659 0.6912 -0.6720
vn -0.0000 0.7167 -0.6974
vn 0.2659 0.6912 -0.6720
vn 0.6199 -0.7181 0.3163
vn 0.6556 -0.7551 -0.0000
vn 0.6199 -0.7181 -0.3163
vn 0.2932 0.8960 -0.3334
vn -0.0000 0.9380 -0.3466
vn -0.2932 0.8960 -0.3334
vn 0.3112 0.9504 -0.0000
vn -0.3112 0.9504 -0.0000
vn 0.2932 0.8960 0.3334
vn -0.0000 0.9380 0.3466
vn -0.2932 0.8960 0.3334
vn 0.2990 -0.3502 0.8877
vn 0.3194 -0.0000 0.9476
vn 0.2990 0.3502 0.8877
vn -0.0000 -0.3644 0.9313
vn -0.0000 0.3644 0.9313
vn -0.2990 -0.3502 0.8877
vn -0.3194 -0.0000 0.9476
vn -0.2990 0.3502 0.8877
vn -0.8502 -0.3778 0.3668
vn -0.9195 -0.0000 0.3930
vn -0.8502 0.3778 0.3668
vn -0.9155 -0.4024 -0.0000
vn -0.9155 0.4024 -0.0000
vn -0.8502 -0.3778 -0.3668
vn -0.9195 -0.0000 -0.3930
vn -0.8502 0.3778 -0.3668
vn -0.2932 -0.8960 -0.3334
vn -0.0000 -0.9380 -0.3466
vn 0.2932 -0.8960 -0.3334
vn -0.3112 -0.9504 -0.0000
vn 0.3112 -0.9504 -0.0000
vn -0.2932 -0.8960 0.3334
vn -0.0000 -0.9380 0.3466
vn 0.2932 -0.8960 0.3334
vn 0.8502 -0.3778 -0.3668
vn 0.9195 -0.0000 -0.3930
vn 0.8502 0.3778 -0.3668
vn 0.9155 -0.4024 -0.0000
vn 0.9155 0.4024 -0.0000
vn 0.8502 -0.3778 0.3668
vn 0.9195 -0.0000 0.3930
vn 0.8502 0.3778 0.3668
vn -0.2990 -0.3502 -0.8877
vn -0.3194 -0.0000 -0.9476
vn -0.2990 0.3502 -0.8877
vn -0.0000 -0.3644 -0.9313
vn -0.0000 0.3644 -0.9313
vn 0.2990 -0.3502 -0.8877
vn 0.3194 -0.0000 -0.9476
vn 0.2990 0.3502 -0.8877
vt 0.250000 0.490000
vt 0.250000 0.250000
vt 0.419706 0.419706
vt 0.490000 0.250000
vt 0.419706 0.080294
vt 0.250000 0.010000
vt 0.080294 0.080294
vt 0.010000 0.250000
vt 0.919706 0.080294
vt 0.580294 0.080294
vt 0.580294 0.419706
vt 0.080294 0.419706
vt 0.000000 0.000000
vt 0.750000 0.490000
vt 0.919706 0.419706
vt 0.990000 0.250000
vt 0.750000 0.010000
vt 0.510000 0.250000
s 1
usemtl 
f 1/1/1 9/2/9 2/3/2
f 2/3/2 9/2/9 3/4/3
f 3/4/3 9/2/9 4/5/4
f 4/5/4 9/2/9 5/6/5
f 5/6/5 9/2/9 6/7/6
f 6/7/6 9/2/9 7/8/7
f 4/9/4 6/10/6 8/11/8
f 7/8/7 9/2/9 8/12/8
f 8/12/8 9/2/9 1/1/1
f 8/11/8 1/14/1 2/15/2
f 2/15/2 3/16/3 4/9/4
f 4/9/4 5/17/5 6/10/6
f 6/10/6 7/18/7 8/11/8
f 8/11/8 2/15/2 4/9/4
usemtl Material
f 55/13/55 57/13/57 54/13/54
f 55/13/55 59/13/59 58/13/58
f 57/13/57 61/13/61 60/13/60
f 59/13/59 61/13/61 58/13/58
f 50/13/50 39/13/39 10/13/10
f 49/13/49 54/13/54 50/13/50
f 49/13/49 56/13/56 55/13/55
f 48/13/48 47/13/47 56/13/56
f 56/13/56 46/13/46 59/13/59
f 46/13/46 62/13/62 59/13/59
f 45/13/45 38/13/38 62/13/62
f 62/13/62 37/13/37 61/13/61
f 60/13/60 37/13/37 36/13/36
f 41/13/41 36/13/36 12/13/12
f 40/13/40 60/13/60 41/13/41
f 54/13/54 40/13/40 39/13/39
f 63/13/63 67/13/67 66/13/66
f 65/13/65 67/13/67 64/13/64
f 67/13/67 69/13/69 66/13/66
f 67/13/67 71/13/71 70/13/70
f 13/13/13 63/13/63 44/13/44
f 32/13/32 64/13/64 63/13/63
f 30/13/30 64/13/64 31/13/31
f 12/13/12 65/13/65 30/13/30
f 36/13/36 68/13/68 65/13/65
f 68/13/68 38/13/38 71/13/71
f 71/13/71 16/13/16 29/13/29
f 70/13/70 29/13/29 28/13/28
f 70/13/70 27/13/27 69/13/69
f 69/13/69 17/13/17 42/13/42
f 66/13/66 42/13/42 43/13/43
f 44/13/44 66/13/66 43/13/43
f 72/13/72 76/13/76 75/13/75
f 74/13/74 76/13/76 73/13/73
f 76/13/76 78/13/78 75/13/75
f 76/13/76 80/13/80 79/13/79
f 17/13/17 72/13/72 20/13/20
f 27/13/27 73/13/73 72/13/72
f 29/13/29 73/13/73 28/13/28
f 16/13/16 74/13/74 29/13/29
f 45/13/45 77/13/77 74/13/74
f 77/13/77 47/13/47 80/13/80
f 80/13/80 14/13/14 33/13/33
f 79/13/79 33/13/33 34/13/34
f 79/13/79 35/13/35 78/13/78
f 78/13/78 15/13/15 18/13/18
f 75/13/75 18/13/18 19/13/19
f 20/13/20 75/13/75 19/13/19
f 82/13/82 84/13/84 81/13/81
f 82/13/82 86/13/86 85/13/85
f 84/13/84 88/13/88 87/13/87
f 86/13/86 88/13/88 85/13/85
f 23/13/23 18/13/18 15/13/15
f 22/13/22 81/13/81 23/13/23
f 22/13/22 83/13/83 82/13/82
f 21/13/21 53/13/53 83/13/83
f 83/13/83 52/13/52 86/13/86
f 52/13/52 89/13/89 86/13/86
f 51/13/51 44/13/44 89/13/89
f 89/13/89 43/13/43 88/13/88
f 87/13/87 43/13/43 42/13/42
f 20/13/20 42/13/42 17/13/17
f 19/13/19 87/13/87 20/13/20
f 81/13/81 19/13/19 18/13/18
f 90/13/90 94/13/94 93/13/93
f 92/13/92 94/13/94 91/13/91
f 94/13/94 96/13/96 93/13/93
f 94/13/94 98/13/98 97/13/97
f 11/13/11 90/13/90 53/13/53
f 26/13/26 91/13/91 90/13/90
f 24/13/24 91/13/91 25/13/25
f 10/13/10 92/13/92 24/13/24
f 39/13/39 95/13/95 92/13/92
f 95/13/95 41/13/41 98/13/98
f 98/13/98 12/13/12 30/13/30
f 97/13/97 30/13/30 31/13/31
f 97/13/97 32/13/32 96/13/96
f 96/13/96 13/13/13 51/13/51
f 93/13/93 51/13/51 52/13/52
f 53/13/53 93/13/93 52/13/52
f 99/13/99 103/13/103 102/13/102
f 101/13/101 103/13/103 100/13/100
f 103/13/103 105/13/105 102/13/102
f 103/13/103 107/13/107 106/13/106
f 15/13/15 99/13/99 23/13/23
f 35/13/35 100/13/100 99/13/99
f 33/13/33 100/13/100 34/13/34
f 14/13/14 101/13/101 33/13/33
f 48/13/48 104/13/104 101/13/101
f 104/13/104 50/13/50 107/13/107
f 107/13/107 10/13/10 24/13/24
f 106/13/106 24/13/24 25/13/25
f 106/13/106 26/13/26 105/13/105
f 105/13/105 11/13/11 21/13/21
f 102/13/102 21/13/21 22/13/22
f 23/13/23 102/13/102 22/13/22
f 55/13/55 58/13/58 57/13/57
f 55/13/55 56/13/56 59/13/59
f 57/13/57 58/13/58 61/13/61
f 59/13/59 62/13/62 61/13/61
f 50/13/50 54/13/54 39/13/39
f 49/13/49 55/13/55 54/13/54
f 49/13/49 48/13/48 56/13/56
f 48/13/48 14/13/14 47/13/47
f 56/13/56 47/13/47 46/13/46
f 46/13/46 45/13/45 62/13/62
f 45/13/45 16/13/16 38/13/38
f 62/13/62 38/13/38 37/13/37
f 60/13/60 61/13/61 37/13/37
f 41/13/41 60/13/60 36/13/36
f 40/13/40 57/13/57 60/13/60
f 54/13/54 57/13/57 40/13/40
f 63/13/63 64/13/64 67/13/67
f 65/13/65 68/13/68 67/13/67
f 67/13/67 70/13/70 69/13/69
f 67/13/67 68/13/68 71/13/71
f 13/13/13 32/13/32 63/13/63
f 32/13/32 31/13/31 64/13/64
f 30/13/30 65/13/65 64/13/64
f 12/13/12 36/13/36 65/13/65
f 36/13/36 37/13/37 68/13/68
f 68/13/68 37/13/37 38/13/38
f 71/13/71 38/13/38 16/13/16
f 70/13/70 71/13/71 29/13/29
f 70/13/70 28/13/28 27/13/27
f 69/13/69 27/13/27 17/13/17
f 66/13/66 69/13/69 42/13/42
f 44/13/44 63/13/63 66/13/66
f 72/13/72 73/13/73 76/13/76
f 74/13/74 77/13/77 76/13/76
f 76/13/76 79/13/79 78/13/78
f 76/13/76 77/13/77 80/13/80
f 17/13/17 27/13/27 72/13/72
f 27/13/27 28/13/28 73/13/73
f 29/13/29 74/13/74 73/13/73
f 16/13/16 45/13/45 74/13/74
f 45/13/45 46/13/46 77/13/77
f 77/13/77 46/13/46 47/13/47
f 80/13/80 47/13/47 14/13/14
f 79/13/79 80/13/80 33/13/33
f 79/13/79 34/13/34 35/13/35
f 78/13/78 35/13/35 15/13/15
f 75/13/75 78/13/78 18/13/18
f 20/13/20 72/13/72 75/13/75
f 82/13/82 85/13/85 84/13/84
f 82/13/82 83/13/83 86/13/86
f 84/13/84 85/13/85 88/13/88
f 86/13/86 89/13/89 88/13/88
f 23/13/23 81/13/81 18/13/18
f 22/13/22 82/13/82 81/13/81
f 22/13/22 21/13/21 83/13/83
f 21/13/21 11/13/11 53/13/53
f 83/13/83 53/13/53 52/13/52
f 52/13/52 51/13/51 89/13/89
f 51/13/51 13/13/13 44/13/44
f 89/13/89 44/13/44 43/13/43
f 87/13/87 88/13/88 43/13/43
f 20/13/20 87/13/87 42/13/42
f 19/13/19 84/13/84 87/13/87
f 81/13/81 84/13/84 19/13/19
f 90/13/90 91/13/91 94/13/94
f 92/13/92 95/13/95 94/13/94
f 94/13/94 97/13/97 96/13/96
f 94/13/94 95/13/95 98/13/98
f 11/13/11 26/13/26 90/13/90
f 26/13/26 25/13/25 91/13/91
f 24/13/24 92/13/92 91/13/91
f 10/13/10 39/13/39 92/13/92
f 39/13/39 40/13/40 95/13/95
f 95/13/95 40/13/40 41/13/41
f 98/13/98 41/13/41 12/13/12
f 97/13/97 98/13/98 30/13/30
f 97/13/97 31/13/31 32/13/32
f 96/13/96 32/13/32 13/13/13
f 93/13/93 96/13/96 51/13/51
f 53/13/53 90/13/90 93/13/93
f 99/13/99 100/13/100 103/13/103
f 101/13/101 104/13/104 103/13/103
f 103/13/103 106/13/106 105/13/105
f 103/13/103 104/13/104 107/13/107
f 15/13/15 35/13/35 99/13/99
f 35/13/35 34/13/34 100/13/100
f 33/13/33 101/13/101 100/13/100
f 14/13/14 48/13/48 101/13/101
f 48/13/48 49/13/49 104/13/104
f 104/13/104 49/13/49 50/13/50
f 107/13/107 50/13/50 10/13/10
f 106/13/106 107/13/107 24/13/24
f 106/13/106 25/13/25 26/13/26
f 105/13/105 26/13/26 11/13/11
f 102/13/102 105/13/105 21/13/21
f 23/13/23 99/13/99 102/13/102
usemtl Material.001
f 152/13/152 156/13/58 155/13/155
f 154/13/154 156/13/58 153/13/153
f 156/13/58 158/13/157 155/13/155
f 156/13/58 160/13/159 159/13/158
f 108/13/108 152/13/152 137/13/137
f 148/13/148 153/13/153 152/13/152
f 146/13/146 153/13/153 147/13/147
f 112/13/112 154/13/154 146/13/146
f 145/13/145 157/13/156 154/13/154
f 157/13/156 143/13/143 160/13/159
f 160/13/159 114/13/114 136/13/136
f 159/13/158 136/13/136 135/13/135
f 159/13/158 134/13/134 158/13/157
f 158/13/157 110/13/110 139/13/139
f 155/13/155 139/13/139 138/13/138
f 137/13/137 155/13/155 138/13/138
f 161/13/160 165/13/67 164/13/163
f 163/13/162 165/13/67 162/13/161
f 165/13/67 167/13/165 164/13/163
f 165/13/67 169/13/167 168/13/166
f 111/13/111 161/13/160 142/13/142
f 130/13/130 162/13/161 161/13/160
f 128/13/128 162/13/161 129/13/129
f 110/13/110 163/13/162 128/13/128
f 134/13/134 166/13/164 163/13/162
f 166/13/164 136/13/136 169/13/167
f 169/13/167 114/13/114 127/13/127
f 168/13/166 127/13/127 126/13/126
f 168/13/166 125/13/125 167/13/165
f 167/13/165 115/13/115 140/13/140
f 164/13/163 140/13/140 141/13/141
f 142/13/142 164/13/163 141/13/141
f 170/13/168 174/13/76 173/13/171
f 172/13/170 174/13/76 171/13/169
f 174/13/76 176/13/173 173/13/171
f 174/13/76 178/13/175 177/13/174
f 115/13/115 170/13/168 118/13/118
f 125/13/125 171/13/169 170/13/168
f 127/13/127 171/13/169 126/13/126
f 114/13/114 172/13/170 127/13/127
f 143/13/143 175/13/172 172/13/170
f 175/13/172 145/13/145 178/13/175
f 178/13/175 112/13/112 131/13/131
f 177/13/174 131/13/131 132/13/132
f 177/13/174 133/13/133 176/13/173
f 176/13/173 113/13/113 116/13/116
f 173/13/171 116/13/116 117/13/117
f 118/13/118 173/13/171 117/13/117
f 179/13/176 183/13/85 182/13/179
f 181/13/178 183/13/85 180/13/177
f 183/13/85 185/13/181 182/13/179
f 183/13/85 187/13/183 186/13/182
f 113/13/113 179/13/176 116/13/116
f 121/13/121 180/13/177 179/13/176
f 119/13/119 180/13/177 120/13/120
f 109/13/109 181/13/178 119/13/119
f 151/13/151 184/13/180 181/13/178
f 184/13/180 149/13/149 187/13/183
f 187/13/183 111/13/111 142/13/142
f 186/13/182 142/13/142 141/13/141
f 186/13/182 140/13/140 185/13/181
f 185/13/181 115/13/115 118/13/118
f 182/13/179 118/13/118 117/13/117
f 116/13/116 182/13/179 117/13/117
f 188/13/184 192/13/94 191/13/187
f 190/13/186 192/13/94 189/13/185
f 192/13/94 194/13/189 191/13/187
f 192/13/94 196/13/191 195/13/190
f 109/13/109 188/13/184 151/13/151
f 124/13/124 189/13/185 188/13/184
f 122/13/122 189/13/185 123/13/123
f 108/13/108 190/13/186 122/13/122
f 137/13/137 193/13/188 190/13/186
f 193/13/188 139/13/139 196/13/191
f 196/13/191 110/13/110 128/13/128
f 195/13/190 128/13/128 129/13/129
f 195/13/190 130/13/130 194/13/189
f 194/13/189 111/13/111 149/13/149
f 191/13/187 149/13/149 150/13/150
f 151/13/151 191/13/187 150/13/150
f 197/13/192 201/13/103 200/13/195
f 199/13/194 201/13/103 198/13/193
f 201/13/103 203/13/197 200/13/195
f 201/13/103 205/13/199 204/13/198
f 113/13/113 197/13/192 121/13/121
f 133/13/133 198/13/193 197/13/192
f 131/13/131 198/13/193 132/13/132
f 112/13/112 199/13/194 131/13/131
f 146/13/146 202/13/196 199/13/194
f 202/13/196 148/13/148 205/13/199
f 205/13/199 108/13/108 122/13/122
f 204/13/198 122/13/122 123/13/123
f 204/13/198 124/13/124 203/13/197
f 203/13/197 109/13/109 119/13/119
f 200/13/195 119/13/119 120/13/120
f 121/13/121 200/13/195 120/13/120
f 152/13/152 153/13/153 156/13/58
f 154/13/154 157/13/156 156/13/58
f 156/13/58 159/13/158 158/13/157
f 156/13/58 157/13/156 160/13/159
f 108/13/108 148/13/148 152/13/152
f 148/13/148 147/13/147 153/13/153
f 146/13/146 154/13/154 153/13/153
f 112/13/112 145/13/145 154/13/154
f 145/13/145 144/13/144 157/13/156
f 157/13/156 144/13/144 143/13/143
f 160/13/159 143/13/143 114/13/114
f 159/13/158 160/13/159 136/13/136
f 159/13/158 135/13/135 134/13/134
f 158/13/157 134/13/134 110/13/110
f 155/13/155 158/13/157 139/13/139
f 137/13/137 152/13/152 155/13/155
f 161/13/160 162/13/161 165/13/67
f 163/13/162 166/13/164 165/13/67
f 165/13/67 168/13/166 167/13/165
f 165/13/67 166/13/164 169/13/167
f 111/13/111 130/13/130 161/13/160
f 130/13/130 129/13/129 162/13/161
f 128/13/128 163/13/162 162/13/161
f 110/13/110 134/13/134 163/13/162
f 134/13/134 135/13/135 166/13/164
f 166/13/164 135/13/135 136/13/136
f 169/13/167 136/13/136 114/13/114
f 168/13/166 169/13/167 127/13/127
f 168/13/166 126/13/126 125/13/125
f 167/13/165 125/13/125 115/13/115
f 164/13/163 167/13/165 140/13/140
f 142/13/142 161/13/160 164/13/163
f 170/13/168 171/13/169 174/13/76
f 172/13/170 175/13/172 174/13/76
f 174/13/76 177/13/174 176/13/173
f 174/13/76 175/13/172 178/13/175
f 115/13/115 125/13/125 170/13/168
f 125/13/125 126/13/126 171/13/169
f 127/13/127 172/13/170 171/13/169
f 114/13/114 143/13/143 172/13/170
f 143/13/143 144/13/144 175/13/172
f 175/13/172 144/13/144 145/13/145
f 178/13/175 145/13/145 112/13/112
f 177/13/174 178/13/175 131/13/131
f 177/13/174 132/13/132 133/13/133
f 176/13/173 133/13/133 113/13/113
f 173/13/171 176/13/173 116/13/116
f 118/13/118 170/13/168 173/13/171
f 179/13/176 180/13/177 183/13/85
f 181/13/178 184/13/180 183/13/85
f 183/13/85 186/13/182 185/13/181
f 183/13/85 184/13/180 187/13/183
f 113/13/113 121/13/121 179/13/176
f 121/13/121 120/13/120 180/13/177
f 119/13/119 181/13/178 180/13/177
f 109/13/109 151/13/151 181/13/178
f 151/13/151 150/13/150 184/13/180
f 184/13/180 150/13/150 149/13/149
f 187/13/183 149/13/149 111/13/111
f 186/13/182 187/13/183 142/13/142
f 186/13/182 141/13/141 140/13/140
f 185/13/181 140/13/140 115/13/115
f 182/13/179 185/13/181 118/13/118
f 116/13/116 179/13/176 182/13/179
f 188/13/184 189/13/185 192/13/94
f 190/13/186 193/13/188 192/13/94
f 192/13/94 195/13/190 194/13/189
f 192/13/94 193/13/188 196/13/191
f 109/13/109 124/13/124 188/13/184
f 124/13/124 123/13/123 189/13/185
f 122/13/122 190/13/186 189/13/185
f 108/13/108 137/13/137 190/13/186
f 137/13/137 138/13/138 193/13/188
f 193/13/188 138/13/138 139/13/139
f 196/13/191 139/13/139 110/13/110
f 195/13/190 196/13/191 128/13/128
f 195/13/190 129/13/129 130/13/130
f 194/13/189 130/13/130 111/13/111
f 191/13/187 194/13/189 149/13/149
f 151/13/151 188/13/184 191/13/187
f 197/13/192 198/13/193 201/13/103
f 199/13/194 202/13/196 201/13/103
f 201/13/103 204/13/198 203/13/197
f 201/13/103 202/13/196 205/13/199
f 113/13/113 133/13/133 197/13/192
f 133/13/133 132/13/132 198/13/193
f 131/13/131 199/13/194 198/13/193
f 112/13/112 146/13/146 199/13/194
f 146/13/146 147/13/147 202/13/196
f 202/13/196 147/13/147 148/13/148
f 205/13/199 148/13/148 108/13/108
f 204/13/198 205/13/199 122/13/122
f 204/13/198 123/13/123 124/13/124
f 203/13/197 124/13/124 109/13/109
f 200/13/195 203/13/197 119/13/119
f 121/13/121 197/13/192 200/13/195
o 球
v 0.000000 2.111606 -2.211976
v 0.000000 1.885211 -2.288096
v 0.000000 1.658815 -2.211976
v 0.000000 1.338644 -1.670780
v 0.043813 2.431777 -1.641650
v 0.080956 2.303535 -1.941378
v 0.105774 2.111606 -2.141650
v 0.114489 1.885211 -2.211976
v 0.105774 1.658815 -2.141650
v 0.080956 1.466887 -1.941378
v 0.043813 1.338644 -1.641650
v 0.080956 2.431777 -1.558695
v 0.149587 2.303535 -1.788096
v 0.195445 2.111606 -1.941378
v 0.211548 1.885211 -1.995203
v 0.195445 1.658815 -1.941378
v 0.149587 1.466887 -1.788096
v 0.080956 1.338644 -1.558695
v 0.105774 2.431777 -1.434543
v 0.195445 2.303535 -1.558694
v 0.255361 2.111606 -1.641650
v 0.276401 1.885211 -1.670780
v 0.255361 1.658815 -1.641650
v 0.195445 1.466887 -1.558694
v 0.105774 1.338644 -1.434543
v 0.114489 2.431777 -1.288097
v 0.211548 2.303535 -1.288096
v 0.276401 2.111606 -1.288096
v 0.299174 1.885211 -1.288096
v 0.276401 1.658815 -1.288096
v 0.211548 1.466887 -1.288096
v 0.114489 1.338644 -1.288097
v 0.105774 2.431777 -1.141650
v 0.195445 2.303535 -1.017498
v 0.255361 2.111606 -0.934543
v 0.276401 1.885211 -0.905413
v 0.255361 1.658815 -0.934543
v 0.195445 1.466887 -1.017498
v 0.105774 1.338644 -1.141650
v 0.080956 2.431777 -1.017498
v 0.149587 2.303535 -0.788096
v 0.195445 2.111606 -0.634815
v 0.211548 1.885211 -0.580990
v 0.195445 1.658815 -0.634815
v 0.149587 1.466887 -0.788096
v 0.080956 1.338644 -1.017498
v 0.043813 2.431777 -0.934543
v 0.080956 2.303535 -0.634815
v 0.105774 2.111606 -0.434543
v 0.114489 1.885211 -0.364217
v 0.105774 1.658815 -0.434543
v 0.080956 1.466887 -0.634815
v 0.043813 1.338644 -0.934543
v -0.000000 2.431777 -0.905413
v -0.000000 2.303535 -0.580990
v -0.000000 2.111606 -0.364217
v -0.000000 1.885211 -0.288097
v -0.000000 1.658815 -0.364217
v -0.000000 1.466887 -0.580990
v -0.000000 1.338644 -0.905413
v 0.000000 1.293611 -1.288097
v 0.000000 2.476810 -1.288097
v -0.043813 2.431777 -0.934543
v -0.080956 2.303535 -0.634815
v -0.105774 2.111606 -0.434543
v -0.114489 1.885211 -0.364217
v -0.105774 1.658815 -0.434543
v -0.080956 1.466887 -0.634815
v -0.043813 1.338644 -0.934543
v -0.080956 2.431777 -1.017499
v -0.149587 2.303535 -0.788097
v -0.195445 2.111606 -0.634815
v -0.211548 1.885211 -0.580990
v -0.195445 1.658815 -0.634815
v -0.149587 1.466887 -0.788097
v -0.080956 1.338644 -1.017499
v -0.105774 2.431777 -1.141650
v -0.195445 2.303535 -1.017499
v -0.255361 2.111606 -0.934543
v -0.276401 1.885211 -0.905414
v -0.255361 1.658815 -0.934543
v -0.195445 1.466887 -1.017499
v -0.105774 1.338644 -1.141650
v -0.114489 2.431777 -1.288097
v -0.211548 2.303535 -1.288097
v -0.276401 2.111606 -1.288097
v -0.299174 1.885211 -1.288097
v -0.276401 1.658815 -1.288097
v -0.211548 1.466887 -1.288097
v -0.114489 1.338644 -1.288097
v -0.105774 2.431777 -1.434543
v -0.195445 2.303535 -1.558695
v -0.255361 2.111606 -1.641650
v -0.276401 1.885211 -1.670780
v -0.255361 1.658815 -1.641650
v -0.195445 1.466887 -1.558695
v -0.105774 1.338644 -1.434543
v -0.080956 2.431777 -1.558695
v -0.149587 2.303535 -1.788097
v -0.195445 2.111606 -1.941378
v -0.211548 1.885211 -1.995204
v -0.195445 1.658815 -1.941378
v -0.149587 1.466887 -1.788097
v -0.080956 1.338644 -1.558695
v -0.043813 2.431777 -1.641650
v -0.080956 2.303535 -1.941378
v -0.105774 2.111606 -2.141650
v -0.114489 1.885211 -2.211976
v -0.105774 1.658815 -2.141650
v -0.080956 1.466887 -1.941378
v -0.043813 1.338644 -1.641650
v 0.000000 2.431777 -1.670780
v 0.000000 2.303535 -1.995203
v 0.000000 1.466887 -1.995203
vn -0.0000 0.5637 -0.8260
vn -0.0000 -0.0000 -1.0000
vn -0.0000 -0.5637 -0.8260
vn -0.0000 -0.9677 -0.2522
vn 0.3083 0.9249 -0.2227
vn 0.5630 0.7195 -0.4066
vn 0.7441 0.3970 -0.5374
vn 0.8107 -0.0000 -0.5855
vn 0.7441 -0.3970 -0.5374
vn 0.5630 -0.7195 -0.4067
vn 0.3083 -0.9249 -0.2227
vn 0.5181 0.8412 -0.1550
vn 0.7986 0.5523 -0.2389
vn 0.9234 0.2666 -0.2762
vn 0.9580 -0.0000 -0.2866
vn 0.9234 -0.2666 -0.2762
vn 0.7986 -0.5523 -0.2389
vn 0.5181 -0.8412 -0.1550
vn 0.6250 0.7767 -0.0775
vn 0.8786 0.4650 -0.1089
vn 0.9694 0.2142 -0.1201
vn 0.9924 -0.0000 -0.1230
vn 0.9694 -0.2142 -0.1201
vn 0.8786 -0.4650 -0.1089
vn 0.6250 -0.7767 -0.0775
vn 0.6568 0.7541 -0.0000
vn 0.8983 0.4393 -0.0000
vn 0.9798 0.2000 -0.0000
vn 1.0000 -0.0000 -0.0000
vn 0.9798 -0.2000 -0.0000
vn 0.8983 -0.4393 -0.0000
vn 0.6568 -0.7541 -0.0000
vn 0.6250 0.7767 0.0775
vn 0.8786 0.4650 0.1089
vn 0.9694 0.2142 0.1201
vn 0.9924 -0.0000 0.1230
vn 0.9694 -0.2142 0.1201
vn 0.8786 -0.4650 0.1089
vn 0.6250 -0.7767 0.0775
vn 0.5181 0.8412 0.1550
vn 0.7986 0.5523 0.2389
vn 0.9234 0.2666 0.2762
vn 0.9580 -0.0000 0.2866
vn 0.9234 -0.2666 0.2762
vn 0.7986 -0.5523 0.2389
vn 0.5181 -0.8412 0.1550
vn 0.3083 0.9249 0.2227
vn 0.5630 0.7195 0.4067
vn 0.7441 0.3970 0.5374
vn 0.8107 -0.0000 0.5855
vn 0.7441 -0.3970 0.5374
vn 0.5630 -0.7195 0.4066
vn 0.3083 -0.9249 0.2227
vn -0.0000 0.9677 0.2522
vn -0.0000 0.8530 0.5219
vn -0.0000 0.5637 0.8260
vn -0.0000 -0.0000 1.0000
vn -0.0000 -0.5637 0.8260
vn -0.0000 -0.8530 0.5219
vn -0.0000 -0.9677 0.2522
vn -0.0000 -1.0000 -0.0000
vn -0.0000 1.0000 -0.0000
vn -0.3083 0.9249 0.2227
vn -0.5630 0.7195 0.4066
vn -0.7441 0.3970 0.5374
vn -0.8107 -0.0000 0.5855
vn -0.7440 -0.3970 0.5374
vn -0.5630 -0.7195 0.4066
vn -0.3083 -0.9249 0.2227
vn -0.5181 0.8412 0.1550
vn -0.7986 0.5523 0.2389
vn -0.9234 0.2666 0.2762
vn -0.9580 -0.0000 0.2866
vn -0.9234 -0.2666 0.2762
vn -0.7986 -0.5523 0.2389
vn -0.5181 -0.8412 0.1550
vn -0.6250 0.7767 0.0775
vn -0.8786 0.4650 0.1089
vn -0.9694 0.2142 0.1201
vn -0.9924 -0.0000 0.1230
vn -0.9694 -0.2142 0.1201
vn -0.8786 -0.4650 0.1089
vn -0.6250 -0.7767 0.0775
vn -0.6568 0.7541 -0.0000
vn -0.8983 0.4393 -0.0000
vn -0.9798 0.2000 -0.0000
vn -1.0000 -0.0000 -0.0000
vn -0.9798 -0.2000 -0.0000
vn -0.8983 -0.4393 -0.0000
vn -0.6568 -0.7541 -0.0000
vn -0.6250 0.7767 -0.0775
vn -0.8786 0.4650 -0.1089
vn -0.9694 0.2142 -0.1201
vn -0.9924 -0.0000 -0.1230
vn -0.9694 -0.2142 -0.1201
vn -0.8786 -0.4650 -0.1089
vn -0.6250 -0.7767 -0.0775
vn -0.5181 0.8412 -0.1550
vn -0.7986 0.5523 -0.2389
vn -0.9234 0.2666 -0.2762
vn -0.9580 -0.0000 -0.2866
vn -0.9234 -0.2666 -0.2762
vn -0.7986 -0.5523 -0.2389
vn -0.5181 -0.8412 -0.1550
vn -0.3083 0.9249 -0.2227
vn -0.5630 0.7195 -0.4067
vn -0.7441 0.3970 -0.5374
vn -0.8107 -0.0000 -0.5855
vn -0.7441 -0.3970 -0.5374
vn -0.5630 -0.7195 -0.4067
vn -0.3083 -0.9249 -0.2227
vn -0.0000 0.9677 -0.2522
vn -0.0000 0.8530 -0.5219
vn -0.0000 -0.8530 -0.5219
vt 0.750000 0.250000
vt 0.687500 0.125000
vt 0.750000 0.125000
vt 0.750000 0.500000
vt 0.687500 0.375000
vt 0.750000 0.375000
vt 0.750000 0.750000
vt 0.687500 0.625000
vt 0.750000 0.625000
vt 0.750000 0.875000
vt 0.718750 1.000000
vt 0.687500 0.875000
vt 0.718750 0.000000
vt 0.687500 0.250000
vt 0.687500 0.500000
vt 0.687500 0.750000
vt 0.656250 1.000000
vt 0.625000 0.875000
vt 0.656250 0.000000
vt 0.625000 0.125000
vt 0.625000 0.250000
vt 0.625000 0.500000
vt 0.625000 0.750000
vt 0.625000 0.375000
vt 0.625000 0.625000
vt 0.562500 0.375000
vt 0.562500 0.250000
vt 0.562500 0.625000
vt 0.562500 0.500000
vt 0.562500 0.750000
vt 0.562500 0.125000
vt 0.593750 1.000000
vt 0.562500 0.875000
vt 0.593750 0.000000
vt 0.500000 0.125000
vt 0.500000 0.500000
vt 0.500000 0.375000
vt 0.500000 0.750000
vt 0.500000 0.625000
vt 0.531250 1.000000
vt 0.500000 0.875000
vt 0.531250 0.000000
vt 0.500000 0.250000
vt 0.437500 0.375000
vt 0.437500 0.625000
vt 0.468750 1.000000
vt 0.437500 0.875000
vt 0.468750 0.000000
vt 0.437500 0.125000
vt 0.437500 0.250000
vt 0.437500 0.500000
vt 0.437500 0.750000
vt 0.406250 0.000000
vt 0.375000 0.125000
vt 0.375000 0.250000
vt 0.375000 0.625000
vt 0.375000 0.500000
vt 0.375000 0.875000
vt 0.375000 0.750000
vt 0.375000 0.375000
vt 0.406250 1.000000
vt 0.312500 0.500000
vt 0.312500 0.750000
vt 0.312500 0.125000
vt 0.312500 0.375000
vt 0.312500 0.625000
vt 0.343750 1.000000
vt 0.312500 0.875000
vt 0.343750 0.000000
vt 0.312500 0.250000
vt 0.250000 0.250000
vt 0.250000 0.125000
vt 0.250000 0.375000
vt 0.250000 0.625000
vt 0.281250 1.000000
vt 0.250000 0.875000
vt 0.281250 0.000000
vt 0.250000 0.500000
vt 0.250000 0.750000
vt 0.187500 0.625000
vt 0.218750 1.000000
vt 0.187500 0.875000
vt 0.218750 0.000000
vt 0.187500 0.125000
vt 0.187500 0.375000
vt 0.187500 0.250000
vt 0.187500 0.500000
vt 0.187500 0.750000
vt 0.156250 0.000000
vt 0.125000 0.125000
vt 0.125000 0.375000
vt 0.125000 0.250000
vt 0.125000 0.625000
vt 0.125000 0.500000
vt 0.125000 0.750000
vt 0.156250 1.000000
vt 0.125000 0.875000
vt 0.062500 0.750000
vt 0.062500 0.125000
vt 0.062500 0.375000
vt 0.062500 0.625000
vt 0.093750 1.000000
vt 0.062500 0.875000
vt 0.093750 0.000000
vt 0.062500 0.250000
vt 0.062500 0.500000
vt 0.000000 0.125000
vt 0.000000 0.375000
vt 0.000000 0.625000
vt 0.031250 1.000000
vt 0.000000 0.875000
vt 0.031250 0.000000
vt 0.000000 0.250000
vt 0.000000 0.500000
vt 0.000000 0.750000
vt 1.000000 0.875000
vt 0.968750 1.000000
vt 0.937500 0.875000
vt 0.968750 0.000000
vt 1.000000 0.125000
vt 0.937500 0.125000
vt 1.000000 0.375000
vt 0.937500 0.250000
vt 1.000000 0.250000
vt 1.000000 0.500000
vt 0.937500 0.625000
vt 0.937500 0.500000
vt 0.937500 0.750000
vt 1.000000 0.750000
vt 0.937500 0.375000
vt 1.000000 0.625000
vt 0.875000 0.375000
vt 0.875000 0.250000
vt 0.875000 0.625000
vt 0.875000 0.500000
vt 0.875000 0.750000
vt 0.875000 0.125000
vt 0.906250 1.000000
vt 0.875000 0.875000
vt 0.906250 0.000000
vt 0.812500 0.125000
vt 0.812500 0.375000
vt 0.812500 0.625000
vt 0.843750 1.000000
vt 0.812500 0.875000
vt 0.843750 0.000000
vt 0.812500 0.250000
vt 0.812500 0.500000
vt 0.812500 0.750000
vt 0.781250 1.000000
vt 0.781250 0.000000
s 1
f 319/19/313 216/20/210 209/21/203
f 207/22/201 214/23/208 208/24/202
f 318/25/312 212/26/206 206/27/200
f 317/28/311 267/29/261 210/30/204
f 266/31/260 209/21/203 216/20/210
f 319/19/313 214/23/208 215/32/209
f 206/27/200 213/33/207 207/22/201
f 318/25/312 210/30/204 211/34/205
f 210/30/204 267/35/261 217/36/211
f 266/37/260 216/20/210 223/38/217
f 214/23/208 222/39/216 215/32/209
f 212/26/206 220/40/214 213/33/207
f 210/30/204 218/41/212 211/34/205
f 215/32/209 223/38/217 216/20/210
f 214/23/208 220/40/214 221/42/215
f 211/34/205 219/43/213 212/26/206
f 222/39/216 228/44/222 229/45/223
f 220/40/214 226/46/220 227/47/221
f 217/36/211 225/48/219 218/41/212
f 222/39/216 230/49/224 223/38/217
f 220/40/214 228/44/222 221/42/215
f 218/41/212 226/46/220 219/43/213
f 217/36/211 267/50/261 224/51/218
f 266/52/260 223/38/217 230/49/224
f 229/45/223 237/53/231 230/49/224
f 228/44/222 234/54/228 235/55/229
f 226/46/220 232/56/226 233/57/227
f 224/51/218 267/58/261 231/59/225
f 266/60/260 230/49/224 237/53/231
f 228/44/222 236/61/230 229/45/223
f 226/46/220 234/54/228 227/47/221
f 224/51/218 232/56/226 225/48/219
f 234/54/228 242/62/236 235/55/229
f 232/56/226 240/63/234 233/57/227
f 231/59/225 267/64/261 238/65/232
f 266/66/260 237/53/231 244/67/238
f 235/55/229 243/68/237 236/61/230
f 233/57/227 241/69/235 234/54/228
f 232/56/226 238/65/232 239/70/233
f 237/53/231 243/68/237 244/67/238
f 266/71/260 244/67/238 251/72/245
f 242/62/236 250/73/244 243/68/237
f 241/69/235 247/74/241 248/75/242
f 239/70/233 245/76/239 246/77/240
f 244/67/238 250/73/244 251/72/245
f 241/69/235 249/78/243 242/62/236
f 239/70/233 247/74/241 240/63/234
f 238/65/232 267/79/261 245/76/239
f 247/74/241 255/80/249 248/75/242
f 245/76/239 253/81/247 246/77/240
f 250/73/244 258/82/252 251/72/245
f 249/78/243 255/80/249 256/83/250
f 246/77/240 254/84/248 247/74/241
f 245/76/239 267/85/261 252/86/246
f 266/87/260 251/72/245 258/82/252
f 250/73/244 256/83/250 257/88/251
f 258/82/252 264/89/258 265/90/259
f 255/80/249 263/91/257 256/83/250
f 253/81/247 261/92/255 254/84/248
f 252/86/246 267/93/261 259/94/253
f 266/95/260 258/82/252 265/90/259
f 256/83/250 264/89/258 257/88/251
f 255/80/249 261/92/255 262/96/256
f 252/86/246 260/97/254 253/81/247
f 260/97/254 270/98/264 261/92/255
f 259/94/253 267/99/261 268/100/262
f 266/101/260 265/90/259 274/102/268
f 264/89/258 272/103/266 273/104/267
f 261/92/255 271/105/265 262/96/256
f 259/94/253 269/106/263 260/97/254
f 264/89/258 274/102/268 265/90/259
f 262/96/256 272/103/266 263/91/257
f 266/107/260 274/102/268 281/108/275
f 273/104/267 279/109/273 280/110/274
f 271/105/265 277/111/271 278/112/272
f 268/100/262 276/113/270 269/106/263
f 274/102/268 280/110/274 281/108/275
f 271/105/265 279/109/273 272/103/266
f 269/106/263 277/111/271 270/98/264
f 268/100/262 267/114/261 275/115/269
f 275/115/269 283/116/277 276/113/270
f 280/110/274 288/117/282 281/108/275
f 278/112/272 286/118/280 279/109/273
f 276/113/270 284/119/278 277/111/271
f 275/115/269 267/120/261 282/121/276
f 266/122/260 281/108/275 288/117/282
f 280/110/274 286/118/280 287/123/281
f 278/112/272 284/119/278 285/124/279
f 287/123/281 295/125/289 288/117/282
f 285/124/279 293/126/287 286/118/280
f 283/116/277 291/127/285 284/119/278
f 282/121/276 267/128/261 289/129/283
f 266/130/260 288/117/282 295/125/289
f 287/123/281 293/126/287 294/131/288
f 285/124/279 291/127/285 292/132/286
f 283/116/277 289/129/283 290/133/284
f 289/134/283 267/135/261 296/136/290
f 266/137/260 295/138/289 302/139/296
f 293/140/287 301/141/295 294/142/288
f 292/143/286 298/144/292 299/145/293
f 289/134/283 297/146/291 290/147/284
f 294/142/288 302/139/296 295/138/289
f 292/143/286 300/148/294 293/140/287
f 290/147/284 298/144/292 291/149/285
f 301/141/295 307/150/301 308/151/302
f 299/145/293 305/152/299 306/153/300
f 296/136/290 304/154/298 297/146/291
f 301/141/295 309/155/303 302/139/296
f 299/145/293 307/150/301 300/148/294
f 297/146/291 305/152/299 298/144/292
f 296/136/290 267/156/261 303/157/297
f 266/158/260 302/139/296 309/155/303
f 308/151/302 316/159/310 309/155/303
f 306/153/300 314/160/308 307/150/301
f 304/154/298 312/161/306 305/152/299
f 303/157/297 267/162/261 310/163/304
f 266/164/260 309/155/303 316/159/310
f 308/151/302 314/160/308 315/165/309
f 306/153/300 312/161/306 313/166/307
f 303/157/297 311/167/305 304/154/298
f 313/166/307 208/24/202 314/160/308
f 311/167/305 206/27/200 312/161/306
f 310/163/304 267/168/261 317/28/311
f 266/169/260 316/159/310 209/21/203
f 315/165/309 208/24/202 319/19/313
f 312/161/306 207/22/201 313/166/307
f 311/167/305 317/28/311 318/25/312
f 315/165/309 209/21/203 316/159/310
f 319/19/313 215/32/209 216/20/210
f 207/22/201 213/33/207 214/23/208
f 318/25/312 211/34/205 212/26/206
f 319/19/313 208/24/202 214/23/208
f 206/27/200 212/26/206 213/33/207
f 318/25/312 317/28/311 210/30/204
f 214/23/208 221/42/215 222/39/216
f 212/26/206 219/43/213 220/40/214
f 210/30/204 217/36/211 218/41/212
f 215/32/209 222/39/216 223/38/217
f 214/23/208 213/33/207 220/40/214
f 211/34/205 218/41/212 219/43/213
f 222/39/216 221/42/215 228/44/222
f 220/40/214 219/43/213 226/46/220
f 217/36/211 224/51/218 225/48/219
f 222/39/216 229/45/223 230/49/224
f 220/40/214 227/47/221 228/44/222
f 218/41/212 225/48/219 226/46/220
f 229/45/223 236/61/230 237/53/231
f 228/44/222 227/47/221 234/54/228
f 226/46/220 225/48/219 232/56/226
f 228/44/222 235/55/229 236/61/230
f 226/46/220 233/57/227 234/54/228
f 224/51/218 231/59/225 232/56/226
f 234/54/228 241/69/235 242/62/236
f 232/56/226 239/70/233 240/63/234
f 235/55/229 242/62/236 243/68/237
f 233/57/227 240/63/234 241/69/235
f 232/56/226 231/59/225 238/65/232
f 237/53/231 236/61/230 243/68/237
f 242/62/236 249/78/243 250/73/244
f 241/69/235 240/63/234 247/74/241
f 239/70/233 238/65/232 245/76/239
f 244/67/238 243/68/237 250/73/244
f 241/69/235 248/75/242 249/78/243
f 239/70/233 246/77/240 247/74/241
f 247/74/241 254/84/248 255/80/249
f 245/76/239 252/86/246 253/81/247
f 250/73/244 257/88/251 258/82/252
f 249/78/243 248/75/242 255/80/249
f 246/77/240 253/81/247 254/84/248
f 250/73/244 249/78/243 256/83/250
f 258/82/252 257/88/251 264/89/258
f 255/80/249 262/96/256 263/91/257
f 253/81/247 260/97/254 261/92/255
f 256/83/250 263/91/257 264/89/258
f 255/80/249 254/84/248 261/92/255
f 252/86/246 259/94/253 260/97/254
f 260/97/254 269/106/263 270/98/264
f 264/89/258 263/91/257 272/103/266
f 261/92/255 270/98/264 271/105/265
f 259/94/253 268/100/262 269/106/263
f 264/89/258 273/104/267 274/102/268
f 262/96/256 271/105/265 272/103/266
f 273/104/267 272/103/266 279/109/273
f 271/105/265 270/98/264 277/111/271
f 268/100/262 275/115/269 276/113/270
f 274/102/268 273/104/267 280/110/274
f 271/105/265 278/112/272 279/109/273
f 269/106/263 276/113/270 277/111/271
f 275/115/269 282/121/276 283/116/277
f 280/110/274 287/123/281 288/117/282
f 278/112/272 285/124/279 286/118/280
f 276/113/270 283/116/277 284/119/278
f 280/110/274 279/109/273 286/118/280
f 278/112/272 277/111/271 284/119/278
f 287/123/281 294/131/288 295/125/289
f 285/124/279 292/132/286 293/126/287
f 283/116/277 290/133/284 291/127/285
f 287/123/281 286/118/280 293/126/287
f 285/124/279 284/119/278 291/127/285
f 283/116/277 282/121/276 289/129/283
f 293/140/287 300/148/294 301/141/295
f 292/143/286 291/149/285 298/144/292
f 289/134/283 296/136/290 297/146/291
f 294/142/288 301/141/295 302/139/296
f 292/143/286 299/145/293 300/148/294
f 290/147/284 297/146/291 298/144/292
f 301/141/295 300/148/294 307/150/301
f 299/145/293 298/144/292 305/152/299
f 296/136/290 303/157/297 304/154/298
f 301/141/295 308/151/302 309/155/303
f 299/145/293 306/153/300 307/150/301
f 297/146/291 304/154/298 305/152/299
f 308/151/302 315/165/309 316/159/310
f 306/153/300 313/166/307 314/160/308
f 304/154/298 311/167/305 312/161/306
f 308/151/302 307/150/301 314/160/308
f 306/153/300 305/152/299 312/161/306
f 303/157/297 310/163/304 311/167/305
f 313/166/307 207/22/201 208/24/202
f 311/167/305 318/25/312 206/27/200
f 315/165/309 314/160/308 208/24/202
f 312/161/306 206/27/200 207/22/201
f 311/167/305 310/163/304 317/28/311
f 315/165/309 319/19/313 209/21/203
