# Blender 4.4.3
# www.blender.org
mtllib player_gun.mtl
o 円柱.001
v 0.416236 0.000000 -0.122374
v 1.357001 -0.000000 -0.011941
v 0.416236 -0.086531 -0.086531
v 1.357001 -0.008444 -0.008444
v 0.416236 -0.122373 0.000000
v 1.357001 -0.011941 0.000000
v 0.416236 -0.086531 0.086531
v 1.357001 -0.008444 0.008444
v 0.416236 0.000000 0.122374
v 1.357001 -0.000000 0.011941
v 0.416236 0.086531 0.086531
v 1.357001 0.008443 0.008444
v 0.416236 0.122374 0.000000
v 1.357001 0.011941 0.000000
v 0.416236 0.086531 -0.086531
v 1.357001 0.008443 -0.008444
v 0.885563 0.000000 -0.183492
v 0.885563 -0.129749 -0.129749
v 0.885563 -0.183492 0.000000
v 0.885563 -0.129749 0.129749
v 0.885563 0.000000 0.183492
v 0.885563 0.129749 0.129749
v 0.885563 0.183492 0.000000
v 0.885563 0.129749 -0.129749
v 0.545495 -0.058834 -0.058835
v 0.545495 -0.083205 0.000000
v 0.545495 -0.058834 0.058835
v 0.545495 0.000000 0.083205
v 0.545495 0.058835 0.058835
v 0.545495 0.083205 0.000000
v 0.545495 0.058835 -0.058835
v 0.545495 0.000000 -0.083205
v -0.945701 0.000000 -0.236268
v 0.434245 0.000000 -0.160976
v -0.945701 -0.167067 -0.167067
v 0.434245 -0.113827 -0.113827
v -0.945701 -0.236268 0.000000
v 0.434245 -0.160976 0.000000
v -0.945701 -0.167067 0.167067
v 0.434245 -0.113827 0.113827
v -0.945701 0.000000 0.236268
v 0.434245 0.000000 0.160976
v -0.945701 0.167067 0.167067
v 0.434245 0.113827 0.113827
v -0.945701 0.236268 0.000000
v 0.434245 0.160976 0.000000
v -0.945701 0.167067 -0.167067
v 0.434245 0.113827 -0.113827
v -0.255728 0.000000 -0.160976
v -0.255728 -0.113827 -0.113827
v -0.255728 -0.160976 0.000000
v -0.255728 -0.113827 0.113827
v -0.255728 0.000000 0.160976
v -0.255728 0.113827 0.113827
v -0.255728 0.160976 0.000000
v -0.255728 0.113827 -0.113827
v -0.600715 -0.113827 -0.113827
v -0.600715 -0.160976 0.000000
v -0.600715 -0.113827 0.113827
v -0.600715 0.000000 0.160976
v -0.600715 0.113827 0.113827
v -0.600715 0.160976 0.000000
v -0.600715 0.113827 -0.113827
v -0.600715 0.000000 -0.160976
v -0.773208 -0.132475 -0.132475
v -0.773208 -0.187349 0.000000
v -0.773208 -0.132475 0.132475
v -0.773208 0.000000 0.187349
v -0.773208 0.132475 0.132475
v -0.773208 0.187349 0.000000
v -0.773208 0.132475 -0.132475
v -0.773208 0.000000 -0.187349
vn 0.3187 -0.3627 -0.8757
vn 0.3187 -0.8757 -0.3627
vn 0.3187 -0.8757 0.3627
vn 0.3187 -0.3627 0.8757
vn 0.3187 0.3627 0.8757
vn 0.3187 0.8757 0.3627
vn 1.0000 -0.0000 -0.0000
vn 0.3187 0.8757 -0.3627
vn 0.3187 0.3627 -0.8757
vn -1.0000 -0.0000 -0.0000
vn -0.2629 0.3692 -0.8914
vn -0.2629 0.8914 -0.3692
vn -0.2629 0.8914 0.3692
vn -0.2629 0.3692 0.8914
vn -0.2629 -0.3692 0.8914
vn -0.2629 -0.8914 0.3692
vn -0.2629 -0.8914 -0.3692
vn -0.2629 -0.3692 -0.8914
vn 0.2696 -0.3685 -0.8897
vn 0.2696 -0.8897 -0.3685
vn 0.2696 -0.8897 0.3685
vn 0.2696 -0.3685 0.8897
vn 0.2696 0.3685 0.8897
vn 0.2696 0.8897 0.3685
vn 0.2696 0.8897 -0.3685
vn 0.2696 0.3685 -0.8897
vn -0.0000 -0.3827 -0.9239
vn -0.0000 -0.9239 -0.3827
vn -0.0000 -0.9239 0.3827
vn -0.0000 -0.3827 0.9239
vn -0.0000 0.3827 0.9239
vn -0.0000 0.9239 0.3827
vn -0.0000 0.9239 -0.3827
vn -0.0000 0.3827 -0.9239
vn 0.1399 -0.3789 -0.9148
vn 0.1399 -0.9148 -0.3789
vn 0.1399 -0.9148 0.3789
vn 0.1399 -0.3789 0.9148
vn 0.1399 0.3789 0.9148
vn 0.1399 0.9148 0.3789
vn 0.1399 0.9148 -0.3789
vn 0.1399 0.3789 -0.9148
vn 0.2535 0.3702 -0.8937
vn 0.2535 0.8937 -0.3702
vn 0.2535 0.8937 0.3702
vn 0.2535 0.3702 0.8937
vn 0.2535 -0.3702 0.8937
vn 0.2535 -0.8937 0.3702
vn 0.2535 -0.8937 -0.3702
vn 0.2535 -0.3702 -0.8937
vt 1.000000 1.000000
vt 0.875000 0.750000
vt 1.000000 0.750000
vt 0.875000 1.000000
vt 0.750000 0.750000
vt 0.750000 1.000000
vt 0.625000 0.750000
vt 0.500000 1.000000
vt 0.500000 0.750000
vt 0.375000 0.750000
vt 0.375000 1.000000
vt 0.250000 0.750000
vt 0.010000 0.250000
vt 0.250000 0.010000
vt 0.490000 0.250000
vt 0.250000 1.000000
vt 0.125000 0.750000
vt 0.125000 1.000000
vt 0.000000 0.750000
vt 0.919706 0.080294
vt 0.580294 0.080294
vt 0.580294 0.419706
vt 0.000000 0.625000
vt 0.125000 0.625000
vt 0.250000 0.625000
vt 0.375000 0.625000
vt 0.500000 0.625000
vt 0.625000 0.625000
vt 0.750000 0.625000
vt 0.875000 0.625000
vt 1.000000 0.625000
vt 0.875000 0.500000
vt 1.000000 0.500000
vt 0.750000 0.500000
vt 0.625000 0.500000
vt 0.500000 0.500000
vt 0.375000 0.500000
vt 0.250000 0.500000
vt 0.125000 0.500000
vt 0.000000 0.500000
vt 0.625000 1.000000
vt 0.500000 0.625000
vt 0.750000 0.625000
vt 0.875000 0.562500
vt 1.000000 0.562500
vt 0.750000 0.562500
vt 0.625000 0.562500
vt 0.500000 0.562500
vt 0.375000 0.562500
vt 0.250000 0.562500
vt 0.125000 0.562500
vt 0.000000 0.562500
vt 0.419706 0.419706
vt 0.250000 0.490000
vt 0.080294 0.419706
vt 0.080294 0.080294
vt 0.419706 0.080294
vt 0.000000 1.000000
vt 0.750000 0.490000
vt 0.919706 0.419706
vt 0.990000 0.250000
vt 0.750000 0.010000
vt 0.510000 0.250000
s 0
f 2/1/1 18/2/1 17/3/1
f 4/4/2 19/5/2 18/2/2
f 6/6/3 20/7/3 19/5/3
f 20/7/4 10/8/4 21/9/4
f 10/8/5 22/10/5 21/9/5
f 12/11/6 23/12/6 22/10/6
f 14/13/7 10/14/7 6/15/7
f 14/16/8 24/17/8 23/12/8
f 16/18/9 17/19/9 24/17/9
f 7/20/10 11/21/10 15/22/10
f 24/17/11 32/23/11 31/24/11
f 23/12/12 31/24/12 30/25/12
f 29/26/13 23/12/13 30/25/13
f 28/27/14 22/10/14 29/26/14
f 20/7/15 28/27/15 27/28/15
f 26/29/16 20/7/16 27/28/16
f 18/2/17 26/29/17 25/30/17
f 17/3/18 25/30/18 32/31/18
f 32/31/19 3/32/19 1/33/19
f 25/30/20 5/34/20 3/32/20
f 26/29/21 7/35/21 5/34/21
f 27/28/22 9/36/22 7/35/22
f 28/27/23 11/37/23 9/36/23
f 29/26/24 13/38/24 11/37/24
f 30/25/25 15/39/25 13/38/25
f 31/24/26 1/40/26 15/39/26
f 34/1/27 50/2/27 49/3/27
f 36/4/28 51/5/28 50/2/28
f 38/6/29 52/7/29 51/5/29
f 40/41/30 53/9/30 52/7/30
f 42/8/31 54/10/31 53/9/31
f 44/11/32 55/12/32 54/10/32
f 46/13/7 42/14/7 38/15/7
f 46/16/33 56/17/33 55/12/33
f 48/18/34 49/19/34 56/17/34
f 39/20/10 43/21/10 47/22/10
f 63/24/34 49/19/34 64/23/34
f 55/12/33 63/24/33 62/25/33
f 54/10/32 62/25/32 61/26/32
f 53/9/31 61/26/31 60/42/31
f 59/28/30 53/9/30 60/42/30
f 51/5/29 59/28/29 58/43/29
f 50/2/28 58/43/28 57/30/28
f 49/3/27 57/30/27 64/31/27
f 64/31/35 65/44/35 72/45/35
f 57/30/36 66/46/36 65/44/36
f 58/43/37 67/47/37 66/46/37
f 67/47/38 60/42/38 68/48/38
f 60/42/39 69/49/39 68/48/39
f 69/49/40 62/25/40 70/50/40
f 62/25/41 71/51/41 70/50/41
f 71/51/42 64/23/42 72/52/42
f 47/39/43 72/52/43 33/40/43
f 70/50/44 47/39/44 45/38/44
f 43/37/45 70/50/45 45/38/45
f 68/48/46 43/37/46 41/36/46
f 67/47/47 41/36/47 39/35/47
f 66/46/48 39/35/48 37/34/48
f 65/44/49 37/34/49 35/32/49
f 33/33/50 65/44/50 35/32/50
f 2/1/1 4/4/1 18/2/1
f 4/4/2 6/6/2 19/5/2
f 6/6/3 8/41/3 20/7/3
f 20/7/4 8/41/4 10/8/4
f 10/8/5 12/11/5 22/10/5
f 12/11/6 14/16/6 23/12/6
f 6/15/7 4/53/7 2/54/7
f 2/54/7 16/55/7 14/13/7
f 14/13/7 12/56/7 10/14/7
f 10/14/7 8/57/7 6/15/7
f 6/15/7 2/54/7 14/13/7
f 14/16/8 16/18/8 24/17/8
f 16/18/9 2/58/9 17/19/9
f 15/22/10 1/59/10 3/60/10
f 3/60/10 5/61/10 7/20/10
f 7/20/10 9/62/10 11/21/10
f 11/21/10 13/63/10 15/22/10
f 15/22/10 3/60/10 7/20/10
f 24/17/11 17/19/11 32/23/11
f 23/12/12 24/17/12 31/24/12
f 29/26/13 22/10/13 23/12/13
f 28/27/14 21/9/14 22/10/14
f 20/7/15 21/9/15 28/27/15
f 26/29/16 19/5/16 20/7/16
f 18/2/17 19/5/17 26/29/17
f 17/3/18 18/2/18 25/30/18
f 32/31/19 25/30/19 3/32/19
f 25/30/20 26/29/20 5/34/20
f 26/29/21 27/28/21 7/35/21
f 27/28/22 28/27/22 9/36/22
f 28/27/23 29/26/23 11/37/23
f 29/26/24 30/25/24 13/38/24
f 30/25/25 31/24/25 15/39/25
f 31/24/26 32/23/26 1/40/26
f 34/1/27 36/4/27 50/2/27
f 36/4/28 38/6/28 51/5/28
f 38/6/29 40/41/29 52/7/29
f 40/41/30 42/8/30 53/9/30
f 42/8/31 44/11/31 54/10/31
f 44/11/32 46/16/32 55/12/32
f 38/15/7 36/53/7 34/54/7
f 34/54/7 48/55/7 46/13/7
f 46/13/7 44/56/7 42/14/7
f 42/14/7 40/57/7 38/15/7
f 38/15/7 34/54/7 46/13/7
f 46/16/33 48/18/33 56/17/33
f 48/18/34 34/58/34 49/19/34
f 47/22/10 33/59/10 35/60/10
f 35/60/10 37/61/10 39/20/10
f 39/20/10 41/62/10 43/21/10
f 43/21/10 45/63/10 47/22/10
f 47/22/10 35/60/10 39/20/10
f 63/24/34 56/17/34 49/19/34
f 55/12/33 56/17/33 63/24/33
f 54/10/32 55/12/32 62/25/32
f 53/9/31 54/10/31 61/26/31
f 59/28/30 52/7/30 53/9/30
f 51/5/29 52/7/29 59/28/29
f 50/2/28 51/5/28 58/43/28
f 49/3/27 50/2/27 57/30/27
f 64/31/35 57/30/35 65/44/35
f 57/30/36 58/43/36 66/46/36
f 58/43/37 59/28/37 67/47/37
f 67/47/38 59/28/38 60/42/38
f 60/42/39 61/26/39 69/49/39
f 69/49/40 61/26/40 62/25/40
f 62/25/41 63/24/41 71/51/41
f 71/51/42 63/24/42 64/23/42
f 47/39/43 71/51/43 72/52/43
f 70/50/44 71/51/44 47/39/44
f 43/37/45 69/49/45 70/50/45
f 68/48/46 69/49/46 43/37/46
f 67/47/47 68/48/47 41/36/47
f 66/46/48 67/47/48 39/35/48
f 65/44/49 66/46/49 37/34/49
f 33/33/50 72/45/50 65/44/50
