# Blender 4.4.3
# www.blender.org
mtllib player_arm.mtl
o 球
v 0.000000 0.226395 -0.923880
v 0.000000 0.000000 -1.000000
v 0.000000 -0.226395 -0.923880
v 0.000000 -0.546567 -0.382683
v 0.043813 0.546567 -0.353553
v 0.080956 0.418324 -0.653281
v 0.105774 0.226395 -0.853553
v 0.114489 0.000000 -0.923880
v 0.105774 -0.226395 -0.853553
v 0.080956 -0.418324 -0.653281
v 0.043813 -0.546567 -0.353553
v 0.080956 0.546567 -0.270598
v 0.149587 0.418324 -0.500000
v 0.195445 0.226395 -0.653281
v 0.211548 0.000000 -0.707107
v 0.195445 -0.226395 -0.653281
v 0.149587 -0.418324 -0.500000
v 0.080956 -0.546567 -0.270598
v 0.105774 0.546567 -0.146447
v 0.195445 0.418324 -0.270598
v 0.255361 0.226395 -0.353553
v 0.276401 0.000000 -0.382683
v 0.255361 -0.226395 -0.353553
v 0.195445 -0.418324 -0.270598
v 0.105774 -0.546567 -0.146447
v 0.114489 0.546567 0.000000
v 0.211548 0.418324 0.000000
v 0.276401 0.226395 0.000000
v 0.299174 0.000000 0.000000
v 0.276401 -0.226395 0.000000
v 0.211548 -0.418324 0.000000
v 0.114489 -0.546567 0.000000
v 0.105774 0.546567 0.146447
v 0.195445 0.418324 0.270598
v 0.255361 0.226395 0.353554
v 0.276401 0.000000 0.382684
v 0.255361 -0.226395 0.353554
v 0.195445 -0.418324 0.270598
v 0.105774 -0.546567 0.146447
v 0.080956 0.546567 0.270598
v 0.149587 0.418324 0.500000
v 0.195445 0.226395 0.653282
v 0.211548 0.000000 0.707107
v 0.195445 -0.226395 0.653282
v 0.149587 -0.418324 0.500000
v 0.080956 -0.546567 0.270598
v 0.043813 0.546567 0.353553
v 0.080956 0.418324 0.653281
v 0.105774 0.226395 0.853553
v 0.114489 0.000000 0.923880
v 0.105774 -0.226395 0.853553
v 0.080956 -0.418324 0.653281
v 0.043813 -0.546567 0.353553
v -0.000000 0.546567 0.382683
v -0.000000 0.418324 0.707107
v -0.000000 0.226395 0.923879
v -0.000000 0.000000 1.000000
v -0.000000 -0.226395 0.923879
v -0.000000 -0.418324 0.707107
v -0.000000 -0.546567 0.382683
v 0.000000 -0.591600 0.000000
v 0.000000 0.591600 0.000000
v -0.043813 0.546567 0.353553
v -0.080956 0.418324 0.653281
v -0.105774 0.226395 0.853553
v -0.114489 0.000000 0.923879
v -0.105774 -0.226395 0.853553
v -0.080956 -0.418324 0.653281
v -0.043813 -0.546567 0.353553
v -0.080956 0.546567 0.270598
v -0.149587 0.418324 0.500000
v -0.195445 0.226395 0.653281
v -0.211548 0.000000 0.707106
v -0.195445 -0.226395 0.653281
v -0.149587 -0.418324 0.500000
v -0.080956 -0.546567 0.270598
v -0.105774 0.546567 0.146446
v -0.195445 0.418324 0.270598
v -0.255361 0.226395 0.353553
v -0.276401 0.000000 0.382683
v -0.255361 -0.226395 0.353553
v -0.195445 -0.418324 0.270598
v -0.105774 -0.546567 0.146446
v -0.114489 0.546567 -0.000000
v -0.211548 0.418324 -0.000000
v -0.276401 0.226395 -0.000000
v -0.299174 0.000000 -0.000001
v -0.276401 -0.226395 -0.000000
v -0.211548 -0.418324 -0.000000
v -0.114489 -0.546567 -0.000000
v -0.105774 0.546567 -0.146447
v -0.195445 0.418324 -0.270598
v -0.255361 0.226395 -0.353554
v -0.276401 0.000000 -0.382684
v -0.255361 -0.226395 -0.353554
v -0.195445 -0.418324 -0.270598
v -0.105774 -0.546567 -0.146447
v -0.080956 0.546567 -0.270598
v -0.149587 0.418324 -0.500000
v -0.195445 0.226395 -0.653282
v -0.211548 0.000000 -0.707107
v -0.195445 -0.226395 -0.653282
v -0.149587 -0.418324 -0.500000
v -0.080956 -0.546567 -0.270598
v -0.043813 0.546567 -0.353554
v -0.080956 0.418324 -0.653281
v -0.105774 0.226395 -0.853553
v -0.114489 0.000000 -0.923880
v -0.105774 -0.226395 -0.853553
v -0.080956 -0.418324 -0.653281
v -0.043813 -0.546567 -0.353554
v 0.000000 0.546567 -0.382683
v 0.000000 0.418324 -0.707107
v 0.000000 -0.418324 -0.707107
vn -0.0000 0.5137 -0.8580
vn -0.0000 -0.0000 -1.0000
vn -0.0000 -0.5137 -0.8580
vn -0.0000 -0.9575 -0.2884
vn 0.3306 0.9169 -0.2236
vn 0.5420 0.7282 -0.4195
vn 0.6858 0.4240 -0.5915
vn 0.7408 -0.0000 -0.6718
vn 0.6858 -0.4240 -0.5915
vn 0.5420 -0.7282 -0.4195
vn 0.3306 -0.9169 -0.2236
vn 0.5002 0.8542 -0.1419
vn 0.7738 0.5844 -0.2444
vn 0.9084 0.2910 -0.3001
vn 0.9482 -0.0000 -0.3176
vn 0.9084 -0.2910 -0.3001
vn 0.7738 -0.5844 -0.2444
vn 0.5002 -0.8542 -0.1419
vn 0.5842 0.8087 -0.0694
vn 0.8616 0.4948 -0.1131
vn 0.9650 0.2281 -0.1291
vn 0.9911 -0.0000 -0.1330
vn 0.9650 -0.2281 -0.1291
vn 0.8616 -0.4948 -0.1131
vn 0.5842 -0.8087 -0.0694
vn 0.6107 0.7919 -0.0000
vn 0.8851 0.4654 -0.0000
vn 0.9776 0.2106 -0.0000
vn 1.0000 -0.0000 -0.0000
vn 0.9776 -0.2106 -0.0000
vn 0.8851 -0.4654 -0.0000
vn 0.6107 -0.7919 -0.0000
vn 0.5842 0.8087 0.0694
vn 0.8616 0.4948 0.1131
vn 0.9650 0.2281 0.1291
vn 0.9911 -0.0000 0.1330
vn 0.9650 -0.2281 0.1291
vn 0.8616 -0.4948 0.1131
vn 0.5842 -0.8087 0.0694
vn 0.5002 0.8542 0.1419
vn 0.7738 0.5844 0.2444
vn 0.9084 0.2910 0.3001
vn 0.9482 -0.0000 0.3176
vn 0.9084 -0.2910 0.3001
vn 0.7738 -0.5844 0.2444
vn 0.5002 -0.8542 0.1419
vn 0.3306 0.9169 0.2236
vn 0.5420 0.7282 0.4195
vn 0.6858 0.4240 0.5915
vn 0.7408 -0.0000 0.6718
vn 0.6858 -0.4240 0.5915
vn 0.5420 -0.7282 0.4195
vn 0.3306 -0.9169 0.2236
vn -0.0000 0.9575 0.2884
vn -0.0000 0.8242 0.5663
vn -0.0000 0.5137 0.8580
vn -0.0000 -0.0000 1.0000
vn -0.0000 -0.5137 0.8580
vn -0.0000 -0.8242 0.5663
vn -0.0000 -0.9575 0.2884
vn -0.0000 -1.0000 -0.0000
vn -0.0000 1.0000 -0.0000
vn -0.3306 0.9169 0.2236
vn -0.5420 0.7282 0.4195
vn -0.6858 0.4240 0.5915
vn -0.7408 -0.0000 0.6718
vn -0.6858 -0.4240 0.5915
vn -0.5420 -0.7282 0.4195
vn -0.3306 -0.9169 0.2236
vn -0.5002 0.8542 0.1419
vn -0.7738 0.5844 0.2444
vn -0.9084 0.2910 0.3001
vn -0.9482 -0.0000 0.3176
vn -0.9084 -0.2910 0.3001
vn -0.7738 -0.5844 0.2444
vn -0.5002 -0.8542 0.1419
vn -0.5842 0.8087 0.0694
vn -0.8616 0.4948 0.1131
vn -0.9650 0.2281 0.1291
vn -0.9911 -0.0000 0.1330
vn -0.9650 -0.2281 0.1291
vn -0.8616 -0.4948 0.1131
vn -0.5842 -0.8087 0.0694
vn -0.6107 0.7919 -0.0000
vn -0.8851 0.4654 -0.0000
vn -0.9776 0.2106 -0.0000
vn -1.0000 -0.0000 -0.0000
vn -0.9776 -0.2106 -0.0000
vn -0.8851 -0.4654 -0.0000
vn -0.6107 -0.7919 -0.0000
vn -0.5842 0.8087 -0.0694
vn -0.8616 0.4948 -0.1131
vn -0.9650 0.2281 -0.1291
vn -0.9911 -0.0000 -0.1330
vn -0.9650 -0.2281 -0.1291
vn -0.8616 -0.4948 -0.1131
vn -0.5842 -0.8087 -0.0694
vn -0.5002 0.8542 -0.1419
vn -0.7738 0.5844 -0.2444
vn -0.9084 0.2910 -0.3001
vn -0.9482 -0.0000 -0.3176
vn -0.9084 -0.2910 -0.3001
vn -0.7738 -0.5844 -0.2444
vn -0.5002 -0.8542 -0.1419
vn -0.3306 0.9169 -0.2236
vn -0.5420 0.7282 -0.4195
vn -0.6858 0.4240 -0.5915
vn -0.7408 -0.0000 -0.6718
vn -0.6858 -0.4240 -0.5915
vn -0.5420 -0.7282 -0.4195
vn -0.3306 -0.9169 -0.2236
vn -0.0000 0.9575 -0.2884
vn -0.0000 0.8242 -0.5663
vn -0.0000 -0.8242 -0.5663
vt 0.750000 0.125000
vt 0.687500 0.250000
vt 0.687500 0.125000
vt 0.750000 0.375000
vt 0.687500 0.500000
vt 0.687500 0.375000
vt 0.750000 0.750000
vt 0.687500 0.625000
vt 0.750000 0.625000
vt 0.750000 0.875000
vt 0.718750 1.000000
vt 0.687500 0.875000
vt 0.718750 0.000000
vt 0.750000 0.250000
vt 0.750000 0.500000
vt 0.687500 0.750000
vt 0.656250 1.000000
vt 0.625000 0.875000
vt 0.656250 0.000000
vt 0.625000 0.125000
vt 0.625000 0.375000
vt 0.625000 0.250000
vt 0.625000 0.500000
vt 0.625000 0.750000
vt 0.625000 0.625000
vt 0.562500 0.375000
vt 0.562500 0.250000
vt 0.562500 0.500000
vt 0.562500 0.750000
vt 0.562500 0.125000
vt 0.562500 0.625000
vt 0.593750 1.000000
vt 0.562500 0.875000
vt 0.593750 0.000000
vt 0.500000 0.250000
vt 0.500000 0.125000
vt 0.500000 0.500000
vt 0.500000 0.375000
vt 0.500000 0.625000
vt 0.531250 1.000000
vt 0.500000 0.875000
vt 0.531250 0.000000
vt 0.500000 0.750000
vt 0.437500 0.375000
vt 0.437500 0.750000
vt 0.437500 0.625000
vt 0.468750 1.000000
vt 0.437500 0.875000
vt 0.468750 0.000000
vt 0.437500 0.125000
vt 0.437500 0.250000
vt 0.437500 0.500000
vt 0.406250 0.000000
vt 0.375000 0.125000
vt 0.375000 0.250000
vt 0.375000 0.625000
vt 0.375000 0.500000
vt 0.375000 0.875000
vt 0.375000 0.750000
vt 0.375000 0.375000
vt 0.406250 1.000000
vt 0.312500 0.625000
vt 0.312500 0.500000
vt 0.312500 0.875000
vt 0.312500 0.750000
vt 0.312500 0.125000
vt 0.312500 0.375000
vt 0.343750 1.000000
vt 0.343750 0.000000
vt 0.312500 0.250000
vt 0.250000 0.125000
vt 0.250000 0.375000
vt 0.250000 0.750000
vt 0.250000 0.625000
vt 0.281250 1.000000
vt 0.250000 0.875000
vt 0.281250 0.000000
vt 0.250000 0.250000
vt 0.250000 0.500000
vt 0.187500 0.625000
vt 0.218750 1.000000
vt 0.187500 0.875000
vt 0.218750 0.000000
vt 0.187500 0.125000
vt 0.187500 0.375000
vt 0.187500 0.250000
vt 0.187500 0.500000
vt 0.187500 0.750000
vt 0.156250 0.000000
vt 0.125000 0.125000
vt 0.125000 0.375000
vt 0.125000 0.250000
vt 0.125000 0.500000
vt 0.125000 0.750000
vt 0.125000 0.625000
vt 0.156250 1.000000
vt 0.125000 0.875000
vt 0.062500 0.750000
vt 0.062500 0.250000
vt 0.062500 0.125000
vt 0.062500 0.500000
vt 0.062500 0.375000
vt 0.062500 0.625000
vt 0.093750 1.000000
vt 0.062500 0.875000
vt 0.093750 0.000000
vt 0.000000 0.250000
vt 0.000000 0.125000
vt 0.000000 0.500000
vt 0.000000 0.375000
vt 0.000000 0.625000
vt 0.031250 1.000000
vt 0.000000 0.875000
vt 0.031250 0.000000
vt 0.000000 0.750000
vt 1.000000 0.875000
vt 0.968750 1.000000
vt 0.937500 0.875000
vt 0.968750 0.000000
vt 1.000000 0.125000
vt 0.937500 0.125000
vt 1.000000 0.375000
vt 0.937500 0.250000
vt 1.000000 0.250000
vt 1.000000 0.500000
vt 0.937500 0.625000
vt 0.937500 0.500000
vt 1.000000 0.750000
vt 0.937500 0.750000
vt 0.937500 0.375000
vt 1.000000 0.625000
vt 0.875000 0.250000
vt 0.875000 0.625000
vt 0.875000 0.500000
vt 0.875000 0.875000
vt 0.875000 0.750000
vt 0.875000 0.125000
vt 0.875000 0.375000
vt 0.906250 1.000000
vt 0.906250 0.000000
vt 0.812500 0.125000
vt 0.812500 0.375000
vt 0.812500 0.750000
vt 0.812500 0.625000
vt 0.843750 1.000000
vt 0.812500 0.875000
vt 0.843750 0.000000
vt 0.812500 0.250000
vt 0.812500 0.500000
vt 0.781250 1.000000
vt 0.781250 0.000000
s 1
f 4/1/4 10/2/10 11/3/11
f 3/4/3 8/5/8 9/6/9
f 113/7/113 7/8/7 1/9/1
f 112/10/112 62/11/62 5/12/5
f 61/13/61 4/1/4 11/3/11
f 114/14/114 9/6/9 10/2/10
f 1/9/1 8/5/8 2/15/2
f 112/10/112 6/16/6 113/7/113
f 5/12/5 62/17/62 12/18/12
f 61/19/61 11/3/11 18/20/18
f 10/2/10 16/21/16 17/22/17
f 7/8/7 15/23/15 8/5/8
f 5/12/5 13/24/13 6/16/6
f 11/3/11 17/22/17 18/20/18
f 9/6/9 15/23/15 16/21/16
f 6/16/6 14/25/14 7/8/7
f 17/22/17 23/26/23 24/27/24
f 14/25/14 22/28/22 15/23/15
f 12/18/12 20/29/20 13/24/13
f 18/20/18 24/27/24 25/30/25
f 16/21/16 22/28/22 23/26/23
f 13/24/13 21/31/21 14/25/14
f 12/18/12 62/32/62 19/33/19
f 61/34/61 18/20/18 25/30/25
f 25/30/25 31/35/31 32/36/32
f 23/26/23 29/37/29 30/38/30
f 20/29/20 28/39/28 21/31/21
f 19/33/19 62/40/62 26/41/26
f 61/42/61 25/30/25 32/36/32
f 24/27/24 30/38/30 31/35/31
f 21/31/21 29/37/29 22/28/22
f 19/33/19 27/43/27 20/29/20
f 29/37/29 37/44/37 30/38/30
f 28/39/28 34/45/34 35/46/35
f 26/41/26 62/47/62 33/48/33
f 61/49/61 32/36/32 39/50/39
f 30/38/30 38/51/38 31/35/31
f 29/37/29 35/46/35 36/52/36
f 27/43/27 33/48/33 34/45/34
f 31/35/31 39/50/39 32/36/32
f 61/53/61 39/50/39 46/54/46
f 37/44/37 45/55/45 38/51/38
f 36/52/36 42/56/42 43/57/43
f 34/45/34 40/58/40 41/59/41
f 38/51/38 46/54/46 39/50/39
f 36/52/36 44/60/44 37/44/37
f 35/46/35 41/59/41 42/56/42
f 33/48/33 62/61/62 40/58/40
f 43/57/43 49/62/49 50/63/50
f 41/59/41 47/64/47 48/65/48
f 45/55/45 53/66/53 46/54/46
f 43/57/43 51/67/51 44/60/44
f 42/56/42 48/65/48 49/62/49
f 40/58/40 62/68/62 47/64/47
f 61/69/61 46/54/46 53/66/53
f 44/60/44 52/70/52 45/55/45
f 52/70/52 60/71/60 53/66/53
f 50/63/50 58/72/58 51/67/51
f 49/62/49 55/73/55 56/74/56
f 47/64/47 62/75/62 54/76/54
f 61/77/61 53/66/53 60/71/60
f 51/67/51 59/78/59 52/70/52
f 50/63/50 56/74/56 57/79/57
f 48/65/48 54/76/54 55/73/55
f 55/73/55 65/80/65 56/74/56
f 54/76/54 62/81/62 63/82/63
f 61/83/61 60/71/60 69/84/69
f 59/78/59 67/85/67 68/86/68
f 56/74/56 66/87/66 57/79/57
f 54/76/54 64/88/64 55/73/55
f 60/71/60 68/86/68 69/84/69
f 58/72/58 66/87/66 67/85/67
f 61/89/61 69/84/69 76/90/76
f 68/86/68 74/91/74 75/92/75
f 65/80/65 73/93/73 66/87/66
f 63/82/63 71/94/71 64/88/64
f 69/84/69 75/92/75 76/90/76
f 67/85/67 73/93/73 74/91/74
f 64/88/64 72/95/72 65/80/65
f 63/82/63 62/96/62 70/97/70
f 70/97/70 78/98/78 71/94/71
f 76/90/76 82/99/82 83/100/83
f 74/91/74 80/101/80 81/102/81
f 71/94/71 79/103/79 72/95/72
f 70/97/70 62/104/62 77/105/77
f 61/106/61 76/90/76 83/100/83
f 75/92/75 81/102/81 82/99/82
f 72/95/72 80/101/80 73/93/73
f 83/100/83 89/107/89 90/108/90
f 81/102/81 87/109/87 88/110/88
f 78/98/78 86/111/86 79/103/79
f 77/105/77 62/112/62 84/113/84
f 61/114/61 83/100/83 90/108/90
f 82/99/82 88/110/88 89/107/89
f 79/103/79 87/109/87 80/101/80
f 77/105/77 85/115/85 78/98/78
f 84/116/84 62/117/62 91/118/91
f 61/119/61 90/120/90 97/121/97
f 88/122/88 96/123/96 89/124/89
f 87/125/87 93/126/93 94/127/94
f 85/128/85 91/118/91 92/129/92
f 89/124/89 97/121/97 90/120/90
f 87/125/87 95/130/95 88/122/88
f 86/131/86 92/129/92 93/126/93
f 95/130/95 103/132/103 96/123/96
f 94/127/94 100/133/100 101/134/101
f 92/129/92 98/135/98 99/136/99
f 96/123/96 104/137/104 97/121/97
f 94/127/94 102/138/102 95/130/95
f 93/126/93 99/136/99 100/133/100
f 91/118/91 62/139/62 98/135/98
f 61/140/61 97/121/97 104/137/104
f 103/132/103 111/141/111 104/137/104
f 101/134/101 109/142/109 102/138/102
f 100/133/100 106/143/106 107/144/107
f 98/135/98 62/145/62 105/146/105
f 61/147/61 104/137/104 111/141/111
f 102/138/102 110/148/110 103/132/103
f 101/134/101 107/144/107 108/149/108
f 99/136/99 105/146/105 106/143/106
f 108/149/108 3/4/3 109/142/109
f 107/144/107 113/7/113 1/9/1
f 105/146/105 62/150/62 112/10/112
f 61/151/61 111/141/111 4/1/4
f 109/142/109 114/14/114 110/148/110
f 108/149/108 1/9/1 2/15/2
f 106/143/106 112/10/112 113/7/113
f 110/148/110 4/1/4 111/141/111
f 4/1/4 114/14/114 10/2/10
f 3/4/3 2/15/2 8/5/8
f 113/7/113 6/16/6 7/8/7
f 114/14/114 3/4/3 9/6/9
f 1/9/1 7/8/7 8/5/8
f 112/10/112 5/12/5 6/16/6
f 10/2/10 9/6/9 16/21/16
f 7/8/7 14/25/14 15/23/15
f 5/12/5 12/18/12 13/24/13
f 11/3/11 10/2/10 17/22/17
f 9/6/9 8/5/8 15/23/15
f 6/16/6 13/24/13 14/25/14
f 17/22/17 16/21/16 23/26/23
f 14/25/14 21/31/21 22/28/22
f 12/18/12 19/33/19 20/29/20
f 18/20/18 17/22/17 24/27/24
f 16/21/16 15/23/15 22/28/22
f 13/24/13 20/29/20 21/31/21
f 25/30/25 24/27/24 31/35/31
f 23/26/23 22/28/22 29/37/29
f 20/29/20 27/43/27 28/39/28
f 24/27/24 23/26/23 30/38/30
f 21/31/21 28/39/28 29/37/29
f 19/33/19 26/41/26 27/43/27
f 29/37/29 36/52/36 37/44/37
f 28/39/28 27/43/27 34/45/34
f 30/38/30 37/44/37 38/51/38
f 29/37/29 28/39/28 35/46/35
f 27/43/27 26/41/26 33/48/33
f 31/35/31 38/51/38 39/50/39
f 37/44/37 44/60/44 45/55/45
f 36/52/36 35/46/35 42/56/42
f 34/45/34 33/48/33 40/58/40
f 38/51/38 45/55/45 46/54/46
f 36/52/36 43/57/43 44/60/44
f 35/46/35 34/45/34 41/59/41
f 43/57/43 42/56/42 49/62/49
f 41/59/41 40/58/40 47/64/47
f 45/55/45 52/70/52 53/66/53
f 43/57/43 50/63/50 51/67/51
f 42/56/42 41/59/41 48/65/48
f 44/60/44 51/67/51 52/70/52
f 52/70/52 59/78/59 60/71/60
f 50/63/50 57/79/57 58/72/58
f 49/62/49 48/65/48 55/73/55
f 51/67/51 58/72/58 59/78/59
f 50/63/50 49/62/49 56/74/56
f 48/65/48 47/64/47 54/76/54
f 55/73/55 64/88/64 65/80/65
f 59/78/59 58/72/58 67/85/67
f 56/74/56 65/80/65 66/87/66
f 54/76/54 63/82/63 64/88/64
f 60/71/60 59/78/59 68/86/68
f 58/72/58 57/79/57 66/87/66
f 68/86/68 67/85/67 74/91/74
f 65/80/65 72/95/72 73/93/73
f 63/82/63 70/97/70 71/94/71
f 69/84/69 68/86/68 75/92/75
f 67/85/67 66/87/66 73/93/73
f 64/88/64 71/94/71 72/95/72
f 70/97/70 77/105/77 78/98/78
f 76/90/76 75/92/75 82/99/82
f 74/91/74 73/93/73 80/101/80
f 71/94/71 78/98/78 79/103/79
f 75/92/75 74/91/74 81/102/81
f 72/95/72 79/103/79 80/101/80
f 83/100/83 82/99/82 89/107/89
f 81/102/81 80/101/80 87/109/87
f 78/98/78 85/115/85 86/111/86
f 82/99/82 81/102/81 88/110/88
f 79/103/79 86/111/86 87/109/87
f 77/105/77 84/113/84 85/115/85
f 88/122/88 95/130/95 96/123/96
f 87/125/87 86/131/86 93/126/93
f 85/128/85 84/116/84 91/118/91
f 89/124/89 96/123/96 97/121/97
f 87/125/87 94/127/94 95/130/95
f 86/131/86 85/128/85 92/129/92
f 95/130/95 102/138/102 103/132/103
f 94/127/94 93/126/93 100/133/100
f 92/129/92 91/118/91 98/135/98
f 96/123/96 103/132/103 104/137/104
f 94/127/94 101/134/101 102/138/102
f 93/126/93 92/129/92 99/136/99
f 103/132/103 110/148/110 111/141/111
f 101/134/101 108/149/108 109/142/109
f 100/133/100 99/136/99 106/143/106
f 102/138/102 109/142/109 110/148/110
f 101/134/101 100/133/100 107/144/107
f 99/136/99 98/135/98 105/146/105
f 108/149/108 2/15/2 3/4/3
f 107/144/107 106/143/106 113/7/113
f 109/142/109 3/4/3 114/14/114
f 108/149/108 107/144/107 1/9/1
f 106/143/106 105/146/105 112/10/112
f 110/148/110 114/14/114 4/1/4
