{
	"asset":{
		"generator":"Khronos glTF Blender I/O v4.2.57",
		"version":"2.0"
	},
	"scene":0,
	"scenes":[
		{
			"name":"Scene",
			"nodes":[
				6
			]
		}
	],
	"nodes":[
		{
			"name":"\u30dc\u30fc\u30f3.002",
			"rotation":[
				-0.39014920592308044,
				0,
				0,
				0.9207516312599182
			],
			"translation":[
				0.16797120869159698,
				-0.469956636428833,
				-2.6510043144226074
			]
		},
		{
			"name":"\u30dc\u30fc\u30f3.003",
			"translation":[
				-0.009562790393829346,
				2.172607183456421,
				0.013818632811307907
			]
		},
		{
			"name":"\u30dc\u30fc\u30f3.001",
			"rotation":[
				0.36309465765953064,
				0.07652635872364044,
				-0.029938146471977234,
				0.9281215667724609
			],
			"scale":[
				1,
				1,
				0.9999999403953552
			],
			"translation":[
				0.7467678785324097,
				0.6988556385040283,
				2.8663418292999268
			]
		},
		{
			"children":[
				2
			],
			"name":"\u30dc\u30fc\u30f3.004",
			"rotation":[
				0,
				-0.0821739211678505,
				0,
				0.9966180324554443
			],
			"translation":[
				0,
				-1.3574469089508057,
				0
			]
		},
		{
			"children":[
				0,
				1,
				3
			],
			"name":"\u30dc\u30fc\u30f3"
		},
		{
			"mesh":0,
			"name":"LeftHand",
			"skin":0
		},
		{
			"children":[
				5,
				4
			],
			"name":"\u30a2\u30fc\u30de\u30c1\u30e5\u30a2"
		}
	],
	"animations":[
		{
			"channels":[
				{
					"sampler":0,
					"target":{
						"node":4,
						"path":"translation"
					}
				},
				{
					"sampler":1,
					"target":{
						"node":4,
						"path":"rotation"
					}
				},
				{
					"sampler":2,
					"target":{
						"node":4,
						"path":"scale"
					}
				},
				{
					"sampler":3,
					"target":{
						"node":0,
						"path":"translation"
					}
				},
				{
					"sampler":4,
					"target":{
						"node":0,
						"path":"rotation"
					}
				},
				{
					"sampler":5,
					"target":{
						"node":0,
						"path":"scale"
					}
				},
				{
					"sampler":6,
					"target":{
						"node":1,
						"path":"translation"
					}
				},
				{
					"sampler":7,
					"target":{
						"node":1,
						"path":"rotation"
					}
				},
				{
					"sampler":8,
					"target":{
						"node":1,
						"path":"scale"
					}
				},
				{
					"sampler":9,
					"target":{
						"node":3,
						"path":"translation"
					}
				},
				{
					"sampler":10,
					"target":{
						"node":3,
						"path":"rotation"
					}
				},
				{
					"sampler":11,
					"target":{
						"node":3,
						"path":"scale"
					}
				},
				{
					"sampler":12,
					"target":{
						"node":2,
						"path":"translation"
					}
				},
				{
					"sampler":13,
					"target":{
						"node":2,
						"path":"rotation"
					}
				},
				{
					"sampler":14,
					"target":{
						"node":2,
						"path":"scale"
					}
				}
			],
			"name":"\u30a2\u30fc\u30de\u30c1\u30e5\u30a2\u30a2\u30af\u30b7\u30e7\u30f3",
			"samplers":[
				{
					"input":8,
					"interpolation":"STEP",
					"output":9
				},
				{
					"input":8,
					"interpolation":"STEP",
					"output":10
				},
				{
					"input":8,
					"interpolation":"STEP",
					"output":11
				},
				{
					"input":8,
					"interpolation":"STEP",
					"output":12
				},
				{
					"input":8,
					"interpolation":"STEP",
					"output":13
				},
				{
					"input":8,
					"interpolation":"STEP",
					"output":14
				},
				{
					"input":8,
					"interpolation":"STEP",
					"output":15
				},
				{
					"input":8,
					"interpolation":"STEP",
					"output":16
				},
				{
					"input":8,
					"interpolation":"STEP",
					"output":17
				},
				{
					"input":8,
					"interpolation":"STEP",
					"output":18
				},
				{
					"input":19,
					"interpolation":"LINEAR",
					"output":20
				},
				{
					"input":8,
					"interpolation":"STEP",
					"output":21
				},
				{
					"input":19,
					"interpolation":"LINEAR",
					"output":22
				},
				{
					"input":19,
					"interpolation":"LINEAR",
					"output":23
				},
				{
					"input":8,
					"interpolation":"STEP",
					"output":24
				}
			]
		}
	],
	"materials":[
		{
			"doubleSided":true,
			"name":"Material",
			"pbrMetallicRoughness":{
				"baseColorTexture":{
					"index":0
				},
				"metallicFactor":0,
				"roughnessFactor":0.5
			}
		}
	],
	"meshes":[
		{
			"name":"\u7acb\u65b9\u4f53",
			"primitives":[
				{
					"attributes":{
						"POSITION":0,
						"NORMAL":1,
						"TEXCOORD_0":2,
						"TEXCOORD_1":3,
						"JOINTS_0":4,
						"WEIGHTS_0":5
					},
					"indices":6,
					"material":0
				}
			]
		}
	],
	"textures":[
		{
			"sampler":0,
			"source":0
		}
	],
	"images":[
		{
			"mimeType":"image/png",
			"name":"Kari_Boss",
			"uri":"Kari_Boss.png"
		}
	],
	"skins":[
		{
			"inverseBindMatrices":7,
			"joints":[
				4,
				0,
				1,
				3,
				2
			],
			"name":"\u30a2\u30fc\u30de\u30c1\u30e5\u30a2"
		}
	],
	"accessors":[
		{
			"bufferView":0,
			"componentType":5126,
			"count":492,
			"max":[
				1.6660525798797607,
				3.168138027191162,
				4.767928123474121
			],
			"min":[
				-1,
				-1.7209715843200684,
				-3.913701295852661
			],
			"type":"VEC3"
		},
		{
			"bufferView":1,
			"componentType":5126,
			"count":492,
			"type":"VEC3"
		},
		{
			"bufferView":2,
			"componentType":5126,
			"count":492,
			"type":"VEC2"
		},
		{
			"bufferView":3,
			"componentType":5126,
			"count":492,
			"type":"VEC2"
		},
		{
			"bufferView":4,
			"componentType":5121,
			"count":492,
			"type":"VEC4"
		},
		{
			"bufferView":5,
			"componentType":5126,
			"count":492,
			"type":"VEC4"
		},
		{
			"bufferView":6,
			"componentType":5123,
			"count":1020,
			"type":"SCALAR"
		},
		{
			"bufferView":7,
			"componentType":5126,
			"count":5,
			"type":"MAT4"
		},
		{
			"bufferView":8,
			"componentType":5126,
			"count":2,
			"max":[
				5.416666666666667
			],
			"min":[
				0
			],
			"type":"SCALAR"
		},
		{
			"bufferView":9,
			"componentType":5126,
			"count":2,
			"type":"VEC3"
		},
		{
			"bufferView":10,
			"componentType":5126,
			"count":2,
			"type":"VEC4"
		},
		{
			"bufferView":11,
			"componentType":5126,
			"count":2,
			"type":"VEC3"
		},
		{
			"bufferView":12,
			"componentType":5126,
			"count":2,
			"type":"VEC3"
		},
		{
			"bufferView":13,
			"componentType":5126,
			"count":2,
			"type":"VEC4"
		},
		{
			"bufferView":14,
			"componentType":5126,
			"count":2,
			"type":"VEC3"
		},
		{
			"bufferView":15,
			"componentType":5126,
			"count":2,
			"type":"VEC3"
		},
		{
			"bufferView":16,
			"componentType":5126,
			"count":2,
			"type":"VEC4"
		},
		{
			"bufferView":17,
			"componentType":5126,
			"count":2,
			"type":"VEC3"
		},
		{
			"bufferView":18,
			"componentType":5126,
			"count":2,
			"type":"VEC3"
		},
		{
			"bufferView":19,
			"componentType":5126,
			"count":131,
			"max":[
				5.416666666666667
			],
			"min":[
				0
			],
			"type":"SCALAR"
		},
		{
			"bufferView":20,
			"componentType":5126,
			"count":131,
			"type":"VEC4"
		},
		{
			"bufferView":21,
			"componentType":5126,
			"count":2,
			"type":"VEC3"
		},
		{
			"bufferView":22,
			"componentType":5126,
			"count":131,
			"type":"VEC3"
		},
		{
			"bufferView":23,
			"componentType":5126,
			"count":131,
			"type":"VEC4"
		},
		{
			"bufferView":24,
			"componentType":5126,
			"count":2,
			"type":"VEC3"
		}
	],
	"bufferViews":[
		{
			"buffer":0,
			"byteLength":5904,
			"byteOffset":0,
			"target":34962
		},
		{
			"buffer":0,
			"byteLength":5904,
			"byteOffset":5904,
			"target":34962
		},
		{
			"buffer":0,
			"byteLength":3936,
			"byteOffset":11808,
			"target":34962
		},
		{
			"buffer":0,
			"byteLength":3936,
			"byteOffset":15744,
			"target":34962
		},
		{
			"buffer":0,
			"byteLength":1968,
			"byteOffset":19680,
			"target":34962
		},
		{
			"buffer":0,
			"byteLength":7872,
			"byteOffset":21648,
			"target":34962
		},
		{
			"buffer":0,
			"byteLength":2040,
			"byteOffset":29520,
			"target":34963
		},
		{
			"buffer":0,
			"byteLength":320,
			"byteOffset":31560
		},
		{
			"buffer":0,
			"byteLength":8,
			"byteOffset":31880
		},
		{
			"buffer":0,
			"byteLength":24,
			"byteOffset":31888
		},
		{
			"buffer":0,
			"byteLength":32,
			"byteOffset":31912
		},
		{
			"buffer":0,
			"byteLength":24,
			"byteOffset":31944
		},
		{
			"buffer":0,
			"byteLength":24,
			"byteOffset":31968
		},
		{
			"buffer":0,
			"byteLength":32,
			"byteOffset":31992
		},
		{
			"buffer":0,
			"byteLength":24,
			"byteOffset":32024
		},
		{
			"buffer":0,
			"byteLength":24,
			"byteOffset":32048
		},
		{
			"buffer":0,
			"byteLength":32,
			"byteOffset":32072
		},
		{
			"buffer":0,
			"byteLength":24,
			"byteOffset":32104
		},
		{
			"buffer":0,
			"byteLength":24,
			"byteOffset":32128
		},
		{
			"buffer":0,
			"byteLength":524,
			"byteOffset":32152
		},
		{
			"buffer":0,
			"byteLength":2096,
			"byteOffset":32676
		},
		{
			"buffer":0,
			"byteLength":24,
			"byteOffset":34772
		},
		{
			"buffer":0,
			"byteLength":1572,
			"byteOffset":34796
		},
		{
			"buffer":0,
			"byteLength":2096,
			"byteOffset":36368
		},
		{
			"buffer":0,
			"byteLength":24,
			"byteOffset":38464
		}
	],
	"samplers":[
		{
			"magFilter":9729,
			"minFilter":9987
		}
	],
	"buffers":[
		{
			"byteLength":38488,
			"uri":"Kari_Boss_StrongAttack.bin"
		}
	]
}
