{
	"asset":{
		"generator":"Khronos glTF Blender I/O v4.2.57",
		"version":"2.0"
	},
	"scene":0,
	"scenes":[
		{
			"name":"Scene",
			"nodes":[
				2
			]
		}
	],
	"nodes":[
		{
			"name":"\u30dc\u30fc\u30f3",
			"translation":[
				0,
				2.880636215209961,
				0
			]
		},
		{
			"mesh":0,
			"name":"\u7acb\u65b9\u4f53",
			"skin":0
		},
		{
			"children":[
				1,
				0
			],
			"name":"\u30a2\u30fc\u30de\u30c1\u30e5\u30a2.001"
		}
	],
	"animations":[
		{
			"channels":[
				{
					"sampler":0,
					"target":{
						"node":0,
						"path":"translation"
					}
				},
				{
					"sampler":1,
					"target":{
						"node":0,
						"path":"rotation"
					}
				},
				{
					"sampler":2,
					"target":{
						"node":0,
						"path":"scale"
					}
				}
			],
			"name":"\u30a2\u30fc\u30de\u30c1\u30e5\u30a2.001\u30a2\u30af\u30b7\u30e7\u30f3",
			"samplers":[
				{
					"input":7,
					"interpolation":"STEP",
					"output":8
				},
				{
					"input":9,
					"interpolation":"LINEAR",
					"output":10
				},
				{
					"input":7,
					"interpolation":"STEP",
					"output":11
				}
			]
		},
		{
			"channels":[
				{
					"sampler":0,
					"target":{
						"node":0,
						"path":"translation"
					}
				},
				{
					"sampler":1,
					"target":{
						"node":0,
						"path":"rotation"
					}
				},
				{
					"sampler":2,
					"target":{
						"node":0,
						"path":"scale"
					}
				}
			],
			"name":"\u30a2\u30fc\u30de\u30c1\u30e5\u30a2\u30a2\u30af\u30b7\u30e7\u30f3_\u30a2\u30fc\u30de\u30c1\u30e5\u30a2",
			"samplers":[
				{
					"input":12,
					"interpolation":"STEP",
					"output":13
				},
				{
					"input":12,
					"interpolation":"STEP",
					"output":14
				},
				{
					"input":12,
					"interpolation":"STEP",
					"output":15
				}
			]
		}
	],
	"materials":[
		{
			"doubleSided":true,
			"name":"\u30de\u30c6\u30ea\u30a2\u30eb",
			"pbrMetallicRoughness":{
				"baseColorTexture":{
					"index":0
				},
				"metallicFactor":0,
				"roughnessFactor":0.5
			}
		}
	],
	"meshes":[
		{
			"name":"\u7acb\u65b9\u4f53",
			"primitives":[
				{
					"attributes":{
						"POSITION":0,
						"NORMAL":1,
						"TEXCOORD_0":2,
						"JOINTS_0":3,
						"WEIGHTS_0":4
					},
					"indices":5,
					"material":0
				}
			]
		}
	],
	"textures":[
		{
			"sampler":0,
			"source":0
		}
	],
	"images":[
		{
			"mimeType":"image/png",
			"name":"Bullet",
			"uri":"Bullet.png"
		}
	],
	"skins":[
		{
			"inverseBindMatrices":6,
			"joints":[
				0
			],
			"name":"\u30a2\u30fc\u30de\u30c1\u30e5\u30a2.001"
		}
	],
	"accessors":[
		{
			"bufferView":0,
			"componentType":5126,
			"count":16,
			"max":[
				0.4856659770011902,
				3.4887914657592773,
				3.2210350036621094
			],
			"min":[
				-0.4856659770011902,
				2.5174598693847656,
				-1.2655750513076782
			],
			"type":"VEC3"
		},
		{
			"bufferView":1,
			"componentType":5126,
			"count":16,
			"type":"VEC3"
		},
		{
			"bufferView":2,
			"componentType":5126,
			"count":16,
			"type":"VEC2"
		},
		{
			"bufferView":3,
			"componentType":5121,
			"count":16,
			"type":"VEC4"
		},
		{
			"bufferView":4,
			"componentType":5126,
			"count":16,
			"type":"VEC4"
		},
		{
			"bufferView":5,
			"componentType":5123,
			"count":18,
			"type":"SCALAR"
		},
		{
			"bufferView":6,
			"componentType":5126,
			"count":1,
			"type":"MAT4"
		},
		{
			"bufferView":7,
			"componentType":5126,
			"count":2,
			"max":[
				0.4166666666666667
			],
			"min":[
				0
			],
			"type":"SCALAR"
		},
		{
			"bufferView":8,
			"componentType":5126,
			"count":2,
			"type":"VEC3"
		},
		{
			"bufferView":9,
			"componentType":5126,
			"count":11,
			"max":[
				0.4166666666666667
			],
			"min":[
				0
			],
			"type":"SCALAR"
		},
		{
			"bufferView":10,
			"componentType":5126,
			"count":11,
			"type":"VEC4"
		},
		{
			"bufferView":11,
			"componentType":5126,
			"count":2,
			"type":"VEC3"
		},
		{
			"bufferView":12,
			"componentType":5126,
			"count":2,
			"max":[
				3.2083333333333335
			],
			"min":[
				0
			],
			"type":"SCALAR"
		},
		{
			"bufferView":13,
			"componentType":5126,
			"count":2,
			"type":"VEC3"
		},
		{
			"bufferView":14,
			"componentType":5126,
			"count":2,
			"type":"VEC4"
		},
		{
			"bufferView":15,
			"componentType":5126,
			"count":2,
			"type":"VEC3"
		}
	],
	"bufferViews":[
		{
			"buffer":0,
			"byteLength":192,
			"byteOffset":0,
			"target":34962
		},
		{
			"buffer":0,
			"byteLength":192,
			"byteOffset":192,
			"target":34962
		},
		{
			"buffer":0,
			"byteLength":128,
			"byteOffset":384,
			"target":34962
		},
		{
			"buffer":0,
			"byteLength":64,
			"byteOffset":512,
			"target":34962
		},
		{
			"buffer":0,
			"byteLength":256,
			"byteOffset":576,
			"target":34962
		},
		{
			"buffer":0,
			"byteLength":36,
			"byteOffset":832,
			"target":34963
		},
		{
			"buffer":0,
			"byteLength":64,
			"byteOffset":868
		},
		{
			"buffer":0,
			"byteLength":8,
			"byteOffset":932
		},
		{
			"buffer":0,
			"byteLength":24,
			"byteOffset":940
		},
		{
			"buffer":0,
			"byteLength":44,
			"byteOffset":964
		},
		{
			"buffer":0,
			"byteLength":176,
			"byteOffset":1008
		},
		{
			"buffer":0,
			"byteLength":24,
			"byteOffset":1184
		},
		{
			"buffer":0,
			"byteLength":8,
			"byteOffset":1208
		},
		{
			"buffer":0,
			"byteLength":24,
			"byteOffset":1216
		},
		{
			"buffer":0,
			"byteLength":32,
			"byteOffset":1240
		},
		{
			"buffer":0,
			"byteLength":24,
			"byteOffset":1272
		}
	],
	"samplers":[
		{
			"magFilter":9729,
			"minFilter":9987
		}
	],
	"buffers":[
		{
			"byteLength":1296,
			"uri":"Boss_Bullet.bin"
		}
	]
}
