{
	"asset":{
		"generator":"Khronos glTF Blender I/O v4.2.57",
		"version":"2.0"
	},
	"scene":0,
	"scenes":[
		{
			"name":"Scene",
			"nodes":[
				2
			]
		}
	],
	"nodes":[
		{
			"name":"\u30dc\u30fc\u30f3"
		},
		{
			"mesh":0,
			"name":"Ground",
			"skin":0
		},
		{
			"children":[
				1,
				0
			],
			"name":"\u30a2\u30fc\u30de\u30c1\u30e5\u30a2",
			"translation":[
				0,
				12.663022994995117,
				0
			]
		}
	],
	"animations":[
		{
			"channels":[
				{
					"sampler":0,
					"target":{
						"node":0,
						"path":"translation"
					}
				},
				{
					"sampler":1,
					"target":{
						"node":0,
						"path":"rotation"
					}
				},
				{
					"sampler":2,
					"target":{
						"node":0,
						"path":"scale"
					}
				}
			],
			"name":"\u30a2\u30fc\u30de\u30c1\u30e5\u30a2\u30a2\u30af\u30b7\u30e7\u30f3",
			"samplers":[
				{
					"input":7,
					"interpolation":"LINEAR",
					"output":8
				},
				{
					"input":7,
					"interpolation":"LINEAR",
					"output":9
				},
				{
					"input":7,
					"interpolation":"LINEAR",
					"output":10
				}
			]
		}
	],
	"materials":[
		{
			"doubleSided":true,
			"name":"\u30de\u30c6\u30ea\u30a2\u30eb",
			"pbrMetallicRoughness":{
				"baseColorTexture":{
					"index":0
				},
				"metallicFactor":0,
				"roughnessFactor":0.5
			}
		}
	],
	"meshes":[
		{
			"name":"Ground",
			"primitives":[
				{
					"attributes":{
						"POSITION":0,
						"NORMAL":1,
						"TEXCOORD_0":2,
						"JOINTS_0":3,
						"WEIGHTS_0":4
					},
					"indices":5,
					"material":0
				}
			]
		}
	],
	"textures":[
		{
			"sampler":0,
			"source":0
		}
	],
	"images":[
		{
			"mimeType":"image/png",
			"name":"StageTex",
			"uri":"StageTex.png"
		}
	],
	"skins":[
		{
			"inverseBindMatrices":6,
			"joints":[
				0
			],
			"name":"\u30a2\u30fc\u30de\u30c1\u30e5\u30a2"
		}
	],
	"accessors":[
		{
			"bufferView":0,
			"componentType":5126,
			"count":1300,
			"max":[
				200.4040069580078,
				3.944158379454166e-06,
				200.4040069580078
			],
			"min":[
				-200.4040069580078,
				-11.433868408203125,
				-200.4040069580078
			],
			"type":"VEC3"
		},
		{
			"bufferView":1,
			"componentType":5126,
			"count":1300,
			"type":"VEC3"
		},
		{
			"bufferView":2,
			"componentType":5126,
			"count":1300,
			"type":"VEC2"
		},
		{
			"bufferView":3,
			"componentType":5121,
			"count":1300,
			"type":"VEC4"
		},
		{
			"bufferView":4,
			"componentType":5126,
			"count":1300,
			"type":"VEC4"
		},
		{
			"bufferView":5,
			"componentType":5123,
			"count":2184,
			"type":"SCALAR"
		},
		{
			"bufferView":6,
			"componentType":5126,
			"count":1,
			"type":"MAT4"
		},
		{
			"bufferView":7,
			"componentType":5126,
			"count":1,
			"max":[
				0.041666666666666664
			],
			"min":[
				0.041666666666666664
			],
			"type":"SCALAR"
		},
		{
			"bufferView":8,
			"componentType":5126,
			"count":1,
			"type":"VEC3"
		},
		{
			"bufferView":9,
			"componentType":5126,
			"count":1,
			"type":"VEC4"
		},
		{
			"bufferView":10,
			"componentType":5126,
			"count":1,
			"type":"VEC3"
		}
	],
	"bufferViews":[
		{
			"buffer":0,
			"byteLength":15600,
			"byteOffset":0,
			"target":34962
		},
		{
			"buffer":0,
			"byteLength":15600,
			"byteOffset":15600,
			"target":34962
		},
		{
			"buffer":0,
			"byteLength":10400,
			"byteOffset":31200,
			"target":34962
		},
		{
			"buffer":0,
			"byteLength":5200,
			"byteOffset":41600,
			"target":34962
		},
		{
			"buffer":0,
			"byteLength":20800,
			"byteOffset":46800,
			"target":34962
		},
		{
			"buffer":0,
			"byteLength":4368,
			"byteOffset":67600,
			"target":34963
		},
		{
			"buffer":0,
			"byteLength":64,
			"byteOffset":71968
		},
		{
			"buffer":0,
			"byteLength":4,
			"byteOffset":72032
		},
		{
			"buffer":0,
			"byteLength":12,
			"byteOffset":72036
		},
		{
			"buffer":0,
			"byteLength":16,
			"byteOffset":72048
		},
		{
			"buffer":0,
			"byteLength":12,
			"byteOffset":72064
		}
	],
	"samplers":[
		{
			"magFilter":9729,
			"minFilter":9987
		}
	],
	"buffers":[
		{
			"byteLength":72076,
			"uri":"Stage.bin"
		}
	]
}
