{
	"asset":{
		"generator":"Khronos glTF Blender I/O v4.2.57",
		"version":"2.0"
	},
	"extensionsUsed":[
		"KHR_texture_transform"
	],
	"extensionsRequired":[
		"KHR_texture_transform"
	],
	"scene":0,
	"scenes":[
		{
			"name":"Scene",
			"nodes":[
				15
			]
		}
	],
	"nodes":[
		{
			"name":"\u30dc\u30fc\u30f3.004.L",
			"rotation":[
				2.7755578924351364e-17,
				0,
				0,
				1
			],
			"scale":[
				1,
				0.9999998807907104,
				1
			],
			"translation":[
				0.2833320200443268,
				0.15040646493434906,
				0.9004194736480713
			]
		},
		{
			"name":"\u30dc\u30fc\u30f3.004.R",
			"rotation":[
				2.7755578924351364e-17,
				0,
				0,
				1
			],
			"scale":[
				1,
				0.9999998807907104,
				1
			],
			"translation":[
				-0.30601367354393005,
				0.15040646493434906,
				0.9004194736480713
			]
		},
		{
			"name":"\u30dc\u30fc\u30f3.006",
			"rotation":[
				-0.3834739029407501,
				1.923397312120624e-15,
				-9.142731727251885e-08,
				0.9235517382621765
			],
			"translation":[
				-6.255902462726226e-10,
				0.6344981789588928,
				-1.219729561796612e-08
			]
		},
		{
			"children":[
				2
			],
			"name":"\u30dc\u30fc\u30f3.005",
			"rotation":[
				-0.4977412521839142,
				-1.2288511747342475e-14,
				-1.1867076921134867e-07,
				0.8673256039619446
			],
			"scale":[
				1,
				0.9999999403953552,
				0.9999999403953552
			],
			"translation":[
				1.4352963262354024e-11,
				1.4167735576629639,
				-2.3571470819661045e-07
			]
		},
		{
			"children":[
				3
			],
			"name":"\u30dc\u30fc\u30f3.004",
			"rotation":[
				-0.7471504807472229,
				2.8530105930730035e-14,
				-1.7813457020565693e-07,
				0.6646549701690674
			],
			"scale":[
				1,
				0.9999999403953552,
				0.9999999403953552
			],
			"translation":[
				2.7696955839928705e-11,
				1.1995439529418945,
				-2.7098456811813776e-08
			]
		},
		{
			"children":[
				4
			],
			"name":"\u30dc\u30fc\u30f3.003",
			"rotation":[
				-0.17793944478034973,
				1.1730686821920244e-07,
				-2.1212033018969123e-08,
				0.9840414524078369
			],
			"scale":[
				1,
				1,
				0.9999999403953552
			],
			"translation":[
				9.313225746154785e-10,
				1,
				1.1102230246251565e-16
			]
		},
		{
			"children":[
				0,
				1,
				5
			],
			"name":"\u30dc\u30fc\u30f3.001",
			"rotation":[
				0.7138913869857788,
				0,
				0,
				0.7002564668655396
			],
			"translation":[
				0.011340835131704807,
				-1.0080758333206177,
				1.0701779127120972
			]
		},
		{
			"name":"\u30dc\u30fc\u30f3.003.L",
			"rotation":[
				0.987063467502594,
				0.1602046936750412,
				0.00027411189512349665,
				0.006331886164844036
			],
			"scale":[
				0.9999998211860657,
				0.9999998807907104,
				1.0000001192092896
			],
			"translation":[
				0.6100937724113464,
				-0.6025638580322266,
				-1.5569438934326172
			]
		},
		{
			"name":"\u30dc\u30fc\u30f3.003.R",
			"rotation":[
				0.987063467502594,
				-0.1602046936750412,
				-0.00027411189512349665,
				0.006331886164844036
			],
			"scale":[
				0.9999998211860657,
				0.9999998807907104,
				1.0000001192092896
			],
			"translation":[
				-0.6100937724113464,
				-0.6025638580322266,
				-1.5569438934326172
			]
		},
		{
			"name":"\u30dc\u30fc\u30f3.002.L",
			"rotation":[
				-0.007761445362120867,
				-0.04934150353074074,
				-0.9866191148757935,
				0.15520310401916504
			],
			"scale":[
				0.9999987483024597,
				1,
				0.9999998211860657
			],
			"translation":[
				1.1744019985198975,
				0.41802603006362915,
				0.014697011560201645
			]
		},
		{
			"name":"\u30dc\u30fc\u30f3.002.R",
			"rotation":[
				-0.0077615841291844845,
				0.049341458827257156,
				0.9866191148757935,
				0.15520313382148743
			],
			"scale":[
				0.9999982714653015,
				0.9999999403953552,
				0.9999998211860657
			],
			"translation":[
				-1.2315824031829834,
				0.4180261492729187,
				0.014696430414915085
			]
		},
		{
			"children":[
				9,
				10
			],
			"name":"\u30dc\u30fc\u30f3.002",
			"rotation":[
				0.7479770183563232,
				7.912214528005279e-08,
				8.916580895856896e-08,
				0.6637246608734131
			],
			"scale":[
				1,
				0.9999999403953552,
				0.9999999403953552
			],
			"translation":[
				0.02859017811715603,
				-0.8546128869056702,
				-0.5551990866661072
			]
		},
		{
			"children":[
				6,
				7,
				8,
				11
			],
			"name":"\u30dc\u30fc\u30f3",
			"rotation":[
				-0.7138913869857788,
				0,
				0,
				0.7002564668655396
			],
			"translation":[
				0,
				1.6915791034698486,
				-0.9872535467147827
			]
		},
		{
			"mesh":0,
			"name":"Wepon",
			"skin":0
		},
		{
			"mesh":1,
			"name":"\u7acb\u65b9\u4f53.003",
			"skin":0
		},
		{
			"children":[
				13,
				14,
				12
			],
			"name":"\u30a2\u30fc\u30de\u30c1\u30e5\u30a2"
		}
	],
	"animations":[
		{
			"channels":[
				{
					"sampler":0,
					"target":{
						"node":12,
						"path":"translation"
					}
				},
				{
					"sampler":1,
					"target":{
						"node":12,
						"path":"rotation"
					}
				},
				{
					"sampler":2,
					"target":{
						"node":12,
						"path":"scale"
					}
				},
				{
					"sampler":3,
					"target":{
						"node":6,
						"path":"translation"
					}
				},
				{
					"sampler":4,
					"target":{
						"node":6,
						"path":"rotation"
					}
				},
				{
					"sampler":5,
					"target":{
						"node":6,
						"path":"scale"
					}
				},
				{
					"sampler":6,
					"target":{
						"node":0,
						"path":"translation"
					}
				},
				{
					"sampler":7,
					"target":{
						"node":0,
						"path":"rotation"
					}
				},
				{
					"sampler":8,
					"target":{
						"node":0,
						"path":"scale"
					}
				},
				{
					"sampler":9,
					"target":{
						"node":1,
						"path":"translation"
					}
				},
				{
					"sampler":10,
					"target":{
						"node":1,
						"path":"rotation"
					}
				},
				{
					"sampler":11,
					"target":{
						"node":1,
						"path":"scale"
					}
				},
				{
					"sampler":12,
					"target":{
						"node":5,
						"path":"translation"
					}
				},
				{
					"sampler":13,
					"target":{
						"node":5,
						"path":"rotation"
					}
				},
				{
					"sampler":14,
					"target":{
						"node":5,
						"path":"scale"
					}
				},
				{
					"sampler":15,
					"target":{
						"node":4,
						"path":"translation"
					}
				},
				{
					"sampler":16,
					"target":{
						"node":4,
						"path":"rotation"
					}
				},
				{
					"sampler":17,
					"target":{
						"node":4,
						"path":"scale"
					}
				},
				{
					"sampler":18,
					"target":{
						"node":3,
						"path":"translation"
					}
				},
				{
					"sampler":19,
					"target":{
						"node":3,
						"path":"rotation"
					}
				},
				{
					"sampler":20,
					"target":{
						"node":3,
						"path":"scale"
					}
				},
				{
					"sampler":21,
					"target":{
						"node":2,
						"path":"translation"
					}
				},
				{
					"sampler":22,
					"target":{
						"node":2,
						"path":"rotation"
					}
				},
				{
					"sampler":23,
					"target":{
						"node":2,
						"path":"scale"
					}
				},
				{
					"sampler":24,
					"target":{
						"node":7,
						"path":"translation"
					}
				},
				{
					"sampler":25,
					"target":{
						"node":7,
						"path":"rotation"
					}
				},
				{
					"sampler":26,
					"target":{
						"node":7,
						"path":"scale"
					}
				},
				{
					"sampler":27,
					"target":{
						"node":8,
						"path":"translation"
					}
				},
				{
					"sampler":28,
					"target":{
						"node":8,
						"path":"rotation"
					}
				},
				{
					"sampler":29,
					"target":{
						"node":8,
						"path":"scale"
					}
				},
				{
					"sampler":30,
					"target":{
						"node":11,
						"path":"translation"
					}
				},
				{
					"sampler":31,
					"target":{
						"node":11,
						"path":"rotation"
					}
				},
				{
					"sampler":32,
					"target":{
						"node":11,
						"path":"scale"
					}
				},
				{
					"sampler":33,
					"target":{
						"node":9,
						"path":"translation"
					}
				},
				{
					"sampler":34,
					"target":{
						"node":9,
						"path":"rotation"
					}
				},
				{
					"sampler":35,
					"target":{
						"node":9,
						"path":"scale"
					}
				},
				{
					"sampler":36,
					"target":{
						"node":10,
						"path":"translation"
					}
				},
				{
					"sampler":37,
					"target":{
						"node":10,
						"path":"rotation"
					}
				},
				{
					"sampler":38,
					"target":{
						"node":10,
						"path":"scale"
					}
				}
			],
			"name":"\u30a2\u30fc\u30de\u30c1\u30e5\u30a2\u30a2\u30af\u30b7\u30e7\u30f3",
			"samplers":[
				{
					"input":14,
					"interpolation":"LINEAR",
					"output":15
				},
				{
					"input":14,
					"interpolation":"LINEAR",
					"output":16
				},
				{
					"input":17,
					"interpolation":"LINEAR",
					"output":18
				},
				{
					"input":17,
					"interpolation":"LINEAR",
					"output":19
				},
				{
					"input":17,
					"interpolation":"LINEAR",
					"output":20
				},
				{
					"input":17,
					"interpolation":"STEP",
					"output":21
				},
				{
					"input":17,
					"interpolation":"LINEAR",
					"output":22
				},
				{
					"input":17,
					"interpolation":"STEP",
					"output":23
				},
				{
					"input":17,
					"interpolation":"STEP",
					"output":24
				},
				{
					"input":17,
					"interpolation":"LINEAR",
					"output":25
				},
				{
					"input":17,
					"interpolation":"STEP",
					"output":26
				},
				{
					"input":17,
					"interpolation":"STEP",
					"output":27
				},
				{
					"input":17,
					"interpolation":"LINEAR",
					"output":28
				},
				{
					"input":17,
					"interpolation":"LINEAR",
					"output":29
				},
				{
					"input":17,
					"interpolation":"STEP",
					"output":30
				},
				{
					"input":17,
					"interpolation":"LINEAR",
					"output":31
				},
				{
					"input":17,
					"interpolation":"LINEAR",
					"output":32
				},
				{
					"input":17,
					"interpolation":"STEP",
					"output":33
				},
				{
					"input":17,
					"interpolation":"LINEAR",
					"output":34
				},
				{
					"input":17,
					"interpolation":"LINEAR",
					"output":35
				},
				{
					"input":17,
					"interpolation":"LINEAR",
					"output":36
				},
				{
					"input":17,
					"interpolation":"LINEAR",
					"output":37
				},
				{
					"input":17,
					"interpolation":"LINEAR",
					"output":38
				},
				{
					"input":17,
					"interpolation":"STEP",
					"output":39
				},
				{
					"input":14,
					"interpolation":"LINEAR",
					"output":40
				},
				{
					"input":14,
					"interpolation":"LINEAR",
					"output":41
				},
				{
					"input":17,
					"interpolation":"STEP",
					"output":42
				},
				{
					"input":17,
					"interpolation":"LINEAR",
					"output":43
				},
				{
					"input":14,
					"interpolation":"LINEAR",
					"output":44
				},
				{
					"input":17,
					"interpolation":"LINEAR",
					"output":45
				},
				{
					"input":17,
					"interpolation":"LINEAR",
					"output":46
				},
				{
					"input":14,
					"interpolation":"LINEAR",
					"output":47
				},
				{
					"input":17,
					"interpolation":"STEP",
					"output":48
				},
				{
					"input":14,
					"interpolation":"LINEAR",
					"output":49
				},
				{
					"input":14,
					"interpolation":"LINEAR",
					"output":50
				},
				{
					"input":17,
					"interpolation":"STEP",
					"output":51
				},
				{
					"input":14,
					"interpolation":"LINEAR",
					"output":52
				},
				{
					"input":14,
					"interpolation":"LINEAR",
					"output":53
				},
				{
					"input":14,
					"interpolation":"LINEAR",
					"output":54
				}
			]
		}
	],
	"materials":[
		{
			"alphaMode":"BLEND",
			"doubleSided":true,
			"name":"\u30de\u30c6\u30ea\u30a2\u30eb",
			"pbrMetallicRoughness":{
				"baseColorTexture":{
					"extensions":{
						"KHR_texture_transform":{
							"offset":[
								0,
								0.009999929927289486
							]
						}
					},
					"index":0
				},
				"metallicFactor":0,
				"roughnessFactor":0.5
			}
		},
		{
			"alphaMode":"BLEND",
			"doubleSided":true,
			"name":"Material",
			"pbrMetallicRoughness":{
				"baseColorTexture":{
					"index":1
				},
				"metallicFactor":0,
				"roughnessFactor":0.5
			}
		}
	],
	"meshes":[
		{
			"name":"\u7acb\u65b9\u4f53",
			"primitives":[
				{
					"attributes":{
						"POSITION":0,
						"NORMAL":1,
						"TEXCOORD_0":2,
						"JOINTS_0":3,
						"WEIGHTS_0":4
					},
					"indices":5,
					"material":0
				}
			]
		},
		{
			"name":"\u7acb\u65b9\u4f53.005",
			"primitives":[
				{
					"attributes":{
						"POSITION":7,
						"NORMAL":8,
						"TEXCOORD_0":9,
						"TEXCOORD_1":10,
						"JOINTS_0":11,
						"WEIGHTS_0":12
					},
					"indices":13,
					"material":1
				}
			]
		}
	],
	"textures":[
		{
			"sampler":0,
			"source":0
		},
		{
			"sampler":0,
			"source":1
		}
	],
	"images":[
		{
			"mimeType":"image/png",
			"name":"Player_Wepon",
			"uri":"Player_Wepon.png"
		},
		{
			"mimeType":"image/png",
			"name":"PlayerTex",
			"uri":"PlayerTex.png"
		}
	],
	"skins":[
		{
			"inverseBindMatrices":6,
			"joints":[
				12,
				6,
				0,
				1,
				5,
				4,
				3,
				2,
				7,
				8,
				11,
				9,
				10
			],
			"name":"\u30a2\u30fc\u30de\u30c1\u30e5\u30a2"
		}
	],
	"accessors":[
		{
			"bufferView":0,
			"componentType":5126,
			"count":225,
			"max":[
				-0.9806183576583862,
				2.2333548069000244,
				5.14472770690918
			],
			"min":[
				-1.855159044265747,
				0.3209836483001709,
				-0.7282271385192871
			],
			"type":"VEC3"
		},
		{
			"bufferView":1,
			"componentType":5126,
			"count":225,
			"type":"VEC3"
		},
		{
			"bufferView":2,
			"componentType":5126,
			"count":225,
			"type":"VEC2"
		},
		{
			"bufferView":3,
			"componentType":5121,
			"count":225,
			"type":"VEC4"
		},
		{
			"bufferView":4,
			"componentType":5126,
			"count":225,
			"type":"VEC4"
		},
		{
			"bufferView":5,
			"componentType":5123,
			"count":285,
			"type":"SCALAR"
		},
		{
			"bufferView":6,
			"componentType":5126,
			"count":13,
			"type":"MAT4"
		},
		{
			"bufferView":7,
			"componentType":5126,
			"count":527,
			"max":[
				1.4967182874679565,
				5.164496421813965,
				0.7976304292678833
			],
			"min":[
				-1.4967182874679565,
				-0.007432295475155115,
				-1.9916902780532837
			],
			"type":"VEC3"
		},
		{
			"bufferView":8,
			"componentType":5126,
			"count":527,
			"type":"VEC3"
		},
		{
			"bufferView":9,
			"componentType":5126,
			"count":527,
			"type":"VEC2"
		},
		{
			"bufferView":10,
			"componentType":5126,
			"count":527,
			"type":"VEC2"
		},
		{
			"bufferView":11,
			"componentType":5121,
			"count":527,
			"type":"VEC4"
		},
		{
			"bufferView":12,
			"componentType":5126,
			"count":527,
			"type":"VEC4"
		},
		{
			"bufferView":13,
			"componentType":5123,
			"count":624,
			"type":"SCALAR"
		},
		{
			"bufferView":14,
			"componentType":5126,
			"count":51,
			"max":[
				0.8333333333333334
			],
			"min":[
				0
			],
			"type":"SCALAR"
		},
		{
			"bufferView":15,
			"componentType":5126,
			"count":51,
			"type":"VEC3"
		},
		{
			"bufferView":16,
			"componentType":5126,
			"count":51,
			"type":"VEC4"
		},
		{
			"bufferView":17,
			"componentType":5126,
			"count":2,
			"max":[
				0.8333333333333334
			],
			"min":[
				0
			],
			"type":"SCALAR"
		},
		{
			"bufferView":18,
			"componentType":5126,
			"count":2,
			"type":"VEC3"
		},
		{
			"bufferView":19,
			"componentType":5126,
			"count":2,
			"type":"VEC3"
		},
		{
			"bufferView":20,
			"componentType":5126,
			"count":2,
			"type":"VEC4"
		},
		{
			"bufferView":21,
			"componentType":5126,
			"count":2,
			"type":"VEC3"
		},
		{
			"bufferView":22,
			"componentType":5126,
			"count":2,
			"type":"VEC3"
		},
		{
			"bufferView":23,
			"componentType":5126,
			"count":2,
			"type":"VEC4"
		},
		{
			"bufferView":24,
			"componentType":5126,
			"count":2,
			"type":"VEC3"
		},
		{
			"bufferView":25,
			"componentType":5126,
			"count":2,
			"type":"VEC3"
		},
		{
			"bufferView":26,
			"componentType":5126,
			"count":2,
			"type":"VEC4"
		},
		{
			"bufferView":27,
			"componentType":5126,
			"count":2,
			"type":"VEC3"
		},
		{
			"bufferView":28,
			"componentType":5126,
			"count":2,
			"type":"VEC3"
		},
		{
			"bufferView":29,
			"componentType":5126,
			"count":2,
			"type":"VEC4"
		},
		{
			"bufferView":30,
			"componentType":5126,
			"count":2,
			"type":"VEC3"
		},
		{
			"bufferView":31,
			"componentType":5126,
			"count":2,
			"type":"VEC3"
		},
		{
			"bufferView":32,
			"componentType":5126,
			"count":2,
			"type":"VEC4"
		},
		{
			"bufferView":33,
			"componentType":5126,
			"count":2,
			"type":"VEC3"
		},
		{
			"bufferView":34,
			"componentType":5126,
			"count":2,
			"type":"VEC3"
		},
		{
			"bufferView":35,
			"componentType":5126,
			"count":2,
			"type":"VEC4"
		},
		{
			"bufferView":36,
			"componentType":5126,
			"count":2,
			"type":"VEC3"
		},
		{
			"bufferView":37,
			"componentType":5126,
			"count":2,
			"type":"VEC3"
		},
		{
			"bufferView":38,
			"componentType":5126,
			"count":2,
			"type":"VEC4"
		},
		{
			"bufferView":39,
			"componentType":5126,
			"count":2,
			"type":"VEC3"
		},
		{
			"bufferView":40,
			"componentType":5126,
			"count":51,
			"type":"VEC3"
		},
		{
			"bufferView":41,
			"componentType":5126,
			"count":51,
			"type":"VEC4"
		},
		{
			"bufferView":42,
			"componentType":5126,
			"count":2,
			"type":"VEC3"
		},
		{
			"bufferView":43,
			"componentType":5126,
			"count":2,
			"type":"VEC3"
		},
		{
			"bufferView":44,
			"componentType":5126,
			"count":51,
			"type":"VEC4"
		},
		{
			"bufferView":45,
			"componentType":5126,
			"count":2,
			"type":"VEC3"
		},
		{
			"bufferView":46,
			"componentType":5126,
			"count":2,
			"type":"VEC3"
		},
		{
			"bufferView":47,
			"componentType":5126,
			"count":51,
			"type":"VEC4"
		},
		{
			"bufferView":48,
			"componentType":5126,
			"count":2,
			"type":"VEC3"
		},
		{
			"bufferView":49,
			"componentType":5126,
			"count":51,
			"type":"VEC3"
		},
		{
			"bufferView":50,
			"componentType":5126,
			"count":51,
			"type":"VEC4"
		},
		{
			"bufferView":51,
			"componentType":5126,
			"count":2,
			"type":"VEC3"
		},
		{
			"bufferView":52,
			"componentType":5126,
			"count":51,
			"type":"VEC3"
		},
		{
			"bufferView":53,
			"componentType":5126,
			"count":51,
			"type":"VEC4"
		},
		{
			"bufferView":54,
			"componentType":5126,
			"count":51,
			"type":"VEC3"
		}
	],
	"bufferViews":[
		{
			"buffer":0,
			"byteLength":2700,
			"byteOffset":0,
			"target":34962
		},
		{
			"buffer":0,
			"byteLength":2700,
			"byteOffset":2700,
			"target":34962
		},
		{
			"buffer":0,
			"byteLength":1800,
			"byteOffset":5400,
			"target":34962
		},
		{
			"buffer":0,
			"byteLength":900,
			"byteOffset":7200,
			"target":34962
		},
		{
			"buffer":0,
			"byteLength":3600,
			"byteOffset":8100,
			"target":34962
		},
		{
			"buffer":0,
			"byteLength":570,
			"byteOffset":11700,
			"target":34963
		},
		{
			"buffer":0,
			"byteLength":832,
			"byteOffset":12272
		},
		{
			"buffer":0,
			"byteLength":6324,
			"byteOffset":13104,
			"target":34962
		},
		{
			"buffer":0,
			"byteLength":6324,
			"byteOffset":19428,
			"target":34962
		},
		{
			"buffer":0,
			"byteLength":4216,
			"byteOffset":25752,
			"target":34962
		},
		{
			"buffer":0,
			"byteLength":4216,
			"byteOffset":29968,
			"target":34962
		},
		{
			"buffer":0,
			"byteLength":2108,
			"byteOffset":34184,
			"target":34962
		},
		{
			"buffer":0,
			"byteLength":8432,
			"byteOffset":36292,
			"target":34962
		},
		{
			"buffer":0,
			"byteLength":1248,
			"byteOffset":44724,
			"target":34963
		},
		{
			"buffer":0,
			"byteLength":204,
			"byteOffset":45972
		},
		{
			"buffer":0,
			"byteLength":612,
			"byteOffset":46176
		},
		{
			"buffer":0,
			"byteLength":816,
			"byteOffset":46788
		},
		{
			"buffer":0,
			"byteLength":8,
			"byteOffset":47604
		},
		{
			"buffer":0,
			"byteLength":24,
			"byteOffset":47612
		},
		{
			"buffer":0,
			"byteLength":24,
			"byteOffset":47636
		},
		{
			"buffer":0,
			"byteLength":32,
			"byteOffset":47660
		},
		{
			"buffer":0,
			"byteLength":24,
			"byteOffset":47692
		},
		{
			"buffer":0,
			"byteLength":24,
			"byteOffset":47716
		},
		{
			"buffer":0,
			"byteLength":32,
			"byteOffset":47740
		},
		{
			"buffer":0,
			"byteLength":24,
			"byteOffset":47772
		},
		{
			"buffer":0,
			"byteLength":24,
			"byteOffset":47796
		},
		{
			"buffer":0,
			"byteLength":32,
			"byteOffset":47820
		},
		{
			"buffer":0,
			"byteLength":24,
			"byteOffset":47852
		},
		{
			"buffer":0,
			"byteLength":24,
			"byteOffset":47876
		},
		{
			"buffer":0,
			"byteLength":32,
			"byteOffset":47900
		},
		{
			"buffer":0,
			"byteLength":24,
			"byteOffset":47932
		},
		{
			"buffer":0,
			"byteLength":24,
			"byteOffset":47956
		},
		{
			"buffer":0,
			"byteLength":32,
			"byteOffset":47980
		},
		{
			"buffer":0,
			"byteLength":24,
			"byteOffset":48012
		},
		{
			"buffer":0,
			"byteLength":24,
			"byteOffset":48036
		},
		{
			"buffer":0,
			"byteLength":32,
			"byteOffset":48060
		},
		{
			"buffer":0,
			"byteLength":24,
			"byteOffset":48092
		},
		{
			"buffer":0,
			"byteLength":24,
			"byteOffset":48116
		},
		{
			"buffer":0,
			"byteLength":32,
			"byteOffset":48140
		},
		{
			"buffer":0,
			"byteLength":24,
			"byteOffset":48172
		},
		{
			"buffer":0,
			"byteLength":612,
			"byteOffset":48196
		},
		{
			"buffer":0,
			"byteLength":816,
			"byteOffset":48808
		},
		{
			"buffer":0,
			"byteLength":24,
			"byteOffset":49624
		},
		{
			"buffer":0,
			"byteLength":24,
			"byteOffset":49648
		},
		{
			"buffer":0,
			"byteLength":816,
			"byteOffset":49672
		},
		{
			"buffer":0,
			"byteLength":24,
			"byteOffset":50488
		},
		{
			"buffer":0,
			"byteLength":24,
			"byteOffset":50512
		},
		{
			"buffer":0,
			"byteLength":816,
			"byteOffset":50536
		},
		{
			"buffer":0,
			"byteLength":24,
			"byteOffset":51352
		},
		{
			"buffer":0,
			"byteLength":612,
			"byteOffset":51376
		},
		{
			"buffer":0,
			"byteLength":816,
			"byteOffset":51988
		},
		{
			"buffer":0,
			"byteLength":24,
			"byteOffset":52804
		},
		{
			"buffer":0,
			"byteLength":612,
			"byteOffset":52828
		},
		{
			"buffer":0,
			"byteLength":816,
			"byteOffset":53440
		},
		{
			"buffer":0,
			"byteLength":612,
			"byteOffset":54256
		}
	],
	"samplers":[
		{
			"magFilter":9729,
			"minFilter":9987
		}
	],
	"buffers":[
		{
			"byteLength":54868,
			"uri":"Player_WeakAttack1.bin"
		}
	]
}
