# Blender 4.1.1
# www.blender.org
mtllib HandFinger.mtl
o 立方体.006
v -0.412441 2.248364 -0.430087
v -0.937613 2.011312 -0.514674
v -0.133731 1.882097 -1.132136
v -0.266040 1.790189 -0.118663
v -0.172038 1.728717 -0.510958
v -0.506207 2.037635 0.695400
v -1.043648 1.790141 0.589034
v -0.274839 1.519220 0.630233
v -0.047142 0.662861 1.577674
v -0.321030 1.802968 0.154923
v 0.162901 0.429833 1.110937
v -0.842008 1.551285 0.098794
v -0.399144 0.170233 0.987614
v -0.609187 0.403261 1.454351
v -0.787676 1.283832 0.540823
v -0.684876 1.493329 -0.600367
v -0.781402 1.551409 -0.194302
v 0.027649 1.416348 -0.825741
v -0.509858 1.177630 -0.905506
v -0.671239 1.643379 -1.211900
v -2.494792 0.643754 -0.012995
v -2.913970 0.236569 -0.154065
v -2.386875 0.878346 -1.132478
v -2.104514 0.227989 -0.049809
v -2.171602 0.504174 -0.463179
v -1.687428 -0.513222 0.929724
v -2.124609 -0.939729 0.770162
v -1.378012 -0.664000 0.484987
v -1.815194 -1.090507 0.325425
v -2.608144 0.100566 -0.625830
v -2.505691 -0.159872 -0.172386
v -1.986458 0.464399 -1.184245
v -2.387634 0.076537 -1.306822
v -2.799529 0.484908 -1.251135
v -2.528906 0.098608 -0.910421
v -2.375648 0.225615 -1.918627
v -2.097183 -0.164491 -1.591339
v -1.951519 0.624629 -1.803891
v -1.673053 0.234523 -1.476603
v -2.104776 0.497622 -0.795684
v -1.917365 1.463578 -0.958080
v -2.330018 1.070140 -1.076737
v -1.482008 1.209861 -1.629493
v -1.635265 1.082855 -0.621286
v -1.516947 1.049631 -1.009848
v -2.025281 1.228985 0.161403
v -2.444460 0.821801 0.020333
v -1.635004 0.813222 0.124589
v -1.702092 1.089406 -0.288782
v -1.217918 0.072010 1.104122
v -1.655099 -0.354497 0.944559
v -0.908501 -0.078768 0.659385
v -1.345683 -0.505275 0.499823
v -2.139273 0.662899 -0.448344
v -2.036180 0.425360 0.002012
v -1.918123 0.661769 -1.132424
v -2.059395 0.683840 -0.736022
v -1.203542 0.819755 -1.302205
v -1.627672 0.420741 -1.416942
v -1.906138 0.810847 -1.744230
v -1.165733 1.891978 -0.694569
v -1.609746 1.538504 -0.825198
v -0.743192 1.608396 -1.362209
v -0.924635 1.483518 -0.358424
v -0.803036 1.444507 -0.745432
v -1.313558 1.654559 0.419748
v -1.764908 1.288248 0.266420
v -0.961381 1.206007 0.383646
v -0.996365 1.492031 -0.026987
v -0.629186 0.418732 1.359702
v -1.099868 0.035011 1.187333
v -0.326802 0.246219 0.918038
v -0.797485 -0.137503 0.745669
v -1.467048 1.108309 -0.199357
v -1.393398 0.857106 0.249359
v -1.235054 1.095606 -0.879719
v -1.380643 1.125470 -0.485395
v -0.506385 1.191032 -1.035754
v -0.962393 0.832985 -1.162725
v -1.199200 1.250349 -1.489180
vn 0.0762 0.1931 -0.9782
vn 0.0760 0.1932 -0.9782
vn 0.0830 0.1906 -0.9781
vn -0.3353 0.4571 0.8238
vn -0.3360 0.4558 0.8242
vn -0.3374 0.4531 0.8252
vn -0.2770 0.8021 -0.5290
vn -0.2776 0.8021 -0.5288
vn -0.2769 0.8021 -0.5291
vn -0.4349 0.8902 0.1357
vn -0.4271 0.8944 0.1328
vn -0.4365 0.8893 0.1363
vn 0.9016 0.4063 0.1484
vn 0.9020 0.4009 0.1603
vn 0.9021 0.3994 0.1635
vn 0.9093 0.3886 0.1492
vn 0.9063 0.3939 0.1532
vn 0.9099 0.3874 0.1483
vn -0.3228 0.8144 -0.4822
vn -0.2944 0.8152 -0.4988
vn -0.3423 0.8134 -0.4704
vn -0.1094 -0.1603 0.9810
vn -0.1086 -0.1606 0.9810
vn -0.1225 -0.1553 0.9802
vn -0.3673 0.4083 0.8357
vn -0.3609 0.4139 0.8357
vn -0.3706 0.4053 0.8357
vn 0.8941 0.4153 0.1673
vn 0.8978 0.4131 0.1529
vn 0.8879 0.4187 0.1905
vn 0.3299 -0.4523 -0.8286
vn 0.3594 -0.4269 -0.8298
vn 0.3735 -0.4144 -0.8299
vn -0.8969 -0.4021 -0.1840
vn -0.8952 -0.4030 -0.1902
vn -0.8925 -0.4043 -0.1998
vn 0.2604 -0.8119 0.5225
vn 0.4318 -0.8933 -0.1251
vn -0.8959 -0.4150 -0.1587
vn -0.8876 -0.4284 -0.1692
vn -0.8857 -0.4314 -0.1715
vn 0.2779 -0.7978 0.5350
vn 0.2882 -0.7968 0.5310
vn 0.2913 -0.7965 0.5298
vn 0.3202 -0.4407 -0.8386
vn -0.9058 -0.4017 -0.1346
vn -0.9058 -0.4019 -0.1341
vn -0.9058 -0.4016 -0.1348
vn -0.4626 0.7042 -0.5386
vn -0.4865 0.6965 -0.5274
vn -0.4516 0.7075 -0.5436
vn -0.1235 -0.1914 0.9737
vn -0.1310 -0.1912 0.9728
vn -0.1416 -0.1907 0.9714
vn -0.7076 0.7016 0.0841
vn -0.7011 0.7083 0.0817
vn -0.7088 0.7003 0.0846
vn -0.5431 0.2639 0.7972
vn -0.5384 0.2722 0.7976
vn -0.5450 0.2605 0.7970
vn 0.7212 0.6606 0.2087
vn 0.7165 0.6645 0.2123
vn 0.7223 0.6596 0.2079
vn 0.6835 0.6824 0.2591
vn 0.6819 0.6825 0.2631
vn 0.6882 0.6820 0.2476
vn 0.4665 -0.6868 0.5574
vn 0.5471 -0.2706 -0.7921
vn 0.5486 -0.2679 -0.7920
vn 0.5493 -0.2668 -0.7919
vn -0.6963 -0.6698 -0.2579
vn -0.6964 -0.6697 -0.2578
vn -0.6965 -0.6697 -0.2575
vn 0.7047 -0.7056 -0.0737
vn 0.0877 0.2116 -0.9734
vn 0.0834 0.2117 -0.9738
vn 0.0928 0.2115 -0.9730
vn -0.6991 -0.6813 -0.2168
vn -0.6867 -0.6909 -0.2259
vn -0.6835 -0.6934 -0.2283
vn -0.4786 0.6722 -0.5649
vn -0.4792 0.6719 -0.5647
vn -0.4785 0.6722 -0.5650
vn -0.5234 0.3208 0.7894
vn -0.5236 0.3195 0.7898
vn -0.5249 0.3117 0.7920
vn -0.7150 -0.6718 -0.1936
vn -0.7149 -0.6721 -0.1930
vn -0.7150 -0.6718 -0.1938
vn 0.5091 -0.3102 -0.8029
vn 0.7076 0.6777 0.2000
vn 0.7061 0.6832 0.1864
vn 0.7056 0.6846 0.1829
vn 0.4798 -0.6722 0.5639
vn -0.4734 0.6879 -0.5502
vn -0.4791 0.6861 -0.5474
vn -0.4707 0.6888 -0.5514
vn 0.5502 -0.2681 -0.7908
vn -0.7021 -0.6692 -0.2434
vn -0.7007 -0.6694 -0.2469
vn 0.1227 0.2146 -0.9690
vn 0.1191 0.2150 -0.9693
vn 0.1282 0.2140 -0.9684
vn -0.5062 0.3569 0.7851
vn -0.5066 0.3555 0.7855
vn -0.5087 0.3479 0.7876
vn -0.4068 0.7190 -0.5635
vn -0.4074 0.7188 -0.5633
vn -0.4067 0.7191 -0.5635
vn -0.6435 0.7610 0.0821
vn -0.6364 0.7672 0.0799
vn -0.6448 0.7599 0.0826
vn 0.7617 0.6092 0.2206
vn 0.7609 0.6150 0.2070
vn 0.7606 0.6164 0.2035
vn 0.7736 0.5908 0.2292
vn 0.7692 0.5951 0.2328
vn 0.7746 0.5898 0.2284
vn -0.4005 0.7341 -0.5484
vn -0.4063 0.7328 -0.5458
vn -0.3977 0.7347 -0.5496
vn -0.1577 -0.1912 0.9688
vn -0.1637 -0.1904 0.9680
vn -0.1749 -0.1890 0.9663
vn -0.5311 0.3018 0.7917
vn -0.5256 0.3097 0.7923
vn -0.5333 0.2986 0.7915
vn 0.7373 0.6153 0.2790
vn 0.7353 0.6155 0.2836
vn 0.7419 0.6146 0.2679
vn 0.3936 -0.7324 0.5556
vn 0.5377 -0.3068 -0.7854
vn -0.7548 -0.6007 -0.2634
vn -0.7532 -0.6010 -0.2676
vn -0.7490 -0.6016 -0.2778
vn 0.6401 -0.7649 -0.0718
vn -0.7535 -0.6132 -0.2371
vn -0.7415 -0.6241 -0.2465
vn -0.7386 -0.6266 -0.2486
vn 0.4080 -0.7191 0.5625
vn 0.4932 -0.3449 -0.7987
vn -0.7686 -0.6028 -0.2142
vn -0.7686 -0.6030 -0.2136
vn -0.7686 -0.6027 -0.2144
vn 0.0693 0.1956 -0.9782
vn -0.3338 0.4598 0.8229
vn -0.2778 0.8021 -0.5287
vn -0.4254 0.8953 0.1322
vn 0.9015 0.4078 0.1451
vn 0.9057 0.3950 0.1541
vn -0.2744 0.8152 -0.5101
vn -0.0950 -0.1658 0.9816
vn -0.3574 0.4170 0.8357
vn 0.9027 0.4096 0.1314
vn 0.3140 -0.4655 -0.8275
vn -0.8994 -0.4008 -0.1746
vn -0.8976 -0.4121 -0.1565
vn 0.2749 -0.7981 0.5361
vn -0.9058 -0.4020 -0.1339
vn -0.4973 0.6929 -0.5221
vn -0.1124 -0.1918 0.9750
vn -0.6999 0.7096 0.0812
vn -0.5363 0.2757 0.7977
vn 0.7154 0.6654 0.2131
vn 0.6771 0.6828 0.2744
vn 0.5464 -0.2718 -0.7922
vn -0.6962 -0.6698 -0.2583
vn 0.0782 0.2118 -0.9742
vn -0.7021 -0.6789 -0.2146
vn -0.4793 0.6719 -0.5647
vn -0.5220 0.3285 0.7871
vn -0.7149 -0.6721 -0.1929
vn 0.7080 0.6762 0.2036
vn -0.4819 0.6853 -0.5461
vn -0.7060 -0.6688 -0.2330
vn 0.1137 0.2156 -0.9698
vn -0.5042 0.3645 0.7829
vn -0.4075 0.7188 -0.5632
vn -0.6351 0.7684 0.0795
vn 0.7619 0.6076 0.2241
vn 0.7682 0.5961 0.2336
vn -0.4092 0.7321 -0.5445
vn -0.1460 -0.1927 0.9703
vn -0.5233 0.3130 0.7926
vn 0.7305 0.6161 0.2946
vn -0.7588 -0.6000 -0.2534
vn -0.7561 -0.6108 -0.2351
vn -0.7686 -0.6031 -0.2135
vt 0.625000 0.500000
vt 0.875000 0.750000
vt 0.625000 0.750000
vt 0.125000 0.500000
vt 0.375000 0.750000
vt 0.125000 0.750000
vt 0.375000 0.000000
vt 0.625000 0.250000
vt 0.375000 0.250000
vt 0.375000 1.000000
vt 0.625000 1.000000
vt 0.375000 0.500000
vt 0.875000 0.500000
vt 0.625000 0.000000
s 1
f 16/1/1 1/2/2 5/3/3
f 2/4/4 4/5/5 1/6/6
f 1/7/7 20/8/8 2/9/9
f 6/7/10 2/8/11 7/9/12
f 18/3/13 1/10/14 4/5/15
f 8/5/16 1/11/17 6/10/18
f 12/1/19 6/2/20 10/3/21
f 15/12/22 6/6/23 7/4/24
f 9/7/25 7/8/26 14/9/27
f 11/5/28 6/11/29 9/10/30
f 12/1/31 11/5/32 13/12/33
f 7/8/34 13/12/35 14/9/36
f 13/12/37 9/6/37 14/4/37
f 16/1/38 8/5/38 15/12/38
f 2/8/39 15/12/40 7/9/41
f 19/1/42 4/5/43 17/12/44
f 20/13/45 18/3/45 19/1/45
f 2/9/46 19/1/47 17/12/48
f 30/1/49 21/2/50 25/3/51
f 31/12/52 21/6/53 22/4/54
f 21/7/55 34/8/56 22/9/57
f 26/7/58 22/8/59 27/9/60
f 24/5/61 23/11/62 21/10/63
f 28/5/64 21/11/65 26/10/66
f 29/12/67 26/6/67 27/4/67
f 30/1/68 28/5/69 29/12/70
f 22/8/71 29/12/72 27/9/73
f 33/1/74 24/5/74 31/12/74
f 33/1/75 23/2/76 32/3/77
f 34/8/78 31/12/79 22/9/80
f 23/7/81 36/8/82 34/9/83
f 34/4/84 40/5/85 23/6/86
f 34/9/87 37/1/88 35/12/89
f 36/13/90 39/3/90 37/1/90
f 39/3/91 23/10/92 40/5/93
f 37/1/94 40/5/94 35/12/94
f 56/1/75 41/2/76 45/3/77
f 42/4/84 44/5/85 41/6/86
f 41/7/81 60/8/82 42/9/83
f 46/7/55 42/8/56 47/9/57
f 58/3/91 41/10/92 44/5/93
f 48/5/61 41/11/62 46/10/63
f 54/1/95 46/2/96 49/3/97
f 55/12/52 46/6/53 47/4/54
f 50/7/58 47/8/59 51/9/60
f 52/5/64 46/11/65 50/10/66
f 53/12/67 50/6/67 51/4/67
f 54/1/98 52/5/98 53/12/98
f 47/8/99 53/12/100 51/9/73
f 56/1/74 48/5/74 55/12/74
f 42/8/78 55/12/79 47/9/80
f 59/1/94 44/5/94 57/12/94
f 60/13/90 58/3/90 59/1/90
f 42/9/87 59/1/88 57/12/89
f 76/1/101 61/2/102 65/3/103
f 62/4/104 64/5/105 61/6/106
f 61/7/107 80/8/108 62/9/109
f 66/7/110 62/8/111 67/9/112
f 78/3/113 61/10/114 64/5/115
f 68/5/116 61/11/117 66/10/118
f 74/1/119 66/2/120 69/3/121
f 75/12/122 66/6/123 67/4/124
f 70/7/125 67/8/126 71/9/127
f 72/5/128 66/11/129 70/10/130
f 73/12/131 70/6/131 71/4/131
f 74/1/132 72/5/132 73/12/132
f 67/8/133 73/12/134 71/9/135
f 76/1/136 68/5/136 75/12/136
f 62/8/137 75/12/138 67/9/139
f 79/1/140 64/5/140 77/12/140
f 80/13/141 78/3/141 79/1/141
f 62/9/142 79/1/143 77/12/144
f 16/1/1 2/13/145 1/2/2
f 2/4/4 17/12/146 4/5/5
f 1/7/7 3/14/147 20/8/8
f 6/7/10 1/14/148 2/8/11
f 18/3/13 3/11/149 1/10/14
f 8/5/16 5/3/150 1/11/17
f 12/1/19 7/13/151 6/2/20
f 15/12/22 8/5/152 6/6/23
f 9/7/25 6/14/153 7/8/26
f 11/5/28 10/3/154 6/11/29
f 12/1/31 10/3/155 11/5/32
f 7/8/34 12/1/156 13/12/35
f 13/12/37 11/5/37 9/6/37
f 16/1/38 5/3/38 8/5/38
f 2/8/39 16/1/157 15/12/40
f 19/1/42 18/3/158 4/5/43
f 20/13/45 3/2/45 18/3/45
f 2/9/46 20/8/159 19/1/47
f 30/1/49 22/13/160 21/2/50
f 31/12/52 24/5/161 21/6/53
f 21/7/55 23/14/162 34/8/56
f 26/7/58 21/14/163 22/8/59
f 24/5/61 32/3/164 23/11/62
f 28/5/64 25/3/165 21/11/65
f 29/12/67 28/5/67 26/6/67
f 30/1/68 25/3/166 28/5/69
f 22/8/71 30/1/167 29/12/72
f 33/1/74 32/3/74 24/5/74
f 33/1/75 34/13/168 23/2/76
f 34/8/78 33/1/169 31/12/79
f 23/7/81 38/14/170 36/8/82
f 34/4/84 35/12/171 40/5/85
f 34/9/87 36/8/172 37/1/88
f 36/13/90 38/2/90 39/3/90
f 39/3/91 38/11/173 23/10/92
f 37/1/94 39/3/94 40/5/94
f 56/1/75 42/13/168 41/2/76
f 42/4/84 57/12/171 44/5/85
f 41/7/81 43/14/170 60/8/82
f 46/7/55 41/14/162 42/8/56
f 58/3/91 43/11/173 41/10/92
f 48/5/61 45/3/164 41/11/62
f 54/1/95 47/13/174 46/2/96
f 55/12/52 48/5/161 46/6/53
f 50/7/58 46/14/163 47/8/59
f 52/5/64 49/3/165 46/11/65
f 53/12/67 52/5/67 50/6/67
f 54/1/98 49/3/98 52/5/98
f 47/8/99 54/1/175 53/12/100
f 56/1/74 45/3/74 48/5/74
f 42/8/78 56/1/169 55/12/79
f 59/1/94 58/3/94 44/5/94
f 60/13/90 43/2/90 58/3/90
f 42/9/87 60/8/172 59/1/88
f 76/1/101 62/13/176 61/2/102
f 62/4/104 77/12/177 64/5/105
f 61/7/107 63/14/178 80/8/108
f 66/7/110 61/14/179 62/8/111
f 78/3/113 63/11/180 61/10/114
f 68/5/116 65/3/181 61/11/117
f 74/1/119 67/13/182 66/2/120
f 75/12/122 68/5/183 66/6/123
f 70/7/125 66/14/184 67/8/126
f 72/5/128 69/3/185 66/11/129
f 73/12/131 72/5/131 70/6/131
f 74/1/132 69/3/132 72/5/132
f 67/8/133 74/1/186 73/12/134
f 76/1/136 65/3/136 68/5/136
f 62/8/137 76/1/187 75/12/138
f 79/1/140 78/3/140 64/5/140
f 80/13/141 63/2/141 78/3/141
f 62/9/142 80/8/188 79/1/143
