# Blender 4.3.1
# www.blender.org
mtllib Arrow.mtl
o Cube
v 0.099758 -0.099758 -0.432995
v 0.099758 0.099758 -0.432995
v 0.006003 -0.006002 0.533304
v 0.006003 0.006002 0.533304
v -0.099758 -0.099758 -0.432995
v -0.099758 0.099758 -0.432995
v -0.006002 -0.006002 0.533304
v -0.006002 0.006002 0.533304
v -0.099758 0.099758 0.312399
v 0.099758 -0.099758 0.312399
v -0.099758 -0.099758 0.312399
v 0.099758 0.099758 0.312399
v -0.218732 0.218733 0.312572
v 0.218733 -0.218733 0.312572
v -0.218732 -0.218733 0.312572
v 0.218733 0.218733 0.312572
vn -0.0000 -0.7200 0.6939
vn -0.0000 -0.0000 1.0000
vn -1.0000 -0.0000 -0.0000
vn -0.0000 0.7200 0.6939
vn 0.7200 -0.0000 0.6939
vn -0.0000 -0.0000 -1.0000
vn 1.0000 -0.0000 -0.0000
vn -0.0000 1.0000 -0.0000
vn -0.0015 -0.0000 -1.0000
vn -0.0000 -1.0000 -0.0000
vn -0.7200 -0.0000 0.6939
vn 0.0015 -0.0000 -1.0000
vn -0.0000 0.0015 -1.0000
vn -0.0000 -0.0015 -1.0000
vt 0.625000 0.750000
vt 0.875000 0.687500
vt 0.625000 0.687500
vt 0.375000 1.000000
vt 0.375000 0.750000
vt 0.375000 0.250000
vt 0.625000 0.125000
vt 0.375000 0.125000
vt 0.125000 0.750000
vt 0.375000 0.687500
vt 0.125000 0.687500
vt 0.375000 0.500000
vt 0.625000 0.250000
vt 0.375000 0.625000
vt 0.625000 0.500000
vt 0.125000 0.625000
vt 0.125000 0.500000
vt 0.625000 0.062500
vt 0.375000 0.062500
vt 0.625000 0.625000
vt 0.875000 0.500000
vt 0.625000 0.000000
vt 0.375000 0.000000
vt 0.875000 0.625000
vt 0.875000 0.750000
vt 0.625000 1.000000
s 0
usemtl Material
f 3/1/1 15/2/1 14/3/1
f 8/4/2 3/1/2 4/5/2
f 6/6/3 11/7/3 9/8/3
f 8/9/4 16/10/4 13/11/4
f 4/5/5 14/3/5 16/10/5
f 2/12/6 5/13/6 6/6/6
f 12/14/7 1/15/7 2/12/7
f 9/16/8 2/12/8 6/17/8
f 9/8/9 15/18/9 13/19/9
f 10/20/10 5/21/10 1/15/10
f 13/19/11 7/22/11 8/23/11
f 16/10/12 10/20/12 12/14/12
f 13/11/13 12/14/13 9/16/13
f 14/3/14 11/24/14 10/20/14
f 3/1/1 7/25/1 15/2/1
f 8/4/2 7/26/2 3/1/2
f 6/6/3 5/13/3 11/7/3
f 8/9/4 4/5/4 16/10/4
f 4/5/5 3/1/5 14/3/5
f 2/12/6 1/15/6 5/13/6
f 12/14/7 10/20/7 1/15/7
f 9/16/8 12/14/8 2/12/8
f 9/8/9 11/7/9 15/18/9
f 10/20/10 11/24/10 5/21/10
f 13/19/11 15/18/11 7/22/11
f 16/10/12 14/3/12 10/20/12
f 13/11/13 16/10/13 12/14/13
f 14/3/14 15/2/14 11/24/14
