# Blender 5.0.0
# www.blender.org
mtllib PuzzleStand.mtl
o 円柱
v 0.000000 0.136534 -0.549557
v 0.000000 -0.000523 -0.671070
v 0.274779 0.136534 -0.475930
v 0.335535 -0.000523 -0.581164
v 0.475930 0.136534 -0.274779
v 0.581164 -0.000523 -0.335535
v 0.549557 0.136534 0.000000
v 0.671070 -0.000523 0.000000
v 0.475930 0.136534 0.274779
v 0.581164 -0.000523 0.335535
v 0.274779 0.136534 0.475930
v 0.335535 -0.000523 0.581164
v 0.000000 0.136534 0.549557
v 0.000000 -0.000523 0.671070
v -0.274779 0.136534 0.475930
v -0.335535 -0.000523 0.581164
v -0.475930 0.136534 0.274779
v -0.581164 -0.000523 0.335535
v -0.549557 0.136534 0.000000
v -0.671070 -0.000523 0.000000
v -0.475930 0.136534 -0.274779
v -0.581164 -0.000523 -0.335535
v -0.274779 0.136534 -0.475930
v -0.335535 -0.000523 -0.581164
v 0.000000 0.198122 -0.374426
v 0.187213 0.198122 -0.324263
v 0.324263 0.198122 -0.187213
v 0.374426 0.198122 0.000000
v 0.324263 0.198122 0.187213
v 0.187213 0.198122 0.324263
v 0.000000 0.198122 0.374426
v -0.187213 0.198122 0.324263
v -0.324263 0.198122 0.187213
v -0.374426 0.198122 0.000000
v -0.324263 0.198122 -0.187213
v -0.187213 0.198122 -0.324263
v 0.000000 1.631403 -0.374426
v 0.187213 1.631403 -0.324263
v 0.324263 1.631403 -0.187213
v 0.374426 1.631403 0.000000
v 0.324263 1.631403 0.187213
v 0.187213 1.631403 0.324263
v 0.000000 1.631403 0.374426
v -0.187213 1.631403 0.324263
v -0.324263 1.631403 0.187213
v -0.374426 1.631403 0.000000
v -0.324263 1.631403 -0.187213
v -0.187213 1.631403 -0.324263
v -0.000000 1.880962 -1.228531
v 0.614265 1.880962 -1.063939
v 1.063939 1.880962 -0.614266
v 1.228531 1.880962 0.000000
v 1.063939 1.880962 0.614266
v 0.614265 1.880962 1.063939
v -0.000000 1.880962 1.228531
v -0.614266 1.880962 1.063939
v -1.063939 1.880962 0.614266
v -1.228531 1.880962 0.000000
v -1.063939 1.880962 -0.614266
v -0.614266 1.880962 -1.063939
v -0.000000 1.975299 -1.228531
v 0.614265 1.975299 -1.063939
v 1.063939 1.975299 -0.614266
v 1.228531 1.975299 0.000000
v 1.063939 1.975299 0.614266
v 0.614265 1.975299 1.063939
v -0.000000 1.975299 1.228531
v -0.614266 1.975299 1.063939
v -1.063939 1.975299 0.614266
v -1.228531 1.975299 0.000000
v -1.063939 1.975299 -0.614266
v -0.614266 1.975299 -1.063939
vn 0.1966 0.6505 -0.7337
vn 0.5371 0.6505 -0.5371
vn 0.7337 0.6505 -0.1966
vn 0.7337 0.6505 0.1966
vn 0.5371 0.6505 0.5371
vn 0.1966 0.6505 0.7337
vn -0.1966 0.6505 0.7337
vn -0.5371 0.6505 0.5371
vn -0.7337 0.6505 0.1966
vn -0.7337 0.6505 -0.1966
vn -0.0000 -1.0000 -0.0000
vn -0.5371 0.6505 -0.5371
vn -0.1966 0.6505 -0.7337
vn 0.0885 0.9397 0.3304
vn 0.7071 -0.0000 0.7071
vn 0.2419 0.9397 0.2419
vn 0.3304 0.9397 0.0885
vn -0.0885 0.9397 -0.3304
vn 0.0885 0.9397 -0.3304
vn 0.3304 0.9397 -0.0885
vn -0.2419 0.9397 -0.2419
vn 0.2419 0.9397 -0.2419
vn -0.3304 0.9397 -0.0885
vn -0.3304 0.9397 0.0885
vn -0.2419 0.9397 0.2419
vn -0.0885 0.9397 0.3304
vn -0.2047 -0.9572 0.2047
vn -0.2588 -0.0000 -0.9659
vn 0.7071 -0.0000 -0.7071
vn -0.9659 -0.0000 0.2588
vn 0.2588 -0.0000 0.9659
vn 0.9659 -0.0000 -0.2588
vn -0.9659 -0.0000 -0.2588
vn -0.2588 -0.0000 0.9659
vn 0.9659 -0.0000 0.2588
vn -0.7071 -0.0000 -0.7071
vn 0.2588 -0.0000 -0.9659
vn -0.7071 -0.0000 0.7071
vn 0.2047 -0.9572 0.2047
vn -0.0749 -0.9572 -0.2797
vn 0.2047 -0.9572 -0.2047
vn -0.2797 -0.9572 0.0749
vn 0.0749 -0.9572 0.2797
vn 0.2797 -0.9572 -0.0749
vn -0.2797 -0.9572 -0.0749
vn -0.0749 -0.9572 0.2797
vn 0.2797 -0.9572 0.0749
vn -0.2047 -0.9572 -0.2047
vn 0.0749 -0.9572 -0.2797
vn -0.0000 1.0000 -0.0000
vt 0.751862 0.019971
vt 0.677942 0.086511
vt 0.705832 0.086511
vt 0.717805 0.019971
vt 0.601744 0.086511
vt 0.624759 0.019971
vt 0.497656 0.086511
vt 0.497656 0.019971
vt 0.393568 0.086511
vt 0.370553 0.019971
vt 0.317371 0.086511
vt 0.277507 0.019971
vt 0.289480 0.086511
vt 0.243450 0.019971
vt 0.374823 0.116412
vt 0.426739 0.812261
vt 0.426739 0.116412
vt 0.497656 0.116412
vt 0.620489 0.116412
vt 0.639492 0.116412
vt 0.568574 0.116412
vt 0.355821 0.116412
vt 0.094629 0.933420
vt 0.374823 0.812261
vt 0.620489 0.812261
vt 0.568574 0.812261
vt 0.497656 0.812261
vt 0.355821 0.812261
vt 0.639492 0.812261
vt 0.900684 0.933420
vt 0.963032 0.979219
vt 0.963032 0.933420
vt 0.264968 0.933420
vt 0.730344 0.933420
vt 0.497656 0.933420
vt 0.032280 0.933420
vt 0.497656 0.979219
vt 0.094629 0.979219
vt 0.900684 0.979219
vt 0.264968 0.979219
vt 0.730344 0.979219
vt 0.032280 0.979219
s 0
f 2/1/1 1/3/1 3/2/1
f 4/4/2 3/2/2 5/5/2
f 6/6/3 5/5/3 7/7/3
f 8/8/4 7/7/4 9/9/4
f 10/10/5 9/9/5 11/11/5
f 12/12/6 11/11/6 13/13/6
f 14/14/7 13/13/7 15/11/7
f 16/12/8 15/11/8 17/9/8
f 18/10/9 17/9/9 19/7/9
f 20/8/10 19/7/10 21/5/10
f 22/6/11 6/6/11 14/14/11
f 22/6/12 21/5/12 23/2/12
f 24/4/13 23/2/13 1/3/13
f 13/13/14 11/11/14 30/15/14
f 30/15/15 29/17/15 41/16/15
f 11/11/16 9/9/16 29/17/16
f 9/9/17 7/7/17 28/18/17
f 1/3/18 23/2/18 36/19/18
f 3/2/19 1/3/19 25/20/19
f 7/7/20 5/5/20 27/21/20
f 23/2/21 21/5/21 35/21/21
f 5/5/22 3/2/22 26/19/22
f 21/5/23 19/7/23 34/18/23
f 19/7/24 17/9/24 33/17/24
f 17/9/25 15/11/25 32/15/25
f 15/11/26 13/13/26 31/22/26
f 45/16/27 44/24/27 56/23/27
f 25/20/28 36/19/28 48/25/28
f 27/21/29 26/19/29 38/25/29
f 34/18/30 33/17/30 45/16/30
f 31/22/31 30/15/31 42/24/31
f 28/18/32 27/21/32 39/26/32
f 35/21/33 34/18/33 46/27/33
f 32/15/34 31/22/34 43/28/34
f 29/17/35 28/18/35 40/27/35
f 36/19/36 35/21/36 47/26/36
f 26/19/37 25/20/37 37/29/37
f 33/17/38 32/15/38 44/24/38
f 50/30/37 49/32/37 61/31/37
f 42/24/39 41/16/39 53/33/39
f 37/29/40 48/25/40 60/30/40
f 39/26/41 38/25/41 50/30/41
f 46/27/42 45/16/42 57/33/42
f 43/28/43 42/24/43 54/23/43
f 40/27/44 39/26/44 51/34/44
f 47/26/45 46/27/45 58/35/45
f 44/24/46 43/28/46 55/36/46
f 41/16/47 40/27/47 52/35/47
f 48/25/48 47/26/48 59/34/48
f 38/25/49 37/29/49 49/32/49
f 64/37/50 72/39/50 68/38/50
f 57/33/38 56/23/38 68/38/38
f 54/23/15 53/33/15 65/40/15
f 49/32/28 60/30/28 72/39/28
f 51/34/29 50/30/29 62/39/29
f 58/35/30 57/33/30 69/40/30
f 55/36/31 54/23/31 66/38/31
f 52/35/32 51/34/32 63/41/32
f 59/34/33 58/35/33 70/37/33
f 56/23/34 55/36/34 67/42/34
f 53/33/35 52/35/35 64/37/35
f 60/30/36 59/34/36 71/41/36
f 2/1/1 3/2/1 4/4/1
f 4/4/2 5/5/2 6/6/2
f 6/6/3 7/7/3 8/8/3
f 8/8/4 9/9/4 10/10/4
f 10/10/5 11/11/5 12/12/5
f 12/12/6 13/13/6 14/14/6
f 14/14/7 15/11/7 16/12/7
f 16/12/8 17/9/8 18/10/8
f 18/10/9 19/7/9 20/8/9
f 20/8/10 21/5/10 22/6/10
f 6/6/11 2/1/11 4/4/11
f 2/1/11 22/6/11 24/4/11
f 22/6/11 18/10/11 20/8/11
f 18/10/11 14/14/11 16/12/11
f 14/14/11 10/10/11 12/12/11
f 10/10/11 6/6/11 8/8/11
f 6/6/11 22/6/11 2/1/11
f 22/6/11 14/14/11 18/10/11
f 14/14/11 6/6/11 10/10/11
f 22/6/12 23/2/12 24/4/12
f 24/4/13 1/3/13 2/1/13
f 13/13/14 30/15/14 31/22/14
f 30/15/15 41/16/15 42/24/15
f 11/11/16 29/17/16 30/15/16
f 9/9/17 28/18/17 29/17/17
f 1/3/18 36/19/18 25/20/18
f 3/2/19 25/20/19 26/19/19
f 7/7/20 27/21/20 28/18/20
f 23/2/21 35/21/21 36/19/21
f 5/5/22 26/19/22 27/21/22
f 21/5/23 34/18/23 35/21/23
f 19/7/24 33/17/24 34/18/24
f 17/9/25 32/15/25 33/17/25
f 15/11/26 31/22/26 32/15/26
f 45/16/27 56/23/27 57/33/27
f 25/20/28 48/25/28 37/29/28
f 27/21/29 38/25/29 39/26/29
f 34/18/30 45/16/30 46/27/30
f 31/22/31 42/24/31 43/28/31
f 28/18/32 39/26/32 40/27/32
f 35/21/33 46/27/33 47/26/33
f 32/15/34 43/28/34 44/24/34
f 29/17/35 40/27/35 41/16/35
f 36/19/36 47/26/36 48/25/36
f 26/19/37 37/29/37 38/25/37
f 33/17/38 44/24/38 45/16/38
f 50/30/37 61/31/37 62/39/37
f 42/24/39 53/33/39 54/23/39
f 37/29/40 60/30/40 49/32/40
f 39/26/41 50/30/41 51/34/41
f 46/27/42 57/33/42 58/35/42
f 43/28/43 54/23/43 55/36/43
f 40/27/44 51/34/44 52/35/44
f 47/26/45 58/35/45 59/34/45
f 44/24/46 55/36/46 56/23/46
f 41/16/47 52/35/47 53/33/47
f 48/25/48 59/34/48 60/30/48
f 38/25/49 49/32/49 50/30/49
f 72/39/50 62/39/50 61/31/50
f 62/39/50 64/37/50 63/41/50
f 64/37/50 66/38/50 65/40/50
f 66/38/50 68/38/50 67/42/50
f 68/38/50 70/37/50 69/40/50
f 70/37/50 72/39/50 71/41/50
f 72/39/50 64/37/50 62/39/50
f 64/37/50 68/38/50 66/38/50
f 68/38/50 72/39/50 70/37/50
f 57/33/38 68/38/38 69/40/38
f 54/23/15 65/40/15 66/38/15
f 49/32/28 72/39/28 61/31/28
f 51/34/29 62/39/29 63/41/29
f 58/35/30 69/40/30 70/37/30
f 55/36/31 66/38/31 67/42/31
f 52/35/32 63/41/32 64/37/32
f 59/34/33 70/37/33 71/41/33
f 56/23/34 67/42/34 68/38/34
f 53/33/35 64/37/35 65/40/35
f 60/30/36 71/41/36 72/39/36
