# Blender 4.4.0
# www.blender.org
mtllib PuzzleStand.mtl
o 円柱
v 0.000000 0.136534 -0.549557
v 0.000000 -0.000523 -0.671070
v 0.274779 0.136534 -0.475930
v 0.335535 -0.000523 -0.581164
v 0.475930 0.136534 -0.274779
v 0.581164 -0.000523 -0.335535
v 0.549557 0.136534 0.000000
v 0.671070 -0.000523 0.000000
v 0.475930 0.136534 0.274779
v 0.581164 -0.000523 0.335535
v 0.274779 0.136534 0.475930
v 0.335535 -0.000523 0.581164
v 0.000000 0.136534 0.549557
v 0.000000 -0.000523 0.671070
v -0.274779 0.136534 0.475930
v -0.335535 -0.000523 0.581164
v -0.475930 0.136534 0.274779
v -0.581164 -0.000523 0.335535
v -0.549557 0.136534 0.000000
v -0.671070 -0.000523 0.000000
v -0.475930 0.136534 -0.274779
v -0.581164 -0.000523 -0.335535
v -0.274779 0.136534 -0.475930
v -0.335535 -0.000523 -0.581164
v 0.000000 0.198122 -0.374426
v 0.187213 0.198122 -0.324263
v 0.324263 0.198122 -0.187213
v 0.374426 0.198122 0.000000
v 0.324263 0.198122 0.187213
v 0.187213 0.198122 0.324263
v 0.000000 0.198122 0.374426
v -0.187213 0.198122 0.324263
v -0.324263 0.198122 0.187213
v -0.374426 0.198122 0.000000
v -0.324263 0.198122 -0.187213
v -0.187213 0.198122 -0.324263
v 0.000000 1.631403 -0.374426
v 0.187213 1.631403 -0.324263
v 0.324263 1.631403 -0.187213
v 0.374426 1.631403 0.000000
v 0.324263 1.631403 0.187213
v 0.187213 1.631403 0.324263
v 0.000000 1.631403 0.374426
v -0.187213 1.631403 0.324263
v -0.324263 1.631403 0.187213
v -0.374426 1.631403 0.000000
v -0.324263 1.631403 -0.187213
v -0.187213 1.631403 -0.324263
v -0.000000 1.880962 -1.228531
v 0.614265 1.880962 -1.063939
v 1.063939 1.880962 -0.614266
v 1.228531 1.880962 0.000000
v 1.063939 1.880962 0.614266
v 0.614265 1.880962 1.063939
v -0.000000 1.880962 1.228531
v -0.614266 1.880962 1.063939
v -1.063939 1.880962 0.614266
v -1.228531 1.880962 0.000000
v -1.063939 1.880962 -0.614266
v -0.614266 1.880962 -1.063939
v -0.000000 1.975299 -1.228531
v 0.614265 1.975299 -1.063939
v 1.063939 1.975299 -0.614266
v 1.228531 1.975299 0.000000
v 1.063939 1.975299 0.614266
v 0.614265 1.975299 1.063939
v -0.000000 1.975299 1.228531
v -0.614266 1.975299 1.063939
v -1.063939 1.975299 0.614266
v -1.228531 1.975299 0.000000
v -1.063939 1.975299 -0.614266
v -0.614266 1.975299 -1.063939
vn 0.1966 0.6505 -0.7337
vn 0.5371 0.6505 -0.5371
vn 0.7337 0.6505 -0.1966
vn 0.7337 0.6505 0.1966
vn 0.5371 0.6505 0.5371
vn 0.1966 0.6505 0.7337
vn -0.1966 0.6505 0.7337
vn -0.5371 0.6505 0.5371
vn -0.7337 0.6505 0.1966
vn -0.7337 0.6505 -0.1966
vn -0.0000 -1.0000 -0.0000
vn -0.5371 0.6505 -0.5371
vn -0.1966 0.6505 -0.7337
vn 0.0885 0.9397 0.3304
vn 0.7071 -0.0000 0.7071
vn 0.2419 0.9397 0.2419
vn 0.3304 0.9397 0.0885
vn -0.0885 0.9397 -0.3304
vn 0.0885 0.9397 -0.3304
vn 0.3304 0.9397 -0.0885
vn -0.2419 0.9397 -0.2419
vn 0.2419 0.9397 -0.2419
vn -0.3304 0.9397 -0.0885
vn -0.3304 0.9397 0.0885
vn -0.2419 0.9397 0.2419
vn -0.0885 0.9397 0.3304
vn -0.2047 -0.9572 0.2047
vn -0.2588 -0.0000 -0.9659
vn 0.7071 -0.0000 -0.7071
vn -0.9659 -0.0000 0.2588
vn 0.2588 -0.0000 0.9659
vn 0.9659 -0.0000 -0.2588
vn -0.9659 -0.0000 -0.2588
vn -0.2588 -0.0000 0.9659
vn 0.9659 -0.0000 0.2588
vn -0.7071 -0.0000 -0.7071
vn 0.2588 -0.0000 -0.9659
vn -0.7071 -0.0000 0.7071
vn 0.2047 -0.9572 0.2047
vn -0.0749 -0.9572 -0.2797
vn 0.2047 -0.9572 -0.2047
vn -0.2797 -0.9572 0.0749
vn 0.0749 -0.9572 0.2797
vn 0.2797 -0.9572 -0.0749
vn -0.2797 -0.9572 -0.0749
vn -0.0749 -0.9572 0.2797
vn 0.2797 -0.9572 0.0749
vn -0.2047 -0.9572 -0.2047
vn 0.0749 -0.9572 -0.2797
vn -0.0000 1.0000 -0.0000
vt 1.000000 1.000000
vt 0.916667 0.500000
vt 1.000000 0.500000
vt 0.916667 1.000000
vt 0.833333 0.500000
vt 0.833333 1.000000
vt 0.750000 0.500000
vt 0.750000 1.000000
vt 0.666667 0.500000
vt 0.666667 1.000000
vt 0.583333 0.500000
vt 0.583333 1.000000
vt 0.500000 0.500000
vt 0.500000 1.000000
vt 0.416667 0.500000
vt 0.416667 1.000000
vt 0.333333 0.500000
vt 0.333333 1.000000
vt 0.250000 0.500000
vt 0.250000 1.000000
vt 0.166667 0.500000
vt 0.042154 0.370000
vt 0.250000 0.010000
vt 0.457846 0.370000
vt 0.166667 1.000000
vt 0.083333 0.500000
vt 0.083333 1.000000
vt 0.000000 0.500000
vt 0.990000 0.250000
vt 0.630000 0.042154
vt 0.630000 0.457846
vt 0.370000 0.457846
vt 0.250000 0.490000
vt 0.130000 0.457846
vt 0.010000 0.250000
vt 0.042154 0.130000
vt 0.130000 0.042154
vt 0.370000 0.042154
vt 0.457846 0.130000
vt 0.490000 0.250000
vt 0.000000 1.000000
vt 0.750000 0.490000
vt 0.870000 0.457846
vt 0.957846 0.370000
vt 0.957846 0.130000
vt 0.870000 0.042154
vt 0.750000 0.010000
vt 0.542154 0.130000
vt 0.510000 0.250000
vt 0.542154 0.370000
s 0
f 2/1/1 1/3/1 3/2/1
f 4/4/2 3/2/2 5/5/2
f 6/6/3 5/5/3 7/7/3
f 8/8/4 7/7/4 9/9/4
f 10/10/5 9/9/5 11/11/5
f 12/12/6 11/11/6 13/13/6
f 14/14/7 13/13/7 15/15/7
f 16/16/8 15/15/8 17/17/8
f 18/18/9 17/17/9 19/19/9
f 20/20/10 19/19/10 21/21/10
f 22/22/11 6/24/11 14/23/11
f 22/25/12 21/21/12 23/26/12
f 24/27/13 23/26/13 1/28/13
f 13/13/14 11/11/14 30/11/14
f 30/11/15 29/9/15 41/9/15
f 11/11/16 9/9/16 29/9/16
f 9/9/17 7/7/17 28/7/17
f 1/28/18 23/26/18 36/26/18
f 3/2/19 1/3/19 25/3/19
f 7/7/20 5/5/20 27/5/20
f 23/26/21 21/21/21 35/21/21
f 5/5/22 3/2/22 26/2/22
f 21/21/23 19/19/23 34/19/23
f 19/19/24 17/17/24 33/17/24
f 17/17/25 15/15/25 32/15/25
f 15/15/26 13/13/26 31/13/26
f 45/17/27 44/15/27 56/15/27
f 25/28/28 36/26/28 48/26/28
f 27/5/29 26/2/29 38/2/29
f 34/19/30 33/17/30 45/17/30
f 31/13/31 30/11/31 42/11/31
f 28/7/32 27/5/32 39/5/32
f 35/21/33 34/19/33 46/19/33
f 32/15/34 31/13/34 43/13/34
f 29/9/35 28/7/35 40/7/35
f 36/26/36 35/21/36 47/21/36
f 26/2/37 25/3/37 37/3/37
f 33/17/38 32/15/38 44/15/38
f 50/2/37 49/3/37 61/3/37
f 42/11/39 41/9/39 53/9/39
f 37/28/40 48/26/40 60/26/40
f 39/5/41 38/2/41 50/2/41
f 46/19/42 45/17/42 57/17/42
f 43/13/43 42/11/43 54/11/43
f 40/7/44 39/5/44 51/5/44
f 47/21/45 46/19/45 58/19/45
f 44/15/46 43/13/46 55/13/46
f 41/9/47 40/7/47 52/7/47
f 48/26/48 47/21/48 59/21/48
f 38/2/49 37/3/49 49/3/49
f 64/29/50 72/31/50 68/30/50
f 57/17/38 56/15/38 68/15/38
f 54/11/15 53/9/15 65/9/15
f 49/28/28 60/26/28 72/26/28
f 51/5/29 50/2/29 62/2/29
f 58/19/30 57/17/30 69/17/30
f 55/13/31 54/11/31 66/11/31
f 52/7/32 51/5/32 63/5/32
f 59/21/33 58/19/33 70/19/33
f 56/15/34 55/13/34 67/13/34
f 53/9/35 52/7/35 64/7/35
f 60/26/36 59/21/36 71/21/36
f 2/1/1 3/2/1 4/4/1
f 4/4/2 5/5/2 6/6/2
f 6/6/3 7/7/3 8/8/3
f 8/8/4 9/9/4 10/10/4
f 10/10/5 11/11/5 12/12/5
f 12/12/6 13/13/6 14/14/6
f 14/14/7 15/15/7 16/16/7
f 16/16/8 17/17/8 18/18/8
f 18/18/9 19/19/9 20/20/9
f 20/20/10 21/21/10 22/25/10
f 6/24/11 2/33/11 4/32/11
f 2/33/11 22/22/11 24/34/11
f 22/22/11 18/36/11 20/35/11
f 18/36/11 14/23/11 16/37/11
f 14/23/11 10/39/11 12/38/11
f 10/39/11 6/24/11 8/40/11
f 6/24/11 22/22/11 2/33/11
f 22/22/11 14/23/11 18/36/11
f 14/23/11 6/24/11 10/39/11
f 22/25/12 23/26/12 24/27/12
f 24/27/13 1/28/13 2/41/13
f 13/13/14 30/11/14 31/13/14
f 30/11/15 41/9/15 42/11/15
f 11/11/16 29/9/16 30/11/16
f 9/9/17 28/7/17 29/9/17
f 1/28/18 36/26/18 25/28/18
f 3/2/19 25/3/19 26/2/19
f 7/7/20 27/5/20 28/7/20
f 23/26/21 35/21/21 36/26/21
f 5/5/22 26/2/22 27/5/22
f 21/21/23 34/19/23 35/21/23
f 19/19/24 33/17/24 34/19/24
f 17/17/25 32/15/25 33/17/25
f 15/15/26 31/13/26 32/15/26
f 45/17/27 56/15/27 57/17/27
f 25/28/28 48/26/28 37/28/28
f 27/5/29 38/2/29 39/5/29
f 34/19/30 45/17/30 46/19/30
f 31/13/31 42/11/31 43/13/31
f 28/7/32 39/5/32 40/7/32
f 35/21/33 46/19/33 47/21/33
f 32/15/34 43/13/34 44/15/34
f 29/9/35 40/7/35 41/9/35
f 36/26/36 47/21/36 48/26/36
f 26/2/37 37/3/37 38/2/37
f 33/17/38 44/15/38 45/17/38
f 50/2/37 61/3/37 62/2/37
f 42/11/39 53/9/39 54/11/39
f 37/28/40 60/26/40 49/28/40
f 39/5/41 50/2/41 51/5/41
f 46/19/42 57/17/42 58/19/42
f 43/13/43 54/11/43 55/13/43
f 40/7/44 51/5/44 52/7/44
f 47/21/45 58/19/45 59/21/45
f 44/15/46 55/13/46 56/15/46
f 41/9/47 52/7/47 53/9/47
f 48/26/48 59/21/48 60/26/48
f 38/2/49 49/3/49 50/2/49
f 72/31/50 62/43/50 61/42/50
f 62/43/50 64/29/50 63/44/50
f 64/29/50 66/46/50 65/45/50
f 66/46/50 68/30/50 67/47/50
f 68/30/50 70/49/50 69/48/50
f 70/49/50 72/31/50 71/50/50
f 72/31/50 64/29/50 62/43/50
f 64/29/50 68/30/50 66/46/50
f 68/30/50 72/31/50 70/49/50
f 57/17/38 68/15/38 69/17/38
f 54/11/15 65/9/15 66/11/15
f 49/28/28 72/26/28 61/28/28
f 51/5/29 62/2/29 63/5/29
f 58/19/30 69/17/30 70/19/30
f 55/13/31 66/11/31 67/13/31
f 52/7/32 63/5/32 64/7/32
f 59/21/33 70/19/33 71/21/33
f 56/15/34 67/13/34 68/15/34
f 53/9/35 64/7/35 65/9/35
f 60/26/36 71/21/36 72/26/36
