# Blender 4.1.1
# www.blender.org
mtllib damageEffect.mtl
o Cube
v -1.137372 -0.093100 0.443253
v -1.137372 0.093100 0.443253
v 1.137372 -0.093100 0.443253
v 1.137372 0.093100 0.443253
v -1.137372 -0.093100 -0.443253
v -1.137372 0.093100 -0.443253
v 1.137372 -0.093100 -0.443253
v 1.137372 0.093100 -0.443253
v -0.471239 0.099095 -0.321614
v -0.000000 0.099095 -0.480284
v 0.471239 0.099095 -0.321614
v -0.471239 -0.099095 0.321614
v 0.000000 -0.099095 0.480284
v 0.471239 -0.099095 0.321614
v 0.471239 -0.099095 -0.321614
v -0.000000 -0.099095 -0.480284
v -0.471239 -0.099095 -0.321614
v 0.471239 0.099095 0.321614
v 0.000000 0.099095 0.480284
v -0.471239 0.099095 0.321614
v -1.088162 0.099095 0.173802
v -1.088162 0.099095 -0.173802
v 1.088162 -0.099095 0.173802
v 1.088162 -0.099095 -0.173802
v 1.088162 0.099095 -0.173802
v 1.088162 0.099095 0.173802
v -1.088162 -0.099095 -0.173802
v -1.088162 -0.099095 0.173802
v -0.471239 0.099095 0.107205
v -0.471239 0.099095 -0.107205
v -0.000000 0.099095 0.173802
v -0.000000 0.099095 -0.173802
v 0.471239 0.099095 0.107205
v 0.471239 0.099095 -0.107205
v -0.471239 -0.099095 -0.107205
v -0.471239 -0.099095 0.107205
v 0.000000 -0.099095 -0.173802
v 0.000000 -0.099095 0.173802
v 0.471239 -0.099095 -0.107205
v 0.471239 -0.099095 0.107205
v -1.267006 0.099095 0.000000
v 1.267006 -0.099095 -0.000000
v 1.267006 0.099095 -0.000000
v -1.267006 -0.099095 0.000000
v -0.471239 0.099095 0.000000
v -0.000000 0.099095 -0.000000
v 0.471239 0.099095 -0.000000
v -0.471239 -0.099095 0.000000
v 0.000000 -0.099095 0.000000
v 0.471239 -0.099095 -0.000000
vn -0.0000 -1.0000 -0.0000
vn 0.9837 -0.0000 0.1797
vn 0.1796 -0.0000 -0.9837
vn -0.0000 1.0000 -0.0000
vn -0.1796 -0.0000 0.9837
vn -0.9837 -0.0000 -0.1797
vn 0.1796 -0.0000 0.9837
vn -0.3191 -0.0000 0.9477
vn 0.3191 -0.0000 0.9477
vn -0.1796 -0.0000 -0.9837
vn 0.3191 -0.0000 -0.9477
vn -0.3191 -0.0000 -0.9477
vn -0.0051 -0.9998 0.0213
vn -0.0051 0.9998 -0.0213
vn -0.9837 -0.0000 0.1797
vn -0.6969 -0.0000 0.7171
vn 0.0051 0.9998 -0.0213
vn 0.9837 -0.0000 -0.1797
vn 0.6969 -0.0000 -0.7171
vn 0.0051 -0.9998 0.0213
vn 0.6969 -0.0000 0.7171
vn -0.6969 -0.0000 -0.7171
vn 0.0051 -0.9998 -0.0213
vn 0.0051 0.9998 0.0213
vn -0.0051 0.9998 0.0213
vn -0.0051 -0.9998 -0.0213
vt 0.758529 0.696040
vt 0.675210 0.758529
vt 0.675210 0.696040
vt 0.508572 0.925167
vt 0.258615 1.008486
vt 0.258615 0.925167
vt 0.508572 0.196126
vt 0.258615 0.258615
vt 0.258615 0.196126
vt 0.258615 0.696040
vt 0.175297 0.758529
vt 0.175297 0.696040
vt 0.508572 0.696040
vt 0.258615 0.758529
vt 0.508572 0.425253
vt 0.258615 0.508572
vt 0.258615 0.425253
vt 0.508572 0.508572
vt 0.258615 0.571061
vt 0.508572 0.571061
vt 0.258615 0.633551
vt 0.508572 0.633551
vt 0.175297 0.508572
vt 0.175297 0.571061
vt 0.175297 0.633551
vt 0.508572 0.008659
vt 0.258615 0.071148
vt 0.258615 0.008659
vt 0.508572 0.071148
vt 0.258615 0.133637
vt 0.508572 0.133637
vt 0.675210 0.508572
vt 0.758529 0.571061
vt 0.675210 0.571061
vt 0.675210 0.633551
vt 0.591891 0.633551
vt 0.633551 0.633551
vt 0.633551 0.696040
vt 0.633550 0.571061
vt 0.591891 0.508572
vt 0.633551 0.508572
vt 0.091978 0.633551
vt 0.008659 0.696040
vt 0.008659 0.633551
vt 0.133637 0.633551
vt 0.133637 0.696040
vt 0.008659 0.571061
vt 0.133637 0.571061
vt 0.091978 0.508572
vt 0.008659 0.508572
vt 0.133637 0.508572
vt 0.508572 0.258615
vt 0.258615 0.341934
vt 0.508572 0.383594
vt 0.258615 0.383594
vt 0.091978 0.758529
vt 0.008659 0.758529
vt 0.133637 0.758529
vt 0.508572 0.758529
vt 0.258615 0.841848
vt 0.508572 0.883507
vt 0.258615 0.883507
vt 0.591891 0.758529
vt 0.633551 0.758529
vt 0.591891 0.696040
vt 0.508572 0.841848
vt 0.091978 0.696040
vt 0.508572 0.341934
vt 0.091978 0.571061
vt 0.591891 0.571061
vt 0.758529 0.758529
vt 0.508572 1.008486
vt 0.758529 0.508572
vt 0.758529 0.633551
s 0
usemtl Material
f 15/1/1 24/2/1 39/3/1
f 24/4/2 8/5/2 25/6/2
f 17/7/3 6/8/3 9/9/3
f 18/10/4 26/11/4 33/12/4
f 14/13/5 4/14/5 18/10/5
f 28/15/6 2/16/6 21/17/6
f 1/18/7 20/19/7 2/16/7
f 12/20/8 19/21/8 20/19/8
f 13/22/9 18/10/9 19/21/9
f 21/23/4 20/19/4 29/24/4
f 20/19/4 31/25/4 29/24/4
f 31/25/4 18/10/4 33/12/4
f 7/26/10 11/27/10 8/28/10
f 15/29/11 10/30/11 11/27/11
f 16/31/12 9/9/12 10/30/12
f 27/32/1 17/33/1 35/34/1
f 17/33/1 37/35/1 35/34/1
f 37/35/1 15/1/1 39/3/1
f 38/36/1 14/13/1 13/22/1
f 49/37/1 39/3/1 50/38/1
f 12/20/1 38/36/1 13/22/1
f 35/34/1 49/37/1 48/39/1
f 28/40/13 12/20/13 1/18/13
f 27/32/1 48/39/1 44/41/1
f 32/42/4 11/43/4 10/44/4
f 46/45/4 33/12/4 47/46/4
f 9/47/4 32/42/4 10/44/4
f 29/24/4 46/45/4 45/48/4
f 22/49/14 9/47/14 6/50/14
f 21/23/4 45/48/4 41/51/4
f 5/52/15 22/53/15 6/8/15
f 44/54/16 21/17/16 41/55/16
f 11/43/17 25/56/17 8/57/17
f 47/46/4 26/11/4 43/58/4
f 3/59/18 26/60/18 4/14/18
f 42/61/19 25/6/19 43/62/19
f 14/13/20 23/63/20 3/59/20
f 50/38/1 24/2/1 42/64/1
f 50/38/1 23/63/1 40/65/1
f 23/66/21 43/62/21 26/60/21
f 47/46/4 25/56/4 34/67/4
f 27/68/22 41/55/22 22/53/22
f 22/49/4 45/48/4 30/69/4
f 30/69/4 46/45/4 32/42/4
f 46/45/4 34/67/4 32/42/4
f 28/40/1 48/39/1 36/70/1
f 36/70/1 49/37/1 38/36/1
f 49/37/1 40/65/1 38/36/1
f 15/1/23 7/71/23 24/2/23
f 24/4/2 7/72/2 8/5/2
f 17/7/3 5/52/3 6/8/3
f 18/10/24 4/14/24 26/11/24
f 14/13/5 3/59/5 4/14/5
f 28/15/6 1/18/6 2/16/6
f 1/18/7 12/20/7 20/19/7
f 12/20/8 13/22/8 19/21/8
f 13/22/9 14/13/9 18/10/9
f 21/23/25 2/16/25 20/19/25
f 20/19/4 19/21/4 31/25/4
f 31/25/4 19/21/4 18/10/4
f 7/26/10 15/29/10 11/27/10
f 15/29/11 16/31/11 10/30/11
f 16/31/12 17/7/12 9/9/12
f 27/32/26 5/73/26 17/33/26
f 17/33/1 16/74/1 37/35/1
f 37/35/1 16/74/1 15/1/1
f 38/36/1 40/65/1 14/13/1
f 49/37/1 37/35/1 39/3/1
f 12/20/1 36/70/1 38/36/1
f 35/34/1 37/35/1 49/37/1
f 28/40/1 36/70/1 12/20/1
f 27/32/1 35/34/1 48/39/1
f 32/42/4 34/67/4 11/43/4
f 46/45/4 31/25/4 33/12/4
f 9/47/4 30/69/4 32/42/4
f 29/24/4 31/25/4 46/45/4
f 22/49/4 30/69/4 9/47/4
f 21/23/4 29/24/4 45/48/4
f 5/52/15 27/68/15 22/53/15
f 44/54/16 28/15/16 21/17/16
f 11/43/4 34/67/4 25/56/4
f 47/46/4 33/12/4 26/11/4
f 3/59/18 23/66/18 26/60/18
f 42/61/19 24/4/19 25/6/19
f 14/13/1 40/65/1 23/63/1
f 50/38/1 39/3/1 24/2/1
f 50/38/1 42/64/1 23/63/1
f 23/66/21 42/61/21 43/62/21
f 47/46/4 43/58/4 25/56/4
f 27/68/22 44/54/22 41/55/22
f 22/49/4 41/51/4 45/48/4
f 30/69/4 45/48/4 46/45/4
f 46/45/4 47/46/4 34/67/4
f 28/40/1 44/41/1 48/39/1
f 36/70/1 48/39/1 49/37/1
f 49/37/1 50/38/1 40/65/1
