# Blender 4.2.2 LTS
# www.blender.org
mtllib TornadoRing2.mtl
o 円.001
v 1.913737 0.006717 0.159710
v 1.841537 0.006717 -0.167056
v 1.706976 0.006717 -0.473458
v 1.515224 0.006717 -0.747721
v 1.273651 0.006717 -0.979305
v 0.991539 0.006717 -1.159311
v 0.679731 0.006717 -1.280821
v 0.350209 0.006717 -1.339165
v 0.015636 0.006717 -1.332102
v -0.311130 0.006717 -1.259902
v -0.617532 0.006717 -1.125341
v -0.891795 0.006717 -0.933589
v -1.123379 0.006717 -0.692016
v -1.303385 0.006717 -0.409904
v -1.424895 0.006717 -0.098096
v -1.483239 0.006717 0.231426
v -1.476175 0.006717 0.565999
v -1.403976 0.006717 0.892765
v -1.269414 0.006717 1.199167
v -1.077663 0.006717 1.473430
v -0.836089 0.006717 1.705014
v -0.553978 0.006717 1.885020
v -0.242170 0.006717 2.006530
v 0.087352 0.006717 2.064874
v 0.421925 0.006717 2.057810
v 0.748691 0.006717 1.985611
v 1.055093 0.006717 1.851050
v 1.329356 0.006717 1.659298
v 1.560940 0.006717 1.417724
v 1.740946 0.006717 1.135613
v 1.862456 0.006717 0.823805
v 1.920800 0.006717 0.494283
v 2.179747 0.006717 0.127828
v 2.096216 0.006717 -0.250222
v 1.940537 0.006717 -0.604711
v 1.718691 0.006717 -0.922018
v 1.439204 0.006717 -1.189947
v 1.112818 0.006717 -1.398203
v 0.752074 0.006717 -1.538783
v 0.370836 0.006717 -1.606284
v -0.016246 0.006717 -1.598112
v -0.394296 0.006717 -1.514581
v -0.748785 0.006717 -1.358902
v -1.066092 0.006717 -1.137056
v -1.334021 0.006717 -0.857570
v -1.542277 0.006717 -0.531183
v -1.682857 0.006717 -0.170439
v -1.750358 0.006717 0.210799
v -1.742186 0.006717 0.597881
v -1.658655 0.006717 0.975931
v -1.502976 0.006717 1.330420
v -1.281130 0.006717 1.647727
v -1.001643 0.006717 1.915656
v -0.675257 0.006717 2.123912
v -0.314513 0.006717 2.264492
v 0.066725 0.006717 2.331993
v 0.453807 0.006717 2.323821
v 0.831857 0.006717 2.240290
v 1.186346 0.006717 2.084611
v 1.503653 0.006717 1.862765
v 1.771582 0.006717 1.583278
v 1.979838 0.006717 1.256892
v 2.120418 0.006717 0.896148
v 2.187919 0.006717 0.514909
vn -0.0000 1.0000 -0.0000
vt 0.000000 0.000000
s 0
f 14/1/1 45/1/1 46/1/1
f 27/1/1 60/1/1 28/1/1
f 14/1/1 47/1/1 15/1/1
f 1/1/1 34/1/1 2/1/1
f 28/1/1 61/1/1 29/1/1
f 15/1/1 48/1/1 16/1/1
f 2/1/1 35/1/1 3/1/1
f 29/1/1 62/1/1 30/1/1
f 17/1/1 48/1/1 49/1/1
f 4/1/1 35/1/1 36/1/1
f 30/1/1 63/1/1 31/1/1
f 17/1/1 50/1/1 18/1/1
f 4/1/1 37/1/1 5/1/1
f 31/1/1 64/1/1 32/1/1
f 18/1/1 51/1/1 19/1/1
f 6/1/1 37/1/1 38/1/1
f 1/1/1 64/1/1 33/1/1
f 19/1/1 52/1/1 20/1/1
f 6/1/1 39/1/1 7/1/1
f 21/1/1 52/1/1 53/1/1
f 8/1/1 39/1/1 40/1/1
f 21/1/1 54/1/1 22/1/1
f 9/1/1 40/1/1 41/1/1
f 22/1/1 55/1/1 23/1/1
f 9/1/1 42/1/1 10/1/1
f 23/1/1 56/1/1 24/1/1
f 10/1/1 43/1/1 11/1/1
f 25/1/1 56/1/1 57/1/1
f 12/1/1 43/1/1 44/1/1
f 25/1/1 58/1/1 26/1/1
f 12/1/1 45/1/1 13/1/1
f 26/1/1 59/1/1 27/1/1
f 14/1/1 13/1/1 45/1/1
f 27/1/1 59/1/1 60/1/1
f 14/1/1 46/1/1 47/1/1
f 1/1/1 33/1/1 34/1/1
f 28/1/1 60/1/1 61/1/1
f 15/1/1 47/1/1 48/1/1
f 2/1/1 34/1/1 35/1/1
f 29/1/1 61/1/1 62/1/1
f 17/1/1 16/1/1 48/1/1
f 4/1/1 3/1/1 35/1/1
f 30/1/1 62/1/1 63/1/1
f 17/1/1 49/1/1 50/1/1
f 4/1/1 36/1/1 37/1/1
f 31/1/1 63/1/1 64/1/1
f 18/1/1 50/1/1 51/1/1
f 6/1/1 5/1/1 37/1/1
f 1/1/1 32/1/1 64/1/1
f 19/1/1 51/1/1 52/1/1
f 6/1/1 38/1/1 39/1/1
f 21/1/1 20/1/1 52/1/1
f 8/1/1 7/1/1 39/1/1
f 21/1/1 53/1/1 54/1/1
f 9/1/1 8/1/1 40/1/1
f 22/1/1 54/1/1 55/1/1
f 9/1/1 41/1/1 42/1/1
f 23/1/1 55/1/1 56/1/1
f 10/1/1 42/1/1 43/1/1
f 25/1/1 24/1/1 56/1/1
f 12/1/1 11/1/1 43/1/1
f 25/1/1 57/1/1 58/1/1
f 12/1/1 44/1/1 45/1/1
f 26/1/1 58/1/1 59/1/1
