# Blender 4.1.1
# www.blender.org
mtllib gageName.mtl
o 立方体.002
v 0.026806 -0.689273 -0.050553
v 0.145872 -0.529069 -0.050553
v 0.232340 -0.354831 -0.050553
v 0.294164 -0.145849 -0.050553
v 0.290658 0.123508 -0.050553
v 0.151667 -0.702816 -0.050553
v 0.270733 -0.542613 -0.050553
v 0.357200 -0.368375 -0.050553
v 0.419025 -0.159393 -0.050553
v 0.415518 0.109964 -0.050553
vn -0.0000 -0.0000 -1.0000
vt 0.149640 0.679230
vt 0.004896 0.463022
vt 0.143202 0.434143
vt 0.108648 0.995104
vt 0.011334 0.708109
vt 0.175200 0.217673
vt 0.108648 0.033775
vt 0.246954 0.004896
vt 0.036894 0.246551
vt 0.246954 0.966225
s 0
usemtl マテリアル.003
f 4/1/1 8/2/1 3/3/1
f 4/1/1 10/4/1 9/5/1
f 2/6/1 6/7/1 1/8/1
f 3/3/1 7/9/1 2/6/1
f 4/1/1 9/5/1 8/2/1
f 4/1/1 5/10/1 10/4/1
f 2/6/1 7/9/1 6/7/1
f 3/3/1 8/2/1 7/9/1
