# Blender 4.1.1
# www.blender.org
mtllib playerHp.mtl
o 円柱.001
v 0.109230 0.000911 -0.254430
v 0.138319 0.000911 -0.251565
v 0.166291 0.000911 -0.243079
v 0.192070 0.000911 -0.229300
v 0.214666 0.000911 -0.210756
v 0.233210 0.000911 -0.188161
v 0.246989 0.000911 -0.162382
v 0.255474 0.000911 -0.134410
v 0.258339 0.000911 -0.105320
v 0.255474 0.000911 -0.076230
v 0.246989 0.000911 -0.048258
v 0.233210 0.000911 -0.022479
v 0.214666 0.000911 0.000116
v 0.003793 0.000911 -0.210756
v 0.026389 0.000911 -0.229300
v 0.052168 0.000911 -0.243079
v 0.080140 0.000911 -0.251565
v -0.207457 0.000941 -0.000000
v 0.003459 0.000941 -0.210916
v 0.003459 0.000941 0.210916
v 0.214375 0.000941 -0.000000
v -0.102312 0.000911 -0.254430
v -0.073222 0.000911 -0.251565
v -0.045250 0.000911 -0.243079
v -0.019471 0.000911 -0.229300
v 0.003124 0.000911 -0.210756
v -0.207748 0.000911 0.000116
v -0.226292 0.000911 -0.022479
v -0.240071 0.000911 -0.048258
v -0.248556 0.000911 -0.076230
v -0.251421 0.000911 -0.105320
v -0.248556 0.000911 -0.134410
v -0.240071 0.000911 -0.162382
v -0.226292 0.000911 -0.188161
v -0.207748 0.000911 -0.210756
v -0.185153 0.000911 -0.229300
v -0.159374 0.000911 -0.243079
v -0.131402 0.000911 -0.251565
vn -0.0000 1.0000 -0.0000
vt 0.167640 0.968892
vt 0.125236 0.951308
vt 0.226495 0.897236
vt 0.124930 0.781391
vt 0.124904 0.951071
vt 0.040077 0.866218
vt 0.082649 0.968845
vt 0.022545 0.908993
vt 0.040023 0.866545
vt 0.190595 0.964336
vt 0.179342 0.967744
vt 0.200966 0.958797
vt 0.155939 0.967735
vt 0.144689 0.964317
vt 0.134322 0.958770
vt 0.210093 0.866520
vt 0.217548 0.875612
vt 0.223087 0.885983
vt 0.227643 0.908938
vt 0.226486 0.920639
vt 0.223068 0.931889
vt 0.217521 0.942256
vt 0.210058 0.951342
vt 0.209757 0.866244
vt 0.105592 0.964231
vt 0.094348 0.967668
vt 0.115950 0.958667
vt 0.070946 0.967717
vt 0.059687 0.964328
vt 0.049306 0.958807
vt 0.040201 0.951367
vt 0.032723 0.942294
vt 0.027159 0.931936
vt 0.023722 0.920692
vt 0.023672 0.897289
vt 0.027062 0.886031
vt 0.032583 0.875650
vt 0.125023 0.951189
s 0
usemtl マテリアル.005
f 1/1/1 14/2/1 10/3/1
f 20/4/1 19/5/1 18/6/1
f 22/7/1 31/8/1 27/9/1
f 3/10/1 2/11/1 4/12/1
f 2/11/1 1/1/1 4/12/1
f 1/1/1 17/13/1 14/2/1
f 17/13/1 16/14/1 14/2/1
f 16/14/1 15/15/1 14/2/1
f 14/2/1 13/16/1 10/3/1
f 13/16/1 12/17/1 10/3/1
f 12/17/1 11/18/1 10/3/1
f 10/3/1 9/19/1 8/20/1
f 8/20/1 7/21/1 6/22/1
f 6/22/1 5/23/1 4/12/1
f 10/3/1 8/20/1 1/1/1
f 8/20/1 6/22/1 1/1/1
f 6/22/1 4/12/1 1/1/1
f 20/4/1 21/24/1 19/5/1
f 24/25/1 23/26/1 25/27/1
f 23/26/1 22/7/1 25/27/1
f 22/7/1 38/28/1 37/29/1
f 37/29/1 36/30/1 22/7/1
f 36/30/1 35/31/1 22/7/1
f 35/31/1 34/32/1 33/33/1
f 33/33/1 32/34/1 31/8/1
f 31/8/1 30/35/1 27/9/1
f 30/35/1 29/36/1 27/9/1
f 29/36/1 28/37/1 27/9/1
f 27/9/1 26/38/1 25/27/1
f 35/31/1 33/33/1 22/7/1
f 33/33/1 31/8/1 22/7/1
f 27/9/1 25/27/1 22/7/1
