# Blender 4.3.2
# www.blender.org
mtllib Wall.mtl
o 平面.001
v 69.999992 87.771439 -70.000000
v 69.999992 -1.000000 -70.000000
v 70.000008 87.771439 70.000000
v 70.000008 -1.000000 70.000000
vn -1.0000 -0.0000 -0.0000
vt 1.000000 0.000000
vt 0.000000 1.000000
vt 0.000000 0.000000
vt 1.000000 1.000000
s 0
f 2/1/1 3/2/1 1/3/1
f 2/1/1 4/4/1 3/2/1
o 平面.002
v 70.000000 87.771439 70.000000
v 70.000000 -1.000000 70.000000
v -70.000000 87.771439 70.000000
v -70.000000 -1.000000 70.000000
vn -0.0000 -0.0000 -1.0000
vt 1.000000 0.000000
vt 0.000000 1.000000
vt 0.000000 0.000000
vt 1.000000 1.000000
s 0
f 6/5/2 7/6/2 5/7/2
f 6/5/2 8/8/2 7/6/2
o 平面.003
v -70.000000 87.771439 70.000000
v -70.000000 -1.000000 70.000000
v -70.000000 87.771439 -70.000000
v -70.000000 -1.000000 -70.000000
vn 1.0000 -0.0000 -0.0000
vt 1.000000 0.000000
vt 0.000000 1.000000
vt 0.000000 0.000000
vt 1.000000 1.000000
s 0
f 10/9/3 11/10/3 9/11/3
f 10/9/3 12/12/3 11/10/3
o 平面.004
v -70.000000 87.771439 -70.000000
v -70.000000 -1.000000 -70.000000
v 70.000000 87.771439 -70.000000
v 70.000000 -1.000000 -70.000000
vn -0.0000 -0.0000 1.0000
vt 1.000000 0.000000
vt 0.000000 1.000000
vt 0.000000 0.000000
vt 1.000000 1.000000
s 0
f 14/13/4 15/14/4 13/15/4
f 14/13/4 16/16/4 15/14/4
o 立方体
v -70.000000 85.799492 70.000000
v -70.000000 89.799492 70.000000
v -70.000000 85.799492 -70.000000
v -70.000000 89.799492 -70.000000
v 70.000000 85.799492 70.000000
v 70.000000 89.799492 70.000000
v 70.000000 85.799492 -70.000000
v 70.000000 89.799492 -70.000000
vn -1.0000 -0.0000 -0.0000
vn -0.0000 -0.0000 -1.0000
vn 1.0000 -0.0000 -0.0000
vn -0.0000 -0.0000 1.0000
vn -0.0000 -1.0000 -0.0000
vn -0.0000 1.0000 -0.0000
vt 0.625000 0.000000
vt 0.375000 0.250000
vt 0.375000 0.000000
vt 0.625000 0.250000
vt 0.375000 0.500000
vt 0.625000 0.500000
vt 0.375000 0.750000
vt 0.625000 0.750000
vt 0.375000 1.000000
vt 0.125000 0.750000
vt 0.125000 0.500000
vt 0.875000 0.500000
vt 0.625000 1.000000
vt 0.875000 0.750000
s 0
f 18/17/5 19/18/5 17/19/5
f 20/20/6 23/21/6 19/18/6
f 24/22/7 21/23/7 23/21/7
f 22/24/8 17/25/8 21/23/8
f 23/21/9 17/26/9 19/27/9
f 20/28/10 22/24/10 24/22/10
f 18/17/5 20/20/5 19/18/5
f 20/20/6 24/22/6 23/21/6
f 24/22/7 22/24/7 21/23/7
f 22/24/8 18/29/8 17/25/8
f 23/21/9 21/23/9 17/26/9
f 20/28/10 18/30/10 22/24/10
