# Blender 4.1.1
# www.blender.org
mtllib player.mtl
o 立方体
v 0.121208 1.063059 3.221137
v 0.121208 1.063059 3.463553
v 0.121208 0.820643 3.221137
v 0.121208 0.820643 3.463553
v -0.121208 1.063059 3.221137
v -0.121208 1.063059 3.463553
v -0.121208 0.820643 3.221137
v -0.121208 0.820643 3.463553
v -0.541923 -0.497844 2.654374
v -0.541923 -0.497844 1.102558
v -0.541923 0.497844 2.654374
v -0.541923 0.497844 1.102558
v 0.541923 -0.497844 2.654374
v 0.541923 -0.497844 1.102558
v 0.541923 0.497844 2.654374
v 0.541923 0.497844 1.102558
v 0.660678 0.000000 0.932529
v -0.000000 -0.606940 0.932529
v -0.660678 -0.606940 1.878466
v 0.660678 0.606940 1.878466
v -0.660678 0.606940 1.878466
v 0.660678 -0.606940 1.878466
v 0.000000 0.606940 2.824403
v -0.660678 0.000000 2.824403
v 0.000000 0.606940 0.669359
v 0.660678 0.000000 2.824403
v -0.000000 -0.606940 2.824403
v -0.660678 0.000000 0.932529
v 0.000000 0.000000 3.181225
v -0.000000 0.835887 1.878466
v 0.909896 0.000000 1.878466
v 0.000000 -0.795177 0.121831
v -0.909896 0.000000 1.878466
v -0.000000 -0.712740 1.878466
v -0.562232 -0.562232 3.904768
v -0.562232 -0.562232 2.780303
v -0.562232 0.562232 3.904768
v -0.562232 0.562232 2.780303
v 0.562232 -0.562232 3.904768
v 0.562232 -0.562232 2.780303
v 0.562232 0.562232 3.904768
v 0.562232 0.562232 2.780303
v 0.685437 0.000000 2.657098
v -0.000000 -0.685437 2.657098
v -0.685437 -0.685438 3.342535
v 0.685437 0.685438 3.342535
v -0.685437 0.685438 3.342535
v 0.685437 -0.685437 3.342535
v 0.000000 0.685438 4.027973
v -0.685437 0.000000 4.027973
v 0.000000 0.685438 2.657098
v 0.685437 0.000000 4.027973
v -0.000000 -0.685437 4.027973
v -0.685437 0.000000 2.657098
v 0.000000 0.000000 4.286530
v -0.000000 0.943995 3.342535
v 0.943995 0.000000 3.342535
v 0.000000 0.000000 2.398540
v -0.943995 0.000000 3.342535
v -0.000000 -0.943995 3.342535
vn 1.0000 -0.0000 -0.0000
vn -0.0000 -1.0000 -0.0000
vn -1.0000 -0.0000 -0.0000
vn -0.0000 1.0000 -0.0000
vn -0.0000 -0.0000 -1.0000
vn -0.0000 -0.0000 1.0000
vn -0.3948 -0.4297 0.8121
vn 0.3948 -0.4297 0.8121
vn 0.3948 0.4297 0.8121
vn -0.3948 0.4297 0.8121
vn -0.3251 0.9289 -0.1776
vn -0.2915 0.9346 0.2036
vn 0.2915 0.9346 0.2036
vn 0.3251 0.9289 -0.1776
vn 0.9156 0.3384 -0.2171
vn 0.9156 0.3384 0.2171
vn 0.9156 -0.3384 0.2171
vn 0.9156 -0.3384 -0.2171
vn 0.6690 -0.7282 -0.1489
vn -0.6690 -0.7282 -0.1489
vn -0.5881 0.3177 -0.7438
vn 0.5881 0.3177 -0.7438
vn -0.9156 -0.3384 -0.2171
vn -0.9156 -0.3384 0.2171
vn -0.9156 0.3384 0.2171
vn -0.9156 0.3384 -0.2171
vn 0.1927 -0.9720 -0.1346
vn 0.1927 -0.9720 0.1346
vn -0.1927 -0.9720 0.1346
vn -0.1927 -0.9720 -0.1346
vn -0.3061 -0.3061 0.9015
vn 0.3061 -0.3061 0.9015
vn 0.3061 0.3061 0.9015
vn -0.3061 0.3061 0.9015
vn -0.3061 0.9015 -0.3061
vn -0.3061 0.9015 0.3061
vn 0.3061 0.9015 0.3061
vn 0.3061 0.9015 -0.3061
vn 0.9015 0.3061 -0.3061
vn 0.9015 0.3061 0.3061
vn 0.9015 -0.3061 0.3061
vn 0.9015 -0.3061 -0.3061
vn 0.3061 -0.3061 -0.9015
vn -0.3061 -0.3061 -0.9015
vn -0.3061 0.3061 -0.9015
vn 0.3061 0.3061 -0.9015
vn -0.9015 -0.3061 -0.3061
vn -0.9015 -0.3061 0.3061
vn -0.9015 0.3061 0.3061
vn -0.9015 0.3061 -0.3061
vn 0.3061 -0.9015 -0.3061
vn 0.3061 -0.9015 0.3061
vn -0.3061 -0.9015 0.3061
vn -0.3061 -0.9015 -0.3061
vt 0.375000 0.000000
vt 0.625000 0.000000
vt 0.625000 0.250000
vt 0.375000 0.250000
vt 0.625000 0.500000
vt 0.375000 0.500000
vt 0.625000 0.750000
vt 0.375000 0.750000
vt 0.625000 1.000000
vt 0.375000 1.000000
vt 0.125000 0.500000
vt 0.125000 0.750000
vt 0.875000 0.500000
vt 0.875000 0.750000
vt 0.000000 0.000000
s 0
usemtl Material.001
f 1/1/1 2/2/1 4/3/1 3/4/1
f 3/4/2 4/3/2 8/5/2 7/6/2
f 7/6/3 8/5/3 6/7/3 5/8/3
f 5/8/4 6/7/4 2/9/4 1/10/4
f 3/11/5 7/6/5 5/8/5 1/12/5
f 8/5/6 4/13/6 2/14/6 6/7/6
f 9/15/7 27/15/7 29/15/7 24/15/7
f 27/15/8 13/15/8 26/15/8 29/15/8
f 29/15/9 26/15/9 15/15/9 23/15/9
f 24/15/10 29/15/10 23/15/10 11/15/10
f 12/15/11 21/15/11 30/15/11 25/15/11
f 21/15/12 11/15/12 23/15/12 30/15/12
f 30/15/13 23/15/13 15/15/13 20/15/13
f 25/15/14 30/15/14 20/15/14 16/15/14
f 16/15/15 20/15/15 31/15/15 17/15/15
f 20/15/16 15/15/16 26/15/16 31/15/16
f 31/15/17 26/15/17 13/15/17 22/15/17
f 17/15/18 31/15/18 22/15/18 14/15/18
f 14/15/19 18/15/19 32/15/19 17/15/19
f 18/15/20 10/15/20 28/15/20 32/15/20
f 32/15/21 28/15/21 12/15/21 25/15/21
f 17/15/22 32/15/22 25/15/22 16/15/22
f 10/15/23 19/15/23 33/15/23 28/15/23
f 19/15/24 9/15/24 24/15/24 33/15/24
f 33/15/25 24/15/25 11/15/25 21/15/25
f 28/15/26 33/15/26 21/15/26 12/15/26
f 14/15/27 22/15/27 34/15/27 18/15/27
f 22/15/28 13/15/28 27/15/28 34/15/28
f 34/15/29 27/15/29 9/15/29 19/15/29
f 18/15/30 34/15/30 19/15/30 10/15/30
usemtl Material
f 35/15/31 53/15/31 55/15/31 50/15/31
f 53/15/32 39/15/32 52/15/32 55/15/32
f 55/15/33 52/15/33 41/15/33 49/15/33
f 50/15/34 55/15/34 49/15/34 37/15/34
f 38/15/35 47/15/35 56/15/35 51/15/35
f 47/15/36 37/15/36 49/15/36 56/15/36
f 56/15/37 49/15/37 41/15/37 46/15/37
f 51/15/38 56/15/38 46/15/38 42/15/38
f 42/15/39 46/15/39 57/15/39 43/15/39
f 46/15/40 41/15/40 52/15/40 57/15/40
f 57/15/41 52/15/41 39/15/41 48/15/41
f 43/15/42 57/15/42 48/15/42 40/15/42
f 40/15/43 44/15/43 58/15/43 43/15/43
f 44/15/44 36/15/44 54/15/44 58/15/44
f 58/15/45 54/15/45 38/15/45 51/15/45
f 43/15/46 58/15/46 51/15/46 42/15/46
f 36/15/47 45/15/47 59/15/47 54/15/47
f 45/15/48 35/15/48 50/15/48 59/15/48
f 59/15/49 50/15/49 37/15/49 47/15/49
f 54/15/50 59/15/50 47/15/50 38/15/50
f 40/15/51 48/15/51 60/15/51 44/15/51
f 48/15/52 39/15/52 53/15/52 60/15/52
f 60/15/53 53/15/53 35/15/53 45/15/53
f 44/15/54 60/15/54 45/15/54 36/15/54
