{
	"asset":{
		"generator":"Khronos glTF Blender I/O v4.2.70",
		"version":"2.0"
	},
	"scene":0,
	"scenes":[
		{
			"name":"Scene",
			"nodes":[
				7
			]
		}
	],
	"nodes":[
		{
			"name":"\u30dc\u30fc\u30f3",
			"rotation":[
				0.03042875975370407,
				-3.2569047903052706e-07,
				-9.91493909197061e-09,
				0.99953693151474
			],
			"translation":[
				0.9714248776435852,
				0.9818180799484253,
				0.903550386428833
			]
		},
		{
			"name":"\u30dc\u30fc\u30f3.001",
			"rotation":[
				0.03042875975370407,
				-8.023067152862495e-07,
				-2.4424487321539345e-08,
				0.99953693151474
			],
			"translation":[
				0.02189723402261734,
				0.9818180799484253,
				0.903550386428833
			]
		},
		{
			"name":"\u30dc\u30fc\u30f3.002",
			"rotation":[
				0.03042875975370407,
				-8.023067152862495e-07,
				-2.4424487321539345e-08,
				0.99953693151474
			],
			"translation":[
				-0.9867727756500244,
				0.9818180799484253,
				0.903550386428833
			]
		},
		{
			"name":"\u30dc\u30fc\u30f3.003",
			"rotation":[
				0.03042876161634922,
				-3.2569047903052706e-07,
				-9.914941756505868e-09,
				0.99953693151474
			],
			"translation":[
				1.0322513580322266,
				0.9852868318557739,
				-0.9491996765136719
			]
		},
		{
			"name":"\u30dc\u30fc\u30f3.004",
			"rotation":[
				0.03042876161634922,
				-8.023067152862495e-07,
				-2.4424490874253024e-08,
				0.99953693151474
			],
			"translation":[
				0.08272382616996765,
				0.9852868318557739,
				-0.9491996765136719
			]
		},
		{
			"name":"\u30dc\u30fc\u30f3.005",
			"rotation":[
				0.03042876161634922,
				-8.023067152862495e-07,
				-2.4424490874253024e-08,
				0.99953693151474
			],
			"translation":[
				-0.9259462356567383,
				0.9852868318557739,
				-0.9491996765136719
			]
		},
		{
			"mesh":0,
			"name":"\u5e73\u9762.001",
			"skin":0
		},
		{
			"children":[
				6,
				0,
				1,
				2,
				3,
				4,
				5
			],
			"name":"\u30a2\u30fc\u30de\u30c1\u30e5\u30a2.001"
		}
	],
	"animations":[
		{
			"channels":[
				{
					"sampler":0,
					"target":{
						"node":0,
						"path":"translation"
					}
				},
				{
					"sampler":1,
					"target":{
						"node":0,
						"path":"rotation"
					}
				},
				{
					"sampler":2,
					"target":{
						"node":0,
						"path":"scale"
					}
				},
				{
					"sampler":3,
					"target":{
						"node":1,
						"path":"translation"
					}
				},
				{
					"sampler":4,
					"target":{
						"node":1,
						"path":"rotation"
					}
				},
				{
					"sampler":5,
					"target":{
						"node":1,
						"path":"scale"
					}
				},
				{
					"sampler":6,
					"target":{
						"node":2,
						"path":"translation"
					}
				},
				{
					"sampler":7,
					"target":{
						"node":2,
						"path":"rotation"
					}
				},
				{
					"sampler":8,
					"target":{
						"node":2,
						"path":"scale"
					}
				},
				{
					"sampler":9,
					"target":{
						"node":3,
						"path":"translation"
					}
				},
				{
					"sampler":10,
					"target":{
						"node":3,
						"path":"rotation"
					}
				},
				{
					"sampler":11,
					"target":{
						"node":3,
						"path":"scale"
					}
				},
				{
					"sampler":12,
					"target":{
						"node":4,
						"path":"translation"
					}
				},
				{
					"sampler":13,
					"target":{
						"node":4,
						"path":"rotation"
					}
				},
				{
					"sampler":14,
					"target":{
						"node":4,
						"path":"scale"
					}
				},
				{
					"sampler":15,
					"target":{
						"node":5,
						"path":"translation"
					}
				},
				{
					"sampler":16,
					"target":{
						"node":5,
						"path":"rotation"
					}
				},
				{
					"sampler":17,
					"target":{
						"node":5,
						"path":"scale"
					}
				}
			],
			"name":"\u30a2\u30fc\u30de\u30c1\u30e5\u30a2.001\u30a2\u30af\u30b7\u30e7\u30f3",
			"samplers":[
				{
					"input":7,
					"interpolation":"LINEAR",
					"output":8
				},
				{
					"input":7,
					"interpolation":"LINEAR",
					"output":9
				},
				{
					"input":7,
					"interpolation":"LINEAR",
					"output":10
				},
				{
					"input":7,
					"interpolation":"LINEAR",
					"output":11
				},
				{
					"input":7,
					"interpolation":"LINEAR",
					"output":12
				},
				{
					"input":7,
					"interpolation":"LINEAR",
					"output":13
				},
				{
					"input":7,
					"interpolation":"LINEAR",
					"output":14
				},
				{
					"input":7,
					"interpolation":"LINEAR",
					"output":15
				},
				{
					"input":7,
					"interpolation":"LINEAR",
					"output":16
				},
				{
					"input":7,
					"interpolation":"LINEAR",
					"output":17
				},
				{
					"input":7,
					"interpolation":"LINEAR",
					"output":18
				},
				{
					"input":7,
					"interpolation":"LINEAR",
					"output":19
				},
				{
					"input":7,
					"interpolation":"LINEAR",
					"output":20
				},
				{
					"input":7,
					"interpolation":"LINEAR",
					"output":21
				},
				{
					"input":7,
					"interpolation":"LINEAR",
					"output":22
				},
				{
					"input":7,
					"interpolation":"LINEAR",
					"output":23
				},
				{
					"input":7,
					"interpolation":"LINEAR",
					"output":24
				},
				{
					"input":7,
					"interpolation":"LINEAR",
					"output":25
				}
			]
		},
		{
			"channels":[
				{
					"sampler":0,
					"target":{
						"node":0,
						"path":"translation"
					}
				},
				{
					"sampler":1,
					"target":{
						"node":0,
						"path":"rotation"
					}
				},
				{
					"sampler":2,
					"target":{
						"node":0,
						"path":"scale"
					}
				},
				{
					"sampler":3,
					"target":{
						"node":1,
						"path":"translation"
					}
				},
				{
					"sampler":4,
					"target":{
						"node":1,
						"path":"rotation"
					}
				},
				{
					"sampler":5,
					"target":{
						"node":1,
						"path":"scale"
					}
				},
				{
					"sampler":6,
					"target":{
						"node":2,
						"path":"translation"
					}
				},
				{
					"sampler":7,
					"target":{
						"node":2,
						"path":"rotation"
					}
				},
				{
					"sampler":8,
					"target":{
						"node":2,
						"path":"scale"
					}
				},
				{
					"sampler":9,
					"target":{
						"node":3,
						"path":"translation"
					}
				},
				{
					"sampler":10,
					"target":{
						"node":3,
						"path":"rotation"
					}
				},
				{
					"sampler":11,
					"target":{
						"node":3,
						"path":"scale"
					}
				},
				{
					"sampler":12,
					"target":{
						"node":4,
						"path":"translation"
					}
				},
				{
					"sampler":13,
					"target":{
						"node":4,
						"path":"rotation"
					}
				},
				{
					"sampler":14,
					"target":{
						"node":4,
						"path":"scale"
					}
				},
				{
					"sampler":15,
					"target":{
						"node":5,
						"path":"translation"
					}
				},
				{
					"sampler":16,
					"target":{
						"node":5,
						"path":"rotation"
					}
				},
				{
					"sampler":17,
					"target":{
						"node":5,
						"path":"scale"
					}
				}
			],
			"name":"\u30a2\u30fc\u30de\u30c1\u30e5\u30a2\u30a2\u30af\u30b7\u30e7\u30f3",
			"samplers":[
				{
					"input":26,
					"interpolation":"STEP",
					"output":27
				},
				{
					"input":26,
					"interpolation":"STEP",
					"output":28
				},
				{
					"input":26,
					"interpolation":"STEP",
					"output":29
				},
				{
					"input":26,
					"interpolation":"STEP",
					"output":30
				},
				{
					"input":26,
					"interpolation":"STEP",
					"output":31
				},
				{
					"input":26,
					"interpolation":"STEP",
					"output":32
				},
				{
					"input":26,
					"interpolation":"STEP",
					"output":33
				},
				{
					"input":26,
					"interpolation":"STEP",
					"output":34
				},
				{
					"input":26,
					"interpolation":"STEP",
					"output":35
				},
				{
					"input":26,
					"interpolation":"STEP",
					"output":36
				},
				{
					"input":26,
					"interpolation":"STEP",
					"output":37
				},
				{
					"input":26,
					"interpolation":"STEP",
					"output":38
				},
				{
					"input":26,
					"interpolation":"STEP",
					"output":39
				},
				{
					"input":26,
					"interpolation":"STEP",
					"output":40
				},
				{
					"input":26,
					"interpolation":"STEP",
					"output":41
				},
				{
					"input":26,
					"interpolation":"STEP",
					"output":42
				},
				{
					"input":26,
					"interpolation":"STEP",
					"output":43
				},
				{
					"input":26,
					"interpolation":"STEP",
					"output":44
				}
			]
		},
		{
			"channels":[
				{
					"sampler":0,
					"target":{
						"node":0,
						"path":"translation"
					}
				},
				{
					"sampler":1,
					"target":{
						"node":0,
						"path":"rotation"
					}
				},
				{
					"sampler":2,
					"target":{
						"node":0,
						"path":"scale"
					}
				},
				{
					"sampler":3,
					"target":{
						"node":1,
						"path":"translation"
					}
				},
				{
					"sampler":4,
					"target":{
						"node":1,
						"path":"rotation"
					}
				},
				{
					"sampler":5,
					"target":{
						"node":1,
						"path":"scale"
					}
				},
				{
					"sampler":6,
					"target":{
						"node":2,
						"path":"translation"
					}
				},
				{
					"sampler":7,
					"target":{
						"node":2,
						"path":"rotation"
					}
				},
				{
					"sampler":8,
					"target":{
						"node":2,
						"path":"scale"
					}
				},
				{
					"sampler":9,
					"target":{
						"node":3,
						"path":"translation"
					}
				},
				{
					"sampler":10,
					"target":{
						"node":3,
						"path":"rotation"
					}
				},
				{
					"sampler":11,
					"target":{
						"node":3,
						"path":"scale"
					}
				},
				{
					"sampler":12,
					"target":{
						"node":4,
						"path":"translation"
					}
				},
				{
					"sampler":13,
					"target":{
						"node":4,
						"path":"rotation"
					}
				},
				{
					"sampler":14,
					"target":{
						"node":4,
						"path":"scale"
					}
				},
				{
					"sampler":15,
					"target":{
						"node":5,
						"path":"translation"
					}
				},
				{
					"sampler":16,
					"target":{
						"node":5,
						"path":"rotation"
					}
				},
				{
					"sampler":17,
					"target":{
						"node":5,
						"path":"scale"
					}
				}
			],
			"name":"\u30a2\u30fc\u30de\u30c1\u30e5\u30a2\u30a2\u30af\u30b7\u30e7\u30f3_\u30a2\u30fc\u30de\u30c1\u30e5\u30a2.002",
			"samplers":[
				{
					"input":45,
					"interpolation":"STEP",
					"output":46
				},
				{
					"input":45,
					"interpolation":"STEP",
					"output":47
				},
				{
					"input":45,
					"interpolation":"STEP",
					"output":48
				},
				{
					"input":45,
					"interpolation":"STEP",
					"output":49
				},
				{
					"input":50,
					"interpolation":"LINEAR",
					"output":51
				},
				{
					"input":45,
					"interpolation":"STEP",
					"output":52
				},
				{
					"input":45,
					"interpolation":"STEP",
					"output":53
				},
				{
					"input":45,
					"interpolation":"LINEAR",
					"output":54
				},
				{
					"input":45,
					"interpolation":"STEP",
					"output":55
				},
				{
					"input":45,
					"interpolation":"LINEAR",
					"output":56
				},
				{
					"input":45,
					"interpolation":"LINEAR",
					"output":57
				},
				{
					"input":45,
					"interpolation":"STEP",
					"output":58
				},
				{
					"input":45,
					"interpolation":"LINEAR",
					"output":59
				},
				{
					"input":45,
					"interpolation":"LINEAR",
					"output":60
				},
				{
					"input":45,
					"interpolation":"STEP",
					"output":61
				},
				{
					"input":45,
					"interpolation":"LINEAR",
					"output":62
				},
				{
					"input":45,
					"interpolation":"LINEAR",
					"output":63
				},
				{
					"input":45,
					"interpolation":"LINEAR",
					"output":64
				}
			]
		}
	],
	"materials":[
		{
			"alphaMode":"BLEND",
			"doubleSided":true,
			"name":"\u30de\u30c6\u30ea\u30a2\u30eb.002",
			"pbrMetallicRoughness":{
				"baseColorTexture":{
					"index":0
				},
				"metallicFactor":0,
				"roughnessFactor":0.5
			}
		}
	],
	"meshes":[
		{
			"name":"\u5e73\u9762.001",
			"primitives":[
				{
					"attributes":{
						"POSITION":0,
						"NORMAL":1,
						"TEXCOORD_0":2,
						"JOINTS_0":3,
						"WEIGHTS_0":4
					},
					"indices":5,
					"material":0
				}
			]
		}
	],
	"textures":[
		{
			"sampler":0,
			"source":0
		}
	],
	"images":[
		{
			"mimeType":"image/png",
			"name":"Effect7",
			"uri":"Effect7.png"
		}
	],
	"skins":[
		{
			"inverseBindMatrices":6,
			"joints":[
				0,
				1,
				2,
				3,
				4,
				5
			],
			"name":"\u30a2\u30fc\u30de\u30c1\u30e5\u30a2.001"
		}
	],
	"accessors":[
		{
			"bufferView":0,
			"componentType":5126,
			"count":6,
			"max":[
				1.0212818384170532,
				1.0239224433898926,
				1.0212818384170532
			],
			"min":[
				-1.0212818384170532,
				1.0239224433898926,
				-1.0212818384170532
			],
			"type":"VEC3"
		},
		{
			"bufferView":1,
			"componentType":5126,
			"count":6,
			"type":"VEC3"
		},
		{
			"bufferView":2,
			"componentType":5126,
			"count":6,
			"type":"VEC2"
		},
		{
			"bufferView":3,
			"componentType":5121,
			"count":6,
			"type":"VEC4"
		},
		{
			"bufferView":4,
			"componentType":5126,
			"count":6,
			"type":"VEC4"
		},
		{
			"bufferView":5,
			"componentType":5123,
			"count":12,
			"type":"SCALAR"
		},
		{
			"bufferView":6,
			"componentType":5126,
			"count":6,
			"type":"MAT4"
		},
		{
			"bufferView":7,
			"componentType":5126,
			"count":26,
			"max":[
				0.4166666666666667
			],
			"min":[
				0
			],
			"type":"SCALAR"
		},
		{
			"bufferView":8,
			"componentType":5126,
			"count":26,
			"type":"VEC3"
		},
		{
			"bufferView":9,
			"componentType":5126,
			"count":26,
			"type":"VEC4"
		},
		{
			"bufferView":10,
			"componentType":5126,
			"count":26,
			"type":"VEC3"
		},
		{
			"bufferView":11,
			"componentType":5126,
			"count":26,
			"type":"VEC3"
		},
		{
			"bufferView":12,
			"componentType":5126,
			"count":26,
			"type":"VEC4"
		},
		{
			"bufferView":13,
			"componentType":5126,
			"count":26,
			"type":"VEC3"
		},
		{
			"bufferView":14,
			"componentType":5126,
			"count":26,
			"type":"VEC3"
		},
		{
			"bufferView":15,
			"componentType":5126,
			"count":26,
			"type":"VEC4"
		},
		{
			"bufferView":16,
			"componentType":5126,
			"count":26,
			"type":"VEC3"
		},
		{
			"bufferView":17,
			"componentType":5126,
			"count":26,
			"type":"VEC3"
		},
		{
			"bufferView":18,
			"componentType":5126,
			"count":26,
			"type":"VEC4"
		},
		{
			"bufferView":19,
			"componentType":5126,
			"count":26,
			"type":"VEC3"
		},
		{
			"bufferView":20,
			"componentType":5126,
			"count":26,
			"type":"VEC3"
		},
		{
			"bufferView":21,
			"componentType":5126,
			"count":26,
			"type":"VEC4"
		},
		{
			"bufferView":22,
			"componentType":5126,
			"count":26,
			"type":"VEC3"
		},
		{
			"bufferView":23,
			"componentType":5126,
			"count":26,
			"type":"VEC3"
		},
		{
			"bufferView":24,
			"componentType":5126,
			"count":26,
			"type":"VEC4"
		},
		{
			"bufferView":25,
			"componentType":5126,
			"count":26,
			"type":"VEC3"
		},
		{
			"bufferView":26,
			"componentType":5126,
			"count":2,
			"max":[
				0.8333333333333334
			],
			"min":[
				0
			],
			"type":"SCALAR"
		},
		{
			"bufferView":27,
			"componentType":5126,
			"count":2,
			"type":"VEC3"
		},
		{
			"bufferView":28,
			"componentType":5126,
			"count":2,
			"type":"VEC4"
		},
		{
			"bufferView":29,
			"componentType":5126,
			"count":2,
			"type":"VEC3"
		},
		{
			"bufferView":30,
			"componentType":5126,
			"count":2,
			"type":"VEC3"
		},
		{
			"bufferView":31,
			"componentType":5126,
			"count":2,
			"type":"VEC4"
		},
		{
			"bufferView":32,
			"componentType":5126,
			"count":2,
			"type":"VEC3"
		},
		{
			"bufferView":33,
			"componentType":5126,
			"count":2,
			"type":"VEC3"
		},
		{
			"bufferView":34,
			"componentType":5126,
			"count":2,
			"type":"VEC4"
		},
		{
			"bufferView":35,
			"componentType":5126,
			"count":2,
			"type":"VEC3"
		},
		{
			"bufferView":36,
			"componentType":5126,
			"count":2,
			"type":"VEC3"
		},
		{
			"bufferView":37,
			"componentType":5126,
			"count":2,
			"type":"VEC4"
		},
		{
			"bufferView":38,
			"componentType":5126,
			"count":2,
			"type":"VEC3"
		},
		{
			"bufferView":39,
			"componentType":5126,
			"count":2,
			"type":"VEC3"
		},
		{
			"bufferView":40,
			"componentType":5126,
			"count":2,
			"type":"VEC4"
		},
		{
			"bufferView":41,
			"componentType":5126,
			"count":2,
			"type":"VEC3"
		},
		{
			"bufferView":42,
			"componentType":5126,
			"count":2,
			"type":"VEC3"
		},
		{
			"bufferView":43,
			"componentType":5126,
			"count":2,
			"type":"VEC4"
		},
		{
			"bufferView":44,
			"componentType":5126,
			"count":2,
			"type":"VEC3"
		},
		{
			"bufferView":45,
			"componentType":5126,
			"count":2,
			"max":[
				0.3333333333333333
			],
			"min":[
				0
			],
			"type":"SCALAR"
		},
		{
			"bufferView":46,
			"componentType":5126,
			"count":2,
			"type":"VEC3"
		},
		{
			"bufferView":47,
			"componentType":5126,
			"count":2,
			"type":"VEC4"
		},
		{
			"bufferView":48,
			"componentType":5126,
			"count":2,
			"type":"VEC3"
		},
		{
			"bufferView":49,
			"componentType":5126,
			"count":2,
			"type":"VEC3"
		},
		{
			"bufferView":50,
			"componentType":5126,
			"count":21,
			"max":[
				0.3333333333333333
			],
			"min":[
				0
			],
			"type":"SCALAR"
		},
		{
			"bufferView":51,
			"componentType":5126,
			"count":21,
			"type":"VEC4"
		},
		{
			"bufferView":52,
			"componentType":5126,
			"count":2,
			"type":"VEC3"
		},
		{
			"bufferView":53,
			"componentType":5126,
			"count":2,
			"type":"VEC3"
		},
		{
			"bufferView":54,
			"componentType":5126,
			"count":2,
			"type":"VEC4"
		},
		{
			"bufferView":55,
			"componentType":5126,
			"count":2,
			"type":"VEC3"
		},
		{
			"bufferView":56,
			"componentType":5126,
			"count":2,
			"type":"VEC3"
		},
		{
			"bufferView":57,
			"componentType":5126,
			"count":2,
			"type":"VEC4"
		},
		{
			"bufferView":58,
			"componentType":5126,
			"count":2,
			"type":"VEC3"
		},
		{
			"bufferView":59,
			"componentType":5126,
			"count":2,
			"type":"VEC3"
		},
		{
			"bufferView":60,
			"componentType":5126,
			"count":2,
			"type":"VEC4"
		},
		{
			"bufferView":61,
			"componentType":5126,
			"count":2,
			"type":"VEC3"
		},
		{
			"bufferView":62,
			"componentType":5126,
			"count":2,
			"type":"VEC3"
		},
		{
			"bufferView":63,
			"componentType":5126,
			"count":2,
			"type":"VEC4"
		},
		{
			"bufferView":64,
			"componentType":5126,
			"count":2,
			"type":"VEC3"
		}
	],
	"bufferViews":[
		{
			"buffer":0,
			"byteLength":72,
			"byteOffset":0,
			"target":34962
		},
		{
			"buffer":0,
			"byteLength":72,
			"byteOffset":72,
			"target":34962
		},
		{
			"buffer":0,
			"byteLength":48,
			"byteOffset":144,
			"target":34962
		},
		{
			"buffer":0,
			"byteLength":24,
			"byteOffset":192,
			"target":34962
		},
		{
			"buffer":0,
			"byteLength":96,
			"byteOffset":216,
			"target":34962
		},
		{
			"buffer":0,
			"byteLength":24,
			"byteOffset":312,
			"target":34963
		},
		{
			"buffer":0,
			"byteLength":384,
			"byteOffset":336
		},
		{
			"buffer":0,
			"byteLength":104,
			"byteOffset":720
		},
		{
			"buffer":0,
			"byteLength":312,
			"byteOffset":824
		},
		{
			"buffer":0,
			"byteLength":416,
			"byteOffset":1136
		},
		{
			"buffer":0,
			"byteLength":312,
			"byteOffset":1552
		},
		{
			"buffer":0,
			"byteLength":312,
			"byteOffset":1864
		},
		{
			"buffer":0,
			"byteLength":416,
			"byteOffset":2176
		},
		{
			"buffer":0,
			"byteLength":312,
			"byteOffset":2592
		},
		{
			"buffer":0,
			"byteLength":312,
			"byteOffset":2904
		},
		{
			"buffer":0,
			"byteLength":416,
			"byteOffset":3216
		},
		{
			"buffer":0,
			"byteLength":312,
			"byteOffset":3632
		},
		{
			"buffer":0,
			"byteLength":312,
			"byteOffset":3944
		},
		{
			"buffer":0,
			"byteLength":416,
			"byteOffset":4256
		},
		{
			"buffer":0,
			"byteLength":312,
			"byteOffset":4672
		},
		{
			"buffer":0,
			"byteLength":312,
			"byteOffset":4984
		},
		{
			"buffer":0,
			"byteLength":416,
			"byteOffset":5296
		},
		{
			"buffer":0,
			"byteLength":312,
			"byteOffset":5712
		},
		{
			"buffer":0,
			"byteLength":312,
			"byteOffset":6024
		},
		{
			"buffer":0,
			"byteLength":416,
			"byteOffset":6336
		},
		{
			"buffer":0,
			"byteLength":312,
			"byteOffset":6752
		},
		{
			"buffer":0,
			"byteLength":8,
			"byteOffset":7064
		},
		{
			"buffer":0,
			"byteLength":24,
			"byteOffset":7072
		},
		{
			"buffer":0,
			"byteLength":32,
			"byteOffset":7096
		},
		{
			"buffer":0,
			"byteLength":24,
			"byteOffset":7128
		},
		{
			"buffer":0,
			"byteLength":24,
			"byteOffset":7152
		},
		{
			"buffer":0,
			"byteLength":32,
			"byteOffset":7176
		},
		{
			"buffer":0,
			"byteLength":24,
			"byteOffset":7208
		},
		{
			"buffer":0,
			"byteLength":24,
			"byteOffset":7232
		},
		{
			"buffer":0,
			"byteLength":32,
			"byteOffset":7256
		},
		{
			"buffer":0,
			"byteLength":24,
			"byteOffset":7288
		},
		{
			"buffer":0,
			"byteLength":24,
			"byteOffset":7312
		},
		{
			"buffer":0,
			"byteLength":32,
			"byteOffset":7336
		},
		{
			"buffer":0,
			"byteLength":24,
			"byteOffset":7368
		},
		{
			"buffer":0,
			"byteLength":24,
			"byteOffset":7392
		},
		{
			"buffer":0,
			"byteLength":32,
			"byteOffset":7416
		},
		{
			"buffer":0,
			"byteLength":24,
			"byteOffset":7448
		},
		{
			"buffer":0,
			"byteLength":24,
			"byteOffset":7472
		},
		{
			"buffer":0,
			"byteLength":32,
			"byteOffset":7496
		},
		{
			"buffer":0,
			"byteLength":24,
			"byteOffset":7528
		},
		{
			"buffer":0,
			"byteLength":8,
			"byteOffset":7552
		},
		{
			"buffer":0,
			"byteLength":24,
			"byteOffset":7560
		},
		{
			"buffer":0,
			"byteLength":32,
			"byteOffset":7584
		},
		{
			"buffer":0,
			"byteLength":24,
			"byteOffset":7616
		},
		{
			"buffer":0,
			"byteLength":24,
			"byteOffset":7640
		},
		{
			"buffer":0,
			"byteLength":84,
			"byteOffset":7664
		},
		{
			"buffer":0,
			"byteLength":336,
			"byteOffset":7748
		},
		{
			"buffer":0,
			"byteLength":24,
			"byteOffset":8084
		},
		{
			"buffer":0,
			"byteLength":24,
			"byteOffset":8108
		},
		{
			"buffer":0,
			"byteLength":32,
			"byteOffset":8132
		},
		{
			"buffer":0,
			"byteLength":24,
			"byteOffset":8164
		},
		{
			"buffer":0,
			"byteLength":24,
			"byteOffset":8188
		},
		{
			"buffer":0,
			"byteLength":32,
			"byteOffset":8212
		},
		{
			"buffer":0,
			"byteLength":24,
			"byteOffset":8244
		},
		{
			"buffer":0,
			"byteLength":24,
			"byteOffset":8268
		},
		{
			"buffer":0,
			"byteLength":32,
			"byteOffset":8292
		},
		{
			"buffer":0,
			"byteLength":24,
			"byteOffset":8324
		},
		{
			"buffer":0,
			"byteLength":24,
			"byteOffset":8348
		},
		{
			"buffer":0,
			"byteLength":32,
			"byteOffset":8372
		},
		{
			"buffer":0,
			"byteLength":24,
			"byteOffset":8404
		}
	],
	"samplers":[
		{
			"magFilter":9729,
			"minFilter":9987
		}
	],
	"buffers":[
		{
			"byteLength":8428,
			"uri":"Effect7.bin"
		}
	]
}
