# Blender 4.1.1
# www.blender.org
mtllib bossHpGageName.mtl
o 立方体.003
v 0.185934 0.956816 -0.050553
v 0.034426 0.779247 -0.050553
v -0.083945 0.579048 -0.050553
v -0.180744 0.332043 -0.050553
v -0.215777 0.000000 -0.050553
v 0.053213 0.994011 -0.050553
v -0.098296 0.816442 -0.050553
v -0.216667 0.616243 -0.050553
v -0.313465 0.369238 -0.050553
v -0.348498 0.037195 -0.050553
vn -0.0000 -0.0000 -1.0000
vt 0.095093 0.321005
vt 0.229513 0.554029
vt 0.101072 0.570071
vt 0.133161 0.004719
vt 0.223535 0.304963
vt 0.071355 0.786450
vt 0.133161 0.979239
vt 0.004719 0.995281
vt 0.199797 0.770408
vt 0.004719 0.020761
s 0
usemtl マテリアル.004
f 4/1/1 8/2/1 3/3/1
f 4/1/1 10/4/1 9/5/1
f 2/6/1 6/7/1 1/8/1
f 3/3/1 7/9/1 2/6/1
f 4/1/1 9/5/1 8/2/1
f 4/1/1 5/10/1 10/4/1
f 2/6/1 7/9/1 6/7/1
f 3/3/1 8/2/1 7/9/1
