# Blender 4.1.1
# www.blender.org
mtllib tornadoAbove3.mtl
o 円.002
v -0.032662 0.000000 1.747926
v 0.279668 0.000000 1.717164
v 0.579995 0.000000 1.626061
v 0.856778 0.000000 1.478118
v 1.099380 0.000000 1.279019
v 1.298479 0.000000 1.036417
v 1.446422 0.000000 0.759634
v 1.537526 0.000000 0.459307
v 1.568287 0.000000 0.146977
v 1.537526 0.000000 -0.165352
v 1.446422 0.000000 -0.465679
v 1.298479 0.000000 -0.742462
v 1.099380 0.000000 -0.985065
v 0.856778 0.000000 -1.184163
v 0.579995 0.000000 -1.332107
v 0.279668 0.000000 -1.423210
v -0.032662 0.000000 -1.453972
v -0.344991 0.000000 -1.423210
v -0.645318 0.000000 -1.332107
v -0.922101 0.000000 -1.184163
v -1.164703 0.000000 -0.985065
v -1.363802 0.000000 -0.742462
v -1.511745 0.000000 -0.465679
v -1.602849 0.000000 -0.165352
v -1.633610 0.000000 0.146977
v -1.602849 0.000000 0.459307
v -1.511745 0.000000 0.759634
v -1.363802 0.000000 1.036417
v -1.164703 0.000000 1.279019
v -0.922101 0.000000 1.478118
v -0.645318 0.000000 1.626061
v -0.344991 0.000000 1.717164
v -0.032662 0.000000 1.486479
v 0.228662 0.000000 1.460741
v 0.479944 0.000000 1.384516
v 0.711526 0.000000 1.260732
v 0.914509 0.000000 1.094148
v 1.081094 0.000000 0.891165
v 1.204877 0.000000 0.659582
v 1.281102 0.000000 0.408301
v 1.306840 0.000000 0.146977
v 1.281102 0.000000 -0.114347
v 1.204877 0.000000 -0.365628
v 1.081094 0.000000 -0.597210
v 0.914509 0.000000 -0.800194
v 0.711526 0.000000 -0.966778
v 0.479944 0.000000 -1.090561
v 0.228662 0.000000 -1.166787
v -0.032662 0.000000 -1.192525
v -0.293985 0.000000 -1.166787
v -0.545267 0.000000 -1.090561
v -0.776849 0.000000 -0.966778
v -0.979833 0.000000 -0.800194
v -1.146417 0.000000 -0.597210
v -1.270200 0.000000 -0.365628
v -1.346425 0.000000 -0.114347
v -1.372164 0.000000 0.146977
v -1.346425 0.000000 0.408301
v -1.270200 0.000000 0.659582
v -1.146417 0.000000 0.891165
v -0.979833 0.000000 1.094148
v -0.776849 0.000000 1.260732
v -0.545267 0.000000 1.384516
v -0.293985 0.000000 1.460741
vn -0.0000 -1.0000 -0.0000
vt 0.000000 0.000000
s 0
f 16/1/1 49/1/1 17/1/1
f 3/1/1 36/1/1 4/1/1
f 31/1/1 62/1/1 63/1/1
f 18/1/1 49/1/1 50/1/1
f 5/1/1 36/1/1 37/1/1
f 32/1/1 63/1/1 64/1/1
f 18/1/1 51/1/1 19/1/1
f 5/1/1 38/1/1 6/1/1
f 32/1/1 33/1/1 1/1/1
f 19/1/1 52/1/1 20/1/1
f 7/1/1 38/1/1 39/1/1
f 21/1/1 52/1/1 53/1/1
f 8/1/1 39/1/1 40/1/1
f 21/1/1 54/1/1 22/1/1
f 8/1/1 41/1/1 9/1/1
f 23/1/1 54/1/1 55/1/1
f 10/1/1 41/1/1 42/1/1
f 24/1/1 55/1/1 56/1/1
f 10/1/1 43/1/1 11/1/1
f 24/1/1 57/1/1 25/1/1
f 11/1/1 44/1/1 12/1/1
f 26/1/1 57/1/1 58/1/1
f 13/1/1 44/1/1 45/1/1
f 26/1/1 59/1/1 27/1/1
f 13/1/1 46/1/1 14/1/1
f 27/1/1 60/1/1 28/1/1
f 15/1/1 46/1/1 47/1/1
f 2/1/1 33/1/1 34/1/1
f 29/1/1 60/1/1 61/1/1
f 16/1/1 47/1/1 48/1/1
f 2/1/1 35/1/1 3/1/1
f 29/1/1 62/1/1 30/1/1
f 16/1/1 48/1/1 49/1/1
f 3/1/1 35/1/1 36/1/1
f 31/1/1 30/1/1 62/1/1
f 18/1/1 17/1/1 49/1/1
f 5/1/1 4/1/1 36/1/1
f 32/1/1 31/1/1 63/1/1
f 18/1/1 50/1/1 51/1/1
f 5/1/1 37/1/1 38/1/1
f 32/1/1 64/1/1 33/1/1
f 19/1/1 51/1/1 52/1/1
f 7/1/1 6/1/1 38/1/1
f 21/1/1 20/1/1 52/1/1
f 8/1/1 7/1/1 39/1/1
f 21/1/1 53/1/1 54/1/1
f 8/1/1 40/1/1 41/1/1
f 23/1/1 22/1/1 54/1/1
f 10/1/1 9/1/1 41/1/1
f 24/1/1 23/1/1 55/1/1
f 10/1/1 42/1/1 43/1/1
f 24/1/1 56/1/1 57/1/1
f 11/1/1 43/1/1 44/1/1
f 26/1/1 25/1/1 57/1/1
f 13/1/1 12/1/1 44/1/1
f 26/1/1 58/1/1 59/1/1
f 13/1/1 45/1/1 46/1/1
f 27/1/1 59/1/1 60/1/1
f 15/1/1 14/1/1 46/1/1
f 2/1/1 1/1/1 33/1/1
f 29/1/1 28/1/1 60/1/1
f 16/1/1 15/1/1 47/1/1
f 2/1/1 34/1/1 35/1/1
f 29/1/1 61/1/1 62/1/1
