# Blender 4.1.1
# www.blender.org
mtllib bossTubu.mtl
o 立方体.003
v 0.234506 -2.045162 0.785597
v 0.234506 0.018660 0.040706
v 0.234506 -2.225347 1.218615
v 0.234506 0.025677 0.509664
v -0.234506 -2.045162 0.785597
v -0.234506 0.018660 0.040706
v -0.234506 -2.225347 1.218615
v -0.234506 0.025677 0.509664
v 0.234506 -1.536612 1.311883
v 0.234506 -1.290552 1.614552
v 0.234506 -1.024634 1.536285
v 0.234506 -0.634491 1.796592
v 0.234506 -1.388956 2.073123
v 0.234506 -1.944534 1.543337
v -0.234506 -0.634491 1.796592
v -0.234506 -1.388956 2.073123
v -0.234506 -1.944534 1.543337
v -0.234506 -1.024634 1.536285
v -0.234506 -1.290552 1.614552
v -0.234506 -1.536612 1.311883
v 0.234506 -0.865407 1.034029
v 0.234506 -0.436665 1.144409
v -0.234506 -0.436665 1.144409
v -0.234506 -0.865407 1.034029
vn 1.0000 -0.0000 -0.0000
vn -0.0000 0.8083 0.5888
vn -1.0000 -0.0000 -0.0000
vn -0.0000 -0.7470 -0.6648
vn -0.0000 -0.9233 -0.3842
vn -0.0000 0.9999 -0.0150
vn -0.0000 0.7191 -0.6949
vn -0.0000 0.7759 -0.6308
vn -0.0000 -0.2824 -0.9593
vn -0.0000 -0.7564 0.6541
vn -0.0000 -0.6901 0.7237
vn -0.0000 0.3441 0.9389
vn -0.0000 -0.9532 -0.3022
vn -0.0000 0.9569 0.2903
vt 0.593750 0.000000
vt 0.625000 0.000000
vt 0.625000 0.250000
vt 0.593750 0.250000
vt 0.625000 0.500000
vt 0.593750 0.500000
vt 0.625000 0.750000
vt 0.593750 0.750000
vt 0.625000 1.000000
vt 0.593750 1.000000
vt 0.125000 0.500000
vt 0.375000 0.500000
vt 0.375000 0.750000
vt 0.125000 0.750000
vt 0.875000 0.500000
vt 0.875000 0.750000
vt 0.437500 0.750000
vt 0.437500 1.000000
vt 0.375000 1.000000
vt 0.500000 0.750000
vt 0.500000 1.000000
vt 0.562500 0.750000
vt 0.562500 1.000000
vt 0.437500 0.500000
vt 0.500000 0.500000
vt 0.562500 0.500000
vt 0.375000 0.250000
vt 0.437500 0.250000
vt 0.500000 0.250000
vt 0.562500 0.250000
vt 0.375000 0.000000
vt 0.437500 0.000000
vt 0.500000 0.000000
vt 0.562500 0.000000
s 0
f 21/1/1 2/2/1 4/3/1 22/4/1
f 22/4/2 4/3/2 8/5/2 23/6/2
f 23/6/3 8/5/3 6/7/3 24/8/3
f 24/8/4 6/7/4 2/9/4 21/10/4
f 3/11/5 7/12/5 5/13/5 1/14/5
f 8/5/6 4/15/6 2/16/6 6/7/6
f 5/13/7 20/17/7 9/18/7 1/19/7
f 20/17/8 19/20/8 10/21/8 9/18/8
f 19/20/9 18/22/9 11/23/9 10/21/9
f 7/12/3 17/24/3 20/17/3 5/13/3
f 17/24/3 16/25/3 19/20/3 20/17/3
f 16/25/3 15/26/3 18/22/3 19/20/3
f 3/27/10 14/28/10 17/24/10 7/12/10
f 14/28/11 13/29/11 16/25/11 17/24/11
f 13/29/12 12/30/12 15/26/12 16/25/12
f 1/31/1 9/32/1 14/28/1 3/27/1
f 9/32/1 10/33/1 13/29/1 14/28/1
f 10/33/1 11/34/1 12/30/1 13/29/1
f 18/22/13 24/8/13 21/10/13 11/23/13
f 15/26/3 23/6/3 24/8/3 18/22/3
f 12/30/14 22/4/14 23/6/14 15/26/14
f 11/34/1 21/1/1 22/4/1 12/30/1
