# Blender 4.1.1
# www.blender.org
mtllib bossBulletPrediction.mtl
o 円
v 0.000000 0.000000 4.704200
v 0.917744 0.000000 4.613810
v 1.800219 0.000000 4.346114
v 2.613513 0.000000 3.911399
v 3.326371 0.000000 3.326371
v 3.911399 0.000000 2.613513
v 4.346114 0.000000 1.800219
v 4.613810 0.000000 0.917744
v 4.704200 0.000000 0.000000
v 4.613810 0.000000 -0.917744
v 4.346114 0.000000 -1.800219
v 3.911399 0.000000 -2.613513
v 3.326371 0.000000 -3.326371
v 2.613513 0.000000 -3.911399
v 1.800219 0.000000 -4.346114
v 0.917744 0.000000 -4.613810
v 0.000000 0.000000 -4.704200
v -0.917744 0.000000 -4.613810
v -1.800219 0.000000 -4.346114
v -2.613513 0.000000 -3.911399
v -3.326371 0.000000 -3.326371
v -3.911399 0.000000 -2.613513
v -4.346114 0.000000 -1.800219
v -4.613810 0.000000 -0.917744
v -4.704200 0.000000 0.000000
v -4.613810 0.000000 0.917744
v -4.346114 0.000000 1.800219
v -3.911399 0.000000 2.613513
v -3.326371 0.000000 3.326371
v -2.613513 0.000000 3.911399
v -1.800219 0.000000 4.346114
v -0.917744 0.000000 4.613810
v 0.006950 -0.643413 4.700316
v 0.924694 -0.643413 4.609926
v 1.807170 -0.643413 4.342230
v 2.620464 -0.643413 3.907515
v 3.333322 -0.643413 3.322488
v 3.918350 -0.643413 2.609630
v 4.353064 -0.643413 1.796336
v 4.620760 -0.643413 0.913860
v 4.711150 -0.643413 -0.003884
v 4.620760 -0.643413 -0.921627
v 4.353064 -0.643413 -1.804103
v 3.918350 -0.643413 -2.617397
v 3.333322 -0.643413 -3.330255
v 2.620464 -0.643413 -3.915283
v 1.807170 -0.643413 -4.349998
v 0.924694 -0.643413 -4.617693
v 0.006950 -0.643413 -4.708083
v -0.910793 -0.643413 -4.617693
v -1.793269 -0.643413 -4.349998
v -2.606563 -0.643413 -3.915283
v -3.319421 -0.643413 -3.330255
v -3.904449 -0.643413 -2.617397
v -4.339163 -0.643413 -1.804103
v -4.606859 -0.643413 -0.921627
v -4.697249 -0.643413 -0.003884
v -4.606859 -0.643413 0.913860
v -4.339163 -0.643413 1.796336
v -3.904449 -0.643413 2.609630
v -3.319421 -0.643413 3.322488
v -2.606563 -0.643413 3.907515
v -1.793269 -0.643413 4.342230
v -0.910793 -0.643413 4.609926
vn 0.7730 0.0045 0.6344
vn -0.0980 -0.0071 0.9952
vn -0.4714 0.0002 -0.8819
vn 0.8819 0.0067 0.4714
vn -0.6344 -0.0022 -0.7730
vn 0.9569 0.0086 0.2903
vn -0.7730 -0.0045 -0.6344
vn 0.9951 0.0102 0.0980
vn -0.8819 -0.0067 -0.4714
vn 0.9951 0.0113 -0.0980
vn -0.9569 -0.0086 -0.2903
vn 0.9569 0.0121 -0.2903
vn -0.9951 -0.0102 -0.0980
vn 0.8819 0.0124 -0.4714
vn -0.9951 -0.0113 0.0980
vn 0.7730 0.0122 -0.6343
vn -0.9569 -0.0121 0.2903
vn 0.6344 0.0115 -0.7730
vn -0.8819 -0.0124 0.4714
vn 0.4714 0.0104 -0.8819
vn 0.0980 -0.0049 0.9952
vn -0.7730 -0.0122 0.6343
vn 0.2903 0.0089 -0.9569
vn 0.2903 -0.0026 0.9569
vn -0.6344 -0.0115 0.7730
vn 0.0980 0.0071 -0.9952
vn 0.4714 -0.0002 0.8819
vn -0.4714 -0.0104 0.8819
vn -0.0980 0.0049 -0.9952
vn 0.6344 0.0022 0.7730
vn -0.2903 -0.0089 0.9569
vn -0.2903 0.0026 -0.9569
vn 0.0980 -0.0050 0.9952
vt 0.869409 0.187998
vt 0.887670 0.287124
vt 0.838665 0.210902
vt 0.957992 0.652878
vt 0.887646 0.724706
vt 0.921524 0.640962
vt 0.001307 0.549164
vt 0.057680 0.633109
vt 0.021158 0.645477
vt 0.801860 0.117449
vt 0.776277 0.145782
vt 0.092411 0.717260
vt 0.058905 0.736286
vt 0.722240 0.061567
vt 0.702846 0.094264
vt 0.142382 0.793162
vt 0.113150 0.818123
vt 0.633517 0.022512
vt 0.621104 0.058345
vt 0.205728 0.857881
vt 0.181868 0.887836
vt 0.538929 0.001771
vt 0.534020 0.039452
vt 0.280041 0.908898
vt 0.262448 0.942706
vt 0.441646 0.000099
vt 0.444537 0.038465
vt 0.362417 0.944223
vt 0.351748 0.980569
vt 0.344112 0.017708
vt 0.355675 0.055758
vt 0.449509 0.962508
vt 0.446152 0.999901
vt 0.272091 0.090568
vt 0.253125 0.057071
vt 0.537539 0.963174
vt 0.541542 0.999901
vt 0.198092 0.141025
vt 0.173009 0.112417
vt 0.622732 0.946477
vt 0.633092 0.980847
vt 0.135927 0.205116
vt 0.105633 0.182179
vt 0.976938 0.556683
vt 0.938748 0.551892
vt 0.719841 0.945833
vt 0.702861 0.912970
vt 0.087560 0.280452
vt 0.053209 0.263958
vt 0.977174 0.458404
vt 0.938705 0.460925
vt 0.799361 0.892869
vt 0.775889 0.863473
vt 0.054675 0.364189
vt 0.017604 0.354712
vt 0.958740 0.361786
vt 0.921448 0.371535
vt 0.867416 0.824372
vt 0.838424 0.799867
vt 0.038452 0.453145
vt 0.000099 0.451001
vt 0.922361 0.270495
vt 0.921014 0.743286
vt 0.039469 0.543937
s 0
usemtl マテリアル
f 6/1/1 37/2/1 38/3/1
f 1/4/2 64/5/2 33/6/2
f 19/7/3 52/8/3 20/9/3
f 7/10/4 38/3/4 39/11/4
f 20/9/5 53/12/5 21/13/5
f 8/14/6 39/11/6 40/15/6
f 21/13/7 54/16/7 22/17/7
f 9/18/8 40/15/8 41/19/8
f 22/17/9 55/20/9 23/21/9
f 10/22/10 41/19/10 42/23/10
f 23/21/11 56/24/11 24/25/11
f 11/26/12 42/23/12 43/27/12
f 24/25/13 57/28/13 25/29/13
f 12/30/14 43/27/14 44/31/14
f 25/29/15 58/32/15 26/33/15
f 12/30/16 45/34/16 13/35/16
f 26/33/17 59/36/17 27/37/17
f 13/35/18 46/38/18 14/39/18
f 27/37/19 60/40/19 28/41/19
f 14/39/20 47/42/20 15/43/20
f 2/44/21 33/6/21 34/45/21
f 29/46/22 60/40/22 61/47/22
f 15/43/23 48/48/23 16/49/23
f 3/50/24 34/45/24 35/51/24
f 30/52/25 61/47/25 62/53/25
f 16/49/26 49/54/26 17/55/26
f 4/56/27 35/51/27 36/57/27
f 31/58/28 62/53/28 63/59/28
f 17/55/29 50/60/29 18/61/29
f 5/62/30 36/57/30 37/2/30
f 32/63/31 63/59/31 64/5/31
f 18/61/32 51/64/32 19/7/32
f 6/1/1 5/62/1 37/2/1
f 1/4/2 32/63/2 64/5/2
f 19/7/3 51/64/3 52/8/3
f 7/10/4 6/1/4 38/3/4
f 20/9/5 52/8/5 53/12/5
f 8/14/6 7/10/6 39/11/6
f 21/13/7 53/12/7 54/16/7
f 9/18/8 8/14/8 40/15/8
f 22/17/9 54/16/9 55/20/9
f 10/22/10 9/18/10 41/19/10
f 23/21/11 55/20/11 56/24/11
f 11/26/12 10/22/12 42/23/12
f 24/25/13 56/24/13 57/28/13
f 12/30/14 11/26/14 43/27/14
f 25/29/15 57/28/15 58/32/15
f 12/30/16 44/31/16 45/34/16
f 26/33/17 58/32/17 59/36/17
f 13/35/18 45/34/18 46/38/18
f 27/37/19 59/36/19 60/40/19
f 14/39/20 46/38/20 47/42/20
f 2/44/33 1/4/33 33/6/33
f 29/46/22 28/41/22 60/40/22
f 15/43/23 47/42/23 48/48/23
f 3/50/24 2/44/24 34/45/24
f 30/52/25 29/46/25 61/47/25
f 16/49/26 48/48/26 49/54/26
f 4/56/27 3/50/27 35/51/27
f 31/58/28 30/52/28 62/53/28
f 17/55/29 49/54/29 50/60/29
f 5/62/30 4/56/30 36/57/30
f 32/63/31 31/58/31 63/59/31
f 18/61/32 50/60/32 51/64/32
