# Blender 4.4.0
# www.blender.org
mtllib Bush1.mtl
o Bush1_Icosphere
v -0.249717 0.499654 0.226411
v 0.363290 0.592644 0.354891
v -0.174198 0.750560 0.530309
v -0.481920 0.686934 0.079277
v 0.347977 0.478610 0.101028
v 0.592328 0.924396 0.265238
v -0.283436 0.520818 -0.216761
v -0.394503 1.121231 0.294301
v -0.028576 0.496355 0.078880
v 0.039773 0.495063 0.039440
v 0.039707 0.498565 -0.039440
v -0.028707 0.503361 -0.078880
v -0.096232 0.504638 -0.039915
v -0.097055 0.504623 -0.038742
v -0.096989 0.501151 0.039440
v 0.208499 1.178953 0.439389
v -0.470251 0.880185 -0.243849
v -0.164112 1.224927 0.427773
v 0.394881 0.700048 -0.229686
v 0.109025 0.509351 -0.250665
v 0.144226 1.473918 0.051068
v -0.182882 0.880975 -0.543776
v -0.408588 1.161445 -0.111709
v -0.140193 1.430051 -0.045203
v 0.456959 1.159400 -0.127461
v 0.062155 1.145892 -0.454335
v 0.000000 -0.017234 -0.100378
v -0.078718 0.145677 -0.100378
v 0.005838 0.125499 -0.050189
v 0.086930 -0.017234 -0.050189
v -0.086930 -0.017234 -0.050189
v -0.026132 0.366030 -0.078880
v 0.086930 -0.017234 0.050189
v 0.000000 -0.017234 0.100378
v -0.086930 -0.017234 0.050189
v 0.005838 0.125499 0.050189
v -0.163273 0.165856 -0.050189
v 0.042168 0.367311 -0.039440
v -0.094432 0.364750 -0.039440
v -0.078718 0.145677 0.100378
v -0.163273 0.165856 0.050189
v 0.042168 0.367311 0.039440
v -0.097055 0.504623 -0.039440
v -0.094432 0.364750 0.039440
v -0.026132 0.366030 0.078880
vn -0.0173 -0.7689 0.6391
vn -0.7076 -0.4484 0.5461
vn 0.0532 -0.9121 0.4065
vn 0.3194 0.0354 0.9469
vn -0.6320 -0.7749 0.0111
vn -0.8123 -0.1192 0.5710
vn 0.8314 -0.5239 0.1852
vn -0.0444 -0.9980 -0.0443
vn 0.3475 -0.1129 0.9309
vn -0.8358 -0.4574 -0.3037
vn -0.9840 0.1664 0.0640
vn -0.5541 0.1871 0.8111
vn 0.8893 -0.4283 -0.1606
vn -0.0346 -0.9974 -0.0636
vn 0.6258 0.6675 0.4035
vn -0.0044 0.2114 0.9774
vn -0.6635 -0.3929 -0.6367
vn -0.9803 0.1901 0.0528
vn -0.5347 0.7848 0.3133
vn 0.9351 -0.0482 -0.3512
vn 0.5245 -0.7400 -0.4211
vn -0.0839 -0.6569 -0.7493
vn 0.0802 0.8001 0.5945
vn 0.7405 0.6577 0.1384
vn -0.6507 0.4350 -0.6223
vn -0.7158 0.6921 0.0934
vn -0.2634 0.8898 0.3726
vn 0.6337 0.0855 -0.7689
vn 0.3343 -0.4076 -0.8498
vn 0.4228 0.7273 -0.5407
vn -0.4586 0.6167 -0.6399
vn 0.0577 0.8331 -0.5501
vn 0.4468 -0.1137 -0.8874
vn -0.4368 0.6231 -0.6488
vn 0.5216 0.2640 -0.8113
vn 0.4983 0.2694 -0.8241
vn 0.5380 0.2600 -0.8019
vn -0.5002 -0.2318 -0.8343
vn -0.5231 -0.2267 -0.8216
vn -0.4860 -0.2348 -0.8418
vn 0.5010 -0.0365 -0.8646
vn 0.5030 -0.0362 -0.8635
vn 0.5037 -0.0360 -0.8631
vn -0.0000 -1.0000 -0.0000
vn 0.8695 0.4940 -0.0000
vn -0.4694 0.2052 -0.8588
vn -0.4853 0.2018 -0.8507
vn -0.4928 0.2002 -0.8468
vn 0.4983 0.2694 0.8241
vn 0.5216 0.2640 0.8113
vn 0.5380 0.2600 0.8019
vn -0.9230 -0.3849 -0.0000
vn 0.9889 -0.1486 -0.0000
vn 0.4999 0.0094 -0.8660
vn -0.4999 -0.0094 -0.8660
vn -0.4998 -0.0093 -0.8661
vn -0.5231 -0.2267 0.8216
vn -0.5002 -0.2318 0.8343
vn -0.4860 -0.2348 0.8418
vn -0.9450 0.3271 -0.0000
vn 0.5030 -0.0362 0.8635
vn 0.5010 -0.0365 0.8646
vn 0.5037 -0.0360 0.8631
vn 0.9998 0.0187 -0.0000
vn -0.9998 -0.0187 -0.0000
vn -0.0188 0.9998 -0.0001
vn -0.4694 0.2052 0.8588
vn -0.4853 0.2018 0.8507
vn -0.4625 0.2067 0.8622
vn 0.4999 0.0094 0.8660
vn -0.4999 -0.0094 0.8660
vn -0.0445 -0.9980 -0.0442
vn 0.4810 0.2733 -0.8331
vn -0.5364 -0.2237 -0.8138
vn 0.5002 -0.0367 -0.8651
vn -0.4625 0.2067 -0.8622
vn 0.4810 0.2733 0.8331
vn -0.5364 -0.2237 0.8138
vn 0.5002 -0.0367 0.8651
vn -0.9998 -0.0188 -0.0000
vn -0.4928 0.2002 0.8468
vt 0.220220 0.801001
vt 0.001001 0.997998
vt 0.001001 0.801001
vt 0.667668 0.601001
vt 0.667668 0.797998
vt 0.886887 0.601001
vt 0.886887 0.401001
vt 0.667668 0.597998
vt 0.667668 0.401001
vt 0.445445 0.797998
vt 0.445445 0.601001
vt 0.664665 0.601001
vt 0.667668 0.397998
vt 0.886887 0.201001
vt 0.667668 0.201001
vt 0.223223 0.797998
vt 0.442442 0.601001
vt 0.223223 0.601001
vt 0.667668 0.001001
vt 0.886887 0.001001
vt 0.667668 0.197998
vt 0.221221 0.198999
vt 0.172894 0.114158
vt 0.213634 0.104185
vt 0.443443 0.898999
vt 0.292908 0.839481
vt 0.443443 0.801001
vt 0.665666 0.798999
vt 0.665666 0.602002
vt 0.446446 0.798999
vt 0.001001 0.797998
vt 0.001001 0.601001
vt 0.220220 0.601001
vt 0.445445 0.401001
vt 0.445445 0.597998
vt 0.664665 0.401001
vt 0.442442 0.401001
vt 0.223223 0.597998
vt 0.223223 0.401001
vt 0.445445 0.397998
vt 0.445445 0.201001
vt 0.664665 0.201001
vt 0.445445 0.197998
vt 0.664665 0.001001
vt 0.445445 0.001001
vt 0.001001 0.401001
vt 0.001001 0.597998
vt 0.220220 0.401001
vt 0.665666 0.402002
vt 0.446446 0.598999
vt 0.665666 0.598999
vt 0.002002 0.798999
vt 0.221221 0.798999
vt 0.221221 0.602002
vt 0.668669 0.198999
vt 0.887888 0.002002
vt 0.887888 0.198999
vt 0.224224 0.598999
vt 0.443443 0.598999
vt 0.443443 0.402002
vt 0.443443 0.602002
vt 0.224224 0.798999
vt 0.443443 0.798999
vt 0.887888 0.202002
vt 0.668669 0.398999
vt 0.887888 0.398999
vt 0.446446 0.398999
vt 0.665666 0.398999
vt 0.665666 0.202002
vt 0.442442 0.201001
vt 0.223223 0.201001
vt 0.223223 0.397998
vt 0.665666 0.002002
vt 0.446446 0.198999
vt 0.665666 0.198999
vt 0.887888 0.798999
vt 0.668669 0.798999
vt 0.887888 0.602002
vt 0.223223 0.001001
vt 0.223223 0.197998
vt 0.442442 0.001001
vt 0.443443 0.398999
vt 0.443443 0.202002
vt 0.224224 0.398999
vt 0.224224 0.198999
vt 0.443443 0.002002
vt 0.443443 0.198999
vt 0.220220 0.201001
vt 0.001001 0.201001
vt 0.001001 0.397998
vt 0.889890 0.201001
vt 0.889890 0.297998
vt 0.997998 0.201001
vt 0.221221 0.402002
vt 0.221221 0.598999
vt 0.002002 0.598999
vt 0.887888 0.402002
vt 0.887888 0.598999
vt 0.668669 0.598999
vt 0.221221 0.802002
vt 0.002002 0.998999
vt 0.221221 0.998999
vt 0.221221 0.398999
vt 0.002002 0.398999
vt 0.221221 0.202002
vt 0.945445 0.301001
vt 0.998999 0.398999
vt 0.998999 0.301001
vt 0.554555 0.851001
vt 0.445445 0.898999
vt 0.554555 0.898999
vt 0.943443 0.701001
vt 0.889890 0.798999
vt 0.943443 0.798999
vt 0.998999 0.074500
vt 0.889890 0.074499
vt 0.944444 0.001001
vt 0.776777 0.848999
vt 0.667668 0.801001
vt 0.667668 0.848999
vt 0.943443 0.501001
vt 0.889890 0.598999
vt 0.943443 0.598999
vt 0.665666 0.848999
vt 0.556557 0.801001
vt 0.556557 0.848999
vt 0.943443 0.401001
vt 0.889890 0.498999
vt 0.943443 0.498999
vt 0.887888 0.801001
vt 0.778779 0.848999
vt 0.887888 0.848999
vt 0.998999 0.401001
vt 0.945445 0.448999
vt 0.998999 0.448999
vt 0.943443 0.848999
vt 0.889890 0.801001
vt 0.890535 0.801001
vt 0.943443 0.601001
vt 0.889890 0.698999
vt 0.943443 0.698999
vt 0.554555 0.801001
vt 0.445445 0.848999
vt 0.554555 0.848999
vt 0.943443 0.398999
vt 0.889890 0.301001
vt 0.889890 0.398999
vt 0.998999 0.151001
vt 0.945445 0.198999
vt 0.998999 0.198999
vt 0.889890 0.198999
vt 0.943443 0.151001
vt 0.943443 0.197808
vt 0.998999 0.202002
vt 0.998999 0.298999
vt 0.890891 0.298999
vt 0.556557 0.898999
vt 0.665666 0.851001
vt 0.556557 0.851001
vt 0.945445 0.101001
vt 0.998999 0.148999
vt 0.998999 0.101001
vt 0.889890 0.101001
vt 0.943443 0.148999
vt 0.943443 0.101001
vt 0.216221 0.082100
vt 0.221221 0.001001
vt 0.001001 0.065369
vt 0.134740 0.102045
vt 0.223223 0.864319
vt 0.286781 0.856912
vt 0.287604 0.856669
vt 0.233928 0.829638
vt 0.945445 0.398999
vt 0.445445 0.851001
vt 0.889890 0.701001
vt 0.998999 0.025501
vt 0.944444 0.098999
vt 0.889890 0.025500
vt 0.776777 0.801001
vt 0.889890 0.501001
vt 0.665666 0.801001
vt 0.889890 0.401001
vt 0.778779 0.801001
vt 0.945445 0.401001
vt 0.943443 0.801874
vt 0.889890 0.848999
vt 0.889890 0.601001
vt 0.445445 0.801001
vt 0.943443 0.301001
vt 0.945445 0.151001
vt 0.890364 0.198999
vt 0.889890 0.151001
vt 0.665666 0.898999
vt 0.945445 0.148999
vt 0.889890 0.148999
s 1
usemtl Leaves
f 1/1/1 2/2/1 3/3/1
f 1/4/2 3/5/2 4/6/2
f 2/7/3 1/8/3 5/9/3
f 3/10/4 2/11/4 6/12/4
f 7/13/5 1/14/5 4/15/5
f 4/16/6 3/17/6 8/18/6
f 2/19/7 5/20/7 6/21/7
f 5/22/8 10/23/8 11/24/8
f 7/25/8 15/26/8 1/27/8
f 16/28/9 3/29/9 6/30/9
f 7/31/10 4/32/10 17/33/10
f 4/34/11 8/35/11 17/36/11
f 8/37/12 3/38/12 18/39/12
f 6/40/13 5/41/13 19/42/13
f 5/43/14 7/44/14 20/45/14
f 16/46/15 6/47/15 21/48/15
f 3/49/16 16/50/16 18/51/16
f 7/52/17 17/53/17 22/54/17
f 17/55/18 8/56/18 23/57/18
f 8/58/19 18/59/19 24/60/19
f 6/61/20 19/62/20 25/63/20
f 5/64/21 20/65/21 19/66/21
f 20/67/22 7/68/22 22/69/22
f 18/70/23 16/71/23 21/72/23
f 21/73/24 6/74/24 25/75/24
f 17/76/25 23/77/25 22/78/25
f 23/79/26 8/80/26 24/81/26
f 24/82/27 18/83/27 21/84/27
f 19/85/28 26/86/28 25/87/28
f 19/88/29 20/89/29 22/90/29
f 25/91/30 26/92/30 21/93/30
f 22/94/31 23/95/31 24/96/31
f 26/97/32 24/98/32 21/99/32
f 19/100/33 22/101/33 26/102/33
f 26/103/34 22/104/34 24/105/34
f 12/166/8 7/167/8 5/22/8
f 5/22/8 1/168/8 9/169/8
f 5/22/8 9/169/8 10/23/8
f 11/24/8 12/166/8 5/22/8
f 7/25/8 12/170/8 13/171/72
f 7/25/8 13/171/72 14/172/72
f 15/26/8 9/173/8 1/27/8
f 7/25/8 14/172/72 15/26/8
usemtl Tree
f 29/106/35 27/107/36 28/108/37
f 31/109/38 28/110/39 27/111/40
f 32/112/41 29/113/42 28/114/43
f 30/115/44 34/116/44 31/117/44
f 29/118/45 33/119/45 30/120/45
f 28/121/46 39/122/47 32/123/48
f 34/124/49 36/125/50 40/126/51
f 41/127/52 31/128/52 35/129/52
f 29/130/53 42/131/53 36/132/53
f 11/133/54 32/134/54 12/135/54
f 32/136/55 43/137/56 13/138/56
f 40/139/57 35/140/58 34/141/59
f 41/142/60 39/143/60 37/144/60
f 36/145/61 45/146/62 40/147/63
f 10/148/64 38/149/64 11/150/64
f 43/151/65 44/152/65 15/153/65
f 13/154/66 43/155/66 14/156/66
f 40/157/67 44/158/68 41/159/69
f 45/160/70 10/161/70 9/162/70
f 44/163/71 9/164/71 15/165/71
f 29/106/35 30/174/73 27/107/36
f 31/109/38 37/175/74 28/110/39
f 32/112/41 38/176/75 29/113/42
f 31/117/44 27/177/44 30/115/44
f 30/115/44 33/178/44 34/116/44
f 34/116/44 35/179/44 31/117/44
f 29/118/45 36/180/45 33/119/45
f 28/121/46 37/181/76 39/122/47
f 34/124/49 33/182/77 36/125/50
f 41/127/52 37/183/52 31/128/52
f 29/130/53 38/184/53 42/131/53
f 11/133/54 38/185/54 32/134/54
f 13/138/56 12/186/55 32/136/55
f 32/136/55 39/187/55 43/137/56
f 40/139/57 41/188/78 35/140/58
f 41/142/60 44/189/60 39/143/60
f 36/145/61 42/190/79 45/146/62
f 10/148/64 42/191/64 38/149/64
f 15/153/65 14/192/80 43/151/65
f 43/151/65 39/193/65 44/152/65
f 40/157/67 45/194/81 44/158/68
f 45/160/70 42/195/70 10/161/70
f 44/163/71 45/196/71 9/164/71
