# Blender 4.4.0
# www.blender.org
mtllib Bush3.mtl
o Bush3_Icosphere.004
v -0.048322 0.833806 0.477301
v 0.297620 1.085144 0.213023
v -0.180457 1.240483 0.213023
v -0.475932 0.833806 0.213023
v 0.297620 0.582467 0.213023
v 0.083814 1.240483 -0.214589
v -0.180457 0.427129 0.213023
v -0.394263 1.085144 -0.214589
v 0.379288 0.833806 -0.214589
v -0.394263 0.582467 -0.214589
v 0.083814 0.427129 -0.214589
v -0.075146 0.427129 0.042621
v -0.054892 0.432206 0.035132
v -0.040168 0.429807 -0.000636
v -0.044006 0.427129 -0.007767
v -0.048322 0.833806 -0.478867
v -0.053790 0.436059 -0.036405
v -0.087052 0.449841 -0.051221
v -0.121869 0.458179 -0.036405
v -0.137848 0.456188 -0.000636
v -0.125627 0.445035 0.035132
v -0.092365 0.431252 0.049948
v -0.003396 -0.011546 -0.107070
v -0.025369 0.129125 -0.086884
v 0.031255 0.151773 -0.061622
v 0.071864 -0.011546 -0.075896
v -0.078656 -0.011546 -0.075896
v -0.086413 0.281744 -0.059567
v 0.103038 -0.011546 -0.000636
v 0.071864 -0.011546 0.074624
v -0.003396 -0.011546 0.105797
v -0.078656 -0.011546 0.074624
v -0.109830 -0.011546 -0.000636
v 0.054710 0.161154 -0.000636
v -0.081994 0.106476 -0.061622
v -0.044824 0.299493 -0.042306
v -0.128003 0.279162 -0.042306
v 0.031255 0.151773 0.060350
v -0.025369 0.129125 0.085611
v -0.081994 0.106476 0.060350
v -0.105448 0.097095 -0.000636
v -0.095101 0.421681 -0.051221
v -0.129492 0.431512 -0.036405
v -0.027597 0.294298 -0.000636
v -0.145230 0.278093 -0.000636
v -0.060710 0.411850 -0.036405
v -0.143738 0.435584 -0.000636
v -0.044824 0.298327 0.041034
v -0.086413 0.281744 0.058294
v -0.128003 0.279162 0.041034
v -0.046465 0.407778 -0.000636
v -0.129492 0.431512 0.035132
v -0.060710 0.411850 0.035132
v -0.095101 0.421681 0.049948
vn 0.1876 0.5774 0.7947
vn -0.4911 0.3568 0.7947
vn 0.6071 -0.0000 0.7947
vn 0.3035 0.9342 0.1876
vn -0.4911 -0.3568 0.7947
vn -0.7946 0.5774 0.1876
vn 0.9822 -0.0000 0.1876
vn 0.1876 -0.5774 0.7947
vn -0.3035 0.9342 -0.1876
vn 0.7946 0.5774 -0.1876
vn -0.7946 -0.5774 0.1876
vn -0.9822 -0.0000 -0.1876
vn 0.7946 -0.5774 -0.1876
vn 0.3035 -0.9342 0.1876
vn 0.3036 -0.9342 0.1875
vn -0.1876 0.5774 -0.7947
vn 0.4911 0.3568 -0.7947
vn -0.3035 -0.9342 -0.1876
vn -0.6071 -0.0000 -0.7947
vn 0.4911 -0.3568 -0.7947
vn -0.1876 -0.5774 -0.7947
vn 0.3536 0.1726 -0.9193
vn 0.3673 0.1826 -0.9120
vn 0.3758 0.1889 -0.9072
vn -0.3963 0.0880 -0.9139
vn -0.4130 0.0745 -0.9077
vn -0.4274 0.0627 -0.9019
vn 0.2779 0.2662 -0.9230
vn 0.2908 0.2778 -0.9156
vn 0.2949 0.2814 -0.9132
vn -0.0000 -1.0000 -0.0000
vn 0.8913 0.2506 -0.3780
vn 0.8927 0.2532 -0.3727
vn 0.8935 0.2545 -0.3701
vn -0.3882 0.0010 -0.9216
vn -0.4035 0.0006 -0.9150
vn -0.3834 0.0012 -0.9236
vn 0.8927 0.2532 0.3727
vn 0.8913 0.2506 0.3780
vn 0.8935 0.2545 0.3701
vn 0.3673 0.1826 0.9120
vn 0.3536 0.1726 0.9193
vn 0.3758 0.1889 0.9073
vn -0.3963 0.0880 0.9139
vn -0.4130 0.0745 0.9077
vn -0.3807 0.1004 0.9192
vn -0.9272 0.0300 0.3734
vn -0.9301 0.0244 0.3664
vn -0.9232 0.0372 0.3824
vn -0.9272 0.0300 -0.3734
vn -0.9301 0.0244 -0.3664
vn -0.9341 0.0167 -0.3567
vn 0.7970 0.4838 -0.3616
vn 0.8260 0.4725 -0.3072
vn 0.7876 0.4869 -0.3778
vn 0.3612 0.0938 -0.9278
vn 0.4013 0.0831 -0.9122
vn 0.3456 0.0979 -0.9333
vn -0.3853 0.0313 -0.9223
vn -0.3873 0.0318 -0.9214
vn -0.3848 0.0311 -0.9225
vn -0.9040 -0.1987 -0.3787
vn -0.9041 -0.1986 -0.3783
vn -0.9039 -0.1987 -0.3788
vn -0.9279 0.0083 -0.3727
vn -0.9249 0.0062 -0.3802
vn -0.9286 0.0088 -0.3709
vn 0.8217 0.4744 0.3158
vn 0.7959 0.4842 0.3635
vn 0.7876 0.4869 0.3778
vn 0.2917 0.2785 0.9151
vn 0.2814 0.2694 0.9210
vn 0.2948 0.2814 0.9132
vn -0.3882 0.0010 0.9216
vn -0.4035 0.0006 0.9150
vn -0.4076 0.0004 0.9132
vn -0.9040 -0.1987 0.3787
vn -0.9041 -0.1986 0.3783
vn 0.9208 0.1522 -0.3592
vn 0.9233 0.1500 -0.3534
vn 0.9199 0.1529 -0.3612
vn 0.3679 -0.1052 -0.9239
vn -0.3680 0.1052 -0.9239
vn -0.8883 0.2539 -0.3827
vn -0.9249 0.0062 0.3802
vn -0.9279 0.0083 0.3727
vn -0.9286 0.0088 0.3709
vn 0.8883 -0.2539 -0.3827
vn 0.8883 -0.2535 -0.3829
vn -0.8883 0.2539 0.3827
vn 0.9232 0.1488 0.3545
vn 0.9197 0.1517 0.3622
vn 0.9184 0.1527 0.3649
vn 0.4018 0.0830 0.9120
vn 0.3629 0.0934 0.9271
vn 0.3482 0.0972 0.9324
vn -0.3873 0.0318 0.9214
vn -0.3853 0.0313 0.9223
vn -0.3848 0.0311 0.9225
vn 0.8883 -0.2539 0.3827
vn -0.3680 0.1052 0.9239
vn -0.3679 0.1052 0.9239
vn 0.3680 -0.1052 0.9239
vn 0.3679 -0.1052 0.9239
vn 0.3454 0.1666 -0.9236
vn -0.3808 0.1004 -0.9192
vn 0.2727 0.2615 -0.9259
vn 0.8905 0.2492 -0.3808
vn -0.4076 0.0004 -0.9132
vn 0.8905 0.2492 0.3808
vn 0.3454 0.1666 0.9236
vn -0.4274 0.0627 0.9019
vn -0.9341 0.0167 0.3567
vn -0.9232 0.0372 -0.3824
vn 0.8358 0.4680 -0.2872
vn 0.4135 0.0798 -0.9070
vn -0.3878 0.0319 -0.9212
vn -0.9242 0.0058 -0.3819
vn 0.8306 0.4705 0.2979
vn 0.2773 0.2656 0.9233
vn -0.3834 0.0012 0.9236
vn -0.9039 -0.1987 0.3788
vn 0.9244 0.1491 -0.3512
vn 0.3680 -0.1052 -0.9239
vn -0.3679 0.1052 -0.9239
vn -0.9242 0.0058 0.3819
vn 0.9245 0.1476 0.3514
vn 0.4135 0.0798 0.9070
vn -0.3877 0.0319 0.9212
vt 0.011764 0.664404
vt 0.253986 0.817986
vt -0.000000 0.924491
vt 0.784550 -0.000000
vt 0.887546 0.242119
vt 0.613316 0.162801
vt 0.253986 0.533186
vt 0.234948 0.954014
vt 0.510322 0.048653
vt 0.676971 0.440409
vt -0.000000 0.085692
vt 0.274304 0.000000
vt 0.186896 0.251722
vt 0.000000 0.463672
vt 0.887546 0.449181
vt -0.000000 0.372258
vt 0.754645 0.721373
vt 0.738224 0.925901
vt 0.505190 0.860595
vt 0.443836 0.320842
vt 0.443836 0.233604
vt 0.738224 0.463672
vt 0.629720 0.643755
vt 0.625843 0.645757
vt 0.253986 0.567572
vt 0.505190 0.463672
vt 0.497761 0.718740
vt 0.274306 0.463672
vt 0.630003 0.701640
vt 0.650869 0.693379
vt 0.253986 0.854111
vt 0.505190 0.927304
vt 0.960394 0.193953
vt 1.000000 0.275208
vt 0.967449 0.276204
vt 0.923486 0.202760
vt 0.931962 0.103168
vt 0.985933 0.180198
vt 0.887547 0.566878
vt 0.966274 0.533328
vt 0.998884 0.613144
vt 0.932779 0.369575
vt 0.891757 0.276204
vt 0.938507 0.279209
vt 0.906048 0.101804
vt 0.867122 0.465773
vt 0.825678 0.560548
vt 0.833485 0.463672
vt 0.788797 0.551562
vt 0.786895 0.468843
vt 0.763536 0.546014
vt 0.754645 0.478258
vt 0.934216 0.646694
vt 0.894138 0.707352
vt 0.887547 0.650086
vt 0.920869 0.271096
vt 0.896831 0.201462
vt 0.906535 0.444426
vt 0.894900 0.372405
vt 0.948623 0.027911
vt 0.951083 0.092561
vt 0.934508 0.022854
vt 0.887547 0.097859
vt 0.913726 0.014896
vt 0.898450 0.008698
vt 0.817763 0.650661
vt 0.852574 0.567708
vt 0.772620 0.645280
vt 0.921266 0.791483
vt 0.932073 0.709086
vt 0.932210 0.449055
vt 0.905965 0.508253
vt 0.925548 0.526168
vt 0.942505 0.516884
vt 0.939760 0.533328
vt 0.919447 0.000000
vt 0.940549 0.007124
vt 0.887547 0.880442
vt 0.906223 0.886732
vt 0.890519 0.895882
vt 0.895377 0.792814
vt 0.925775 0.870958
vt 0.903926 0.874803
vt 0.927908 0.512030
vt 0.908532 0.519832
vt 0.903817 0.521117
vt 0.927283 0.878788
vt 0.887547 0.443419
vt 0.799520 0.717632
vt 0.799407 0.651763
vt 0.778712 0.725492
vt 0.754644 0.649031
vt 0.887547 0.519651
vt 0.764719 0.735369
vt 0.780742 0.730617
vt 0.767586 0.742610
vt 0.791189 0.727125
vt 0.655238 0.663013
vt 0.650332 0.652026
vt 0.505190 0.574924
vt 0.609137 0.652371
vt 0.600494 0.672644
vt 0.659512 0.673106
vt 0.609137 0.693051
vt 0.966275 0.646450
vt 0.920157 0.646694
vt 0.887547 0.613734
vt 0.920157 0.533573
vt 0.998884 0.566288
vt 0.887547 0.262875
vt 0.889531 0.507764
vt 0.803837 0.728531
s 1
usemtl Leaves.002
f 1/1/1 2/2/1 3/3/1
f 1/4/2 3/5/2 4/6/2
f 2/2/3 1/1/3 5/7/3
f 3/3/4 2/2/4 6/8/4
f 1/4/5 4/6/5 7/9/5
f 4/6/6 3/5/6 8/10/6
f 2/11/7 5/12/7 9/13/7
f 1/1/8 7/14/8 5/7/8
f 3/5/9 6/15/9 8/10/9
f 2/11/10 9/13/10 6/16/10
f 7/17/11 4/18/11 10/19/11
f 4/6/12 8/10/12 10/20/12
f 5/12/13 11/21/13 9/13/13
f 5/22/14 14/23/15 15/24/15
f 8/25/16 6/26/16 16/27/16
f 6/16/17 9/13/17 16/28/17
f 10/19/18 20/29/18 21/30/18
f 10/31/19 8/25/19 16/27/19
f 9/13/20 11/21/20 16/28/20
f 11/32/21 10/31/21 16/27/21
f 5/22/14 7/17/14 12/98/14
f 5/22/14 12/98/14 13/99/14
f 15/24/15 11/100/14 5/22/14
f 5/22/14 13/99/14 14/23/15
f 11/100/18 15/24/18 17/101/18
f 11/100/18 17/101/18 18/102/18
f 22/103/18 12/98/18 7/17/18
f 21/30/18 22/103/18 7/17/18
f 10/19/18 11/100/18 18/102/18
f 10/19/18 18/102/18 19/104/18
f 21/30/18 7/17/18 10/19/18
f 10/19/18 19/104/18 20/29/18
usemtl Tree.002
f 24/33/22 26/34/23 23/35/24
f 23/35/25 35/36/26 24/33/27
f 28/37/28 25/38/29 24/33/30
f 30/39/31 32/40/31 27/41/31
f 25/42/32 29/43/33 26/44/34
f 28/37/35 35/36/36 37/45/37
f 29/46/38 38/47/39 30/48/40
f 30/48/41 39/49/42 31/50/43
f 31/50/44 40/51/45 32/52/46
f 32/53/47 41/54/48 33/55/49
f 27/56/50 41/57/51 35/36/52
f 25/42/53 44/58/54 34/59/55
f 28/37/56 46/60/57 36/61/58
f 37/45/59 42/62/60 28/37/61
f 37/45/62 41/57/63 45/63/64
f 43/64/65 45/63/66 47/65/67
f 44/66/68 38/47/69 34/67/70
f 38/47/71 49/68/72 39/49/73
f 49/68/74 40/51/75 39/49/76
f 50/69/77 41/54/78 40/70/78
f 36/71/79 51/72/80 44/58/81
f 17/73/82 42/74/82 18/75/82
f 42/62/83 19/76/83 18/77/83
f 43/78/84 20/79/84 19/80/84
f 45/81/85 52/82/86 47/83/87
f 46/84/88 15/85/89 14/86/88
f 47/83/90 21/87/90 20/79/90
f 51/72/91 48/88/92 44/58/93
f 53/89/94 49/68/95 48/90/96
f 54/91/97 50/92/98 49/68/99
f 13/93/100 51/72/100 14/86/100
f 52/94/101 22/95/102 21/96/101
f 53/89/103 12/97/104 22/95/104
f 24/33/22 25/38/105 26/34/23
f 23/35/25 27/56/106 35/36/26
f 28/37/28 36/61/107 25/38/29
f 27/41/31 23/105/31 26/106/31
f 26/106/31 29/107/31 30/39/31
f 30/39/31 31/108/31 32/40/31
f 32/40/31 33/109/31 27/41/31
f 27/41/31 26/106/31 30/39/31
f 25/42/32 34/59/108 29/43/33
f 28/37/35 24/33/109 35/36/36
f 29/46/38 34/67/110 38/47/39
f 30/48/41 38/47/111 39/49/42
f 31/50/44 39/49/112 40/51/45
f 32/53/47 40/70/113 41/54/48
f 27/56/50 33/110/114 41/57/51
f 25/42/53 36/71/115 44/58/54
f 28/37/56 42/62/116 46/60/57
f 37/45/59 43/64/117 42/62/60
f 37/45/62 35/36/63 41/57/63
f 43/64/65 37/45/118 45/63/66
f 44/66/68 48/90/119 38/47/69
f 38/47/71 48/90/120 49/68/72
f 49/68/74 50/92/121 40/51/75
f 50/69/77 45/81/122 41/54/78
f 36/71/79 46/84/123 51/72/80
f 17/73/82 46/84/124 42/74/82
f 42/62/83 43/64/125 19/76/83
f 43/78/84 47/83/84 20/79/84
f 45/81/85 50/69/126 52/82/86
f 14/86/88 51/72/88 46/84/88
f 46/84/88 17/73/88 15/85/89
f 47/83/90 52/82/90 21/87/90
f 51/72/91 53/111/127 48/88/92
f 53/89/94 54/91/128 49/68/95
f 54/91/97 52/94/129 50/92/98
f 13/93/100 53/111/100 51/72/100
f 52/94/101 54/91/102 22/95/102
f 22/95/104 54/91/103 53/89/103
f 53/89/103 13/112/103 12/97/104
