# Blender 4.4.0
# www.blender.org
mtllib Grass3.mtl
o Grass3_Cube.003
v 0.074765 -0.008768 -0.042879
v 0.084921 0.019527 -0.045928
v 0.100617 -0.008768 -0.073688
v 0.099378 0.019527 -0.063157
v 0.089648 -0.008768 -0.030391
v 0.093884 0.019527 -0.038407
v 0.115500 -0.008768 -0.061200
v 0.108341 0.019527 -0.055637
v 0.089216 0.201146 -0.036542
v 0.097155 0.116718 -0.042694
v 0.088434 0.119574 -0.032300
v 0.091630 0.116718 -0.047330
v 0.082909 0.119574 -0.036936
v -0.079509 -0.008768 -0.139211
v -0.075152 0.015070 -0.145847
v -0.079509 -0.008768 -0.169324
v -0.075152 0.015070 -0.162687
v -0.064963 -0.008768 -0.139211
v -0.066392 0.015070 -0.145847
v -0.064963 -0.008768 -0.169324
v -0.066392 0.015070 -0.162687
v -0.066046 0.151053 -0.116784
v -0.073521 0.087840 -0.134940
v -0.073521 0.089978 -0.124781
v -0.078921 0.087840 -0.134940
v -0.078921 0.089978 -0.124781
v 0.057310 -0.008768 0.009847
v 0.056929 0.043540 0.025805
v 0.089324 -0.008768 0.061234
v 0.074833 0.043540 0.054542
v 0.032487 -0.008768 0.025312
v 0.041980 0.043540 0.035118
v 0.064502 -0.008768 0.076699
v 0.059884 0.043540 0.063855
v 0.045733 0.312896 0.042457
v 0.023263 0.196044 0.050764
v 0.012226 0.196044 0.033049
v 0.032478 0.196044 0.045023
v 0.021441 0.196044 0.027308
v -0.097333 -0.008768 -0.025952
v -0.088572 0.043540 -0.039295
v -0.097334 -0.008768 -0.086496
v -0.088572 0.043540 -0.073153
v -0.068088 -0.008768 -0.025952
v -0.070960 0.043540 -0.039295
v -0.068088 -0.008768 -0.086496
v -0.070960 0.043540 -0.073153
v -0.070264 0.312896 -0.047509
v -0.085294 0.196044 -0.052447
v -0.085294 0.196044 -0.031576
v -0.096151 0.196044 -0.052447
v -0.096151 0.196044 -0.031576
v 0.063347 -0.008768 -0.133154
v 0.044516 0.062096 -0.120946
v 0.029057 -0.008768 -0.055247
v 0.025340 0.062096 -0.077379
v 0.025714 -0.008768 -0.149717
v 0.021852 0.062096 -0.130921
v -0.008576 -0.008768 -0.071811
v 0.002677 0.062096 -0.087354
v 0.047113 0.144985 -0.139530
v 0.033754 0.144985 -0.109177
v 0.016135 0.144985 -0.116714
v 0.029494 0.144985 -0.147066
v 0.028414 0.318635 -0.099683
v 0.007409 0.210416 -0.068037
v 0.020176 0.207257 -0.097043
v 0.036143 0.207257 -0.090234
v 0.023377 0.210416 -0.061228
v -0.063530 -0.008768 0.041907
v -0.047161 0.049946 0.032995
v -0.030185 -0.008768 -0.020428
v -0.028513 0.049946 -0.001865
v -0.033419 -0.008768 0.058015
v -0.029027 0.049946 0.042696
v -0.000074 -0.008768 -0.004320
v -0.010379 0.049946 0.007836
v -0.045817 0.157580 0.050532
v -0.032825 0.157580 0.026246
v -0.023389 0.157580 0.031294
v -0.036381 0.157580 0.055579
v -0.044801 0.218035 0.028062
v -0.032962 0.223283 0.005930
v -0.026169 0.223283 0.009564
v -0.038008 0.218035 0.031696
v -0.044737 0.314478 0.036108
v -0.078127 0.119792 -0.096932
v -0.092362 0.119792 -0.069567
v -0.092362 0.119792 -0.096932
v -0.078127 0.119792 -0.069567
v 0.112713 0.068123 -0.074456
v 0.093880 0.069550 -0.066722
v 0.105469 0.068123 -0.080534
v 0.101124 0.069550 -0.060644
v 0.041573 0.119792 0.084373
v 0.039185 0.119792 0.053619
v 0.053655 0.119792 0.076846
v 0.027103 0.119792 0.061147
vn -0.7503 0.2015 -0.6296
vn 0.6134 0.2989 -0.7310
vn 0.7643 0.0673 0.6413
vn -0.6134 0.2989 0.7310
vn -0.0000 -1.0000 -0.0000
vn -0.7320 0.2289 -0.6417
vn -0.7136 0.2370 -0.6593
vn -0.7342 0.2279 -0.6396
vn -0.0000 -0.1298 0.9915
vn 0.5250 0.5770 -0.6257
vn -0.5519 -0.5127 0.6577
vn 0.7422 -0.1829 0.6447
vn 0.7278 -0.1896 0.6591
vn 0.7256 -0.1906 0.6612
vn -0.0000 0.2761 -0.9611
vn 0.9918 -0.1248 0.0263
vn -0.9763 0.2116 -0.0445
vn -0.9837 0.1798 -0.0000
vn -0.0000 0.2682 -0.9634
vn 0.9982 0.0598 -0.0000
vn -0.0000 0.2682 0.9634
vn -0.9987 -0.0518 0.0008
vn -0.9985 -0.0532 0.0101
vn -0.9987 -0.0517 -0.0000
vn -0.0000 0.3563 -0.9344
vn -0.0000 -0.2707 0.9627
vn 0.9952 0.0977 -0.0014
vn 0.9948 0.1003 -0.0191
vn 0.9947 0.1006 -0.0212
vn 0.8371 0.1652 -0.5215
vn 0.5124 0.2472 0.8224
vn -0.8475 0.0548 0.5280
vn -0.5124 0.2472 -0.8224
vn 0.8487 0.0150 -0.5287
vn -0.8849 0.0393 -0.4641
vn 0.4727 0.4480 0.7588
vn 0.4728 0.4480 0.7588
vn -0.4883 -0.3840 -0.7837
vn -0.4882 -0.3840 -0.7837
vn -0.8484 0.0292 0.5286
vn 0.8772 0.0393 0.4785
vn 0.4448 0.3326 -0.8316
vn -0.4704 -0.0731 0.8794
vn -0.9863 0.1652 -0.0000
vn -0.0000 0.2472 -0.9690
vn 0.9985 0.0548 -0.0000
vn -0.0000 0.2472 0.9690
vn -0.9988 -0.0496 -0.0000
vn -0.5164 0.2148 -0.8289
vn -0.0000 0.5039 -0.8638
vn -0.0000 -0.4459 0.8951
vn 0.9956 0.0936 -0.0000
vn 0.5283 -0.0413 0.8480
vn -0.8321 0.1969 0.5184
vn 0.8439 -0.1073 -0.5257
vn 0.9017 0.1713 0.3969
vn -0.3894 0.2559 0.8848
vn -0.9138 0.0569 -0.4022
vn 0.3894 0.2559 -0.8848
vn 0.9135 0.0615 0.4021
vn 0.3923 -0.2125 -0.8949
vn 0.3861 -0.2109 -0.8980
vn 0.3936 -0.2128 -0.8943
vn -0.3739 0.3647 0.8528
vn -0.3679 0.3633 0.8559
vn -0.3665 0.3630 0.8567
vn -0.9153 0.0059 -0.4028
vn -0.0000 0.1351 0.9908
vn -0.0000 0.0422 -0.9991
vn 0.9918 -0.1276 -0.0000
vn -0.9763 0.2163 -0.0000
vn -0.3166 -0.5930 0.7404
vn -0.3160 -0.5929 0.7407
vn -0.3167 -0.5930 0.7403
vn 0.3074 0.6235 -0.7189
vn 0.3068 0.6234 -0.7192
vn 0.3067 0.6234 -0.7192
vn 0.9029 -0.1564 0.4004
vn 0.8983 -0.1591 0.4097
vn 0.8970 -0.1598 0.4122
vn -0.8983 0.1843 -0.3989
vn -0.8927 0.1874 -0.4098
vn -0.8997 0.1835 -0.3960
vn -0.8687 0.1716 -0.4647
vn 0.4559 0.2565 -0.8523
vn 0.8803 0.0570 0.4709
vn -0.4559 0.2565 0.8523
vn -0.8784 0.0875 -0.4699
vn 0.8590 0.2046 0.4693
vn 0.8475 0.2017 0.4910
vn 0.8629 0.2056 0.4616
vn -0.4673 -0.1365 0.8735
vn -0.4672 -0.1365 0.8735
vn 0.4577 0.2418 -0.8556
vn 0.8818 0.0038 0.4717
vn 0.8817 0.0038 0.4717
vn -0.8675 -0.1577 -0.4717
vn -0.8587 -0.1554 -0.4883
vn -0.8555 -0.1546 -0.4943
vn -0.4471 0.3182 0.8360
vn -0.4472 0.3182 0.8359
vn 0.4552 -0.2622 -0.8509
vn -0.9114 0.0578 -0.4074
vn 0.9148 0.0967 0.3921
vn 0.3918 -0.0508 -0.9187
vn -0.3708 0.3262 0.8695
vn -0.7562 0.0616 -0.6514
vn 0.7693 0.0258 0.6384
vn 0.6385 0.1155 -0.7609
vn -0.6421 0.0460 0.7652
vn -0.0000 0.3690 0.9294
vn -0.0000 -0.2977 -0.9547
vn 0.7562 0.1723 0.6312
vn 0.7614 0.1724 0.6250
vn 0.7546 0.1722 0.6332
vn -0.5897 0.3978 0.7028
vn -0.5897 0.3978 0.7029
vn 0.6058 -0.3341 -0.7221
vn 0.6058 -0.3341 -0.7220
vn -0.7609 -0.1290 -0.6360
vn -0.7647 -0.1290 -0.6313
vn -0.7662 -0.1291 -0.6295
vn -0.8021 -0.3271 0.4997
vn -0.5198 0.1834 -0.8344
vn -0.5199 0.1834 -0.8343
vn 0.5261 -0.1009 0.8444
vn 0.7906 0.3637 -0.4926
vn 0.7907 0.3637 -0.4926
vn 0.6134 0.2989 -0.7311
vn -0.7108 0.2382 -0.6618
vn 0.7439 -0.1821 0.6430
vn -0.9985 -0.0534 0.0112
vn 0.9952 0.0975 -0.0000
vn 0.3844 -0.2105 -0.8988
vn -0.3751 0.3650 0.8521
vn -0.3159 -0.5929 0.7407
vn 0.3075 0.6235 -0.7189
vn 0.9041 -0.1557 0.3979
vn -0.8912 0.1882 -0.4128
vn -0.8687 0.1717 -0.4647
vn 0.8433 0.2006 0.4987
vn -0.8706 -0.1585 -0.4657
vn 0.7633 0.1724 0.6226
vn -0.5898 0.3978 0.7028
vn -0.7596 -0.1289 -0.6374
vt 0.453953 0.777208
vt 0.501348 0.821009
vt 0.443289 0.821421
vt 0.581570 0.777356
vt 0.604263 0.822127
vt 0.576338 0.822127
vt 0.382138 0.541352
vt 0.426790 0.497571
vt 0.414565 0.541236
vt 0.749086 0.542666
vt 0.768188 0.497125
vt 0.766229 0.542666
vt 0.052544 0.675597
vt 0.022650 0.613714
vt 0.052544 0.613714
vt 0.490417 0.701095
vt 0.462779 0.627579
vt 0.516397 0.703098
vt 0.052544 0.648441
vt 0.060203 0.649632
vt 0.069744 0.740228
vt 0.598146 0.705943
vt 0.584180 0.625827
vt 0.594546 0.625827
vt 0.757635 0.625411
vt 0.740223 0.689024
vt 0.743780 0.625411
vt 0.417272 0.618685
vt 0.388416 0.690763
vt 0.368807 0.695224
vt 0.251041 0.605094
vt 0.243194 0.605584
vt 0.261257 0.504546
vt 0.155789 0.596454
vt 0.142455 0.603435
vt 0.137829 0.504546
vt 0.331135 0.599312
vt 0.317410 0.592841
vt 0.331051 0.498210
vt 0.350777 0.717666
vt 0.308214 0.746074
vt 0.326975 0.712273
vt 0.246106 0.721562
vt 0.261257 0.758259
vt 0.240119 0.759578
vt 0.130641 0.722901
vt 0.172821 0.749622
vt 0.130641 0.760938
vt 0.052565 0.543464
vt 0.073177 0.508149
vt 0.064991 0.545397
vt 0.022650 0.660048
vt 0.000269 0.613714
vt 0.022650 0.613714
vt 0.258835 0.720768
vt 0.154229 0.716573
vt 0.767455 0.412011
vt 0.820418 0.497125
vt 0.748028 0.492493
vt 0.674541 0.576430
vt 0.637589 0.495916
vt 0.672792 0.495047
vt 0.741883 0.082892
vt 0.674541 0.019683
vt 0.748028 0.000000
vt 0.874358 0.413382
vt 0.853560 0.494672
vt 0.853096 0.412426
vt 0.073177 0.504940
vt 0.118177 0.598097
vt 0.073177 0.598097
vt 0.773514 0.289814
vt 0.776565 0.173233
vt 0.806234 0.291908
vt 0.441372 0.140397
vt 0.403066 0.148404
vt 0.393350 -0.000000
vt 0.630579 0.694145
vt 0.652030 0.813741
vt 0.613445 0.694568
vt 0.837604 0.292675
vt 0.865463 0.181997
vt 0.878570 0.182587
vt 0.704110 0.197746
vt 0.703771 0.315397
vt 0.678437 0.322182
vt 0.295014 0.349698
vt 0.333153 0.357767
vt 0.284285 0.498210
vt 0.847209 0.640958
vt 0.835505 0.640958
vt 0.835862 0.496260
vt 0.778098 0.844139
vt 0.789881 0.844139
vt 0.779094 0.986006
vt 0.547089 0.415367
vt 0.476406 0.496671
vt 0.498019 0.415348
vt 0.282371 0.914434
vt 0.308214 0.996732
vt 0.265632 0.996628
vt 0.643486 0.081377
vt 0.576338 -0.000000
vt 0.664135 0.001011
vt 0.541998 0.580369
vt 0.576338 0.499212
vt 0.567236 0.581878
vt 0.118175 0.598097
vt 0.073177 0.691254
vt 0.073177 0.598097
vt 0.536678 0.298940
vt 0.506654 0.182505
vt 0.576338 0.298956
vt 0.888866 0.000000
vt 0.261257 0.801708
vt 0.289746 0.677728
vt 0.281983 0.801759
vt 0.523254 0.704654
vt 0.558193 0.806246
vt 0.542635 0.805316
vt 0.634858 0.198965
vt 0.606604 0.316328
vt 0.576338 0.315980
vt 0.665098 0.813419
vt 0.674541 0.992450
vt 0.748028 0.492676
vt 0.751609 0.171636
vt 0.820418 0.000000
vt 0.233453 0.109783
vt 0.130641 -0.000000
vt 0.261257 0.000119
vt 0.718932 0.605427
vt 0.674541 0.492676
vt 0.737768 0.492676
vt 0.028965 0.395754
vt 0.130641 0.504939
vt -0.000000 0.504939
vt 0.931573 0.396742
vt 0.888866 0.508168
vt 0.893604 0.396742
vt 0.172821 0.504546
vt 0.236085 0.635515
vt 0.172821 0.635516
vt 0.210369 0.237509
vt 0.160410 0.109716
vt 0.927120 0.272736
vt 0.680856 0.605427
vt 0.711749 0.741042
vt 0.682272 0.740972
vt 0.102023 0.395754
vt 0.079192 0.268557
vt 0.130089 0.268557
vt 0.576338 0.987952
vt 0.273939 0.677689
vt 0.308214 0.498211
vt 0.607571 0.495047
vt 0.476406 0.182493
vt 0.507832 -0.000000
vt 0.696836 0.821958
vt 0.910061 0.169558
vt 0.936701 0.169589
vt 0.183771 0.332643
vt 0.135123 0.337456
vt 0.053334 0.171624
vt 0.451553 0.406233
vt 0.368807 0.497452
vt 0.391380 0.406166
vt 0.833666 0.907659
vt 0.872297 1.000000
vt 0.820418 1.000000
vt 0.345348 0.090474
vt 0.261257 0.000000
vt 0.368807 -0.000000
vt 0.784102 0.590561
vt 0.820418 0.497125
vt 0.815557 0.590561
vt 0.052544 0.504940
vt -0.000000 0.613713
vt -0.000000 0.504939
vt 0.410729 0.239941
vt 0.303668 0.255985
vt 0.261767 0.255985
vt 0.791969 0.746421
vt 0.864910 0.907658
vt 0.844252 0.738656
vt 0.860509 0.738656
vt 0.285202 0.090474
vt 0.004721 0.166779
vt 0.062394 0.000000
vt 0.192849 0.504546
vt 0.922182 0.000000
vt 0.723538 0.822029
vt 0.707414 0.997248
vt 0.443289 0.623338
vt 0.448775 0.497571
vt 0.373998 0.820747
vt 0.591217 0.495047
vt 0.750790 0.689024
vt 0.740137 0.812224
vt 0.594388 0.080811
vt 0.543652 0.705873
vt 0.308014 0.914496
vt 0.598386 0.777357
vt 0.486421 0.776977
vt 0.700786 0.093899
vt 0.653341 0.576953
vt 0.807939 0.414601
vt 0.368807 0.497778
vt 0.739723 0.497125
vt 0.022650 0.675597
vt 0.584554 0.705943
vt 0.443289 0.616399
vt 0.350777 0.755719
vt 0.052544 0.504939
vt 0.000269 0.660048
vt 0.888866 0.496260
vt 0.118177 0.504939
vt 0.820418 0.291902
vt 0.737325 0.188850
vt 0.564151 0.496707
vt 0.534431 0.496707
vt 0.118176 0.691254
vt 0.674541 0.199422
vt 0.951913 0.508168
vt 0.236086 0.504546
vt 0.261257 0.237555
vt 0.897712 0.272704
vt 0.476406 0.497571
vt 0.768188 0.497125
vt 0.052544 0.613714
vt 0.368807 0.239895
vt 0.808336 0.746422
s 1
usemtl Leaves.005
f 2/1/1 3/2/1 1/3/1
f 4/4/2 7/5/2 3/6/2
f 6/7/3 7/8/3 8/9/3
f 2/10/4 5/11/4 6/12/4
f 3/13/5 5/14/5 1/15/5
f 92/16/6 12/17/7 93/18/8
f 26/19/9 24/20/9 22/21/9
f 91/22/10 12/23/10 10/24/10
f 94/25/11 13/26/11 92/27/11
f 94/28/12 10/29/13 11/30/14
f 23/31/15 25/32/15 22/33/15
f 24/34/16 23/35/16 22/36/16
f 25/37/17 26/38/17 22/39/17
f 17/40/18 14/41/18 15/42/18
f 17/43/19 20/44/19 16/45/19
f 21/46/20 18/47/20 20/48/20
f 15/49/21 18/50/21 19/51/21
f 16/52/5 18/53/5 14/54/5
f 15/42/22 25/37/23 17/40/24
f 17/43/25 23/31/25 21/55/25
f 15/49/26 24/20/26 26/19/26
f 19/56/27 23/35/28 24/34/29
f 28/57/30 29/58/30 27/59/30
f 30/60/31 33/61/31 29/62/31
f 34/63/32 31/64/32 33/65/32
f 28/66/33 31/67/33 32/68/33
f 29/69/5 31/70/5 27/71/5
f 96/72/34 38/73/34 97/74/34
f 83/75/35 82/76/35 86/77/35
f 97/78/36 36/79/37 95/80/36
f 96/81/38 37/82/39 39/83/39
f 98/84/40 36/85/40 37/86/40
f 85/87/41 84/88/41 86/89/41
f 84/90/42 83/91/42 86/92/42
f 82/93/43 85/94/43 86/95/43
f 43/96/44 40/97/44 41/98/44
f 43/99/45 46/100/45 42/101/45
f 47/102/46 44/103/46 46/104/46
f 41/105/47 44/106/47 45/107/47
f 40/108/5 46/109/5 44/110/5
f 88/111/48 51/112/48 89/113/48
f 39/83/49 37/82/49 35/114/49
f 89/115/50 49/116/50 87/117/50
f 88/118/51 50/119/51 52/120/51
f 90/121/52 49/122/52 50/123/52
f 36/79/53 38/124/53 35/125/53
f 37/86/54 36/85/54 35/126/54
f 38/73/55 39/127/55 35/128/55
f 54/129/56 55/130/56 53/131/56
f 56/132/57 59/133/57 55/134/57
f 60/135/58 57/136/58 59/137/58
f 54/138/59 57/139/59 58/140/59
f 55/141/5 57/142/5 53/143/5
f 54/129/60 62/144/60 56/145/60
f 58/140/61 61/146/62 54/138/63
f 60/147/64 62/148/65 63/149/66
f 58/150/67 63/151/67 64/152/67
f 52/120/68 50/119/68 48/153/68
f 49/116/69 51/154/69 48/155/69
f 50/123/70 49/122/70 48/156/70
f 51/112/71 52/157/71 48/158/71
f 62/148/72 66/159/73 63/149/74
f 61/146/75 67/160/76 68/161/77
f 62/144/78 68/162/79 69/163/80
f 63/151/81 67/164/82 64/152/83
f 73/165/84 70/166/84 71/167/84
f 73/168/85 76/169/85 72/170/85
f 77/171/86 74/172/86 76/173/86
f 71/174/87 74/175/87 75/176/87
f 70/177/5 76/178/5 74/179/5
f 71/167/88 79/180/88 73/165/88
f 80/181/89 85/87/90 81/182/91
f 75/176/92 78/183/93 71/174/92
f 77/184/94 79/185/94 80/186/94
f 75/187/95 80/181/96 81/182/96
f 79/180/97 82/76/98 83/75/99
f 78/183/100 85/94/101 82/93/101
f 79/185/102 84/90/102 80/186/102
f 67/164/103 66/188/103 65/189/103
f 69/163/104 68/162/104 65/190/104
f 68/161/105 67/160/105 65/191/105
f 66/159/106 69/192/106 65/193/106
f 12/17/107 13/194/107 9/195/107
f 11/30/108 10/29/108 9/196/108
f 10/24/109 12/23/109 9/197/109
f 13/26/110 11/198/110 9/199/110
f 47/102/52 90/121/52 45/200/52
f 41/105/111 90/201/111 88/118/111
f 43/99/112 87/117/112 47/202/112
f 43/96/48 88/111/48 89/113/48
f 8/9/113 94/28/114 6/7/115
f 2/10/116 94/25/116 92/27/117
f 4/4/118 91/22/119 8/203/118
f 4/204/120 92/16/121 93/18/122
f 34/63/123 98/84/123 32/205/123
f 32/68/124 96/81/125 28/66/124
f 34/206/126 97/78/126 95/80/126
f 30/207/127 96/72/127 97/74/128
f 2/1/1 4/204/1 3/2/1
f 4/4/2 8/203/129 7/5/2
f 6/7/3 5/208/3 7/8/3
f 2/10/4 1/209/4 5/11/4
f 3/13/5 7/210/5 5/14/5
f 92/16/6 13/194/130 12/17/7
f 91/22/10 93/211/10 12/23/10
f 94/25/11 11/198/11 13/26/11
f 94/28/12 91/212/131 10/29/13
f 17/40/18 16/213/18 14/41/18
f 17/43/19 21/55/19 20/44/19
f 21/46/20 19/56/20 18/47/20
f 15/49/21 14/214/21 18/50/21
f 16/52/5 20/215/5 18/53/5
f 15/42/22 26/38/132 25/37/23
f 17/43/25 25/32/25 23/31/25
f 15/49/26 19/51/26 24/20/26
f 19/56/27 21/46/133 23/35/28
f 28/57/30 30/207/30 29/58/30
f 30/60/31 34/206/31 33/61/31
f 34/63/32 32/205/32 31/64/32
f 28/66/33 27/216/33 31/67/33
f 29/69/5 33/217/5 31/70/5
f 96/72/34 39/127/34 38/73/34
f 97/78/36 38/124/37 36/79/37
f 96/81/38 98/218/38 37/82/39
f 98/84/40 95/219/40 36/85/40
f 43/96/44 42/220/44 40/97/44
f 43/99/45 47/202/45 46/100/45
f 47/102/46 45/200/46 44/103/46
f 41/105/47 40/221/47 44/106/47
f 40/108/5 42/222/5 46/109/5
f 88/111/48 52/157/48 51/112/48
f 89/115/50 51/154/50 49/116/50
f 88/118/51 90/201/51 50/119/51
f 90/121/52 87/223/52 49/122/52
f 54/129/56 56/145/56 55/130/56
f 56/132/57 60/147/57 59/133/57
f 60/135/58 58/150/58 57/136/58
f 54/138/59 53/224/59 57/139/59
f 55/141/5 59/225/5 57/142/5
f 54/129/60 61/226/60 62/144/60
f 58/140/61 64/227/134 61/146/62
f 60/147/64 56/132/135 62/148/65
f 58/150/67 60/135/67 63/151/67
f 62/148/72 69/192/136 66/159/73
f 61/146/75 64/227/137 67/160/76
f 62/144/78 61/226/138 68/162/79
f 63/151/81 66/188/139 67/164/82
f 73/165/84 72/228/140 70/166/84
f 73/168/85 77/184/85 76/169/85
f 77/171/86 75/187/86 74/172/86
f 71/174/87 70/229/87 74/175/87
f 70/177/5 72/230/5 76/178/5
f 71/167/88 78/231/88 79/180/88
f 80/181/89 84/88/141 85/87/90
f 75/176/92 81/232/93 78/183/93
f 77/184/94 73/168/94 79/185/94
f 75/187/95 77/171/95 80/181/96
f 79/180/97 78/231/142 82/76/98
f 78/183/100 81/232/100 85/94/101
f 79/185/102 83/91/102 84/90/102
f 47/102/52 87/223/52 90/121/52
f 41/105/111 45/107/111 90/201/111
f 43/99/112 89/115/112 87/117/112
f 43/96/48 41/98/48 88/111/48
f 8/9/113 91/212/143 94/28/114
f 2/10/116 6/12/144 94/25/116
f 4/4/118 93/211/119 91/22/119
f 4/204/120 2/1/145 92/16/121
f 34/63/123 95/219/123 98/84/123
f 32/68/124 98/218/125 96/81/125
f 34/206/126 30/60/126 97/78/126
f 30/207/127 28/57/127 96/72/127
