# Blender 4.4.0
# www.blender.org
mtllib Grass1.mtl
o Grass1_Cube
v 0.102034 -0.005692 0.004993
v 0.101923 0.039386 0.004993
v 0.102034 -0.005692 -0.004993
v 0.101923 0.039386 -0.004993
v 0.049292 -0.005692 0.004993
v 0.049403 0.034563 0.004993
v 0.049292 -0.005692 -0.004993
v 0.049403 0.034563 -0.004993
v 0.093656 0.078459 0.004696
v 0.093656 0.078459 -0.004696
v 0.044260 0.073923 -0.004696
v 0.044260 0.073923 0.004696
v 0.074679 0.120252 0.003404
v 0.074679 0.120252 -0.003404
v 0.040421 0.109314 -0.003404
v 0.040421 0.109314 0.003404
v 0.052935 0.163110 0.002194
v 0.052935 0.163110 -0.002194
v 0.030853 0.156060 -0.002194
v 0.030853 0.156060 0.002194
v 0.023217 0.206165 0.001326
v 0.023217 0.206165 -0.001326
v 0.011030 0.199267 -0.001326
v 0.011030 0.199267 0.001326
v -0.102034 -0.005692 0.004993
v -0.101923 0.039386 0.004993
v -0.102034 -0.005692 -0.004993
v -0.101923 0.039386 -0.004993
v -0.049292 -0.005692 0.004993
v -0.049403 0.034563 0.004993
v -0.049292 -0.005692 -0.004993
v -0.049403 0.034563 -0.004993
v -0.093656 0.078459 0.004696
v -0.093656 0.078459 -0.004696
v -0.044260 0.073923 -0.004696
v -0.044260 0.073923 0.004696
v -0.074679 0.120252 0.003404
v -0.074679 0.120252 -0.003404
v -0.040421 0.109314 -0.003404
v -0.040421 0.109314 0.003404
v -0.052935 0.163110 0.002194
v -0.052935 0.163110 -0.002194
v -0.030853 0.156060 -0.002194
v -0.030853 0.156060 0.002194
v -0.023217 0.206165 0.001326
v -0.023217 0.206165 -0.001326
v -0.011030 0.199267 -0.001326
v -0.011030 0.199267 0.001326
vn 1.0000 0.0025 -0.0000
vn -0.0000 -0.0000 -1.0000
vn -0.0003 0.0037 -1.0000
vn -1.0000 0.0028 -0.0000
vn -0.0003 0.0037 1.0000
vn -0.0000 -0.0000 1.0000
vn -0.0000 -1.0000 -0.0000
vn 0.9783 0.2070 -0.0000
vn -0.9942 -0.1078 -0.0000
vn -0.0007 0.0075 1.0000
vn -0.0007 0.0075 -1.0000
vn -0.9916 -0.1296 -0.0000
vn -0.0062 0.0170 0.9998
vn -0.0110 0.0266 0.9996
vn -0.0082 0.0248 0.9997
vn 0.9105 0.4134 -0.0000
vn -0.0064 0.0321 0.9995
vn -0.0027 0.0297 0.9996
vn -0.0064 0.0321 -0.9995
vn -0.0082 0.0248 -0.9997
vn -0.0027 0.0297 -0.9996
vn -0.9089 -0.4170 -0.0000
vn -0.0110 0.0266 -0.9996
vn -0.0062 0.0170 -0.9998
vn -0.9797 -0.2005 -0.0000
vn 0.8918 0.4524 -0.0000
vn -0.4926 0.8703 -0.0000
vn 0.8230 0.5681 -0.0000
vn -0.0080 0.0161 0.9998
vn -0.0068 0.0203 0.9998
vn -0.0068 0.0203 -0.9998
vn -0.0080 0.0161 -0.9998
vn -1.0000 0.0025 -0.0000
vn 0.0003 0.0037 -1.0000
vn 1.0000 0.0028 -0.0000
vn 0.0003 0.0037 1.0000
vn -0.9783 0.2070 -0.0000
vn 0.9942 -0.1078 -0.0000
vn 0.0007 0.0075 1.0000
vn 0.0007 0.0075 -1.0000
vn 0.9916 -0.1296 -0.0000
vn 0.0110 0.0266 0.9996
vn 0.0062 0.0170 0.9998
vn 0.0082 0.0248 0.9997
vn -0.9105 0.4134 -0.0000
vn 0.0064 0.0321 0.9995
vn 0.0027 0.0297 0.9996
vn 0.0064 0.0321 -0.9995
vn 0.0082 0.0248 -0.9997
vn 0.0110 0.0266 -0.9996
vn 0.9089 -0.4170 -0.0000
vn 0.0062 0.0170 -0.9998
vn 0.0068 0.0203 -0.9998
vn 0.9797 -0.2005 -0.0000
vn -0.8918 0.4524 -0.0000
vn 0.4926 0.8703 -0.0000
vn -0.8230 0.5681 -0.0000
vn 0.0068 0.0203 0.9998
vn 0.0080 0.0161 0.9998
vn 0.0080 0.0161 -0.9998
vn 0.0090 0.0159 -0.9998
vn -0.0090 0.0159 0.9998
vn -0.0090 0.0159 -0.9998
vn 0.0027 0.0297 -0.9996
vn 0.0090 0.0159 0.9998
vt 0.857329 0.000000
vt 0.892997 0.160965
vt 0.857329 0.160965
vt 0.185184 0.795620
vt 0.026768 0.619806
vt 0.214332 0.637293
vt 0.964332 0.754050
vt 0.928665 0.610307
vt 0.964332 0.610307
vt 0.241100 0.175814
vt 0.399516 0.000000
vt 0.428665 0.158327
vt 0.892997 0.763708
vt 0.928665 0.952090
vt 0.892997 0.952090
vt 0.891936 0.301239
vt 0.929726 0.470242
vt 0.958657 0.344230
vt 0.963271 0.470242
vt 0.425245 0.300934
vt 0.210913 0.494686
vt 0.337764 0.624943
vt 0.258562 0.444216
vt 0.386014 0.460165
vt 0.887321 0.452211
vt 0.858390 0.301239
vt 0.248837 0.317382
vt 0.034505 0.478238
vt 0.171681 0.335455
vt 0.941762 0.025752
vt 0.954335 0.178201
vt 0.938662 0.178201
vt 0.044230 0.351404
vt 0.123432 0.170677
vt 0.934340 0.344230
vt 0.883000 0.607241
vt 0.863005 0.452211
vt 0.941762 0.000000
vt 0.951235 0.025752
vt 0.879899 0.763708
vt 0.867327 0.607241
vt 0.261642 0.795620
vt 0.255612 0.614664
vt 0.041280 0.180955
vt 0.047310 0.000000
vt 0.928665 0.602743
vt 0.892997 0.763708
vt 0.892997 0.602743
vt 0.616229 0.619806
vt 0.457813 0.795620
vt 0.428665 0.637293
vt 0.964332 0.143744
vt 1.000000 0.000000
vt 1.000000 0.143744
vt 0.830562 0.175814
vt 0.672146 0.000000
vt 0.857329 0.034565
vt 0.892997 0.763708
vt 0.857329 0.952090
vt 0.857329 0.763708
vt 0.927604 0.462469
vt 0.998939 0.283808
vt 0.970008 0.409821
vt 0.965393 0.283808
vt 0.646417 0.300934
vt 0.642997 0.158327
vt 0.432085 0.494686
vt 0.608492 0.478238
vt 0.813100 0.444216
vt 0.733898 0.624943
vt 0.685648 0.460165
vt 0.894058 0.462469
vt 0.922989 0.311497
vt 0.822825 0.317382
vt 0.471316 0.335455
vt 0.598767 0.351404
vt 0.990003 0.575850
vt 0.977430 0.728298
vt 0.974330 0.575850
vt 0.519565 0.170677
vt 0.601718 0.180955
vt 0.994324 0.409821
vt 0.898673 0.311497
vt 0.918667 0.156467
vt 0.986902 0.728298
vt 0.977430 0.754050
vt 0.902994 0.156467
vt 0.915567 0.000000
vt 0.816050 0.614664
vt 0.810019 0.795620
vt 0.595687 0.000000
vt 0.642997 0.016230
vt 0.892997 0.000000
vt 0.000000 0.761055
vt 0.928665 0.754050
vt 0.214332 0.034565
vt 0.928665 0.763708
vt 0.951235 0.000000
vt 0.870427 0.763708
vt 0.214332 0.779390
vt 0.000000 0.016230
vt 0.928665 0.763708
vt 0.642997 0.761055
vt 0.964332 0.000000
vt 0.892997 0.952090
vt 0.986902 0.754050
vt 0.906095 0.000000
vt 0.857329 0.779390
s 1
usemtl Leaves.003
f 1/1/1 4/2/1 2/3/1
f 3/4/2 8/5/3 4/6/3
f 7/7/4 6/8/4 8/9/4
f 6/10/5 1/11/6 2/12/5
f 5/13/7 3/14/7 1/15/7
f 10/16/8 2/3/8 4/2/8
f 12/17/9 15/18/9 11/19/9
f 9/20/10 6/10/5 2/12/5
f 8/5/3 10/21/11 4/6/3
f 12/17/12 8/9/12 6/8/12
f 17/22/13 16/23/14 13/24/15
f 14/25/16 9/26/16 10/16/16
f 13/24/15 12/27/17 9/20/18
f 11/28/19 14/29/20 10/21/21
f 24/30/22 19/31/22 20/32/22
f 15/33/23 18/34/24 14/29/20
f 20/32/25 15/18/25 16/35/25
f 18/36/26 13/37/26 14/25/26
f 21/38/27 23/39/27 24/30/27
f 22/40/28 17/41/28 18/36/28
f 21/42/29 20/43/30 17/22/13
f 19/44/31 22/45/32 18/34/24
f 28/46/33 25/47/33 26/48/33
f 32/49/34 27/50/2 28/51/34
f 30/52/35 31/53/35 32/54/35
f 30/55/36 25/56/6 29/57/6
f 27/58/7 29/59/7 25/60/7
f 26/48/37 34/61/37 28/46/37
f 35/62/38 40/63/38 36/64/38
f 30/55/36 33/65/39 26/66/36
f 32/49/34 34/67/40 35/68/40
f 32/54/41 36/64/41 30/52/41
f 40/69/42 41/70/43 37/71/44
f 33/72/45 38/73/45 34/61/45
f 36/74/46 37/71/44 33/65/47
f 35/68/48 38/75/49 39/76/50
f 43/77/51 48/78/51 44/79/51
f 39/76/50 42/80/52 43/81/53
f 39/82/54 44/79/54 40/63/54
f 37/83/55 42/84/55 38/73/55
f 47/85/56 45/86/56 48/78/56
f 41/87/57 46/88/57 42/84/57
f 44/89/58 45/90/59 41/70/43
f 43/81/53 46/91/60 47/92/61
f 1/1/1 3/93/1 4/2/1
f 3/4/2 7/94/2 8/5/3
f 7/7/4 5/95/4 6/8/4
f 6/10/5 5/96/6 1/11/6
f 5/13/7 7/97/7 3/14/7
f 10/16/8 9/26/8 2/3/8
f 12/17/9 16/35/9 15/18/9
f 9/20/10 12/27/10 6/10/5
f 8/5/3 11/28/11 10/21/11
f 12/17/12 11/19/12 8/9/12
f 17/22/13 20/43/30 16/23/14
f 14/25/16 13/37/16 9/26/16
f 13/24/15 16/23/14 12/27/17
f 11/28/19 15/33/23 14/29/20
f 24/30/22 23/39/22 19/31/22
f 15/33/23 19/44/31 18/34/24
f 20/32/25 19/31/25 15/18/25
f 18/36/26 17/41/26 13/37/26
f 21/38/27 22/98/27 23/39/27
f 22/40/28 21/99/28 17/41/28
f 21/42/29 24/100/62 20/43/30
f 19/44/31 23/101/63 22/45/32
f 28/46/33 27/102/33 25/47/33
f 32/49/34 31/103/2 27/50/2
f 30/52/35 29/104/35 31/53/35
f 30/55/36 26/66/36 25/56/6
f 27/58/7 31/105/7 29/59/7
f 26/48/37 33/72/37 34/61/37
f 35/62/38 39/82/38 40/63/38
f 30/55/36 36/74/39 33/65/39
f 32/49/34 28/51/34 34/67/40
f 32/54/41 35/62/41 36/64/41
f 40/69/42 44/89/58 41/70/43
f 33/72/45 37/83/45 38/73/45
f 36/74/46 40/69/42 37/71/44
f 35/68/48 34/67/64 38/75/49
f 43/77/51 47/85/51 48/78/51
f 39/76/50 38/75/49 42/80/52
f 39/82/54 43/77/54 44/79/54
f 37/83/55 41/87/55 42/84/55
f 47/85/56 46/106/56 45/86/56
f 41/87/57 45/107/57 46/88/57
f 44/89/58 48/108/65 45/90/59
f 43/81/53 42/80/52 46/91/60
