# Blender 4.4.0
# www.blender.org
mtllib Rock3.mtl
o Rock3_Icosphere
v -0.823111 0.491957 -0.351610
v -0.499213 0.619422 1.111568
v 0.690754 1.554017 -0.048798
v -0.101468 1.892767 0.176634
v 0.211487 -0.198810 -0.672988
v 0.168062 -0.194425 1.198741
v 0.922970 0.580554 -0.164801
v -0.321231 -0.052451 -0.785704
v 0.064105 0.397846 -1.163016
v -0.223367 -0.030865 1.453793
v -0.562602 0.611479 -0.921830
v 0.555411 0.750750 -0.966913
v -0.101750 1.186176 -0.972865
v 0.209959 0.438943 1.494926
v 0.451408 1.383320 0.710237
v -0.641415 1.558296 -0.097372
vn -0.9335 -0.2746 0.2306
vn 0.3694 -0.4136 0.8322
vn -0.2437 0.6223 0.7439
vn -0.2535 0.8241 -0.5065
vn 0.2104 0.8328 -0.5120
vn -0.6246 0.5795 0.5235
vn -0.1208 0.6525 0.7481
vn 0.4488 0.8311 0.3284
vn 0.4335 0.6456 -0.6287
vn -0.6497 0.4678 -0.5993
vn -0.9718 0.1167 0.2050
vn -0.3970 0.2899 0.8708
vn 0.9255 0.1811 0.3326
vn 0.1856 0.2671 -0.9456
vn -0.3059 0.1620 -0.9382
vn -0.9011 0.2397 -0.3614
vn 0.9112 0.0993 0.3999
vn 0.9009 -0.2313 0.3673
vn 0.8981 0.2568 -0.3571
vn 0.5821 -0.4253 -0.6930
vn -0.0116 -0.6363 -0.7713
vn -0.4349 -0.3299 -0.8379
vn -0.8062 -0.3852 -0.4491
vn -0.7194 -0.6936 0.0381
vn -0.2690 -0.9629 0.0210
vn -0.3893 -0.9211 -0.0069
vn 0.7859 -0.4240 -0.4501
vn 0.7323 -0.6807 0.0186
vt 0.645005 0.298326
vt 0.740930 0.007547
vt 0.784720 0.170670
vt 0.266056 0.637361
vt 0.371272 0.524674
vt 0.371272 0.665639
vt 0.577411 0.643553
vt 0.750081 0.588595
vt 0.602378 1.000000
vt 0.011665 0.790299
vt 0.000000 0.557801
vt 0.142897 0.524674
vt 0.266056 0.676987
vt 0.463934 0.953830
vt 0.750081 0.862058
vt 0.737910 0.991583
vt 0.126680 0.906450
vt 0.488324 0.493578
vt 0.536156 0.378970
vt 0.713919 0.478514
vt 0.386605 0.784024
vt 0.650370 0.493578
vt 0.129715 0.351680
vt 0.001253 0.416164
vt 0.000000 0.246452
vt 0.000000 0.934533
vt 0.386605 0.359040
vt 0.928222 0.493578
vt 0.796163 0.766663
vt 0.750081 0.493578
vt 0.116743 0.000000
vt 0.243838 -0.000000
vt 0.216426 0.523466
vt 0.386605 0.373307
vt 0.352905 0.524674
vt 0.386605 0.191780
vt 0.471082 0.234609
vt 0.632342 0.000000
s 1
usemtl Rock.001
f 1/1/1 10/2/1 2/3/1
f 6/4/2 14/5/2 10/6/2
f 2/7/3 14/8/3 4/9/3
f 13/10/4 16/11/4 4/12/4
f 3/13/5 13/10/5 4/12/5
f 16/14/6 2/7/6 4/9/6
f 4/9/7 14/8/7 15/15/7
f 15/15/8 3/16/8 4/9/8
f 12/17/9 13/10/9 3/13/9
f 13/18/10 11/19/10 16/20/10
f 1/21/11 2/7/11 16/14/11
f 10/22/12 14/8/12 2/7/12
f 7/23/13 3/24/13 15/25/13
f 12/17/14 9/26/14 13/10/14
f 9/27/15 11/19/15 13/18/15
f 11/19/16 1/1/16 16/20/16
f 14/28/17 7/29/17 15/30/17
f 14/31/18 6/32/18 7/23/18
f 7/23/19 12/33/19 3/24/19
f 5/34/20 9/35/20 12/33/20
f 5/36/21 8/37/21 9/27/21
f 8/37/22 11/19/22 9/27/22
f 8/37/23 1/1/23 11/19/23
f 8/37/24 10/2/24 1/1/24
f 8/37/25 5/36/25 10/2/25
f 5/36/26 6/38/26 10/2/26
f 7/23/27 5/34/27 12/33/27
f 5/34/28 7/23/28 6/32/28
