# Blender 4.3.2
# www.blender.org
mtllib PlayerProtectionMesh.mtl
o 円
v 0.000000 1.894354 -0.047013
v -0.369570 1.857955 -0.047013
v -0.724938 1.750155 -0.047013
v -1.052447 1.575098 -0.047013
v -1.339511 1.339511 -0.047013
v -1.575098 1.052447 -0.047013
v -1.750155 0.724938 -0.047013
v -1.857955 0.369570 -0.047013
v -1.894354 0.000000 -0.047013
v -1.857955 -0.369570 -0.047013
v -1.750155 -0.724938 -0.047013
v -1.575098 -1.052447 -0.047013
v -1.339511 -1.339511 -0.047013
v -1.052447 -1.575098 -0.047013
v -0.724938 -1.750155 -0.047013
v -0.369570 -1.857955 -0.047013
v 0.000000 -1.894354 -0.047013
v 0.369570 -1.857955 -0.047013
v 0.724938 -1.750155 -0.047013
v 1.052447 -1.575098 -0.047013
v 1.339511 -1.339511 -0.047013
v 1.575098 -1.052447 -0.047013
v 1.750155 -0.724938 -0.047013
v 1.857955 -0.369570 -0.047013
v 1.894354 0.000000 -0.047013
v 1.857955 0.369570 -0.047013
v 1.750155 0.724938 -0.047013
v 1.575098 1.052447 -0.047013
v 1.339511 1.339511 -0.047013
v 1.052447 1.575098 -0.047013
v 0.724938 1.750155 -0.047013
v 0.369570 1.857955 -0.047013
v -0.369570 1.857955 0.045260
v 0.000000 1.894354 0.045260
v -0.724938 1.750155 0.045260
v -1.052447 1.575098 0.045260
v -1.339511 1.339511 0.045260
v -1.575098 1.052447 0.045260
v -1.750155 0.724938 0.045260
v -1.857955 0.369570 0.045260
v -1.894354 -0.000000 0.045260
v -1.857955 -0.369570 0.045260
v -1.750155 -0.724938 0.045260
v -1.575098 -1.052447 0.045259
v -1.339511 -1.339511 0.045259
v -1.052447 -1.575098 0.045259
v -0.724938 -1.750155 0.045259
v -0.369570 -1.857955 0.045259
v 0.000000 -1.894354 0.045259
v 0.369570 -1.857955 0.045259
v 0.724938 -1.750155 0.045259
v 1.052447 -1.575098 0.045259
v 1.339511 -1.339511 0.045259
v 1.575098 -1.052447 0.045259
v 1.750155 -0.724938 0.045260
v 1.857955 -0.369570 0.045260
v 1.894354 -0.000000 0.045260
v 1.857955 0.369570 0.045260
v 1.750155 0.724938 0.045260
v 1.575098 1.052447 0.045260
v 1.339511 1.339511 0.045260
v 1.052447 1.575098 0.045260
v 0.724938 1.750155 0.045260
v 0.369570 1.857955 0.045260
vn -0.0000 -0.0000 -1.0000
vn -0.0000 -0.0000 1.0000
vn 0.9569 0.2903 -0.0000
vn -0.6344 -0.7730 -0.0000
vn 0.8819 0.4714 -0.0000
vn -0.4714 -0.8819 -0.0000
vn -0.0980 0.9952 -0.0000
vn 0.7730 0.6344 -0.0000
vn -0.2903 -0.9569 -0.0000
vn -0.2903 0.9569 -0.0000
vn 0.6344 0.7730 -0.0000
vn -0.0980 -0.9952 -0.0000
vn -0.4714 0.8819 -0.0000
vn 0.4714 0.8819 -0.0000
vn 0.0980 -0.9952 -0.0000
vn -0.6344 0.7730 -0.0000
vn 0.2903 0.9569 -0.0000
vn 0.2903 -0.9569 -0.0000
vn -0.7730 0.6344 -0.0000
vn 0.0980 0.9952 -0.0000
vn 0.4714 -0.8819 -0.0000
vn -0.8819 0.4714 -0.0000
vn 0.6344 -0.7730 -0.0000
vn -0.9569 0.2903 -0.0000
vn 0.7730 -0.6344 -0.0000
vn -0.9952 0.0980 -0.0000
vn 0.8819 -0.4714 -0.0000
vn -0.9952 -0.0980 -0.0000
vn 0.9569 -0.2903 -0.0000
vn -0.9569 -0.2903 -0.0000
vn 0.9952 -0.0980 -0.0000
vn -0.8819 -0.4714 -0.0000
vn 0.9952 0.0980 -0.0000
vn -0.7730 -0.6344 -0.0000
vt 0.505923 0.319890
vt 0.334138 0.178909
vt 0.475118 0.007124
vt 0.178909 0.007124
vt 0.319890 0.178909
vt 0.148104 0.319890
vt 0.668806 0.777243
vt 0.661152 0.746438
vt 0.668806 0.746438
vt 0.668806 0.376781
vt 0.661152 0.345976
vt 0.668806 0.345976
vt 0.668806 0.808048
vt 0.661152 0.777243
vt 0.668806 0.407586
vt 0.661152 0.376781
vt 0.668806 0.992876
vt 0.661152 0.962071
vt 0.668806 0.962071
vt 0.668806 0.838852
vt 0.661152 0.808048
vt 0.668806 0.438391
vt 0.661152 0.407586
vt 0.668806 0.037929
vt 0.661152 0.007124
vt 0.668806 0.007124
vt 0.668806 0.869657
vt 0.661152 0.838852
vt 0.668806 0.469195
vt 0.661152 0.438391
vt 0.668806 0.068733
vt 0.661152 0.037929
vt 0.668806 0.900462
vt 0.661152 0.869657
vt 0.668806 0.500000
vt 0.661152 0.469195
vt 0.668806 0.099538
vt 0.661152 0.068733
vt 0.668806 0.931267
vt 0.661152 0.900462
vt 0.668806 0.530805
vt 0.661152 0.500000
vt 0.668806 0.130343
vt 0.661152 0.099538
vt 0.661152 0.931267
vt 0.668806 0.561610
vt 0.661152 0.530805
vt 0.668806 0.161148
vt 0.661152 0.130343
vt 0.668806 0.592414
vt 0.661152 0.561610
vt 0.668806 0.191953
vt 0.661152 0.161148
vt 0.668806 0.623219
vt 0.661152 0.592414
vt 0.668806 0.222757
vt 0.661152 0.191953
vt 0.668806 0.654024
vt 0.661152 0.623219
vt 0.668806 0.253562
vt 0.661152 0.222757
vt 0.668806 0.684829
vt 0.661152 0.654024
vt 0.668806 0.284367
vt 0.661152 0.253562
vt 0.668806 0.715633
vt 0.661152 0.684829
vt 0.668806 0.315172
vt 0.661152 0.284367
vt 0.661152 0.715633
vt 0.661152 0.315172
vt 0.505923 0.007124
vt 0.536136 0.013134
vt 0.564596 0.024922
vt 0.590209 0.042036
vt 0.611991 0.063819
vt 0.629106 0.089432
vt 0.640894 0.117892
vt 0.646904 0.148105
vt 0.646904 0.178909
vt 0.640894 0.209122
vt 0.629106 0.237582
vt 0.611991 0.263195
vt 0.590209 0.284978
vt 0.564596 0.302092
vt 0.536136 0.313880
vt 0.475118 0.319890
vt 0.444906 0.313880
vt 0.416446 0.302092
vt 0.390832 0.284977
vt 0.369050 0.263195
vt 0.351936 0.237582
vt 0.340148 0.209122
vt 0.334138 0.148105
vt 0.340148 0.117892
vt 0.351936 0.089432
vt 0.369050 0.063819
vt 0.390832 0.042036
vt 0.416446 0.024922
vt 0.444906 0.013134
vt 0.117892 0.313880
vt 0.089432 0.302092
vt 0.063819 0.284978
vt 0.042036 0.263195
vt 0.024922 0.237582
vt 0.013134 0.209122
vt 0.007124 0.178909
vt 0.007124 0.148104
vt 0.013134 0.117892
vt 0.024922 0.089432
vt 0.042036 0.063819
vt 0.063819 0.042036
vt 0.089432 0.024922
vt 0.117892 0.013134
vt 0.148105 0.007124
vt 0.209122 0.013134
vt 0.237582 0.024922
vt 0.263195 0.042036
vt 0.284978 0.063819
vt 0.302092 0.089432
vt 0.313880 0.117892
vt 0.319890 0.148105
vt 0.313880 0.209122
vt 0.302092 0.237582
vt 0.284978 0.263195
vt 0.263195 0.284978
vt 0.237582 0.302092
vt 0.209122 0.313880
vt 0.178909 0.319890
vt 0.661152 0.992876
s 0
f 19/1/1 11/2/1 3/3/1
f 49/4/2 57/5/2 34/6/2
f 27/7/3 58/8/3 26/9/3
f 14/10/4 45/11/4 13/12/4
f 28/13/5 59/14/5 27/7/5
f 15/15/6 46/16/6 14/10/6
f 2/17/7 34/18/7 1/19/7
f 29/20/8 60/21/8 28/13/8
f 16/22/9 47/23/9 15/15/9
f 3/24/10 33/25/10 2/26/10
f 30/27/11 61/28/11 29/20/11
f 17/29/12 48/30/12 16/22/12
f 4/31/13 35/32/13 3/24/13
f 31/33/14 62/34/14 30/27/14
f 18/35/15 49/36/15 17/29/15
f 5/37/16 36/38/16 4/31/16
f 32/39/17 63/40/17 31/33/17
f 19/41/18 50/42/18 18/35/18
f 6/43/19 37/44/19 5/37/19
f 1/19/20 64/45/20 32/39/20
f 20/46/21 51/47/21 19/41/21
f 7/48/22 38/49/22 6/43/22
f 21/50/23 52/51/23 20/46/23
f 8/52/24 39/53/24 7/48/24
f 22/54/25 53/55/25 21/50/25
f 9/56/26 40/57/26 8/52/26
f 23/58/27 54/59/27 22/54/27
f 10/60/28 41/61/28 9/56/28
f 24/62/29 55/63/29 23/58/29
f 11/64/30 42/65/30 10/60/30
f 25/66/31 56/67/31 24/62/31
f 12/68/32 43/69/32 11/64/32
f 26/9/33 57/70/33 25/66/33
f 13/12/34 44/71/34 12/68/34
f 3/3/1 2/72/1 1/73/1
f 1/73/1 32/74/1 31/75/1
f 31/75/1 30/76/1 29/77/1
f 29/77/1 28/78/1 27/79/1
f 27/79/1 26/80/1 25/81/1
f 25/81/1 24/82/1 23/83/1
f 23/83/1 22/84/1 21/85/1
f 21/85/1 20/86/1 19/1/1
f 19/1/1 18/87/1 17/88/1
f 17/88/1 16/89/1 15/90/1
f 15/90/1 14/91/1 13/92/1
f 13/92/1 12/93/1 11/2/1
f 11/2/1 10/94/1 9/95/1
f 9/95/1 8/96/1 7/97/1
f 7/97/1 6/98/1 5/99/1
f 5/99/1 4/100/1 3/3/1
f 3/3/1 1/73/1 31/75/1
f 31/75/1 29/77/1 27/79/1
f 27/79/1 25/81/1 23/83/1
f 23/83/1 21/85/1 19/1/1
f 19/1/1 17/88/1 15/90/1
f 15/90/1 13/92/1 11/2/1
f 11/2/1 9/95/1 7/97/1
f 7/97/1 5/99/1 3/3/1
f 3/3/1 31/75/1 27/79/1
f 27/79/1 23/83/1 19/1/1
f 19/1/1 15/90/1 11/2/1
f 11/2/1 7/97/1 3/3/1
f 3/3/1 27/79/1 19/1/1
f 34/6/2 33/101/2 35/102/2
f 35/102/2 36/103/2 37/104/2
f 37/104/2 38/105/2 39/106/2
f 39/106/2 40/107/2 41/108/2
f 41/108/2 42/109/2 43/110/2
f 43/110/2 44/111/2 45/112/2
f 45/112/2 46/113/2 47/114/2
f 47/114/2 48/115/2 49/4/2
f 49/4/2 50/116/2 51/117/2
f 51/117/2 52/118/2 53/119/2
f 53/119/2 54/120/2 55/121/2
f 55/121/2 56/122/2 57/5/2
f 57/5/2 58/123/2 59/124/2
f 59/124/2 60/125/2 61/126/2
f 61/126/2 62/127/2 63/128/2
f 63/128/2 64/129/2 34/6/2
f 34/6/2 35/102/2 37/104/2
f 37/104/2 39/106/2 41/108/2
f 41/108/2 43/110/2 45/112/2
f 45/112/2 47/114/2 49/4/2
f 49/4/2 51/117/2 53/119/2
f 53/119/2 55/121/2 57/5/2
f 57/5/2 59/124/2 61/126/2
f 61/126/2 63/128/2 34/6/2
f 34/6/2 37/104/2 41/108/2
f 41/108/2 45/112/2 49/4/2
f 49/4/2 53/119/2 57/5/2
f 57/5/2 61/126/2 34/6/2
f 34/6/2 41/108/2 49/4/2
f 27/7/3 59/14/3 58/8/3
f 14/10/4 46/16/4 45/11/4
f 28/13/5 60/21/5 59/14/5
f 15/15/6 47/23/6 46/16/6
f 2/17/7 33/130/7 34/18/7
f 29/20/8 61/28/8 60/21/8
f 16/22/9 48/30/9 47/23/9
f 3/24/10 35/32/10 33/25/10
f 30/27/11 62/34/11 61/28/11
f 17/29/12 49/36/12 48/30/12
f 4/31/13 36/38/13 35/32/13
f 31/33/14 63/40/14 62/34/14
f 18/35/15 50/42/15 49/36/15
f 5/37/16 37/44/16 36/38/16
f 32/39/17 64/45/17 63/40/17
f 19/41/18 51/47/18 50/42/18
f 6/43/19 38/49/19 37/44/19
f 1/19/20 34/18/20 64/45/20
f 20/46/21 52/51/21 51/47/21
f 7/48/22 39/53/22 38/49/22
f 21/50/23 53/55/23 52/51/23
f 8/52/24 40/57/24 39/53/24
f 22/54/25 54/59/25 53/55/25
f 9/56/26 41/61/26 40/57/26
f 23/58/27 55/63/27 54/59/27
f 10/60/28 42/65/28 41/61/28
f 24/62/29 56/67/29 55/63/29
f 11/64/30 43/69/30 42/65/30
f 25/66/31 57/70/31 56/67/31
f 12/68/32 44/71/32 43/69/32
f 26/9/33 58/8/33 57/70/33
f 13/12/34 45/11/34 44/71/34
