# Blender 4.2.3 LTS
# www.blender.org
mtllib Enemy.mtl
o 円
v -1.000000 0.842687 0.000000
v -0.707107 0.842687 0.707107
v 0.000000 0.842687 1.000000
v 0.707107 0.842687 0.707107
v 1.000000 0.842687 -0.000000
v 0.707107 0.842687 -0.707107
v -0.000000 0.842687 -1.000000
v -0.707107 0.842687 -0.707107
v -1.000000 -0.569486 0.000000
v -0.707107 -0.569486 0.707107
v 0.000000 -0.569486 1.000000
v 0.707107 -0.569486 0.707107
v 1.000000 -0.569486 -0.000000
v 0.707107 -0.569486 -0.707107
v -0.000000 -0.569486 -1.000000
v -0.707107 -0.569486 -0.707107
v -0.772009 1.373301 0.000000
v -0.545892 1.373301 0.545892
v 0.000000 1.373301 0.772009
v 0.545892 1.373301 0.545892
v 0.772009 1.373301 -0.000000
v 0.545892 1.373301 -0.545892
v -0.000000 1.373301 -0.772009
v -0.545892 1.373301 -0.545892
v -0.262323 1.646495 0.000000
v -0.185490 1.646495 0.185490
v 0.000000 1.646495 0.262323
v 0.185490 1.646495 0.185490
v 0.262323 1.646495 -0.000000
v 0.185490 1.646495 -0.185490
v -0.000000 1.646495 -0.262323
v -0.185490 1.646495 -0.185490
v -1.269958 -1.125994 0.000000
v -0.897996 -1.018981 0.897996
v 0.000000 -1.018981 1.269958
v 0.897996 -1.018981 0.897996
v 1.269958 -1.125994 -0.000000
v 1.085334 -1.260390 -1.071630
v -0.000000 -1.260390 -1.521190
v -1.085334 -1.260390 -1.071630
vn 0.3827 -0.0000 0.9239
vn -0.9239 -0.0000 0.3827
vn -0.9239 -0.0000 -0.3827
vn 0.3827 -0.0000 -0.9239
vn 0.9239 -0.0000 0.3827
vn -0.3827 -0.0000 0.9239
vn -0.3827 -0.0000 -0.9239
vn 0.9239 -0.0000 -0.3827
vn 0.3557 0.3690 0.8587
vn -0.8587 0.3690 0.3557
vn -0.8587 0.3690 -0.3557
vn 0.3557 0.3690 -0.8587
vn 0.8587 0.3690 0.3557
vn -0.3557 0.3690 0.8587
vn -0.3557 0.3690 -0.8587
vn 0.8587 0.3690 -0.3557
vn -0.4636 0.8650 0.1920
vn -0.4636 0.8650 -0.1920
vn 0.1920 0.8650 -0.4636
vn 0.4636 0.8650 0.1920
vn -0.1920 0.8650 0.4636
vn -0.1920 0.8650 -0.4636
vn 0.4636 0.8650 -0.1920
vn 0.1920 0.8650 0.4636
vn -0.0000 1.0000 -0.0000
vn 0.3140 0.5718 -0.7580
vn 0.8568 0.4156 0.3054
vn -0.3346 0.4852 0.8079
vn -0.3140 0.5718 -0.7580
vn 0.8074 0.5519 -0.2083
vn 0.3346 0.4852 0.8079
vn -0.8079 0.4852 0.3346
vn -0.8431 0.4090 -0.3492
vn 0.8079 0.4852 0.3346
vn 0.8431 0.4090 -0.3492
vn -0.8568 0.4156 0.3054
vn -0.8074 0.5519 -0.2083
vt 0.234776 0.500362
vt 0.007711 0.377297
vt 0.234776 0.377297
vt 0.234776 0.746490
vt 0.007711 0.623426
vt 0.234776 0.623426
vt 0.234776 0.869554
vt 0.007711 0.746490
vt 0.234776 0.131169
vt 0.007711 0.008105
vt 0.234776 0.008105
vt 0.007711 0.254233
vt 0.234776 0.254233
vt 0.007711 0.500362
vt 0.234776 0.992619
vt 0.007711 0.869554
vt 0.007711 0.131169
vt 0.553417 0.330610
vt 0.627685 0.452262
vt 0.534825 0.452262
vt 0.553417 0.573913
vt 0.683787 0.631520
vt 0.607495 0.684459
vt 0.692122 0.773807
vt 0.749120 0.700497
vt 0.692122 0.130717
vt 0.832073 0.157711
vt 0.749120 0.204026
vt 0.683787 0.273003
vt 0.642039 0.358345
vt 0.642039 0.546178
vt 0.832073 0.746812
vt 0.799573 0.833800
vt 0.607495 0.220064
vt 0.726318 0.314498
vt 0.738635 0.421989
vt 0.654277 0.384458
vt 0.737039 0.453383
vt 0.649641 0.483630
vt 0.738126 0.569677
vt 0.792004 0.475662
vt 0.833677 0.558224
vt 0.899399 0.483811
vt 0.812964 0.421118
vt 0.896399 0.383435
vt 0.825329 0.314498
vt 0.759970 0.399639
vt 0.759115 0.477860
vt 0.710253 0.558379
vt 0.812716 0.452016
vt 0.791031 0.399117
vt 0.529501 0.166564
vt 0.661170 0.008243
vt 0.651004 0.147026
vt 0.430663 0.239884
vt 0.283924 0.309229
vt 0.358901 0.171027
vt 0.361686 0.583104
vt 0.253131 0.462452
vt 0.337439 0.462452
vt 0.529501 0.758341
vt 0.661170 0.916662
vt 0.474675 0.886674
vt 0.474675 0.038231
vt 0.361686 0.341800
vt 0.430663 0.685021
vt 0.283924 0.615675
vt 0.358901 0.753878
vt 0.007711 0.992619
vt 0.799573 0.070724
vt 0.651004 0.777878
s 0
usemtl マテリアル
f 3/1/1 12/2/1 4/3/1
f 1/4/2 10/5/2 2/6/2
f 8/7/3 9/8/3 1/4/3
f 6/9/4 15/10/4 7/11/4
f 4/3/5 13/12/5 5/13/5
f 2/6/6 11/14/6 3/1/6
f 7/15/7 16/16/7 8/7/7
f 5/13/8 14/17/8 6/9/8
f 4/18/9 19/19/9 3/20/9
f 2/21/10 17/22/10 1/23/10
f 8/24/11 17/22/11 24/25/11
f 6/26/12 23/27/12 22/28/12
f 4/18/13 21/29/13 20/30/13
f 2/21/14 19/19/14 18/31/14
f 8/24/15 23/32/15 7/33/15
f 6/26/16 21/29/16 5/34/16
f 18/35/17 25/36/17 17/37/17
f 17/37/18 32/38/18 24/39/18
f 23/40/19 30/41/19 22/42/19
f 21/43/20 28/44/20 20/45/20
f 19/46/21 26/47/21 18/35/21
f 24/39/22 31/48/22 23/49/22
f 22/42/23 29/50/23 21/43/23
f 20/45/24 27/51/24 19/46/24
f 29/50/25 31/48/25 25/36/25
f 14/52/26 39/53/26 15/54/26
f 13/55/27 36/56/27 37/57/27
f 10/58/28 35/59/28 11/60/28
f 16/61/29 39/62/29 40/63/29
f 14/52/30 37/57/30 38/64/30
f 11/60/31 36/56/31 12/65/31
f 9/66/32 34/67/32 10/58/32
f 16/61/33 33/68/33 9/66/33
f 3/1/1 11/14/1 12/2/1
f 1/4/2 9/8/2 10/5/2
f 8/7/3 16/16/3 9/8/3
f 6/9/4 14/17/4 15/10/4
f 4/3/5 12/2/5 13/12/5
f 2/6/6 10/5/6 11/14/6
f 7/15/7 15/69/7 16/16/7
f 5/13/8 13/12/8 14/17/8
f 4/18/9 20/30/9 19/19/9
f 2/21/10 18/31/10 17/22/10
f 8/24/11 1/23/11 17/22/11
f 6/26/12 7/70/12 23/27/12
f 4/18/13 5/34/13 21/29/13
f 2/21/14 3/20/14 19/19/14
f 8/24/15 24/25/15 23/32/15
f 6/26/16 22/28/16 21/29/16
f 18/35/17 26/47/17 25/36/17
f 17/37/18 25/36/18 32/38/18
f 23/40/19 31/48/19 30/41/19
f 21/43/20 29/50/20 28/44/20
f 19/46/21 27/51/21 26/47/21
f 24/39/22 32/38/22 31/48/22
f 22/42/23 30/41/23 29/50/23
f 20/45/24 28/44/24 27/51/24
f 25/36/25 26/47/25 27/51/25
f 27/51/25 28/44/25 29/50/25
f 29/50/25 30/41/25 31/48/25
f 31/48/25 32/38/25 25/36/25
f 25/36/25 27/51/25 29/50/25
f 14/52/26 38/64/26 39/53/26
f 13/55/34 12/65/34 36/56/34
f 10/58/28 34/67/28 35/59/28
f 16/61/29 15/71/29 39/62/29
f 14/52/35 13/55/35 37/57/35
f 11/60/31 35/59/31 36/56/31
f 9/66/36 33/68/36 34/67/36
f 16/61/37 40/63/37 33/68/37
