# Blender 4.2.3 LTS
# www.blender.org
mtllib Enemy.mtl
o Cube
v 1.414214 0.580750 -0.814082
v 0.000000 -0.570536 -1.635386
v 1.414214 -0.580750 0.814082
v 0.000000 -1.732036 -0.007222
v 0.000000 1.732036 0.007222
v -1.414214 0.580750 -0.814082
v 0.000000 0.570536 1.635386
v -1.414214 -0.580750 0.814082
vn 0.7071 0.5756 0.4107
vn -0.0000 -0.5807 0.8141
vn -0.7071 0.5756 0.4107
vn -0.7071 -0.5756 -0.4107
vn 0.7071 -0.5756 -0.4107
vn -0.0000 0.5807 -0.8141
vt 0.875000 0.500000
vt 0.625000 0.750000
vt 0.625000 0.500000
vt 0.375000 1.000000
vt 0.375000 0.750000
vt 0.625000 0.000000
vt 0.375000 0.250000
vt 0.375000 0.000000
vt 0.375000 0.500000
vt 0.125000 0.750000
vt 0.125000 0.500000
vt 0.625000 0.250000
vt 0.875000 0.750000
vt 0.625000 1.000000
s 0
usemtl Material
f 5/1/1 3/2/1 1/3/1
f 3/2/2 8/4/2 4/5/2
f 7/6/3 6/7/3 8/8/3
f 2/9/4 8/10/4 6/11/4
f 2/9/5 3/2/5 4/5/5
f 5/12/6 2/9/6 6/7/6
f 5/1/1 7/13/1 3/2/1
f 3/2/2 7/14/2 8/4/2
f 7/6/3 5/12/3 6/7/3
f 2/9/4 4/5/4 8/10/4
f 2/9/5 1/3/5 3/2/5
f 5/12/6 1/3/6 2/9/6
