{
	"asset":{
		"generator":"Khronos glTF Blender I/O v4.2.57",
		"version":"2.0"
	},
	"scene":0,
	"scenes":[
		{
			"name":"Scene",
			"nodes":[
				4
			]
		}
	],
	"nodes":[
		{
			"name":"\u30dc\u30fc\u30f3",
			"translation":[
				0,
				4.915595531463623,
				0
			]
		},
		{
			"name":"\u30dc\u30fc\u30f3.001",
			"scale":[
				1,
				0.9999999403953552,
				1
			],
			"translation":[
				0,
				5.915595531463623,
				0
			]
		},
		{
			"children":[
				0,
				1
			],
			"name":"\u30dc\u30fc\u30f3.002",
			"translation":[
				0,
				-4.767682075500488,
				0
			]
		},
		{
			"mesh":0,
			"name":"\u5e73\u9762",
			"skin":0
		},
		{
			"children":[
				3,
				2
			],
			"name":"\u30a2\u30fc\u30de\u30c1\u30e5\u30a2"
		}
	],
	"animations":[
		{
			"channels":[
				{
					"sampler":0,
					"target":{
						"node":2,
						"path":"translation"
					}
				},
				{
					"sampler":1,
					"target":{
						"node":2,
						"path":"rotation"
					}
				},
				{
					"sampler":2,
					"target":{
						"node":2,
						"path":"scale"
					}
				},
				{
					"sampler":3,
					"target":{
						"node":0,
						"path":"translation"
					}
				},
				{
					"sampler":4,
					"target":{
						"node":0,
						"path":"rotation"
					}
				},
				{
					"sampler":5,
					"target":{
						"node":0,
						"path":"scale"
					}
				},
				{
					"sampler":6,
					"target":{
						"node":1,
						"path":"translation"
					}
				},
				{
					"sampler":7,
					"target":{
						"node":1,
						"path":"rotation"
					}
				},
				{
					"sampler":8,
					"target":{
						"node":1,
						"path":"scale"
					}
				}
			],
			"name":"\u30a2\u30fc\u30de\u30c1\u30e5\u30a2\u30a2\u30af\u30b7\u30e7\u30f3.001",
			"samplers":[
				{
					"input":7,
					"interpolation":"LINEAR",
					"output":8
				},
				{
					"input":9,
					"interpolation":"STEP",
					"output":10
				},
				{
					"input":9,
					"interpolation":"STEP",
					"output":11
				},
				{
					"input":9,
					"interpolation":"STEP",
					"output":12
				},
				{
					"input":9,
					"interpolation":"STEP",
					"output":13
				},
				{
					"input":7,
					"interpolation":"LINEAR",
					"output":14
				},
				{
					"input":7,
					"interpolation":"LINEAR",
					"output":15
				},
				{
					"input":9,
					"interpolation":"STEP",
					"output":16
				},
				{
					"input":7,
					"interpolation":"LINEAR",
					"output":17
				}
			]
		},
		{
			"channels":[
				{
					"sampler":0,
					"target":{
						"node":2,
						"path":"translation"
					}
				},
				{
					"sampler":1,
					"target":{
						"node":2,
						"path":"rotation"
					}
				},
				{
					"sampler":2,
					"target":{
						"node":2,
						"path":"scale"
					}
				},
				{
					"sampler":3,
					"target":{
						"node":0,
						"path":"translation"
					}
				},
				{
					"sampler":4,
					"target":{
						"node":0,
						"path":"rotation"
					}
				},
				{
					"sampler":5,
					"target":{
						"node":0,
						"path":"scale"
					}
				},
				{
					"sampler":6,
					"target":{
						"node":1,
						"path":"translation"
					}
				},
				{
					"sampler":7,
					"target":{
						"node":1,
						"path":"rotation"
					}
				},
				{
					"sampler":8,
					"target":{
						"node":1,
						"path":"scale"
					}
				}
			],
			"name":"\u30a2\u30fc\u30de\u30c1\u30e5\u30a2\u30a2\u30af\u30b7\u30e7\u30f3_\u30a2\u30fc\u30de\u30c1\u30e5\u30a2",
			"samplers":[
				{
					"input":18,
					"interpolation":"STEP",
					"output":19
				},
				{
					"input":18,
					"interpolation":"STEP",
					"output":20
				},
				{
					"input":18,
					"interpolation":"STEP",
					"output":21
				},
				{
					"input":18,
					"interpolation":"STEP",
					"output":22
				},
				{
					"input":18,
					"interpolation":"STEP",
					"output":23
				},
				{
					"input":24,
					"interpolation":"LINEAR",
					"output":25
				},
				{
					"input":18,
					"interpolation":"STEP",
					"output":26
				},
				{
					"input":18,
					"interpolation":"STEP",
					"output":27
				},
				{
					"input":18,
					"interpolation":"STEP",
					"output":28
				}
			]
		},
		{
			"channels":[
				{
					"sampler":0,
					"target":{
						"node":2,
						"path":"translation"
					}
				},
				{
					"sampler":1,
					"target":{
						"node":2,
						"path":"rotation"
					}
				},
				{
					"sampler":2,
					"target":{
						"node":2,
						"path":"scale"
					}
				},
				{
					"sampler":3,
					"target":{
						"node":0,
						"path":"translation"
					}
				},
				{
					"sampler":4,
					"target":{
						"node":0,
						"path":"rotation"
					}
				},
				{
					"sampler":5,
					"target":{
						"node":0,
						"path":"scale"
					}
				},
				{
					"sampler":6,
					"target":{
						"node":1,
						"path":"translation"
					}
				},
				{
					"sampler":7,
					"target":{
						"node":1,
						"path":"rotation"
					}
				},
				{
					"sampler":8,
					"target":{
						"node":1,
						"path":"scale"
					}
				}
			],
			"name":"\u30a2\u30fc\u30de\u30c1\u30e5\u30a2\u30a2\u30af\u30b7\u30e7\u30f3_\u30a2\u30fc\u30de\u30c1\u30e5\u30a2.001",
			"samplers":[
				{
					"input":29,
					"interpolation":"LINEAR",
					"output":30
				},
				{
					"input":31,
					"interpolation":"STEP",
					"output":32
				},
				{
					"input":31,
					"interpolation":"STEP",
					"output":33
				},
				{
					"input":31,
					"interpolation":"LINEAR",
					"output":34
				},
				{
					"input":31,
					"interpolation":"STEP",
					"output":35
				},
				{
					"input":31,
					"interpolation":"STEP",
					"output":36
				},
				{
					"input":29,
					"interpolation":"LINEAR",
					"output":37
				},
				{
					"input":29,
					"interpolation":"LINEAR",
					"output":38
				},
				{
					"input":31,
					"interpolation":"LINEAR",
					"output":39
				}
			]
		},
		{
			"channels":[
				{
					"sampler":0,
					"target":{
						"node":2,
						"path":"translation"
					}
				},
				{
					"sampler":1,
					"target":{
						"node":2,
						"path":"rotation"
					}
				},
				{
					"sampler":2,
					"target":{
						"node":2,
						"path":"scale"
					}
				},
				{
					"sampler":3,
					"target":{
						"node":0,
						"path":"translation"
					}
				},
				{
					"sampler":4,
					"target":{
						"node":0,
						"path":"rotation"
					}
				},
				{
					"sampler":5,
					"target":{
						"node":0,
						"path":"scale"
					}
				},
				{
					"sampler":6,
					"target":{
						"node":1,
						"path":"translation"
					}
				},
				{
					"sampler":7,
					"target":{
						"node":1,
						"path":"rotation"
					}
				},
				{
					"sampler":8,
					"target":{
						"node":1,
						"path":"scale"
					}
				}
			],
			"name":"\u30a2\u30fc\u30de\u30c1\u30e5\u30a2\u30a2\u30af\u30b7\u30e7\u30f3_\u30a2\u30fc\u30de\u30c1\u30e5\u30a2.001_\u30a2\u30fc",
			"samplers":[
				{
					"input":40,
					"interpolation":"STEP",
					"output":41
				},
				{
					"input":40,
					"interpolation":"STEP",
					"output":42
				},
				{
					"input":40,
					"interpolation":"STEP",
					"output":43
				},
				{
					"input":40,
					"interpolation":"STEP",
					"output":44
				},
				{
					"input":40,
					"interpolation":"STEP",
					"output":45
				},
				{
					"input":40,
					"interpolation":"STEP",
					"output":46
				},
				{
					"input":40,
					"interpolation":"STEP",
					"output":47
				},
				{
					"input":40,
					"interpolation":"STEP",
					"output":48
				},
				{
					"input":40,
					"interpolation":"STEP",
					"output":49
				}
			]
		}
	],
	"materials":[
		{
			"alphaMode":"BLEND",
			"doubleSided":true,
			"name":"\u30de\u30c6\u30ea\u30a2\u30eb.002",
			"pbrMetallicRoughness":{
				"baseColorTexture":{
					"index":0
				},
				"metallicFactor":0,
				"roughnessFactor":0.5
			}
		}
	],
	"meshes":[
		{
			"name":"\u5e73\u9762.002",
			"primitives":[
				{
					"attributes":{
						"POSITION":0,
						"NORMAL":1,
						"TEXCOORD_0":2,
						"JOINTS_0":3,
						"WEIGHTS_0":4
					},
					"indices":5,
					"material":0
				}
			]
		}
	],
	"textures":[
		{
			"sampler":0,
			"source":0
		}
	],
	"images":[
		{
			"mimeType":"image/png",
			"name":"Effect4Tex",
			"uri":"Effect4Tex.png"
		}
	],
	"skins":[
		{
			"inverseBindMatrices":6,
			"joints":[
				2,
				0,
				1
			],
			"name":"\u30a2\u30fc\u30de\u30c1\u30e5\u30a2"
		}
	],
	"accessors":[
		{
			"bufferView":0,
			"componentType":5126,
			"count":96,
			"max":[
				1,
				0.9770877957344055,
				1
			],
			"min":[
				-1,
				-0.15344984829425812,
				-1
			],
			"type":"VEC3"
		},
		{
			"bufferView":1,
			"componentType":5126,
			"count":96,
			"type":"VEC3"
		},
		{
			"bufferView":2,
			"componentType":5126,
			"count":96,
			"type":"VEC2"
		},
		{
			"bufferView":3,
			"componentType":5121,
			"count":96,
			"type":"VEC4"
		},
		{
			"bufferView":4,
			"componentType":5126,
			"count":96,
			"type":"VEC4"
		},
		{
			"bufferView":5,
			"componentType":5123,
			"count":144,
			"type":"SCALAR"
		},
		{
			"bufferView":6,
			"componentType":5126,
			"count":3,
			"type":"MAT4"
		},
		{
			"bufferView":7,
			"componentType":5126,
			"count":21,
			"max":[
				0.3333333333333333
			],
			"min":[
				0
			],
			"type":"SCALAR"
		},
		{
			"bufferView":8,
			"componentType":5126,
			"count":21,
			"type":"VEC3"
		},
		{
			"bufferView":9,
			"componentType":5126,
			"count":2,
			"max":[
				0.3333333333333333
			],
			"min":[
				0
			],
			"type":"SCALAR"
		},
		{
			"bufferView":10,
			"componentType":5126,
			"count":2,
			"type":"VEC4"
		},
		{
			"bufferView":11,
			"componentType":5126,
			"count":2,
			"type":"VEC3"
		},
		{
			"bufferView":12,
			"componentType":5126,
			"count":2,
			"type":"VEC3"
		},
		{
			"bufferView":13,
			"componentType":5126,
			"count":2,
			"type":"VEC4"
		},
		{
			"bufferView":14,
			"componentType":5126,
			"count":21,
			"type":"VEC3"
		},
		{
			"bufferView":15,
			"componentType":5126,
			"count":21,
			"type":"VEC3"
		},
		{
			"bufferView":16,
			"componentType":5126,
			"count":2,
			"type":"VEC4"
		},
		{
			"bufferView":17,
			"componentType":5126,
			"count":21,
			"type":"VEC3"
		},
		{
			"bufferView":18,
			"componentType":5126,
			"count":2,
			"max":[
				0.9333333333333333
			],
			"min":[
				0.4
			],
			"type":"SCALAR"
		},
		{
			"bufferView":19,
			"componentType":5126,
			"count":2,
			"type":"VEC3"
		},
		{
			"bufferView":20,
			"componentType":5126,
			"count":2,
			"type":"VEC4"
		},
		{
			"bufferView":21,
			"componentType":5126,
			"count":2,
			"type":"VEC3"
		},
		{
			"bufferView":22,
			"componentType":5126,
			"count":2,
			"type":"VEC3"
		},
		{
			"bufferView":23,
			"componentType":5126,
			"count":2,
			"type":"VEC4"
		},
		{
			"bufferView":24,
			"componentType":5126,
			"count":33,
			"max":[
				0.9333333333333333
			],
			"min":[
				0.4
			],
			"type":"SCALAR"
		},
		{
			"bufferView":25,
			"componentType":5126,
			"count":33,
			"type":"VEC3"
		},
		{
			"bufferView":26,
			"componentType":5126,
			"count":2,
			"type":"VEC3"
		},
		{
			"bufferView":27,
			"componentType":5126,
			"count":2,
			"type":"VEC4"
		},
		{
			"bufferView":28,
			"componentType":5126,
			"count":2,
			"type":"VEC3"
		},
		{
			"bufferView":29,
			"componentType":5126,
			"count":641,
			"max":[
				10.666666666666666
			],
			"min":[
				0
			],
			"type":"SCALAR"
		},
		{
			"bufferView":30,
			"componentType":5126,
			"count":641,
			"type":"VEC3"
		},
		{
			"bufferView":31,
			"componentType":5126,
			"count":2,
			"max":[
				10.666666666666666
			],
			"min":[
				0
			],
			"type":"SCALAR"
		},
		{
			"bufferView":32,
			"componentType":5126,
			"count":2,
			"type":"VEC4"
		},
		{
			"bufferView":33,
			"componentType":5126,
			"count":2,
			"type":"VEC3"
		},
		{
			"bufferView":34,
			"componentType":5126,
			"count":2,
			"type":"VEC3"
		},
		{
			"bufferView":35,
			"componentType":5126,
			"count":2,
			"type":"VEC4"
		},
		{
			"bufferView":36,
			"componentType":5126,
			"count":2,
			"type":"VEC3"
		},
		{
			"bufferView":37,
			"componentType":5126,
			"count":641,
			"type":"VEC3"
		},
		{
			"bufferView":38,
			"componentType":5126,
			"count":641,
			"type":"VEC4"
		},
		{
			"bufferView":39,
			"componentType":5126,
			"count":2,
			"type":"VEC3"
		},
		{
			"bufferView":40,
			"componentType":5126,
			"count":2,
			"max":[
				1.1333333333333333
			],
			"min":[
				0
			],
			"type":"SCALAR"
		},
		{
			"bufferView":41,
			"componentType":5126,
			"count":2,
			"type":"VEC3"
		},
		{
			"bufferView":42,
			"componentType":5126,
			"count":2,
			"type":"VEC4"
		},
		{
			"bufferView":43,
			"componentType":5126,
			"count":2,
			"type":"VEC3"
		},
		{
			"bufferView":44,
			"componentType":5126,
			"count":2,
			"type":"VEC3"
		},
		{
			"bufferView":45,
			"componentType":5126,
			"count":2,
			"type":"VEC4"
		},
		{
			"bufferView":46,
			"componentType":5126,
			"count":2,
			"type":"VEC3"
		},
		{
			"bufferView":47,
			"componentType":5126,
			"count":2,
			"type":"VEC3"
		},
		{
			"bufferView":48,
			"componentType":5126,
			"count":2,
			"type":"VEC4"
		},
		{
			"bufferView":49,
			"componentType":5126,
			"count":2,
			"type":"VEC3"
		}
	],
	"bufferViews":[
		{
			"buffer":0,
			"byteLength":1152,
			"byteOffset":0,
			"target":34962
		},
		{
			"buffer":0,
			"byteLength":1152,
			"byteOffset":1152,
			"target":34962
		},
		{
			"buffer":0,
			"byteLength":768,
			"byteOffset":2304,
			"target":34962
		},
		{
			"buffer":0,
			"byteLength":384,
			"byteOffset":3072,
			"target":34962
		},
		{
			"buffer":0,
			"byteLength":1536,
			"byteOffset":3456,
			"target":34962
		},
		{
			"buffer":0,
			"byteLength":288,
			"byteOffset":4992,
			"target":34963
		},
		{
			"buffer":0,
			"byteLength":192,
			"byteOffset":5280
		},
		{
			"buffer":0,
			"byteLength":84,
			"byteOffset":5472
		},
		{
			"buffer":0,
			"byteLength":252,
			"byteOffset":5556
		},
		{
			"buffer":0,
			"byteLength":8,
			"byteOffset":5808
		},
		{
			"buffer":0,
			"byteLength":32,
			"byteOffset":5816
		},
		{
			"buffer":0,
			"byteLength":24,
			"byteOffset":5848
		},
		{
			"buffer":0,
			"byteLength":24,
			"byteOffset":5872
		},
		{
			"buffer":0,
			"byteLength":32,
			"byteOffset":5896
		},
		{
			"buffer":0,
			"byteLength":252,
			"byteOffset":5928
		},
		{
			"buffer":0,
			"byteLength":252,
			"byteOffset":6180
		},
		{
			"buffer":0,
			"byteLength":32,
			"byteOffset":6432
		},
		{
			"buffer":0,
			"byteLength":252,
			"byteOffset":6464
		},
		{
			"buffer":0,
			"byteLength":8,
			"byteOffset":6716
		},
		{
			"buffer":0,
			"byteLength":24,
			"byteOffset":6724
		},
		{
			"buffer":0,
			"byteLength":32,
			"byteOffset":6748
		},
		{
			"buffer":0,
			"byteLength":24,
			"byteOffset":6780
		},
		{
			"buffer":0,
			"byteLength":24,
			"byteOffset":6804
		},
		{
			"buffer":0,
			"byteLength":32,
			"byteOffset":6828
		},
		{
			"buffer":0,
			"byteLength":132,
			"byteOffset":6860
		},
		{
			"buffer":0,
			"byteLength":396,
			"byteOffset":6992
		},
		{
			"buffer":0,
			"byteLength":24,
			"byteOffset":7388
		},
		{
			"buffer":0,
			"byteLength":32,
			"byteOffset":7412
		},
		{
			"buffer":0,
			"byteLength":24,
			"byteOffset":7444
		},
		{
			"buffer":0,
			"byteLength":2564,
			"byteOffset":7468
		},
		{
			"buffer":0,
			"byteLength":7692,
			"byteOffset":10032
		},
		{
			"buffer":0,
			"byteLength":8,
			"byteOffset":17724
		},
		{
			"buffer":0,
			"byteLength":32,
			"byteOffset":17732
		},
		{
			"buffer":0,
			"byteLength":24,
			"byteOffset":17764
		},
		{
			"buffer":0,
			"byteLength":24,
			"byteOffset":17788
		},
		{
			"buffer":0,
			"byteLength":32,
			"byteOffset":17812
		},
		{
			"buffer":0,
			"byteLength":24,
			"byteOffset":17844
		},
		{
			"buffer":0,
			"byteLength":7692,
			"byteOffset":17868
		},
		{
			"buffer":0,
			"byteLength":10256,
			"byteOffset":25560
		},
		{
			"buffer":0,
			"byteLength":24,
			"byteOffset":35816
		},
		{
			"buffer":0,
			"byteLength":8,
			"byteOffset":35840
		},
		{
			"buffer":0,
			"byteLength":24,
			"byteOffset":35848
		},
		{
			"buffer":0,
			"byteLength":32,
			"byteOffset":35872
		},
		{
			"buffer":0,
			"byteLength":24,
			"byteOffset":35904
		},
		{
			"buffer":0,
			"byteLength":24,
			"byteOffset":35928
		},
		{
			"buffer":0,
			"byteLength":32,
			"byteOffset":35952
		},
		{
			"buffer":0,
			"byteLength":24,
			"byteOffset":35984
		},
		{
			"buffer":0,
			"byteLength":24,
			"byteOffset":36008
		},
		{
			"buffer":0,
			"byteLength":32,
			"byteOffset":36032
		},
		{
			"buffer":0,
			"byteLength":24,
			"byteOffset":36064
		}
	],
	"samplers":[
		{
			"magFilter":9729,
			"minFilter":9987
		}
	],
	"buffers":[
		{
			"byteLength":36088,
			"uri":"Effect4.bin"
		}
	]
}
