# Blender 4.1.1
# www.blender.org
mtllib tornadoAbove1.mtl
o 円
v 0.000000 0.000000 3.474991
v 0.677937 0.000000 3.408220
v 1.329822 0.000000 3.210473
v 1.930602 0.000000 2.889349
v 2.457190 0.000000 2.457190
v 2.889349 0.000000 1.930602
v 3.210473 0.000000 1.329822
v 3.408220 0.000000 0.677937
v 3.474991 0.000000 0.000000
v 3.408220 0.000000 -0.677937
v 3.210473 0.000000 -1.329822
v 2.889349 0.000000 -1.930602
v 2.457190 0.000000 -2.457190
v 1.930602 0.000000 -2.889349
v 1.329822 0.000000 -3.210473
v 0.677937 0.000000 -3.408220
v 0.000000 0.000000 -3.474991
v -0.677937 0.000000 -3.408220
v -1.329822 0.000000 -3.210473
v -1.930602 0.000000 -2.889349
v -2.457190 0.000000 -2.457190
v -2.889349 0.000000 -1.930602
v -3.210473 0.000000 -1.329822
v -3.408220 0.000000 -0.677937
v -3.474991 0.000000 0.000000
v -3.408220 0.000000 0.677937
v -3.210473 0.000000 1.329822
v -2.889349 0.000000 1.930602
v -2.457190 0.000000 2.457190
v -1.930602 0.000000 2.889349
v -1.329822 0.000000 3.210473
v -0.677937 0.000000 3.408220
v 0.000000 0.000000 2.907499
v 0.567225 0.000000 2.851632
v 1.112652 0.000000 2.686179
v 1.615320 0.000000 2.417497
v 2.055912 0.000000 2.055912
v 2.417497 0.000000 1.615320
v 2.686179 0.000000 1.112652
v 2.851632 0.000000 0.567225
v 2.907499 0.000000 0.000000
v 2.851632 0.000000 -0.567225
v 2.686179 0.000000 -1.112652
v 2.417497 0.000000 -1.615320
v 2.055912 0.000000 -2.055912
v 1.615320 0.000000 -2.417497
v 1.112652 0.000000 -2.686179
v 0.567225 0.000000 -2.851632
v 0.000000 0.000000 -2.907499
v -0.567225 0.000000 -2.851632
v -1.112652 0.000000 -2.686179
v -1.615320 0.000000 -2.417497
v -2.055912 0.000000 -2.055912
v -2.417497 0.000000 -1.615320
v -2.686179 0.000000 -1.112652
v -2.851632 0.000000 -0.567225
v -2.907499 0.000000 0.000000
v -2.851632 0.000000 0.567225
v -2.686179 0.000000 1.112652
v -2.417497 0.000000 1.615320
v -2.055912 0.000000 2.055912
v -1.615320 0.000000 2.417497
v -1.112652 0.000000 2.686179
v -0.567225 0.000000 2.851632
vn -0.0000 -1.0000 -0.0000
vt 0.000000 0.000000
s 0
f 16/1/1 49/1/1 17/1/1
f 3/1/1 36/1/1 4/1/1
f 31/1/1 62/1/1 63/1/1
f 18/1/1 49/1/1 50/1/1
f 5/1/1 36/1/1 37/1/1
f 32/1/1 63/1/1 64/1/1
f 18/1/1 51/1/1 19/1/1
f 5/1/1 38/1/1 6/1/1
f 32/1/1 33/1/1 1/1/1
f 19/1/1 52/1/1 20/1/1
f 7/1/1 38/1/1 39/1/1
f 21/1/1 52/1/1 53/1/1
f 8/1/1 39/1/1 40/1/1
f 21/1/1 54/1/1 22/1/1
f 8/1/1 41/1/1 9/1/1
f 23/1/1 54/1/1 55/1/1
f 10/1/1 41/1/1 42/1/1
f 24/1/1 55/1/1 56/1/1
f 10/1/1 43/1/1 11/1/1
f 24/1/1 57/1/1 25/1/1
f 11/1/1 44/1/1 12/1/1
f 26/1/1 57/1/1 58/1/1
f 13/1/1 44/1/1 45/1/1
f 26/1/1 59/1/1 27/1/1
f 13/1/1 46/1/1 14/1/1
f 27/1/1 60/1/1 28/1/1
f 15/1/1 46/1/1 47/1/1
f 2/1/1 33/1/1 34/1/1
f 29/1/1 60/1/1 61/1/1
f 16/1/1 47/1/1 48/1/1
f 2/1/1 35/1/1 3/1/1
f 29/1/1 62/1/1 30/1/1
f 16/1/1 48/1/1 49/1/1
f 3/1/1 35/1/1 36/1/1
f 31/1/1 30/1/1 62/1/1
f 18/1/1 17/1/1 49/1/1
f 5/1/1 4/1/1 36/1/1
f 32/1/1 31/1/1 63/1/1
f 18/1/1 50/1/1 51/1/1
f 5/1/1 37/1/1 38/1/1
f 32/1/1 64/1/1 33/1/1
f 19/1/1 51/1/1 52/1/1
f 7/1/1 6/1/1 38/1/1
f 21/1/1 20/1/1 52/1/1
f 8/1/1 7/1/1 39/1/1
f 21/1/1 53/1/1 54/1/1
f 8/1/1 40/1/1 41/1/1
f 23/1/1 22/1/1 54/1/1
f 10/1/1 9/1/1 41/1/1
f 24/1/1 23/1/1 55/1/1
f 10/1/1 42/1/1 43/1/1
f 24/1/1 56/1/1 57/1/1
f 11/1/1 43/1/1 44/1/1
f 26/1/1 25/1/1 57/1/1
f 13/1/1 12/1/1 44/1/1
f 26/1/1 58/1/1 59/1/1
f 13/1/1 45/1/1 46/1/1
f 27/1/1 59/1/1 60/1/1
f 15/1/1 14/1/1 46/1/1
f 2/1/1 1/1/1 33/1/1
f 29/1/1 28/1/1 60/1/1
f 16/1/1 15/1/1 47/1/1
f 2/1/1 34/1/1 35/1/1
f 29/1/1 61/1/1 62/1/1
