{
	"asset":{
		"generator":"Khronos glTF Blender I/O v4.2.57",
		"version":"2.0"
	},
	"scene":0,
	"scenes":[
		{
			"name":"Scene",
			"nodes":[
				13
			]
		}
	],
	"nodes":[
		{
			"name":"\u30dc\u30fc\u30f3.002",
			"translation":[
				-0.054282046854496,
				1.7158666849136353,
				-0.02689361199736595
			]
		},
		{
			"name":"\u30dc\u30fc\u30f3.004.R",
			"rotation":[
				1.2367256374545832e-07,
				1.2038258034863247e-07,
				-0.06529064476490021,
				0.9978663325309753
			],
			"scale":[
				0.9999999403953552,
				1,
				0.9999999403953552
			],
			"translation":[
				-3.166496753692627e-08,
				0.7152682542800903,
				-2.3787671921127185e-07
			]
		},
		{
			"children":[
				1
			],
			"name":"\u30dc\u30fc\u30f3.003.R",
			"rotation":[
				-2.7925523227168014e-08,
				-2.335643358719608e-07,
				0.114414282143116,
				0.9934331178665161
			],
			"scale":[
				1,
				1,
				0.9999999403953552
			],
			"translation":[
				-7.683411240577698e-09,
				0.9462399482727051,
				-6.827521303875983e-08
			]
		},
		{
			"children":[
				2
			],
			"name":"\u30dc\u30fc\u30f3.001.R",
			"rotation":[
				-0.9115785360336304,
				-0.045002974569797516,
				-0.02015034668147564,
				0.4081583619117737
			],
			"scale":[
				1,
				0.9999999403953552,
				0.9999996423721313
			],
			"translation":[
				0.006611625663936138,
				0.6580193042755127,
				-0.9178079962730408
			]
		},
		{
			"name":"Ik.Hand.R",
			"rotation":[
				-0.912688672542572,
				7.02820628362133e-08,
				-1.9672630457989726e-07,
				0.4086554944515228
			],
			"translation":[
				0.006611679680645466,
				-0.44142189621925354,
				-2.1492292881011963
			]
		},
		{
			"name":"Ik.Hand.Pole.R",
			"rotation":[
				-0.6291159987449646,
				-0.6346952319145203,
				-0.28418412804603577,
				0.34729599952697754
			],
			"scale":[
				1,
				0.9999999403953552,
				1
			],
			"translation":[
				0.9498892426490784,
				0.03088635392487049,
				-1.6202237606048584
			]
		},
		{
			"name":"\u30dc\u30fc\u30f3.004.L",
			"rotation":[
				9.380651277979268e-08,
				-1.3455246516969055e-07,
				0.06529068201780319,
				0.9978663325309753
			],
			"scale":[
				0.9999999403953552,
				0.9999999403953552,
				1
			],
			"translation":[
				-9.313225746154785e-09,
				0.715268075466156,
				-1.1861816773262035e-07
			]
		},
		{
			"children":[
				6
			],
			"name":"\u30dc\u30fc\u30f3.003.L",
			"rotation":[
				-1.1603099592250032e-09,
				2.801498055760021e-07,
				-0.1144142895936966,
				0.9934331178665161
			],
			"scale":[
				0.9999999403953552,
				1,
				1
			],
			"translation":[
				-3.026798367500305e-09,
				0.9462398886680603,
				-3.812201754271882e-08
			]
		},
		{
			"children":[
				7
			],
			"name":"\u30dc\u30fc\u30f3.001.L",
			"rotation":[
				-0.020150354132056236,
				-0.4081583321094513,
				-0.9115785956382751,
				0.04500293359160423
			],
			"scale":[
				1,
				1.0000001192092896,
				1.0000001192092896
			],
			"translation":[
				0.006611545570194721,
				0.6580193042755127,
				0.9178079962730408
			]
		},
		{
			"name":"Ik.Hand.L",
			"rotation":[
				1.3794829101243522e-07,
				0.40865540504455566,
				0.9126887917518616,
				7.95681529552894e-08
			],
			"translation":[
				0.0066114915534853935,
				-0.44142189621925354,
				2.1492292881011963
			]
		},
		{
			"name":"Ik.Hand.Pole.L",
			"rotation":[
				-0.2841840386390686,
				-0.3472961187362671,
				-0.629115879535675,
				0.6346952319145203
			],
			"scale":[
				0.9999999403953552,
				0.9999998807907104,
				0.9999999403953552
			],
			"translation":[
				0.9498891234397888,
				0.03088635392487049,
				1.6202237606048584
			]
		},
		{
			"children":[
				0,
				3,
				4,
				5,
				8,
				9,
				10
			],
			"name":"\u30dc\u30fc\u30f3",
			"rotation":[
				0,
				0.7071067690849304,
				0,
				0.7071067690849304
			],
			"scale":[
				1,
				0.9999999403953552,
				1
			]
		},
		{
			"mesh":0,
			"name":"\u7acb\u65b9\u4f53",
			"skin":0
		},
		{
			"children":[
				12,
				11
			],
			"name":"\u30a2\u30fc\u30de\u30c1\u30e5\u30a2"
		}
	],
	"animations":[
		{
			"channels":[
				{
					"sampler":0,
					"target":{
						"node":11,
						"path":"translation"
					}
				},
				{
					"sampler":1,
					"target":{
						"node":11,
						"path":"rotation"
					}
				},
				{
					"sampler":2,
					"target":{
						"node":11,
						"path":"scale"
					}
				},
				{
					"sampler":3,
					"target":{
						"node":0,
						"path":"translation"
					}
				},
				{
					"sampler":4,
					"target":{
						"node":0,
						"path":"rotation"
					}
				},
				{
					"sampler":5,
					"target":{
						"node":0,
						"path":"scale"
					}
				},
				{
					"sampler":6,
					"target":{
						"node":3,
						"path":"translation"
					}
				},
				{
					"sampler":7,
					"target":{
						"node":3,
						"path":"rotation"
					}
				},
				{
					"sampler":8,
					"target":{
						"node":3,
						"path":"scale"
					}
				},
				{
					"sampler":9,
					"target":{
						"node":2,
						"path":"translation"
					}
				},
				{
					"sampler":10,
					"target":{
						"node":2,
						"path":"rotation"
					}
				},
				{
					"sampler":11,
					"target":{
						"node":2,
						"path":"scale"
					}
				},
				{
					"sampler":12,
					"target":{
						"node":1,
						"path":"translation"
					}
				},
				{
					"sampler":13,
					"target":{
						"node":1,
						"path":"rotation"
					}
				},
				{
					"sampler":14,
					"target":{
						"node":1,
						"path":"scale"
					}
				},
				{
					"sampler":15,
					"target":{
						"node":4,
						"path":"translation"
					}
				},
				{
					"sampler":16,
					"target":{
						"node":4,
						"path":"rotation"
					}
				},
				{
					"sampler":17,
					"target":{
						"node":4,
						"path":"scale"
					}
				},
				{
					"sampler":18,
					"target":{
						"node":5,
						"path":"translation"
					}
				},
				{
					"sampler":19,
					"target":{
						"node":5,
						"path":"rotation"
					}
				},
				{
					"sampler":20,
					"target":{
						"node":5,
						"path":"scale"
					}
				},
				{
					"sampler":21,
					"target":{
						"node":8,
						"path":"translation"
					}
				},
				{
					"sampler":22,
					"target":{
						"node":8,
						"path":"rotation"
					}
				},
				{
					"sampler":23,
					"target":{
						"node":8,
						"path":"scale"
					}
				},
				{
					"sampler":24,
					"target":{
						"node":7,
						"path":"translation"
					}
				},
				{
					"sampler":25,
					"target":{
						"node":7,
						"path":"rotation"
					}
				},
				{
					"sampler":26,
					"target":{
						"node":7,
						"path":"scale"
					}
				},
				{
					"sampler":27,
					"target":{
						"node":6,
						"path":"translation"
					}
				},
				{
					"sampler":28,
					"target":{
						"node":6,
						"path":"rotation"
					}
				},
				{
					"sampler":29,
					"target":{
						"node":6,
						"path":"scale"
					}
				},
				{
					"sampler":30,
					"target":{
						"node":9,
						"path":"translation"
					}
				},
				{
					"sampler":31,
					"target":{
						"node":9,
						"path":"rotation"
					}
				},
				{
					"sampler":32,
					"target":{
						"node":9,
						"path":"scale"
					}
				},
				{
					"sampler":33,
					"target":{
						"node":10,
						"path":"translation"
					}
				},
				{
					"sampler":34,
					"target":{
						"node":10,
						"path":"rotation"
					}
				},
				{
					"sampler":35,
					"target":{
						"node":10,
						"path":"scale"
					}
				}
			],
			"name":"\u30a2\u30fc\u30de\u30c1\u30e5\u30a2\u30a2\u30af\u30b7\u30e7\u30f3",
			"samplers":[
				{
					"input":8,
					"interpolation":"STEP",
					"output":9
				},
				{
					"input":8,
					"interpolation":"STEP",
					"output":10
				},
				{
					"input":8,
					"interpolation":"STEP",
					"output":11
				},
				{
					"input":8,
					"interpolation":"STEP",
					"output":12
				},
				{
					"input":8,
					"interpolation":"STEP",
					"output":13
				},
				{
					"input":8,
					"interpolation":"STEP",
					"output":14
				},
				{
					"input":8,
					"interpolation":"STEP",
					"output":15
				},
				{
					"input":16,
					"interpolation":"LINEAR",
					"output":17
				},
				{
					"input":8,
					"interpolation":"STEP",
					"output":18
				},
				{
					"input":8,
					"interpolation":"STEP",
					"output":19
				},
				{
					"input":16,
					"interpolation":"LINEAR",
					"output":20
				},
				{
					"input":8,
					"interpolation":"STEP",
					"output":21
				},
				{
					"input":8,
					"interpolation":"STEP",
					"output":22
				},
				{
					"input":16,
					"interpolation":"LINEAR",
					"output":23
				},
				{
					"input":8,
					"interpolation":"STEP",
					"output":24
				},
				{
					"input":16,
					"interpolation":"LINEAR",
					"output":25
				},
				{
					"input":16,
					"interpolation":"LINEAR",
					"output":26
				},
				{
					"input":8,
					"interpolation":"STEP",
					"output":27
				},
				{
					"input":16,
					"interpolation":"LINEAR",
					"output":28
				},
				{
					"input":8,
					"interpolation":"STEP",
					"output":29
				},
				{
					"input":8,
					"interpolation":"STEP",
					"output":30
				},
				{
					"input":8,
					"interpolation":"STEP",
					"output":31
				},
				{
					"input":16,
					"interpolation":"LINEAR",
					"output":32
				},
				{
					"input":8,
					"interpolation":"STEP",
					"output":33
				},
				{
					"input":8,
					"interpolation":"STEP",
					"output":34
				},
				{
					"input":16,
					"interpolation":"LINEAR",
					"output":35
				},
				{
					"input":8,
					"interpolation":"STEP",
					"output":36
				},
				{
					"input":8,
					"interpolation":"STEP",
					"output":37
				},
				{
					"input":16,
					"interpolation":"LINEAR",
					"output":38
				},
				{
					"input":8,
					"interpolation":"STEP",
					"output":39
				},
				{
					"input":16,
					"interpolation":"LINEAR",
					"output":40
				},
				{
					"input":16,
					"interpolation":"LINEAR",
					"output":41
				},
				{
					"input":8,
					"interpolation":"STEP",
					"output":42
				},
				{
					"input":16,
					"interpolation":"LINEAR",
					"output":43
				},
				{
					"input":16,
					"interpolation":"LINEAR",
					"output":44
				},
				{
					"input":8,
					"interpolation":"STEP",
					"output":45
				}
			]
		}
	],
	"materials":[
		{
			"doubleSided":true,
			"name":"Material",
			"pbrMetallicRoughness":{
				"baseColorTexture":{
					"index":0
				},
				"metallicFactor":0,
				"roughnessFactor":0.5
			}
		}
	],
	"meshes":[
		{
			"name":"\u7acb\u65b9\u4f53",
			"primitives":[
				{
					"attributes":{
						"POSITION":0,
						"NORMAL":1,
						"TEXCOORD_0":2,
						"TEXCOORD_1":3,
						"JOINTS_0":4,
						"WEIGHTS_0":5
					},
					"indices":6,
					"material":0
				}
			]
		}
	],
	"textures":[
		{
			"sampler":0,
			"source":0
		}
	],
	"images":[
		{
			"mimeType":"image/png",
			"name":"Player",
			"uri":"Player.png"
		}
	],
	"skins":[
		{
			"inverseBindMatrices":7,
			"joints":[
				11,
				0,
				3,
				2,
				1,
				4,
				5,
				8,
				7,
				6,
				9,
				10
			],
			"name":"\u30a2\u30fc\u30de\u30c1\u30e5\u30a2"
		}
	],
	"accessors":[
		{
			"bufferView":0,
			"componentType":5126,
			"count":197,
			"max":[
				2.561194896697998,
				2.6889069080352783,
				0.5453660488128662
			],
			"min":[
				-2.561194896697998,
				-0.842984676361084,
				-0.5453656911849976
			],
			"type":"VEC3"
		},
		{
			"bufferView":1,
			"componentType":5126,
			"count":197,
			"type":"VEC3"
		},
		{
			"bufferView":2,
			"componentType":5126,
			"count":197,
			"type":"VEC2"
		},
		{
			"bufferView":3,
			"componentType":5126,
			"count":197,
			"type":"VEC2"
		},
		{
			"bufferView":4,
			"componentType":5121,
			"count":197,
			"type":"VEC4"
		},
		{
			"bufferView":5,
			"componentType":5126,
			"count":197,
			"type":"VEC4"
		},
		{
			"bufferView":6,
			"componentType":5123,
			"count":348,
			"type":"SCALAR"
		},
		{
			"bufferView":7,
			"componentType":5126,
			"count":12,
			"type":"MAT4"
		},
		{
			"bufferView":8,
			"componentType":5126,
			"count":2,
			"max":[
				0.6666666666666666
			],
			"min":[
				0
			],
			"type":"SCALAR"
		},
		{
			"bufferView":9,
			"componentType":5126,
			"count":2,
			"type":"VEC3"
		},
		{
			"bufferView":10,
			"componentType":5126,
			"count":2,
			"type":"VEC4"
		},
		{
			"bufferView":11,
			"componentType":5126,
			"count":2,
			"type":"VEC3"
		},
		{
			"bufferView":12,
			"componentType":5126,
			"count":2,
			"type":"VEC3"
		},
		{
			"bufferView":13,
			"componentType":5126,
			"count":2,
			"type":"VEC4"
		},
		{
			"bufferView":14,
			"componentType":5126,
			"count":2,
			"type":"VEC3"
		},
		{
			"bufferView":15,
			"componentType":5126,
			"count":2,
			"type":"VEC3"
		},
		{
			"bufferView":16,
			"componentType":5126,
			"count":41,
			"max":[
				0.6666666666666666
			],
			"min":[
				0
			],
			"type":"SCALAR"
		},
		{
			"bufferView":17,
			"componentType":5126,
			"count":41,
			"type":"VEC4"
		},
		{
			"bufferView":18,
			"componentType":5126,
			"count":2,
			"type":"VEC3"
		},
		{
			"bufferView":19,
			"componentType":5126,
			"count":2,
			"type":"VEC3"
		},
		{
			"bufferView":20,
			"componentType":5126,
			"count":41,
			"type":"VEC4"
		},
		{
			"bufferView":21,
			"componentType":5126,
			"count":2,
			"type":"VEC3"
		},
		{
			"bufferView":22,
			"componentType":5126,
			"count":2,
			"type":"VEC3"
		},
		{
			"bufferView":23,
			"componentType":5126,
			"count":41,
			"type":"VEC4"
		},
		{
			"bufferView":24,
			"componentType":5126,
			"count":2,
			"type":"VEC3"
		},
		{
			"bufferView":25,
			"componentType":5126,
			"count":41,
			"type":"VEC3"
		},
		{
			"bufferView":26,
			"componentType":5126,
			"count":41,
			"type":"VEC4"
		},
		{
			"bufferView":27,
			"componentType":5126,
			"count":2,
			"type":"VEC3"
		},
		{
			"bufferView":28,
			"componentType":5126,
			"count":41,
			"type":"VEC3"
		},
		{
			"bufferView":29,
			"componentType":5126,
			"count":2,
			"type":"VEC4"
		},
		{
			"bufferView":30,
			"componentType":5126,
			"count":2,
			"type":"VEC3"
		},
		{
			"bufferView":31,
			"componentType":5126,
			"count":2,
			"type":"VEC3"
		},
		{
			"bufferView":32,
			"componentType":5126,
			"count":41,
			"type":"VEC4"
		},
		{
			"bufferView":33,
			"componentType":5126,
			"count":2,
			"type":"VEC3"
		},
		{
			"bufferView":34,
			"componentType":5126,
			"count":2,
			"type":"VEC3"
		},
		{
			"bufferView":35,
			"componentType":5126,
			"count":41,
			"type":"VEC4"
		},
		{
			"bufferView":36,
			"componentType":5126,
			"count":2,
			"type":"VEC3"
		},
		{
			"bufferView":37,
			"componentType":5126,
			"count":2,
			"type":"VEC3"
		},
		{
			"bufferView":38,
			"componentType":5126,
			"count":41,
			"type":"VEC4"
		},
		{
			"bufferView":39,
			"componentType":5126,
			"count":2,
			"type":"VEC3"
		},
		{
			"bufferView":40,
			"componentType":5126,
			"count":41,
			"type":"VEC3"
		},
		{
			"bufferView":41,
			"componentType":5126,
			"count":41,
			"type":"VEC4"
		},
		{
			"bufferView":42,
			"componentType":5126,
			"count":2,
			"type":"VEC3"
		},
		{
			"bufferView":43,
			"componentType":5126,
			"count":41,
			"type":"VEC3"
		},
		{
			"bufferView":44,
			"componentType":5126,
			"count":41,
			"type":"VEC4"
		},
		{
			"bufferView":45,
			"componentType":5126,
			"count":2,
			"type":"VEC3"
		}
	],
	"bufferViews":[
		{
			"buffer":0,
			"byteLength":2364,
			"byteOffset":0,
			"target":34962
		},
		{
			"buffer":0,
			"byteLength":2364,
			"byteOffset":2364,
			"target":34962
		},
		{
			"buffer":0,
			"byteLength":1576,
			"byteOffset":4728,
			"target":34962
		},
		{
			"buffer":0,
			"byteLength":1576,
			"byteOffset":6304,
			"target":34962
		},
		{
			"buffer":0,
			"byteLength":788,
			"byteOffset":7880,
			"target":34962
		},
		{
			"buffer":0,
			"byteLength":3152,
			"byteOffset":8668,
			"target":34962
		},
		{
			"buffer":0,
			"byteLength":696,
			"byteOffset":11820,
			"target":34963
		},
		{
			"buffer":0,
			"byteLength":768,
			"byteOffset":12516
		},
		{
			"buffer":0,
			"byteLength":8,
			"byteOffset":13284
		},
		{
			"buffer":0,
			"byteLength":24,
			"byteOffset":13292
		},
		{
			"buffer":0,
			"byteLength":32,
			"byteOffset":13316
		},
		{
			"buffer":0,
			"byteLength":24,
			"byteOffset":13348
		},
		{
			"buffer":0,
			"byteLength":24,
			"byteOffset":13372
		},
		{
			"buffer":0,
			"byteLength":32,
			"byteOffset":13396
		},
		{
			"buffer":0,
			"byteLength":24,
			"byteOffset":13428
		},
		{
			"buffer":0,
			"byteLength":24,
			"byteOffset":13452
		},
		{
			"buffer":0,
			"byteLength":164,
			"byteOffset":13476
		},
		{
			"buffer":0,
			"byteLength":656,
			"byteOffset":13640
		},
		{
			"buffer":0,
			"byteLength":24,
			"byteOffset":14296
		},
		{
			"buffer":0,
			"byteLength":24,
			"byteOffset":14320
		},
		{
			"buffer":0,
			"byteLength":656,
			"byteOffset":14344
		},
		{
			"buffer":0,
			"byteLength":24,
			"byteOffset":15000
		},
		{
			"buffer":0,
			"byteLength":24,
			"byteOffset":15024
		},
		{
			"buffer":0,
			"byteLength":656,
			"byteOffset":15048
		},
		{
			"buffer":0,
			"byteLength":24,
			"byteOffset":15704
		},
		{
			"buffer":0,
			"byteLength":492,
			"byteOffset":15728
		},
		{
			"buffer":0,
			"byteLength":656,
			"byteOffset":16220
		},
		{
			"buffer":0,
			"byteLength":24,
			"byteOffset":16876
		},
		{
			"buffer":0,
			"byteLength":492,
			"byteOffset":16900
		},
		{
			"buffer":0,
			"byteLength":32,
			"byteOffset":17392
		},
		{
			"buffer":0,
			"byteLength":24,
			"byteOffset":17424
		},
		{
			"buffer":0,
			"byteLength":24,
			"byteOffset":17448
		},
		{
			"buffer":0,
			"byteLength":656,
			"byteOffset":17472
		},
		{
			"buffer":0,
			"byteLength":24,
			"byteOffset":18128
		},
		{
			"buffer":0,
			"byteLength":24,
			"byteOffset":18152
		},
		{
			"buffer":0,
			"byteLength":656,
			"byteOffset":18176
		},
		{
			"buffer":0,
			"byteLength":24,
			"byteOffset":18832
		},
		{
			"buffer":0,
			"byteLength":24,
			"byteOffset":18856
		},
		{
			"buffer":0,
			"byteLength":656,
			"byteOffset":18880
		},
		{
			"buffer":0,
			"byteLength":24,
			"byteOffset":19536
		},
		{
			"buffer":0,
			"byteLength":492,
			"byteOffset":19560
		},
		{
			"buffer":0,
			"byteLength":656,
			"byteOffset":20052
		},
		{
			"buffer":0,
			"byteLength":24,
			"byteOffset":20708
		},
		{
			"buffer":0,
			"byteLength":492,
			"byteOffset":20732
		},
		{
			"buffer":0,
			"byteLength":656,
			"byteOffset":21224
		},
		{
			"buffer":0,
			"byteLength":24,
			"byteOffset":21880
		}
	],
	"samplers":[
		{
			"magFilter":9729,
			"minFilter":9987
		}
	],
	"buffers":[
		{
			"byteLength":21904,
			"uri":"KariPlayer_WeakAttack1.bin"
		}
	]
}
