# Blender 4.2.3 LTS
# www.blender.org
mtllib Building.mtl
o Cube
v 10.000000 36.009193 -18.627676
v 10.000000 -0.000001 -18.627674
v 10.000000 36.009193 -0.000003
v 10.000000 0.000000 0.000000
v -10.000000 36.009193 -18.627676
v -10.000000 -0.000001 -18.627674
v -10.000000 36.009193 -0.000003
v -10.000000 0.000000 0.000000
vn -0.0000 1.0000 -0.0000
vn -0.0000 -0.0000 1.0000
vn -1.0000 -0.0000 -0.0000
vn 1.0000 -0.0000 -0.0000
vt 0.550964 0.601135
vt 0.890142 0.965300
vt 0.550964 0.965300
vt 0.433208 0.834182
vt 0.075766 0.190621
vt 0.433208 0.190621
vt 0.891032 0.532218
vt 0.551854 0.032538
vt 0.891032 0.032538
vt 0.894025 0.517418
vt 0.554848 0.017738
vt 0.894025 0.017738
vt 0.890142 0.601135
vt 0.075766 0.834182
vt 0.551854 0.532218
vt 0.554848 0.517418
s 0
usemtl Material.001
f 5/1/1 3/2/1 1/3/1
f 3/4/2 8/5/2 4/6/2
f 7/7/3 6/8/3 8/9/3
f 1/10/4 4/11/4 2/12/4
f 5/1/1 7/13/1 3/2/1
f 3/4/2 7/14/2 8/5/2
f 7/7/3 5/15/3 6/8/3
f 1/10/4 3/16/4 4/11/4
