# Blender 4.2.2 LTS
# www.blender.org
mtllib axis.mtl
o Cube.001
v -0.300000 0.300000 0.300000
v 0.300000 0.300000 0.300000
v 0.300000 -0.300000 0.300000
v -0.300000 -0.300000 0.300000
v -0.300000 -0.300000 -0.300000
v 0.300000 -0.300000 -0.300000
v 0.300000 0.300000 -0.300000
v -0.300000 0.300000 -0.300000
v -0.300000 0.900907 0.300000
v 0.300000 0.900907 0.300000
v 0.300000 0.300907 0.300000
v -0.300000 0.300907 0.300000
v -0.300000 0.300907 -0.300000
v 0.300000 0.300907 -0.300000
v 0.300000 0.900907 -0.300000
v -0.300000 0.900907 -0.300000
v 0.300000 2.094362 0.300000
v 0.300000 2.094362 -0.300000
v -0.300000 2.094362 0.300000
v -0.300000 2.094362 -0.300000
v -0.846634 0.300000 0.300000
v -0.299571 0.300000 0.300000
v -0.299571 -0.300000 0.300000
v -0.846634 -0.300000 0.300000
v -0.846634 -0.300000 -0.300000
v -0.299571 -0.300000 -0.300000
v -0.299571 0.300000 -0.300000
v -0.846634 0.300000 -0.300000
v -2.045969 -0.300000 -0.300000
v -2.045969 -0.300000 0.300000
v -2.045969 0.300000 -0.300000
v -2.045969 0.300000 0.300000
v 0.300000 -0.300000 0.898849
v -0.300000 -0.300000 0.898849
v -0.300000 -0.300000 2.104063
v 0.300000 -0.300000 2.104063
v -0.300000 -0.300000 0.298849
v 0.300000 -0.300000 0.298849
v 0.300000 0.300000 0.898849
v 0.300000 0.300000 0.298849
v -0.300000 0.300000 0.298849
v -0.300000 0.300000 0.898849
v -0.300000 0.300000 2.104063
v 0.300000 0.300000 2.104063
vn -0.0000 -0.0000 1.0000
vn -0.0000 -1.0000 -0.0000
vn 1.0000 -0.0000 -0.0000
vn -0.0000 -0.0000 -1.0000
vn -1.0000 -0.0000 -0.0000
vn -0.0000 1.0000 -0.0000
vt 0.459222 0.946416
vt 0.540778 0.864860
vt 0.459222 0.864860
vt 0.756596 0.036215
vt 0.838151 0.117771
vt 0.838151 0.036215
vt 0.102941 0.861760
vt 0.184497 0.943316
vt 0.184497 0.861760
vt 0.756596 0.199326
vt 0.756596 0.117771
vt 0.888362 0.459154
vt 0.969918 0.540710
vt 0.969918 0.459154
vt 0.362165 0.895864
vt 0.443720 0.977420
vt 0.443720 0.895864
vt 0.240304 0.816805
vt 0.321860 0.735249
vt 0.240304 0.735249
vt 0.703889 0.585665
vt 0.785444 0.667221
vt 0.785444 0.585665
vt 0.403415 0.735249
vt 0.321860 0.816805
vt 0.403415 0.816805
vt 0.090540 0.796652
vt 0.172095 0.715096
vt 0.090540 0.715096
vt 0.540778 0.568377
vt 0.459222 0.649932
vt 0.540778 0.649932
vt 0.403415 0.573027
vt 0.580478 0.858660
vt 0.662034 0.940215
vt 0.662034 0.858660
vt 0.172095 0.552875
vt 0.321860 0.573027
vt 0.459222 0.812154
vt 0.579533 0.416263
vt 0.661088 0.497819
vt 0.661088 0.416263
vt 0.665134 0.567577
vt 0.583578 0.649133
vt 0.665134 0.649133
vt 0.240304 0.863310
vt 0.321860 0.944866
vt 0.321860 0.863310
vt 0.886471 0.620284
vt 0.968027 0.701840
vt 0.968027 0.620284
vt 0.583578 0.812154
vt 0.742644 0.416263
vt 0.742644 0.497819
vt 0.886471 0.864860
vt 0.968027 0.946416
vt 0.968027 0.864860
vt 0.742644 0.253242
vt 0.886471 0.701840
vt 0.661088 0.253242
vt 0.343562 0.459863
vt 0.425118 0.296043
vt 0.343562 0.296043
vt 0.343562 0.214488
vt 0.425118 0.214488
vt 0.459222 0.214488
vt 0.540778 0.296043
vt 0.540778 0.214488
vt 0.969918 0.377599
vt 0.888362 0.377599
vt 0.207750 0.214488
vt 0.289305 0.296043
vt 0.289305 0.214488
vt 0.056436 0.220688
vt 0.137991 0.302244
vt 0.137991 0.220688
vt 0.703889 0.792182
vt 0.785444 0.710626
vt 0.703889 0.710626
vt 0.459222 0.459863
vt 0.459222 0.296043
vt 0.207750 0.459863
vt 0.207750 0.296043
vt 0.056436 0.466064
vt 0.056436 0.302244
vt 0.540778 0.946416
vt 0.102941 0.943316
vt 0.838151 0.199326
vt 0.888362 0.540710
vt 0.362165 0.977420
vt 0.703889 0.667221
vt 0.172095 0.796652
vt 0.459222 0.568377
vt 0.580478 0.940215
vt 0.090540 0.552875
vt 0.240304 0.573027
vt 0.540778 0.812154
vt 0.579533 0.497819
vt 0.583578 0.567577
vt 0.240304 0.944866
vt 0.665134 0.812154
vt 0.886472 0.946416
vt 0.579533 0.253242
vt 0.425118 0.459863
vt 0.785444 0.792182
vt 0.540778 0.459863
vt 0.289305 0.459863
vt 0.137991 0.466064
s 1
usemtl Material.001
f 4/1/1 2/2/1 1/3/1
f 6/4/2 4/5/2 5/6/2
f 7/7/3 3/8/3 6/9/3
f 6/10/4 8/5/4 7/11/4
f 5/12/5 1/13/5 8/14/5
f 8/15/6 2/16/6 7/17/6
f 12/18/1 10/19/1 9/20/1
f 14/21/2 12/22/2 13/23/2
f 15/24/3 11/25/3 14/26/3
f 14/27/4 16/28/4 15/29/4
f 13/30/5 9/31/5 16/32/5
f 18/33/3 10/19/3 15/24/3
f 20/34/6 17/35/6 18/36/6
f 20/37/4 15/29/4 16/28/4
f 17/38/1 9/20/1 10/19/1
f 19/39/5 16/32/5 9/31/5
f 24/40/1 22/41/1 21/42/1
f 26/43/2 24/44/2 25/45/2
f 27/46/3 23/47/3 26/48/3
f 26/49/4 28/50/4 27/51/4
f 30/52/2 25/45/2 24/44/2
f 28/53/6 22/41/6 27/54/6
f 29/55/5 32/56/5 31/57/5
f 31/58/6 21/42/6 28/53/6
f 29/55/4 28/50/4 25/59/4
f 32/60/1 24/40/1 21/42/1
f 36/61/2 34/62/2 33/63/2
f 38/64/2 34/62/2 37/65/2
f 40/66/3 33/67/3 38/68/3
f 38/12/4 41/69/4 40/70/4
f 37/71/5 42/72/5 41/73/5
f 41/74/6 39/75/6 40/76/6
f 35/77/1 44/78/1 43/79/1
f 44/80/3 33/67/3 39/81/3
f 35/82/5 42/72/5 34/83/5
f 43/84/6 39/75/6 42/85/6
f 4/1/1 3/86/1 2/2/1
f 6/4/2 3/11/2 4/5/2
f 7/7/3 2/87/3 3/8/3
f 6/10/4 5/88/4 8/5/4
f 5/12/5 4/89/5 1/13/5
f 8/15/6 1/90/6 2/16/6
f 12/18/1 11/25/1 10/19/1
f 14/21/2 11/91/2 12/22/2
f 15/24/3 10/19/3 11/25/3
f 14/27/4 13/92/4 16/28/4
f 13/30/5 12/93/5 9/31/5
f 18/33/3 17/38/3 10/19/3
f 20/34/6 19/94/6 17/35/6
f 20/37/4 18/95/4 15/29/4
f 17/38/1 19/96/1 9/20/1
f 19/39/5 20/97/5 16/32/5
f 24/40/1 23/98/1 22/41/1
f 26/43/2 23/99/2 24/44/2
f 27/46/3 22/100/3 23/47/3
f 26/49/4 25/59/4 28/50/4
f 30/52/2 29/101/2 25/45/2
f 28/53/6 21/42/6 22/41/6
f 29/55/5 30/102/5 32/56/5
f 31/58/6 32/60/6 21/42/6
f 29/55/4 31/57/4 28/50/4
f 32/60/1 30/103/1 24/40/1
f 36/61/2 35/104/2 34/62/2
f 38/64/2 33/63/2 34/62/2
f 40/66/3 39/81/3 33/67/3
f 38/12/4 37/14/4 41/69/4
f 37/71/5 34/83/5 42/72/5
f 41/74/6 42/85/6 39/75/6
f 35/77/1 36/105/1 44/78/1
f 44/80/3 36/106/3 33/67/3
f 35/82/5 43/107/5 42/72/5
f 43/84/6 44/108/6 39/75/6
