{
	"asset":{
		"generator":"Khronos glTF Blender I/O v4.2.70",
		"version":"2.0"
	},
	"scene":0,
	"scenes":[
		{
			"name":"Scene",
			"nodes":[
				7
			]
		}
	],
	"nodes":[
		{
			"name":"\u30dc\u30fc\u30f3"
		},
		{
			"name":"\u30dc\u30fc\u30f3.001",
			"translation":[
				-4.984381675720215,
				-0.03690488636493683,
				-0.0548115149140358
			]
		},
		{
			"name":"\u30dc\u30fc\u30f3.002",
			"translation":[
				-7.429074287414551,
				-0.0922660082578659,
				-0.011385239660739899
			]
		},
		{
			"name":"\u30dc\u30fc\u30f3.003",
			"translation":[
				-10.028280258178711,
				-0.0830368846654892,
				-0.09369762986898422
			]
		},
		{
			"name":"\u30dc\u30fc\u30f3.004",
			"translation":[
				-12.4721040725708,
				-0.11994367837905884,
				-0.08507268130779266
			]
		},
		{
			"name":"\u30dc\u30fc\u30f3.005",
			"translation":[
				-15.12995719909668,
				-0.10148735344409943,
				-0.18626099824905396
			]
		},
		{
			"mesh":0,
			"name":"\u5e73\u9762",
			"skin":0
		},
		{
			"children":[
				6,
				0,
				1,
				2,
				3,
				4,
				5
			],
			"name":"\u30a2\u30fc\u30de\u30c1\u30e5\u30a2.001"
		}
	],
	"animations":[
		{
			"channels":[
				{
					"sampler":0,
					"target":{
						"node":0,
						"path":"translation"
					}
				},
				{
					"sampler":1,
					"target":{
						"node":0,
						"path":"rotation"
					}
				},
				{
					"sampler":2,
					"target":{
						"node":0,
						"path":"scale"
					}
				},
				{
					"sampler":3,
					"target":{
						"node":1,
						"path":"translation"
					}
				},
				{
					"sampler":4,
					"target":{
						"node":1,
						"path":"rotation"
					}
				},
				{
					"sampler":5,
					"target":{
						"node":1,
						"path":"scale"
					}
				},
				{
					"sampler":6,
					"target":{
						"node":2,
						"path":"translation"
					}
				},
				{
					"sampler":7,
					"target":{
						"node":2,
						"path":"rotation"
					}
				},
				{
					"sampler":8,
					"target":{
						"node":2,
						"path":"scale"
					}
				},
				{
					"sampler":9,
					"target":{
						"node":3,
						"path":"translation"
					}
				},
				{
					"sampler":10,
					"target":{
						"node":3,
						"path":"rotation"
					}
				},
				{
					"sampler":11,
					"target":{
						"node":3,
						"path":"scale"
					}
				},
				{
					"sampler":12,
					"target":{
						"node":4,
						"path":"translation"
					}
				},
				{
					"sampler":13,
					"target":{
						"node":4,
						"path":"rotation"
					}
				},
				{
					"sampler":14,
					"target":{
						"node":4,
						"path":"scale"
					}
				},
				{
					"sampler":15,
					"target":{
						"node":5,
						"path":"translation"
					}
				},
				{
					"sampler":16,
					"target":{
						"node":5,
						"path":"rotation"
					}
				},
				{
					"sampler":17,
					"target":{
						"node":5,
						"path":"scale"
					}
				}
			],
			"name":"\u30a2\u30fc\u30de\u30c1\u30e5\u30a2.001\u30a2\u30af\u30b7\u30e7\u30f3",
			"samplers":[
				{
					"input":7,
					"interpolation":"STEP",
					"output":8
				},
				{
					"input":7,
					"interpolation":"STEP",
					"output":9
				},
				{
					"input":7,
					"interpolation":"STEP",
					"output":10
				},
				{
					"input":11,
					"interpolation":"LINEAR",
					"output":12
				},
				{
					"input":11,
					"interpolation":"LINEAR",
					"output":13
				},
				{
					"input":11,
					"interpolation":"LINEAR",
					"output":14
				},
				{
					"input":11,
					"interpolation":"LINEAR",
					"output":15
				},
				{
					"input":11,
					"interpolation":"LINEAR",
					"output":16
				},
				{
					"input":11,
					"interpolation":"LINEAR",
					"output":17
				},
				{
					"input":11,
					"interpolation":"LINEAR",
					"output":18
				},
				{
					"input":11,
					"interpolation":"LINEAR",
					"output":19
				},
				{
					"input":11,
					"interpolation":"LINEAR",
					"output":20
				},
				{
					"input":11,
					"interpolation":"LINEAR",
					"output":21
				},
				{
					"input":11,
					"interpolation":"LINEAR",
					"output":22
				},
				{
					"input":11,
					"interpolation":"LINEAR",
					"output":23
				},
				{
					"input":11,
					"interpolation":"LINEAR",
					"output":24
				},
				{
					"input":11,
					"interpolation":"LINEAR",
					"output":25
				},
				{
					"input":11,
					"interpolation":"LINEAR",
					"output":26
				}
			]
		},
		{
			"channels":[
				{
					"sampler":0,
					"target":{
						"node":0,
						"path":"translation"
					}
				},
				{
					"sampler":1,
					"target":{
						"node":0,
						"path":"rotation"
					}
				},
				{
					"sampler":2,
					"target":{
						"node":0,
						"path":"scale"
					}
				},
				{
					"sampler":3,
					"target":{
						"node":1,
						"path":"translation"
					}
				},
				{
					"sampler":4,
					"target":{
						"node":1,
						"path":"rotation"
					}
				},
				{
					"sampler":5,
					"target":{
						"node":1,
						"path":"scale"
					}
				},
				{
					"sampler":6,
					"target":{
						"node":2,
						"path":"translation"
					}
				},
				{
					"sampler":7,
					"target":{
						"node":2,
						"path":"rotation"
					}
				},
				{
					"sampler":8,
					"target":{
						"node":2,
						"path":"scale"
					}
				},
				{
					"sampler":9,
					"target":{
						"node":3,
						"path":"translation"
					}
				},
				{
					"sampler":10,
					"target":{
						"node":3,
						"path":"rotation"
					}
				},
				{
					"sampler":11,
					"target":{
						"node":3,
						"path":"scale"
					}
				},
				{
					"sampler":12,
					"target":{
						"node":4,
						"path":"translation"
					}
				},
				{
					"sampler":13,
					"target":{
						"node":4,
						"path":"rotation"
					}
				},
				{
					"sampler":14,
					"target":{
						"node":4,
						"path":"scale"
					}
				},
				{
					"sampler":15,
					"target":{
						"node":5,
						"path":"translation"
					}
				},
				{
					"sampler":16,
					"target":{
						"node":5,
						"path":"rotation"
					}
				},
				{
					"sampler":17,
					"target":{
						"node":5,
						"path":"scale"
					}
				}
			],
			"name":"\u30a2\u30fc\u30de\u30c1\u30e5\u30a2\u30a2\u30af\u30b7\u30e7\u30f3_\u30a2\u30fc\u30de\u30c1\u30e5\u30a2",
			"samplers":[
				{
					"input":27,
					"interpolation":"STEP",
					"output":28
				},
				{
					"input":27,
					"interpolation":"STEP",
					"output":29
				},
				{
					"input":27,
					"interpolation":"STEP",
					"output":30
				},
				{
					"input":27,
					"interpolation":"STEP",
					"output":31
				},
				{
					"input":27,
					"interpolation":"STEP",
					"output":32
				},
				{
					"input":27,
					"interpolation":"STEP",
					"output":33
				},
				{
					"input":27,
					"interpolation":"STEP",
					"output":34
				},
				{
					"input":27,
					"interpolation":"STEP",
					"output":35
				},
				{
					"input":27,
					"interpolation":"STEP",
					"output":36
				},
				{
					"input":27,
					"interpolation":"STEP",
					"output":37
				},
				{
					"input":27,
					"interpolation":"STEP",
					"output":38
				},
				{
					"input":27,
					"interpolation":"STEP",
					"output":39
				},
				{
					"input":27,
					"interpolation":"STEP",
					"output":40
				},
				{
					"input":27,
					"interpolation":"STEP",
					"output":41
				},
				{
					"input":27,
					"interpolation":"STEP",
					"output":42
				},
				{
					"input":27,
					"interpolation":"STEP",
					"output":43
				},
				{
					"input":27,
					"interpolation":"STEP",
					"output":44
				},
				{
					"input":27,
					"interpolation":"STEP",
					"output":45
				}
			]
		}
	],
	"materials":[
		{
			"alphaMode":"BLEND",
			"doubleSided":true,
			"name":"\u30de\u30c6\u30ea\u30a2\u30eb",
			"pbrMetallicRoughness":{
				"baseColorTexture":{
					"index":0
				},
				"metallicFactor":0,
				"roughnessFactor":0.5
			}
		}
	],
	"meshes":[
		{
			"name":"\u5e73\u9762",
			"primitives":[
				{
					"attributes":{
						"POSITION":0,
						"NORMAL":1,
						"TEXCOORD_0":2,
						"JOINTS_0":3,
						"WEIGHTS_0":4
					},
					"indices":5,
					"material":0
				}
			]
		}
	],
	"textures":[
		{
			"sampler":0,
			"source":0
		}
	],
	"images":[
		{
			"mimeType":"image/png",
			"name":"Effect15",
			"uri":"Effect15.png"
		}
	],
	"skins":[
		{
			"inverseBindMatrices":6,
			"joints":[
				0,
				1,
				2,
				3,
				4,
				5
			],
			"name":"\u30a2\u30fc\u30de\u30c1\u30e5\u30a2.001"
		}
	],
	"accessors":[
		{
			"bufferView":0,
			"componentType":5126,
			"count":20,
			"max":[
				-3.859692096710205,
				0,
				1
			],
			"min":[
				-16.03346061706543,
				-0.04942259192466736,
				-1.2022137641906738
			],
			"type":"VEC3"
		},
		{
			"bufferView":1,
			"componentType":5126,
			"count":20,
			"type":"VEC3"
		},
		{
			"bufferView":2,
			"componentType":5126,
			"count":20,
			"type":"VEC2"
		},
		{
			"bufferView":3,
			"componentType":5121,
			"count":20,
			"type":"VEC4"
		},
		{
			"bufferView":4,
			"componentType":5126,
			"count":20,
			"type":"VEC4"
		},
		{
			"bufferView":5,
			"componentType":5123,
			"count":30,
			"type":"SCALAR"
		},
		{
			"bufferView":6,
			"componentType":5126,
			"count":6,
			"type":"MAT4"
		},
		{
			"bufferView":7,
			"componentType":5126,
			"count":2,
			"max":[
				0.3333333333333333
			],
			"min":[
				0.016666666666666666
			],
			"type":"SCALAR"
		},
		{
			"bufferView":8,
			"componentType":5126,
			"count":2,
			"type":"VEC3"
		},
		{
			"bufferView":9,
			"componentType":5126,
			"count":2,
			"type":"VEC4"
		},
		{
			"bufferView":10,
			"componentType":5126,
			"count":2,
			"type":"VEC3"
		},
		{
			"bufferView":11,
			"componentType":5126,
			"count":20,
			"max":[
				0.3333333333333333
			],
			"min":[
				0.016666666666666666
			],
			"type":"SCALAR"
		},
		{
			"bufferView":12,
			"componentType":5126,
			"count":20,
			"type":"VEC3"
		},
		{
			"bufferView":13,
			"componentType":5126,
			"count":20,
			"type":"VEC4"
		},
		{
			"bufferView":14,
			"componentType":5126,
			"count":20,
			"type":"VEC3"
		},
		{
			"bufferView":15,
			"componentType":5126,
			"count":20,
			"type":"VEC3"
		},
		{
			"bufferView":16,
			"componentType":5126,
			"count":20,
			"type":"VEC4"
		},
		{
			"bufferView":17,
			"componentType":5126,
			"count":20,
			"type":"VEC3"
		},
		{
			"bufferView":18,
			"componentType":5126,
			"count":20,
			"type":"VEC3"
		},
		{
			"bufferView":19,
			"componentType":5126,
			"count":20,
			"type":"VEC4"
		},
		{
			"bufferView":20,
			"componentType":5126,
			"count":20,
			"type":"VEC3"
		},
		{
			"bufferView":21,
			"componentType":5126,
			"count":20,
			"type":"VEC3"
		},
		{
			"bufferView":22,
			"componentType":5126,
			"count":20,
			"type":"VEC4"
		},
		{
			"bufferView":23,
			"componentType":5126,
			"count":20,
			"type":"VEC3"
		},
		{
			"bufferView":24,
			"componentType":5126,
			"count":20,
			"type":"VEC3"
		},
		{
			"bufferView":25,
			"componentType":5126,
			"count":20,
			"type":"VEC4"
		},
		{
			"bufferView":26,
			"componentType":5126,
			"count":20,
			"type":"VEC3"
		},
		{
			"bufferView":27,
			"componentType":5126,
			"count":2,
			"max":[
				0.4
			],
			"min":[
				0
			],
			"type":"SCALAR"
		},
		{
			"bufferView":28,
			"componentType":5126,
			"count":2,
			"type":"VEC3"
		},
		{
			"bufferView":29,
			"componentType":5126,
			"count":2,
			"type":"VEC4"
		},
		{
			"bufferView":30,
			"componentType":5126,
			"count":2,
			"type":"VEC3"
		},
		{
			"bufferView":31,
			"componentType":5126,
			"count":2,
			"type":"VEC3"
		},
		{
			"bufferView":32,
			"componentType":5126,
			"count":2,
			"type":"VEC4"
		},
		{
			"bufferView":33,
			"componentType":5126,
			"count":2,
			"type":"VEC3"
		},
		{
			"bufferView":34,
			"componentType":5126,
			"count":2,
			"type":"VEC3"
		},
		{
			"bufferView":35,
			"componentType":5126,
			"count":2,
			"type":"VEC4"
		},
		{
			"bufferView":36,
			"componentType":5126,
			"count":2,
			"type":"VEC3"
		},
		{
			"bufferView":37,
			"componentType":5126,
			"count":2,
			"type":"VEC3"
		},
		{
			"bufferView":38,
			"componentType":5126,
			"count":2,
			"type":"VEC4"
		},
		{
			"bufferView":39,
			"componentType":5126,
			"count":2,
			"type":"VEC3"
		},
		{
			"bufferView":40,
			"componentType":5126,
			"count":2,
			"type":"VEC3"
		},
		{
			"bufferView":41,
			"componentType":5126,
			"count":2,
			"type":"VEC4"
		},
		{
			"bufferView":42,
			"componentType":5126,
			"count":2,
			"type":"VEC3"
		},
		{
			"bufferView":43,
			"componentType":5126,
			"count":2,
			"type":"VEC3"
		},
		{
			"bufferView":44,
			"componentType":5126,
			"count":2,
			"type":"VEC4"
		},
		{
			"bufferView":45,
			"componentType":5126,
			"count":2,
			"type":"VEC3"
		}
	],
	"bufferViews":[
		{
			"buffer":0,
			"byteLength":240,
			"byteOffset":0,
			"target":34962
		},
		{
			"buffer":0,
			"byteLength":240,
			"byteOffset":240,
			"target":34962
		},
		{
			"buffer":0,
			"byteLength":160,
			"byteOffset":480,
			"target":34962
		},
		{
			"buffer":0,
			"byteLength":80,
			"byteOffset":640,
			"target":34962
		},
		{
			"buffer":0,
			"byteLength":320,
			"byteOffset":720,
			"target":34962
		},
		{
			"buffer":0,
			"byteLength":60,
			"byteOffset":1040,
			"target":34963
		},
		{
			"buffer":0,
			"byteLength":384,
			"byteOffset":1100
		},
		{
			"buffer":0,
			"byteLength":8,
			"byteOffset":1484
		},
		{
			"buffer":0,
			"byteLength":24,
			"byteOffset":1492
		},
		{
			"buffer":0,
			"byteLength":32,
			"byteOffset":1516
		},
		{
			"buffer":0,
			"byteLength":24,
			"byteOffset":1548
		},
		{
			"buffer":0,
			"byteLength":80,
			"byteOffset":1572
		},
		{
			"buffer":0,
			"byteLength":240,
			"byteOffset":1652
		},
		{
			"buffer":0,
			"byteLength":320,
			"byteOffset":1892
		},
		{
			"buffer":0,
			"byteLength":240,
			"byteOffset":2212
		},
		{
			"buffer":0,
			"byteLength":240,
			"byteOffset":2452
		},
		{
			"buffer":0,
			"byteLength":320,
			"byteOffset":2692
		},
		{
			"buffer":0,
			"byteLength":240,
			"byteOffset":3012
		},
		{
			"buffer":0,
			"byteLength":240,
			"byteOffset":3252
		},
		{
			"buffer":0,
			"byteLength":320,
			"byteOffset":3492
		},
		{
			"buffer":0,
			"byteLength":240,
			"byteOffset":3812
		},
		{
			"buffer":0,
			"byteLength":240,
			"byteOffset":4052
		},
		{
			"buffer":0,
			"byteLength":320,
			"byteOffset":4292
		},
		{
			"buffer":0,
			"byteLength":240,
			"byteOffset":4612
		},
		{
			"buffer":0,
			"byteLength":240,
			"byteOffset":4852
		},
		{
			"buffer":0,
			"byteLength":320,
			"byteOffset":5092
		},
		{
			"buffer":0,
			"byteLength":240,
			"byteOffset":5412
		},
		{
			"buffer":0,
			"byteLength":8,
			"byteOffset":5652
		},
		{
			"buffer":0,
			"byteLength":24,
			"byteOffset":5660
		},
		{
			"buffer":0,
			"byteLength":32,
			"byteOffset":5684
		},
		{
			"buffer":0,
			"byteLength":24,
			"byteOffset":5716
		},
		{
			"buffer":0,
			"byteLength":24,
			"byteOffset":5740
		},
		{
			"buffer":0,
			"byteLength":32,
			"byteOffset":5764
		},
		{
			"buffer":0,
			"byteLength":24,
			"byteOffset":5796
		},
		{
			"buffer":0,
			"byteLength":24,
			"byteOffset":5820
		},
		{
			"buffer":0,
			"byteLength":32,
			"byteOffset":5844
		},
		{
			"buffer":0,
			"byteLength":24,
			"byteOffset":5876
		},
		{
			"buffer":0,
			"byteLength":24,
			"byteOffset":5900
		},
		{
			"buffer":0,
			"byteLength":32,
			"byteOffset":5924
		},
		{
			"buffer":0,
			"byteLength":24,
			"byteOffset":5956
		},
		{
			"buffer":0,
			"byteLength":24,
			"byteOffset":5980
		},
		{
			"buffer":0,
			"byteLength":32,
			"byteOffset":6004
		},
		{
			"buffer":0,
			"byteLength":24,
			"byteOffset":6036
		},
		{
			"buffer":0,
			"byteLength":24,
			"byteOffset":6060
		},
		{
			"buffer":0,
			"byteLength":32,
			"byteOffset":6084
		},
		{
			"buffer":0,
			"byteLength":24,
			"byteOffset":6116
		}
	],
	"samplers":[
		{
			"magFilter":9729,
			"minFilter":9987
		}
	],
	"buffers":[
		{
			"byteLength":6140,
			"uri":"Effect15.bin"
		}
	]
}
