# Blender 4.4.3
# www.blender.org
mtllib pillar.mtl
o 立方体.003
v 1.316187 8.145887 0.904747
v 0.904748 8.313078 0.904747
v 0.904748 8.145887 1.316187
v -0.904748 8.313078 0.904748
v -1.316187 8.145887 0.904748
v -0.743785 8.145887 1.316187
v 1.316187 7.243399 0.904747
v 0.904747 8.313078 -1.316187
v -0.682286 8.313078 -1.316187
v 0.733897 7.386915 1.316187
v 1.142764 7.243399 1.078170
v -1.142764 7.243398 1.078170
v -0.743785 7.340117 1.316187
v -1.316187 7.431201 0.904748
v -1.142764 7.243398 1.078170
v -1.316187 7.410589 -1.316187
v -0.991010 8.278025 -1.316187
v -1.316187 8.145887 -0.991010
v -1.316187 7.410589 -1.316187
v -0.991010 7.410589 -1.316187
v 1.316186 8.145887 -1.051022
v 1.051022 8.253638 -1.316187
v 0.981439 7.464066 -1.316187
v 1.316187 7.302838 -1.051022
v 1.316187 7.243399 -0.574498
v 1.316187 7.302838 -1.051022
v -1.116335 7.338291 -1.138269
v -0.902112 7.243398 -0.574498
v -0.604862 2.248305 0.604862
v -0.604862 2.475071 0.879926
v -0.879926 2.475071 0.604862
v -0.604862 3.472378 0.879926
v -0.604862 3.699143 0.604862
v -0.879926 3.383663 0.604862
v -0.604862 2.248305 -0.879926
v 0.879926 2.475071 0.879926
v 0.879926 3.349767 0.879926
v -0.879926 2.569236 -0.643811
v -0.720802 2.343888 -0.879926
v -0.720802 3.603561 -0.879926
v -0.879926 3.383663 -0.720802
v -0.604862 3.699143 -0.570951
v -0.720802 3.603561 -0.879926
v 0.879926 3.699143 -0.604862
v 0.879926 3.519921 0.822256
v 0.662532 3.699143 0.604862
v 0.879926 3.699143 -0.604862
v 0.879926 3.519921 -0.604862
v 0.702653 2.248305 0.604862
v 0.879926 2.394451 0.782135
v 0.879926 2.432802 -0.516881
v 0.702653 2.248305 -0.782135
v 0.384076 2.248305 -0.879926
v 0.702653 2.248305 -0.782135
v 0.760981 3.588995 -0.723807
v 0.384076 3.470925 -0.879926
v 0.604862 5.439465 0.879926
v 0.879926 5.439465 0.604862
v 0.604862 5.752065 0.604862
v 0.879926 5.439465 -0.604862
v 0.604862 5.439465 -0.879926
v 0.604862 5.752065 -0.497252
v -0.879926 5.439466 0.879926
v 0.879926 3.752064 0.604862
v 0.879926 3.752064 -0.456137
v -0.643810 5.752065 0.490641
v -0.879926 5.571227 0.763986
v -0.879926 5.571227 -0.763986
v -0.720802 5.752065 -0.497252
v -0.570951 5.439466 -0.879926
v -0.879926 5.571227 -0.763986
v -0.604862 3.752065 -0.879926
v 0.822256 3.752064 -0.662532
v 0.604862 3.999124 -0.879926
v -0.604862 3.752065 -0.879926
v -0.604862 3.752065 -0.662532
v 0.604862 3.953528 0.879926
v 0.782135 3.752064 0.702653
v -0.516881 3.752065 0.656133
v -0.782135 3.953529 0.879926
v -0.879926 4.315578 0.879926
v -0.782135 3.953529 0.879926
v -0.723807 3.887241 -0.746317
v -0.879926 4.315578 -0.603100
v 0.652893 6.983103 -0.949800
v 0.652893 7.204203 -0.652893
v 0.949800 6.983104 -0.652893
v 0.652893 7.204203 0.652893
v 0.652893 6.983103 0.949800
v 0.949800 6.983103 0.536738
v 0.652893 5.789616 -0.949800
v -0.949800 7.204203 -0.652893
v -0.949800 7.204203 0.492358
v 0.949800 5.979408 -0.529602
v 0.778040 5.789616 -0.824653
v 0.778040 5.789616 0.824653
v 0.949800 5.917521 0.536737
v 0.652893 6.037973 0.949800
v 0.778040 5.789616 0.824653
v -0.949800 6.010715 0.949800
v -0.949800 7.157847 0.715142
v -0.715142 6.983103 0.949800
v -0.949800 6.010715 0.949800
v -0.949800 6.010715 0.715142
v -0.758450 6.983103 -0.949800
v -0.949800 7.125598 -0.758449
v -0.949800 6.081435 -0.708236
v -0.758449 5.868221 -0.949800
v -0.414575 5.789616 -0.949800
v -0.758449 5.868221 -0.949800
v -0.821409 5.915106 0.805581
v -0.414575 5.789616 0.650991
v -0.781215 2.090907 1.156997
v -0.781215 2.218810 0.796758
v -1.141454 2.090907 0.796758
v -0.781215 2.218810 -0.787561
v -0.781215 2.090906 -1.147800
v -1.141454 2.090906 -0.646629
v -0.904747 1.400486 1.316186
v 1.163343 2.218810 0.796758
v 1.163343 2.218810 -0.592783
v -1.316186 1.510279 0.733897
v -1.078170 1.400486 1.142764
v -1.078170 1.400486 -1.142764
v -1.316186 1.474478 -0.743785
v -0.904747 1.544158 -1.316186
v -1.078170 1.400486 -1.142764
v 1.316186 1.528390 -1.316186
v 1.163343 2.191994 -0.863088
v 0.878632 2.090906 -1.147800
v 1.316186 1.528390 -1.316186
v 1.316186 1.528390 -0.991009
v 0.931176 2.090906 1.156997
v 1.163343 2.173337 0.924830
v 1.316186 1.569301 0.981439
v 1.051022 1.445959 1.316186
v 0.574498 1.400486 1.316186
v 1.051022 1.445959 1.316186
v 1.138269 1.473081 -1.116334
v 0.574498 1.400486 -0.902112
v 1.040061 1.137306 -1.513036
v 1.040061 1.348320 -1.040062
v 1.513035 1.137306 -1.040062
v 1.040062 1.348319 1.040062
v 1.040062 1.137306 1.513036
v 1.513036 1.137306 0.855025
v 1.040061 -0.001738 -1.513036
v -1.513036 1.348320 -1.040061
v -1.513036 1.348320 0.784328
v 1.513035 0.179397 -0.843659
v 1.239421 -0.001738 -1.313676
v 1.239422 -0.001738 1.313676
v 1.513036 0.120333 0.855025
v 1.040062 0.235291 1.513036
v 1.239422 -0.001738 1.313676
v -1.513036 0.209276 1.513036
v -1.513036 1.304078 1.139225
v -1.139225 1.137306 1.513036
v -1.513036 0.209276 1.513036
v -1.513036 0.209276 1.139225
v -1.208214 1.137306 -1.513036
v -1.513036 1.273300 -1.208213
v -1.513036 0.276770 -1.128223
v -1.208214 0.073282 -1.513036
v -0.660420 -0.001738 -1.513036
v -1.208214 0.073282 -1.513036
v -1.308509 0.118028 1.283294
v -0.660420 -0.001738 1.037032
vn -0.0000 1.0000 -0.0000
vn 0.0122 -0.8847 -0.4660
vn -0.4784 -0.8777 -0.0266
vn 0.3523 0.8670 0.3523
vn -0.3335 0.8207 0.4640
vn -0.0000 -0.0000 1.0000
vn -0.0000 0.9264 0.3765
vn -0.0000 -0.0000 -1.0000
vn -1.0000 -0.0000 -0.0000
vn 0.3765 0.9264 -0.0000
vn 0.0111 -0.8926 0.4507
vn 0.6342 -0.0364 0.7723
vn -0.5810 0.0236 0.8135
vn -0.4686 0.1757 -0.8658
vn -0.3011 0.9536 -0.0034
vn 0.6550 -0.0279 -0.7551
vn -0.0000 -1.0000 -0.0000
vn -0.0048 -0.9893 -0.1458
vn 1.0000 -0.0000 -0.0000
vn 0.7915 -0.0252 -0.6106
vn 0.0391 0.8513 -0.5232
vn -0.5367 -0.6510 0.5367
vn -0.6627 0.5778 0.4764
vn -0.7071 -0.0000 0.7071
vn -0.0000 -0.7716 0.6361
vn -0.7788 -0.0233 -0.6268
vn -0.7084 -0.7057 -0.0136
vn -0.7558 0.6547 0.0089
vn 0.8340 0.5475 0.0688
vn 0.0063 0.6859 0.7277
vn 0.6889 -0.7248 -0.0103
vn 0.3409 0.0136 -0.9400
vn -0.6590 -0.7518 0.0224
vn -0.5972 -0.0392 -0.8011
vn 0.6004 0.5283 0.6004
vn 0.5346 0.6545 -0.5346
vn 0.7507 0.6606 -0.0000
vn 0.7071 -0.0000 0.7071
vn -0.6748 0.7378 0.0206
vn -0.0159 0.7310 0.6822
vn 0.0104 0.7764 -0.6302
vn 0.0796 -0.8491 -0.5222
vn 0.7896 -0.0060 -0.6136
vn -0.0122 -0.7121 0.7020
vn -0.9526 -0.3040 -0.0114
vn -0.6944 -0.7193 -0.0182
vn -0.0393 -0.7070 0.7062
vn 0.5128 0.6886 -0.5128
vn 0.6391 0.6169 0.4594
vn 0.5973 0.8020 -0.0000
vn -0.0000 0.8020 -0.5973
vn 0.6791 -0.7339 -0.0167
vn 0.7726 -0.0199 -0.6345
vn 0.8137 0.0129 0.5811
vn -0.8753 0.0969 0.4737
vn -0.0056 0.8655 0.5008
vn -0.7553 -0.0152 -0.6552
vn -0.2607 -0.9654 0.0086
vn 0.3738 -0.9275 0.0098
vn 0.0214 -0.9228 -0.3848
vn -0.3173 0.8937 0.3173
vn -0.4220 0.8543 -0.3033
vn -0.9598 0.2807 -0.0034
vn -0.3346 0.9424 -0.0000
vn 0.9746 0.2242 -0.0013
vn 0.0012 0.2908 -0.9568
vn -0.0000 0.9424 0.3346
vn -0.3603 -0.9328 0.0089
vn -0.7350 0.2487 0.6308
vn -0.7794 0.3217 -0.5376
vn 0.7653 0.4738 -0.4358
vn 0.0030 0.9640 -0.2660
vn 0.6746 0.2662 0.6885
vn 0.1120 -0.9937 -0.0037
vn -0.0028 0.2260 0.9741
vn -0.5006 -0.8656 -0.0132
vn -0.0286 -0.8577 0.5133
vn 0.3773 0.8457 -0.3773
vn 0.4931 0.7945 0.3545
vn 0.4074 0.9132 -0.0000
vn -0.0000 0.9132 -0.4074
vn 0.4848 -0.8745 -0.0119
vn 0.7724 -0.0332 -0.6343
vn 0.8136 0.0215 0.5810
vn -0.8681 0.1604 0.4698
vn -0.0037 0.9448 0.3275
vn -0.7552 -0.0254 -0.6550
vn -0.1597 -0.9872 0.0053
vt 0.414075 0.750000
vt 0.585925 0.750000
vt 0.585925 0.960925
vt 0.414075 0.960925
vt 0.625000 0.539075
vt 0.594118 0.539075
vt 0.400183 0.539075
vt 0.375000 0.488709
vt 0.606020 0.505281
vt 0.606020 0.460925
vt 0.585675 0.429561
vt 0.608530 0.272605
vt 0.625000 0.289075
vt 0.625000 0.460925
vt 0.164075 0.710925
vt 0.164075 0.750000
vt 0.125000 0.710925
vt 0.585925 0.000000
vt 0.625000 0.039075
vt 0.585925 0.039075
vt 0.414075 0.039075
vt 0.585925 0.227395
vt 0.414075 0.227395
vt 0.414075 0.000000
vt 0.594117 0.539075
vt 0.594117 0.741808
vt 0.400183 0.736108
vt 0.835925 0.543892
vt 0.835925 0.710925
vt 0.655882 0.710925
vt 0.349817 0.710925
vt 0.375000 0.736108
vt 0.375000 0.750000
vt 0.391470 0.272605
vt 0.164075 0.500000
vt 0.125000 0.522605
vt 0.147605 0.500000
vt 0.625000 0.206108
vt 0.608530 0.250000
vt 0.594117 0.750000
vt 0.625000 0.780882
vt 0.625000 0.960925
vt 0.349817 0.710925
vt 0.349817 0.513892
vt 0.375000 0.289075
vt 0.375000 0.429561
vt 0.304561 0.500000
s 0
f 8/1/1 9/2/1 4/3/1 2/4/1
f 19/5/2 20/6/2 23/7/2 24/8/2 26/8/2 27/9/2 16/5/2
f 27/10/3 28/11/3 15/12/3 14/13/3 16/14/3
f 1/15/4 2/16/4 3/17/4
f 4/18/5 5/19/5 6/20/5
f 3/21/6 6/20/6 13/22/6 10/23/6
f 2/24/7 4/18/7 6/20/7 3/21/7
f 23/7/8 20/25/8 17/26/8 9/2/8 8/1/8 22/27/8
f 19/5/9 16/5/9 14/28/9 5/29/9 18/30/9
f 1/15/10 21/31/10 22/32/10 8/33/10 2/16/10
f 12/12/11 11/34/11 10/23/11 13/22/11
f 7/35/12 1/15/12 3/17/12 10/36/12 11/37/12
f 5/19/13 14/38/13 15/39/13 12/39/13 13/22/13 6/20/13
f 17/26/14 20/25/14 19/5/14 18/30/14
f 17/40/15 18/41/15 5/42/15 4/3/15 9/2/15
f 23/7/16 22/27/16 21/43/16 24/44/16
f 7/45/17 11/34/17 12/12/17 15/12/17 28/11/17 25/46/17
f 27/9/18 26/8/18 25/46/18 28/11/18
f 7/35/19 25/47/19 26/44/19 24/44/19 21/43/19 1/15/19
f 36/1/6 37/2/6 32/3/6 30/4/6
f 47/5/20 48/6/20 51/7/20 52/8/20 54/8/20 55/9/20 44/5/20
f 55/10/21 56/11/21 43/12/21 42/13/21 44/14/21
f 29/15/22 30/16/22 31/17/22
f 32/18/23 33/19/23 34/20/23
f 31/21/9 34/20/9 41/22/9 38/23/9
f 30/24/24 32/18/24 34/20/24 31/21/24
f 51/7/19 48/25/19 45/26/19 37/2/19 36/1/19 50/27/19
f 47/5/1 44/5/1 42/28/1 33/29/1 46/30/1
f 29/15/25 49/31/25 50/32/25 36/33/25 30/16/25
f 40/12/26 39/34/26 38/23/26 41/22/26
f 35/35/27 29/15/27 31/17/27 38/36/27 39/37/27
f 33/19/28 42/38/28 43/39/28 40/39/28 41/22/28 34/20/28
f 45/26/29 48/25/29 47/5/29 46/30/29
f 45/40/30 46/41/30 33/42/30 32/3/30 37/2/30
f 51/7/31 50/27/31 49/43/31 52/44/31
f 35/45/8 39/34/8 40/12/8 43/12/8 56/11/8 53/46/8
f 55/9/32 54/8/32 53/46/32 56/11/32
f 35/35/17 53/47/17 54/44/17 52/44/17 49/43/17 29/15/17
f 64/1/19 65/2/19 60/3/19 58/4/19
f 75/5/33 76/6/33 79/7/33 80/8/33 82/8/33 83/9/33 72/5/33
f 83/10/34 84/11/34 71/12/34 70/13/34 72/14/34
f 57/15/35 58/16/35 59/17/35
f 60/18/36 61/19/36 62/20/36
f 59/21/1 62/20/1 69/22/1 66/23/1
f 58/24/37 60/18/37 62/20/37 59/21/37
f 79/7/17 76/25/17 73/26/17 65/2/17 64/1/17 78/27/17
f 75/5/8 72/5/8 70/28/8 61/29/8 74/30/8
f 57/15/38 77/31/38 78/32/38 64/33/38 58/16/38
f 68/12/39 67/34/39 66/23/39 69/22/39
f 63/35/40 57/15/40 59/17/40 66/36/40 67/37/40
f 61/19/41 70/38/41 71/39/41 68/39/41 69/22/41 62/20/41
f 73/26/42 76/25/42 75/5/42 74/30/42
f 73/40/43 74/41/43 61/42/43 60/3/43 65/2/43
f 79/7/44 78/27/44 77/43/44 80/44/44
f 63/45/9 67/34/9 68/12/9 71/12/9 84/11/9 81/46/9
f 83/9/45 82/8/45 81/46/45 84/11/45
f 63/35/6 81/47/6 82/44/6 80/44/6 77/43/6 57/15/6
f 92/1/1 93/2/1 88/3/1 86/4/1
f 103/5/46 104/6/46 107/7/46 108/8/46 110/8/46 111/9/46 100/5/46
f 111/10/47 112/11/47 99/12/47 98/13/47 100/14/47
f 85/15/48 86/16/48 87/17/48
f 88/18/49 89/19/49 90/20/49
f 87/21/19 90/20/19 97/22/19 94/23/19
f 86/24/50 88/18/50 90/20/50 87/21/50
f 107/7/9 104/25/9 101/26/9 93/2/9 92/1/9 106/27/9
f 103/5/6 100/5/6 98/28/6 89/29/6 102/30/6
f 85/15/51 105/31/51 106/32/51 92/33/51 86/16/51
f 96/12/52 95/34/52 94/23/52 97/22/52
f 91/35/53 85/15/53 87/17/53 94/36/53 95/37/53
f 89/19/54 98/38/54 99/39/54 96/39/54 97/22/54 90/20/54
f 101/26/55 104/25/55 103/5/55 102/30/55
f 101/40/56 102/41/56 89/42/56 88/3/56 93/2/56
f 107/7/57 106/27/57 105/43/57 108/44/57
f 91/45/17 95/34/17 96/12/17 99/12/17 112/11/17 109/46/17
f 111/9/58 110/8/58 109/46/58 112/11/58
f 91/35/8 109/47/8 110/44/8 108/44/8 105/43/8 85/15/8
f 120/1/1 121/2/1 116/3/1 114/4/1
f 131/5/59 132/6/59 135/7/59 136/8/59 138/8/59 139/9/59 128/5/59
f 139/10/60 140/11/60 127/12/60 126/13/60 128/14/60
f 113/15/61 114/16/61 115/17/61
f 116/18/62 117/19/62 118/20/62
f 115/21/63 118/20/63 125/22/63 122/23/63
f 114/24/64 116/18/64 118/20/64 115/21/64
f 135/7/65 132/25/65 129/26/65 121/2/65 120/1/65 134/27/65
f 131/5/66 128/5/66 126/28/66 117/29/66 130/30/66
f 113/15/67 133/31/67 134/32/67 120/33/67 114/16/67
f 124/12/68 123/34/68 122/23/68 125/22/68
f 119/35/69 113/15/69 115/17/69 122/36/69 123/37/69
f 117/19/70 126/38/70 127/39/70 124/39/70 125/22/70 118/20/70
f 129/26/71 132/25/71 131/5/71 130/30/71
f 129/40/72 130/41/72 117/42/72 116/3/72 121/2/72
f 135/7/73 134/27/73 133/43/73 136/44/73
f 119/45/17 123/34/17 124/12/17 127/12/17 140/11/17 137/46/17
f 139/9/74 138/8/74 137/46/74 140/11/74
f 119/35/75 137/47/75 138/44/75 136/44/75 133/43/75 113/15/75
f 148/1/1 149/2/1 144/3/1 142/4/1
f 159/5/76 160/6/76 163/7/76 164/8/76 166/8/76 167/9/76 156/5/76
f 167/10/77 168/11/77 155/12/77 154/13/77 156/14/77
f 141/15/78 142/16/78 143/17/78
f 144/18/79 145/19/79 146/20/79
f 143/21/19 146/20/19 153/22/19 150/23/19
f 142/24/80 144/18/80 146/20/80 143/21/80
f 163/7/9 160/25/9 157/26/9 149/2/9 148/1/9 162/27/9
f 159/5/6 156/5/6 154/28/6 145/29/6 158/30/6
f 141/15/81 161/31/81 162/32/81 148/33/81 142/16/81
f 152/12/82 151/34/82 150/23/82 153/22/82
f 147/35/83 141/15/83 143/17/83 150/36/83 151/37/83
f 145/19/84 154/38/84 155/39/84 152/39/84 153/22/84 146/20/84
f 157/26/85 160/25/85 159/5/85 158/30/85
f 157/40/86 158/41/86 145/42/86 144/3/86 149/2/86
f 163/7/87 162/27/87 161/43/87 164/44/87
f 147/45/17 151/34/17 152/12/17 155/12/17 168/11/17 165/46/17
f 167/9/88 166/8/88 165/46/88 168/11/88
f 147/35/8 165/47/8 166/44/8 164/44/8 161/43/8 141/15/8
