# Blender 4.4.3
# www.blender.org
mtllib rock.mtl
o 立方体.017
v 1.461544 -0.036167 1.553874
v 0.216078 -0.036167 2.091526
v 1.542463 0.912781 1.236944
v 2.044257 -0.036167 0.599910
v 1.998962 0.912781 0.519390
v 1.976581 -0.036167 -0.765660
v 1.176651 -0.036167 -1.624850
v 1.894491 0.912781 -0.531734
v 1.151928 0.912781 -1.220868
v -0.151785 0.912781 -1.779605
v -1.799336 0.912781 -0.742670
v -0.127061 -0.036167 -2.183586
v -1.774613 -0.036167 -1.146652
v -1.899110 -0.036167 1.030905
v -0.917028 -0.036167 1.837206
v -1.883103 0.912781 0.641776
v -0.923280 0.912781 1.417390
v 0.371063 0.912781 1.707899
v 0.961550 1.406424 -0.922036
v 1.655019 1.406424 -0.326935
v 1.661406 1.406424 0.458791
v -0.055944 1.406424 -1.358107
v -1.434354 1.406424 -0.578859
v -0.658064 1.406424 1.137015
v -1.482961 1.406424 0.547408
v 0.352117 1.406424 1.363745
v 1.395967 1.406424 0.869846
vn -0.0000 -1.0000 -0.0000
vn 0.3696 0.2810 0.8857
vn 0.8455 0.0942 0.5256
vn 0.9948 0.0725 -0.0709
vn 0.6827 0.2670 -0.6801
vn 0.3229 0.5882 0.7414
vn 0.3655 0.3726 -0.8529
vn -0.5033 0.3273 -0.7997
vn -0.9983 -0.0041 -0.0584
vn -0.5991 0.3165 0.7354
vn -0.2012 0.3952 0.8963
vn -0.0000 1.0000 -0.0000
vn -0.7883 0.6139 -0.0416
vn 0.5537 0.5569 -0.6191
vn -0.1818 0.5577 0.8099
vn -0.4120 0.5992 -0.6864
vn 0.8589 0.5095 -0.0518
vn -0.4952 0.5794 0.6473
vn 0.3214 0.5780 -0.7500
vn 0.7074 0.5429 0.4525
vt 0.128346 0.679671
vt 0.171514 0.645946
vt 0.216252 0.654148
vt 0.243840 0.688447
vt 0.243095 0.715289
vt 0.243095 0.750000
vt 0.207816 0.750000
vt 0.166408 0.738905
vt 0.136095 0.708592
vt 0.375000 0.917184
vt 0.625000 0.896677
vt 0.625000 1.000000
vt 0.396282 1.000000
vt 0.375000 0.881905
vt 0.625000 0.883615
vt 0.758615 0.737647
vt 0.758615 0.750000
vt 0.757685 0.704158
vt 0.792104 0.661365
vt 0.847920 0.651133
vt 0.626921 0.082069
vt 0.379686 0.041174
vt 0.629686 0.051477
vt 0.376413 0.070258
vt 0.396282 0.000000
vt 0.625000 0.000000
vt 0.869325 0.667855
vt 0.861157 0.698339
vt 0.823339 0.736157
vt 0.771677 0.750000
s 0
f 14/1/1 13/2/1 12/3/1 7/4/1 6/5/1 4/6/1 1/7/1 2/8/1 15/9/1
f 1/10/2 3/11/2 18/12/2 2/13/2
f 4/14/3 5/15/3 3/11/3 1/10/3
f 4/6/4 6/5/4 8/16/4 5/17/4
f 8/16/5 6/5/5 7/4/5 9/18/5
f 18/12/6 3/11/6 27/11/6 26/12/6
f 9/18/7 7/4/7 12/3/7 10/19/7
f 10/19/8 12/3/8 13/2/8 11/20/8
f 11/20/9 13/2/9 14/1/9 16/21/9
f 15/22/10 17/23/10 16/21/10 14/24/10
f 2/25/11 18/26/11 17/23/11 15/22/11
f 21/17/12 20/16/12 19/18/12 22/19/12 23/20/12 25/27/12 24/28/12 26/29/12 27/30/12
f 11/20/13 16/21/13 25/21/13 23/20/13
f 8/16/14 9/18/14 19/18/14 20/16/14
f 17/23/15 18/26/15 26/26/15 24/23/15
f 10/19/16 11/20/16 23/20/16 22/19/16
f 5/17/17 8/16/17 20/16/17 21/17/17
f 16/21/18 17/23/18 24/23/18 25/21/18
f 9/18/19 10/19/19 22/19/19 19/18/19
f 3/11/20 5/15/20 21/15/20 27/11/20
