# Blender 4.2.2 LTS
# www.blender.org
mtllib TornadoRing3.mtl
o 円.002
v -0.293299 0.000000 -2.862153
v -0.845418 0.000000 -2.807774
v -1.376320 0.000000 -2.646727
v -1.865601 0.000000 -2.385200
v -2.294460 0.000000 -2.033245
v -2.646415 0.000000 -1.604386
v -2.907941 0.000000 -1.115105
v -3.068988 0.000000 -0.584204
v -3.123367 0.000000 -0.032085
v -3.068988 0.000000 0.520034
v -2.907941 0.000000 1.050936
v -2.646415 0.000000 1.540217
v -2.294460 0.000000 1.969076
v -1.865601 0.000000 2.321031
v -1.376320 0.000000 2.582557
v -0.845418 0.000000 2.743604
v -0.293299 0.000000 2.797983
v 0.258820 0.000000 2.743604
v 0.789721 0.000000 2.582557
v 1.279002 0.000000 2.321031
v 1.707861 0.000000 1.969076
v 2.059816 0.000000 1.540217
v 2.321342 0.000000 1.050936
v 2.482390 0.000000 0.520034
v 2.536769 0.000000 -0.032085
v 2.482390 0.000000 -0.584204
v 2.321342 0.000000 -1.115105
v 2.059816 0.000000 -1.604386
v 1.707861 0.000000 -2.033245
v 1.279002 0.000000 -2.385200
v 0.789721 0.000000 -2.646727
v 0.258820 0.000000 -2.807774
v -0.293299 0.000000 -3.201919
v -0.911703 0.000000 -3.141011
v -1.506342 0.000000 -2.960629
v -2.054365 0.000000 -2.667705
v -2.534710 0.000000 -2.273496
v -2.928920 0.000000 -1.793150
v -3.221844 0.000000 -1.245128
v -3.402225 0.000000 -0.650488
v -3.463133 0.000000 -0.032085
v -3.402225 0.000000 0.586319
v -3.221844 0.000000 1.180958
v -2.928920 0.000000 1.728981
v -2.534710 0.000000 2.209326
v -2.054365 0.000000 2.603536
v -1.506342 0.000000 2.896460
v -0.911703 0.000000 3.076842
v -0.293299 0.000000 3.137749
v 0.325105 0.000000 3.076842
v 0.919744 0.000000 2.896460
v 1.467766 0.000000 2.603536
v 1.948112 0.000000 2.209326
v 2.342321 0.000000 1.728981
v 2.635245 0.000000 1.180958
v 2.815627 0.000000 0.586319
v 2.876535 0.000000 -0.032085
v 2.815627 0.000000 -0.650488
v 2.635245 0.000000 -1.245128
v 2.342321 0.000000 -1.793150
v 1.948112 0.000000 -2.273496
v 1.467766 0.000000 -2.667705
v 0.919744 0.000000 -2.960629
v 0.325105 0.000000 -3.141011
vn -0.0000 1.0000 -0.0000
vt 0.000000 0.000000
s 0
f 14/1/1 45/1/1 46/1/1
f 28/1/1 59/1/1 60/1/1
f 14/1/1 47/1/1 15/1/1
f 1/1/1 34/1/1 2/1/1
f 28/1/1 61/1/1 29/1/1
f 15/1/1 48/1/1 16/1/1
f 3/1/1 34/1/1 35/1/1
f 30/1/1 61/1/1 62/1/1
f 16/1/1 49/1/1 17/1/1
f 3/1/1 36/1/1 4/1/1
f 30/1/1 63/1/1 31/1/1
f 17/1/1 50/1/1 18/1/1
f 4/1/1 37/1/1 5/1/1
f 32/1/1 63/1/1 64/1/1
f 18/1/1 51/1/1 19/1/1
f 6/1/1 37/1/1 38/1/1
f 1/1/1 64/1/1 33/1/1
f 20/1/1 51/1/1 52/1/1
f 6/1/1 39/1/1 7/1/1
f 20/1/1 53/1/1 21/1/1
f 7/1/1 40/1/1 8/1/1
f 22/1/1 53/1/1 54/1/1
f 9/1/1 40/1/1 41/1/1
f 22/1/1 55/1/1 23/1/1
f 9/1/1 42/1/1 10/1/1
f 23/1/1 56/1/1 24/1/1
f 11/1/1 42/1/1 43/1/1
f 25/1/1 56/1/1 57/1/1
f 12/1/1 43/1/1 44/1/1
f 25/1/1 58/1/1 26/1/1
f 12/1/1 45/1/1 13/1/1
f 27/1/1 58/1/1 59/1/1
f 14/1/1 13/1/1 45/1/1
f 28/1/1 27/1/1 59/1/1
f 14/1/1 46/1/1 47/1/1
f 1/1/1 33/1/1 34/1/1
f 28/1/1 60/1/1 61/1/1
f 15/1/1 47/1/1 48/1/1
f 3/1/1 2/1/1 34/1/1
f 30/1/1 29/1/1 61/1/1
f 16/1/1 48/1/1 49/1/1
f 3/1/1 35/1/1 36/1/1
f 30/1/1 62/1/1 63/1/1
f 17/1/1 49/1/1 50/1/1
f 4/1/1 36/1/1 37/1/1
f 32/1/1 31/1/1 63/1/1
f 18/1/1 50/1/1 51/1/1
f 6/1/1 5/1/1 37/1/1
f 1/1/1 32/1/1 64/1/1
f 20/1/1 19/1/1 51/1/1
f 6/1/1 38/1/1 39/1/1
f 20/1/1 52/1/1 53/1/1
f 7/1/1 39/1/1 40/1/1
f 22/1/1 21/1/1 53/1/1
f 9/1/1 8/1/1 40/1/1
f 22/1/1 54/1/1 55/1/1
f 9/1/1 41/1/1 42/1/1
f 23/1/1 55/1/1 56/1/1
f 11/1/1 10/1/1 42/1/1
f 25/1/1 24/1/1 56/1/1
f 12/1/1 11/1/1 43/1/1
f 25/1/1 57/1/1 58/1/1
f 12/1/1 44/1/1 45/1/1
f 27/1/1 26/1/1 58/1/1
