# Blender 5.0.0
# www.blender.org
mtllib Rock1.mtl
o Rock_1_Cube.018
v -0.238611 -0.011035 -0.165009
v -0.178812 0.821234 -0.152265
v 0.103938 0.561278 -0.165741
v -0.142920 -0.008998 0.186735
v -0.145065 0.776881 0.117720
v 0.119133 0.537755 0.032391
v 0.043679 0.801294 -0.130138
v 0.060918 0.756351 0.083004
v -0.156429 0.826649 -0.128224
v -0.174819 0.638377 -0.189567
v 0.083329 -0.050476 0.215114
v 0.197534 0.004877 0.173606
v 0.002526 0.557971 -0.183989
v 0.010460 -0.051101 -0.229388
v -0.242368 -0.011068 -0.187927
v 0.146110 0.005021 -0.251634
v 0.132151 0.240822 -0.208972
v 0.164256 0.175454 0.140000
v -0.154824 0.330106 0.188273
v 0.061944 0.338925 0.183023
v -0.231768 0.336247 -0.157759
v 0.128394 0.240789 -0.231889
v 0.004690 0.342373 -0.207355
v -0.235525 0.336215 -0.180676
v 0.166541 0.005743 -0.231451
v 0.211554 0.005545 0.154687
v -0.140267 -0.008975 0.202919
v 0.136364 0.356558 0.053680
v -0.155275 0.553448 0.120481
v 0.056101 0.547592 0.100498
v 0.144806 0.497401 -0.149757
v 0.151051 0.483846 -0.011927
v 0.170176 0.343733 0.022159
v 0.197175 0.172604 0.109967
v 0.177154 0.240822 -0.176266
v 0.211544 0.051306 -0.198746
v 0.242955 0.049683 0.101793
vn 0.1681 0.1858 -0.9681
vn 0.7410 -0.6665 -0.0820
vn 0.7567 -0.6478 -0.0881
vn 0.7583 -0.6458 -0.0887
vn 0.6872 0.2197 0.6924
vn 0.7150 0.2489 0.6533
vn 0.6696 0.2018 0.7148
vn 0.1327 0.0415 0.9903
vn 0.1315 0.0428 0.9904
vn 0.0960 0.0809 0.9921
vn 0.9662 0.2553 -0.0346
vn 0.9660 0.2564 -0.0327
vn 0.9647 0.2622 -0.0227
vn -0.9773 0.1217 0.1736
vn -0.9772 0.1434 0.1567
vn -0.9739 0.0641 0.2177
vn 0.1171 0.1979 -0.9732
vn 0.1170 0.1981 -0.9732
vn 0.1192 0.1953 -0.9735
vn 0.1161 0.9403 -0.3199
vn -0.4265 0.8825 0.1983
vn 0.1102 0.1372 -0.9844
vn 0.0085 0.1830 -0.9831
vn 0.1727 0.1078 -0.9791
vn -0.0003 0.0573 0.9984
vn -0.0199 0.0686 0.9974
vn -0.0395 0.0799 0.9960
vn -0.1499 -0.9882 0.0322
vn -0.1733 -0.9839 0.0428
vn -0.1853 -0.9816 0.0456
vn -0.9950 -0.0068 0.0994
vn -0.9959 0.0157 0.0894
vn -0.9921 -0.0454 0.1165
vn -0.9671 0.1990 0.1583
vn -0.9867 0.0161 0.1617
vn -0.1766 0.0629 -0.9823
vn -0.1595 0.0560 -0.9856
vn -0.1887 0.0679 -0.9797
vn -0.1387 0.0426 -0.9894
vn -0.1281 0.0351 -0.9911
vn -0.1534 0.0530 -0.9867
vn 0.9810 0.1081 -0.1610
vn 0.7703 0.2646 0.5802
vn -0.9709 -0.0112 0.2392
vn -0.9706 -0.0097 0.2406
vn -0.9649 0.0135 0.2624
vn 0.9667 0.1565 -0.2024
vn 0.7215 0.1158 -0.6826
vn 0.6964 0.1117 -0.7089
vn 0.7374 0.1040 0.6674
vn 0.7373 0.0822 0.6705
vn 0.7364 0.1476 0.6602
vn -0.9862 -0.0354 0.1617
vn 0.3339 -0.9352 -0.1182
vn 0.3032 -0.9519 -0.0443
vn 0.3553 -0.9328 -0.0602
vn 0.4621 0.1263 0.8778
vn 0.3432 0.1834 0.9212
vn 0.2313 0.2313 0.9450
vn 0.8122 0.2892 0.5067
vn 0.8102 0.2952 0.5064
vn 0.7865 0.3602 0.5016
vn 0.0520 0.3277 0.9434
vn 0.0555 0.3309 0.9420
vn 0.0114 0.2905 0.9568
vn -0.0533 0.0423 -0.9977
vn -0.0373 0.0251 -0.9990
vn -0.1124 0.1059 -0.9880
vn 0.1274 0.9730 0.1927
vn 0.1271 0.9729 0.1930
vn 0.1292 0.9731 0.1909
vn 0.9531 0.2940 -0.0712
vn 0.9723 0.2293 -0.0448
vn 0.9831 0.1814 -0.0255
vn 0.9909 0.1305 -0.0333
vn 0.9892 0.1459 -0.0156
vn 0.9905 0.1338 -0.0324
vn 0.7513 0.2318 0.6179
vn 0.8550 0.1562 0.4945
vn 0.8755 0.1377 0.4631
vn 0.6910 0.4105 0.5950
vn 0.6434 0.4104 0.6462
vn 0.7003 0.4103 0.5842
vn 0.5576 0.1900 -0.8080
vn 0.4886 0.1584 -0.8580
vn 0.4754 0.1524 -0.8665
vn 0.8465 0.5323 0.0087
vn 0.8551 0.5185 -0.0009
vn 0.8405 0.5416 0.0152
vn 0.5791 0.1561 -0.8002
vn 0.5664 0.1587 -0.8087
vn 0.5807 0.1558 -0.7991
vn 0.7375 -0.6705 -0.0807
vn 0.7219 0.2565 0.6426
vn 0.1666 0.0046 0.9860
vn 0.9674 0.2495 -0.0446
vn -0.9739 0.1957 0.1150
vn 0.1148 0.2010 -0.9729
vn -0.0301 0.1998 -0.9794
vn 0.0224 0.0441 0.9988
vn 0.0402 -0.9992 -0.0052
vn -0.1521 -0.9880 0.0263
vn -0.1841 -0.9824 0.0316
vn -0.9961 0.0464 0.0755
vn -0.1522 0.0530 -0.9869
vn -0.1109 0.0229 -0.9936
vn -0.9757 -0.0352 0.2163
vn 0.9744 0.1578 -0.1600
vn 0.7362 0.0396 0.6756
vn 0.3235 -0.8990 -0.2953
vn 0.0405 -0.9992 -0.0052
vn 0.4154 -0.9072 -0.0668
vn 0.5153 0.0985 0.8513
vn 0.8311 0.2245 0.5088
vn 0.0976 0.3684 0.9245
vn 0.0166 -0.0327 -0.9993
vn 0.1251 0.9728 0.1950
vn 0.9308 0.3530 -0.0954
vn 0.9909 0.1289 -0.0386
vn 0.9913 0.1274 -0.0324
vn 0.7093 0.2565 0.6565
vn 0.6338 0.4102 0.6558
vn 0.5762 0.1986 -0.7928
vn 0.8587 0.5125 -0.0050
vn 0.5651 0.1590 -0.8096
vt 0.163240 0.182473
vt 0.188060 0.008936
vt 0.233787 0.177334
vt 0.851853 0.876487
vt 0.614318 0.894378
vt 0.580728 0.864202
vt -0.000000 0.732144
vt 0.035089 0.636203
vt 0.025088 0.726324
vt 0.723277 0.570867
vt 0.565071 0.435841
vt 0.712890 0.425295
vt 0.928726 0.183511
vt 0.802807 0.000000
vt 0.953522 0.023543
vt 0.498005 0.392924
vt 0.296068 0.242410
vt 0.543250 0.236323
vt 0.038402 0.129666
vt 0.423776 0.738802
vt 0.271741 0.773935
vt 0.285324 0.755664
vt 0.271741 0.582253
vt 0.167935 0.333861
vt 0.703147 0.272710
vt 0.552758 0.038912
vt 0.704791 0.000000
vt 0.868067 0.589810
vt 0.552758 0.765971
vt 0.598698 0.616325
vt 0.282788 0.455225
vt 0.498781 0.549140
vt 0.309236 0.582253
vt 0.279850 0.242546
vt 0.287960 0.000000
vt 0.271741 0.000135
vt 0.177536 0.608592
vt 0.255958 0.404396
vt 0.271741 0.569291
vt -0.000000 0.581427
vt 0.888286 0.589810
vt 0.884139 0.813494
vt 0.868067 0.814873
vt 0.060887 0.609581
vt 0.073694 0.608592
vt 0.073694 0.732189
vt 0.541305 0.000096
vt 0.888286 0.979140
vt 0.873183 0.977862
vt 0.763186 0.422921
vt 0.768319 0.295079
vt 0.552758 0.000000
vt 0.569277 0.852418
vt 0.867242 0.765605
vt 0.774097 0.160225
vt 0.789302 0.037799
vt 0.505575 0.722442
vt 0.423776 0.691803
vt 0.496759 0.582253
vt 0.552758 0.274858
vt 0.000000 0.339679
vt 0.417098 0.587806
vt 0.999201 0.439898
vt 0.789302 0.538406
vt 0.796679 0.403531
vt 0.804614 0.223610
vt 0.930828 0.323791
vt 0.950694 0.307745
vt 0.901299 0.227515
vt 0.505575 0.808498
vt 0.541304 0.945911
vt 0.505575 0.975149
vt 0.789302 0.174082
vt 0.540288 0.629044
vt 0.536702 0.810563
vt 0.824953 0.906518
vt -0.000000 0.608592
vt 0.578028 0.589810
vt 0.032711 -0.000000
vt 0.851853 0.589829
vt 0.587248 0.616338
vt 0.868067 0.864671
vt 0.423776 0.844287
vt 1.000000 0.531215
vt 0.035089 0.617170
vt 0.060887 0.608592
vt 0.060887 0.709671
vt 0.023671 0.865031
vt 0.518485 0.582253
s 1
usemtl Rock
f 13/1/1 7/2/1 3/3/1
f 25/4/2 37/5/3 26/6/4
f 18/7/5 37/8/6 34/9/7
f 8/10/8 29/11/9 30/12/10
f 6/13/11 7/14/12 8/15/13
f 29/16/14 21/17/15 19/18/16
f 10/19/17 7/2/18 13/1/19
f 7/20/20 2/21/20 9/22/20
f 2/21/21 5/23/21 9/22/21
f 3/3/22 23/24/23 13/1/24
f 20/25/25 27/26/26 11/27/27
f 15/28/28 11/29/29 4/30/30
f 10/31/31 5/32/32 2/33/33
f 21/17/34 10/31/34 24/34/34
f 1/35/35 24/34/35 15/36/35
f 14/37/36 22/38/37 16/39/38
f 15/40/39 23/24/40 14/37/41
f 3/41/42 17/42/42 22/43/42
f 12/44/43 26/45/43 18/46/43
f 4/47/44 21/17/45 1/35/46
f 22/43/47 25/48/48 16/49/49
f 6/50/50 30/12/51 28/51/52
f 19/18/53 4/47/53 27/52/53
f 25/4/54 12/53/55 14/54/56
f 18/55/57 11/27/58 12/56/59
f 28/57/60 20/58/61 18/59/62
f 20/25/63 29/11/64 19/60/65
f 24/61/66 13/1/67 23/24/68
f 8/62/69 9/22/70 5/23/71
f 34/63/72 36/64/73 35/65/74
f 31/66/75 33/67/76 34/63/77
f 28/68/78 32/69/79 6/13/80
f 28/68/81 34/63/82 33/67/83
f 17/70/84 36/71/85 25/72/86
f 3/73/87 32/69/88 31/66/89
f 17/70/90 31/74/91 35/75/92
f 25/4/2 36/76/93 37/5/3
f 18/7/5 26/77/94 37/8/6
f 8/10/8 5/78/95 29/11/9
f 6/13/11 3/73/96 7/14/12
f 29/16/14 10/31/97 21/17/15
f 10/19/17 2/79/98 7/2/18
f 3/3/22 22/38/99 23/24/23
f 20/25/25 19/60/100 27/26/26
f 4/30/30 1/80/101 15/28/28
f 15/28/28 14/54/102 11/29/29
f 11/29/29 27/81/103 4/30/30
f 10/31/31 29/16/104 5/32/32
f 1/35/35 21/17/35 24/34/35
f 14/37/36 23/24/105 22/38/37
f 15/40/39 24/61/106 23/24/40
f 4/47/44 19/18/107 21/17/45
f 22/43/47 17/42/108 25/48/48
f 6/50/50 8/10/109 30/12/51
f 14/54/56 16/82/110 25/4/54
f 25/4/54 26/6/111 12/53/55
f 12/53/55 11/29/112 14/54/56
f 18/55/57 20/25/113 11/27/58
f 28/57/60 30/83/114 20/58/61
f 20/25/63 30/12/115 29/11/64
f 24/61/66 10/19/116 13/1/67
f 8/62/69 7/20/117 9/22/70
f 34/63/72 37/84/118 36/64/73
f 34/63/77 35/65/119 31/66/75
f 31/66/75 32/69/120 33/67/76
f 28/85/78 33/86/121 32/87/79
f 28/88/81 18/7/122 34/9/82
f 17/70/84 35/75/123 36/71/85
f 3/73/87 6/13/124 32/69/88
f 17/70/90 3/89/125 31/74/91
