# Blender 5.0.0
# www.blender.org
mtllib Rock3.mtl
o Rock_3_Cube.017
v -0.438269 -0.082813 -0.223961
v -0.302785 0.472205 -0.205689
v 0.224723 -0.082813 -0.223961
v 0.171901 0.319176 -0.148458
v -0.375068 -0.082813 0.381058
v -0.322698 0.461472 0.278716
v 0.194329 -0.082813 0.424008
v 0.171901 0.304707 0.204243
v -0.006784 -0.121333 -0.223961
v 0.083519 0.454137 -0.102699
v -0.006784 -0.121333 0.461515
v 0.050830 0.443267 0.276998
v 0.061650 0.541523 0.276998
v -0.257126 0.554656 0.252941
v -0.263927 0.524514 -0.156757
v -0.296295 0.374469 -0.270511
v 0.000000 -0.002045 0.513990
v 0.214758 -0.002045 0.473938
v 0.010394 0.319621 -0.209784
v 0.000000 -0.002045 -0.288593
v -0.460759 -0.002045 -0.288593
v 0.247213 -0.002045 -0.288593
v 0.212838 0.117603 -0.217132
v 0.179872 0.076991 0.405565
v -0.393271 0.182119 0.398852
v -0.007040 0.182119 0.452126
v -0.428604 0.186784 -0.231746
v 0.212838 0.117603 -0.258511
v 0.005197 0.184452 -0.250778
v -0.428604 0.186784 -0.273126
v 0.277600 -0.002045 -0.247213
v 0.245144 -0.002045 0.444716
v -0.393271 -0.002045 0.428075
v 0.177978 0.190849 0.246195
v -0.357984 0.321795 0.280075
v 0.021895 0.312693 0.305853
v 0.167631 0.232749 -0.195645
v 0.177978 0.231688 -0.178264
vn 0.3122 0.4820 -0.8187
vn 0.7768 0.6285 0.0402
vn 0.8727 0.4829 0.0722
vn 0.8848 0.4596 0.0768
vn 0.9669 0.2529 0.0328
vn 0.9915 0.1179 0.0560
vn 0.9933 0.0992 0.0591
vn -0.0030 0.1726 0.9850
vn -0.0503 0.0652 0.9966
vn -0.0670 0.0266 0.9974
vn -0.0942 -0.9955 0.0060
vn -0.0988 -0.9951 0.0032
vn -0.0889 -0.9960 0.0093
vn -0.0580 0.0549 0.9968
vn 0.0037 0.2208 0.9753
vn 0.0169 0.2555 0.9667
vn 0.7901 0.6091 0.0690
vn 0.8216 0.5687 0.0403
vn 0.7719 0.6301 0.0845
vn 0.1834 -0.9830 0.0015
vn 0.1688 -0.9856 0.0062
vn 0.1641 -0.9864 0.0077
vn -0.9390 0.3417 0.0394
vn -0.8480 0.5295 -0.0227
vn -0.9558 0.2888 0.0557
vn 0.2518 0.5384 -0.8042
vn 0.2450 0.5247 -0.8153
vn 0.2556 0.5461 -0.7978
vn 0.1455 0.9797 -0.1376
vn 0.1289 0.9797 -0.1535
vn 0.0568 0.9737 -0.2208
vn 0.2373 0.5638 -0.7911
vn -0.8181 0.5745 -0.0272
vn -0.7972 0.6034 -0.0202
vn -0.7939 0.6077 -0.0192
vn 0.9906 -0.1091 0.0822
vn 0.3195 0.4419 -0.8382
vn -0.1853 0.2649 0.9463
vn -0.1553 0.1993 0.9675
vn -0.2033 0.3048 0.9305
vn 0.6609 -0.5724 -0.4853
vn 0.0236 -0.5837 -0.8116
vn 0.0587 -0.5190 -0.8527
vn -0.0000 -0.6248 -0.7808
vn -0.9762 0.2119 -0.0453
vn -0.9941 0.0390 -0.1009
vn -0.9938 0.0074 -0.1106
vn -0.8173 0.5762 -0.0000
vn -0.0070 -0.6014 -0.7989
vn -0.0360 -0.4981 -0.8664
vn -0.0423 -0.4741 -0.8795
vn -0.9863 0.1437 0.0807
vn -0.9368 0.0555 0.3454
vn -0.9252 0.0441 0.3770
vn 0.0180 0.2136 -0.9768
vn 0.0106 0.2261 -0.9741
vn -0.0000 0.2438 -0.9698
vn 0.0124 0.1095 -0.9939
vn 0.0382 0.1673 -0.9852
vn -0.0000 0.0816 -0.9967
vn 0.8432 0.2249 -0.4882
vn 0.5077 0.6808 0.5279
vn -0.9967 -0.0442 0.0676
vn -0.9958 0.0094 0.0911
vn -0.9938 0.0386 0.1038
vn 0.5889 -0.5275 0.6123
vn 0.8780 0.4642 -0.1171
vn 0.8000 0.3900 -0.4560
vn 0.7534 0.3555 -0.5532
vn -0.1921 -0.4989 0.8451
vn -0.2268 -0.4047 0.8859
vn -0.1817 -0.5250 0.8315
vn 0.8412 -0.5393 0.0395
vn 0.5540 0.2312 0.7998
vn 0.5603 0.1417 0.8161
vn 0.5436 0.3156 0.7777
vn -0.9557 -0.0461 -0.2907
vn 0.1827 -0.5021 0.8453
vn 0.2177 -0.4443 0.8690
vn 0.2417 -0.4022 0.8831
vn 0.2473 0.5404 0.8042
vn 0.3167 0.4354 0.8427
vn 0.1342 0.6815 0.7194
vn 0.5716 0.6180 0.5398
vn 0.5773 0.6084 0.5445
vn 0.5165 0.6996 0.4937
vn -0.0488 0.7244 0.6877
vn -0.0809 0.6867 0.7224
vn -0.1027 0.6593 0.7448
vn 0.0887 0.0374 -0.9954
vn 0.1746 0.1764 -0.9687
vn 0.0513 -0.0223 -0.9984
vn 0.9978 0.0656 0.0033
vn 0.9984 0.0568 0.0050
vn 0.9985 0.0552 0.0053
vn 0.8339 0.3986 -0.3818
vn 0.9277 0.3714 -0.0386
vn 0.9308 0.3654 -0.0000
vn 0.1711 0.4342 -0.8844
vn 0.1997 0.3659 -0.9090
vn 0.2351 0.2738 -0.9326
vn 0.7618 0.6468 0.0357
vn 0.9586 0.2836 0.0273
vn 0.0149 0.2126 0.9770
vn -0.1040 -0.9946 -0.0000
vn -0.0749 0.0082 0.9972
vn 0.8398 0.5424 0.0223
vn 0.1881 -0.9821 -0.0000
vn -0.8204 0.5706 -0.0373
vn 0.2427 0.5200 -0.8190
vn 0.2092 0.9750 -0.0752
vn -0.8212 0.5700 -0.0283
vn -0.1350 0.1553 0.9786
vn 0.0796 -0.4784 -0.8745
vn -0.9690 0.2445 -0.0344
vn -0.9858 0.1679 -0.0000
vn 0.0272 0.1979 -0.9798
vn 0.0515 0.1971 -0.9790
vn -0.9959 -0.0721 0.0553
vn 0.8794 0.4760 -0.0000
vn -0.2352 -0.3801 0.8945
vn 0.5620 0.0578 0.8251
vn 0.1534 -0.5474 0.8227
vn 0.3889 0.3067 0.8687
vn 0.6262 0.5160 0.5845
vn -0.0270 0.7484 0.6627
vn 0.2337 0.2739 -0.9329
vn 0.9977 0.0683 0.0028
vn 0.7988 0.3978 -0.4513
vn 0.1343 0.5149 -0.8466
vt 0.109084 0.714918
vt 0.018766 0.674323
vt 0.096247 0.617222
vt 0.281198 0.298580
vt 0.236478 0.541865
vt 0.173824 0.489314
vt 0.194703 0.332546
vt 0.137464 0.225022
vt 0.058826 0.044155
vt 0.140147 0.038839
vt 0.578783 0.406797
vt 0.827082 0.071716
vt 0.830915 0.430251
vt 0.057882 0.235812
vt 0.000000 0.076122
vt 0.908013 0.059585
vt 0.830915 0.220741
vt 0.830915 0.000000
vt 0.495535 0.015318
vt 0.442123 0.393934
vt 0.646832 0.515163
vt 0.566634 0.819259
vt 0.562024 0.447002
vt 0.036223 0.906608
vt 0.097752 0.900579
vt 1.000000 0.659758
vt 0.812037 0.430751
vt 1.000000 0.430251
vt 0.000000 0.884336
vt 0.730887 0.514263
vt 0.774244 0.767966
vt 0.741508 0.798377
vt 0.000000 0.359790
vt 0.001222 0.232175
vt 0.150399 0.617177
vt 0.232716 0.180710
vt 0.346632 0.008760
vt 0.346355 0.183722
vt 0.423497 0.430251
vt 0.407951 0.404302
vt 0.333300 0.566666
vt 0.302918 0.706222
vt 0.290071 0.561882
vt 0.685028 0.836484
vt 0.566899 0.843598
vt 0.367754 0.953768
vt 0.367754 0.699550
vt 0.454331 0.854390
vt 0.407951 0.815695
vt 0.219900 0.587402
vt 0.214084 0.966832
vt 0.326863 0.975247
vt 0.149146 0.610118
vt 0.334598 0.304095
vt 0.329791 0.327852
vt 0.407951 0.457391
vt 0.374854 0.315489
vt 0.285318 0.541865
vt 0.386123 0.038919
vt 0.464987 0.000000
vt 0.124003 0.330867
vt 0.453878 0.430252
vt 0.407951 0.206341
vt 0.237138 0.000000
vt 0.191184 0.712181
vt 0.114640 0.449939
vt 0.388676 0.541865
vt 0.401117 0.614293
vt 0.388676 0.618203
vt 0.908013 0.014619
vt 0.953172 0.000000
vt 0.953172 0.403375
vt 0.616432 0.004505
vt 0.889994 0.263118
vt 0.789703 0.671229
vt 0.789703 0.526659
vt 0.367754 0.553866
vt 0.388676 0.541865
vt 0.388676 0.596464
vt 0.068636 0.430221
vt 0.216727 0.585128
s 1
usemtl Rock.002
f 19/1/1 10/2/1 4/3/1
f 24/4/2 31/5/3 23/6/4
f 23/6/5 34/7/6 24/4/7
f 36/8/8 6/9/9 35/10/10
f 9/11/11 5/12/12 1/13/13
f 12/14/14 14/15/15 6/9/16
f 8/16/17 10/17/18 12/18/19
f 7/19/20 9/11/21 3/20/22
f 35/21/23 27/22/24 25/23/25
f 2/24/26 19/1/27 16/25/28
f 10/26/29 14/27/30 13/28/31
f 10/2/32 2/24/32 15/29/32
f 6/30/33 15/31/34 2/32/35
f 12/14/36 10/33/36 13/34/36
f 19/1/37 4/3/37 37/35/37
f 26/36/38 33/37/39 17/38/40
f 3/20/41 22/39/41 31/40/41
f 3/41/42 20/42/43 22/43/44
f 35/21/45 2/32/46 16/44/47
f 27/22/48 16/44/48 30/45/48
f 1/46/49 20/42/50 9/47/51
f 27/22/52 21/48/53 1/49/54
f 20/42/55 28/50/56 22/43/57
f 30/51/58 20/42/59 21/52/60
f 4/3/61 38/53/61 37/35/61
f 18/54/62 32/55/62 24/4/62
f 5/56/63 27/22/64 1/49/65
f 7/57/66 32/55/66 18/54/66
f 28/50/67 31/58/68 22/43/69
f 5/59/70 17/38/71 33/37/72
f 3/20/73 32/60/73 7/19/73
f 8/61/74 36/8/75 34/7/76
f 25/23/77 5/56/77 33/62/77
f 7/57/78 17/38/79 11/63/80
f 24/4/81 17/38/82 18/54/83
f 34/7/84 26/36/85 24/4/86
f 26/36/87 35/10/88 25/64/89
f 16/25/90 29/65/91 30/51/92
f 38/66/93 8/61/94 34/7/95
f 37/67/96 23/68/97 28/69/98
f 37/35/99 29/65/100 19/1/101
f 24/70/2 32/71/102 31/72/3
f 23/6/5 38/66/103 34/7/6
f 36/8/8 12/14/104 6/9/9
f 9/11/11 11/73/105 5/12/12
f 12/14/14 13/34/106 14/15/15
f 8/16/17 4/74/107 10/17/18
f 7/19/20 11/73/108 9/11/21
f 35/21/23 16/44/109 27/22/24
f 2/24/26 10/2/110 19/1/27
f 10/26/29 15/75/111 14/27/30
f 6/30/33 14/76/112 15/31/34
f 26/36/38 25/64/113 33/37/39
f 3/41/42 9/47/114 20/42/43
f 35/21/45 6/30/115 2/32/46
f 1/46/49 21/52/44 20/42/50
f 27/22/52 30/45/116 21/48/53
f 20/42/55 29/65/117 28/50/56
f 30/51/58 29/65/118 20/42/59
f 5/56/63 25/23/119 27/22/64
f 28/77/67 23/78/120 31/79/68
f 5/59/70 11/63/121 17/38/71
f 3/20/73 31/40/73 32/60/73
f 8/61/74 12/14/122 36/8/75
f 7/57/78 18/54/123 17/38/79
f 24/4/81 26/36/124 17/38/82
f 34/7/84 36/8/125 26/36/85
f 26/36/87 36/8/126 35/10/88
f 16/25/90 19/1/127 29/65/91
f 38/66/93 4/80/128 8/61/94
f 37/35/96 38/53/129 23/81/97
f 37/35/99 28/50/130 29/65/100
