# Blender 5.0.0
# www.blender.org
mtllib Rock4.mtl
o Rock_4_Cube.022
v -0.302785 -0.205689 -0.572949
v 0.185011 -0.148458 -0.419920
v -0.308197 0.162863 -0.466687
v 0.150255 0.127170 -0.255465
v 0.083519 -0.102699 -0.554881
v 0.062498 0.154930 -0.417901
v 0.079992 0.123076 -0.509828
v -0.237994 0.106456 -0.541100
v -0.263927 -0.156757 -0.625258
v -0.296295 -0.270511 -0.475213
v 0.010394 -0.209784 -0.420365
v 0.224044 -0.217132 -0.218347
v 0.172939 0.438101 -0.088587
v -0.397184 0.453644 -0.180484
v -0.011557 0.510511 -0.172134
v -0.428604 -0.231746 -0.287528
v 0.224044 -0.258511 -0.218347
v 0.005197 -0.250778 -0.285195
v -0.428604 -0.273126 -0.287528
v 0.163687 0.246195 -0.190849
v -0.352813 0.210077 -0.338092
v 0.021895 0.305853 -0.312693
v -0.302785 -0.205689 0.572949
v 0.185010 -0.148458 0.419920
v -0.322698 0.278716 0.461472
v 0.152638 0.204243 0.304707
v 0.083519 -0.102699 0.554881
v 0.050830 0.276998 0.443267
v 0.061650 0.276998 0.541523
v -0.257126 0.252941 0.554656
v -0.263927 -0.156757 0.625258
v -0.296295 -0.270511 0.475213
v 0.010394 -0.209784 0.420365
v 0.212061 -0.210279 0.235636
v 0.174735 0.405565 0.076991
v -0.393270 0.398852 0.182119
v -0.007040 0.452126 0.182119
v -0.428604 -0.231746 0.287528
v 0.212061 -0.251659 0.235636
v 0.005197 -0.250778 0.285195
v -0.428604 -0.273126 0.287528
v 0.163687 0.246195 0.190849
v -0.357984 0.280075 0.321795
v 0.021895 0.305853 0.312693
v 0.174735 0.405565 -0.000000
v -0.393270 0.398852 -0.000000
v -0.007040 0.452126 -0.000000
v -0.428604 -0.231746 0.000000
v 0.224044 -0.258511 0.000000
v 0.005197 -0.250778 0.000000
v -0.428604 -0.273126 0.000000
v 0.174894 0.216533 0.129087
v 0.186878 0.252217 -0.000000
v 0.187425 0.252368 -0.125369
v -0.439487 0.234958 -0.214638
v -0.432381 0.276906 0.202503
v -0.433550 0.256032 -0.000000
v 0.304083 -0.207832 -0.146806
v 0.304083 -0.249211 -0.146806
v 0.296336 -0.217132 0.000000
v 0.296336 -0.258511 0.000000
v 0.288712 -0.207832 0.186079
v 0.288712 -0.249211 0.186079
v 0.270918 0.174267 0.081171
v 0.270489 0.214940 -0.007305
v 0.256200 0.210112 -0.108207
vn 0.2890 -0.8193 -0.4951
vn 0.9676 0.1414 -0.2091
vn 0.8715 0.2806 -0.4023
vn 0.9355 0.2055 -0.2873
vn 0.0453 0.6818 -0.7301
vn -0.1206 0.8430 -0.5242
vn -0.2017 0.8947 -0.3985
vn 0.0032 0.9279 -0.3728
vn 0.0747 0.8524 -0.5176
vn 0.0897 0.8326 -0.5465
vn 0.8213 0.3347 -0.4619
vn 0.8365 0.3406 -0.4293
vn 0.8491 0.3455 -0.3997
vn -0.7707 0.2412 -0.5897
vn 0.2518 -0.8042 -0.5384
vn 0.2450 -0.8153 -0.5247
vn 0.2556 -0.7978 -0.5461
vn 0.1127 0.2368 -0.9650
vn 0.1246 0.2547 -0.9590
vn 0.0858 0.1963 -0.9768
vn 0.2373 -0.7911 -0.5638
vn -0.8255 0.2242 -0.5180
vn -0.6587 0.2104 -0.7224
vn -0.8711 0.2253 -0.4363
vn 0.9806 -0.0235 0.1948
vn 0.1981 -0.8897 -0.4113
vn 0.2130 -0.8938 -0.3946
vn 0.3202 -0.9099 -0.2636
vn -0.9992 -0.0268 -0.0313
vn -0.9600 -0.0209 -0.2794
vn -0.9985 -0.0284 0.0475
vn -0.8173 -0.0000 -0.5762
vn 0.9818 -0.0000 -0.1901
vn 0.7603 0.3767 -0.5292
vn 0.7739 0.3982 -0.4925
vn 0.6908 0.2832 -0.6653
vn 0.5953 0.4492 -0.6663
vn 0.6104 0.4300 -0.6652
vn 0.5138 0.5412 -0.6657
vn -0.0702 0.5472 -0.8341
vn -0.0734 0.5412 -0.8377
vn -0.0643 0.5578 -0.8275
vn 0.0887 -0.9954 -0.0374
vn 0.1746 -0.9687 -0.1764
vn 0.0513 -0.9984 0.0223
vn -1.0000 -0.0000 -0.0000
vn 0.2296 0.9188 0.3210
vn 0.2267 0.9218 0.3146
vn 0.2341 0.9141 0.3310
vn -0.1347 0.9447 0.2991
vn -0.1409 0.9394 0.3125
vn -0.1450 0.9358 0.3212
vn 0.5199 0.2487 0.8172
vn 0.5183 0.2493 0.8181
vn 0.5180 0.2494 0.8182
vn -0.0353 -0.9994 -0.0000
vn -0.9749 0.2187 0.0429
vn -0.9739 0.2238 0.0388
vn -0.9811 0.1780 0.0753
vn 0.6208 0.1516 -0.7692
vn 0.3904 0.2022 -0.8982
vn 0.6502 0.1434 -0.7461
vn 0.0514 -0.9987 -0.0000
vn 0.2890 -0.8193 0.4951
vn 0.9848 0.1185 0.1268
vn 0.9826 0.1293 0.1336
vn 0.9866 0.1176 0.1132
vn -0.0030 0.9850 0.1726
vn -0.0503 0.9966 0.0652
vn 0.0149 0.9770 0.2126
vn 0.0037 0.9753 0.2208
vn -0.0580 0.9968 0.0549
vn 0.0169 0.9667 0.2555
vn 0.8315 0.2263 0.5074
vn 0.8201 0.2391 0.5199
vn 0.8128 0.2469 0.5275
vn -0.8022 0.3394 0.4913
vn 0.2450 -0.8153 0.5247
vn 0.2518 -0.8042 0.5384
vn 0.2556 -0.7978 0.5461
vn 0.1017 0.0980 0.9900
vn 0.1158 0.1115 0.9870
vn 0.0383 0.0373 0.9986
vn 0.2373 -0.7911 0.5638
vn -0.8334 0.0925 0.5449
vn -0.8029 0.1118 0.5855
vn -0.8378 0.0895 0.5386
vn 0.9926 0.0533 -0.1093
vn 0.2141 -0.8941 0.3933
vn 0.1975 -0.8895 0.4120
vn 0.3202 -0.9099 0.2636
vn -0.9949 -0.0932 0.0384
vn -0.9781 -0.0036 0.2080
vn -0.9940 -0.1095 0.0066
vn -0.8173 -0.0000 0.5762
vn 0.9894 -0.0000 0.1452
vn 0.6131 0.7781 0.1369
vn 0.6059 0.7616 0.2297
vn 0.5920 0.7359 0.3286
vn 0.6009 0.5238 0.6039
vn 0.5972 0.5209 0.6099
vn 0.5291 0.4687 0.7074
vn -0.0488 0.6877 0.7244
vn -0.0809 0.7224 0.6867
vn -0.0270 0.6627 0.7484
vn 0.1746 -0.9687 0.1764
vn 0.0887 -0.9954 0.0374
vn 0.0513 -0.9984 -0.0223
vn 0.2481 0.9687 -0.0000
vn -0.1366 0.9906 -0.0000
vn 0.0369 -0.9984 -0.0431
vn 0.0926 -0.9956 -0.0126
vn -0.0000 -0.9980 -0.0632
vn -0.0211 -0.9997 0.0148
vn -0.0172 -0.9998 0.0113
vn -0.0043 -1.0000 -0.0000
vn -0.9570 0.2896 -0.0155
vn -0.9589 0.2834 -0.0101
vn -0.9531 0.3014 -0.0256
vn 0.4555 0.8290 0.3245
vn 0.4625 0.8282 0.3165
vn 0.4041 0.8318 0.3804
vn 0.9865 0.0443 0.1577
vn 0.9263 0.1414 -0.3491
vn 0.9969 0.0780 0.0056
vn 0.9970 0.0772 0.0066
vn 0.9969 0.0789 0.0044
vn 0.9963 0.0413 0.0749
vn 0.9975 0.0588 0.0401
vn 0.9946 0.0285 0.1002
vn -0.9999 -0.0092 0.0045
vn -0.9999 -0.0139 0.0048
vn -1.0000 -0.0074 -0.0000
vn -0.9997 -0.0144 0.0194
vn -0.9997 -0.0144 0.0222
vn -0.8383 0.0795 0.5394
vn -0.8139 0.0737 0.5762
vn -0.8081 0.0724 0.5846
vn -0.8091 0.0721 -0.5832
vn -0.8084 0.0718 -0.5842
vn -0.8094 0.0721 -0.5828
vn 0.9986 -0.0000 0.0527
vn 0.9989 -0.0000 0.0468
vn 0.9924 0.0672 -0.1027
vn 0.9945 0.1005 0.0280
vn 0.9924 0.1082 0.0592
vn 0.9992 -0.0000 0.0409
vn 0.9977 0.0574 0.0358
vn 0.9979 0.0594 0.0260
vn 0.9977 0.0569 0.0380
vn 0.6664 -0.0000 -0.7456
vn 0.4531 0.8897 -0.0559
vn 0.4751 0.8791 -0.0378
vn 0.5229 0.8524 0.0033
vn 0.5429 -0.0000 0.8398
vn 0.0124 -0.9989 0.0456
vn 0.0434 -0.9985 0.0348
vn 0.0524 -0.9981 0.0317
vn 0.9823 0.1071 -0.1537
vn -0.1920 0.4849 -0.8532
vn 0.1178 0.5890 -0.7995
vn -0.0169 0.9438 -0.3302
vn 0.8050 0.3284 -0.4941
vn 0.2427 -0.8190 -0.5200
vn 0.1469 0.2881 -0.9463
vn -0.6285 0.2070 -0.7498
vn 0.1203 -0.8613 -0.4936
vn -0.9468 -0.0197 -0.3213
vn 0.8090 0.4667 -0.3573
vn 0.6913 0.3136 -0.6510
vn -0.0787 0.5314 -0.8434
vn 0.2337 -0.9329 -0.2739
vn 0.2236 0.9248 0.3078
vn -0.1307 0.9479 0.2906
vn 0.5203 0.2485 0.8170
vn -0.9625 0.2714 -0.0000
vn 0.3553 0.2082 -0.9113
vn 0.9878 0.1128 0.1072
vn 0.9864 0.0981 0.1319
vn -0.0670 0.9974 0.0266
vn -0.0749 0.9972 0.0082
vn 0.8376 0.2192 0.5004
vn 0.2427 -0.8190 0.5200
vn 0.1712 0.1646 0.9714
vn -0.7971 0.1154 0.5928
vn 0.1157 -0.8593 0.4982
vn -0.9694 0.0165 0.2450
vn 0.6146 0.7879 0.0379
vn 0.6606 0.5684 0.4904
vn -0.1027 0.7448 0.6593
vn 0.2337 -0.9329 0.2739
vn 0.1154 -0.9933 -0.0000
vn -0.0353 -0.9990 0.0273
vn 0.4986 0.8225 0.2737
vn 0.9971 0.0762 0.0078
vn 0.9969 0.0789 -0.0000
vn -0.9997 -0.0233 -0.0000
vn -0.8467 0.0816 0.5259
vn -0.8082 0.0717 -0.5845
vn 0.9881 0.0567 -0.1426
vn 0.9979 0.0601 0.0228
vn 0.3979 0.9120 -0.1000
vn -0.0000 -0.9988 0.0499
vt 0.132474 0.477125
vt 0.093850 0.542125
vt 0.049620 0.478334
vt 0.639827 0.980492
vt 0.437513 0.923816
vt 0.428079 0.895384
vt 0.304435 0.793952
vt 0.328966 0.960790
vt 0.264297 0.960790
vt 0.791635 0.816532
vt 0.832363 0.960506
vt 0.791635 0.988591
vt 0.988791 0.761093
vt 0.917280 0.636949
vt 0.988791 0.612656
vt 0.670997 0.371384
vt 0.560498 0.443653
vt 0.569333 0.387210
vt 0.275570 0.548366
vt 0.275727 0.501359
vt 0.769768 0.819886
vt 0.666951 0.960959
vt 0.666951 0.813767
vt 0.255430 0.573847
vt 0.973801 0.917381
vt 0.973801 0.771382
vt 1.000000 0.896308
vt 0.923802 0.771382
vt 0.888554 0.671677
vt 0.136829 0.413765
vt 0.341542 0.506387
vt 0.540154 0.502625
vt 0.371109 0.551394
vt 0.355389 0.420579
vt 0.336391 0.420568
vt 0.648568 0.882843
vt 0.666951 0.878084
vt 0.251160 0.750999
vt 0.189871 0.686658
vt 0.258389 0.688906
vt 0.264297 0.589084
vt 0.177073 0.573847
vt -0.000000 0.596796
vt 0.336391 0.415606
vt 0.355389 0.288298
vt 0.713501 0.813059
vt 0.753038 0.729419
vt 0.752443 0.813767
vt 0.666951 0.551394
vt 0.677123 0.727652
vt 0.264297 0.592743
vt 0.313999 0.775950
vt 0.264297 0.793952
vt 0.037070 0.382075
vt 0.136829 0.282892
vt 0.645959 0.288320
vt 0.917412 0.462804
vt 0.947422 0.265016
vt 0.957103 0.448458
vt 0.336391 0.283663
vt 0.132474 0.091324
vt 0.049621 0.092942
vt 0.093850 0.032869
vt 0.414404 0.777896
vt 0.398972 0.698223
vt 0.543565 0.606368
vt 0.711462 0.169508
vt 0.736918 0.000119
vt 0.771416 0.168575
vt 0.784607 0.019605
vt 0.504292 0.551394
vt 0.645959 0.204534
vt 0.588804 0.195281
vt 0.592480 0.140102
vt 0.275570 0.022527
vt 0.275727 0.065220
vt 0.839534 0.189792
vt 0.976212 0.014343
vt 0.976212 0.189061
vt 0.255430 0.000000
vt 0.394735 -0.000000
vt 0.592910 0.075700
vt 0.371109 0.024208
vt 0.347282 0.644750
vt 0.336391 0.600993
vt 0.136829 0.152020
vt 0.341543 0.069130
vt 0.355389 0.156016
vt 0.336391 0.156006
vt 0.611462 0.676622
vt 0.593079 0.681382
vt 0.718399 0.231437
vt 0.670997 0.247946
vt 0.824266 0.414478
vt 0.916351 0.492700
vt 0.836158 0.511859
vt 0.916351 0.247946
vt 0.899083 0.408636
vt 0.336391 0.151720
vt 0.787657 0.813189
vt 0.836336 0.728052
vt 0.830154 0.551394
vt 0.037070 0.281878
vt 0.000000 0.349274
vt 0.003993 0.281627
vt 0.042222 0.174015
vt 0.579185 0.288444
vt 0.838312 0.871205
vt 0.879674 0.839603
vt 0.877086 0.877997
vt 0.393764 0.753781
vt 0.336391 0.822845
vt 0.340853 0.900345
vt 0.345216 0.857142
vt 0.413757 0.839518
vt 0.824266 0.252061
vt 0.756664 0.266935
vt 0.756664 0.247946
vt 0.806048 0.464394
vt 0.824266 0.271050
vt 0.670997 0.252336
vt 0.670997 0.271325
vt 0.719080 0.447329
vt 0.956043 0.465702
vt 0.916352 0.480048
vt 0.868501 0.924075
vt 0.835968 0.928498
vt 0.306110 0.576617
vt 0.305720 0.595512
vt 0.007033 0.196570
vt 0.264297 0.898066
vt 0.888555 0.771382
vt 0.973801 0.771382
vt 0.943886 0.940354
vt 0.835968 0.813767
vt 0.791635 0.983100
vt 0.957103 0.422387
vt 0.957103 0.247946
vt 0.987387 0.286590
vt 0.923092 0.551394
vt 0.017571 0.729214
vt 0.336391 0.288287
vt 0.746857 0.552761
vt 0.916352 0.247946
vt 0.670997 -0.000000
vt 0.816231 0.162396
vt 0.816231 0.000000
vt 0.583035 0.032561
vt 0.888554 0.568566
vt 0.835968 0.813767
vt 0.759773 0.466070
vt 0.264688 0.573847
s 1
usemtl Rock.003
f 11/1/1 5/2/1 2/3/1
f 2/4/2 20/5/3 54/6/4
f 22/7/5 3/8/6 21/9/7
f 6/10/8 8/11/9 3/12/10
f 2/13/11 6/14/12 4/15/13
f 14/16/14 21/17/14 55/18/14
f 1/19/15 11/1/16 10/20/17
f 5/21/18 8/22/19 7/23/20
f 5/2/21 1/19/21 9/24/21
f 1/25/22 8/26/23 9/27/24
f 6/14/25 5/28/25 7/29/25
f 2/3/26 18/30/27 11/1/28
f 10/31/29 3/32/30 1/33/31
f 16/34/32 10/31/32 19/35/32
f 2/4/33 12/36/33 17/37/33
f 4/38/34 22/39/35 20/40/36
f 13/41/37 22/39/38 15/42/39
f 22/39/40 14/43/41 15/42/42
f 10/20/43 18/30/44 19/44/45
f 19/35/46 48/45/46 16/34/46
f 13/46/47 47/47/48 45/48/49
f 14/49/50 47/47/51 15/50/52
f 34/51/53 64/52/54 52/53/55
f 17/54/56 50/55/56 18/30/56
f 55/18/57 46/56/58 14/16/59
f 12/57/60 66/58/61 58/59/62
f 18/30/63 51/60/63 19/44/63
f 33/61/64 24/62/64 27/63/64
f 52/64/65 26/65/66 24/66/67
f 44/67/68 25/68/69 28/69/70
f 30/70/71 28/69/72 25/68/73
f 26/65/74 27/71/75 24/66/76
f 36/72/77 56/73/77 43/74/77
f 33/61/78 23/75/79 32/76/80
f 30/77/81 27/78/82 29/79/83
f 27/63/84 31/80/84 23/75/84
f 31/81/85 25/82/86 23/83/87
f 28/84/88 29/85/88 27/71/88
f 40/86/89 24/62/90 33/61/91
f 23/83/92 43/74/93 32/87/94
f 38/88/95 41/89/95 32/87/95
f 24/66/96 39/90/96 34/91/96
f 44/67/97 26/92/98 42/93/99
f 37/94/100 42/95/101 35/96/102
f 37/94/103 43/97/104 44/98/105
f 40/86/106 32/76/107 41/99/108
f 48/45/46 41/89/46 38/88/46
f 35/100/109 47/47/109 37/101/109
f 47/47/110 36/102/110 37/101/110
f 49/103/111 59/104/112 61/105/113
f 50/55/114 39/106/115 40/86/116
f 36/72/117 57/107/118 56/73/119
f 53/108/120 64/109/121 65/110/122
f 51/60/63 40/86/63 41/99/63
f 42/111/123 52/64/123 35/112/123
f 54/6/124 20/5/124 13/113/124
f 54/6/125 45/114/126 53/115/127
f 53/115/128 35/112/129 52/64/130
f 56/73/131 48/45/132 38/88/133
f 55/18/134 48/45/132 57/107/135
f 43/74/136 38/88/137 32/87/138
f 21/17/139 16/34/140 55/18/141
f 59/116/142 60/117/143 61/118/143
f 66/119/144 60/117/145 58/120/146
f 63/121/147 60/117/143 62/122/147
f 60/117/148 64/123/149 62/122/150
f 12/57/151 59/124/151 17/125/151
f 53/108/152 66/126/153 54/127/154
f 34/51/155 63/128/155 62/129/155
f 49/103/156 63/130/157 39/106/158
f 54/6/4 12/36/159 2/4/2
f 2/131/2 4/38/160 20/40/3
f 22/132/5 6/133/161 3/134/6
f 6/10/8 7/135/162 8/11/9
f 2/13/11 5/28/163 6/14/12
f 1/19/15 5/2/164 11/1/16
f 5/21/18 9/136/165 8/22/19
f 1/137/22 3/138/166 8/139/23
f 2/3/26 17/54/167 18/30/27
f 10/31/29 21/17/168 3/32/30
f 4/15/34 6/14/169 22/140/35
f 13/41/37 20/40/170 22/39/38
f 22/39/40 21/141/171 14/43/41
f 10/20/43 11/1/172 18/30/44
f 19/35/46 51/142/46 48/45/46
f 13/46/47 15/50/173 47/47/48
f 14/49/50 46/143/174 47/47/51
f 34/51/53 62/129/175 64/52/54
f 17/54/56 49/103/56 50/55/56
f 55/18/57 57/107/176 46/56/58
f 12/57/60 54/144/177 66/58/61
f 18/30/63 50/55/63 51/60/63
f 24/66/67 34/91/178 52/64/65
f 52/64/65 42/111/179 26/65/66
f 44/67/68 43/145/180 25/68/69
f 30/70/71 29/146/181 28/69/72
f 26/65/74 28/84/182 27/71/75
f 33/61/78 27/63/183 23/75/79
f 30/77/81 31/147/184 27/78/82
f 31/81/85 30/148/185 25/82/86
f 40/86/89 39/106/186 24/62/90
f 23/83/92 25/82/187 43/74/93
f 44/67/97 28/69/188 26/92/98
f 37/94/100 44/98/189 42/95/101
f 37/101/103 36/102/190 43/149/104
f 40/86/106 33/61/191 32/76/107
f 48/45/46 51/142/46 41/89/46
f 35/100/109 45/48/109 47/47/109
f 47/47/110 46/143/110 36/102/110
f 49/103/111 17/54/192 59/104/112
f 50/55/114 49/103/193 39/106/115
f 36/72/117 46/56/176 57/107/118
f 53/108/120 52/150/194 64/109/121
f 51/60/63 50/55/63 40/86/63
f 54/6/125 13/113/195 45/114/126
f 53/115/128 45/114/196 35/112/129
f 56/73/131 57/107/135 48/45/132
f 55/18/134 16/34/197 48/45/132
f 43/74/136 56/73/198 38/88/137
f 21/17/139 10/31/199 16/34/140
f 59/116/142 58/120/142 60/117/143
f 66/119/144 65/151/200 60/117/145
f 63/121/147 61/118/143 60/117/143
f 60/117/148 65/151/201 64/123/149
f 12/57/151 58/59/151 59/124/151
f 53/108/152 65/110/202 66/126/153
f 34/51/155 39/152/155 63/128/155
f 49/103/156 61/105/203 63/130/157
