# Blender 4.1.1
# www.blender.org
mtllib tornade9.mtl
o 立方体.002
v 1.531428 5.333658 -2.026642
v 1.661017 5.555902 -2.156232
v 1.531428 5.778146 -2.026642
v 1.531428 5.778146 2.026642
v 1.661017 5.555902 2.156231
v 1.531428 5.333658 2.026642
v -2.521856 5.778146 2.026642
v -2.651446 5.555902 2.156232
v -2.521856 5.333658 2.026642
v -2.521856 5.778146 -2.026642
v -2.651446 5.555902 -2.156232
v -2.521856 5.333658 -2.026642
v 2.083450 5.319044 -1.118346
v 2.270358 5.555902 -1.178422
v 2.083450 5.792760 -1.118346
v 2.270358 5.306320 0.000000
v 2.474381 5.555902 -0.000000
v 2.270358 5.805484 -0.000000
v 2.083450 5.319044 1.118346
v 2.270358 5.555902 1.178422
v 2.083450 5.792760 1.118346
v 0.623132 5.319044 2.578664
v 0.683207 5.555902 2.765572
v 0.623132 5.792760 2.578665
v -0.495214 5.306320 2.765572
v -0.495214 5.555902 2.969595
v -0.495214 5.805484 2.765572
v -1.613561 5.319044 2.578665
v -1.673636 5.555902 2.765572
v -1.613561 5.792760 2.578664
v -3.073879 5.319044 1.118346
v -3.260786 5.555902 1.178422
v -3.073879 5.792760 1.118346
v -3.260786 5.306320 -0.000000
v -3.464809 5.555902 -0.000000
v -3.260786 5.805484 0.000000
v -3.073879 5.319044 -1.118346
v -3.260786 5.555902 -1.178422
v -3.073879 5.792760 -1.118346
v -1.613560 5.319044 -2.578665
v -1.673636 5.555902 -2.765572
v -1.613560 5.792760 -2.578665
v -0.495214 5.306320 -2.765572
v -0.495214 5.555902 -2.969595
v -0.495214 5.805484 -2.765572
v 0.623132 5.319044 -2.578665
v 0.683208 5.555902 -2.765572
v 0.623132 5.792760 -2.578664
v 1.656442 5.246437 -1.461166
v 1.345201 5.223688 -1.840415
v 1.859018 5.240832 -1.090292
v 1.668885 5.247558 -1.446005
v 1.531428 5.865647 -1.613497
v 1.345201 5.888116 -1.840415
v 1.668885 5.856858 -1.446005
v 1.859018 5.870972 -1.090292
v 1.909404 5.860265 -0.996026
v 2.057515 5.843203 -0.507769
v 2.107526 5.860825 -0.000000
v 2.107526 5.860825 0.000000
v 2.057515 5.843215 0.507769
v 1.909404 5.860271 0.996026
v 1.859018 5.870972 1.090292
v 1.668885 5.864246 1.446005
v 1.656443 5.865367 1.461166
v 1.345201 5.888116 1.840415
v 1.345201 5.888116 1.840415
v 1.531428 5.246157 1.613497
v 1.668885 5.254946 1.446005
v 1.859018 5.240832 1.090292
v 1.345201 5.223688 1.840415
v 2.107526 5.250979 0.000000
v 2.057515 5.268601 0.507769
v 1.909404 5.251539 0.996026
v 1.909404 5.251534 -0.996026
v 2.057515 5.268589 -0.507769
v 2.107526 5.250979 0.000000
v 0.965952 5.246437 2.151657
v 0.595078 5.240832 2.354232
v 0.950791 5.247558 2.164099
v 1.118283 5.865647 2.026642
v 0.950791 5.856858 2.164099
v 0.595078 5.870972 2.354232
v 0.500811 5.860265 2.404618
v 0.012555 5.843203 2.552729
v -0.495214 5.860825 2.602740
v -0.495214 5.860825 2.602740
v -1.002984 5.843215 2.552729
v -1.491240 5.860271 2.404618
v -1.585506 5.870972 2.354232
v -1.941219 5.864246 2.164099
v -1.956380 5.865367 2.151657
v -2.335629 5.888116 1.840415
v -2.335629 5.888116 1.840415
v -2.108712 5.246157 2.026642
v -1.941219 5.254946 2.164099
v -1.585506 5.240832 2.354232
v -2.335629 5.223688 1.840415
v -0.495214 5.250979 2.602740
v -1.002984 5.268601 2.552729
v -1.491240 5.251539 2.404618
v 0.500811 5.251534 2.404618
v 0.012555 5.268589 2.552729
v -0.495214 5.250979 2.602740
v -2.646871 5.246437 1.461166
v -2.659314 5.247558 1.446005
v -2.849446 5.240832 1.090292
v -2.521856 5.865647 1.613498
v -2.659314 5.856858 1.446005
v -2.849446 5.870972 1.090292
v -2.899832 5.860265 0.996026
v -3.097955 5.860825 0.000000
v -3.047943 5.843203 0.507769
v -3.097955 5.860825 0.000000
v -2.849446 5.870972 -1.090292
v -2.899832 5.860271 -0.996026
v -3.047943 5.843215 -0.507769
v -2.659314 5.864246 -1.446005
v -2.646871 5.865367 -1.461166
v -2.335629 5.888116 -1.840415
v -2.335629 5.888116 -1.840415
v -2.521856 5.246157 -1.613498
v -2.659314 5.254946 -1.446005
v -2.849446 5.240832 -1.090292
v -2.335629 5.223688 -1.840415
v -2.335629 5.223688 -1.840415
v -3.047943 5.268601 -0.507769
v -3.097955 5.250979 -0.000000
v -2.899832 5.251539 -0.996026
v -3.047943 5.268589 0.507769
v -2.899832 5.251534 0.996026
v -3.097955 5.250979 0.000000
v -1.956381 5.246437 -2.151657
v -1.941219 5.247558 -2.164099
v -1.585506 5.240832 -2.354232
v -2.108712 5.865647 -2.026642
v -1.941219 5.856858 -2.164099
v -1.585506 5.870972 -2.354232
v -1.491240 5.860265 -2.404618
v -0.495214 5.860825 -2.602740
v -1.002984 5.843203 -2.552729
v -0.495214 5.860825 -2.602740
v 0.595078 5.870972 -2.354232
v 0.500811 5.860271 -2.404618
v 0.012555 5.843215 -2.552729
v 0.950791 5.864246 -2.164099
v 0.965952 5.865367 -2.151657
v 1.345201 5.888116 -1.840415
v 1.118283 5.246157 -2.026642
v 0.950791 5.254946 -2.164099
v 0.595078 5.240832 -2.354232
v 0.012555 5.268601 -2.552729
v -0.495214 5.250979 -2.602740
v 0.500811 5.251539 -2.404618
v -1.002984 5.268589 -2.552729
v -1.491240 5.251534 -2.404618
v -0.495214 5.250979 -2.602740
vn 0.7644 -0.6308 -0.1336
vn 0.7644 0.6308 -0.1336
vn 0.7644 -0.6308 0.1336
vn 0.7644 0.6308 0.1336
vn 0.3235 -0.9232 -0.2074
vn 0.6616 -0.6264 -0.4122
vn 0.6616 0.6264 -0.4122
vn 0.3094 0.9303 -0.1970
vn 0.3211 0.9448 -0.0644
vn 0.3212 0.9448 0.0644
vn 0.3235 0.9232 0.2074
vn 0.6616 0.6264 0.4122
vn 0.6616 -0.6264 0.4122
vn 0.3094 -0.9303 0.1970
vn 0.3211 -0.9448 0.0644
vn 0.3212 -0.9448 -0.0644
vn 0.1336 -0.6308 0.7644
vn 0.1336 0.6308 0.7644
vn -0.1336 -0.6308 0.7644
vn -0.1336 0.6308 0.7644
vn 0.2074 -0.9232 0.3235
vn 0.4122 -0.6264 0.6616
vn 0.4122 0.6264 0.6616
vn 0.1970 0.9303 0.3094
vn 0.0644 0.9448 0.3211
vn -0.0644 0.9448 0.3212
vn -0.2074 0.9232 0.3235
vn -0.4122 0.6264 0.6616
vn -0.4122 -0.6264 0.6616
vn -0.1970 -0.9303 0.3094
vn -0.0644 -0.9448 0.3211
vn 0.0644 -0.9448 0.3212
vn -0.7644 -0.6308 0.1336
vn -0.7644 0.6308 0.1336
vn -0.7644 -0.6308 -0.1336
vn -0.7644 0.6308 -0.1336
vn -0.3235 -0.9232 0.2074
vn -0.6616 -0.6264 0.4122
vn -0.6616 0.6264 0.4122
vn -0.3094 0.9303 0.1970
vn -0.3211 0.9448 0.0644
vn -0.3212 0.9448 -0.0644
vn -0.3235 0.9232 -0.2074
vn -0.6616 0.6264 -0.4122
vn -0.6616 -0.6264 -0.4122
vn -0.3094 -0.9303 -0.1970
vn -0.3211 -0.9448 -0.0644
vn -0.3212 -0.9448 0.0644
vn -0.1336 -0.6308 -0.7644
vn -0.1336 0.6308 -0.7644
vn 0.1336 -0.6308 -0.7644
vn 0.1336 0.6308 -0.7644
vn -0.2074 -0.9232 -0.3235
vn -0.4122 -0.6264 -0.6616
vn -0.4122 0.6264 -0.6616
vn -0.1970 0.9303 -0.3094
vn -0.0644 0.9448 -0.3211
vn 0.0644 0.9448 -0.3212
vn 0.2074 0.9232 -0.3235
vn 0.4122 0.6264 -0.6616
vn 0.4122 -0.6264 -0.6616
vn 0.1970 -0.9303 -0.3094
vn 0.0644 -0.9448 -0.3211
vn -0.0644 -0.9448 -0.3212
vn 0.0980 -0.0000 -0.9952
vn 0.2903 -0.0000 -0.9569
vn 0.4714 -0.0000 -0.8819
vn 0.6344 -0.0000 -0.7730
vn 0.7730 -0.0000 -0.6344
vn 0.8819 -0.0000 -0.4714
vn 0.9569 -0.0000 -0.2903
vn 0.9952 -0.0000 -0.0980
vn 0.9952 -0.0000 0.0980
vn 0.9569 -0.0000 0.2903
vn 0.8819 -0.0000 0.4714
vn 0.7730 -0.0000 0.6344
vn 0.6344 -0.0000 0.7730
vn 0.4714 -0.0000 0.8819
vn 0.2903 -0.0000 0.9569
vn 0.0980 -0.0000 0.9952
vn -0.0980 -0.0000 0.9952
vn -0.2903 -0.0000 0.9569
vn -0.4714 -0.0000 0.8819
vn -0.6344 -0.0000 0.7730
vn -0.7730 -0.0000 0.6344
vn -0.8819 -0.0000 0.4714
vn -0.9569 -0.0000 0.2903
vn -0.9952 -0.0000 0.0980
vn -0.9952 -0.0000 -0.0980
vn -0.9569 -0.0000 -0.2903
vn -0.8819 -0.0000 -0.4714
vn -0.7730 -0.0000 -0.6344
vn -0.6344 -0.0000 -0.7730
vn -0.4714 -0.0000 -0.8819
vn -0.2903 -0.0000 -0.9569
vn -0.0980 -0.0000 -0.9952
vt 0.437500 0.062500
vt 0.500000 0.062500
vt 0.500000 0.125000
vt 0.437500 0.125000
vt 0.562500 0.062500
vt 0.562500 0.125000
vt 0.500000 0.187500
vt 0.437500 0.187500
vt 0.562500 0.187500
vt 0.437500 0.000000
vt 0.412090 0.062500
vt 0.409871 0.035502
vt 0.409240 0.034240
vt 0.392385 0.000000
vt 0.500000 0.000000
vt 0.562500 0.000000
vt 0.587910 0.062500
vt 0.607616 0.000000
vt 0.594349 0.020994
vt 0.588102 0.035299
vt 0.583889 0.068153
vt 0.576113 0.096222
vt 0.579202 0.125000
vt 0.579202 0.125000
vt 0.576116 0.153777
vt 0.583890 0.181847
vt 0.587910 0.187500
vt 0.562500 0.250000
vt 0.590129 0.214498
vt 0.590760 0.215760
vt 0.607615 0.250000
vt 0.500000 0.250000
vt 0.437500 0.250000
vt 0.392384 0.250000
vt 0.405651 0.229006
vt 0.411898 0.214701
vt 0.412090 0.187500
vt 0.420798 0.125000
vt 0.416111 0.181847
vt 0.423887 0.153778
vt 0.420798 0.125000
vt 0.423884 0.096223
vt 0.416110 0.068153
vt 0.437500 0.312500
vt 0.500000 0.312500
vt 0.500000 0.375000
vt 0.437500 0.375000
vt 0.562500 0.312500
vt 0.562500 0.375000
vt 0.500000 0.437500
vt 0.437500 0.437500
vt 0.562500 0.437500
vt 0.412090 0.312500
vt 0.409871 0.285502
vt 0.409240 0.284240
vt 0.587910 0.312500
vt 0.594349 0.270994
vt 0.588102 0.285299
vt 0.579202 0.375000
vt 0.583889 0.318153
vt 0.576113 0.346222
vt 0.576116 0.403777
vt 0.583890 0.431847
vt 0.587910 0.437500
vt 0.562500 0.500000
vt 0.590129 0.464498
vt 0.590760 0.465760
vt 0.607615 0.500000
vt 0.500000 0.500000
vt 0.437500 0.500000
vt 0.392384 0.500000
vt 0.405651 0.479006
vt 0.411898 0.464701
vt 0.412090 0.437500
vt 0.420798 0.375000
vt 0.416111 0.431847
vt 0.423887 0.403778
vt 0.420798 0.375000
vt 0.423884 0.346223
vt 0.416110 0.318153
vt 0.437500 0.562500
vt 0.500000 0.562500
vt 0.500000 0.625000
vt 0.437500 0.625000
vt 0.562500 0.562500
vt 0.562500 0.625000
vt 0.500000 0.687500
vt 0.437500 0.687500
vt 0.562500 0.687500
vt 0.412090 0.562500
vt 0.409871 0.535502
vt 0.409240 0.534240
vt 0.587910 0.562500
vt 0.594349 0.520994
vt 0.588102 0.535299
vt 0.583889 0.568153
vt 0.576113 0.596222
vt 0.579202 0.625000
vt 0.587910 0.687500
vt 0.576116 0.653777
vt 0.583890 0.681847
vt 0.607615 0.750000
vt 0.562500 0.750000
vt 0.590129 0.714498
vt 0.590760 0.715760
vt 0.500000 0.750000
vt 0.437500 0.750000
vt 0.392384 0.750000
vt 0.405651 0.729006
vt 0.411898 0.714701
vt 0.412090 0.687500
vt 0.416111 0.681847
vt 0.423887 0.653778
vt 0.420798 0.625000
vt 0.420798 0.625000
vt 0.423884 0.596223
vt 0.416110 0.568153
vt 0.437500 0.812500
vt 0.500000 0.812500
vt 0.500000 0.875000
vt 0.437500 0.875000
vt 0.562500 0.812500
vt 0.562500 0.875000
vt 0.500000 0.937500
vt 0.437500 0.937500
vt 0.562500 0.937500
vt 0.412090 0.812500
vt 0.409871 0.785502
vt 0.409240 0.784240
vt 0.587910 0.812500
vt 0.594349 0.770994
vt 0.588102 0.785299
vt 0.583889 0.818153
vt 0.576113 0.846223
vt 0.579202 0.875000
vt 0.587910 0.937500
vt 0.576116 0.903777
vt 0.583890 0.931847
vt 0.607616 1.000000
vt 0.562500 1.000000
vt 0.590129 0.964498
vt 0.590760 0.965760
vt 0.500000 1.000000
vt 0.437500 1.000000
vt 0.392385 1.000000
vt 0.405651 0.979006
vt 0.411898 0.964701
vt 0.412090 0.937500
vt 0.416111 0.931847
vt 0.423887 0.903778
vt 0.420798 0.875000
vt 0.420798 0.875000
vt 0.423884 0.846223
vt 0.416110 0.818153
vt 1.000000 0.714262
vt 0.968750 0.716327
vt 0.968750 0.783674
vt 1.000000 0.785738
vt 0.937500 0.714327
vt 0.937500 0.785673
vt 0.930954 0.713073
vt 0.906250 0.714727
vt 0.906250 0.786139
vt 0.930954 0.786927
vt 0.875000 0.711063
vt 0.875000 0.788937
vt 0.905049 0.786271
vt 0.892979 0.713697
vt 0.844951 0.713729
vt 0.843750 0.713861
vt 0.843750 0.785273
vt 0.857021 0.786303
vt 0.819047 0.713073
vt 0.812500 0.714327
vt 0.812500 0.785673
vt 0.819047 0.786927
vt 0.781250 0.783673
vt 0.781250 0.716326
vt 0.750000 0.714262
vt 0.750000 0.785738
vt 0.718750 0.716327
vt 0.718750 0.783674
vt 0.687500 0.785673
vt 0.687500 0.714327
vt 0.680953 0.713073
vt 0.656250 0.714727
vt 0.656250 0.786139
vt 0.680953 0.786927
vt 0.625000 0.788937
vt 0.655049 0.786271
vt 0.642979 0.713697
vt 0.625000 0.711063
vt 0.594951 0.713729
vt 0.593750 0.713861
vt 0.593750 0.785273
vt 0.607021 0.786303
vt 0.569047 0.713073
vt 0.562500 0.714327
vt 0.562500 0.785673
vt 0.569047 0.786927
vt 0.531250 0.783673
vt 0.531250 0.716326
vt 0.500000 0.714262
vt 0.500000 0.785738
vt 0.468750 0.716327
vt 0.468750 0.783674
vt 0.437500 0.785673
vt 0.437500 0.714327
vt 0.430953 0.713073
vt 0.406250 0.714727
vt 0.406250 0.786139
vt 0.430953 0.786927
vt 0.375000 0.788937
vt 0.405049 0.786271
vt 0.392979 0.713697
vt 0.375000 0.711063
vt 0.344951 0.713729
vt 0.343750 0.713861
vt 0.343750 0.785273
vt 0.357021 0.786303
vt 0.312500 0.785673
vt 0.319047 0.786927
vt 0.319047 0.713073
vt 0.312500 0.714327
vt 0.281250 0.716326
vt 0.281250 0.783673
vt 0.250000 0.785738
vt 0.250000 0.714262
vt 0.218750 0.716327
vt 0.218750 0.783674
vt 0.187500 0.714327
vt 0.187500 0.785673
vt 0.180953 0.713073
vt 0.156250 0.714727
vt 0.156250 0.786139
vt 0.180953 0.786927
vt 0.125000 0.711063
vt 0.125000 0.788937
vt 0.155049 0.786271
vt 0.142979 0.713697
vt 0.094951 0.713729
vt 0.093750 0.713861
vt 0.093750 0.785273
vt 0.107021 0.786303
vt 0.062500 0.785673
vt 0.069047 0.786927
vt 0.069047 0.713073
vt 0.062500 0.714327
vt 0.031250 0.716326
vt 0.031250 0.783673
vt 0.000000 0.785738
vt 0.000000 0.714262
s 0
f 13/1/1 14/2/1 17/3/1 16/4/1
f 14/2/2 15/5/2 18/6/2 17/3/2
f 16/4/3 17/3/3 20/7/3 19/8/3
f 17/3/4 18/6/4 21/9/4 20/7/4
f 1/10/5 13/1/5 51/11/5 52/12/5 49/13/5 50/14/5
f 1/10/6 2/15/6 14/2/6 13/1/6
f 2/15/7 3/16/7 15/5/7 14/2/7
f 56/17/8 15/5/8 3/16/8 54/18/8 53/19/8 55/20/8
f 18/6/9 15/5/9 56/17/9 57/21/9 58/22/9 59/23/9
f 21/9/10 18/6/10 59/23/10 60/24/10 61/25/10 62/26/10 63/27/10
f 4/28/11 21/9/11 63/27/11 64/29/11 65/30/11 67/31/11 66/31/11
f 20/7/12 21/9/12 4/28/12 5/32/12
f 19/8/13 20/7/13 5/32/13 6/33/13
f 19/8/14 6/33/14 71/34/14 68/35/14 69/36/14 70/37/14
f 72/38/15 16/4/15 19/8/15 70/37/15 74/39/15 73/40/15
f 13/1/16 16/4/16 72/38/16 77/41/16 76/42/16 75/43/16 51/11/16
f 22/44/17 23/45/17 26/46/17 25/47/17
f 23/45/18 24/48/18 27/49/18 26/46/18
f 25/47/19 26/46/19 29/50/19 28/51/19
f 26/46/20 27/49/20 30/52/20 29/50/20
f 6/33/21 22/44/21 79/53/21 80/54/21 78/55/21 71/34/21
f 6/33/22 5/32/22 23/45/22 22/44/22
f 5/32/23 4/28/23 24/48/23 23/45/23
f 83/56/24 24/48/24 4/28/24 66/31/24 81/57/24 82/58/24
f 86/59/25 27/49/25 24/48/25 83/56/25 84/60/25 85/61/25
f 30/52/26 27/49/26 86/59/26 87/59/26 88/62/26 89/63/26 90/64/26
f 7/65/27 30/52/27 90/64/27 91/66/27 92/67/27 94/68/27 93/68/27
f 29/50/28 30/52/28 7/65/28 8/69/28
f 28/51/29 29/50/29 8/69/29 9/70/29
f 28/51/30 9/70/30 98/71/30 95/72/30 96/73/30 97/74/30
f 99/75/31 25/47/31 28/51/31 97/74/31 101/76/31 100/77/31
f 22/44/32 25/47/32 99/75/32 104/78/32 103/79/32 102/80/32 79/53/32
f 31/81/33 32/82/33 35/83/33 34/84/33
f 32/82/34 33/85/34 36/86/34 35/83/34
f 34/84/35 35/83/35 38/87/35 37/88/35
f 35/83/36 36/86/36 39/89/36 38/87/36
f 98/71/37 9/70/37 31/81/37 107/90/37 106/91/37 105/92/37
f 9/70/38 8/69/38 32/82/38 31/81/38
f 8/69/39 7/65/39 33/85/39 32/82/39
f 110/93/40 33/85/40 7/65/40 93/68/40 108/94/40 109/95/40
f 36/86/41 33/85/41 110/93/41 111/96/41 113/97/41 112/98/41
f 115/99/42 39/89/42 36/86/42 112/98/42 114/98/42 117/100/42 116/101/42
f 120/102/43 10/103/43 39/89/43 115/99/43 118/104/43 119/105/43 121/102/43
f 38/87/44 39/89/44 10/103/44 11/106/44
f 37/88/45 38/87/45 11/106/45 12/107/45
f 37/88/46 12/107/46 125/108/46 126/108/46 122/109/46 123/110/46 124/111/46
f 34/84/47 37/88/47 124/111/47 129/112/47 127/113/47 128/114/47
f 107/90/48 31/81/48 34/84/48 128/114/48 132/115/48 130/116/48 131/117/48
f 40/118/49 41/119/49 44/120/49 43/121/49
f 41/119/50 42/122/50 45/123/50 44/120/50
f 43/121/51 44/120/51 47/124/51 46/125/51
f 44/120/52 45/123/52 48/126/52 47/124/52
f 125/108/53 12/107/53 40/118/53 135/127/53 134/128/53 133/129/53
f 12/107/54 11/106/54 41/119/54 40/118/54
f 11/106/55 10/103/55 42/122/55 41/119/55
f 138/130/56 42/122/56 10/103/56 120/102/56 136/131/56 137/132/56
f 45/123/57 42/122/57 138/130/57 139/133/57 141/134/57 140/135/57
f 143/136/58 48/126/58 45/123/58 140/135/58 142/135/58 145/137/58 144/138/58
f 54/139/59 3/140/59 48/126/59 143/136/59 146/141/59 147/142/59 148/139/59
f 47/124/60 48/126/60 3/140/60 2/143/60
f 46/125/61 47/124/61 2/143/61 1/144/61
f 46/125/62 1/144/62 50/145/62 149/146/62 150/147/62 151/148/62
f 43/121/63 46/125/63 151/148/63 154/149/63 152/150/63 153/151/63
f 135/127/64 40/118/64 43/121/64 153/151/64 157/152/64 155/153/64 156/154/64
f 99/155/65 100/156/65 88/157/65 87/158/65 104/155/65
f 101/159/66 89/160/66 88/157/66 100/156/66
f 97/161/67 96/162/67 91/163/67 90/164/67 89/160/67 101/159/67
f 98/165/68 94/166/68 92/167/68 91/163/68 96/162/68 95/168/68
f 93/166/69 94/166/69 98/165/69 105/169/69 106/170/69 109/171/69 108/172/69
f 109/171/70 106/170/70 107/173/70 131/174/70 111/175/70 110/176/70
f 113/177/71 111/175/71 131/174/71 130/178/71
f 113/177/72 130/178/72 132/179/72 114/180/72 112/180/72
f 128/179/73 127/181/73 117/182/73 114/180/73 132/179/73
f 116/183/74 117/182/74 127/181/74 129/184/74
f 124/185/75 123/186/75 118/187/75 115/188/75 116/183/75 129/184/75
f 121/189/76 119/190/76 118/187/76 123/186/76 122/191/76 126/192/76
f 120/189/77 121/189/77 126/192/77 125/192/77 133/193/77 134/194/77 137/195/77 136/196/77
f 137/195/78 134/194/78 135/197/78 156/198/78 139/199/78 138/200/78
f 141/201/79 139/199/79 156/198/79 155/202/79
f 141/201/80 155/202/80 157/203/80 142/204/80 140/204/80
f 153/203/81 152/205/81 145/206/81 142/204/81 157/203/81
f 144/207/82 145/206/82 152/205/82 154/208/82
f 151/209/83 150/210/83 146/211/83 143/212/83 144/207/83 154/208/83
f 148/213/84 147/214/84 146/211/84 150/210/84 149/215/84 50/216/84
f 148/213/85 50/216/85 49/217/85 52/218/85 55/219/85 53/220/85 54/213/85
f 57/221/86 56/222/86 55/219/86 52/218/86 51/223/86 75/224/86
f 76/225/87 58/226/87 57/221/87 75/224/87
f 60/227/88 59/227/88 58/226/88 76/225/88 77/228/88
f 72/228/89 73/229/89 61/230/89 60/227/89 77/228/89
f 74/231/90 62/232/90 61/230/90 73/229/90
f 70/233/91 69/234/91 64/235/91 63/236/91 62/232/91 74/231/91
f 71/237/92 67/238/92 65/239/92 64/235/92 69/234/92 68/240/92
f 66/238/93 67/238/93 71/237/93 78/241/93 80/242/93 82/243/93 81/244/93
f 84/245/94 83/246/94 82/243/94 80/242/94 79/247/94 102/248/94
f 103/249/95 85/250/95 84/245/95 102/248/95
f 87/251/96 86/251/96 85/250/96 103/249/96 104/252/96
