# Blender 5.0.0
# www.blender.org
mtllib GoalBlock.mtl
o Cube
v 0.000000 0.535031 -0.865849
v 1.000000 1.000000 -1.000000
v 1.000000 -1.000000 -1.000000
v 1.000000 1.000000 1.000000
v 0.168919 0.535031 -0.849212
v 1.000000 -1.000000 1.000000
v -1.000000 1.000000 -1.000000
v 0.331346 0.535031 -0.799940
v -1.000000 -1.000000 -1.000000
v -1.000000 1.000000 1.000000
v 0.481040 0.535031 -0.719927
v -1.000000 -1.000000 1.000000
v 0.612247 0.535031 -0.612247
v 0.719927 0.535031 -0.481040
v 0.799940 0.535031 -0.331346
v 0.849212 0.535031 -0.168919
v 0.865849 0.535031 0.000000
v 0.849212 0.535031 0.168919
v 0.799940 0.535031 0.331346
v 0.719927 0.535031 0.481040
v 0.612247 0.535031 0.612247
v 0.481040 0.535031 0.719927
v 0.331346 0.535031 0.799940
v 0.168919 0.535031 0.849212
v 0.000000 0.535031 0.865849
v -0.168919 0.535031 0.849212
v -0.331346 0.535031 0.799940
v -0.481040 0.535031 0.719927
v -0.612247 0.535031 0.612247
v -0.719927 0.535031 0.481040
v -0.799940 0.535031 0.331346
v -0.849212 0.535031 0.168919
v -0.865849 0.535031 0.000000
v -0.849212 0.535031 -0.168919
v -0.799940 0.535031 -0.331346
v -0.719927 0.535031 -0.481040
v -0.612247 0.535031 -0.612247
v -0.481040 0.535031 -0.719927
v -0.331346 0.535031 -0.799940
v -0.168919 0.535031 -0.849212
v -0.865849 1.000000 0.000000
v -0.849212 1.000000 0.168919
v -0.849212 1.000000 -0.168919
v -0.719927 1.000000 0.481040
v -0.719927 1.000000 -0.481040
v -0.612247 1.000000 0.612247
v -0.799940 1.000000 0.331346
v -0.799940 1.000000 -0.331346
v -0.481040 1.000000 -0.719927
v -0.168919 1.000000 -0.849212
v -0.331346 1.000000 -0.799940
v 0.168919 1.000000 -0.849212
v 0.612247 1.000000 -0.612247
v 0.481040 1.000000 -0.719927
v 0.331346 1.000000 -0.799940
v 0.000000 1.000000 -0.865849
v -0.612247 1.000000 -0.612247
v -0.481040 1.000000 0.719927
v -0.168919 1.000000 0.849212
v -0.331346 1.000000 0.799940
v 0.168919 1.000000 0.849212
v 0.481040 1.000000 0.719927
v 0.331346 1.000000 0.799940
v 0.000000 1.000000 0.865849
v 0.719927 1.000000 0.481040
v 0.719927 1.000000 -0.481040
v 0.865849 1.000000 0.000000
v 0.849212 1.000000 0.168919
v 0.849212 1.000000 -0.168919
v 0.799940 1.000000 0.331346
v 0.799940 1.000000 -0.331346
v 0.612247 1.000000 0.612247
vn -0.0000 1.0000 -0.0000
vn -0.0000 -0.0000 1.0000
vn -1.0000 -0.0000 -0.0000
vn -0.0000 -1.0000 -0.0000
vn 1.0000 -0.0000 -0.0000
vn -0.0000 -0.0000 -1.0000
vn -0.0980 -0.0000 0.9952
vn -0.2903 -0.0000 0.9569
vn -0.4714 -0.0000 0.8819
vn -0.6344 -0.0000 0.7730
vn -0.7730 -0.0000 0.6344
vn -0.8819 -0.0000 0.4714
vn -0.9569 -0.0000 0.2903
vn -0.9952 -0.0000 0.0980
vn -0.9952 -0.0000 -0.0980
vn -0.9569 -0.0000 -0.2903
vn -0.8819 -0.0000 -0.4714
vn -0.7730 -0.0000 -0.6344
vn -0.6344 -0.0000 -0.7730
vn -0.4714 -0.0000 -0.8819
vn -0.2903 -0.0000 -0.9569
vn -0.0980 -0.0000 -0.9952
vn 0.0980 -0.0000 -0.9952
vn 0.2903 -0.0000 -0.9569
vn 0.4714 -0.0000 -0.8819
vn 0.6344 -0.0000 -0.7730
vn 0.7730 -0.0000 -0.6344
vn 0.8819 -0.0000 -0.4714
vn 0.9569 -0.0000 -0.2903
vn 0.9952 -0.0000 -0.0980
vn 0.9952 -0.0000 0.0980
vn 0.9569 -0.0000 0.2903
vn 0.8819 -0.0000 0.4714
vn 0.7730 -0.0000 0.6344
vn 0.6344 -0.0000 0.7730
vn 0.4714 -0.0000 0.8819
vn 0.2903 -0.0000 0.9569
vn 0.0980 -0.0000 0.9952
vt 0.875000 0.750000
vt 0.826531 0.701531
vt 0.839991 0.685130
vt 0.625000 0.500000
vt 0.673469 0.548469
vt 0.660009 0.564870
vt 0.625000 0.750000
vt 0.375000 1.000000
vt 0.375000 0.750000
vt 0.625000 0.000000
vt 0.375000 0.250000
vt 0.375000 0.000000
vt 0.375000 0.500000
vt 0.125000 0.750000
vt 0.125000 0.500000
vt 0.625000 0.250000
vt 0.000000 0.000000
vt 0.673469 0.701531
vt 0.689870 0.714991
vt 0.708582 0.724993
vt 0.839991 0.564870
vt 0.826531 0.548469
vt 0.875000 0.500000
vt 0.849993 0.583582
vt 0.728885 0.731151
vt 0.750000 0.733231
vt 0.856151 0.603885
vt 0.858231 0.625000
vt 0.771115 0.731151
vt 0.856151 0.646115
vt 0.791418 0.724993
vt 0.810130 0.714991
vt 0.849993 0.666418
vt 0.810130 0.535009
vt 0.791418 0.525008
vt 0.660009 0.685130
vt 0.650007 0.666418
vt 0.771115 0.518849
vt 0.750000 0.516769
vt 0.643849 0.646115
vt 0.641769 0.625000
vt 0.728885 0.518849
vt 0.643849 0.603885
vt 0.708582 0.525008
vt 0.689870 0.535009
vt 0.650007 0.583582
vt 0.625000 1.000000
s 0
usemtl Material
f 10/1/1 46/2/1 44/3/1
f 2/4/1 53/5/1 66/6/1
f 4/7/2 12/8/2 6/9/2
f 10/10/3 9/11/3 12/12/3
f 3/13/4 12/14/4 9/15/4
f 2/4/5 6/9/5 3/13/5
f 7/16/6 3/13/6 9/11/6
f 1/17/7 52/17/7 56/17/7
f 5/17/8 55/17/8 52/17/8
f 8/17/9 54/17/9 55/17/9
f 11/17/10 53/17/10 54/17/10
f 14/17/11 53/17/11 13/17/11
f 15/17/12 66/17/12 14/17/12
f 16/17/13 71/17/13 15/17/13
f 17/17/14 69/17/14 16/17/14
f 18/17/15 67/17/15 17/17/15
f 19/17/16 68/17/16 18/17/16
f 20/17/17 70/17/17 19/17/17
f 21/17/18 65/17/18 20/17/18
f 22/17/19 72/17/19 21/17/19
f 23/17/20 62/17/20 22/17/20
f 24/17/21 63/17/21 23/17/21
f 25/17/22 61/17/22 24/17/22
f 26/17/23 64/17/23 25/17/23
f 27/17/24 59/17/24 26/17/24
f 28/17/25 60/17/25 27/17/25
f 29/17/26 58/17/26 28/17/26
f 29/17/27 44/17/27 46/17/27
f 30/17/28 47/17/28 44/17/28
f 31/17/29 42/17/29 47/17/29
f 32/17/30 41/17/30 42/17/30
f 33/17/31 43/17/31 41/17/31
f 34/17/32 48/17/32 43/17/32
f 35/17/33 45/17/33 48/17/33
f 36/17/34 57/17/34 45/17/34
f 37/17/35 49/17/35 57/17/35
f 38/17/36 51/17/36 49/17/36
f 39/17/37 50/17/37 51/17/37
f 40/17/38 56/17/38 50/17/38
f 21/17/1 13/17/1 37/17/1
f 4/7/1 72/18/1 62/19/1
f 4/7/1 62/19/1 63/20/1
f 45/21/1 57/22/1 7/23/1
f 48/24/1 45/21/1 7/23/1
f 4/7/1 63/20/1 61/25/1
f 4/7/1 61/25/1 64/26/1
f 43/27/1 48/24/1 7/23/1
f 41/28/1 43/27/1 7/23/1
f 10/1/1 4/7/1 64/26/1
f 10/1/1 64/26/1 59/29/1
f 41/28/1 7/23/1 10/1/1
f 42/30/1 41/28/1 10/1/1
f 10/1/1 59/29/1 60/31/1
f 10/1/1 60/31/1 58/32/1
f 47/33/1 42/30/1 10/1/1
f 44/3/1 47/33/1 10/1/1
f 10/1/1 58/32/1 46/2/1
f 7/23/1 57/22/1 49/34/1
f 7/23/1 49/34/1 51/35/1
f 65/36/1 72/18/1 4/7/1
f 70/37/1 65/36/1 4/7/1
f 7/23/1 51/35/1 50/38/1
f 7/23/1 50/38/1 56/39/1
f 68/40/1 70/37/1 4/7/1
f 67/41/1 68/40/1 4/7/1
f 2/4/1 7/23/1 56/39/1
f 2/4/1 56/39/1 52/42/1
f 67/41/1 4/7/1 2/4/1
f 69/43/1 67/41/1 2/4/1
f 2/4/1 52/42/1 55/44/1
f 2/4/1 55/44/1 54/45/1
f 71/46/1 69/43/1 2/4/1
f 66/6/1 71/46/1 2/4/1
f 2/4/1 54/45/1 53/5/1
f 4/7/2 10/47/2 12/8/2
f 10/10/3 7/16/3 9/11/3
f 3/13/4 6/9/4 12/14/4
f 2/4/5 4/7/5 6/9/5
f 7/16/6 2/4/6 3/13/6
f 1/17/7 5/17/7 52/17/7
f 5/17/8 8/17/8 55/17/8
f 8/17/9 11/17/9 54/17/9
f 11/17/10 13/17/10 53/17/10
f 14/17/11 66/17/11 53/17/11
f 15/17/12 71/17/12 66/17/12
f 16/17/13 69/17/13 71/17/13
f 17/17/14 67/17/14 69/17/14
f 18/17/15 68/17/15 67/17/15
f 19/17/16 70/17/16 68/17/16
f 20/17/17 65/17/17 70/17/17
f 21/17/18 72/17/18 65/17/18
f 22/17/19 62/17/19 72/17/19
f 23/17/20 63/17/20 62/17/20
f 24/17/21 61/17/21 63/17/21
f 25/17/22 64/17/22 61/17/22
f 26/17/23 59/17/23 64/17/23
f 27/17/24 60/17/24 59/17/24
f 28/17/25 58/17/25 60/17/25
f 29/17/26 46/17/26 58/17/26
f 29/17/27 30/17/27 44/17/27
f 30/17/28 31/17/28 47/17/28
f 31/17/29 32/17/29 42/17/29
f 32/17/30 33/17/30 41/17/30
f 33/17/31 34/17/31 43/17/31
f 34/17/32 35/17/32 48/17/32
f 35/17/33 36/17/33 45/17/33
f 36/17/34 37/17/34 57/17/34
f 37/17/35 38/17/35 49/17/35
f 38/17/36 39/17/36 51/17/36
f 39/17/37 40/17/37 50/17/37
f 40/17/38 1/17/38 56/17/38
f 37/17/1 36/17/1 35/17/1
f 35/17/1 34/17/1 33/17/1
f 33/17/1 32/17/1 31/17/1
f 31/17/1 30/17/1 29/17/1
f 29/17/1 28/17/1 27/17/1
f 27/17/1 26/17/1 25/17/1
f 25/17/1 24/17/1 23/17/1
f 23/17/1 22/17/1 21/17/1
f 21/17/1 20/17/1 19/17/1
f 19/17/1 18/17/1 17/17/1
f 17/17/1 16/17/1 15/17/1
f 15/17/1 14/17/1 13/17/1
f 13/17/1 11/17/1 8/17/1
f 8/17/1 5/17/1 1/17/1
f 1/17/1 40/17/1 39/17/1
f 39/17/1 38/17/1 37/17/1
f 37/17/1 35/17/1 33/17/1
f 33/17/1 31/17/1 29/17/1
f 29/17/1 27/17/1 25/17/1
f 25/17/1 23/17/1 21/17/1
f 21/17/1 19/17/1 17/17/1
f 17/17/1 15/17/1 13/17/1
f 13/17/1 8/17/1 1/17/1
f 1/17/1 39/17/1 37/17/1
f 37/17/1 33/17/1 29/17/1
f 29/17/1 25/17/1 21/17/1
f 21/17/1 17/17/1 13/17/1
f 13/17/1 1/17/1 37/17/1
f 37/17/1 29/17/1 21/17/1
