# Blender 4.1.1
# www.blender.org
mtllib wind.mtl
o 円柱
v -0.332012 -0.135788 1.170751
v -0.332012 0.135788 1.170751
v -0.332012 -0.135788 -1.170751
v -0.332012 0.135788 -1.170751
v -0.136921 -0.135788 -1.148255
v -0.399441 -0.135788 -1.148255
v -0.136921 0.135788 -1.148255
v -0.399441 0.135788 -1.148255
v -0.211847 -0.135788 -1.081633
v 0.050672 -0.135788 -1.081633
v 0.050672 0.135788 -1.081633
v -0.211847 0.135788 -1.081633
v 0.223559 -0.135788 -0.973444
v -0.038961 -0.135788 -0.973444
v 0.223559 0.135788 -0.973444
v -0.038961 0.135788 -0.973444
v 0.375095 -0.135788 -0.827846
v 0.112576 -0.135788 -0.827846
v 0.375095 0.135788 -0.827846
v 0.112576 0.135788 -0.827846
v 0.236939 -0.135788 -0.650434
v 0.499458 -0.135788 -0.650434
v 0.499458 0.135788 -0.650434
v 0.236939 0.135788 -0.650434
v 0.329349 -0.135788 -0.448027
v 0.591868 -0.135788 -0.448027
v 0.329349 0.135788 -0.448027
v 0.591868 0.135788 -0.448027
v 0.386254 -0.135788 -0.228402
v 0.648774 -0.135788 -0.228402
v 0.648774 0.135788 -0.228402
v 0.386254 0.135788 -0.228402
v 0.405469 -0.135788 0.000000
v 0.667988 -0.135788 0.000000
v 0.667988 0.135788 0.000000
v 0.405469 0.135788 0.000000
v 0.386254 -0.135788 0.228402
v 0.648774 -0.135788 0.228402
v 0.386254 0.135788 0.228402
v 0.648774 0.135788 0.228402
v 0.591868 -0.135788 0.448027
v 0.329349 -0.135788 0.448027
v 0.329349 0.135788 0.448027
v 0.591868 0.135788 0.448027
v 0.499458 -0.135788 0.650434
v 0.236939 -0.135788 0.650434
v 0.499458 0.135788 0.650434
v 0.236939 0.135788 0.650434
v 0.375095 -0.135788 0.827846
v 0.112576 -0.135788 0.827846
v 0.375095 0.135788 0.827846
v 0.112576 0.135788 0.827846
v -0.038961 -0.135788 0.973444
v 0.223559 -0.135788 0.973444
v 0.223559 0.135788 0.973444
v -0.038961 0.135788 0.973444
v -0.211847 -0.135788 1.081633
v 0.050672 -0.135788 1.081633
v 0.050672 0.135788 1.081633
v -0.211847 0.135788 1.081633
v -0.136921 -0.135788 1.148255
v -0.399441 -0.135788 1.148255
v -0.136921 0.135788 1.148255
v -0.399441 0.135788 1.148255
v -0.463271 0.135788 1.155616
v -0.463271 -0.135788 1.155616
v -0.463271 0.135788 -1.155616
v -0.463271 -0.135788 -1.155616
vn -0.0000 -0.6822 0.7312
vn -0.0000 0.6822 0.7312
vn -0.0000 -0.6822 -0.7312
vn -0.0000 0.6822 -0.7312
vn 0.1652 -0.6825 -0.7119
vn -0.1537 -0.7334 0.6621
vn 0.1652 0.6825 -0.7119
vn -0.1537 0.7334 0.6621
vn -0.2963 -0.7324 0.6130
vn 0.3177 -0.6834 -0.6573
vn 0.3177 0.6834 -0.6573
vn -0.2963 0.7324 0.6130
vn 0.4482 -0.6847 -0.5748
vn -0.4196 -0.7310 0.5381
vn 0.4482 0.6847 -0.5748
vn -0.4196 0.7310 0.5381
vn 0.5526 -0.6859 -0.4734
vn -0.5194 -0.7296 0.4450
vn 0.5526 0.6859 -0.4734
vn -0.5194 0.7296 0.4450
vn -0.5948 -0.7283 0.3404
vn 0.6306 -0.6871 -0.3609
vn 0.6306 0.6871 -0.3609
vn -0.5948 0.7283 0.3404
vn -0.6468 -0.7273 0.2295
vn 0.6840 -0.6880 -0.2426
vn -0.6468 0.7273 0.2295
vn 0.6840 0.6880 -0.2426
vn -0.6772 -0.7267 0.1154
vn 0.7149 -0.6885 -0.1218
vn 0.7149 0.6885 -0.1218
vn -0.6772 0.7267 0.1154
vn -0.6872 -0.7265 -0.0000
vn 0.7250 -0.6887 -0.0000
vn 0.7250 0.6887 -0.0000
vn -0.6872 0.7265 -0.0000
vn -0.6772 -0.7267 -0.1154
vn 0.7149 -0.6885 0.1218
vn -0.6772 0.7267 -0.1154
vn 0.7149 0.6885 0.1218
vn 0.6840 -0.6880 0.2426
vn -0.6468 -0.7273 -0.2295
vn -0.6468 0.7273 -0.2295
vn 0.6840 0.6880 0.2426
vn 0.6306 -0.6871 0.3609
vn -0.5948 -0.7283 -0.3404
vn 0.6306 0.6871 0.3609
vn -0.5948 0.7283 -0.3404
vn 0.5526 -0.6859 0.4734
vn -0.5194 -0.7296 -0.4450
vn 0.5526 0.6859 0.4734
vn -0.5194 0.7296 -0.4450
vn -0.4196 -0.7310 -0.5381
vn 0.4482 -0.6847 0.5748
vn 0.4482 0.6847 0.5748
vn -0.4196 0.7310 -0.5381
vn -0.2963 -0.7324 -0.6130
vn 0.3177 -0.6834 0.6573
vn 0.3177 0.6834 0.6573
vn -0.2963 0.7324 -0.6130
vn 0.1652 -0.6825 0.7119
vn -0.1537 -0.7335 -0.6621
vn 0.1652 0.6825 0.7119
vn -0.1537 0.7334 -0.6622
vn -0.8431 0.5378 0.0001
vn -0.8431 -0.5378 -0.0001
vt 0.197953 0.495715
vt 0.185689 0.204062
vt 0.197953 0.204062
vt 0.428597 0.509023
vt 0.415841 0.205691
vt 0.428597 0.205691
vt 0.447555 0.509023
vt 0.447555 0.205691
vt 0.466513 0.509023
vt 0.466513 0.205691
vt 0.485471 0.509023
vt 0.485471 0.205691
vt 0.504430 0.509023
vt 0.504430 0.205691
vt 0.523388 0.509023
vt 0.523388 0.205691
vt 0.542346 0.509023
vt 0.542346 0.205691
vt 0.561304 0.509023
vt 0.561304 0.205691
vt 0.580263 0.509023
vt 0.580263 0.205691
vt 0.599221 0.509023
vt 0.599221 0.205691
vt 0.618179 0.509023
vt 0.618179 0.205691
vt 0.637137 0.509023
vt 0.637137 0.205691
vt 0.656095 0.509023
vt 0.656095 0.205691
vt 0.675054 0.509023
vt 0.675054 0.205691
vt 0.694012 0.509023
vt 0.338669 0.358704
vt 0.345233 0.425350
vt 0.255552 0.425350
vt 0.694012 0.205691
vt 0.712970 0.509023
vt 0.712970 0.205691
vt 0.731928 0.509023
vt 0.043769 0.489435
vt 0.133450 0.489435
vt 0.114010 0.425350
vt 0.951507 0.546793
vt 0.945272 0.851698
vt 0.951507 0.851698
vt 0.926215 0.546793
vt 0.926215 0.851698
vt 0.907159 0.546793
vt 0.888102 0.546793
vt 0.907159 0.851698
vt 0.869046 0.851698
vt 0.888102 0.851698
vt 0.849989 0.851698
vt 0.869046 0.546793
vt 0.849989 0.546793
vt 0.830932 0.851698
vt 0.830932 0.546793
vt 0.811876 0.851698
vt 0.811876 0.546793
vt 0.792819 0.851698
vt 0.773763 0.851698
vt 0.792819 0.546793
vt 0.773763 0.546793
vt 0.754706 0.851698
vt 0.754706 0.546793
vt 0.735649 0.851698
vt 0.716593 0.851698
vt 0.735649 0.546793
vt 0.716593 0.546793
vt 0.697536 0.851698
vt 0.697536 0.546793
vt 0.678480 0.851698
vt 0.678480 0.546793
vt 0.672245 0.851698
vt 0.185689 0.495715
vt 0.415841 0.509023
vt 0.635447 0.695906
vt 0.590606 0.700322
vt 0.613641 0.693758
vt 0.523960 0.693758
vt 0.549556 0.674319
vt 0.459874 0.674318
vt 0.490495 0.642749
vt 0.400813 0.642749
vt 0.438727 0.600264
vt 0.349045 0.600265
vt 0.306561 0.548497
vt 0.396242 0.548497
vt 0.274992 0.489436
vt 0.364673 0.489435
vt 0.248988 0.358704
vt 0.255552 0.292057
vt 0.274992 0.227972
vt 0.345233 0.292057
vt 0.306561 0.168911
vt 0.364673 0.227972
vt 0.349045 0.117143
vt 0.396242 0.168911
vt 0.400813 0.074658
vt 0.438727 0.117143
vt 0.459874 0.043089
vt 0.523960 0.023649
vt 0.490495 0.074658
vt 0.590606 0.017085
vt 0.549556 0.043089
vt 0.635447 0.021502
vt 0.613641 0.023649
vt 0.731928 0.205691
vt 0.382418 0.023649
vt 0.404224 0.021501
vt 0.359383 0.017085
vt 0.292737 0.023649
vt 0.318333 0.043089
vt 0.228652 0.043089
vt 0.259272 0.074658
vt 0.169590 0.074658
vt 0.207504 0.117143
vt 0.117822 0.117143
vt 0.075338 0.168910
vt 0.165020 0.168910
vt 0.043769 0.227972
vt 0.133450 0.227972
vt 0.024329 0.292057
vt 0.114010 0.292057
vt 0.017765 0.358704
vt 0.107446 0.358704
vt 0.024329 0.425350
vt 0.075338 0.548497
vt 0.117822 0.600264
vt 0.165019 0.548497
vt 0.169590 0.642749
vt 0.207504 0.600264
vt 0.228652 0.674318
vt 0.259272 0.642749
vt 0.292737 0.693758
vt 0.359383 0.700322
vt 0.318333 0.674318
vt 0.404224 0.695906
vt 0.382418 0.693758
vt 0.945272 0.546793
vt 0.672245 0.546793
s 1
usemtl マテリアル
f 2/1/2 66/2/66 1/3/1
f 3/4/3 67/5/65 4/6/4
f 4/6/4 5/7/5 3/4/3
f 7/8/7 10/9/10 5/7/5
f 11/10/11 13/11/13 10/9/10
f 15/12/15 17/13/17 13/11/13
f 19/14/19 22/15/22 17/13/17
f 23/16/23 26/17/26 22/15/22
f 28/18/28 30/19/30 26/17/26
f 31/20/31 34/21/34 30/19/30
f 35/22/35 38/23/38 34/21/34
f 40/24/40 41/25/41 38/23/38
f 44/26/44 45/27/45 41/25/41
f 47/28/47 49/29/49 45/27/45
f 51/30/51 54/31/54 49/29/49
f 55/32/55 58/33/58 54/31/54
f 36/34/36 39/35/39 40/36/40
f 59/37/59 61/38/61 58/33/58
f 63/39/63 1/40/1 61/38/61
f 41/41/41 42/42/42 37/43/37
f 68/44/66 8/45/8 67/46/65
f 8/45/8 9/47/9 12/48/12
f 14/49/14 12/48/12 9/47/9
f 18/50/18 16/51/16 14/49/14
f 18/50/18 24/52/24 20/53/20
f 27/54/27 21/55/21 25/56/25
f 25/56/25 32/57/32 27/54/27
f 29/58/29 36/59/36 32/57/32
f 33/60/33 39/61/39 36/59/36
f 43/62/43 37/63/37 42/64/42
f 42/64/42 48/65/48 43/62/43
f 46/66/46 52/67/52 48/65/48
f 56/68/56 50/69/50 53/70/53
f 60/71/60 53/70/53 57/72/57
f 64/73/64 57/72/57 62/74/62
f 62/74/62 65/75/65 64/73/64
f 2/1/2 65/76/65 66/2/66
f 3/4/3 68/77/66 67/5/65
f 4/6/4 7/8/7 5/7/5
f 7/8/7 11/10/11 10/9/10
f 11/10/11 15/12/15 13/11/13
f 15/12/15 19/14/19 17/13/17
f 19/14/19 23/16/23 22/15/22
f 23/16/23 28/18/28 26/17/26
f 28/18/28 31/20/31 30/19/30
f 31/20/31 35/22/35 34/21/34
f 35/22/35 40/24/40 38/23/38
f 40/24/40 44/26/44 41/25/41
f 44/26/44 47/28/47 45/27/45
f 47/28/47 51/30/51 49/29/49
f 51/30/51 55/32/55 54/31/54
f 55/32/55 59/37/59 58/33/58
f 65/78/65 2/79/2 64/80/64
f 2/79/2 63/81/63 60/82/60
f 64/80/64 2/79/2 60/82/60
f 63/81/63 59/83/59 56/84/56
f 59/83/59 55/85/55 52/86/52
f 55/85/55 51/87/51 52/86/52
f 51/87/51 47/88/47 48/89/48
f 52/86/52 51/87/51 48/89/48
f 47/88/47 44/90/44 43/91/43
f 44/90/44 40/36/40 39/35/39
f 43/91/43 44/90/44 39/35/39
f 40/36/40 35/92/35 36/34/36
f 35/92/35 31/93/31 36/34/36
f 31/93/31 28/94/28 32/95/32
f 28/94/28 23/96/23 27/97/27
f 23/96/23 19/98/19 24/99/24
f 19/98/19 15/100/15 20/101/20
f 15/100/15 11/102/11 20/101/20
f 11/102/11 7/103/7 16/104/16
f 7/103/7 4/105/4 12/106/12
f 4/105/4 67/107/65 8/108/8
f 4/105/4 8/108/8 12/106/12
f 19/98/19 20/101/20 24/99/24
f 11/102/11 16/104/16 20/101/20
f 28/94/28 27/97/27 32/95/32
f 59/83/59 52/86/52 56/84/56
f 7/103/7 12/106/12 16/104/16
f 56/84/56 60/82/60 63/81/63
f 48/89/48 47/88/47 43/91/43
f 23/96/23 24/99/24 27/97/27
f 31/93/31 32/95/32 36/34/36
f 59/37/59 63/39/63 61/38/61
f 63/39/63 2/109/2 1/40/1
f 6/110/6 68/111/66 3/112/3
f 3/112/3 5/113/5 9/114/9
f 5/113/5 10/115/10 14/116/14
f 10/115/10 13/117/13 18/118/18
f 13/117/13 17/119/17 18/118/18
f 10/115/10 18/118/18 14/116/14
f 17/119/17 22/120/22 21/121/21
f 22/120/22 26/122/26 25/123/25
f 26/122/26 30/124/30 29/125/29
f 30/124/30 34/126/34 33/127/33
f 29/125/29 30/124/30 33/127/33
f 34/126/34 38/128/38 33/127/33
f 38/128/38 41/41/41 37/43/37
f 41/41/41 45/129/45 42/42/42
f 45/129/45 49/130/49 46/131/46
f 49/130/49 54/132/54 50/133/50
f 54/132/54 58/134/58 50/133/50
f 50/133/50 58/134/58 53/135/53
f 58/134/58 61/136/61 53/135/53
f 61/136/61 1/137/1 57/138/57
f 1/137/1 66/139/66 62/140/62
f 1/137/1 62/140/62 57/138/57
f 61/136/61 57/138/57 53/135/53
f 38/128/38 37/43/37 33/127/33
f 45/129/45 46/131/46 42/42/42
f 22/120/22 25/123/25 21/121/21
f 25/123/25 26/122/26 29/125/29
f 5/113/5 14/116/14 9/114/9
f 9/114/9 6/110/6 3/112/3
f 49/130/49 50/133/50 46/131/46
f 21/121/21 18/118/18 17/119/17
f 68/44/66 6/141/6 8/45/8
f 8/45/8 6/141/6 9/47/9
f 14/49/14 16/51/16 12/48/12
f 18/50/18 20/53/20 16/51/16
f 18/50/18 21/55/21 24/52/24
f 27/54/27 24/52/24 21/55/21
f 25/56/25 29/58/29 32/57/32
f 29/58/29 33/60/33 36/59/36
f 33/60/33 37/63/37 39/61/39
f 43/62/43 39/61/39 37/63/37
f 42/64/42 46/66/46 48/65/48
f 46/66/46 50/69/50 52/67/52
f 56/68/56 52/67/52 50/69/50
f 60/71/60 56/68/56 53/70/53
f 64/73/64 60/71/60 57/72/57
f 62/74/62 66/142/66 65/75/65
