# Blender 4.2.3 LTS
# www.blender.org
mtllib Tube.mtl
o 円
v 0.000000 1.000000 1.000000
v -0.195090 0.980785 1.000000
v -0.382683 0.923880 1.000000
v -0.555570 0.831470 1.000000
v -0.707107 0.707107 1.000000
v -0.831470 0.555570 1.000000
v -0.923880 0.382683 1.000000
v -0.980785 0.195090 1.000000
v -1.000000 0.000000 1.000000
v -0.980785 -0.195090 1.000000
v -0.923880 -0.382683 1.000000
v -0.831470 -0.555570 1.000000
v -0.707107 -0.707107 1.000000
v -0.555570 -0.831470 1.000000
v -0.382683 -0.923880 1.000000
v -0.195090 -0.980785 1.000000
v 0.000000 -1.000000 1.000000
v 0.195090 -0.980785 1.000000
v 0.382683 -0.923880 1.000000
v 0.555570 -0.831470 1.000000
v 0.707107 -0.707107 1.000000
v 0.831470 -0.555570 1.000000
v 0.923880 -0.382683 1.000000
v 0.980785 -0.195090 1.000000
v 1.000000 0.000000 1.000000
v 0.980785 0.195090 1.000000
v 0.923880 0.382683 1.000000
v 0.831470 0.555570 1.000000
v 0.707107 0.707107 1.000000
v 0.555570 0.831470 1.000000
v 0.382683 0.923880 1.000000
v 0.195090 0.980785 1.000000
v 0.000000 1.000000 -1.000000
v -0.195090 0.980785 -1.000000
v -0.382683 0.923880 -1.000000
v -0.555570 0.831470 -1.000000
v -0.707107 0.707107 -1.000000
v -0.831470 0.555570 -1.000000
v -0.923880 0.382683 -1.000000
v -0.980785 0.195090 -1.000000
v -1.000000 0.000000 -1.000000
v -0.980785 -0.195090 -1.000000
v -0.923880 -0.382683 -1.000000
v -0.831470 -0.555570 -1.000000
v -0.707107 -0.707107 -1.000000
v -0.555570 -0.831470 -1.000000
v -0.382683 -0.923880 -1.000000
v -0.195090 -0.980785 -1.000000
v 0.000000 -1.000000 -1.000000
v 0.195090 -0.980785 -1.000000
v 0.382683 -0.923880 -1.000000
v 0.555570 -0.831470 -1.000000
v 0.707107 -0.707107 -1.000000
v 0.831470 -0.555570 -1.000000
v 0.923880 -0.382683 -1.000000
v 0.980785 -0.195090 -1.000000
v 1.000000 0.000000 -1.000000
v 0.980785 0.195090 -1.000000
v 0.923880 0.382683 -1.000000
v 0.831470 0.555570 -1.000000
v 0.707107 0.707107 -1.000000
v 0.555570 0.831470 -1.000000
v 0.382683 0.923880 -1.000000
v 0.195090 0.980785 -1.000000
vn -0.9569 0.2903 -0.0000
vn 0.7730 -0.6344 -0.0000
vn -0.9952 0.0980 -0.0000
vn 0.8819 -0.4714 -0.0000
vn -0.9952 -0.0980 -0.0000
vn 0.9569 -0.2903 -0.0000
vn -0.9569 -0.2903 -0.0000
vn 0.9952 -0.0980 -0.0000
vn -0.8819 -0.4714 -0.0000
vn 0.9952 0.0980 -0.0000
vn -0.7730 -0.6344 -0.0000
vn 0.9569 0.2903 -0.0000
vn -0.6344 -0.7730 -0.0000
vn 0.8819 0.4714 -0.0000
vn -0.4714 -0.8819 -0.0000
vn -0.0980 0.9952 -0.0000
vn 0.7730 0.6344 -0.0000
vn -0.2903 -0.9569 -0.0000
vn -0.2903 0.9569 -0.0000
vn 0.6344 0.7730 -0.0000
vn -0.0980 -0.9952 -0.0000
vn -0.4714 0.8819 -0.0000
vn 0.4714 0.8819 -0.0000
vn 0.0980 -0.9952 -0.0000
vn -0.6344 0.7730 -0.0000
vn 0.2903 0.9569 -0.0000
vn 0.2903 -0.9569 -0.0000
vn -0.7730 0.6344 -0.0000
vn 0.0980 0.9952 -0.0000
vn 0.4714 -0.8819 -0.0000
vn -0.8819 0.4714 -0.0000
vn 0.6344 -0.7730 -0.0000
vt 0.000000 0.000000
s 0
usemtl マテリアル.001
f 7/1/1 40/1/1 8/1/1
f 21/1/2 54/1/2 22/1/2
f 8/1/3 41/1/3 9/1/3
f 22/1/4 55/1/4 23/1/4
f 9/1/5 42/1/5 10/1/5
f 23/1/6 56/1/6 24/1/6
f 10/1/7 43/1/7 11/1/7
f 24/1/8 57/1/8 25/1/8
f 11/1/9 44/1/9 12/1/9
f 25/1/10 58/1/10 26/1/10
f 12/1/11 45/1/11 13/1/11
f 26/1/12 59/1/12 27/1/12
f 13/1/13 46/1/13 14/1/13
f 27/1/14 60/1/14 28/1/14
f 14/1/15 47/1/15 15/1/15
f 1/1/16 34/1/16 2/1/16
f 28/1/17 61/1/17 29/1/17
f 15/1/18 48/1/18 16/1/18
f 2/1/19 35/1/19 3/1/19
f 29/1/20 62/1/20 30/1/20
f 16/1/21 49/1/21 17/1/21
f 3/1/22 36/1/22 4/1/22
f 30/1/23 63/1/23 31/1/23
f 17/1/24 50/1/24 18/1/24
f 4/1/25 37/1/25 5/1/25
f 31/1/26 64/1/26 32/1/26
f 18/1/27 51/1/27 19/1/27
f 5/1/28 38/1/28 6/1/28
f 32/1/29 33/1/29 1/1/29
f 19/1/30 52/1/30 20/1/30
f 6/1/31 39/1/31 7/1/31
f 20/1/32 53/1/32 21/1/32
f 7/1/1 39/1/1 40/1/1
f 21/1/2 53/1/2 54/1/2
f 8/1/3 40/1/3 41/1/3
f 22/1/4 54/1/4 55/1/4
f 9/1/5 41/1/5 42/1/5
f 23/1/6 55/1/6 56/1/6
f 10/1/7 42/1/7 43/1/7
f 24/1/8 56/1/8 57/1/8
f 11/1/9 43/1/9 44/1/9
f 25/1/10 57/1/10 58/1/10
f 12/1/11 44/1/11 45/1/11
f 26/1/12 58/1/12 59/1/12
f 13/1/13 45/1/13 46/1/13
f 27/1/14 59/1/14 60/1/14
f 14/1/15 46/1/15 47/1/15
f 1/1/16 33/1/16 34/1/16
f 28/1/17 60/1/17 61/1/17
f 15/1/18 47/1/18 48/1/18
f 2/1/19 34/1/19 35/1/19
f 29/1/20 61/1/20 62/1/20
f 16/1/21 48/1/21 49/1/21
f 3/1/22 35/1/22 36/1/22
f 30/1/23 62/1/23 63/1/23
f 17/1/24 49/1/24 50/1/24
f 4/1/25 36/1/25 37/1/25
f 31/1/26 63/1/26 64/1/26
f 18/1/27 50/1/27 51/1/27
f 5/1/28 37/1/28 38/1/28
f 32/1/29 64/1/29 33/1/29
f 19/1/30 51/1/30 52/1/30
f 6/1/31 38/1/31 39/1/31
f 20/1/32 52/1/32 53/1/32
