# Blender 4.2.3 LTS
# www.blender.org
mtllib Home.mtl
o 立方体.004
v -3.526916 -1.007984 -4.937754
v -3.526916 2.697788 -4.937754
v -3.526916 -1.007984 -6.232516
v -3.526916 2.697788 -6.232516
v -2.232153 -1.007984 -4.937754
v -2.232153 2.164768 -4.937754
v -2.232153 -1.007984 -6.232516
v -2.232153 2.164768 -6.232516
v -1.885152 4.908727 -4.937754
v -1.885152 4.908727 -6.232516
v -1.137018 3.686184 -6.232516
v -1.137018 3.686184 -4.937754
v 0.902369 5.247343 -4.937754
v 0.902369 5.247343 -6.232516
v 0.856644 3.911392 -6.232516
v 0.856644 3.911392 -4.937754
v 4.211756 1.000000 -7.256214
v 4.211756 -1.000000 -7.256214
v 4.211756 1.000000 7.256214
v 4.211756 -1.000000 7.256214
v 2.211756 1.000000 -7.256214
v 2.211756 -1.000000 -7.256214
v 2.211756 1.000000 7.256214
v 2.211756 -1.000000 7.256214
v -3.526916 -1.007984 0.647381
v -3.526916 2.697788 0.647381
v -3.526916 -1.007984 -0.647381
v -3.526916 2.697788 -0.647381
v -2.232154 -1.007984 0.647381
v -2.232154 2.164768 0.647381
v -2.232154 -1.007984 -0.647381
v -2.232154 2.164768 -0.647381
v -1.885152 4.908727 0.647381
v -1.885152 4.908727 -0.647381
v -1.137019 3.686184 -0.647381
v -1.137019 3.686184 0.647381
v 0.902368 5.247343 0.647381
v 0.902368 5.247343 -0.647381
v 0.856643 3.911392 -0.647381
v 0.856643 3.911392 0.647381
v -3.526916 -1.007984 -2.092113
v -3.526916 2.697788 -2.092113
v -3.526916 -1.007984 -3.386874
v -3.526916 2.697788 -3.386874
v -2.232154 -1.007984 -2.092113
v -2.232154 2.164768 -2.092113
v -2.232154 -1.007984 -3.386874
v -2.232154 2.164768 -3.386874
v -1.885152 4.908727 -2.092113
v -1.885152 4.908727 -3.386874
v -1.137019 3.686184 -3.386874
v -1.137019 3.686184 -2.092113
v 0.902368 5.247343 -2.092113
v 0.902368 5.247343 -3.386874
v 0.856643 3.911392 -3.386874
v 0.856643 3.911392 -2.092113
v -3.526916 -1.007984 3.458162
v -3.526916 2.697788 3.458162
v -3.526916 -1.007984 2.163400
v -3.526916 2.697788 2.163400
v -2.232154 -1.007984 3.458162
v -2.232154 2.164768 3.458162
v -2.232154 -1.007984 2.163400
v -2.232154 2.164768 2.163400
v -1.885152 4.908727 3.458162
v -1.885152 4.908727 2.163400
v -1.137019 3.686184 2.163400
v -1.137019 3.686184 3.458162
v 0.902368 5.247343 3.458162
v 0.902368 5.247343 2.163400
v 0.856643 3.911392 2.163400
v 0.856643 3.911392 3.458162
v -3.526916 -1.007984 6.270320
v -3.526916 2.697788 6.270320
v -3.526916 -1.007984 4.975558
v -3.526916 2.697788 4.975558
v -2.232154 -1.007984 6.270320
v -2.232154 2.164768 6.270320
v -2.232154 -1.007984 4.975558
v -2.232154 2.164768 4.975558
v -1.885152 4.908727 6.270320
v -1.885152 4.908727 4.975558
v -1.137019 3.686184 4.975558
v -1.137019 3.686184 6.270320
v 0.902368 5.247343 6.270320
v 0.902368 5.247343 4.975558
v 0.856643 3.911392 4.975558
v 0.856643 3.911392 6.270320
vn -1.0000 -0.0000 -0.0000
vn -0.0000 -0.0000 -1.0000
vn 1.0000 -0.0000 -0.0000
vn -0.0000 -0.0000 1.0000
vn -0.0000 -1.0000 -0.0000
vn 0.8116 -0.5842 -0.0000
vn -0.8029 0.5962 -0.0000
vn 0.9994 -0.0342 -0.0000
vn 0.1122 -0.9937 -0.0000
vn -0.1206 0.9927 -0.0000
vn -0.0000 1.0000 -0.0000
vt 0.625000 0.000000
vt 0.375000 0.250000
vt 0.375000 0.000000
vt 0.625000 0.500000
vt 0.375000 0.500000
vt 0.375000 0.750000
vt 0.625000 0.750000
vt 0.375000 1.000000
vt 0.125000 0.750000
vt 0.125000 0.500000
vt 0.625000 0.250000
vt 0.625000 1.000000
vt 0.875000 0.500000
vt 0.000000 0.000000
vt 0.875000 0.750000
s 0
usemtl Material
f 2/1/1 3/2/1 1/3/1
f 3/2/2 8/4/2 7/5/2
f 8/4/3 5/6/3 7/5/3
f 6/7/4 1/8/4 5/6/4
f 7/5/5 1/9/5 3/10/5
f 4/11/2 11/4/2 8/4/2
f 12/7/4 13/12/4 9/12/4
f 8/4/6 12/7/6 6/7/6
f 2/1/7 10/11/7 4/11/7
f 2/12/4 12/7/4 9/12/4
f 14/13/8 16/7/8 15/4/8
f 11/4/2 14/11/2 15/4/2
f 11/4/9 16/7/9 12/7/9
f 9/1/10 14/11/10 10/11/10
f 21/14/11 19/14/11 17/14/11
f 19/14/4 24/14/4 20/14/4
f 23/14/1 22/14/1 24/14/1
f 18/14/5 24/14/5 22/14/5
f 17/14/3 20/14/3 18/14/3
f 21/14/2 18/14/2 22/14/2
f 26/1/1 27/2/1 25/3/1
f 27/2/2 32/4/2 31/5/2
f 32/4/3 29/6/3 31/5/3
f 30/7/4 25/8/4 29/6/4
f 31/5/5 25/9/5 27/10/5
f 28/11/2 35/4/2 32/4/2
f 36/7/4 37/12/4 33/12/4
f 32/4/6 36/7/6 30/7/6
f 26/1/7 34/11/7 28/11/7
f 26/12/4 36/7/4 33/12/4
f 38/13/8 40/7/8 39/4/8
f 35/4/2 38/11/2 39/4/2
f 35/4/9 40/7/9 36/7/9
f 33/1/10 38/11/10 34/11/10
f 42/1/1 43/2/1 41/3/1
f 43/2/2 48/4/2 47/5/2
f 48/4/3 45/6/3 47/5/3
f 46/7/4 41/8/4 45/6/4
f 47/5/5 41/9/5 43/10/5
f 44/11/2 51/4/2 48/4/2
f 52/7/4 53/12/4 49/12/4
f 48/4/6 52/7/6 46/7/6
f 42/1/7 50/11/7 44/11/7
f 42/12/4 52/7/4 49/12/4
f 54/13/8 56/7/8 55/4/8
f 51/4/2 54/11/2 55/4/2
f 51/4/9 56/7/9 52/7/9
f 49/1/10 54/11/10 50/11/10
f 58/1/1 59/2/1 57/3/1
f 59/2/2 64/4/2 63/5/2
f 64/4/3 61/6/3 63/5/3
f 62/7/4 57/8/4 61/6/4
f 63/5/5 57/9/5 59/10/5
f 60/11/2 67/4/2 64/4/2
f 68/7/4 69/12/4 65/12/4
f 64/4/6 68/7/6 62/7/6
f 58/1/7 66/11/7 60/11/7
f 58/12/4 68/7/4 65/12/4
f 70/13/8 72/7/8 71/4/8
f 67/4/2 70/11/2 71/4/2
f 67/4/9 72/7/9 68/7/9
f 65/1/10 70/11/10 66/11/10
f 74/1/1 75/2/1 73/3/1
f 75/2/2 80/4/2 79/5/2
f 80/4/3 77/6/3 79/5/3
f 78/7/4 73/8/4 77/6/4
f 79/5/5 73/9/5 75/10/5
f 76/11/2 83/4/2 80/4/2
f 84/7/4 85/12/4 81/12/4
f 80/4/6 84/7/6 78/7/6
f 74/1/7 82/11/7 76/11/7
f 74/12/4 84/7/4 81/12/4
f 86/13/8 88/7/8 87/4/8
f 83/4/2 86/11/2 87/4/2
f 83/4/9 88/7/9 84/7/9
f 81/1/10 86/11/10 82/11/10
f 2/1/1 4/11/1 3/2/1
f 3/2/2 4/11/2 8/4/2
f 8/4/3 6/7/3 5/6/3
f 6/7/4 2/12/4 1/8/4
f 7/5/5 5/6/5 1/9/5
f 4/11/2 10/11/2 11/4/2
f 12/7/4 16/7/4 13/12/4
f 8/4/6 11/4/6 12/7/6
f 2/1/7 9/1/7 10/11/7
f 2/12/4 6/7/4 12/7/4
f 14/13/8 13/15/8 16/7/8
f 11/4/2 10/11/2 14/11/2
f 11/4/9 15/4/9 16/7/9
f 9/1/10 13/1/10 14/11/10
f 21/14/11 23/14/11 19/14/11
f 19/14/4 23/14/4 24/14/4
f 23/14/1 21/14/1 22/14/1
f 18/14/5 20/14/5 24/14/5
f 17/14/3 19/14/3 20/14/3
f 21/14/2 17/14/2 18/14/2
f 26/1/1 28/11/1 27/2/1
f 27/2/2 28/11/2 32/4/2
f 32/4/3 30/7/3 29/6/3
f 30/7/4 26/12/4 25/8/4
f 31/5/5 29/6/5 25/9/5
f 28/11/2 34/11/2 35/4/2
f 36/7/4 40/7/4 37/12/4
f 32/4/6 35/4/6 36/7/6
f 26/1/7 33/1/7 34/11/7
f 26/12/4 30/7/4 36/7/4
f 38/13/8 37/15/8 40/7/8
f 35/4/2 34/11/2 38/11/2
f 35/4/9 39/4/9 40/7/9
f 33/1/10 37/1/10 38/11/10
f 42/1/1 44/11/1 43/2/1
f 43/2/2 44/11/2 48/4/2
f 48/4/3 46/7/3 45/6/3
f 46/7/4 42/12/4 41/8/4
f 47/5/5 45/6/5 41/9/5
f 44/11/2 50/11/2 51/4/2
f 52/7/4 56/7/4 53/12/4
f 48/4/6 51/4/6 52/7/6
f 42/1/7 49/1/7 50/11/7
f 42/12/4 46/7/4 52/7/4
f 54/13/8 53/15/8 56/7/8
f 51/4/2 50/11/2 54/11/2
f 51/4/9 55/4/9 56/7/9
f 49/1/10 53/1/10 54/11/10
f 58/1/1 60/11/1 59/2/1
f 59/2/2 60/11/2 64/4/2
f 64/4/3 62/7/3 61/6/3
f 62/7/4 58/12/4 57/8/4
f 63/5/5 61/6/5 57/9/5
f 60/11/2 66/11/2 67/4/2
f 68/7/4 72/7/4 69/12/4
f 64/4/6 67/4/6 68/7/6
f 58/1/7 65/1/7 66/11/7
f 58/12/4 62/7/4 68/7/4
f 70/13/8 69/15/8 72/7/8
f 67/4/2 66/11/2 70/11/2
f 67/4/9 71/4/9 72/7/9
f 65/1/10 69/1/10 70/11/10
f 74/1/1 76/11/1 75/2/1
f 75/2/2 76/11/2 80/4/2
f 80/4/3 78/7/3 77/6/3
f 78/7/4 74/12/4 73/8/4
f 79/5/5 77/6/5 73/9/5
f 76/11/2 82/11/2 83/4/2
f 84/7/4 88/7/4 85/12/4
f 80/4/6 83/4/6 84/7/6
f 74/1/7 81/1/7 82/11/7
f 74/12/4 78/7/4 84/7/4
f 86/13/8 85/15/8 88/7/8
f 83/4/2 82/11/2 86/11/2
f 83/4/9 87/4/9 88/7/9
f 81/1/10 85/1/10 86/11/10
