# Blender 4.2.3 LTS
# www.blender.org
mtllib EnemyStartedAnchor.mtl
o Cube
v 0.000000 1.370787 -0.564821
v 0.000000 -1.000000 -0.349857
v 0.564821 1.370787 0.000000
v 0.349857 -1.000000 0.000000
v -0.564821 1.370787 0.000000
v -0.349857 -1.000000 0.000000
v 0.000000 1.370787 0.564821
v 0.000000 -1.000000 0.349857
v 1.414214 1.000000 0.000000
v 0.000000 1.000000 1.414214
v 0.000000 1.000000 -1.414214
v -1.414214 1.000000 0.000000
vn -0.0000 1.0000 -0.0000
vn 0.6618 -0.3522 0.6618
vn -0.6618 -0.3522 0.6618
vn -0.0000 -1.0000 -0.0000
vn 0.6618 -0.3522 -0.6618
vn -0.6618 -0.3522 -0.6618
vn 0.3714 0.8509 0.3714
vn 0.3714 0.8509 -0.3714
vn -0.3714 0.8509 0.3714
vn -0.3714 0.8509 -0.3714
vt 0.853536 0.521464
vt 0.646464 0.728536
vt 0.646464 0.521464
vt 0.375000 0.750000
vt 0.625000 1.000000
vt 0.375000 1.000000
vt 0.375000 0.000000
vt 0.625000 0.250000
vt 0.375000 0.250000
vt 0.375000 0.500000
vt 0.125000 0.750000
vt 0.125000 0.500000
vt 0.625000 0.750000
vt 0.625000 0.500000
vt 0.853536 0.728536
vt 0.875000 0.750000
vt 0.875000 0.500000
vt 0.625000 0.000000
s 0
usemtl Material
f 5/1/1 3/2/1 1/3/1
f 4/4/2 10/5/2 8/6/2
f 8/7/3 12/8/3 6/9/3
f 2/10/4 8/11/4 6/12/4
f 2/10/5 9/13/5 4/4/5
f 6/9/6 11/14/6 2/10/6
f 7/15/7 9/13/7 3/2/7
f 3/2/8 11/14/8 1/3/8
f 5/1/9 10/16/9 7/15/9
f 1/3/10 12/17/10 5/1/10
f 5/1/1 7/15/1 3/2/1
f 4/4/2 9/13/2 10/5/2
f 8/7/3 10/18/3 12/8/3
f 2/10/4 4/4/4 8/11/4
f 2/10/5 11/14/5 9/13/5
f 6/9/6 12/8/6 11/14/6
f 7/15/7 10/16/7 9/13/7
f 3/2/8 9/13/8 11/14/8
f 5/1/9 12/17/9 10/16/9
f 1/3/10 11/14/10 12/17/10
