{
	"asset":{
		"generator":"Khronos glTF Blender I/O v4.2.57",
		"version":"2.0"
	},
	"scene":0,
	"scenes":[
		{
			"name":"Scene",
			"nodes":[
				10
			]
		}
	],
	"nodes":[
		{
			"name":"\u30dc\u30fc\u30f3",
			"rotation":[
				0.3735746443271637,
				0.6003684997558594,
				-0.39302703738212585,
				0.5878175497055054
			],
			"scale":[
				0.9999998807907104,
				0.9999998807907104,
				1
			],
			"translation":[
				-0.06795956194400787,
				0.32664304971694946,
				2.970606871599557e-09
			]
		},
		{
			"name":"\u30dc\u30fc\u30f3.002",
			"rotation":[
				0.0015304562402889132,
				-4.25785401603207e-05,
				0.029665494337677956,
				0.999558687210083
			],
			"scale":[
				1.0000001192092896,
				1.0000001192092896,
				1
			],
			"translation":[
				-3.637978807091713e-10,
				0.9423606395721436,
				-4.685716703534126e-09
			]
		},
		{
			"children":[
				1
			],
			"name":"\u30dc\u30fc\u30f3.001",
			"rotation":[
				-0.5203782320022583,
				0.4794287085533142,
				0.4903983175754547,
				0.5087869167327881
			],
			"scale":[
				0.9999998807907104,
				0.9999999403953552,
				1
			],
			"translation":[
				-0.06795956194400787,
				0.32664304971694946,
				2.970606871599557e-09
			]
		},
		{
			"name":"\u30dc\u30fc\u30f3.005",
			"rotation":[
				-3.81116649350588e-09,
				-7.538005775131751e-09,
				-1.8662333900465455e-09,
				1
			],
			"scale":[
				1,
				0.9999999403953552,
				1
			],
			"translation":[
				-2.648448571562767e-09,
				1.2876147031784058,
				1.6566445992793888e-09
			]
		},
		{
			"children":[
				3
			],
			"name":"\u30dc\u30fc\u30f3.004",
			"rotation":[
				6.385221240634564e-10,
				1.1190309123776387e-08,
				4.196946346013419e-09,
				1
			],
			"scale":[
				1,
				0.9999999403953552,
				1
			],
			"translation":[
				-1.3812950783176348e-09,
				1.636521816253662,
				2.797378328978084e-09
			]
		},
		{
			"children":[
				4
			],
			"name":"\u30dc\u30fc\u30f3.003",
			"rotation":[
				-0.00785849429666996,
				0.7067018151283264,
				0.7074243426322937,
				0.00784725695848465
			],
			"scale":[
				0.9999999403953552,
				0.9999999403953552,
				1
			],
			"translation":[
				-0.06795956194400787,
				0.32664304971694946,
				2.970606871599557e-09
			]
		},
		{
			"name":"\u30dc\u30fc\u30f3.008",
			"rotation":[
				-3.7196592472810153e-09,
				-5.595770957711466e-09,
				-9.150840085681011e-10,
				1
			],
			"translation":[
				2.467844595344104e-09,
				1.2547821998596191,
				5.687525117537007e-09
			]
		},
		{
			"children":[
				6
			],
			"name":"\u30dc\u30fc\u30f3.007",
			"rotation":[
				1.858925458009253e-09,
				3.7231560057193747e-09,
				-3.415568661235824e-10,
				1
			],
			"translation":[
				-6.458269474762801e-09,
				1.694391131401062,
				1.6526882973266765e-08
			]
		},
		{
			"children":[
				7
			],
			"name":"\u30dc\u30fc\u30f3.006",
			"rotation":[
				-0.7195724844932556,
				-0.0006969968671910465,
				-0.000722210097592324,
				0.6944165825843811
			],
			"translation":[
				-0.06795956194400787,
				0.32664304971694946,
				2.970606871599557e-09
			]
		},
		{
			"mesh":0,
			"name":"\u7acb\u65b9\u4f53",
			"skin":0
		},
		{
			"children":[
				9,
				0,
				2,
				5,
				8
			],
			"name":"\u30a2\u30fc\u30de\u30c1\u30e5\u30a2"
		}
	],
	"animations":[
		{
			"channels":[
				{
					"sampler":0,
					"target":{
						"node":0,
						"path":"translation"
					}
				},
				{
					"sampler":1,
					"target":{
						"node":0,
						"path":"rotation"
					}
				},
				{
					"sampler":2,
					"target":{
						"node":0,
						"path":"scale"
					}
				},
				{
					"sampler":3,
					"target":{
						"node":2,
						"path":"translation"
					}
				},
				{
					"sampler":4,
					"target":{
						"node":2,
						"path":"rotation"
					}
				},
				{
					"sampler":5,
					"target":{
						"node":2,
						"path":"scale"
					}
				},
				{
					"sampler":6,
					"target":{
						"node":1,
						"path":"translation"
					}
				},
				{
					"sampler":7,
					"target":{
						"node":1,
						"path":"rotation"
					}
				},
				{
					"sampler":8,
					"target":{
						"node":1,
						"path":"scale"
					}
				},
				{
					"sampler":9,
					"target":{
						"node":5,
						"path":"translation"
					}
				},
				{
					"sampler":10,
					"target":{
						"node":5,
						"path":"rotation"
					}
				},
				{
					"sampler":11,
					"target":{
						"node":5,
						"path":"scale"
					}
				},
				{
					"sampler":12,
					"target":{
						"node":4,
						"path":"translation"
					}
				},
				{
					"sampler":13,
					"target":{
						"node":4,
						"path":"rotation"
					}
				},
				{
					"sampler":14,
					"target":{
						"node":4,
						"path":"scale"
					}
				},
				{
					"sampler":15,
					"target":{
						"node":3,
						"path":"translation"
					}
				},
				{
					"sampler":16,
					"target":{
						"node":3,
						"path":"rotation"
					}
				},
				{
					"sampler":17,
					"target":{
						"node":3,
						"path":"scale"
					}
				},
				{
					"sampler":18,
					"target":{
						"node":8,
						"path":"translation"
					}
				},
				{
					"sampler":19,
					"target":{
						"node":8,
						"path":"rotation"
					}
				},
				{
					"sampler":20,
					"target":{
						"node":8,
						"path":"scale"
					}
				},
				{
					"sampler":21,
					"target":{
						"node":7,
						"path":"translation"
					}
				},
				{
					"sampler":22,
					"target":{
						"node":7,
						"path":"rotation"
					}
				},
				{
					"sampler":23,
					"target":{
						"node":7,
						"path":"scale"
					}
				},
				{
					"sampler":24,
					"target":{
						"node":6,
						"path":"translation"
					}
				},
				{
					"sampler":25,
					"target":{
						"node":6,
						"path":"rotation"
					}
				},
				{
					"sampler":26,
					"target":{
						"node":6,
						"path":"scale"
					}
				}
			],
			"name":"\u30a2\u30fc\u30de\u30c1\u30e5\u30a2\u30a2\u30af\u30b7\u30e7\u30f3",
			"samplers":[
				{
					"input":7,
					"interpolation":"LINEAR",
					"output":8
				},
				{
					"input":7,
					"interpolation":"LINEAR",
					"output":9
				},
				{
					"input":10,
					"interpolation":"STEP",
					"output":11
				},
				{
					"input":7,
					"interpolation":"LINEAR",
					"output":12
				},
				{
					"input":7,
					"interpolation":"LINEAR",
					"output":13
				},
				{
					"input":10,
					"interpolation":"STEP",
					"output":14
				},
				{
					"input":10,
					"interpolation":"STEP",
					"output":15
				},
				{
					"input":7,
					"interpolation":"LINEAR",
					"output":16
				},
				{
					"input":10,
					"interpolation":"STEP",
					"output":17
				},
				{
					"input":7,
					"interpolation":"LINEAR",
					"output":18
				},
				{
					"input":7,
					"interpolation":"LINEAR",
					"output":19
				},
				{
					"input":10,
					"interpolation":"STEP",
					"output":20
				},
				{
					"input":10,
					"interpolation":"STEP",
					"output":21
				},
				{
					"input":7,
					"interpolation":"LINEAR",
					"output":22
				},
				{
					"input":10,
					"interpolation":"STEP",
					"output":23
				},
				{
					"input":10,
					"interpolation":"STEP",
					"output":24
				},
				{
					"input":7,
					"interpolation":"LINEAR",
					"output":25
				},
				{
					"input":10,
					"interpolation":"STEP",
					"output":26
				},
				{
					"input":7,
					"interpolation":"LINEAR",
					"output":27
				},
				{
					"input":7,
					"interpolation":"LINEAR",
					"output":28
				},
				{
					"input":10,
					"interpolation":"STEP",
					"output":29
				},
				{
					"input":10,
					"interpolation":"STEP",
					"output":30
				},
				{
					"input":7,
					"interpolation":"LINEAR",
					"output":31
				},
				{
					"input":10,
					"interpolation":"STEP",
					"output":32
				},
				{
					"input":10,
					"interpolation":"STEP",
					"output":33
				},
				{
					"input":7,
					"interpolation":"LINEAR",
					"output":34
				},
				{
					"input":10,
					"interpolation":"STEP",
					"output":35
				}
			]
		}
	],
	"materials":[
		{
			"doubleSided":true,
			"name":"\u30de\u30c6\u30ea\u30a2\u30eb",
			"pbrMetallicRoughness":{
				"baseColorTexture":{
					"index":0
				},
				"metallicFactor":0,
				"roughnessFactor":0.5
			}
		}
	],
	"meshes":[
		{
			"name":"\u7acb\u65b9\u4f53",
			"primitives":[
				{
					"attributes":{
						"POSITION":0,
						"NORMAL":1,
						"TEXCOORD_0":2,
						"JOINTS_0":3,
						"WEIGHTS_0":4
					},
					"indices":5,
					"material":0
				}
			]
		}
	],
	"textures":[
		{
			"sampler":0,
			"source":0
		}
	],
	"images":[
		{
			"mimeType":"image/png",
			"name":"Bird",
			"uri":"Bird.png"
		}
	],
	"skins":[
		{
			"inverseBindMatrices":6,
			"joints":[
				0,
				2,
				1,
				5,
				4,
				3,
				8,
				7,
				6
			],
			"name":"\u30a2\u30fc\u30de\u30c1\u30e5\u30a2"
		}
	],
	"accessors":[
		{
			"bufferView":0,
			"componentType":5126,
			"count":1563,
			"max":[
				1.902038812637329,
				2.5147550106048584,
				4.153260707855225
			],
			"min":[
				-2.1839637756347656,
				-1.0011779069900513,
				-4.153260707855225
			],
			"type":"VEC3"
		},
		{
			"bufferView":1,
			"componentType":5126,
			"count":1563,
			"type":"VEC3"
		},
		{
			"bufferView":2,
			"componentType":5126,
			"count":1563,
			"type":"VEC2"
		},
		{
			"bufferView":3,
			"componentType":5121,
			"count":1563,
			"type":"VEC4"
		},
		{
			"bufferView":4,
			"componentType":5126,
			"count":1563,
			"type":"VEC4"
		},
		{
			"bufferView":5,
			"componentType":5123,
			"count":2127,
			"type":"SCALAR"
		},
		{
			"bufferView":6,
			"componentType":5126,
			"count":9,
			"type":"MAT4"
		},
		{
			"bufferView":7,
			"componentType":5126,
			"count":101,
			"max":[
				4.166666666666667
			],
			"min":[
				0
			],
			"type":"SCALAR"
		},
		{
			"bufferView":8,
			"componentType":5126,
			"count":101,
			"type":"VEC3"
		},
		{
			"bufferView":9,
			"componentType":5126,
			"count":101,
			"type":"VEC4"
		},
		{
			"bufferView":10,
			"componentType":5126,
			"count":2,
			"max":[
				4.166666666666667
			],
			"min":[
				0
			],
			"type":"SCALAR"
		},
		{
			"bufferView":11,
			"componentType":5126,
			"count":2,
			"type":"VEC3"
		},
		{
			"bufferView":12,
			"componentType":5126,
			"count":101,
			"type":"VEC3"
		},
		{
			"bufferView":13,
			"componentType":5126,
			"count":101,
			"type":"VEC4"
		},
		{
			"bufferView":14,
			"componentType":5126,
			"count":2,
			"type":"VEC3"
		},
		{
			"bufferView":15,
			"componentType":5126,
			"count":2,
			"type":"VEC3"
		},
		{
			"bufferView":16,
			"componentType":5126,
			"count":101,
			"type":"VEC4"
		},
		{
			"bufferView":17,
			"componentType":5126,
			"count":2,
			"type":"VEC3"
		},
		{
			"bufferView":18,
			"componentType":5126,
			"count":101,
			"type":"VEC3"
		},
		{
			"bufferView":19,
			"componentType":5126,
			"count":101,
			"type":"VEC4"
		},
		{
			"bufferView":20,
			"componentType":5126,
			"count":2,
			"type":"VEC3"
		},
		{
			"bufferView":21,
			"componentType":5126,
			"count":2,
			"type":"VEC3"
		},
		{
			"bufferView":22,
			"componentType":5126,
			"count":101,
			"type":"VEC4"
		},
		{
			"bufferView":23,
			"componentType":5126,
			"count":2,
			"type":"VEC3"
		},
		{
			"bufferView":24,
			"componentType":5126,
			"count":2,
			"type":"VEC3"
		},
		{
			"bufferView":25,
			"componentType":5126,
			"count":101,
			"type":"VEC4"
		},
		{
			"bufferView":26,
			"componentType":5126,
			"count":2,
			"type":"VEC3"
		},
		{
			"bufferView":27,
			"componentType":5126,
			"count":101,
			"type":"VEC3"
		},
		{
			"bufferView":28,
			"componentType":5126,
			"count":101,
			"type":"VEC4"
		},
		{
			"bufferView":29,
			"componentType":5126,
			"count":2,
			"type":"VEC3"
		},
		{
			"bufferView":30,
			"componentType":5126,
			"count":2,
			"type":"VEC3"
		},
		{
			"bufferView":31,
			"componentType":5126,
			"count":101,
			"type":"VEC4"
		},
		{
			"bufferView":32,
			"componentType":5126,
			"count":2,
			"type":"VEC3"
		},
		{
			"bufferView":33,
			"componentType":5126,
			"count":2,
			"type":"VEC3"
		},
		{
			"bufferView":34,
			"componentType":5126,
			"count":101,
			"type":"VEC4"
		},
		{
			"bufferView":35,
			"componentType":5126,
			"count":2,
			"type":"VEC3"
		}
	],
	"bufferViews":[
		{
			"buffer":0,
			"byteLength":18756,
			"byteOffset":0,
			"target":34962
		},
		{
			"buffer":0,
			"byteLength":18756,
			"byteOffset":18756,
			"target":34962
		},
		{
			"buffer":0,
			"byteLength":12504,
			"byteOffset":37512,
			"target":34962
		},
		{
			"buffer":0,
			"byteLength":6252,
			"byteOffset":50016,
			"target":34962
		},
		{
			"buffer":0,
			"byteLength":25008,
			"byteOffset":56268,
			"target":34962
		},
		{
			"buffer":0,
			"byteLength":4254,
			"byteOffset":81276,
			"target":34963
		},
		{
			"buffer":0,
			"byteLength":576,
			"byteOffset":85532
		},
		{
			"buffer":0,
			"byteLength":404,
			"byteOffset":86108
		},
		{
			"buffer":0,
			"byteLength":1212,
			"byteOffset":86512
		},
		{
			"buffer":0,
			"byteLength":1616,
			"byteOffset":87724
		},
		{
			"buffer":0,
			"byteLength":8,
			"byteOffset":89340
		},
		{
			"buffer":0,
			"byteLength":24,
			"byteOffset":89348
		},
		{
			"buffer":0,
			"byteLength":1212,
			"byteOffset":89372
		},
		{
			"buffer":0,
			"byteLength":1616,
			"byteOffset":90584
		},
		{
			"buffer":0,
			"byteLength":24,
			"byteOffset":92200
		},
		{
			"buffer":0,
			"byteLength":24,
			"byteOffset":92224
		},
		{
			"buffer":0,
			"byteLength":1616,
			"byteOffset":92248
		},
		{
			"buffer":0,
			"byteLength":24,
			"byteOffset":93864
		},
		{
			"buffer":0,
			"byteLength":1212,
			"byteOffset":93888
		},
		{
			"buffer":0,
			"byteLength":1616,
			"byteOffset":95100
		},
		{
			"buffer":0,
			"byteLength":24,
			"byteOffset":96716
		},
		{
			"buffer":0,
			"byteLength":24,
			"byteOffset":96740
		},
		{
			"buffer":0,
			"byteLength":1616,
			"byteOffset":96764
		},
		{
			"buffer":0,
			"byteLength":24,
			"byteOffset":98380
		},
		{
			"buffer":0,
			"byteLength":24,
			"byteOffset":98404
		},
		{
			"buffer":0,
			"byteLength":1616,
			"byteOffset":98428
		},
		{
			"buffer":0,
			"byteLength":24,
			"byteOffset":100044
		},
		{
			"buffer":0,
			"byteLength":1212,
			"byteOffset":100068
		},
		{
			"buffer":0,
			"byteLength":1616,
			"byteOffset":101280
		},
		{
			"buffer":0,
			"byteLength":24,
			"byteOffset":102896
		},
		{
			"buffer":0,
			"byteLength":24,
			"byteOffset":102920
		},
		{
			"buffer":0,
			"byteLength":1616,
			"byteOffset":102944
		},
		{
			"buffer":0,
			"byteLength":24,
			"byteOffset":104560
		},
		{
			"buffer":0,
			"byteLength":24,
			"byteOffset":104584
		},
		{
			"buffer":0,
			"byteLength":1616,
			"byteOffset":104608
		},
		{
			"buffer":0,
			"byteLength":24,
			"byteOffset":106224
		}
	],
	"samplers":[
		{
			"magFilter":9729,
			"minFilter":9987
		}
	],
	"buffers":[
		{
			"byteLength":106248,
			"uri":"Bird.bin"
		}
	]
}
