# Blender 4.3.0
# www.blender.org
mtllib Player.mtl
o Cube
v -0.698479 0.698479 2.810810
v -0.698479 -0.698479 2.810810
v -1.000000 1.000000 -1.000000
v -1.000000 -1.000000 -1.000000
v 0.698479 0.698479 2.810810
v 0.698479 -0.698479 2.810810
v 1.000000 1.000000 -1.000000
v 1.000000 -1.000000 -1.000000
v -1.000000 -1.000000 2.810810
v 1.000000 -1.000000 2.810810
v -1.000000 1.000000 2.810810
v 1.000000 1.000000 2.810810
v -0.698479 -0.698479 3.329146
v 0.698479 -0.698479 3.329146
v -0.698479 0.698479 3.329146
v 0.698479 0.698479 3.329146
vn -0.0000 1.0000 -0.0000
vn -0.0000 -0.0000 -1.0000
vn 1.0000 -0.0000 -0.0000
vn -0.0000 -1.0000 -0.0000
vn -1.0000 -0.0000 -0.0000
vn -0.0000 -0.0000 1.0000
vt 0.875000 0.500000
vt 0.625000 0.750000
vt 0.625000 0.500000
vt 0.375000 1.000000
vt 0.375000 0.750000
vt 0.625000 0.000000
vt 0.375000 0.250000
vt 0.375000 0.000000
vt 0.375000 0.500000
vt 0.125000 0.750000
vt 0.125000 0.500000
vt 0.587310 0.287690
vt 0.412690 0.287690
vt 0.412690 0.462310
vt 0.587310 0.462310
vt 0.625000 0.250000
vt 0.875000 0.750000
vt 0.625000 1.000000
s 0
usemtl Material
f 12/1/1 3/2/1 11/3/1
f 3/2/2 8/4/2 4/5/2
f 7/6/3 10/7/3 8/8/3
f 9/9/4 8/10/4 10/11/4
f 11/3/5 4/5/5 9/9/5
f 5/12/3 14/13/3 6/13/3
f 2/14/6 10/7/6 6/13/6
f 1/15/6 9/9/6 2/14/6
f 6/13/6 12/16/6 5/12/6
f 5/12/6 11/3/6 1/15/6
f 16/12/6 13/14/6 14/13/6
f 6/13/4 13/14/4 2/14/4
f 1/15/1 16/12/1 5/12/1
f 2/14/5 15/15/5 1/15/5
f 12/1/1 7/17/1 3/2/1
f 3/2/2 7/18/2 8/4/2
f 7/6/3 12/16/3 10/7/3
f 9/9/4 4/5/4 8/10/4
f 11/3/5 3/2/5 4/5/5
f 5/12/3 16/12/3 14/13/3
f 2/14/6 9/9/6 10/7/6
f 1/15/6 11/3/6 9/9/6
f 6/13/6 10/7/6 12/16/6
f 5/12/6 12/16/6 11/3/6
f 16/12/6 15/15/6 13/14/6
f 6/13/4 14/13/4 13/14/4
f 1/15/1 15/15/1 16/12/1
f 2/14/5 13/14/5 15/15/5
