# Blender 4.1.1
# www.blender.org
<<<<<<< HEAD
mtllib Player.mtl
o 立方体
v 0.121208 1.063059 3.221137
v 0.121208 1.063059 3.463553
v 0.121208 0.820643 3.221137
v 0.121208 0.820643 3.463553
v -0.121208 1.063059 3.221137
v -0.121208 1.063059 3.463553
v -0.121208 0.820643 3.221137
v -0.121208 0.820643 3.463553
v -0.541923 -0.497844 2.654374
v -0.541923 -0.497844 1.102558
v -0.541923 0.497844 2.654374
v -0.541923 0.497844 1.102558
v 0.541923 -0.497844 2.654374
v 0.541923 -0.497844 1.102558
v 0.541923 0.497844 2.654374
v 0.541923 0.497844 1.102558
v 0.660678 0.000000 0.932529
v 0.000000 -0.606940 0.932529
v -0.660678 -0.606940 1.878466
v 0.660678 0.606940 1.878466
v -0.660678 0.606940 1.878466
v 0.660678 -0.606940 1.878466
v 0.000000 0.606940 2.824403
v -0.660678 0.000000 2.824403
v 0.000000 0.606940 0.669359
v 0.660678 0.000000 2.824403
v 0.000000 -0.606940 2.824403
v -0.660678 0.000000 0.932529
v 0.000000 0.000000 3.181225
v 0.000000 0.835887 1.878466
v 0.909896 0.000000 1.878466
v 0.000000 -0.795177 0.121831
v -0.909896 0.000000 1.878466
v 0.000000 -0.712740 1.878466
v -0.562232 -0.562232 3.904768
v -0.562232 -0.562232 2.780303
v -0.562232 0.562232 3.904768
v -0.562232 0.562232 2.780303
v 0.562232 -0.562232 3.904768
v 0.562232 -0.562232 2.780303
v 0.562232 0.562232 3.904768
v 0.562232 0.562232 2.780303
v 0.685437 0.000000 2.657098
v 0.000000 -0.685437 2.657098
v -0.685437 -0.685438 3.342535
v 0.685437 0.685438 3.342535
v -0.685437 0.685438 3.342535
v 0.685437 -0.685437 3.342535
v 0.000000 0.685438 4.027973
v -0.685437 0.000000 4.027973
v 0.000000 0.685438 2.657098
v 0.685437 0.000000 4.027973
v 0.000000 -0.685437 4.027973
v -0.685437 0.000000 2.657098
v 0.000000 0.000000 4.286530
v 0.000000 0.943995 3.342535
v 0.943995 0.000000 3.342535
v 0.000000 0.000000 2.398540
v -0.943995 0.000000 3.342535
v 0.000000 -0.943995 3.342535
vn 1.0000 -0.0000 -0.0000
vn -0.0000 -1.0000 -0.0000
vn -1.0000 -0.0000 -0.0000
vn -0.0000 1.0000 -0.0000
vn -0.0000 -0.0000 -1.0000
vn -0.0000 -0.0000 1.0000
vn -0.3455 -0.3761 0.8598
vn 0.4221 -0.4595 0.7815
vn 0.4221 0.4595 0.7815
vn -0.3455 0.3761 0.8598
vn -0.3274 0.9284 -0.1758
vn -0.3221 0.9294 0.1800
vn 0.3221 0.9294 0.1800
vn 0.3274 0.9284 -0.1758
vn 0.9216 0.3028 -0.2428
vn 0.9080 0.3728 0.1914
vn 0.9080 -0.3728 0.1914
vn 0.9216 -0.3028 -0.2428
vn 0.3455 -0.3761 -0.8598
vn -0.6668 -0.7259 0.1685
vn -0.5763 0.2973 -0.7612
vn 0.6228 0.3818 -0.6829
vn -0.9216 -0.3028 -0.2428
vn -0.9080 -0.3728 0.1914
vn -0.9080 0.3728 0.1914
vn -0.9216 0.3028 -0.2428
vn 0.2287 -0.9675 -0.1082
vn 0.1561 -0.9746 0.1609
vn -0.1561 -0.9746 0.1609
vn -0.2287 -0.9675 -0.1082
vn -0.4221 -0.4595 0.7815
vn 0.3455 -0.3761 0.8598
vn 0.3455 0.3761 0.8598
vn -0.4221 0.4595 0.7815
vn -0.3221 0.9294 -0.1800
vn -0.2602 0.9385 0.2271
vn 0.2602 0.9385 0.2271
vn 0.3221 0.9294 -0.1800
vn 0.9080 0.3728 -0.1914
vn 0.9216 0.3028 0.2428
vn 0.9216 -0.3028 0.2428
vn 0.9080 -0.3728 -0.1914
vn 0.6668 -0.7259 0.1685
vn -0.3455 -0.3761 -0.8598
vn -0.6228 0.3818 -0.6829
vn 0.5763 0.2973 -0.7612
vn -0.9080 -0.3728 -0.1914
vn -0.9216 -0.3028 0.2428
vn -0.9216 0.3028 0.2428
vn -0.9080 0.3728 -0.1914
vn 0.1561 -0.9746 -0.1609
vn 0.2287 -0.9675 0.1082
vn -0.2287 -0.9675 0.1082
vn -0.1561 -0.9746 -0.1609
vn -0.3397 -0.2717 0.9004
vn 0.2717 -0.3397 0.9004
vn 0.2717 0.3397 0.9004
vn -0.3397 0.2717 0.9004
vn -0.2717 0.9004 -0.3397
vn -0.3397 0.9004 0.2717
vn 0.3397 0.9004 0.2717
vn 0.2717 0.9004 -0.3397
vn 0.9004 0.2717 -0.3397
vn 0.9004 0.3397 0.2717
vn 0.9004 -0.3397 0.2717
vn 0.9004 -0.2717 -0.3397
vn 0.3397 -0.2717 -0.9004
vn -0.2717 -0.3397 -0.9004
vn -0.2717 0.3397 -0.9004
vn 0.3397 0.2717 -0.9004
vn -0.9004 -0.2717 -0.3397
vn -0.9004 -0.3397 0.2717
vn -0.9004 0.3397 0.2717
vn -0.9004 0.2717 -0.3397
vn 0.2717 -0.9004 -0.3397
vn 0.3397 -0.9004 0.2717
vn -0.3397 -0.9004 0.2717
vn -0.2717 -0.9004 -0.3397
vn -0.2717 -0.3397 0.9004
vn 0.3397 -0.2717 0.9004
vn 0.3397 0.2717 0.9004
vn -0.2717 0.3397 0.9004
vn -0.3397 0.9004 -0.2718
vn -0.2718 0.9004 0.3397
vn 0.2718 0.9004 0.3397
vn 0.3397 0.9004 -0.2718
vn 0.9004 0.3397 -0.2717
vn 0.9004 0.2717 0.3397
vn 0.9004 -0.2717 0.3397
vn 0.9004 -0.3397 -0.2717
vn 0.2717 -0.3397 -0.9004
vn -0.3397 -0.2717 -0.9004
vn -0.3397 0.2717 -0.9004
vn 0.2717 0.3397 -0.9004
vn -0.9004 -0.3397 -0.2717
vn -0.9004 -0.2717 0.3397
vn -0.9004 0.2717 0.3397
vn -0.9004 0.3397 -0.2717
vn 0.3397 -0.9004 -0.2717
vn 0.2717 -0.9004 0.3397
vn -0.2717 -0.9004 0.3397
vn -0.3397 -0.9004 -0.2718
=======
mtllib player.mtl
o 立方体
v 0.121208 3.221137 -1.063059
v 0.121208 3.463553 -1.063059
v 0.121208 3.221137 -0.820643
v 0.121208 3.463553 -0.820643
v -0.121208 3.221137 -1.063059
v -0.121208 3.463553 -1.063059
v -0.121208 3.221137 -0.820643
v -0.121208 3.463553 -0.820643
v -0.541923 2.654374 0.497844
v -0.541923 1.102558 0.497844
v -0.541923 2.654374 -0.497844
v -0.541923 1.102558 -0.497844
v 0.541923 2.654374 0.497844
v 0.541923 1.102558 0.497844
v 0.541923 2.654374 -0.497844
v 0.541923 1.102558 -0.497844
v 0.660678 0.932529 -0.000000
v -0.000000 0.932529 0.606940
v -0.660678 1.878466 0.606940
v 0.660678 1.878466 -0.606940
v -0.660678 1.878466 -0.606940
v 0.660678 1.878466 0.606940
v 0.000000 2.824403 -0.606940
v -0.660678 2.824403 -0.000000
v 0.000000 0.669359 -0.606940
v 0.660678 2.824403 -0.000000
v -0.000000 2.824403 0.606940
v -0.660678 0.932529 -0.000000
v 0.000000 3.181225 -0.000000
v -0.000000 1.878466 -0.835887
v 0.909896 1.878466 -0.000000
v 0.000000 0.121831 0.795177
v -0.909896 1.878466 -0.000000
v -0.000000 1.878466 0.712740
v -0.562232 3.904768 0.562232
v -0.562232 2.780303 0.562232
v -0.562232 3.904768 -0.562232
v -0.562232 2.780303 -0.562232
v 0.562232 3.904768 0.562232
v 0.562232 2.780303 0.562232
v 0.562232 3.904768 -0.562232
v 0.562232 2.780303 -0.562232
v 0.685437 2.657098 -0.000000
v -0.000000 2.657098 0.685437
v -0.685437 3.342535 0.685438
v 0.685437 3.342535 -0.685438
v -0.685437 3.342535 -0.685438
v 0.685437 3.342535 0.685437
v 0.000000 4.027973 -0.685438
v -0.685437 4.027973 -0.000000
v 0.000000 2.657098 -0.685438
v 0.685437 4.027973 -0.000000
v -0.000000 4.027973 0.685437
v -0.685437 2.657098 -0.000000
v 0.000000 4.286530 -0.000000
v -0.000000 3.342535 -0.943995
v 0.943995 3.342535 -0.000000
v 0.000000 2.398540 -0.000000
v -0.943995 3.342535 -0.000000
v -0.000000 3.342535 0.943995
vn 1.0000 -0.0000 -0.0000
vn -0.0000 -0.0000 1.0000
vn -1.0000 -0.0000 -0.0000
vn -0.0000 -0.0000 -1.0000
vn -0.0000 -1.0000 -0.0000
vn -0.0000 1.0000 -0.0000
vn -0.3455 0.8598 0.3761
vn 0.4221 0.7815 0.4595
vn 0.4221 0.7815 -0.4595
vn -0.3455 0.8598 -0.3761
vn -0.3274 -0.1758 -0.9284
vn -0.3221 0.1800 -0.9294
vn 0.3221 0.1800 -0.9294
vn 0.3274 -0.1758 -0.9284
vn 0.9216 -0.2428 -0.3028
vn 0.9080 0.1914 -0.3728
vn 0.9080 0.1914 0.3728
vn 0.9216 -0.2428 0.3028
vn 0.3455 -0.8598 0.3761
vn -0.6668 0.1685 0.7259
vn -0.5763 -0.7612 -0.2973
vn 0.6228 -0.6829 -0.3818
vn -0.9216 -0.2428 0.3028
vn -0.9080 0.1914 0.3728
vn -0.9080 0.1914 -0.3728
vn -0.9216 -0.2428 -0.3028
vn 0.2287 -0.1082 0.9675
vn 0.1561 0.1609 0.9746
vn -0.1561 0.1609 0.9746
vn -0.2287 -0.1082 0.9675
vn -0.3397 0.9004 0.2717
vn 0.2717 0.9004 0.3397
vn 0.2718 0.9004 -0.3397
vn -0.3397 0.9004 -0.2717
vn -0.2717 -0.3397 -0.9004
vn -0.3397 0.2717 -0.9004
vn 0.3397 0.2717 -0.9004
vn 0.2717 -0.3397 -0.9004
vn 0.9004 -0.3397 -0.2717
vn 0.9004 0.2717 -0.3397
vn 0.9004 0.2717 0.3397
vn 0.9004 -0.3397 0.2717
vn 0.3397 -0.9004 0.2717
vn -0.2717 -0.9004 0.3397
vn -0.2717 -0.9004 -0.3397
vn 0.3397 -0.9004 -0.2717
vn -0.9004 -0.3397 0.2717
vn -0.9004 0.2717 0.3397
vn -0.9004 0.2717 -0.3397
vn -0.9004 -0.3397 -0.2717
vn 0.2717 -0.3397 0.9004
vn 0.3397 0.2717 0.9004
vn -0.3397 0.2717 0.9004
vn -0.2717 -0.3397 0.9004
vn -0.4221 0.7815 0.4595
vn 0.3455 0.8598 0.3761
vn 0.3455 0.8598 -0.3761
vn -0.4221 0.7815 -0.4595
vn -0.3221 -0.1800 -0.9294
vn -0.2602 0.2271 -0.9385
vn 0.2602 0.2271 -0.9385
vn 0.3221 -0.1800 -0.9294
vn 0.9080 -0.1914 -0.3728
vn 0.9216 0.2428 -0.3028
vn 0.9216 0.2428 0.3028
vn 0.9080 -0.1914 0.3728
vn 0.6668 0.1685 0.7259
vn -0.3455 -0.8598 0.3761
vn -0.6228 -0.6829 -0.3818
vn 0.5763 -0.7612 -0.2973
vn -0.9080 -0.1914 0.3728
vn -0.9216 0.2428 0.3028
vn -0.9216 0.2428 -0.3028
vn -0.9080 -0.1914 -0.3728
vn 0.1561 -0.1609 0.9746
vn 0.2287 0.1082 0.9675
vn -0.2287 0.1082 0.9675
vn -0.1561 -0.1609 0.9746
vn -0.2717 0.9004 0.3397
vn 0.3397 0.9004 0.2717
vn 0.3397 0.9004 -0.2717
vn -0.2718 0.9004 -0.3397
vn -0.3397 -0.2717 -0.9004
vn -0.2717 0.3397 -0.9004
vn 0.2717 0.3397 -0.9004
vn 0.3397 -0.2717 -0.9004
vn 0.9004 -0.2717 -0.3397
vn 0.9004 0.3397 -0.2717
vn 0.9004 0.3397 0.2717
vn 0.9004 -0.2717 0.3397
vn 0.2717 -0.9004 0.3397
vn -0.3397 -0.9004 0.2717
vn -0.3397 -0.9004 -0.2717
vn 0.2717 -0.9004 -0.3397
vn -0.9004 -0.2717 0.3397
vn -0.9004 0.3397 0.2717
vn -0.9004 0.3397 -0.2717
vn -0.9004 -0.2717 -0.3397
vn 0.3397 -0.2717 0.9004
vn 0.2717 0.3397 0.9004
vn -0.2717 0.3397 0.9004
vn -0.3397 -0.2717 0.9004
>>>>>>> Develop
vt 0.625000 0.000000
vt 0.375000 0.250000
vt 0.375000 0.000000
vt 0.625000 0.250000
vt 0.375000 0.500000
vt 0.625000 0.500000
vt 0.375000 0.750000
vt 0.625000 0.750000
vt 0.375000 1.000000
vt 0.125000 0.750000
vt 0.125000 0.500000
vt 0.875000 0.500000
vt 0.000000 0.000000
vt 0.625000 1.000000
vt 0.875000 0.750000
s 0
usemtl Material.001
f 2/1/1 3/2/1 1/3/1
f 4/4/2 7/5/2 3/2/2
f 8/6/3 5/7/3 7/5/3
f 6/8/4 1/9/4 5/7/4
f 7/5/5 1/10/5 3/11/5
f 4/12/6 6/8/6 8/6/6
f 27/13/7 24/13/7 9/13/7
f 27/13/8 26/13/8 29/13/8
f 26/13/9 23/13/9 29/13/9
f 24/13/10 23/13/10 11/13/10
f 12/13/11 30/13/11 25/13/11
f 11/13/12 30/13/12 21/13/12
f 30/13/13 15/13/13 20/13/13
f 30/13/14 16/13/14 25/13/14
f 16/13/15 31/13/15 17/13/15
f 15/13/16 31/13/16 20/13/16
f 31/13/17 13/13/17 22/13/17
f 31/13/18 14/13/18 17/13/18
f 18/13/19 17/13/19 14/13/19
f 18/13/20 28/13/20 32/13/20
f 28/13/21 25/13/21 32/13/21
f 17/13/22 25/13/22 16/13/22
f 10/13/23 33/13/23 28/13/23
f 9/13/24 33/13/24 19/13/24
f 33/13/25 11/13/25 21/13/25
f 33/13/26 12/13/26 28/13/26
f 14/13/27 34/13/27 18/13/27
f 13/13/28 34/13/28 22/13/28
f 34/13/29 9/13/29 19/13/29
f 34/13/30 10/13/30 18/13/30
f 2/1/1 4/4/1 3/2/1
f 4/4/2 8/6/2 7/5/2
f 8/6/3 6/8/3 5/7/3
f 6/8/4 2/14/4 1/9/4
f 7/5/5 5/7/5 1/10/5
f 4/12/6 2/15/6 6/8/6
<<<<<<< HEAD
f 27/13/31 29/13/31 24/13/31
f 27/13/32 13/13/32 26/13/32
f 26/13/33 15/13/33 23/13/33
f 24/13/34 29/13/34 23/13/34
f 12/13/35 21/13/35 30/13/35
f 11/13/36 23/13/36 30/13/36
f 30/13/37 23/13/37 15/13/37
f 30/13/38 20/13/38 16/13/38
f 16/13/39 20/13/39 31/13/39
f 15/13/40 26/13/40 31/13/40
f 31/13/41 26/13/41 13/13/41
f 31/13/42 22/13/42 14/13/42
f 18/13/43 32/13/43 17/13/43
f 18/13/44 10/13/44 28/13/44
f 28/13/45 12/13/45 25/13/45
f 17/13/46 32/13/46 25/13/46
f 10/13/47 19/13/47 33/13/47
f 9/13/48 24/13/48 33/13/48
f 33/13/49 24/13/49 11/13/49
f 33/13/50 21/13/50 12/13/50
f 14/13/51 22/13/51 34/13/51
f 13/13/52 27/13/52 34/13/52
f 34/13/53 27/13/53 9/13/53
f 34/13/54 19/13/54 10/13/54
usemtl Material.002
f 35/13/55 55/13/55 50/13/55
f 39/13/56 55/13/56 53/13/56
f 55/13/57 41/13/57 49/13/57
f 55/13/58 37/13/58 50/13/58
f 38/13/59 56/13/59 51/13/59
f 37/13/60 56/13/60 47/13/60
f 56/13/61 41/13/61 46/13/61
f 56/13/62 42/13/62 51/13/62
f 42/13/63 57/13/63 43/13/63
f 41/13/64 57/13/64 46/13/64
f 57/13/65 39/13/65 48/13/65
f 57/13/66 40/13/66 43/13/66
f 40/13/67 58/13/67 43/13/67
f 36/13/68 58/13/68 44/13/68
f 58/13/69 38/13/69 51/13/69
f 58/13/70 42/13/70 43/13/70
f 36/13/71 59/13/71 54/13/71
f 35/13/72 59/13/72 45/13/72
f 59/13/73 37/13/73 47/13/73
f 59/13/74 38/13/74 54/13/74
f 40/13/75 60/13/75 44/13/75
f 39/13/76 60/13/76 48/13/76
f 60/13/77 35/13/77 45/13/77
f 60/13/78 36/13/78 44/13/78
=======
f 27/13/55 29/13/55 24/13/55
f 27/13/56 13/13/56 26/13/56
f 26/13/57 15/13/57 23/13/57
f 24/13/58 29/13/58 23/13/58
f 12/13/59 21/13/59 30/13/59
f 11/13/60 23/13/60 30/13/60
f 30/13/61 23/13/61 15/13/61
f 30/13/62 20/13/62 16/13/62
f 16/13/63 20/13/63 31/13/63
f 15/13/64 26/13/64 31/13/64
f 31/13/65 26/13/65 13/13/65
f 31/13/66 22/13/66 14/13/66
f 18/13/67 32/13/67 17/13/67
f 18/13/68 10/13/68 28/13/68
f 28/13/69 12/13/69 25/13/69
f 17/13/70 32/13/70 25/13/70
f 10/13/71 19/13/71 33/13/71
f 9/13/72 24/13/72 33/13/72
f 33/13/73 24/13/73 11/13/73
f 33/13/74 21/13/74 12/13/74
f 14/13/75 22/13/75 34/13/75
f 13/13/76 27/13/76 34/13/76
f 34/13/77 27/13/77 9/13/77
f 34/13/78 19/13/78 10/13/78
usemtl Material
f 35/13/31 55/13/31 50/13/31
f 39/13/32 55/13/32 53/13/32
f 55/13/33 41/13/33 49/13/33
f 55/13/34 37/13/34 50/13/34
f 38/13/35 56/13/35 51/13/35
f 37/13/36 56/13/36 47/13/36
f 56/13/37 41/13/37 46/13/37
f 56/13/38 42/13/38 51/13/38
f 42/13/39 57/13/39 43/13/39
f 41/13/40 57/13/40 46/13/40
f 57/13/41 39/13/41 48/13/41
f 57/13/42 40/13/42 43/13/42
f 40/13/43 58/13/43 43/13/43
f 36/13/44 58/13/44 44/13/44
f 58/13/45 38/13/45 51/13/45
f 58/13/46 42/13/46 43/13/46
f 36/13/47 59/13/47 54/13/47
f 35/13/48 59/13/48 45/13/48
f 59/13/49 37/13/49 47/13/49
f 59/13/50 38/13/50 54/13/50
f 40/13/51 60/13/51 44/13/51
f 39/13/52 60/13/52 48/13/52
f 60/13/53 35/13/53 45/13/53
f 60/13/54 36/13/54 44/13/54
>>>>>>> Develop
f 35/13/79 53/13/79 55/13/79
f 39/13/80 52/13/80 55/13/80
f 55/13/81 52/13/81 41/13/81
f 55/13/82 49/13/82 37/13/82
f 38/13/83 47/13/83 56/13/83
f 37/13/84 49/13/84 56/13/84
f 56/13/85 49/13/85 41/13/85
f 56/13/86 46/13/86 42/13/86
f 42/13/87 46/13/87 57/13/87
f 41/13/88 52/13/88 57/13/88
f 57/13/89 52/13/89 39/13/89
f 57/13/90 48/13/90 40/13/90
f 40/13/91 44/13/91 58/13/91
f 36/13/92 54/13/92 58/13/92
f 58/13/93 54/13/93 38/13/93
f 58/13/94 51/13/94 42/13/94
f 36/13/95 45/13/95 59/13/95
f 35/13/96 50/13/96 59/13/96
f 59/13/97 50/13/97 37/13/97
f 59/13/98 47/13/98 38/13/98
f 40/13/99 48/13/99 60/13/99
f 39/13/100 53/13/100 60/13/100
f 60/13/101 53/13/101 35/13/101
f 60/13/102 45/13/102 36/13/102
