# Blender 4.1.1
# www.blender.org
mtllib Player.mtl
o 立方体
v 0.121208 1.063059 3.221137
v 0.121208 1.063059 3.463553
v 0.121208 0.820643 3.221137
v 0.121208 0.820643 3.463553
v -0.121208 1.063059 3.221137
v -0.121208 1.063059 3.463553
v -0.121208 0.820643 3.221137
v -0.121208 0.820643 3.463553
v -0.541923 -0.497844 2.654374
v -0.541923 -0.497844 1.102558
v -0.541923 0.497844 2.654374
v -0.541923 0.497844 1.102558
v 0.541923 -0.497844 2.654374
v 0.541923 -0.497844 1.102558
v 0.541923 0.497844 2.654374
v 0.541923 0.497844 1.102558
v 0.660678 0.000000 0.932529
v 0.000000 -0.606940 0.932529
v -0.660678 -0.606940 1.878466
v 0.660678 0.606940 1.878466
v -0.660678 0.606940 1.878466
v 0.660678 -0.606940 1.878466
v 0.000000 0.606940 2.824403
v -0.660678 0.000000 2.824403
v 0.000000 0.606940 0.669359
v 0.660678 0.000000 2.824403
v 0.000000 -0.606940 2.824403
v -0.660678 0.000000 0.932529
v 0.000000 0.000000 3.181225
v 0.000000 0.835887 1.878466
v 0.909896 0.000000 1.878466
v 0.000000 -0.795177 0.121831
v -0.909896 0.000000 1.878466
v 0.000000 -0.712740 1.878466
v -0.562232 -0.562232 3.904768
v -0.562232 -0.562232 2.780303
v -0.562232 0.562232 3.904768
v -0.562232 0.562232 2.780303
v 0.562232 -0.562232 3.904768
v 0.562232 -0.562232 2.780303
v 0.562232 0.562232 3.904768
v 0.562232 0.562232 2.780303
v 0.685437 0.000000 2.657098
v 0.000000 -0.685437 2.657098
v -0.685437 -0.685438 3.342535
v 0.685437 0.685438 3.342535
v -0.685437 0.685438 3.342535
v 0.685437 -0.685437 3.342535
v 0.000000 0.685438 4.027973
v -0.685437 0.000000 4.027973
v 0.000000 0.685438 2.657098
v 0.685437 0.000000 4.027973
v 0.000000 -0.685437 4.027973
v -0.685437 0.000000 2.657098
v 0.000000 0.000000 4.286530
v 0.000000 0.943995 3.342535
v 0.943995 0.000000 3.342535
v 0.000000 0.000000 2.398540
v -0.943995 0.000000 3.342535
v 0.000000 -0.943995 3.342535
vn 1.0000 -0.0000 -0.0000
vn -0.0000 -1.0000 -0.0000
vn -1.0000 -0.0000 -0.0000
vn -0.0000 1.0000 -0.0000
vn -0.0000 -0.0000 -1.0000
vn -0.0000 -0.0000 1.0000
vn -0.3455 -0.3761 0.8598
vn 0.4221 -0.4595 0.7815
vn 0.4221 0.4595 0.7815
vn -0.3455 0.3761 0.8598
vn -0.3274 0.9284 -0.1758
vn -0.3221 0.9294 0.1800
vn 0.3221 0.9294 0.1800
vn 0.3274 0.9284 -0.1758
vn 0.9216 0.3028 -0.2428
vn 0.9080 0.3728 0.1914
vn 0.9080 -0.3728 0.1914
vn 0.9216 -0.3028 -0.2428
vn 0.3455 -0.3761 -0.8598
vn -0.6668 -0.7259 0.1685
vn -0.5763 0.2973 -0.7612
vn 0.6228 0.3818 -0.6829
vn -0.9216 -0.3028 -0.2428
vn -0.9080 -0.3728 0.1914
vn -0.9080 0.3728 0.1914
vn -0.9216 0.3028 -0.2428
vn 0.2287 -0.9675 -0.1082
vn 0.1561 -0.9746 0.1609
vn -0.1561 -0.9746 0.1609
vn -0.2287 -0.9675 -0.1082
vn -0.4221 -0.4595 0.7815
vn 0.3455 -0.3761 0.8598
vn 0.3455 0.3761 0.8598
vn -0.4221 0.4595 0.7815
vn -0.3221 0.9294 -0.1800
vn -0.2602 0.9385 0.2271
vn 0.2602 0.9385 0.2271
vn 0.3221 0.9294 -0.1800
vn 0.9080 0.3728 -0.1914
vn 0.9216 0.3028 0.2428
vn 0.9216 -0.3028 0.2428
vn 0.9080 -0.3728 -0.1914
vn 0.6668 -0.7259 0.1685
vn -0.3455 -0.3761 -0.8598
vn -0.6228 0.3818 -0.6829
vn 0.5763 0.2973 -0.7612
vn -0.9080 -0.3728 -0.1914
vn -0.9216 -0.3028 0.2428
vn -0.9216 0.3028 0.2428
vn -0.9080 0.3728 -0.1914
vn 0.1561 -0.9746 -0.1609
vn 0.2287 -0.9675 0.1082
vn -0.2287 -0.9675 0.1082
vn -0.1561 -0.9746 -0.1609
vn -0.3397 -0.2717 0.9004
vn 0.2717 -0.3397 0.9004
vn 0.2717 0.3397 0.9004
vn -0.3397 0.2717 0.9004
vn -0.2717 0.9004 -0.3397
vn -0.3397 0.9004 0.2717
vn 0.3397 0.9004 0.2717
vn 0.2717 0.9004 -0.3397
vn 0.9004 0.2717 -0.3397
vn 0.9004 0.3397 0.2717
vn 0.9004 -0.3397 0.2717
vn 0.9004 -0.2717 -0.3397
vn 0.3397 -0.2717 -0.9004
vn -0.2717 -0.3397 -0.9004
vn -0.2717 0.3397 -0.9004
vn 0.3397 0.2717 -0.9004
vn -0.9004 -0.2717 -0.3397
vn -0.9004 -0.3397 0.2717
vn -0.9004 0.3397 0.2717
vn -0.9004 0.2717 -0.3397
vn 0.2717 -0.9004 -0.3397
vn 0.3397 -0.9004 0.2717
vn -0.3397 -0.9004 0.2717
vn -0.2717 -0.9004 -0.3397
vn -0.2717 -0.3397 0.9004
vn 0.3397 -0.2717 0.9004
vn 0.3397 0.2717 0.9004
vn -0.2717 0.3397 0.9004
vn -0.3397 0.9004 -0.2718
vn -0.2718 0.9004 0.3397
vn 0.2718 0.9004 0.3397
vn 0.3397 0.9004 -0.2718
vn 0.9004 0.3397 -0.2717
vn 0.9004 0.2717 0.3397
vn 0.9004 -0.2717 0.3397
vn 0.9004 -0.3397 -0.2717
vn 0.2717 -0.3397 -0.9004
vn -0.3397 -0.2717 -0.9004
vn -0.3397 0.2717 -0.9004
vn 0.2717 0.3397 -0.9004
vn -0.9004 -0.3397 -0.2717
vn -0.9004 -0.2717 0.3397
vn -0.9004 0.2717 0.3397
vn -0.9004 0.3397 -0.2717
vn 0.3397 -0.9004 -0.2717
vn 0.2717 -0.9004 0.3397
vn -0.2717 -0.9004 0.3397
vn -0.3397 -0.9004 -0.2718
vt 0.625000 0.000000
vt 0.375000 0.250000
vt 0.375000 0.000000
vt 0.625000 0.250000
vt 0.375000 0.500000
vt 0.625000 0.500000
vt 0.375000 0.750000
vt 0.625000 0.750000
vt 0.375000 1.000000
vt 0.125000 0.750000
vt 0.125000 0.500000
vt 0.875000 0.500000
vt 0.000000 0.000000
vt 0.625000 1.000000
vt 0.875000 0.750000
s 0
usemtl Material.001
f 2/1/1 3/2/1 1/3/1
f 4/4/2 7/5/2 3/2/2
f 8/6/3 5/7/3 7/5/3
f 6/8/4 1/9/4 5/7/4
f 7/5/5 1/10/5 3/11/5
f 4/12/6 6/8/6 8/6/6
f 27/13/7 24/13/7 9/13/7
f 27/13/8 26/13/8 29/13/8
f 26/13/9 23/13/9 29/13/9
f 24/13/10 23/13/10 11/13/10
f 12/13/11 30/13/11 25/13/11
f 11/13/12 30/13/12 21/13/12
f 30/13/13 15/13/13 20/13/13
f 30/13/14 16/13/14 25/13/14
f 16/13/15 31/13/15 17/13/15
f 15/13/16 31/13/16 20/13/16
f 31/13/17 13/13/17 22/13/17
f 31/13/18 14/13/18 17/13/18
f 18/13/19 17/13/19 14/13/19
f 18/13/20 28/13/20 32/13/20
f 28/13/21 25/13/21 32/13/21
f 17/13/22 25/13/22 16/13/22
f 10/13/23 33/13/23 28/13/23
f 9/13/24 33/13/24 19/13/24
f 33/13/25 11/13/25 21/13/25
f 33/13/26 12/13/26 28/13/26
f 14/13/27 34/13/27 18/13/27
f 13/13/28 34/13/28 22/13/28
f 34/13/29 9/13/29 19/13/29
f 34/13/30 10/13/30 18/13/30
f 2/1/1 4/4/1 3/2/1
f 4/4/2 8/6/2 7/5/2
f 8/6/3 6/8/3 5/7/3
f 6/8/4 2/14/4 1/9/4
f 7/5/5 5/7/5 1/10/5
f 4/12/6 2/15/6 6/8/6
f 27/13/31 29/13/31 24/13/31
f 27/13/32 13/13/32 26/13/32
f 26/13/33 15/13/33 23/13/33
f 24/13/34 29/13/34 23/13/34
f 12/13/35 21/13/35 30/13/35
f 11/13/36 23/13/36 30/13/36
f 30/13/37 23/13/37 15/13/37
f 30/13/38 20/13/38 16/13/38
f 16/13/39 20/13/39 31/13/39
f 15/13/40 26/13/40 31/13/40
f 31/13/41 26/13/41 13/13/41
f 31/13/42 22/13/42 14/13/42
f 18/13/43 32/13/43 17/13/43
f 18/13/44 10/13/44 28/13/44
f 28/13/45 12/13/45 25/13/45
f 17/13/46 32/13/46 25/13/46
f 10/13/47 19/13/47 33/13/47
f 9/13/48 24/13/48 33/13/48
f 33/13/49 24/13/49 11/13/49
f 33/13/50 21/13/50 12/13/50
f 14/13/51 22/13/51 34/13/51
f 13/13/52 27/13/52 34/13/52
f 34/13/53 27/13/53 9/13/53
f 34/13/54 19/13/54 10/13/54
usemtl Material.002
f 35/13/55 55/13/55 50/13/55
f 39/13/56 55/13/56 53/13/56
f 55/13/57 41/13/57 49/13/57
f 55/13/58 37/13/58 50/13/58
f 38/13/59 56/13/59 51/13/59
f 37/13/60 56/13/60 47/13/60
f 56/13/61 41/13/61 46/13/61
f 56/13/62 42/13/62 51/13/62
f 42/13/63 57/13/63 43/13/63
f 41/13/64 57/13/64 46/13/64
f 57/13/65 39/13/65 48/13/65
f 57/13/66 40/13/66 43/13/66
f 40/13/67 58/13/67 43/13/67
f 36/13/68 58/13/68 44/13/68
f 58/13/69 38/13/69 51/13/69
f 58/13/70 42/13/70 43/13/70
f 36/13/71 59/13/71 54/13/71
f 35/13/72 59/13/72 45/13/72
f 59/13/73 37/13/73 47/13/73
f 59/13/74 38/13/74 54/13/74
f 40/13/75 60/13/75 44/13/75
f 39/13/76 60/13/76 48/13/76
f 60/13/77 35/13/77 45/13/77
f 60/13/78 36/13/78 44/13/78
f 35/13/79 53/13/79 55/13/79
f 39/13/80 52/13/80 55/13/80
f 55/13/81 52/13/81 41/13/81
f 55/13/82 49/13/82 37/13/82
f 38/13/83 47/13/83 56/13/83
f 37/13/84 49/13/84 56/13/84
f 56/13/85 49/13/85 41/13/85
f 56/13/86 46/13/86 42/13/86
f 42/13/87 46/13/87 57/13/87
f 41/13/88 52/13/88 57/13/88
f 57/13/89 52/13/89 39/13/89
f 57/13/90 48/13/90 40/13/90
f 40/13/91 44/13/91 58/13/91
f 36/13/92 54/13/92 58/13/92
f 58/13/93 54/13/93 38/13/93
f 58/13/94 51/13/94 42/13/94
f 36/13/95 45/13/95 59/13/95
f 35/13/96 50/13/96 59/13/96
f 59/13/97 50/13/97 37/13/97
f 59/13/98 47/13/98 38/13/98
f 40/13/99 48/13/99 60/13/99
f 39/13/100 53/13/100 60/13/100
f 60/13/101 53/13/101 35/13/101
f 60/13/102 45/13/102 36/13/102
