# Blender 4.1.1
# www.blender.org
mtllib tower.mtl
o 立方体
<<<<<<< HEAD
v 1.000000 1.000000 0.000020
v 0.687085 0.687085 1.489976
v 1.000000 -1.000000 0.000020
v 0.687085 -0.687085 1.489976
v -1.000000 1.000000 0.000020
v -0.687085 0.687085 1.489976
v -1.000000 -1.000000 0.000020
v -0.687085 -0.687085 1.489976
v 0.000000 -1.000000 0.000020
v 0.000000 -0.868886 1.489976
v 0.000000 1.000000 0.000020
v 0.000000 0.868886 1.489976
v 1.000000 0.000000 0.000020
v 0.868886 0.000000 1.489976
v -1.000000 0.000000 0.000020
v -0.868886 0.000000 1.489976
v 0.000000 0.000000 8.193673
v 0.000000 0.000000 0.000020
vn 0.9787 -0.0000 0.2055
vn -0.0000 -0.9787 0.2055
vn -0.9787 -0.0000 0.2055
vn -0.0000 0.9787 0.2055
vn -0.0000 -0.0000 -1.0000
vn 0.7042 0.7042 0.0913
vn -0.0000 -0.0000 1.0000
vn 0.7042 -0.7042 0.0913
vn 0.9633 -0.2549 0.0848
vn -0.2549 -0.9633 0.0848
vn -0.9633 0.2549 0.0848
vn 0.2549 0.9633 0.0848
vn -0.7042 0.7042 0.0913
vn -0.2549 0.9633 0.0848
vn 0.2549 -0.9633 0.0848
vn -0.7042 -0.7042 0.0913
vn -0.9633 -0.2549 0.0848
vn 0.9633 0.2549 0.0848
=======
v 1.000000 0.000020 -1.000000
v 0.687085 1.489976 -0.687085
v 1.000000 0.000020 1.000000
v 0.687085 1.489976 0.687085
v -1.000000 0.000020 -1.000000
v -0.687085 1.489976 -0.687085
v -1.000000 0.000020 1.000000
v -0.687085 1.489976 0.687085
v 0.000000 0.000020 1.000000
v 0.000000 1.489976 0.868886
v 0.000000 0.000020 -1.000000
v 0.000000 1.489976 -0.868886
v 1.000000 0.000020 0.000000
v 0.868886 1.489976 0.000000
v -1.000000 0.000020 0.000000
v -0.868886 1.489976 0.000000
v 0.000000 8.193673 0.000000
v 0.000000 0.000020 0.000000
vn 0.9787 0.2055 -0.0000
vn -0.0000 0.2055 0.9787
vn -0.9787 0.2055 -0.0000
vn -0.0000 0.2055 -0.9787
vn -0.0000 -1.0000 -0.0000
vn 0.7042 0.0913 -0.7042
vn -0.0000 1.0000 -0.0000
vn 0.7042 0.0913 0.7042
vn 0.9633 0.0848 0.2549
vn -0.2549 0.0848 0.9633
vn -0.9633 0.0848 -0.2549
vn 0.2549 0.0848 -0.9633
vn -0.7042 0.0913 -0.7042
vn -0.2549 0.0848 -0.9633
vn 0.2549 0.0848 0.9633
vn -0.7042 0.0913 0.7042
vn -0.9633 0.0848 0.2549
vn 0.9633 0.0848 -0.2549
>>>>>>> Develop
vt 0.375000 0.125000
vt 0.625000 0.250000
vt 0.375000 0.250000
vt 0.375000 0.375000
vt 0.625000 0.500000
vt 0.375000 0.500000
vt 0.375000 0.625000
vt 0.625000 0.750000
vt 0.375000 0.750000
vt 0.375000 0.875000
vt 0.625000 1.000000
vt 0.375000 1.000000
vt 0.250000 0.750000
vt 0.250000 0.625000
vt 0.875000 0.625000
vt 0.750000 0.750000
vt 0.750000 0.625000
vt 0.625000 0.625000
vt 0.125000 0.750000
vt 0.125000 0.625000
vt 0.250000 0.500000
vt 0.125000 0.500000
vt 0.750000 0.500000
vt 0.625000 0.000000
vt 0.375000 0.000000
vt 0.625000 0.125000
vt 0.625000 0.375000
vt 0.625000 0.875000
vt 0.875000 0.750000
vt 0.875000 0.500000
s 0
f 13/1/1 4/2/1 3/3/1
f 9/4/2 8/5/2 7/6/2
f 15/7/3 6/8/3 5/9/3
f 11/10/4 2/11/4 1/12/4
f 15/7/5 11/13/5 18/14/5
f 14/15/6 12/16/6 17/17/6
f 16/18/7 12/16/7 6/8/7
f 18/14/5 1/19/5 13/20/5
f 6/8/4 11/10/4 5/9/4
f 4/2/2 9/4/2 3/3/2
f 9/21/5 13/20/5 3/22/5
f 10/23/7 16/18/7 8/5/7
f 10/23/8 14/15/8 17/17/8
f 7/6/5 18/14/5 9/21/5
f 8/5/3 15/7/3 7/6/3
f 2/24/1 13/1/1 1/25/1
f 13/1/9 14/26/9 4/2/9
f 9/4/10 10/27/10 8/5/10
f 15/7/11 16/18/11 6/8/11
f 11/10/12 12/28/12 2/11/12
f 15/7/5 5/9/5 11/13/5
f 14/15/7 2/29/7 12/16/7
f 16/18/13 17/17/13 12/16/13
f 18/14/5 11/13/5 1/19/5
f 6/8/14 12/28/14 11/10/14
f 4/2/15 10/27/15 9/4/15
f 9/21/5 18/14/5 13/20/5
f 10/23/16 17/17/16 16/18/16
f 10/23/7 4/30/7 14/15/7
f 7/6/5 15/7/5 18/14/5
f 8/5/17 16/18/17 15/7/17
f 2/24/18 14/26/18 13/1/18
