# Blender 4.1.1
# www.blender.org
mtllib bossTubeGame.mtl
o tube
v 0.133913 -1.298142 0.965878
v 0.133913 -1.146767 0.754421
v -0.133913 -1.298142 0.965879
v -0.133913 -1.146767 0.754421
v 0.105676 1.290066 0.470558
v 0.145929 -1.308241 0.972998
v 0.153446 -1.268864 0.921802
v 0.163258 -1.225259 0.858142
v 0.153446 -1.179054 0.796344
v 0.145929 -1.143283 0.742566
v 0.105676 1.186779 0.293224
v 0.079451 -1.137231 0.737921
v -0.000000 -1.132986 0.729244
v -0.079451 -1.137231 0.737922
v -0.145929 -1.143283 0.742566
v -0.105676 1.186779 0.293224
v -0.153446 -1.179054 0.796344
v -0.163258 -1.225259 0.858142
v -0.153446 -1.268864 0.921802
v -0.145929 -1.308241 0.972998
v -0.105676 1.290066 0.470558
v -0.079451 -1.310687 0.980224
v -0.000000 -1.317533 0.987040
v 0.079451 -1.310687 0.980224
v 0.135540 1.266646 0.430350
v 0.185678 -1.268394 0.923424
v 0.145539 1.238422 0.381891
v 0.199136 -1.220813 0.861325
v 0.135540 1.210198 0.333433
v 0.185678 -1.177367 0.796266
v 0.057754 1.172185 0.268168
v 0.080527 -1.117936 0.713246
v -0.000000 1.167298 0.259778
v -0.000000 -1.108261 0.704100
v -0.057754 1.172185 0.268168
v -0.080527 -1.117936 0.713246
v -0.135540 1.210198 0.333433
v -0.185678 -1.177367 0.796266
v -0.145539 1.238422 0.381891
v -0.199136 -1.220813 0.861325
v -0.135540 1.266646 0.430350
v -0.185678 -1.268394 0.923424
v -0.057754 1.304660 0.495615
v -0.080527 -1.327826 1.006444
v -0.000000 1.309546 0.504005
v -0.000000 -1.333364 1.018550
v 0.057754 1.304660 0.495615
v 0.080527 -1.327826 1.006444
v -0.084675 -0.532503 1.166329
v -0.000000 -0.526526 1.165176
v 0.084675 -0.532503 1.166329
v -0.089224 -0.576955 1.235621
v -0.000000 -0.589080 1.226942
v 0.089224 -0.576955 1.235622
v -0.084675 -0.628220 1.300037
v -0.000000 -0.627384 1.306067
v 0.084675 -0.628219 1.300037
v 0.143948 -0.302725 1.496510
v 0.143948 -0.218507 1.229955
v -0.143948 -0.218507 1.229955
v -0.143948 -0.302725 1.496510
v 0.183882 -0.282053 1.436963
v 0.197327 -0.257714 1.364149
v 0.183882 -0.235800 1.290569
v 0.079057 -0.205136 1.193515
v -0.000000 -0.199990 1.181449
v -0.079057 -0.205136 1.193515
v -0.183882 -0.235800 1.290569
v -0.197327 -0.257714 1.364149
v -0.183882 -0.282053 1.436963
v -0.079057 -0.312717 1.534017
v -0.000000 -0.315438 1.546849
v 0.079057 -0.312717 1.534017
v 0.142957 0.569546 1.057890
v -0.142957 0.569546 1.057890
v -0.142957 0.609970 1.301576
v 0.142957 0.609970 1.301576
v 0.182983 0.601593 1.246769
v 0.196423 0.591209 1.180192
v 0.182983 0.579613 1.113232
v 0.078322 0.564569 1.024070
v -0.000000 0.563238 1.012813
v -0.078322 0.564569 1.024070
v -0.182983 0.579613 1.113231
v -0.196423 0.591209 1.180192
v -0.182983 0.601593 1.246769
v -0.078322 0.616636 1.335931
v -0.000000 0.619180 1.347570
v 0.078322 0.616636 1.335931
vn 0.9143 -0.0390 0.4032
vn 0.7929 -0.5018 -0.3458
vn 0.9991 0.0040 0.0417
vn 0.9457 0.0442 -0.3221
vn 0.6700 -0.0975 0.7359
vn 0.7285 -0.6717 -0.1347
vn 0.5016 -0.8643 0.0367
vn -0.4955 -0.5232 -0.6934
vn -0.5826 -0.6589 -0.4759
vn 0.7073 -0.3957 -0.5858
vn -0.5316 -0.8045 -0.2650
vn 0.4701 -0.3362 -0.8161
vn 0.7191 0.0906 -0.6890
vn 0.3493 0.1164 -0.9298
vn -0.0000 -0.1059 -0.9944
vn -0.0000 0.1233 -0.9924
vn -0.3493 0.1164 -0.9298
vn 0.2365 -0.1690 -0.9568
vn -0.2696 -0.9629 -0.0135
vn -0.0000 -0.9987 0.0502
vn -0.2365 -0.1690 -0.9568
vn 0.2696 -0.9629 -0.0135
vn -0.4701 -0.3362 -0.8161
vn -0.7191 0.0906 -0.6890
vn -0.9457 0.0442 -0.3221
vn -0.7929 -0.5018 -0.3458
vn -0.9991 0.0040 0.0417
vn -0.9143 -0.0390 0.4032
vn -0.7073 -0.3957 -0.5858
vn 0.5316 -0.8045 -0.2650
vn 0.5826 -0.6589 -0.4759
vn -0.7285 -0.6717 -0.1347
vn 0.4955 -0.5232 -0.6934
vn -0.5016 -0.8643 0.0367
vn -0.6700 -0.0975 0.7359
vn -0.3308 -0.1297 0.9348
vn -0.0000 -0.9348 0.3553
vn -0.0000 -0.1364 0.9907
vn 0.3308 -0.1297 0.9348
vn -0.2627 -0.9260 0.2712
vn 0.2302 -0.3952 -0.8893
vn -0.0000 -0.3637 -0.9315
vn 0.2627 -0.9260 0.2712
vn -0.2302 -0.3952 -0.8893
vn 0.5391 -0.8349 0.1109
vn -0.0000 -0.8131 -0.5821
vn 0.6137 -0.6443 -0.4563
vn -0.5391 -0.8349 0.1109
vn -0.0000 -0.9967 0.0815
vn 0.5442 -0.2399 -0.8039
vn -0.5442 -0.2399 -0.8039
vn -0.0000 -0.3285 -0.9445
vn 0.0856 -0.8590 -0.5048
vn -0.6137 -0.6443 -0.4563
vn 0.0856 -0.7547 -0.6504
vn 0.2945 0.4926 0.8189
vn 0.6149 0.4218 0.6663
vn -0.2945 0.4926 0.8189
vn -0.6149 0.4218 0.6663
vn -0.0000 0.5121 0.8589
vn -0.8805 0.2846 0.3790
vn -0.9296 -0.1699 -0.3272
vn -0.6588 -0.3946 -0.6405
vn -0.9967 0.0757 0.0295
vn -0.2960 -0.5126 -0.8060
vn 0.6588 -0.3946 -0.6405
vn 0.2960 -0.5126 -0.8060
vn -0.0000 -0.5378 -0.8431
vn 0.9296 -0.1699 -0.3272
vn 0.8805 0.2846 0.3790
vn 0.9967 0.0757 0.0295
vn 0.9309 0.3093 0.1941
vn 0.9985 0.0100 -0.0537
vn 0.9074 -0.3016 -0.2926
vn 0.6903 0.5781 0.4351
vn 0.6456 -0.5824 -0.4941
vn 0.3120 -0.7378 -0.5986
vn -0.0000 -0.7800 -0.6257
vn -0.3120 -0.7378 -0.5986
vn -0.6456 -0.5824 -0.4941
vn -0.9985 0.0100 -0.0537
vn -0.9074 -0.3016 -0.2926
vn -0.9309 0.3093 0.1941
vn -0.6903 0.5781 0.4351
vn -0.0000 0.7755 0.6313
vn -0.3364 0.7352 0.5884
vn 0.3364 0.7352 0.5884
vn -0.0856 -0.7547 -0.6504
vn -0.0856 -0.8590 -0.5048
vt 0.012374 0.658719
vt 0.016186 0.955763
vt 0.013301 0.655286
vt 0.013631 0.652118
vt 0.010654 0.661489
vt 0.016578 0.964103
vt 0.015114 0.974482
vt 0.013475 0.965406
vt 0.013486 0.957116
vt 0.014852 0.949830
vt 0.013094 0.950739
vt 0.014021 0.945462
vt 0.013896 0.649358
vt 0.012840 0.646697
vt 0.010860 0.939775
vt 0.009733 0.645575
vt 0.006635 0.646720
vt 0.013304 0.941395
vt 0.012427 0.943371
vt 0.010869 0.942068
vt 0.008429 0.941414
vt 0.009321 0.943383
vt 0.007744 0.945486
vt 0.005599 0.649390
vt 0.005885 0.652148
vt 0.005658 0.955803
vt 0.006239 0.655313
vt 0.007193 0.658739
vt 0.006946 0.949861
vt 0.008710 0.950756
vt 0.008368 0.957135
vt 0.005330 0.964146
vt 0.008442 0.965425
vt 0.006872 0.974514
vt 0.008934 0.661496
vt 0.010016 0.662486
vt 0.011086 0.998763
vt 0.009798 0.662653
vt 0.009579 0.662487
vt 0.007905 0.985046
vt 0.009803 0.982488
vt 0.011050 0.989206
vt 0.014163 0.985022
vt 0.012245 0.982478
vt 0.010492 0.957867
vt 0.010932 0.958379
vt 0.010409 0.958331
vt 0.011367 0.957864
vt 0.010930 0.957840
vt 0.010348 0.958899
vt 0.011520 0.958895
vt 0.010934 0.959010
vt 0.008724 0.946452
vt 0.011454 0.958327
vt 0.008734 0.974133
vt 0.007106 0.463036
vt 0.007415 0.459567
vt 0.010960 0.463021
vt 0.010625 0.459554
vt 0.009037 0.464059
vt 0.007777 0.453204
vt 0.002071 0.437099
vt 0.001237 0.430228
vt 0.004494 0.445208
vt 0.003582 0.425597
vt 0.016578 0.430170
vt 0.014198 0.425556
vt 0.008884 0.423995
vt 0.015796 0.437046
vt 0.010214 0.453195
vt 0.013436 0.445174
vt 0.005024 0.049080
vt 0.006310 0.055361
vt 0.007531 0.058443
vt 0.003727 0.038470
vt 0.008751 0.059605
vt 0.008833 0.060006
vt 0.007488 0.059955
vt 0.006144 0.060016
vt 0.006224 0.059614
vt 0.008632 0.055352
vt 0.007434 0.058443
vt 0.009870 0.049062
vt 0.011086 0.038442
vt 0.007263 0.001237
vt 0.010651 0.022571
vt 0.004040 0.022597
vt 0.013250 0.974116
vt 0.013048 0.946435
s 1
usemtl マテリアル.001
f 62/1/1 28/2/2 63/3/3
f 28/2/2 64/4/4 63/3/3
f 58/5/5 26/6/6 62/1/1
f 6/7/7 7/8/8 26/6/6
f 26/6/6 8/9/9 28/2/2
f 8/9/9 30/10/10 28/2/2
f 9/11/11 10/12/12 30/10/10
f 30/10/10 59/13/13 64/4/4
f 65/14/14 34/15/15 66/16/16
f 34/15/15 67/17/17 66/16/16
f 59/13/13 32/18/18 65/14/14
f 10/12/12 12/19/19 32/18/18
f 32/18/18 13/20/20 34/15/15
f 13/20/20 36/21/21 34/15/15
f 14/22/22 15/23/23 36/21/21
f 36/21/21 60/24/24 67/17/17
f 68/25/25 40/26/26 69/27/27
f 40/26/26 70/28/28 69/27/27
f 60/24/24 38/29/29 68/25/25
f 15/23/23 17/30/30 38/29/29
f 38/29/29 18/31/31 40/26/26
f 18/31/31 42/32/32 40/26/26
f 19/33/33 20/34/34 42/32/32
f 42/32/32 61/35/35 70/28/28
f 71/36/36 46/37/37 72/38/38
f 46/37/37 73/39/39 72/38/38
f 61/35/35 44/40/40 71/36/36
f 20/34/34 22/41/41 44/40/40
f 44/40/40 23/42/42 46/37/37
f 23/42/42 48/43/43 46/37/37
f 24/44/44 6/7/7 48/43/43
f 48/43/43 58/5/5 73/39/39
f 49/45/45 53/46/46 52/47/47
f 51/48/48 53/46/46 50/49/49
f 53/46/46 55/50/50 52/47/47
f 53/46/46 57/51/51 56/52/52
f 14/22/22 17/30/30 4/53/53
f 13/20/20 49/45/45 14/22/22
f 13/20/20 51/48/48 50/49/49
f 12/19/19 9/11/11 51/48/48
f 9/11/11 54/54/54 51/48/48
f 8/9/9 57/51/51 54/54/54
f 7/8/8 24/44/44 57/51/51
f 56/52/52 24/44/44 23/42/42
f 56/52/52 22/41/41 55/50/50
f 19/33/33 22/41/41 3/55/55
f 18/31/31 55/50/50 19/33/33
f 17/30/30 52/47/47 18/31/31
f 89/56/56 58/5/5 77/57/57
f 61/35/35 87/58/58 76/59/59
f 88/60/60 73/39/39 89/56/56
f 71/36/36 88/60/60 87/58/58
f 70/28/28 76/59/59 86/61/61
f 60/24/24 84/62/62 75/63/63
f 69/27/27 86/61/61 85/64/64
f 68/25/25 85/64/64 84/62/62
f 67/17/17 75/63/63 83/65/65
f 74/66/66 65/14/14 81/67/67
f 66/16/16 83/65/65 82/68/68
f 81/67/67 66/16/16 82/68/68
f 80/69/69 59/13/13 74/66/66
f 77/57/57 62/1/1 78/70/70
f 79/71/71 64/4/4 80/69/69
f 78/70/70 63/3/3 79/71/71
f 25/72/72 79/71/71 27/73/73
f 27/73/73 80/69/69 29/74/74
f 5/75/75 78/70/70 25/72/72
f 29/74/74 74/66/66 11/76/76
f 31/77/77 82/68/68 33/78/78
f 82/68/68 35/79/79 33/78/78
f 11/76/76 81/67/67 31/77/77
f 83/65/65 16/80/80 35/79/79
f 84/62/62 39/81/81 37/82/82
f 85/64/64 41/83/83 39/81/81
f 75/63/63 37/82/82 16/80/80
f 86/61/61 21/84/84 41/83/83
f 87/58/58 45/85/85 43/86/86
f 45/85/85 89/56/56 47/87/87
f 76/59/59 43/86/86 21/84/84
f 47/87/87 77/57/57 5/75/75
f 62/1/1 26/6/6 28/2/2
f 28/2/2 30/10/10 64/4/4
f 58/5/5 6/7/7 26/6/6
f 6/7/7 1/88/88 7/8/8
f 26/6/6 7/8/8 8/9/9
f 8/9/9 9/11/11 30/10/10
f 9/11/11 2/89/89 10/12/12
f 30/10/10 10/12/12 59/13/13
f 65/14/14 32/18/18 34/15/15
f 34/15/15 36/21/21 67/17/17
f 59/13/13 10/12/12 32/18/18
f 10/12/12 2/89/89 12/19/19
f 32/18/18 12/19/19 13/20/20
f 13/20/20 14/22/22 36/21/21
f 14/22/22 4/53/53 15/23/23
f 36/21/21 15/23/23 60/24/24
f 68/25/25 38/29/29 40/26/26
f 40/26/26 42/32/32 70/28/28
f 60/24/24 15/23/23 38/29/29
f 15/23/23 4/53/53 17/30/30
f 38/29/29 17/30/30 18/31/31
f 18/31/31 19/33/33 42/32/32
f 19/33/33 3/55/55 20/34/34
f 42/32/32 20/34/34 61/35/35
f 71/36/36 44/40/40 46/37/37
f 46/37/37 48/43/43 73/39/39
f 61/35/35 20/34/34 44/40/40
f 20/34/34 3/55/55 22/41/41
f 44/40/40 22/41/41 23/42/42
f 23/42/42 24/44/44 48/43/43
f 24/44/44 1/88/88 6/7/7
f 48/43/43 6/7/7 58/5/5
f 49/45/45 50/49/49 53/46/46
f 51/48/48 54/54/54 53/46/46
f 53/46/46 56/52/52 55/50/50
f 53/46/46 54/54/54 57/51/51
f 14/22/22 49/45/45 17/30/30
f 13/20/20 50/49/49 49/45/45
f 13/20/20 12/19/19 51/48/48
f 12/19/19 2/89/89 9/11/11
f 9/11/11 8/9/9 54/54/54
f 8/9/9 7/8/8 57/51/51
f 7/8/8 1/88/88 24/44/44
f 56/52/52 57/51/51 24/44/44
f 56/52/52 23/42/42 22/41/41
f 19/33/33 55/50/50 22/41/41
f 18/31/31 52/47/47 55/50/50
f 17/30/30 49/45/45 52/47/47
f 89/56/56 73/39/39 58/5/5
f 61/35/35 71/36/36 87/58/58
f 88/60/60 72/38/38 73/39/39
f 71/36/36 72/38/38 88/60/60
f 70/28/28 61/35/35 76/59/59
f 60/24/24 68/25/25 84/62/62
f 69/27/27 70/28/28 86/61/61
f 68/25/25 69/27/27 85/64/64
f 67/17/17 60/24/24 75/63/63
f 74/66/66 59/13/13 65/14/14
f 66/16/16 67/17/17 83/65/65
f 81/67/67 65/14/14 66/16/16
f 80/69/69 64/4/4 59/13/13
f 77/57/57 58/5/5 62/1/1
f 79/71/71 63/3/3 64/4/4
f 78/70/70 62/1/1 63/3/3
f 25/72/72 78/70/70 79/71/71
f 27/73/73 79/71/71 80/69/69
f 5/75/75 77/57/57 78/70/70
f 29/74/74 80/69/69 74/66/66
f 31/77/77 81/67/67 82/68/68
f 82/68/68 83/65/65 35/79/79
f 11/76/76 74/66/66 81/67/67
f 83/65/65 75/63/63 16/80/80
f 84/62/62 85/64/64 39/81/81
f 85/64/64 86/61/61 41/83/83
f 75/63/63 84/62/62 37/82/82
f 86/61/61 76/59/59 21/84/84
f 87/58/58 88/60/60 45/85/85
f 45/85/85 88/60/60 89/56/56
f 76/59/59 87/58/58 43/86/86
f 47/87/87 89/56/56 77/57/57
